<svg id="Grupo_31593" data-name="Grupo 31593" xmlns="http://www.w3.org/2000/svg" xmlns:xlink="http://www.w3.org/1999/xlink" width="350.627" height="382.452" viewBox="0 0 350.627 382.452">
  <defs>
    <clipPath id="clip-path">
      <rect id="Rectángulo_4629" data-name="Rectángulo 4629" width="350.627" height="382.452" fill="none"/>
    </clipPath>
  </defs>
  <g id="Grupo_31590" data-name="Grupo 31590">
    <g id="Grupo_31589" data-name="Grupo 31589" clip-path="url(#clip-path)">
      <path id="Trazado_28978" data-name="Trazado 28978" d="M133.249,143.086a108.738,108.738,0,0,1,41.87-101.77A108.961,108.961,0,1,0,67.694,228.782a109.066,109.066,0,0,1,65.554-85.7" transform="translate(0.195 29.672)" fill="#ea2c1c"/>
      <path id="Trazado_28979" data-name="Trazado 28979" d="M133.249,143.086a108.738,108.738,0,0,1,41.87-101.77A108.961,108.961,0,1,0,67.694,228.782,109.066,109.066,0,0,1,133.249,143.086Z" transform="translate(0.195 29.672)" fill="none" stroke="#000" stroke-miterlimit="10" stroke-width="0.25"/>
      <path id="Trazado_28980" data-name="Trazado 28980" d="M243.461,127.979A108.947,108.947,0,0,0,68.468,41.316,108.772,108.772,0,0,1,111.4,127.979a109.767,109.767,0,0,1-1.017,14.713,109.065,109.065,0,0,1,66.5,85.7,108.992,108.992,0,0,0,66.571-100.408" transform="translate(106.845 29.672)" fill="#12903f"/>
      <path id="Trazado_28981" data-name="Trazado 28981" d="M243.461,127.979A108.947,108.947,0,0,0,68.468,41.316,108.772,108.772,0,0,1,111.4,127.979a109.767,109.767,0,0,1-1.017,14.713,109.065,109.065,0,0,1,66.5,85.7A108.992,108.992,0,0,0,243.461,127.979Z" transform="translate(106.845 29.672)" fill="none" stroke="#000" stroke-miterlimit="10" stroke-width="0.25"/>
      <path id="Trazado_28982" data-name="Trazado 28982" d="M51.7,114.387a109.679,109.679,0,0,0,1.068,15.107,109.2,109.2,0,0,1,83.788-.394,109.767,109.767,0,0,0,1.017-14.713A108.772,108.772,0,0,0,94.636,27.724,108.775,108.775,0,0,0,51.7,114.387" transform="translate(80.677 43.264)" fill="#fef011"/>
      <path id="Trazado_28983" data-name="Trazado 28983" d="M51.7,114.387a109.679,109.679,0,0,0,1.068,15.107,109.2,109.2,0,0,1,83.788-.394,109.767,109.767,0,0,0,1.017-14.713A108.772,108.772,0,0,0,94.636,27.724,108.775,108.775,0,0,0,51.7,114.387Z" transform="translate(80.677 43.264)" fill="none" stroke="#000" stroke-miterlimit="10" stroke-width="0.25"/>
      <path id="Trazado_28984" data-name="Trazado 28984" d="M134.557,95.415a108.465,108.465,0,0,1-66.031,22.3,108.589,108.589,0,0,1-41.393-8.163,108.955,108.955,0,1,0,216.912,14.715,109.744,109.744,0,0,0-1.065-15.11,108.592,108.592,0,0,1-42.394,8.557,108.457,108.457,0,0,1-66.028-22.3" transform="translate(40.756 148.897)" fill="#002172"/>
      <path id="Trazado_28985" data-name="Trazado 28985" d="M134.557,95.415a108.465,108.465,0,0,1-66.031,22.3,108.589,108.589,0,0,1-41.393-8.163,108.955,108.955,0,1,0,216.912,14.715,109.744,109.744,0,0,0-1.065-15.11,108.592,108.592,0,0,1-42.394,8.557A108.457,108.457,0,0,1,134.557,95.415Z" transform="translate(40.756 148.897)" fill="none" stroke="#000" stroke-miterlimit="10" stroke-width="0.25"/>
      <path id="Trazado_28986" data-name="Trazado 28986" d="M133.938,139.022a108.848,108.848,0,0,1-41.87-71.551,109.067,109.067,0,0,0-65.554,85.693,108.943,108.943,0,0,0,107.424-14.142" transform="translate(41.376 105.29)" fill="#e53477"/>
      <path id="Trazado_28987" data-name="Trazado 28987" d="M133.938,139.022a108.848,108.848,0,0,1-41.87-71.551,109.067,109.067,0,0,0-65.554,85.693,108.943,108.943,0,0,0,107.424-14.142Z" transform="translate(41.376 105.29)" fill="none" stroke="#000" stroke-miterlimit="10" stroke-width="0.25"/>
      <path id="Trazado_28988" data-name="Trazado 28988" d="M110.386,67.316a108.844,108.844,0,0,1-41.918,71.948,109.037,109.037,0,0,0,108.423,13.747,109.057,109.057,0,0,0-66.5-85.7" transform="translate(106.845 105.048)" fill="#009ae0"/>
      <path id="Trazado_28989" data-name="Trazado 28989" d="M110.386,67.316a108.844,108.844,0,0,1-41.918,71.948,109.037,109.037,0,0,0,108.423,13.747A109.057,109.057,0,0,0,110.386,67.316Z" transform="translate(106.845 105.048)" fill="none" stroke="#000" stroke-miterlimit="10" stroke-width="0.25"/>
      <path id="Trazado_28990" data-name="Trazado 28990" d="M52.116,72.685a108.838,108.838,0,0,0,41.87,71.551A108.839,108.839,0,0,0,135.9,72.291a109.165,109.165,0,0,0-83.788.394" transform="translate(81.328 100.073)" fill="#fff"/>
      <path id="Trazado_28991" data-name="Trazado 28991" d="M52.116,72.685a108.838,108.838,0,0,0,41.87,71.551A108.839,108.839,0,0,0,135.9,72.291a109.165,109.165,0,0,0-83.788.394Z" transform="translate(81.328 100.073)" fill="none" stroke="#000" stroke-miterlimit="10" stroke-width="0.25"/>
    </g>
  </g>
  <text id="Amarillo" transform="translate(142.326 146.891)" font-size="17" font-family="CerebriSans-Regular, Cerebri Sans"><tspan x="0" y="0">Amarillo</tspan></text>
  <text id="Azul" transform="translate(155.654 307.331)" fill="#fff" font-size="18" font-family="CerebriSans-Regular, Cerebri Sans"><tspan x="0" y="0">Azul</tspan></text>
  <text id="Cian" transform="translate(216.819 246.571)" fill="#fff" font-size="17" font-family="CerebriSans-Regular, Cerebri Sans"><tspan x="0" y="0">Cian</tspan></text>
  <text id="Magenta" transform="translate(81.441 246.571)" fill="#fff" font-size="17" font-family="CerebriSans-Regular, Cerebri Sans"><tspan x="0" y="0" letter-spacing="-0.006em">M</tspan><tspan y="0" letter-spacing="-0.009em">a</tspan><tspan y="0">gen</tspan><tspan y="0" letter-spacing="-0.006em">t</tspan><tspan y="0">a</tspan></text>
  <text id="Verde" transform="translate(252.476 147.251)" fill="#fff" font-size="18" font-family="CerebriSans-Regular, Cerebri Sans"><tspan x="0" y="0" letter-spacing="-0.049em">V</tspan><tspan y="0">e</tspan><tspan y="0" letter-spacing="-0.005em">r</tspan><tspan y="0">de</tspan></text>
  <text id="Rojo" transform="translate(49.15 147.251)" fill="#fff" font-size="18" font-family="CerebriSans-Regular, Cerebri Sans"><tspan x="0" y="0" letter-spacing="-0.029em">R</tspan><tspan y="0">ojo</tspan></text>
  <g id="Grupo_31592" data-name="Grupo 31592">
    <g id="Grupo_31591" data-name="Grupo 31591" clip-path="url(#clip-path)">
      <text id="Colores_luz" data-name="Colores luz" transform="translate(104.747 22.599)" font-size="28" font-family="CerebriSans-Regular, Cerebri Sans"><tspan x="0" y="0">Colo</tspan><tspan y="0" letter-spacing="-0.005em">r</tspan><tspan y="0">es luz</tspan></text>
    </g>
  </g>
</svg>
