<svg id="Layer_1" data-name="Layer 1" xmlns="http://www.w3.org/2000/svg" width="563.56" height="300.44" viewBox="0 0 563.56 300.44">
  <defs>
    <style>
      .cls-1 {
        fill: #29abe2;
      }

      .cls-2 {
        fill: #f2f2f2;
      }

      .cls-3 {
        opacity: 0.75;
      }

      .cls-4 {
        opacity: 0.5;
      }

      .cls-5 {
        opacity: 0.25;
      }
    </style>
  </defs>
  <g>
    <rect class="cls-1" width="281.78" height="228.44"/>
    <rect class="cls-2" x="281.78" width="281.78" height="300.44"/>
    <rect class="cls-1" y="228.44" width="70.44" height="72"/>
    <g class="cls-3">
      <rect class="cls-1" x="70.44" y="228.44" width="70.44" height="72"/>
    </g>
    <g class="cls-4">
      <rect class="cls-1" x="140.89" y="228.44" width="70.44" height="72"/>
    </g>
    <g class="cls-5">
      <rect class="cls-1" x="211.33" y="228.44" width="70.44" height="72"/>
    </g>
    <g>
      <path d="M335.64,82.4l-1.95-5.53H322.43l-1.95,5.53h-5.7l9.87-26.81h6.81l9.87,26.81ZM324.06,72.22h8l-4-11.38Z"/>
      <path d="M358.57,63.33l-8.39,15h8.13V82.4H342.59l8.35-15h-7.7V63.33Z"/>
      <path d="M374.86,63.33h5.34V82.4h-5.06L375,80.1a7.28,7.28,0,0,1-6.07,2.67,7.46,7.46,0,0,1-5.27-1.71,6.4,6.4,0,0,1-1.83-4.89V63.33h5.36V75a3.31,3.31,0,0,0,.95,2.61,3.63,3.63,0,0,0,2.48.84,4.25,4.25,0,0,0,3-1.09,4.62,4.62,0,0,0,1.2-3.53Z"/>
      <path d="M385.73,82.4V53.9h5.4V82.4Z"/>
    </g>
    <g>
      <path d="M325.11,162.37a5.93,5.93,0,0,1-2.17-.39,5.62,5.62,0,0,1-1.74-1.11,5.07,5.07,0,0,1-1.15-1.79,6.41,6.41,0,0,1-.42-2.37,6.34,6.34,0,0,1,.42-2.35,5,5,0,0,1,2.89-2.9,5.93,5.93,0,0,1,2.17-.39,5.55,5.55,0,0,1,2.92.78A4.82,4.82,0,0,1,330,154l-1.29.53a3.71,3.71,0,0,0-1.44-1.57,4.12,4.12,0,0,0-2.13-.55,4.47,4.47,0,0,0-1.61.29,3.81,3.81,0,0,0-1.29.83,3.7,3.7,0,0,0-.87,1.36,5,5,0,0,0-.32,1.82,5.11,5.11,0,0,0,.32,1.84,3.7,3.7,0,0,0,.87,1.36,3.81,3.81,0,0,0,1.29.83,4.27,4.27,0,0,0,1.61.29,4.12,4.12,0,0,0,2.13-.55,3.63,3.63,0,0,0,1.44-1.56l1.29.53A4.8,4.8,0,0,1,328,161.6,5.65,5.65,0,0,1,325.11,162.37Z"/>
      <path d="M335.25,162.37a4,4,0,0,1-2-.48,3.38,3.38,0,0,1-1.39-1.39,4.29,4.29,0,0,1-.51-2.12,3.91,3.91,0,0,1,1.09-2.9,4.09,4.09,0,0,1,5.56,0,4.42,4.42,0,0,1,0,5.8A3.73,3.73,0,0,1,335.25,162.37Zm0-1.12a2.4,2.4,0,0,0,1.82-.79,3,3,0,0,0,.72-2.08,2.93,2.93,0,0,0-.72-2.07,2.36,2.36,0,0,0-1.82-.79,2.32,2.32,0,0,0-1.8.79,2.93,2.93,0,0,0-.72,2.07,3,3,0,0,0,.72,2.08A2.36,2.36,0,0,0,335.24,161.25Z"/>
      <path d="M344.86,154.39a2.69,2.69,0,0,1,1.93.7,2.6,2.6,0,0,1,.72,2v5.17h-1.35v-4.87a1.83,1.83,0,0,0-.47-1.37,1.65,1.65,0,0,0-1.2-.45,1.88,1.88,0,0,0-1.37.53,2.19,2.19,0,0,0-.54,1.57v4.59h-1.35v-7.68h1.35v1A2.56,2.56,0,0,1,344.86,154.39Z"/>
      <path d="M350.52,152.93a4.74,4.74,0,0,1,.08-.89,3.4,3.4,0,0,1,.22-.68,1.6,1.6,0,0,1,.36-.49,2.93,2.93,0,0,1,.48-.33,2.19,2.19,0,0,1,.58-.19,5,5,0,0,1,.66-.1c.22,0,.46,0,.75,0v1.13h-.3l-.28,0a1.31,1.31,0,0,0-.28,0,1.33,1.33,0,0,0-.24.08.56.56,0,0,0-.23.13l-.18.2a.69.69,0,0,0-.15.28,1.77,1.77,0,0,0-.09.38,3.32,3.32,0,0,0,0,.48v1.58h1.79v1.08h-1.79v6.6h-1.34v-6.6H349v-1.08h1.48Zm5.38-.19a.92.92,0,0,1-.92-.92.87.87,0,0,1,.27-.64.92.92,0,0,1,.65-.26.89.89,0,0,1,.63.26.87.87,0,0,1,.27.64.89.89,0,0,1-.27.65A.86.86,0,0,1,355.9,152.74Zm-.69,9.48v-7.68h1.36v7.68Z"/>
      <path d="M361.09,162.37a2.62,2.62,0,0,1-1.68-.53,1.88,1.88,0,0,1-.66-1.57,2.28,2.28,0,0,1,.21-1,1.78,1.78,0,0,1,.62-.69,3.65,3.65,0,0,1,.91-.44,9.46,9.46,0,0,1,1.16-.28l1.25-.2c.45-.08.68-.32.68-.71a1.31,1.31,0,0,0-.49-1.14,1.9,1.9,0,0,0-1.21-.37,2,2,0,0,0-1.2.35,1.45,1.45,0,0,0-.57,1.08l-1.22-.26a2.33,2.33,0,0,1,1-1.64,3.54,3.54,0,0,1,2.09-.55,4,4,0,0,1,1.12.14,3,3,0,0,1,.93.43,1.94,1.94,0,0,1,.66.82,3.09,3.09,0,0,1,.24,1.27v3.17a1.37,1.37,0,0,0,.17.8.76.76,0,0,0,.61.21h.12v1h-.67a1.27,1.27,0,0,1-1.45-1h-.06A3,3,0,0,1,361.09,162.37Zm.31-1.09a2,2,0,0,0,1.65-.75,3,3,0,0,0,.63-2l-2,.39a2.73,2.73,0,0,0-1.2.43,1,1,0,0,0-.38.84,1,1,0,0,0,.37.84A1.54,1.54,0,0,0,361.4,161.28Z"/>
      <path d="M371.77,154.39a3.34,3.34,0,0,1,2.54,1.11,4.07,4.07,0,0,1,1,2.89,4.12,4.12,0,0,1-1,2.89,3.35,3.35,0,0,1-2.55,1.11,3.09,3.09,0,0,1-1.64-.45,2.83,2.83,0,0,1-1.09-1.21l0,1.49h-1.3v-12H369V156a2.84,2.84,0,0,1,1.1-1.18A3.07,3.07,0,0,1,371.77,154.39Zm-.3,6.82a2.35,2.35,0,0,0,1.8-.78,3.23,3.23,0,0,0,0-4.09,2.35,2.35,0,0,0-1.8-.78,2.31,2.31,0,0,0-1.78.81,3.19,3.19,0,0,0,0,4A2.32,2.32,0,0,0,371.47,161.21Z"/>
      <path d="M377.47,162.22v-12h1.37v12Z"/>
      <path d="M388.31,158.23l0,.37h-6a2.69,2.69,0,0,0,.74,2,2.4,2.4,0,0,0,1.75.69,2.33,2.33,0,0,0,1.27-.37,2.5,2.5,0,0,0,.88-1l1.22.26a3.48,3.48,0,0,1-1.32,1.65,3.59,3.59,0,0,1-2,.6A3.71,3.71,0,0,1,382,161.3a4.55,4.55,0,0,1,0-5.84,3.69,3.69,0,0,1,2.72-1.07,3.47,3.47,0,0,1,2.59,1A3.88,3.88,0,0,1,388.31,158.23Zm-3.56-2.8a2.35,2.35,0,0,0-1.59.55,2.49,2.49,0,0,0-.81,1.58H387a2.29,2.29,0,0,0-.67-1.58A2.16,2.16,0,0,0,384.75,155.43Z"/>
      <path d="M326.35,181.42l-2.83-5h-1.73v5H320.4v-11H324a3.3,3.3,0,0,1,2.47.87,3.1,3.1,0,0,1,.85,2.24,2.76,2.76,0,0,1-2.44,2.88l3.06,5Zm-4.56-9.77v3.71h2.07a2.32,2.32,0,0,0,1.61-.5,1.73,1.73,0,0,0,.53-1.34,1.78,1.78,0,0,0-.54-1.36,2.26,2.26,0,0,0-1.6-.51Z"/>
      <path d="M336.25,177.43l0,.37h-6a2.69,2.69,0,0,0,.74,2,2.38,2.38,0,0,0,1.75.69,2.32,2.32,0,0,0,2.14-1.39l1.22.26a3.41,3.41,0,0,1-1.31,1.65,3.59,3.59,0,0,1-2,.6A3.71,3.71,0,0,1,330,180.5a4.55,4.55,0,0,1,0-5.84,3.68,3.68,0,0,1,2.72-1.07,3.43,3.43,0,0,1,2.58,1A3.88,3.88,0,0,1,336.25,177.43Zm-3.56-2.8a2.38,2.38,0,0,0-1.6.55,2.53,2.53,0,0,0-.8,1.58h4.6a2.29,2.29,0,0,0-.67-1.58A2.16,2.16,0,0,0,332.69,174.63Z"/>
      <path d="M340.79,181.57a3.67,3.67,0,0,1-2.07-.55,2.3,2.3,0,0,1-1-1.58l1.18-.34a1.64,1.64,0,0,0,.62,1.07,2.08,2.08,0,0,0,1.27.38,2.74,2.74,0,0,0,.73-.1,1.22,1.22,0,0,0,.57-.38,1,1,0,0,0,.23-.7,1.07,1.07,0,0,0-.07-.32.83.83,0,0,0-.12-.25.64.64,0,0,0-.22-.21l-.26-.17-.35-.14-.37-.13-.43-.12-.45-.13c-.32-.1-.59-.19-.8-.28a3.6,3.6,0,0,1-.64-.37,1.43,1.43,0,0,1-.51-.61,2.06,2.06,0,0,1-.17-.86,2,2,0,0,1,.38-1.23,2.12,2.12,0,0,1,1-.72,3.86,3.86,0,0,1,1.37-.22,3.39,3.39,0,0,1,1.87.5,2.13,2.13,0,0,1,.93,1.5l-1.11.28a1.44,1.44,0,0,0-.59-1,1.82,1.82,0,0,0-1.1-.33,1.91,1.91,0,0,0-1,.27.93.93,0,0,0-.43.83.76.76,0,0,0,.12.42,1.07,1.07,0,0,0,.23.3,1.11,1.11,0,0,0,.42.23,3.6,3.6,0,0,0,.45.17l.56.14.12,0,.74.21a5.36,5.36,0,0,1,.66.28,2.25,2.25,0,0,1,.6.42,2,2,0,0,1,.38.59,2.23,2.23,0,0,1,.15.83,2.31,2.31,0,0,1-.23,1,1.71,1.71,0,0,1-.63.7,2.65,2.65,0,0,1-.89.39A4.1,4.1,0,0,1,340.79,181.57Z"/>
      <path d="M349.8,173.59a3.63,3.63,0,0,1,1.39.28,3.53,3.53,0,0,1,1.14.79,3.57,3.57,0,0,1,.77,1.27,4.71,4.71,0,0,1,.29,1.66,4,4,0,0,1-1,2.89,3.35,3.35,0,0,1-2.55,1.11,3,3,0,0,1-1.6-.44,2.84,2.84,0,0,1-1.1-1.18v5.32h-1.35V173.74h1.3l0,1.49a2.81,2.81,0,0,1,1.1-1.19A3,3,0,0,1,349.8,173.59Zm-.26,6.82a2.31,2.31,0,0,0,1.77-.77,3.24,3.24,0,0,0,0-4.1,2.31,2.31,0,0,0-1.77-.77,2.37,2.37,0,0,0-1.81.8,3.16,3.16,0,0,0,0,4A2.37,2.37,0,0,0,349.54,180.41Z"/>
      <path d="M358.75,181.57a4,4,0,0,1-2-.48,3.38,3.38,0,0,1-1.39-1.39,4.29,4.29,0,0,1-.51-2.12,3.91,3.91,0,0,1,1.09-2.9,3.77,3.77,0,0,1,2.77-1.09,3.81,3.81,0,0,1,2.79,1.09,4.42,4.42,0,0,1,0,5.8A3.74,3.74,0,0,1,358.75,181.57Zm0-1.12a2.36,2.36,0,0,0,1.81-.79,3,3,0,0,0,.73-2.08,2.94,2.94,0,0,0-.73-2.07,2.33,2.33,0,0,0-1.81-.79,2.29,2.29,0,0,0-1.8.79,2.93,2.93,0,0,0-.72,2.07,3,3,0,0,0,.72,2.08A2.33,2.33,0,0,0,358.75,180.45Z"/>
      <path d="M368.36,173.59a2.7,2.7,0,0,1,1.94.7,2.6,2.6,0,0,1,.72,2v5.17h-1.35v-4.87a1.83,1.83,0,0,0-.47-1.37,1.65,1.65,0,0,0-1.2-.45,1.86,1.86,0,0,0-1.37.53,2.19,2.19,0,0,0-.54,1.57v4.59h-1.35v-7.68h1.35v1A2.56,2.56,0,0,1,368.36,173.59Z"/>
      <path d="M376.06,181.57A3.63,3.63,0,0,1,374,181a2.31,2.31,0,0,1-1-1.58l1.18-.34a1.62,1.62,0,0,0,.63,1.07,2.07,2.07,0,0,0,1.26.38,2.82,2.82,0,0,0,.74-.1,1.28,1.28,0,0,0,.57-.38,1,1,0,0,0,.22-.7.83.83,0,0,0-.06-.32,2,2,0,0,0-.12-.25.64.64,0,0,0-.22-.21,2.29,2.29,0,0,0-.27-.17,2.27,2.27,0,0,0-.35-.14l-.37-.13-.43-.12-.44-.13a7.85,7.85,0,0,1-.8-.28,3.66,3.66,0,0,1-.65-.37,1.49,1.49,0,0,1-.5-.61,2.06,2.06,0,0,1-.17-.86,2,2,0,0,1,.38-1.23,2.12,2.12,0,0,1,1-.72,3.84,3.84,0,0,1,1.36-.22,3.36,3.36,0,0,1,1.87.5,2.14,2.14,0,0,1,.94,1.5l-1.11.28a1.47,1.47,0,0,0-.59-1,1.84,1.84,0,0,0-1.1-.33,1.88,1.88,0,0,0-1,.27.91.91,0,0,0-.43.83.85.85,0,0,0,.11.42,1,1,0,0,0,.65.53,4.26,4.26,0,0,0,.46.17l.56.14.12,0,.73.21a5.42,5.42,0,0,1,.67.28,2.43,2.43,0,0,1,.6.42,2,2,0,0,1,.37.59,2,2,0,0,1,.16.83,2.31,2.31,0,0,1-.23,1,1.86,1.86,0,0,1-.63.7,2.8,2.8,0,0,1-.9.39A4.08,4.08,0,0,1,376.06,181.57Z"/>
      <path d="M382.79,181.57a2.63,2.63,0,0,1-1.69-.53,1.88,1.88,0,0,1-.66-1.57,2.28,2.28,0,0,1,.21-1,1.74,1.74,0,0,1,.63-.69,3.42,3.42,0,0,1,.9-.44,10.14,10.14,0,0,1,1.17-.28l1.24-.2c.45-.08.68-.32.68-.71a1.33,1.33,0,0,0-.48-1.14,1.92,1.92,0,0,0-1.21-.37,2,2,0,0,0-1.21.35,1.51,1.51,0,0,0-.57,1.08l-1.22-.26a2.4,2.4,0,0,1,1-1.64,3.6,3.6,0,0,1,2.1-.55,4.27,4.27,0,0,1,1.11.14,2.82,2.82,0,0,1,.93.43,1.87,1.87,0,0,1,.66.82,3.09,3.09,0,0,1,.24,1.27v3.17a1.29,1.29,0,0,0,.18.8.75.75,0,0,0,.6.21h.13v1h-.67c-.83,0-1.32-.34-1.46-1h-.06A2.93,2.93,0,0,1,382.79,181.57Zm.31-1.09a2.05,2.05,0,0,0,1.65-.75,3.08,3.08,0,0,0,.62-2l-2,.39a2.68,2.68,0,0,0-1.19.43,1.12,1.12,0,0,0,0,1.68A1.55,1.55,0,0,0,383.1,180.48Z"/>
      <path d="M393.47,173.59A3.32,3.32,0,0,1,396,174.7a4,4,0,0,1,1,2.89,4.08,4.08,0,0,1-1,2.89,3.31,3.31,0,0,1-2.54,1.11,3.06,3.06,0,0,1-1.64-.45,2.86,2.86,0,0,1-1.1-1.21l0,1.49h-1.3v-12h1.34v5.79a2.82,2.82,0,0,1,1.09-1.18A3.14,3.14,0,0,1,393.47,173.59Zm-.3,6.82a2.38,2.38,0,0,0,1.8-.78,3.26,3.26,0,0,0,0-4.09,2.38,2.38,0,0,0-1.8-.78,2.3,2.3,0,0,0-1.78.81,2.88,2.88,0,0,0-.73,2,2.94,2.94,0,0,0,.72,2A2.34,2.34,0,0,0,393.17,180.41Z"/>
      <path d="M399.17,181.42v-12h1.37v12Z"/>
      <path d="M410,177.43v.37h-6a2.69,2.69,0,0,0,.73,2,2.41,2.41,0,0,0,1.75.69,2.32,2.32,0,0,0,2.15-1.39l1.22.26a3.47,3.47,0,0,1-1.31,1.65,3.59,3.59,0,0,1-2,.6,3.75,3.75,0,0,1-2.77-1.07,4.57,4.57,0,0,1,0-5.84,3.66,3.66,0,0,1,2.72-1.07,3.46,3.46,0,0,1,2.58,1A3.88,3.88,0,0,1,410,177.43Zm-3.55-2.8a2.36,2.36,0,0,0-1.6.55,2.49,2.49,0,0,0-.81,1.58h4.61a2.3,2.3,0,0,0-.68-1.58A2.12,2.12,0,0,0,406.45,174.63Z"/>
      <path d="M327.37,189.62h1.4v11h-1.4v-4.88H321.8v4.88h-1.4v-11h1.4v4.86h5.57Z"/>
      <path d="M335,200.77a4,4,0,0,1-2-.48,3.38,3.38,0,0,1-1.39-1.39,4.29,4.29,0,0,1-.51-2.12,3.92,3.92,0,0,1,1.09-2.9,4.09,4.09,0,0,1,5.56,0,4,4,0,0,1,1.08,2.9,3.91,3.91,0,0,1-1.09,2.9A3.73,3.73,0,0,1,335,200.77Zm0-1.12a2.4,2.4,0,0,0,1.82-.79,3,3,0,0,0,.72-2.08,2.93,2.93,0,0,0-.72-2.07,2.36,2.36,0,0,0-1.82-.79,2.32,2.32,0,0,0-1.8.79,2.93,2.93,0,0,0-.72,2.07,3,3,0,0,0,.72,2.08A2.36,2.36,0,0,0,335,199.65Z"/>
      <path d="M344.61,192.79a2.69,2.69,0,0,1,1.93.7,2.6,2.6,0,0,1,.72,2v5.17h-1.35v-4.87a1.82,1.82,0,0,0-.47-1.37,1.65,1.65,0,0,0-1.2-.45,1.88,1.88,0,0,0-1.37.53,2.19,2.19,0,0,0-.54,1.57v4.59H341v-7.68h1.35v1A2.56,2.56,0,0,1,344.61,192.79Z"/>
      <path d="M356.59,196.63V197h-6a2.69,2.69,0,0,0,.73,2,2.4,2.4,0,0,0,1.75.69,2.33,2.33,0,0,0,1.27-.37,2.44,2.44,0,0,0,.88-1l1.22.26a3.48,3.48,0,0,1-1.32,1.65,3.54,3.54,0,0,1-2,.6,3.71,3.71,0,0,1-2.77-1.07,4.55,4.55,0,0,1,0-5.84,3.7,3.7,0,0,1,2.73-1.07,3.46,3.46,0,0,1,2.58,1A3.86,3.86,0,0,1,356.59,196.63Zm-3.55-2.8a2.36,2.36,0,0,0-1.6.55,2.49,2.49,0,0,0-.81,1.58h4.6a2.25,2.25,0,0,0-.67-1.58A2.14,2.14,0,0,0,353,193.83Z"/>
      <path d="M361.14,200.77a3.63,3.63,0,0,1-2.07-.55,2.31,2.31,0,0,1-1-1.58l1.18-.34a1.62,1.62,0,0,0,.63,1.07,2,2,0,0,0,1.26.38,2.82,2.82,0,0,0,.74-.1,1.2,1.2,0,0,0,.56-.38,1,1,0,0,0,.23-.7,1.07,1.07,0,0,0-.06-.32,1.17,1.17,0,0,0-.13-.25.56.56,0,0,0-.22-.21,1.64,1.64,0,0,0-.26-.17l-.35-.14-.37-.13-.43-.12-.44-.13a7.85,7.85,0,0,1-.8-.28,3.34,3.34,0,0,1-.65-.37,1.49,1.49,0,0,1-.5-.61,1.91,1.91,0,0,1-.17-.86,2,2,0,0,1,.37-1.23,2.15,2.15,0,0,1,1-.72,3.8,3.8,0,0,1,1.36-.22,3.36,3.36,0,0,1,1.87.5,2.1,2.1,0,0,1,.93,1.5l-1.11.28a1.43,1.43,0,0,0-.58-1,1.86,1.86,0,0,0-1.1-.33,1.88,1.88,0,0,0-1,.27.91.91,0,0,0-.43.83.76.76,0,0,0,.11.42,1.07,1.07,0,0,0,.23.3,1.3,1.3,0,0,0,.42.23,4.31,4.31,0,0,0,.45.17l.57.14.11,0,.74.21a4.64,4.64,0,0,1,.67.28,2.18,2.18,0,0,1,.59.42,1.82,1.82,0,0,1,.38.59,2.19,2.19,0,0,1,.16.83,2.31,2.31,0,0,1-.23,1,1.86,1.86,0,0,1-.63.7,2.8,2.8,0,0,1-.9.39A4.08,4.08,0,0,1,361.14,200.77Z"/>
      <path d="M368.54,200.62a2,2,0,0,1-1.5-.55,2.1,2.1,0,0,1-.54-1.53V194h-1.57v-1.08h.57a1.1,1.1,0,0,0,.85-.27,1.29,1.29,0,0,0,.25-.9v-1.39h1.26v2.56h1.76V194h-1.76v4.38a1.13,1.13,0,0,0,.29.84,1,1,0,0,0,.77.3h.7v1.08Z"/>
      <path d="M374.72,200.77a4,4,0,0,1-2-.48,3.38,3.38,0,0,1-1.39-1.39,4.29,4.29,0,0,1-.51-2.12,3.92,3.92,0,0,1,1.09-2.9,4.09,4.09,0,0,1,5.56,0,4,4,0,0,1,1.08,2.9,3.91,3.91,0,0,1-1.09,2.9A3.73,3.73,0,0,1,374.72,200.77Zm0-1.12a2.36,2.36,0,0,0,1.81-.79,2.93,2.93,0,0,0,.73-2.08,2.89,2.89,0,0,0-.73-2.07,2.33,2.33,0,0,0-1.81-.79,2.29,2.29,0,0,0-1.8.79,2.93,2.93,0,0,0-.72,2.07,3,3,0,0,0,.72,2.08A2.33,2.33,0,0,0,374.71,199.65Z"/>
      <path d="M321.79,218.55h3.82v1.27H320.4v-11h1.39Z"/>
      <path d="M334.15,215.83v.37h-6a2.69,2.69,0,0,0,.73,2,2.4,2.4,0,0,0,1.75.69,2.32,2.32,0,0,0,2.15-1.39l1.22.26a3.47,3.47,0,0,1-1.31,1.65,3.59,3.59,0,0,1-2,.6,3.75,3.75,0,0,1-2.77-1.07,4.57,4.57,0,0,1,0-5.84A3.66,3.66,0,0,1,330.6,212a3.46,3.46,0,0,1,2.58,1A3.86,3.86,0,0,1,334.15,215.83ZM330.6,213a2.36,2.36,0,0,0-1.6.55,2.49,2.49,0,0,0-.81,1.58h4.6a2.25,2.25,0,0,0-.67-1.58A2.12,2.12,0,0,0,330.6,213Z"/>
      <path d="M338,220a2.62,2.62,0,0,1-1.68-.53,1.88,1.88,0,0,1-.66-1.57,2.2,2.2,0,0,1,.21-1,1.7,1.7,0,0,1,.63-.7,3.42,3.42,0,0,1,.9-.44,9.22,9.22,0,0,1,1.17-.28l1.24-.2c.45-.08.68-.32.68-.71a1.33,1.33,0,0,0-.48-1.14,1.93,1.93,0,0,0-1.22-.37,2,2,0,0,0-1.2.35,1.51,1.51,0,0,0-.57,1.08l-1.22-.26a2.4,2.4,0,0,1,1-1.64,3.6,3.6,0,0,1,2.1-.55,4.32,4.32,0,0,1,1.11.14,3,3,0,0,1,.93.43,1.94,1.94,0,0,1,.66.82,3.09,3.09,0,0,1,.24,1.27v3.17a1.29,1.29,0,0,0,.18.8.74.74,0,0,0,.6.21h.13v1h-.67c-.83,0-1.32-.34-1.46-1h-.06A2.91,2.91,0,0,1,338,220Zm.32-1.09a2,2,0,0,0,1.64-.75,3,3,0,0,0,.63-2l-2,.39a2.68,2.68,0,0,0-1.19.43,1,1,0,0,0-.39.84,1,1,0,0,0,.37.84A1.55,1.55,0,0,0,338.36,218.88Z"/>
      <path d="M344.65,219.82v-12H346v12Z"/>
      <path d="M323.79,239.17a5,5,0,0,1-2.87-.78,3.29,3.29,0,0,1-1.43-2.13l1.41-.34a2.28,2.28,0,0,0,1,1.5,3.31,3.31,0,0,0,1.94.55,3.41,3.41,0,0,0,.73-.07,3,3,0,0,0,.66-.2,2.12,2.12,0,0,0,.54-.36,1.5,1.5,0,0,0,.36-.54,1.73,1.73,0,0,0,.12-.73,1.46,1.46,0,0,0-.09-.52,1.75,1.75,0,0,0-.22-.41,1.34,1.34,0,0,0-.37-.33,3.82,3.82,0,0,0-.45-.27,4.14,4.14,0,0,0-.55-.22l-.58-.19-.63-.17-.12,0-.74-.21a6.84,6.84,0,0,1-.68-.23,4.57,4.57,0,0,1-.65-.3,4.94,4.94,0,0,1-.54-.38,1.67,1.67,0,0,1-.44-.49,2.36,2.36,0,0,1-.27-.62,3.07,3.07,0,0,1,.41-2.47,3,3,0,0,1,1.32-1,4.76,4.76,0,0,1,1.82-.33,5,5,0,0,1,2.64.68,3,3,0,0,1,1.4,2l-1.36.35a2,2,0,0,0-.91-1.35,3.15,3.15,0,0,0-1.72-.46,3.22,3.22,0,0,0-.84.11,2.27,2.27,0,0,0-.73.31,1.46,1.46,0,0,0-.53.57,1.74,1.74,0,0,0-.2.84,1.38,1.38,0,0,0,.28.84,1.64,1.64,0,0,0,.33.3,3.87,3.87,0,0,0,.41.24,3.39,3.39,0,0,0,.51.2l.55.18.6.16a12.56,12.56,0,0,1,2.12.7,2.67,2.67,0,0,1,1.63,2,3.64,3.64,0,0,1,0,.48,3.06,3.06,0,0,1-.31,1.42,2.61,2.61,0,0,1-.87,1,4.57,4.57,0,0,1-1.23.55A5.83,5.83,0,0,1,323.79,239.17Z"/>
      <path d="M336.69,235v.37h-6a2.69,2.69,0,0,0,.73,2,2.39,2.39,0,0,0,1.75.68,2.32,2.32,0,0,0,1.27-.36,2.43,2.43,0,0,0,.88-1l1.22.26a3.53,3.53,0,0,1-1.31,1.65,3.59,3.59,0,0,1-2,.6,3.73,3.73,0,0,1-2.77-1.07,4.57,4.57,0,0,1,0-5.84,3.66,3.66,0,0,1,2.72-1.07,3.46,3.46,0,0,1,2.58,1A3.88,3.88,0,0,1,336.69,235Zm-3.55-2.8a2.36,2.36,0,0,0-1.6.55,2.46,2.46,0,0,0-.81,1.58h4.6a2.23,2.23,0,0,0-.67-1.58A2.12,2.12,0,0,0,333.14,232.23Z"/>
      <path d="M344.37,231.34h1.31v7.29a4.18,4.18,0,0,1-1,3,4.12,4.12,0,0,1-6.47-1.3l1.11-.55a2.54,2.54,0,0,0,2.57,1.77,2.19,2.19,0,0,0,1.8-.75,3.14,3.14,0,0,0,.63-2.09v-1.42a2.65,2.65,0,0,1-1.1,1.1,3.16,3.16,0,0,1-1.6.42,3.29,3.29,0,0,1-2.48-1.08,3.78,3.78,0,0,1-1-2.73,3.74,3.74,0,0,1,1-2.72,3.32,3.32,0,0,1,2.5-1.08,3.14,3.14,0,0,1,1.6.43,2.77,2.77,0,0,1,1.09,1.14Zm-2.44,6.31a2.31,2.31,0,0,0,1.77-.78,2.8,2.8,0,0,0,0-3.76,2.41,2.41,0,0,0-3.54,0,2.84,2.84,0,0,0,0,3.8A2.33,2.33,0,0,0,341.93,237.65Z"/>
      <path d="M353.22,231.34h1.35V239h-1.3l0-1a2.46,2.46,0,0,1-.95.86,3,3,0,0,1-1.35.3,2.63,2.63,0,0,1-1.93-.7,2.58,2.58,0,0,1-.72-2v-5.17h1.35v4.87a1.79,1.79,0,0,0,.47,1.37,1.66,1.66,0,0,0,1.21.46,1.85,1.85,0,0,0,1.36-.53,2.21,2.21,0,0,0,.54-1.57Z"/>
      <path d="M358.64,232.69a2.34,2.34,0,0,1,.95-1,2.88,2.88,0,0,1,1.48-.4v1.27a2.55,2.55,0,0,0-1.79.57,2.38,2.38,0,0,0-.61,1.82V239h-1.35v-7.68h1.32Z"/>
      <path d="M365.79,239.17a4,4,0,0,1-2-.48,3.38,3.38,0,0,1-1.39-1.39,4.29,4.29,0,0,1-.51-2.12,3.91,3.91,0,0,1,1.09-2.9,3.77,3.77,0,0,1,2.77-1.09,3.81,3.81,0,0,1,2.79,1.09,4.42,4.42,0,0,1,0,5.8A3.75,3.75,0,0,1,365.79,239.17Zm0-1.13a2.35,2.35,0,0,0,1.81-.78,3,3,0,0,0,.73-2.08,2.94,2.94,0,0,0-.73-2.07,2.33,2.33,0,0,0-1.81-.79,2.29,2.29,0,0,0-1.8.79,2.93,2.93,0,0,0-.72,2.07,3,3,0,0,0,.72,2.08A2.32,2.32,0,0,0,365.79,238Z"/>
    </g>
    <g>
      <path d="M324.83,117.11a3.41,3.41,0,0,1,2.6,1,3.69,3.69,0,0,1,1,2.6,3.55,3.55,0,0,1-1,2.58,3.43,3.43,0,0,1-2.6,1h-2.36v4h-2.34V117.11Zm-.4,5.28a1.68,1.68,0,0,0,1.29-.44,1.65,1.65,0,0,0,.43-1.22,1.68,1.68,0,0,0-.43-1.21,1.71,1.71,0,0,0-1.29-.45h-2v3.32Z"/>
      <path d="M333.55,128.56a5.15,5.15,0,0,1-2.27-.49,3.7,3.7,0,0,1-1.56-1.45,4.26,4.26,0,0,1-.57-2.24,4,4,0,0,1,1.22-3,5.09,5.09,0,0,1,6.37,0,4.44,4.44,0,0,1,0,6.11A4.56,4.56,0,0,1,333.55,128.56Zm0-1.79a2.07,2.07,0,0,0,1.59-.66,2.44,2.44,0,0,0,.6-1.73,2.49,2.49,0,0,0-.6-1.74,2.1,2.1,0,0,0-1.59-.65,2,2,0,0,0-1.54.66,2.79,2.79,0,0,0,0,3.46A2,2,0,0,0,333.53,126.77Z"/>
      <path d="M342.46,128.56a4.57,4.57,0,0,1-2.35-.56,2.4,2.4,0,0,1-1.14-1.68l1.88-.53a1.51,1.51,0,0,0,1.61,1.2,1.58,1.58,0,0,0,.82-.19.63.63,0,0,0,.32-.62.69.69,0,0,0-.13-.41,1.24,1.24,0,0,0-.41-.3l-.55-.21-.72-.21a7.45,7.45,0,0,1-.74-.23,4.33,4.33,0,0,1-.71-.3,2.68,2.68,0,0,1-.58-.41,1.67,1.67,0,0,1-.44-.63,2.31,2.31,0,0,1-.15-.86,2.06,2.06,0,0,1,.87-1.8,3.94,3.94,0,0,1,2.28-.61,4,4,0,0,1,2.1.52,2.32,2.32,0,0,1,1.08,1.61l-1.75.39a1.35,1.35,0,0,0-1.42-1,1.54,1.54,0,0,0-.79.18.59.59,0,0,0-.32.54.64.64,0,0,0,0,.24.48.48,0,0,0,.16.19l.23.15a1.48,1.48,0,0,0,.32.13l.35.1.41.11.42.11c.29.08.54.15.76.23a5.28,5.28,0,0,1,.69.33,2.66,2.66,0,0,1,.6.47,2.29,2.29,0,0,1,.4.67,2.48,2.48,0,0,1,.15.89,2.39,2.39,0,0,1-.27,1.16,2,2,0,0,1-.74.79,3.55,3.55,0,0,1-1,.42A5.44,5.44,0,0,1,342.46,128.56Z"/>
      <path d="M348.53,119.17a1.26,1.26,0,0,1-.92-.38,1.27,1.27,0,0,1,0-1.83,1.28,1.28,0,0,1,.92-.38,1.3,1.3,0,0,1,0,2.59Zm-1.15,9.23v-8h2.27v8Z"/>
      <path d="M355,128.4a2.45,2.45,0,0,1-1.82-.65,2.56,2.56,0,0,1-.64-1.86V122.1h-1.58v-1.73h.51a1.32,1.32,0,0,0,1-.33,1.73,1.73,0,0,0,.32-1.2v-1.06h2v2.59h1.66v1.73h-1.66v3.55c0,.7.31,1,.93,1h.73v1.71Z"/>
      <path d="M359.34,119.17a1.26,1.26,0,0,1-.92-.38,1.22,1.22,0,0,1-.38-.92,1.25,1.25,0,0,1,.38-.91,1.29,1.29,0,0,1,.92-.38,1.27,1.27,0,0,1,.91.38,1.29,1.29,0,0,1,0,1.83A1.27,1.27,0,0,1,359.34,119.17Zm-1.15,9.23v-8h2.27v8Z"/>
      <path d="M368,120.37h2.39l-3.43,8h-2l-3.38-8H364l2,5.49Z"/>
      <path d="M375,128.56a5.17,5.17,0,0,1-2.28-.49,3.62,3.62,0,0,1-1.55-1.45,4.26,4.26,0,0,1-.57-2.24,3.91,3.91,0,0,1,1.22-3,5.07,5.07,0,0,1,6.36,0,4.44,4.44,0,0,1,0,6.11A4.54,4.54,0,0,1,375,128.56Zm0-1.79a2,2,0,0,0,1.59-.66,2.41,2.41,0,0,0,.61-1.73,2.45,2.45,0,0,0-.61-1.74A2.07,2.07,0,0,0,375,122a2,2,0,0,0-1.54.66,2.79,2.79,0,0,0,0,3.46A2,2,0,0,0,375,126.77Z"/>
    </g>
    <g>
      <path d="M451.53,152.5H447v3.59H451v1.26H447v4.87h-1.43v-11h5.95Z"/>
      <path d="M454.85,155.89a2.37,2.37,0,0,1,1-1,2.84,2.84,0,0,1,1.47-.4v1.27a2.52,2.52,0,0,0-1.78.57,2.38,2.38,0,0,0-.61,1.82v4.1h-1.36v-7.68h1.32Z"/>
      <path d="M459.56,152.74a.92.92,0,0,1-.92-.92.87.87,0,0,1,.27-.64.92.92,0,0,1,.65-.26.89.89,0,0,1,.63.26.87.87,0,0,1,.27.64.89.89,0,0,1-.27.65A.86.86,0,0,1,459.56,152.74Zm-.69,9.48v-7.68h1.36v7.68Z"/>
      <path d="M466.21,162.37a4,4,0,0,1-2-.48,3.42,3.42,0,0,1-1.38-1.39,4.29,4.29,0,0,1-.51-2.12,3.92,3.92,0,0,1,1.09-2.9,4.08,4.08,0,0,1,5.55,0,4.4,4.4,0,0,1,0,5.8A3.75,3.75,0,0,1,466.21,162.37Zm0-1.12a2.38,2.38,0,0,0,1.81-.79,3,3,0,0,0,.72-2.08,2.93,2.93,0,0,0-.72-2.07,2.47,2.47,0,0,0-3.62,0,3,3,0,0,0-.71,2.07,3,3,0,0,0,.71,2.08A2.36,2.36,0,0,0,466.21,161.25Z"/>
      <path d="M445.58,181.42v-11H447v11Z"/>
      <path d="M453.71,173.59a2.69,2.69,0,0,1,1.93.7,2.6,2.6,0,0,1,.72,2v5.17H455v-4.86a1.84,1.84,0,0,0-.47-1.38,1.65,1.65,0,0,0-1.2-.45,1.88,1.88,0,0,0-1.37.53,2.19,2.19,0,0,0-.54,1.57v4.59h-1.35v-7.68h1.35v1A2.56,2.56,0,0,1,453.71,173.59Z"/>
      <path d="M464.64,169.42H466v12h-1.3l0-1.49a2.86,2.86,0,0,1-1.1,1.21,3,3,0,0,1-1.62.45,3.46,3.46,0,0,1-1.39-.29,3.41,3.41,0,0,1-1.15-.8,3.72,3.72,0,0,1-.77-1.27,4.59,4.59,0,0,1-.28-1.64,4,4,0,0,1,1-2.89,3.35,3.35,0,0,1,2.55-1.11,3.09,3.09,0,0,1,1.61.44,2.86,2.86,0,0,1,1.09,1.17Zm-2.42,11a2.34,2.34,0,0,0,1.79-.8,2.94,2.94,0,0,0,.72-2,2.88,2.88,0,0,0-.73-2,2.3,2.3,0,0,0-1.78-.81,2.38,2.38,0,0,0-1.8.78,2.93,2.93,0,0,0-.72,2.05,2.89,2.89,0,0,0,.72,2A2.38,2.38,0,0,0,462.22,180.41Z"/>
      <path d="M469.43,171.94a.87.87,0,0,1-.64-.27.89.89,0,0,1-.27-.65.87.87,0,0,1,.27-.64.92.92,0,0,1,1.28,0,.87.87,0,0,1,.27.64.89.89,0,0,1-.27.65A.87.87,0,0,1,469.43,171.94Zm-.69,9.48v-7.68h1.36v7.68Z"/>
      <path d="M476.38,170.56h-.58a1.42,1.42,0,0,0-.28,0l-.24.08a.56.56,0,0,0-.23.13l-.18.2a.69.69,0,0,0-.15.28,1.77,1.77,0,0,0-.09.38,3.43,3.43,0,0,0,0,.48v1.58h1.78v1.08H474.6v6.6h-1.35v-6.6h-1.48v-1.08h1.48v-1.61a4.74,4.74,0,0,1,.08-.89,3.4,3.4,0,0,1,.22-.68,1.76,1.76,0,0,1,.37-.49,2.86,2.86,0,0,1,.47-.33,2.19,2.19,0,0,1,.58-.19,5.28,5.28,0,0,1,.66-.1q.33,0,.75,0Z"/>
      <path d="M484.56,177.43v.37h-6a2.69,2.69,0,0,0,.73,2,2.41,2.41,0,0,0,1.75.69,2.32,2.32,0,0,0,2.15-1.39l1.22.26a3.47,3.47,0,0,1-1.31,1.65,3.59,3.59,0,0,1-2,.6,3.75,3.75,0,0,1-2.77-1.07,4.57,4.57,0,0,1,0-5.84,3.66,3.66,0,0,1,2.72-1.07,3.46,3.46,0,0,1,2.58,1A3.88,3.88,0,0,1,484.56,177.43Zm-3.55-2.8a2.36,2.36,0,0,0-1.6.55,2.49,2.49,0,0,0-.81,1.58h4.61a2.3,2.3,0,0,0-.68-1.58A2.12,2.12,0,0,0,481,174.63Z"/>
      <path d="M488,175.09a2.31,2.31,0,0,1,1-1,2.84,2.84,0,0,1,1.47-.4v1.27a2.52,2.52,0,0,0-1.78.57,2.38,2.38,0,0,0-.62,1.82v4.1h-1.35v-7.68H488Z"/>
      <path d="M498.64,177.43v.37h-6a2.69,2.69,0,0,0,.73,2,2.49,2.49,0,0,0,3,.32,2.35,2.35,0,0,0,.87-1l1.22.26a3.47,3.47,0,0,1-1.31,1.65,3.59,3.59,0,0,1-2,.6,3.73,3.73,0,0,1-2.77-1.07,4.57,4.57,0,0,1,0-5.84,3.66,3.66,0,0,1,2.72-1.07,3.46,3.46,0,0,1,2.58,1A3.88,3.88,0,0,1,498.64,177.43Zm-3.55-2.8a2.36,2.36,0,0,0-1.6.55,2.49,2.49,0,0,0-.81,1.58h4.6a2.25,2.25,0,0,0-.67-1.58A2.12,2.12,0,0,0,495.09,174.63Z"/>
      <path d="M504.39,173.59a2.69,2.69,0,0,1,1.93.7,2.6,2.6,0,0,1,.72,2v5.17h-1.35v-4.86a1.84,1.84,0,0,0-.47-1.38,1.65,1.65,0,0,0-1.2-.45,1.86,1.86,0,0,0-1.37.53,2.19,2.19,0,0,0-.54,1.57v4.59h-1.35v-7.68h1.35v1A2.56,2.56,0,0,1,504.39,173.59Z"/>
      <path d="M512.1,181.42a2,2,0,0,1-1.5-.55,2.1,2.1,0,0,1-.54-1.53v-4.52h-1.57v-1.08h.57a1.1,1.1,0,0,0,.85-.27,1.29,1.29,0,0,0,.25-.9v-1.39h1.26v2.56h1.76v1.08h-1.76v4.38a1.13,1.13,0,0,0,.29.84,1,1,0,0,0,.77.3h.7v1.08Z"/>
      <path d="M521.76,177.43l0,.37h-6a2.73,2.73,0,0,0,.74,2,2.4,2.4,0,0,0,1.75.69,2.33,2.33,0,0,0,1.27-.37,2.44,2.44,0,0,0,.88-1l1.22.26a3.48,3.48,0,0,1-1.32,1.65,3.59,3.59,0,0,1-2,.6,3.71,3.71,0,0,1-2.76-1.07,4.55,4.55,0,0,1,0-5.84,3.7,3.7,0,0,1,2.73-1.07,3.46,3.46,0,0,1,2.58,1A3.88,3.88,0,0,1,521.76,177.43Zm-3.55-2.8a2.36,2.36,0,0,0-1.6.55,2.49,2.49,0,0,0-.81,1.58h4.6a2.29,2.29,0,0,0-.67-1.58A2.14,2.14,0,0,0,518.21,174.63Z"/>
      <path d="M445.58,200.62v-11h3.55a5.32,5.32,0,0,1,2.8.71,4.43,4.43,0,0,1,1.72,1.94,6.79,6.79,0,0,1,.56,2.84,7.1,7.1,0,0,1-.33,2.23,4.89,4.89,0,0,1-.95,1.74,4.2,4.2,0,0,1-1.6,1.14,5.64,5.64,0,0,1-2.2.4Zm1.4-1.27h2.1a3.37,3.37,0,0,0,2.75-1.13,4.78,4.78,0,0,0,.92-3.11,4.71,4.71,0,0,0-.93-3.09,3.34,3.34,0,0,0-2.74-1.12H447Z"/>
      <path d="M457.26,191.14a.87.87,0,0,1-.64-.27.89.89,0,0,1-.27-.65.87.87,0,0,1,.27-.64.9.9,0,0,1,.64-.26.92.92,0,0,1,.64.26.87.87,0,0,1,.27.64.92.92,0,0,1-.91.92Zm-.69,9.48v-7.68h1.36v7.68Z"/>
      <path d="M463.11,200.77a3.63,3.63,0,0,1-2.07-.55,2.31,2.31,0,0,1-1-1.58l1.18-.34a1.7,1.7,0,0,0,.63,1.07,2.07,2.07,0,0,0,1.26.38,2.82,2.82,0,0,0,.74-.1,1.28,1.28,0,0,0,.57-.38,1.09,1.09,0,0,0,.23-.7,1.07,1.07,0,0,0-.07-.32,1.17,1.17,0,0,0-.12-.25.64.64,0,0,0-.22-.21,2.29,2.29,0,0,0-.27-.17,2.08,2.08,0,0,0-.34-.14l-.38-.13-.43-.12-.44-.13c-.32-.1-.59-.19-.8-.28a3.66,3.66,0,0,1-.65-.37,1.49,1.49,0,0,1-.5-.61,2.06,2.06,0,0,1-.17-.86,2,2,0,0,1,.38-1.23,2.12,2.12,0,0,1,1-.72,3.84,3.84,0,0,1,1.36-.22,3.34,3.34,0,0,1,1.87.5,2.14,2.14,0,0,1,.94,1.5l-1.11.28a1.44,1.44,0,0,0-.59-1,1.82,1.82,0,0,0-1.1-.33,1.91,1.91,0,0,0-1,.27.91.91,0,0,0-.43.83.85.85,0,0,0,.11.42,1.65,1.65,0,0,0,.23.3,1.26,1.26,0,0,0,.43.23,3.6,3.6,0,0,0,.45.17l.56.14.12,0,.74.21a5.36,5.36,0,0,1,.66.28,2.43,2.43,0,0,1,.6.42,2,2,0,0,1,.37.59,2,2,0,0,1,.16.83,2.31,2.31,0,0,1-.23,1,1.71,1.71,0,0,1-.63.7,2.74,2.74,0,0,1-.89.39A4.15,4.15,0,0,1,463.11,200.77Z"/>
      <path d="M470.52,200.62a2,2,0,0,1-1.5-.55,2.07,2.07,0,0,1-.55-1.53V194H466.9v-1.08h.58a1.13,1.13,0,0,0,.85-.27,1.35,1.35,0,0,0,.24-.9v-1.39h1.26v2.56h1.77V194h-1.77v4.38a1.17,1.17,0,0,0,.29.84,1,1,0,0,0,.77.3h.71v1.08Z"/>
      <path d="M475.23,200.77a2.62,2.62,0,0,1-1.68-.53,1.85,1.85,0,0,1-.66-1.57,2.28,2.28,0,0,1,.21-1,1.71,1.71,0,0,1,.62-.69,3.76,3.76,0,0,1,.9-.44,10.14,10.14,0,0,1,1.17-.28l1.24-.2c.46-.08.68-.32.68-.71a1.33,1.33,0,0,0-.48-1.14,1.9,1.9,0,0,0-1.21-.37,2.06,2.06,0,0,0-1.21.35,1.51,1.51,0,0,0-.57,1.08L473,195a2.33,2.33,0,0,1,1-1.64,3.54,3.54,0,0,1,2.09-.55,4.21,4.21,0,0,1,1.11.14,2.82,2.82,0,0,1,.93.43,1.89,1.89,0,0,1,.67.82,3.09,3.09,0,0,1,.24,1.27v3.17a1.3,1.3,0,0,0,.17.8.76.76,0,0,0,.61.21h.12v1h-.67a1.27,1.27,0,0,1-1.45-1h-.07A2.93,2.93,0,0,1,475.23,200.77Zm.31-1.09a2.05,2.05,0,0,0,1.65-.75,3,3,0,0,0,.62-2l-2,.39a2.73,2.73,0,0,0-1.19.43,1,1,0,0,0-.38.84,1,1,0,0,0,.37.84A1.52,1.52,0,0,0,475.54,199.68Z"/>
      <path d="M485.46,192.79a2.7,2.7,0,0,1,1.94.7,2.6,2.6,0,0,1,.72,2v5.17h-1.35v-4.87a1.83,1.83,0,0,0-.47-1.37,1.65,1.65,0,0,0-1.2-.45,1.86,1.86,0,0,0-1.37.53,2.11,2.11,0,0,0-.54,1.57v4.59h-1.35v-7.68h1.35v1A2.56,2.56,0,0,1,485.46,192.79Z"/>
      <path d="M493.18,200.62a2,2,0,0,1-1.5-.55,2.1,2.1,0,0,1-.54-1.53V194h-1.58v-1.08h.58a1.11,1.11,0,0,0,.85-.27,1.34,1.34,0,0,0,.25-.9v-1.39h1.25v2.56h1.77V194h-1.77v4.38a1.14,1.14,0,0,0,.3.84,1,1,0,0,0,.77.3h.7v1.08Z"/>
      <path d="M502.84,196.63l0,.37h-6a2.69,2.69,0,0,0,.74,2,2.4,2.4,0,0,0,1.75.69,2.33,2.33,0,0,0,1.27-.37,2.44,2.44,0,0,0,.88-1l1.21.26a3.41,3.41,0,0,1-1.31,1.65,3.59,3.59,0,0,1-2,.6,3.71,3.71,0,0,1-2.76-1.07,4.55,4.55,0,0,1,0-5.84,3.68,3.68,0,0,1,2.72-1.07,3.47,3.47,0,0,1,2.59,1A3.92,3.92,0,0,1,502.84,196.63Zm-3.56-2.8a2.35,2.35,0,0,0-1.59.55,2.49,2.49,0,0,0-.81,1.58h4.6a2.29,2.29,0,0,0-.67-1.58A2.16,2.16,0,0,0,499.28,193.83Z"/>
      <path d="M445.58,219.82v-11H447v11Z"/>
      <path d="M453.71,212a2.69,2.69,0,0,1,1.93.7,2.6,2.6,0,0,1,.72,2v5.17H455V215a1.83,1.83,0,0,0-.47-1.37,1.65,1.65,0,0,0-1.2-.45,1.88,1.88,0,0,0-1.37.53,2.19,2.19,0,0,0-.54,1.57v4.59h-1.35v-7.68h1.35v1A2.56,2.56,0,0,1,453.71,212Z"/>
      <path d="M466.82,212a2.46,2.46,0,0,1,1.79.66,2.41,2.41,0,0,1,.68,1.83v5.34h-1.35v-5a1.75,1.75,0,0,0-.42-1.27,1.46,1.46,0,0,0-1.07-.43,1.51,1.51,0,0,0-1.17.49,2.06,2.06,0,0,0-.45,1.45v4.75h-1.37v-4.94a1.82,1.82,0,0,0-.43-1.3,1.43,1.43,0,0,0-1.09-.45,1.51,1.51,0,0,0-1.17.5,2.16,2.16,0,0,0-.45,1.49v4.7H459v-7.68h1.35v1a2.44,2.44,0,0,1,.88-.84,2.48,2.48,0,0,1,1.22-.3,2.59,2.59,0,0,1,1.32.33,2,2,0,0,1,.85.93,2.35,2.35,0,0,1,.92-.93A2.6,2.6,0,0,1,466.82,212Z"/>
      <path d="M476.69,212.14H478v7.68h-1.3l0-1a2.39,2.39,0,0,1-.95.86,2.93,2.93,0,0,1-1.34.3,2.69,2.69,0,0,1-1.94-.69,2.62,2.62,0,0,1-.72-2v-5.17h1.35V217a1.83,1.83,0,0,0,.47,1.37,1.66,1.66,0,0,0,1.21.46,1.84,1.84,0,0,0,1.36-.53,2.16,2.16,0,0,0,.54-1.57Z"/>
      <path d="M483.24,219.82a2,2,0,0,1-1.5-.55,2.1,2.1,0,0,1-.54-1.53v-4.52h-1.57v-1.08h.58a1.08,1.08,0,0,0,.84-.27,1.29,1.29,0,0,0,.25-.9v-1.39h1.26v2.56h1.76v1.08h-1.76v4.38a1.13,1.13,0,0,0,.29.84,1,1,0,0,0,.77.3h.7v1.08Z"/>
      <path d="M488,220a2.63,2.63,0,0,1-1.69-.53,1.88,1.88,0,0,1-.66-1.57,2.2,2.2,0,0,1,.21-1,1.7,1.7,0,0,1,.63-.7,3.42,3.42,0,0,1,.9-.44,9.66,9.66,0,0,1,1.17-.28l1.24-.2c.45-.08.68-.32.68-.71a1.33,1.33,0,0,0-.48-1.14,1.93,1.93,0,0,0-1.22-.37,2,2,0,0,0-1.2.35,1.51,1.51,0,0,0-.57,1.08l-1.22-.26a2.4,2.4,0,0,1,1-1.64,3.6,3.6,0,0,1,2.1-.55,4.32,4.32,0,0,1,1.11.14,2.82,2.82,0,0,1,.93.43,1.94,1.94,0,0,1,.66.82,3.09,3.09,0,0,1,.24,1.27v3.17a1.29,1.29,0,0,0,.18.8.75.75,0,0,0,.6.21h.13v1H492c-.83,0-1.32-.34-1.46-1h-.06A2.91,2.91,0,0,1,488,220Zm.31-1.09a2.05,2.05,0,0,0,1.65-.75,3.08,3.08,0,0,0,.62-2l-2,.39a2.68,2.68,0,0,0-1.19.43,1,1,0,0,0-.39.84,1,1,0,0,0,.37.84A1.55,1.55,0,0,0,488.27,218.88Z"/>
      <path d="M498.64,212a3.32,3.32,0,0,1,2.53,1.11,4,4,0,0,1,1,2.89,4.08,4.08,0,0,1-1,2.89,3.33,3.33,0,0,1-2.54,1.11,3.06,3.06,0,0,1-1.64-.45,2.86,2.86,0,0,1-1.1-1.21l0,1.49h-1.31v-12h1.35v5.79a2.82,2.82,0,0,1,1.09-1.18A3.14,3.14,0,0,1,498.64,212Zm-.3,6.82a2.38,2.38,0,0,0,1.8-.78,2.89,2.89,0,0,0,.72-2,2.93,2.93,0,0,0-.72-2.05,2.38,2.38,0,0,0-1.8-.78,2.3,2.3,0,0,0-1.78.81,2.88,2.88,0,0,0-.73,2,2.94,2.94,0,0,0,.72,2A2.33,2.33,0,0,0,498.34,218.81Z"/>
      <path d="M504.34,219.82v-12h1.37v12Z"/>
      <path d="M515.17,215.83v.37h-6a2.69,2.69,0,0,0,.73,2,2.4,2.4,0,0,0,1.75.69,2.32,2.32,0,0,0,2.15-1.39l1.22.26a3.47,3.47,0,0,1-1.31,1.65,3.59,3.59,0,0,1-2,.6,3.75,3.75,0,0,1-2.77-1.07,4.57,4.57,0,0,1,0-5.84,3.66,3.66,0,0,1,2.72-1.07,3.46,3.46,0,0,1,2.58,1A3.88,3.88,0,0,1,515.17,215.83Zm-3.55-2.8a2.36,2.36,0,0,0-1.6.55,2.49,2.49,0,0,0-.81,1.58h4.6a2.25,2.25,0,0,0-.67-1.58A2.12,2.12,0,0,0,511.62,213Z"/>
      <path d="M445.58,239V228H447v11Z"/>
      <path d="M453.71,231.19a2.69,2.69,0,0,1,1.93.7,2.6,2.6,0,0,1,.72,2V239H455v-4.87a1.83,1.83,0,0,0-.47-1.37,1.65,1.65,0,0,0-1.2-.45,1.88,1.88,0,0,0-1.37.53,2.19,2.19,0,0,0-.54,1.57V239h-1.35v-7.68h1.35v1A2.56,2.56,0,0,1,453.71,231.19Z"/>
      <path d="M460.74,239.17a2.62,2.62,0,0,1-1.68-.53,1.88,1.88,0,0,1-.66-1.57,2.28,2.28,0,0,1,.21-1,1.74,1.74,0,0,1,.63-.69,3.42,3.42,0,0,1,.9-.44,9.22,9.22,0,0,1,1.17-.28l1.24-.2c.45-.08.68-.32.68-.71a1.33,1.33,0,0,0-.48-1.14,1.93,1.93,0,0,0-1.22-.37,2,2,0,0,0-1.2.35,1.51,1.51,0,0,0-.57,1.08l-1.22-.26a2.4,2.4,0,0,1,1-1.64,3.6,3.6,0,0,1,2.1-.55,4.32,4.32,0,0,1,1.11.14,2.92,2.92,0,0,1,.93.43,1.94,1.94,0,0,1,.66.82,3.09,3.09,0,0,1,.24,1.27V237a1.29,1.29,0,0,0,.18.8.74.74,0,0,0,.6.21h.13v1h-.67c-.83,0-1.32-.34-1.46-1h-.06A2.94,2.94,0,0,1,460.74,239.17Zm.32-1.09a2.05,2.05,0,0,0,1.65-.75,3.08,3.08,0,0,0,.62-2l-2,.39a2.68,2.68,0,0,0-1.19.43,1,1,0,0,0-.39.84,1,1,0,0,0,.37.84A1.55,1.55,0,0,0,461.06,238.08Z"/>
      <path d="M471.41,231.19a3.63,3.63,0,0,1,1.39.28,3.53,3.53,0,0,1,1.14.79,3.72,3.72,0,0,1,.77,1.27,4.7,4.7,0,0,1,.28,1.66,4,4,0,0,1-1,2.89,3.35,3.35,0,0,1-2.55,1.11,3.06,3.06,0,0,1-1.61-.44,2.88,2.88,0,0,1-1.09-1.18v5.32h-1.36V231.34h1.31l0,1.49a2.78,2.78,0,0,1,1.09-1.19A3.05,3.05,0,0,1,471.41,231.19Zm-.27,6.82a2.31,2.31,0,0,0,1.78-.77,3.28,3.28,0,0,0,0-4.1,2.31,2.31,0,0,0-1.78-.77,2.36,2.36,0,0,0-1.8.8,3.13,3.13,0,0,0,0,4A2.36,2.36,0,0,0,471.14,238Z"/>
      <path d="M483.85,235l0,.37h-6a2.73,2.73,0,0,0,.73,2,2.41,2.41,0,0,0,1.75.69,2.32,2.32,0,0,0,2.15-1.39l1.22.26a3.41,3.41,0,0,1-1.31,1.65,3.59,3.59,0,0,1-2,.6,3.75,3.75,0,0,1-2.77-1.07,4.57,4.57,0,0,1,0-5.84,3.66,3.66,0,0,1,2.72-1.07,3.44,3.44,0,0,1,2.58,1A3.88,3.88,0,0,1,483.85,235Zm-3.56-2.8a2.38,2.38,0,0,0-1.6.55,2.43,2.43,0,0,0-.8,1.58h4.6a2.3,2.3,0,0,0-.68-1.58A2.12,2.12,0,0,0,480.29,232.23Z"/>
      <path d="M488.42,239a2,2,0,0,1-1.5-.55,2.07,2.07,0,0,1-.55-1.53v-4.52H484.8v-1.08h.58a1.13,1.13,0,0,0,.85-.27,1.35,1.35,0,0,0,.24-.9v-1.39h1.26v2.56h1.76v1.08h-1.76v4.38a1.17,1.17,0,0,0,.29.84,1,1,0,0,0,.77.3h.7V239Z"/>
      <path d="M498.07,235v.37h-6a2.69,2.69,0,0,0,.73,2,2.4,2.4,0,0,0,1.75.69,2.33,2.33,0,0,0,1.27-.37,2.37,2.37,0,0,0,.88-1l1.22.26a3.53,3.53,0,0,1-1.31,1.65,3.59,3.59,0,0,1-2,.6,3.73,3.73,0,0,1-2.77-1.07,4.57,4.57,0,0,1,0-5.84,3.66,3.66,0,0,1,2.72-1.07,3.46,3.46,0,0,1,2.58,1A3.88,3.88,0,0,1,498.07,235Zm-3.55-2.8a2.36,2.36,0,0,0-1.6.55,2.49,2.49,0,0,0-.81,1.58h4.6a2.25,2.25,0,0,0-.67-1.58A2.12,2.12,0,0,0,494.52,232.23Z"/>
      <path d="M503.81,231.19a2.7,2.7,0,0,1,1.94.7,2.6,2.6,0,0,1,.72,2V239h-1.35v-4.87a1.83,1.83,0,0,0-.47-1.37,1.65,1.65,0,0,0-1.2-.45,1.86,1.86,0,0,0-1.37.53,2.19,2.19,0,0,0-.54,1.57V239h-1.35v-7.68h1.35v1A2.56,2.56,0,0,1,503.81,231.19Z"/>
      <path d="M511.53,239a2,2,0,0,1-1.5-.55,2.1,2.1,0,0,1-.54-1.53v-4.52h-1.57v-1.08h.57a1.1,1.1,0,0,0,.85-.27,1.29,1.29,0,0,0,.25-.9v-1.39h1.26v2.56h1.76v1.08h-1.76v4.38a1.13,1.13,0,0,0,.29.84,1,1,0,0,0,.77.3h.7V239Z"/>
      <path d="M521.19,235l0,.37h-6a2.69,2.69,0,0,0,.74,2,2.4,2.4,0,0,0,1.75.69,2.33,2.33,0,0,0,1.27-.37,2.44,2.44,0,0,0,.88-1l1.22.26a3.48,3.48,0,0,1-1.32,1.65,3.59,3.59,0,0,1-2,.6,3.71,3.71,0,0,1-2.76-1.07,4.55,4.55,0,0,1,0-5.84,3.7,3.7,0,0,1,2.73-1.07,3.46,3.46,0,0,1,2.58,1A3.88,3.88,0,0,1,521.19,235Zm-3.55-2.8a2.36,2.36,0,0,0-1.6.55,2.49,2.49,0,0,0-.81,1.58h4.6a2.29,2.29,0,0,0-.67-1.58A2.15,2.15,0,0,0,517.64,232.23Z"/>
    </g>
    <g>
      <path d="M453,117.11h2.33V128.4h-2.71l-5-8.07v8.07h-2.34V117.11H448l5,8Z"/>
      <path d="M465.49,124.27l0,.54h-6a2.06,2.06,0,0,0,.64,1.47,2,2,0,0,0,1.41.51,2,2,0,0,0,1.06-.28,1.75,1.75,0,0,0,.68-.81l2.06.3a3.51,3.51,0,0,1-1.41,1.89,4.22,4.22,0,0,1-2.37.67,4.34,4.34,0,0,1-3.13-1.11,4,4,0,0,1-1.16-3.06,4.09,4.09,0,0,1,1.16-3.07,4.23,4.23,0,0,1,3.06-1.12,3.67,3.67,0,0,1,4,4.07Zm-4-2.48a1.78,1.78,0,0,0-1.95,1.55h3.69a1.69,1.69,0,0,0-.56-1.15A1.77,1.77,0,0,0,461.53,121.79Z"/>
      <path d="M472.74,120.37h2.14v7.43a6,6,0,0,1-.3,2,3.23,3.23,0,0,1-.87,1.37,3.65,3.65,0,0,1-1.34.77,5.52,5.52,0,0,1-1.75.25q-3.18,0-4.14-2.49l1.87-.8a2.71,2.71,0,0,0,.86,1.17,2.21,2.21,0,0,0,1.32.37c1.39,0,2.09-.82,2.09-2.48V127a2.53,2.53,0,0,1-1,.79,3.39,3.39,0,0,1-1.43.3,3.58,3.58,0,0,1-1.41-.28,3.75,3.75,0,0,1-1.17-.8,3.81,3.81,0,0,1-.79-1.26,4.73,4.73,0,0,1,0-3.26,3.59,3.59,0,0,1,.8-1.24,3.34,3.34,0,0,1,1.17-.78,3.61,3.61,0,0,1,1.42-.29,3.3,3.3,0,0,1,1.49.34,2.31,2.31,0,0,1,1,.88Zm-3.45,5.31a1.94,1.94,0,0,0,1.47.62,2,2,0,0,0,1.48-.62,2.25,2.25,0,0,0,0-3.06,2.09,2.09,0,0,0-3,0,2.14,2.14,0,0,0-.59,1.54A2.1,2.1,0,0,0,469.29,125.68Z"/>
      <path d="M483.8,126.22a7.51,7.51,0,0,0,.19,2v.22h-2.1l-.18-.87a2.59,2.59,0,0,1-1.12.77,4.22,4.22,0,0,1-1.45.26,3.54,3.54,0,0,1-.75-.07,2.75,2.75,0,0,1-.68-.24,2,2,0,0,1-.56-.42,1.7,1.7,0,0,1-.37-.63,2.8,2.8,0,0,1,0-1.75,2.2,2.2,0,0,1,.39-.65,2.49,2.49,0,0,1,.64-.48,5,5,0,0,1,.79-.34,9.36,9.36,0,0,1,1-.25l1.32-.3a1.42,1.42,0,0,0,.6-.25.53.53,0,0,0,.17-.4.85.85,0,0,0-.39-.78,2,2,0,0,0-1-.23,1.38,1.38,0,0,0-1.57,1.23l-2-.36a2.7,2.7,0,0,1,1.16-1.84,4.65,4.65,0,0,1,2.52-.59q3.38,0,3.38,2.9Zm-4,.82a1.81,1.81,0,0,0,1.39-.59,2.43,2.43,0,0,0,.54-1.72l-1.91.54a2.14,2.14,0,0,0-.8.33.68.68,0,0,0-.28.58.74.74,0,0,0,.3.63A1.23,1.23,0,0,0,479.84,127Z"/>
      <path d="M488.87,128.4a2.43,2.43,0,0,1-1.81-.65,2.52,2.52,0,0,1-.64-1.86V122.1h-1.58v-1.73h.51a1.35,1.35,0,0,0,1-.33,1.78,1.78,0,0,0,.32-1.2v-1.06h2v2.59h1.65v1.73H488.7v3.55c0,.7.31,1,.93,1h.72v1.71Z"/>
      <path d="M493.24,119.17a1.29,1.29,0,0,1-.92-.38,1.26,1.26,0,0,1-.38-.92,1.23,1.23,0,0,1,.39-.91,1.28,1.28,0,0,1,1.82,0,1.29,1.29,0,0,1,0,1.83A1.25,1.25,0,0,1,493.24,119.17Zm-1.14,9.23v-8h2.26v8Z"/>
      <path d="M501.92,120.37h2.38l-3.42,8h-2l-3.38-8h2.37l2,5.49Z"/>
      <path d="M508.9,128.56a5.15,5.15,0,0,1-2.27-.49,3.7,3.7,0,0,1-1.56-1.45,4.26,4.26,0,0,1-.57-2.24,4,4,0,0,1,1.22-3,5.09,5.09,0,0,1,6.37,0,4.44,4.44,0,0,1,0,6.11A4.56,4.56,0,0,1,508.9,128.56Zm0-1.79a2.07,2.07,0,0,0,1.59-.66,2.44,2.44,0,0,0,.6-1.73,2.49,2.49,0,0,0-.6-1.74,2.1,2.1,0,0,0-1.59-.65,2,2,0,0,0-1.55.66,2.83,2.83,0,0,0,0,3.46A2,2,0,0,0,508.88,126.77Z"/>
    </g>
  </g>
</svg>
