<svg id="Layer_1" data-name="Layer 1" xmlns="http://www.w3.org/2000/svg" width="563.56" height="300.44" viewBox="0 0 563.56 300.44">
  <defs>
    <style>
      .cls-1 {
        fill: #f7931e;
      }

      .cls-2 {
        fill: #f2f2f2;
      }

      .cls-3 {
        opacity: 0.75;
      }

      .cls-4 {
        opacity: 0.5;
      }

      .cls-5 {
        opacity: 0.25;
      }
    </style>
  </defs>
  <g>
    <rect class="cls-1" width="281.78" height="228.44"/>
    <rect class="cls-2" x="281.78" width="281.78" height="300.44"/>
    <rect class="cls-1" y="228.44" width="70.44" height="72"/>
    <g class="cls-3">
      <rect class="cls-1" x="70.44" y="228.44" width="70.44" height="72"/>
    </g>
    <g class="cls-4">
      <rect class="cls-1" x="140.89" y="228.44" width="70.44" height="72"/>
    </g>
    <g class="cls-5">
      <rect class="cls-1" x="211.33" y="228.44" width="70.44" height="72"/>
    </g>
    <g>
      <path d="M347.64,124.4l-1.95-5.53H334.43l-1.95,5.53h-5.7l9.87-26.81h6.81l9.87,26.81Zm-11.58-10.18h8l-4-11.38Z"/>
      <path d="M367.92,105a7.48,7.48,0,0,1,5.27,1.71,6.4,6.4,0,0,1,1.83,4.89V124.4h-5.36V112.71a3.32,3.32,0,0,0-1-2.63,3.6,3.6,0,0,0-2.46-.84,5.07,5.07,0,0,0-1.6.24,4.21,4.21,0,0,0-1.33.76,3.34,3.34,0,0,0-1,1.43,6.6,6.6,0,0,0-.36,2.21V124.4h-5.35V105.33H362v2.11A7.36,7.36,0,0,1,367.92,105Z"/>
      <path d="M395.84,119.23a17.72,17.72,0,0,0,.47,4.65v.52h-5l-.42-2.08a6.19,6.19,0,0,1-2.67,1.84,9.89,9.89,0,0,1-3.46.61,9.21,9.21,0,0,1-1.78-.16,5.89,5.89,0,0,1-1.6-.57,5,5,0,0,1-1.33-1,4.38,4.38,0,0,1-.89-1.51,6.16,6.16,0,0,1-.33-2.07,5.62,5.62,0,0,1,.35-2.07,4.67,4.67,0,0,1,.93-1.55,5.46,5.46,0,0,1,1.5-1.13,11.14,11.14,0,0,1,1.89-.82,21.65,21.65,0,0,1,2.27-.59l3.13-.71a3.47,3.47,0,0,0,1.42-.6,1.2,1.2,0,0,0,.42-1,2,2,0,0,0-.94-1.83,4.37,4.37,0,0,0-2.27-.56q-3.28,0-3.73,2.91l-4.73-.85a6.39,6.39,0,0,1,2.76-4.35,11,11,0,0,1,6-1.4q8,0,8,6.88Zm-9.41,1.93a4.33,4.33,0,0,0,3.31-1.39,5.83,5.83,0,0,0,1.28-4.09L386.49,117a5.4,5.4,0,0,0-1.9.78,1.6,1.6,0,0,0-.66,1.37,1.79,1.79,0,0,0,.7,1.52A2.94,2.94,0,0,0,386.43,121.16Z"/>
      <path d="M406.16,108.35a6.17,6.17,0,0,1,2.5-2.29,7.64,7.64,0,0,1,3.73-1v4.76a7.26,7.26,0,0,0-4.56,1.15c-.94.77-1.41,2.13-1.41,4.09v9.29H401V105.33h5.12Z"/>
      <path d="M431.06,119.23a17.79,17.79,0,0,0,.46,4.65v.52h-5l-.43-2.08a6.19,6.19,0,0,1-2.67,1.84,9.79,9.79,0,0,1-3.45.61,9.21,9.21,0,0,1-1.78-.16,6,6,0,0,1-1.61-.57,5.07,5.07,0,0,1-1.32-1,4.38,4.38,0,0,1-.89-1.51,5.91,5.91,0,0,1-.34-2.07,5.62,5.62,0,0,1,.36-2.07,4.83,4.83,0,0,1,.92-1.55,5.67,5.67,0,0,1,1.51-1.13,11.14,11.14,0,0,1,1.89-.82,21.42,21.42,0,0,1,2.26-.59l3.14-.71a3.47,3.47,0,0,0,1.42-.6,1.2,1.2,0,0,0,.42-1,2,2,0,0,0-.94-1.83,4.39,4.39,0,0,0-2.27-.56c-2.19,0-3.44,1-3.73,2.91l-4.74-.85a6.4,6.4,0,0,1,2.77-4.35,10.93,10.93,0,0,1,6-1.4q8,0,8,6.88Zm-9.41,1.93a4.3,4.3,0,0,0,3.3-1.39,5.78,5.78,0,0,0,1.28-4.09L421.71,117a5.47,5.47,0,0,0-1.91.78,1.61,1.61,0,0,0-.65,1.37,1.79,1.79,0,0,0,.7,1.52A2.94,2.94,0,0,0,421.65,121.16Z"/>
      <path d="M447.52,105a7.48,7.48,0,0,1,5.27,1.71,6.4,6.4,0,0,1,1.83,4.89V124.4h-5.36V112.71a3.29,3.29,0,0,0-1-2.63,3.56,3.56,0,0,0-2.45-.84,5,5,0,0,0-1.6.24,4.37,4.37,0,0,0-1.34.76,3.42,3.42,0,0,0-1,1.43,6.6,6.6,0,0,0-.36,2.21V124.4h-5.35V105.33h5.35v2.11A7.36,7.36,0,0,1,447.52,105Z"/>
      <path d="M455.9,133.35v-4.18a6.17,6.17,0,0,0,2-.27,2.26,2.26,0,0,0,1.18-1,4.14,4.14,0,0,0,.57-1.65,18.78,18.78,0,0,0,.14-2.55V105.33h5.42v18.42c0,3.33-.73,5.76-2.17,7.3S459.22,133.35,455.9,133.35Zm6.65-30.88a3,3,0,0,1-2.19-.9,3,3,0,0,1-.91-2.18,2.89,2.89,0,0,1,.92-2.16,3.05,3.05,0,0,1,4.33,0,3.07,3.07,0,0,1-2.15,5.24Z"/>
      <path d="M486.41,119.23a17.79,17.79,0,0,0,.46,4.65v.52h-5l-.43-2.08a6.19,6.19,0,0,1-2.67,1.84,9.79,9.79,0,0,1-3.45.61,9.21,9.21,0,0,1-1.78-.16,6,6,0,0,1-1.61-.57,5.07,5.07,0,0,1-1.32-1,4.38,4.38,0,0,1-.89-1.51,5.91,5.91,0,0,1-.34-2.07,5.83,5.83,0,0,1,.35-2.07,5,5,0,0,1,.93-1.55,5.67,5.67,0,0,1,1.51-1.13,10.49,10.49,0,0,1,1.89-.82,21.42,21.42,0,0,1,2.26-.59l3.14-.71a3.47,3.47,0,0,0,1.42-.6,1.19,1.19,0,0,0,.41-1,2,2,0,0,0-.93-1.83,4.4,4.4,0,0,0-2.28-.56q-3.29,0-3.73,2.91l-4.73-.85a6.4,6.4,0,0,1,2.77-4.35,10.93,10.93,0,0,1,6-1.4q8,0,8,6.88ZM477,121.16a4.3,4.3,0,0,0,3.3-1.39,5.78,5.78,0,0,0,1.28-4.09L477.06,117a5.47,5.47,0,0,0-1.91.78,1.6,1.6,0,0,0-.66,1.37,1.8,1.8,0,0,0,.71,1.52A2.94,2.94,0,0,0,477,121.16Z"/>
      <path d="M504.7,95.9h5.35v28.5H505l-.13-2.48a5.5,5.5,0,0,1-2.42,2.16,8.19,8.19,0,0,1-3.57.77,9.3,9.3,0,0,1-3.57-.69,8.57,8.57,0,0,1-4.89-5.08,11.47,11.47,0,0,1-.73-4.18,10.83,10.83,0,0,1,1.26-5.31,8.75,8.75,0,0,1,3.33-3.46,9.18,9.18,0,0,1,4.6-1.17,8.45,8.45,0,0,1,3.46.69,5.44,5.44,0,0,1,2.38,2Zm-4.62,24.51a4.74,4.74,0,0,0,3.61-1.52,6.25,6.25,0,0,0,0-8,4.74,4.74,0,0,0-3.6-1.53,4.79,4.79,0,0,0-3.63,1.51,6.35,6.35,0,0,0,0,8A4.82,4.82,0,0,0,500.08,120.41Z"/>
      <path d="M524.46,124.77a12,12,0,0,1-5.4-1.17,8.69,8.69,0,0,1-3.7-3.43,10.18,10.18,0,0,1-1.34-5.32,9.33,9.33,0,0,1,2.89-7.24,12.11,12.11,0,0,1,15.12,0,10.51,10.51,0,0,1,0,14.5A10.71,10.71,0,0,1,524.46,124.77Zm-.05-4.25a4.87,4.87,0,0,0,3.77-1.55,6.61,6.61,0,0,0,0-8.24,4.88,4.88,0,0,0-3.77-1.56,4.71,4.71,0,0,0-3.67,1.57,6.66,6.66,0,0,0,0,8.22A4.74,4.74,0,0,0,524.41,120.52Z"/>
    </g>
    <g>
      <path d="M337.11,162.37a5.93,5.93,0,0,1-2.17-.39,5.62,5.62,0,0,1-1.74-1.11,5,5,0,0,1-1.15-1.79,6.41,6.41,0,0,1-.42-2.37,6.34,6.34,0,0,1,.42-2.35,5,5,0,0,1,2.89-2.9,5.93,5.93,0,0,1,2.17-.39,5.82,5.82,0,0,1,2.14.4,5,5,0,0,1,2.9,2.89,6.34,6.34,0,0,1,.42,2.35,6.49,6.49,0,0,1-.42,2.37,5.23,5.23,0,0,1-1.16,1.79,5.4,5.4,0,0,1-1.74,1.11A5.81,5.81,0,0,1,337.11,162.37Zm0-1.32a4,4,0,0,0,2.91-1.16,4.34,4.34,0,0,0,1.15-3.18,5,5,0,0,0-.32-1.82,3.64,3.64,0,0,0-2.15-2.19,4.56,4.56,0,0,0-3.2,0,3.81,3.81,0,0,0-1.29.83,3.7,3.7,0,0,0-.87,1.36,5,5,0,0,0-.32,1.82,5.17,5.17,0,0,0,.32,1.85,3.62,3.62,0,0,0,.87,1.36,4,4,0,0,0,1.29.84A4.47,4.47,0,0,0,337.11,161.05Z"/>
      <path d="M349,154.39a3.63,3.63,0,0,1,1.39.28,3.53,3.53,0,0,1,1.14.79,3.72,3.72,0,0,1,.77,1.27,4.7,4.7,0,0,1,.28,1.66,4,4,0,0,1-1,2.89,3.35,3.35,0,0,1-2.55,1.11,3.06,3.06,0,0,1-1.61-.44,2.9,2.9,0,0,1-1.1-1.18v5.32H344.9V154.54h1.31l0,1.49a2.78,2.78,0,0,1,1.09-1.19A3.05,3.05,0,0,1,349,154.39Zm-.27,6.82a2.31,2.31,0,0,0,1.78-.77,3.28,3.28,0,0,0,0-4.1,2.31,2.31,0,0,0-1.78-.77,2.36,2.36,0,0,0-1.8.8,3.13,3.13,0,0,0,0,4A2.36,2.36,0,0,0,348.69,161.21Z"/>
      <path d="M357.13,162.22a2,2,0,0,1-1.5-.55,2.07,2.07,0,0,1-.55-1.53v-4.52h-1.57v-1.08h.58a1.13,1.13,0,0,0,.85-.27,1.35,1.35,0,0,0,.24-.9V152h1.26v2.56h1.77v1.08h-1.77V160a1.14,1.14,0,0,0,.3.84,1,1,0,0,0,.76.3h.71v1.08Z"/>
      <path d="M360.85,152.74a.92.92,0,0,1-.92-.92.87.87,0,0,1,.27-.64.93.93,0,0,1,1.29,0,.9.9,0,0,1,.26.64.92.92,0,0,1-.26.65A.89.89,0,0,1,360.85,152.74Zm-.69,9.48v-7.68h1.36v7.68Z"/>
      <path d="M372.12,154.39a2.46,2.46,0,0,1,1.79.66,2.41,2.41,0,0,1,.68,1.83v5.34h-1.35v-5a1.75,1.75,0,0,0-.42-1.27,1.46,1.46,0,0,0-1.07-.43,1.54,1.54,0,0,0-1.18.49,2.11,2.11,0,0,0-.44,1.45v4.75h-1.38v-4.94a1.81,1.81,0,0,0-.42-1.3,1.45,1.45,0,0,0-1.09-.45,1.51,1.51,0,0,0-1.17.5,2.16,2.16,0,0,0-.45,1.49v4.7h-1.35v-7.68h1.35v1a2.44,2.44,0,0,1,.88-.84,2.48,2.48,0,0,1,1.22-.3,2.59,2.59,0,0,1,1.32.33,2,2,0,0,1,.85.93,2.35,2.35,0,0,1,.92-.93A2.58,2.58,0,0,1,372.12,154.39Z"/>
      <path d="M377.9,152.74a.92.92,0,0,1-.92-.92.87.87,0,0,1,.27-.64.92.92,0,0,1,.65-.26.89.89,0,0,1,.63.26.87.87,0,0,1,.27.64.89.89,0,0,1-.27.65A.86.86,0,0,1,377.9,152.74Zm-.69,9.48v-7.68h1.36v7.68Z"/>
      <path d="M383.75,162.37a3.63,3.63,0,0,1-2.07-.55,2.28,2.28,0,0,1-1-1.58l1.18-.34a1.62,1.62,0,0,0,.63,1.07,2,2,0,0,0,1.26.38,2.82,2.82,0,0,0,.74-.1,1.2,1.2,0,0,0,.56-.38,1,1,0,0,0,.23-.7,1.52,1.52,0,0,0-.06-.32,1.46,1.46,0,0,0-.13-.25.56.56,0,0,0-.22-.21,2.26,2.26,0,0,0-.26-.17l-.35-.14-.37-.13-.43-.12-.45-.13c-.32-.1-.58-.19-.79-.28a3.34,3.34,0,0,1-.65-.37,1.49,1.49,0,0,1-.5-.61,1.91,1.91,0,0,1-.17-.86,2,2,0,0,1,.37-1.23,2.15,2.15,0,0,1,1-.72,3.8,3.8,0,0,1,1.36-.22,3.36,3.36,0,0,1,1.87.5,2.1,2.1,0,0,1,.93,1.5l-1.11.28a1.46,1.46,0,0,0-.58-1,1.86,1.86,0,0,0-1.1-.33,1.92,1.92,0,0,0-1,.27.92.92,0,0,0-.42.83.76.76,0,0,0,.11.42,1.07,1.07,0,0,0,.23.3,1.3,1.3,0,0,0,.42.23,3.6,3.6,0,0,0,.45.17l.57.14.11,0,.74.21a6.15,6.15,0,0,1,.67.28,2.18,2.18,0,0,1,.59.42,2,2,0,0,1,.38.59,2.23,2.23,0,0,1,.15.83,2.18,2.18,0,0,1-.23,1,1.76,1.76,0,0,1-.62.7,2.8,2.8,0,0,1-.9.39A4.08,4.08,0,0,1,383.75,162.37Z"/>
      <path d="M391.15,162.22a2,2,0,0,1-1.5-.55,2.1,2.1,0,0,1-.54-1.53v-4.52h-1.57v-1.08h.57a1.11,1.11,0,0,0,.85-.27,1.29,1.29,0,0,0,.25-.9V152h1.26v2.56h1.76v1.08h-1.76V160a1.13,1.13,0,0,0,.29.84,1,1,0,0,0,.77.3h.7v1.08Z"/>
      <path d="M395.86,162.37a2.62,2.62,0,0,1-1.68-.53,1.88,1.88,0,0,1-.66-1.57,2.28,2.28,0,0,1,.21-1,1.74,1.74,0,0,1,.63-.69,3.42,3.42,0,0,1,.9-.44,9.22,9.22,0,0,1,1.17-.28l1.24-.2c.45-.08.68-.32.68-.71a1.33,1.33,0,0,0-.48-1.14,1.93,1.93,0,0,0-1.22-.37,2,2,0,0,0-1.2.35,1.51,1.51,0,0,0-.57,1.08l-1.22-.26a2.4,2.4,0,0,1,1-1.64,3.6,3.6,0,0,1,2.1-.55,4.32,4.32,0,0,1,1.11.14,3,3,0,0,1,.93.43,1.94,1.94,0,0,1,.66.82,3.09,3.09,0,0,1,.24,1.27v3.17a1.29,1.29,0,0,0,.18.8.74.74,0,0,0,.6.21h.13v1h-.67c-.83,0-1.32-.34-1.46-1h-.06A2.94,2.94,0,0,1,395.86,162.37Zm.32-1.09a2,2,0,0,0,1.64-.75,3,3,0,0,0,.63-2l-2,.39a2.68,2.68,0,0,0-1.19.43,1,1,0,0,0-.39.84,1,1,0,0,0,.37.84A1.55,1.55,0,0,0,396.18,161.28Z"/>
      <path d="M332.4,181.42v-11h1.39v11Z"/>
      <path d="M340.52,173.59a2.67,2.67,0,0,1,1.93.7,2.56,2.56,0,0,1,.73,2v5.17h-1.36v-4.87a1.83,1.83,0,0,0-.46-1.37,1.69,1.69,0,0,0-1.21-.45,1.85,1.85,0,0,0-1.36.53,2.11,2.11,0,0,0-.54,1.57v4.59H336.9v-7.68h1.35v1A2.55,2.55,0,0,1,340.52,173.59Z"/>
      <path d="M351.46,169.42h1.35v12H351.5l0-1.49a2.83,2.83,0,0,1-1.09,1.21,3,3,0,0,1-1.63.45,3.46,3.46,0,0,1-1.39-.29,3.37,3.37,0,0,1-1.14-.8,3.57,3.57,0,0,1-.77-1.27,4.59,4.59,0,0,1-.29-1.64,4.07,4.07,0,0,1,1-2.89,3.38,3.38,0,0,1,2.55-1.11,3.06,3.06,0,0,1,1.61.44,2.88,2.88,0,0,1,1.1,1.17Zm-2.42,11a2.32,2.32,0,0,0,1.78-.8,3.19,3.19,0,0,0,0-4,2.31,2.31,0,0,0-1.78-.81,2.35,2.35,0,0,0-1.8.78,3.23,3.23,0,0,0,0,4.09A2.35,2.35,0,0,0,349,180.41Z"/>
      <path d="M362.28,177.43l0,.37h-6a2.69,2.69,0,0,0,.74,2,2.4,2.4,0,0,0,1.75.69,2.33,2.33,0,0,0,1.27-.37,2.44,2.44,0,0,0,.88-1l1.21.26A3.41,3.41,0,0,1,360.8,181a3.59,3.59,0,0,1-2,.6A3.71,3.71,0,0,1,356,180.5a4.55,4.55,0,0,1,0-5.84,3.68,3.68,0,0,1,2.72-1.07,3.47,3.47,0,0,1,2.59,1A3.92,3.92,0,0,1,362.28,177.43Zm-3.56-2.8a2.35,2.35,0,0,0-1.59.55,2.49,2.49,0,0,0-.81,1.58h4.6a2.29,2.29,0,0,0-.67-1.58A2.16,2.16,0,0,0,358.72,174.63Z"/>
      <path d="M368.45,173.59a3.46,3.46,0,0,1,1.39.29,3.36,3.36,0,0,1,1.14.78,3.72,3.72,0,0,1,.77,1.27,4.71,4.71,0,0,1,.29,1.66,4,4,0,0,1-1,2.89,3.35,3.35,0,0,1-2.55,1.11,3.09,3.09,0,0,1-1.61-.44,2.88,2.88,0,0,1-1.09-1.18v5.32H364.4V173.74h1.3l0,1.49a2.85,2.85,0,0,1,1.09-1.19A3.05,3.05,0,0,1,368.45,173.59Zm-.27,6.82a2.31,2.31,0,0,0,1.78-.77,3.28,3.28,0,0,0,0-4.1,2.31,2.31,0,0,0-1.78-.77,2.36,2.36,0,0,0-1.8.8,3.16,3.16,0,0,0,0,4A2.36,2.36,0,0,0,368.18,180.41Z"/>
      <path d="M380.89,177.43l0,.37h-6a2.69,2.69,0,0,0,.74,2,2.38,2.38,0,0,0,1.75.69,2.32,2.32,0,0,0,2.14-1.39l1.22.26a3.41,3.41,0,0,1-1.31,1.65,3.59,3.59,0,0,1-2,.6,3.71,3.71,0,0,1-2.76-1.07,4.55,4.55,0,0,1,0-5.84,3.68,3.68,0,0,1,2.72-1.07,3.43,3.43,0,0,1,2.58,1A3.88,3.88,0,0,1,380.89,177.43Zm-3.56-2.8a2.33,2.33,0,0,0-1.59.55,2.49,2.49,0,0,0-.81,1.58h4.6a2.29,2.29,0,0,0-.67-1.58A2.16,2.16,0,0,0,377.33,174.63Z"/>
      <path d="M386.63,173.59a2.67,2.67,0,0,1,1.93.7,2.6,2.6,0,0,1,.73,2v5.17h-1.36v-4.87a1.83,1.83,0,0,0-.46-1.37,1.69,1.69,0,0,0-1.21-.45,1.84,1.84,0,0,0-1.36.53,2.11,2.11,0,0,0-.54,1.57v4.59H383v-7.68h1.36v1A2.55,2.55,0,0,1,386.63,173.59Z"/>
      <path d="M397.57,169.42h1.35v12h-1.31l0-1.49a2.83,2.83,0,0,1-1.09,1.21,3.05,3.05,0,0,1-1.63.45,3.46,3.46,0,0,1-1.39-.29,3.37,3.37,0,0,1-1.14-.8,3.57,3.57,0,0,1-.77-1.27,4.39,4.39,0,0,1-.29-1.64,4.07,4.07,0,0,1,1-2.89,3.38,3.38,0,0,1,2.55-1.11,3.06,3.06,0,0,1,1.61.44,2.88,2.88,0,0,1,1.1,1.17Zm-2.42,11a2.32,2.32,0,0,0,1.78-.8,3.19,3.19,0,0,0,0-4,2.31,2.31,0,0,0-1.78-.81,2.35,2.35,0,0,0-1.8.78,3.23,3.23,0,0,0,0,4.09A2.35,2.35,0,0,0,395.15,180.41Z"/>
      <path d="M402.36,171.94a.92.92,0,0,1-.92-.92.87.87,0,0,1,.27-.64.92.92,0,0,1,.65-.26.89.89,0,0,1,.63.26.87.87,0,0,1,.27.64.89.89,0,0,1-.27.65A.86.86,0,0,1,402.36,171.94Zm-.69,9.48v-7.68H403v7.68Z"/>
      <path d="M412.5,177.43l0,.37h-6a2.69,2.69,0,0,0,.74,2,2.38,2.38,0,0,0,1.75.69,2.32,2.32,0,0,0,2.14-1.39l1.22.26A3.41,3.41,0,0,1,411,181a3.59,3.59,0,0,1-2,.6,3.71,3.71,0,0,1-2.76-1.07,4.55,4.55,0,0,1,0-5.84,3.68,3.68,0,0,1,2.72-1.07,3.44,3.44,0,0,1,2.58,1A3.88,3.88,0,0,1,412.5,177.43Zm-3.56-2.8a2.38,2.38,0,0,0-1.6.55,2.48,2.48,0,0,0-.8,1.58h4.6a2.29,2.29,0,0,0-.67-1.58A2.16,2.16,0,0,0,408.94,174.63Z"/>
      <path d="M418.24,173.59a2.67,2.67,0,0,1,1.93.7,2.6,2.6,0,0,1,.73,2v5.17h-1.36v-4.87a1.79,1.79,0,0,0-.47-1.37,1.65,1.65,0,0,0-1.2-.45,1.88,1.88,0,0,0-1.37.53,2.14,2.14,0,0,0-.53,1.57v4.59h-1.36v-7.68H416v1A2.55,2.55,0,0,1,418.24,173.59Z"/>
      <path d="M426,181.42a2,2,0,0,1-1.5-.55,2.07,2.07,0,0,1-.55-1.53v-4.52h-1.57v-1.08h.58a1.13,1.13,0,0,0,.85-.27,1.35,1.35,0,0,0,.24-.9v-1.39h1.26v2.56H427v1.08h-1.77v4.38a1.17,1.17,0,0,0,.29.84,1,1,0,0,0,.77.3H427v1.08Z"/>
      <path d="M435.61,177.43v.37h-6a2.69,2.69,0,0,0,.73,2,2.4,2.4,0,0,0,1.75.69,2.32,2.32,0,0,0,2.15-1.39l1.22.26a3.47,3.47,0,0,1-1.31,1.65,3.59,3.59,0,0,1-2,.6,3.75,3.75,0,0,1-2.77-1.07,4.57,4.57,0,0,1,0-5.84,3.66,3.66,0,0,1,2.72-1.07,3.46,3.46,0,0,1,2.58,1A3.88,3.88,0,0,1,435.61,177.43Zm-3.55-2.8a2.36,2.36,0,0,0-1.6.55,2.49,2.49,0,0,0-.81,1.58h4.6a2.25,2.25,0,0,0-.67-1.58A2.12,2.12,0,0,0,432.06,174.63Z"/>
      <path d="M339.46,200.62l-.95-2.63h-5l-.94,2.63h-1.46l4.05-11h1.67l4.06,11ZM334,196.76h4.09L336,191Z"/>
      <path d="M347.12,192.94h1.45l-3.13,7.68h-1.15l-3.11-7.68h1.44l2.25,6.11Z"/>
      <path d="M356.58,196.63V197h-6a2.69,2.69,0,0,0,.73,2,2.4,2.4,0,0,0,1.75.69,2.33,2.33,0,0,0,1.27-.37,2.37,2.37,0,0,0,.88-1l1.22.26a3.53,3.53,0,0,1-1.31,1.65,3.59,3.59,0,0,1-2,.6,3.73,3.73,0,0,1-2.77-1.07,4.57,4.57,0,0,1,0-5.84,3.66,3.66,0,0,1,2.72-1.07,3.46,3.46,0,0,1,2.58,1A3.86,3.86,0,0,1,356.58,196.63Zm-3.55-2.8a2.36,2.36,0,0,0-1.6.55,2.49,2.49,0,0,0-.81,1.58h4.6a2.25,2.25,0,0,0-.67-1.58A2.12,2.12,0,0,0,353,193.83Z"/>
      <path d="M362.32,192.79a2.7,2.7,0,0,1,1.94.7,2.6,2.6,0,0,1,.72,2v5.17h-1.35v-4.86a1.83,1.83,0,0,0-.47-1.38,1.65,1.65,0,0,0-1.2-.45,1.86,1.86,0,0,0-1.37.53,2.19,2.19,0,0,0-.54,1.57v4.59H358.7v-7.68h1.35v1A2.56,2.56,0,0,1,362.32,192.79Z"/>
      <path d="M370,200.62a2,2,0,0,1-1.5-.55,2.1,2.1,0,0,1-.54-1.53V194h-1.57v-1.08H367a1.1,1.1,0,0,0,.85-.27,1.29,1.29,0,0,0,.25-.9v-1.39h1.26v2.56h1.76V194h-1.76v4.38a1.13,1.13,0,0,0,.29.84,1,1,0,0,0,.77.3h.7v1.08Z"/>
      <path d="M377.86,192.94h1.35v7.68h-1.3l0-1a2.46,2.46,0,0,1-.95.86,3,3,0,0,1-1.35.3,2.68,2.68,0,0,1-1.93-.69,2.62,2.62,0,0,1-.72-2v-5.17h1.35v4.87a1.83,1.83,0,0,0,.47,1.37,1.66,1.66,0,0,0,1.21.46,1.85,1.85,0,0,0,1.36-.53,2.21,2.21,0,0,0,.54-1.57Z"/>
      <path d="M383.28,194.29a2.34,2.34,0,0,1,1-1,2.88,2.88,0,0,1,1.48-.4v1.27a2.55,2.55,0,0,0-1.79.57,2.38,2.38,0,0,0-.61,1.82v4.1H382v-7.68h1.32Z"/>
      <path d="M393.92,196.63l0,.37h-6a2.69,2.69,0,0,0,.74,2,2.4,2.4,0,0,0,1.75.69,2.33,2.33,0,0,0,1.27-.37,2.44,2.44,0,0,0,.88-1l1.21.26a3.41,3.41,0,0,1-1.31,1.65,3.59,3.59,0,0,1-2,.6,3.71,3.71,0,0,1-2.76-1.07,4,4,0,0,1-1.06-2.92,4,4,0,0,1,1.06-2.92,3.68,3.68,0,0,1,2.72-1.07,3.47,3.47,0,0,1,2.59,1A3.9,3.9,0,0,1,393.92,196.63Zm-3.56-2.8a2.35,2.35,0,0,0-1.59.55A2.49,2.49,0,0,0,388,196h4.6a2.29,2.29,0,0,0-.67-1.58A2.16,2.16,0,0,0,390.36,193.83Z"/>
      <path d="M397.36,194.29a2.34,2.34,0,0,1,.95-1,2.85,2.85,0,0,1,1.48-.4v1.27a2.53,2.53,0,0,0-1.79.57,2.38,2.38,0,0,0-.61,1.82v4.1H396v-7.68h1.32Z"/>
      <path d="M404.51,200.77a4,4,0,0,1-2-.48,3.42,3.42,0,0,1-1.38-1.39,4.29,4.29,0,0,1-.51-2.12,3.92,3.92,0,0,1,1.09-2.9,4.08,4.08,0,0,1,5.55,0,4.4,4.4,0,0,1,0,5.8A3.75,3.75,0,0,1,404.51,200.77Zm0-1.12a2.38,2.38,0,0,0,1.82-.79,3,3,0,0,0,.72-2.08,2.93,2.93,0,0,0-.72-2.07,2.35,2.35,0,0,0-1.82-.79,2.32,2.32,0,0,0-1.8.79,3,3,0,0,0-.71,2.07,3,3,0,0,0,.71,2.08A2.36,2.36,0,0,0,404.5,199.65Z"/>
      <path d="M337.11,220a5.93,5.93,0,0,1-2.17-.39,5.62,5.62,0,0,1-1.74-1.11,5,5,0,0,1-1.15-1.79,6.84,6.84,0,0,1,0-4.72,5.09,5.09,0,0,1,1.16-1.79,5.29,5.29,0,0,1,1.73-1.11,5.93,5.93,0,0,1,2.17-.39,5.55,5.55,0,0,1,2.92.78A4.82,4.82,0,0,1,342,211.6l-1.29.53a3.71,3.71,0,0,0-1.44-1.57,4.12,4.12,0,0,0-2.13-.55,4.47,4.47,0,0,0-1.61.29,3.81,3.81,0,0,0-1.29.83,3.7,3.7,0,0,0-.87,1.36,5,5,0,0,0-.32,1.82,5.11,5.11,0,0,0,.32,1.84,3.7,3.7,0,0,0,.87,1.36,3.81,3.81,0,0,0,1.29.83,4.27,4.27,0,0,0,1.61.29,4.12,4.12,0,0,0,2.13-.55,3.66,3.66,0,0,0,1.44-1.55l1.29.52A4.8,4.8,0,0,1,340,219.2,5.65,5.65,0,0,1,337.11,220Z"/>
      <path d="M345.33,213.49a2.37,2.37,0,0,1,1-1,2.84,2.84,0,0,1,1.47-.4v1.27a2.52,2.52,0,0,0-1.78.57,2.38,2.38,0,0,0-.62,1.82v4.1H344v-7.68h1.32Z"/>
      <path d="M356,215.83v.37h-6a2.69,2.69,0,0,0,.73,2,2.4,2.4,0,0,0,1.75.69,2.32,2.32,0,0,0,2.15-1.39l1.22.26a3.47,3.47,0,0,1-1.31,1.65,3.59,3.59,0,0,1-2,.6,3.75,3.75,0,0,1-2.77-1.07,4.57,4.57,0,0,1,0-5.84,3.66,3.66,0,0,1,2.72-1.07,3.46,3.46,0,0,1,2.58,1A3.88,3.88,0,0,1,356,215.83Zm-3.55-2.8a2.36,2.36,0,0,0-1.6.55,2.49,2.49,0,0,0-.81,1.58h4.6a2.25,2.25,0,0,0-.67-1.58A2.12,2.12,0,0,0,352.42,213Z"/>
      <path d="M359.86,220a2.56,2.56,0,0,1-1.68-.53,1.88,1.88,0,0,1-.66-1.57,2.2,2.2,0,0,1,.21-1,1.7,1.7,0,0,1,.63-.7,3.42,3.42,0,0,1,.9-.44,7.88,7.88,0,0,1,1.17-.27l1.24-.21c.45-.08.68-.32.68-.71a1.33,1.33,0,0,0-.48-1.14,1.93,1.93,0,0,0-1.22-.37,2,2,0,0,0-1.2.35,1.51,1.51,0,0,0-.57,1.08l-1.22-.25a2.4,2.4,0,0,1,1-1.65,3.6,3.6,0,0,1,2.1-.55,4.32,4.32,0,0,1,1.11.14,3,3,0,0,1,.93.43,1.94,1.94,0,0,1,.66.82,3.09,3.09,0,0,1,.24,1.27v3.17a1.29,1.29,0,0,0,.18.8.74.74,0,0,0,.6.21h.13v1h-.67c-.83,0-1.32-.34-1.46-1h-.06A2.91,2.91,0,0,1,359.86,220Zm.32-1.09a2,2,0,0,0,1.64-.75,3,3,0,0,0,.63-2l-2,.39a2.68,2.68,0,0,0-1.19.43,1,1,0,0,0-.39.84,1,1,0,0,0,.37.84A1.55,1.55,0,0,0,360.18,218.88Z"/>
      <path d="M368.88,219.82a2,2,0,0,1-1.5-.55,2.07,2.07,0,0,1-.55-1.53v-4.52h-1.57v-1.08h.58a1.13,1.13,0,0,0,.85-.27,1.35,1.35,0,0,0,.24-.9v-1.39h1.26v2.56H370v1.08h-1.77v4.38a1.14,1.14,0,0,0,.3.84,1,1,0,0,0,.76.3H370v1.08Z"/>
      <path d="M372.6,210.34a.92.92,0,0,1-.92-.92.87.87,0,0,1,.27-.64.93.93,0,0,1,1.29,0,.9.9,0,0,1,.26.64.92.92,0,0,1-.26.65A.89.89,0,0,1,372.6,210.34Zm-.69,9.48v-7.68h1.36v7.68Z"/>
      <path d="M380.81,212.14h1.44l-3.12,7.68H378l-3.11-7.68h1.44l2.25,6.11Z"/>
      <path d="M386.79,220a4,4,0,0,1-2-.48,3.38,3.38,0,0,1-1.39-1.39,4.29,4.29,0,0,1-.51-2.12,3.92,3.92,0,0,1,1.09-2.9,4.09,4.09,0,0,1,5.56,0,4,4,0,0,1,1.08,2.9,3.91,3.91,0,0,1-1.09,2.9A3.73,3.73,0,0,1,386.79,220Zm0-1.12a2.36,2.36,0,0,0,1.81-.79,2.93,2.93,0,0,0,.73-2.08,2.89,2.89,0,0,0-.73-2.07,2.33,2.33,0,0,0-1.81-.79,2.29,2.29,0,0,0-1.8.79,2.93,2.93,0,0,0-.72,2.07,3,3,0,0,0,.72,2.08A2.33,2.33,0,0,0,386.78,218.85Z"/>
      <path d="M332.4,239V228h3.54a5.27,5.27,0,0,1,2.8.71,4.31,4.31,0,0,1,1.72,1.94,6.79,6.79,0,0,1,.56,2.84,7.41,7.41,0,0,1-.32,2.23,5.08,5.08,0,0,1-.95,1.73,4.19,4.19,0,0,1-1.6,1.15,5.73,5.73,0,0,1-2.21.4Zm1.39-1.27h2.11a3.35,3.35,0,0,0,2.74-1.13,5.63,5.63,0,0,0,0-6.2,3.36,3.36,0,0,0-2.74-1.12h-2.11Z"/>
      <path d="M344.07,229.54a.87.87,0,0,1-.64-.27.89.89,0,0,1-.27-.65.87.87,0,0,1,.27-.64.92.92,0,0,1,1.28,0,.87.87,0,0,1,.27.64.89.89,0,0,1-.27.65A.87.87,0,0,1,344.07,229.54Zm-.68,9.48v-7.68h1.36V239Z"/>
      <path d="M352.29,231.34h1.44L350.61,239h-1.15l-3.11-7.68h1.44l2.25,6.11Z"/>
      <path d="M361.75,235l0,.37h-6a2.69,2.69,0,0,0,.74,2,2.38,2.38,0,0,0,1.75.69,2.35,2.35,0,0,0,1.27-.37,2.41,2.41,0,0,0,.87-1l1.22.26a3.41,3.41,0,0,1-1.31,1.65,3.59,3.59,0,0,1-2,.6,3.71,3.71,0,0,1-2.76-1.07,4.55,4.55,0,0,1,0-5.84,3.68,3.68,0,0,1,2.72-1.07,3.44,3.44,0,0,1,2.58,1A3.88,3.88,0,0,1,361.75,235Zm-3.56-2.8a2.38,2.38,0,0,0-1.6.55,2.48,2.48,0,0,0-.8,1.58h4.6a2.29,2.29,0,0,0-.67-1.58A2.16,2.16,0,0,0,358.19,232.23Z"/>
      <path d="M365.18,232.69a2.37,2.37,0,0,1,1-1,2.84,2.84,0,0,1,1.47-.4v1.27a2.52,2.52,0,0,0-1.78.57,2.38,2.38,0,0,0-.61,1.82V239h-1.36v-7.68h1.32Z"/>
      <path d="M372.1,239a2,2,0,0,1-1.5-.55,2.07,2.07,0,0,1-.55-1.53v-4.52h-1.57v-1.08h.58a1.13,1.13,0,0,0,.85-.27,1.35,1.35,0,0,0,.24-.9v-1.39h1.26v2.56h1.77v1.08h-1.77v4.38a1.17,1.17,0,0,0,.29.84,1,1,0,0,0,.77.3h.71V239Z"/>
      <path d="M375.82,229.54a.92.92,0,0,1-.92-.92.87.87,0,0,1,.27-.64.92.92,0,0,1,.65-.26.89.89,0,0,1,.63.26.87.87,0,0,1,.27.64.89.89,0,0,1-.27.65A.86.86,0,0,1,375.82,229.54Zm-.69,9.48v-7.68h1.36V239Z"/>
      <path d="M384.91,227h1.35v12H385l0-1.49a2.86,2.86,0,0,1-1.1,1.21,3,3,0,0,1-1.62.45,3.53,3.53,0,0,1-2.54-1.09,3.72,3.72,0,0,1-.77-1.27,4.59,4.59,0,0,1-.29-1.64,4,4,0,0,1,1.05-2.89,3.35,3.35,0,0,1,2.55-1.11,3,3,0,0,1,1.6.44,2.88,2.88,0,0,1,1.1,1.17Zm-2.42,11a2.31,2.31,0,0,0,1.78-.8,3.16,3.16,0,0,0,0-4,2.3,2.3,0,0,0-1.78-.81,2.38,2.38,0,0,0-1.8.78,3.26,3.26,0,0,0,0,4.09A2.38,2.38,0,0,0,382.49,238Z"/>
      <path d="M392.25,239.17a4,4,0,0,1-2-.48,3.38,3.38,0,0,1-1.39-1.39,4.29,4.29,0,0,1-.51-2.12,3.91,3.91,0,0,1,1.09-2.9,4.09,4.09,0,0,1,5.56,0,4.42,4.42,0,0,1,0,5.8A3.73,3.73,0,0,1,392.25,239.17Zm0-1.12a2.4,2.4,0,0,0,1.82-.79,3,3,0,0,0,.72-2.08,2.93,2.93,0,0,0-.72-2.07,2.36,2.36,0,0,0-1.82-.79,2.29,2.29,0,0,0-1.8.79,2.93,2.93,0,0,0-.72,2.07,3,3,0,0,0,.72,2.08A2.33,2.33,0,0,0,392.24,238.05Z"/>
    </g>
  </g>
</svg>
