<svg id="Layer_1" data-name="Layer 1" xmlns="http://www.w3.org/2000/svg" width="563.56" height="300.44" viewBox="0 0 563.56 300.44">
  <defs>
    <style>
      .cls-1 {
        fill: #999;
      }

      .cls-2 {
        fill: #f2f2f2;
      }

      .cls-3 {
        opacity: 0.75;
      }

      .cls-4 {
        opacity: 0.5;
      }

      .cls-5 {
        opacity: 0.25;
      }
    </style>
  </defs>
  <g>
    <rect class="cls-1" y="228.44" width="70.44" height="72"/>
    <g>
      <rect class="cls-1" width="281.78" height="228.44"/>
      <rect class="cls-2" x="281.78" width="281.78" height="300.44"/>
      <g class="cls-3">
        <rect class="cls-1" x="70.44" y="228.44" width="70.44" height="72"/>
      </g>
      <g class="cls-4">
        <rect class="cls-1" x="140.89" y="228.44" width="70.44" height="72"/>
      </g>
      <g class="cls-5">
        <rect class="cls-1" x="211.33" y="228.44" width="70.44" height="72"/>
      </g>
      <g>
        <path d="M341.29,124.77a14.45,14.45,0,0,1-5.35-1,12.48,12.48,0,0,1-4.27-2.74,12.23,12.23,0,0,1-2.8-4.34,16.31,16.31,0,0,1,0-11.38,12.41,12.41,0,0,1,2.85-4.38,13,13,0,0,1,4.35-2.76,15.1,15.1,0,0,1,5.47-1,14.69,14.69,0,0,1,7,1.64,11.93,11.93,0,0,1,4.83,4.67l-4.88,2.6a7.17,7.17,0,0,0-2.83-3,8.11,8.11,0,0,0-4.09-1,7.8,7.8,0,0,0-5.86,2.36,9,9,0,0,0-2.27,6.51,9.25,9.25,0,0,0,2.27,6.55,7.85,7.85,0,0,0,6.06,2.45,9.05,9.05,0,0,0,3.27-.57,6.65,6.65,0,0,0,2.6-1.87,6.8,6.8,0,0,0,1.48-3.18h-7.33v-4.47h12.6V124.4H350v-3.71Q347.25,124.77,341.29,124.77Z"/>
        <path d="M364.58,108.35a6.17,6.17,0,0,1,2.5-2.29,7.61,7.61,0,0,1,3.73-1v4.76a7.26,7.26,0,0,0-4.56,1.15c-.94.77-1.41,2.13-1.41,4.09v9.29h-5.38V105.33h5.12Z"/>
        <path d="M376.67,102.47a3.09,3.09,0,0,1-3.09-3.08,2.92,2.92,0,0,1,.91-2.16,3,3,0,0,1,2.18-.9,3.07,3.07,0,0,1,0,6.14ZM374,124.4V105.33h5.38V124.4Z"/>
        <path d="M391.57,124.77a10.65,10.65,0,0,1-5.56-1.33,5.63,5.63,0,0,1-2.73-4l4.47-1.26a3.59,3.59,0,0,0,3.82,2.83,4,4,0,0,0,1.95-.43,1.52,1.52,0,0,0,.76-1.48,1.55,1.55,0,0,0-.31-1,2.56,2.56,0,0,0-1-.71c-.44-.19-.87-.36-1.3-.5s-1-.3-1.69-.49a18.42,18.42,0,0,1-1.77-.55,12.31,12.31,0,0,1-1.68-.71,7.21,7.21,0,0,1-1.39-1,4.12,4.12,0,0,1-1-1.5,5.38,5.38,0,0,1-.36-2,4.88,4.88,0,0,1,2.07-4.27,9.28,9.28,0,0,1,5.41-1.44,9.53,9.53,0,0,1,5,1.22,5.55,5.55,0,0,1,2.56,3.82l-4.14.93a3.23,3.23,0,0,0-3.39-2.41,3.68,3.68,0,0,0-1.88.43,1.37,1.37,0,0,0-.74,1.26,1.48,1.48,0,0,0,.11.57,1.23,1.23,0,0,0,.39.47c.19.13.37.25.54.35a4.31,4.31,0,0,0,.76.31l.84.24,1,.25,1,.26c.68.18,1.28.37,1.79.55a11.48,11.48,0,0,1,1.65.78,5.76,5.76,0,0,1,1.43,1.13,5,5,0,0,1,.94,1.57,5.81,5.81,0,0,1,.37,2.13,5.68,5.68,0,0,1-.64,2.76,4.78,4.78,0,0,1-1.75,1.87,8.66,8.66,0,0,1-2.48,1A12.67,12.67,0,0,1,391.57,124.77Z"/>
      </g>
      <g>
        <path d="M339.79,151.22h1.39v11H339.7l-5.93-8.9v8.9H332.4v-11h1.46l5.93,8.86Z"/>
        <path d="M350.89,158.23l0,.37h-6a2.69,2.69,0,0,0,.74,2,2.4,2.4,0,0,0,1.75.69,2.32,2.32,0,0,0,2.14-1.39l1.22.26a3.41,3.41,0,0,1-1.31,1.65,3.59,3.59,0,0,1-2,.6,3.71,3.71,0,0,1-2.76-1.07,4.55,4.55,0,0,1,0-5.84,3.68,3.68,0,0,1,2.72-1.07,3.43,3.43,0,0,1,2.58,1A3.88,3.88,0,0,1,350.89,158.23Zm-3.56-2.8a2.33,2.33,0,0,0-1.59.55,2.49,2.49,0,0,0-.81,1.58h4.6a2.29,2.29,0,0,0-.67-1.58A2.16,2.16,0,0,0,347.33,155.43Z"/>
        <path d="M357.79,154.54h1.35v7.68h-1.3l0-1a2.46,2.46,0,0,1-.95.86,3,3,0,0,1-1.35.3,2.63,2.63,0,0,1-1.93-.7,2.58,2.58,0,0,1-.72-2v-5.17h1.35v4.87a1.83,1.83,0,0,0,.47,1.37,1.64,1.64,0,0,0,1.21.46,1.85,1.85,0,0,0,1.36-.53,2.21,2.21,0,0,0,.54-1.57Z"/>
        <path d="M364.34,162.22a2,2,0,0,1-1.5-.55,2.11,2.11,0,0,1-.55-1.53v-4.52h-1.57v-1.08h.58a1.11,1.11,0,0,0,.85-.27,1.34,1.34,0,0,0,.25-.9V152h1.25v2.56h1.77v1.08h-1.77V160a1.14,1.14,0,0,0,.3.84,1,1,0,0,0,.77.3h.7v1.08Z"/>
        <path d="M368.69,155.89a2.31,2.31,0,0,1,1-1,2.84,2.84,0,0,1,1.47-.4v1.27a2.5,2.5,0,0,0-1.78.57,2.38,2.38,0,0,0-.62,1.82v4.1h-1.35v-7.68h1.32Z"/>
        <path d="M374.39,162.37a2.63,2.63,0,0,1-1.69-.53,1.88,1.88,0,0,1-.66-1.57,2.28,2.28,0,0,1,.21-1,1.81,1.81,0,0,1,.63-.69,3.76,3.76,0,0,1,.9-.44,10.14,10.14,0,0,1,1.17-.28l1.24-.2c.46-.08.68-.32.68-.71a1.33,1.33,0,0,0-.48-1.14,1.9,1.9,0,0,0-1.21-.37,2.06,2.06,0,0,0-1.21.35,1.51,1.51,0,0,0-.57,1.08l-1.22-.26a2.38,2.38,0,0,1,1-1.64,3.54,3.54,0,0,1,2.09-.55,4.21,4.21,0,0,1,1.11.14,2.82,2.82,0,0,1,.93.43,1.89,1.89,0,0,1,.67.82,3.27,3.27,0,0,1,.23,1.27v3.17a1.29,1.29,0,0,0,.18.8.76.76,0,0,0,.61.21h.12v1h-.67a1.27,1.27,0,0,1-1.45-1h-.07A2.93,2.93,0,0,1,374.39,162.37Zm.31-1.09a2.05,2.05,0,0,0,1.65-.75,3.08,3.08,0,0,0,.62-2l-2,.39a2.73,2.73,0,0,0-1.19.43,1,1,0,0,0-.39.84,1,1,0,0,0,.38.84A1.5,1.5,0,0,0,374.7,161.28Z"/>
        <path d="M381,162.22v-12h1.36v12Z"/>
        <path d="M336.56,170.42a3.21,3.21,0,0,1,1.72.46,3.09,3.09,0,0,1,1.16,1.22,3.58,3.58,0,0,1,.4,1.7,3.31,3.31,0,0,1-.91,2.39,3.13,3.13,0,0,1-2.37,1h-2.77v4.27H332.4v-11Zm-.2,5.51a2,2,0,0,0,1.53-.59,2.17,2.17,0,0,0,.55-1.56,2.19,2.19,0,0,0-.55-1.55,2,2,0,0,0-1.53-.6h-2.57v4.3Z"/>
        <path d="M343.26,175.09a2.31,2.31,0,0,1,1-1,2.84,2.84,0,0,1,1.47-.4v1.27a2.52,2.52,0,0,0-1.78.57,2.38,2.38,0,0,0-.62,1.82v4.1h-1.35v-7.68h1.32Z"/>
        <path d="M349,181.57a2.65,2.65,0,0,1-1.69-.53,1.88,1.88,0,0,1-.66-1.57,2.08,2.08,0,0,1,.22-1,1.67,1.67,0,0,1,.62-.7,3.76,3.76,0,0,1,.9-.44,10.14,10.14,0,0,1,1.17-.28l1.24-.2c.46-.08.68-.32.68-.71A1.33,1.33,0,0,0,351,175a1.9,1.9,0,0,0-1.21-.37,2.06,2.06,0,0,0-1.21.35,1.51,1.51,0,0,0-.57,1.08l-1.22-.26a2.38,2.38,0,0,1,1-1.64,3.54,3.54,0,0,1,2.09-.55,4.21,4.21,0,0,1,1.11.14,2.82,2.82,0,0,1,.93.43,1.89,1.89,0,0,1,.67.82,3.27,3.27,0,0,1,.23,1.27v3.17a1.29,1.29,0,0,0,.18.8.76.76,0,0,0,.61.21h.12v1H353a1.27,1.27,0,0,1-1.45-1h-.07A2.93,2.93,0,0,1,349,181.57Zm.31-1.09a2.05,2.05,0,0,0,1.65-.75,3.08,3.08,0,0,0,.62-2l-2,.39a2.73,2.73,0,0,0-1.19.43,1,1,0,0,0-.39.84,1,1,0,0,0,.38.84A1.5,1.5,0,0,0,349.27,180.48Z"/>
        <path d="M358.6,181.56a3.67,3.67,0,0,1-2.75-1.1,4.36,4.36,0,0,1,0-5.76,4,4,0,0,1,5-.43,3.33,3.33,0,0,1,1.29,1.86l-1.26.21a2.3,2.3,0,0,0-2.26-1.62,2.27,2.27,0,0,0-1.78.79,3.4,3.4,0,0,0,0,4.13,2.27,2.27,0,0,0,1.78.79,2.3,2.3,0,0,0,2.26-1.62l1.26.21a3.32,3.32,0,0,1-1.3,1.87A3.71,3.71,0,0,1,358.6,181.56Z"/>
        <path d="M366.56,181.42a2,2,0,0,1-1.5-.55,2.07,2.07,0,0,1-.55-1.53v-4.52h-1.57v-1.08h.58a1.13,1.13,0,0,0,.85-.27,1.35,1.35,0,0,0,.24-.9v-1.39h1.26v2.56h1.77v1.08h-1.77v4.38a1.17,1.17,0,0,0,.29.84,1,1,0,0,0,.77.3h.71v1.08Z"/>
        <path d="M370.28,171.94a.92.92,0,0,1-.92-.92.87.87,0,0,1,.27-.64.92.92,0,0,1,.65-.26.9.9,0,0,1,.9.9.89.89,0,0,1-.27.65A.85.85,0,0,1,370.28,171.94Zm-.69,9.48v-7.68H371v7.68Z"/>
        <path d="M376.89,181.56a3.67,3.67,0,0,1-2.75-1.1,4.36,4.36,0,0,1,0-5.76,3.68,3.68,0,0,1,2.76-1.11,3.72,3.72,0,0,1,2.22.68,3.33,3.33,0,0,1,1.29,1.86l-1.26.21a2.3,2.3,0,0,0-2.26-1.62,2.27,2.27,0,0,0-1.78.79,3.4,3.4,0,0,0,0,4.13,2.27,2.27,0,0,0,1.78.79,2.3,2.3,0,0,0,2.26-1.62l1.26.21a3.32,3.32,0,0,1-1.3,1.87A3.71,3.71,0,0,1,376.89,181.56Z"/>
        <path d="M385.63,181.57a4,4,0,0,1-2-.48,3.51,3.51,0,0,1-1.39-1.39,4.29,4.29,0,0,1-.51-2.12,4,4,0,0,1,1.09-2.9,4.09,4.09,0,0,1,5.56,0,4.4,4.4,0,0,1,0,5.8A3.77,3.77,0,0,1,385.63,181.57Zm0-1.12a2.38,2.38,0,0,0,1.82-.79,3,3,0,0,0,.72-2.08,2.93,2.93,0,0,0-.72-2.07,2.35,2.35,0,0,0-1.82-.79,2.32,2.32,0,0,0-1.8.79,2.93,2.93,0,0,0-.71,2.07,3,3,0,0,0,.71,2.08A2.36,2.36,0,0,0,385.62,180.45Z"/>
        <path d="M337.11,200.77a5.93,5.93,0,0,1-2.17-.39,5.62,5.62,0,0,1-1.74-1.11,5,5,0,0,1-1.15-1.79,6.84,6.84,0,0,1,0-4.72,5.09,5.09,0,0,1,1.16-1.79,5.29,5.29,0,0,1,1.73-1.11,5.93,5.93,0,0,1,2.17-.39,5.55,5.55,0,0,1,2.92.78A4.82,4.82,0,0,1,342,192.4l-1.29.53a3.71,3.71,0,0,0-1.44-1.57,4.12,4.12,0,0,0-2.13-.55,4.47,4.47,0,0,0-1.61.29,3.81,3.81,0,0,0-1.29.83,3.7,3.7,0,0,0-.87,1.36,5,5,0,0,0-.32,1.82,5.11,5.11,0,0,0,.32,1.84,3.7,3.7,0,0,0,.87,1.36,3.81,3.81,0,0,0,1.29.83,4.27,4.27,0,0,0,1.61.29,4.12,4.12,0,0,0,2.13-.55,3.66,3.66,0,0,0,1.44-1.55l1.29.52A4.8,4.8,0,0,1,340,200,5.65,5.65,0,0,1,337.11,200.77Z"/>
        <path d="M347.25,200.77a4,4,0,0,1-2-.48,3.38,3.38,0,0,1-1.39-1.39,4.29,4.29,0,0,1-.51-2.12,3.92,3.92,0,0,1,1.09-2.9,4.09,4.09,0,0,1,5.56,0,4,4,0,0,1,1.08,2.9,3.91,3.91,0,0,1-1.09,2.9A3.73,3.73,0,0,1,347.25,200.77Zm0-1.12a2.4,2.4,0,0,0,1.82-.79,3,3,0,0,0,.72-2.08,2.93,2.93,0,0,0-.72-2.07,2.36,2.36,0,0,0-1.82-.79,2.29,2.29,0,0,0-1.8.79,2.93,2.93,0,0,0-.72,2.07,3,3,0,0,0,.72,2.08A2.33,2.33,0,0,0,347.24,199.65Z"/>
        <path d="M356.86,192.79a2.69,2.69,0,0,1,1.93.7,2.6,2.6,0,0,1,.72,2v5.17h-1.35v-4.86a1.83,1.83,0,0,0-.47-1.38,1.65,1.65,0,0,0-1.2-.45,1.88,1.88,0,0,0-1.37.53,2.19,2.19,0,0,0-.54,1.57v4.59h-1.35v-7.68h1.35v1A2.56,2.56,0,0,1,356.86,192.79Z"/>
        <path d="M364.55,200.77a3.63,3.63,0,0,1-2.07-.55,2.31,2.31,0,0,1-1-1.58l1.18-.34a1.7,1.7,0,0,0,.63,1.07,2.07,2.07,0,0,0,1.26.38,2.82,2.82,0,0,0,.74-.1,1.28,1.28,0,0,0,.57-.38,1.09,1.09,0,0,0,.23-.7,1.07,1.07,0,0,0-.07-.32,1.17,1.17,0,0,0-.12-.25.64.64,0,0,0-.22-.21,2.29,2.29,0,0,0-.27-.17,2.08,2.08,0,0,0-.34-.14l-.38-.13-.43-.12-.44-.13c-.32-.1-.59-.19-.8-.28a3.66,3.66,0,0,1-.65-.37,1.49,1.49,0,0,1-.5-.61,2.06,2.06,0,0,1-.17-.86,2,2,0,0,1,.38-1.22,2.08,2.08,0,0,1,1-.73,3.84,3.84,0,0,1,1.36-.22,3.34,3.34,0,0,1,1.87.5,2.14,2.14,0,0,1,.94,1.5l-1.11.28a1.47,1.47,0,0,0-.59-1,1.84,1.84,0,0,0-1.1-.33,1.91,1.91,0,0,0-1,.27.91.91,0,0,0-.43.83.85.85,0,0,0,.11.42,1.65,1.65,0,0,0,.23.3,1.26,1.26,0,0,0,.43.23,3.6,3.6,0,0,0,.45.17c.1,0,.28.08.56.14l.12,0,.74.21a5.36,5.36,0,0,1,.66.28,2.43,2.43,0,0,1,.6.42,2,2,0,0,1,.37.59,2,2,0,0,1,.16.83,2.31,2.31,0,0,1-.23,1,1.88,1.88,0,0,1-.63.71,3,3,0,0,1-.89.38A4.15,4.15,0,0,1,364.55,200.77Z"/>
        <path d="M376.22,196.63V197h-6a2.69,2.69,0,0,0,.73,2,2.49,2.49,0,0,0,3,.32,2.35,2.35,0,0,0,.87-1l1.22.26a3.47,3.47,0,0,1-1.31,1.65,3.59,3.59,0,0,1-2,.6,3.75,3.75,0,0,1-2.77-1.07,4.57,4.57,0,0,1,0-5.84,3.66,3.66,0,0,1,2.72-1.07,3.46,3.46,0,0,1,2.58,1A3.86,3.86,0,0,1,376.22,196.63Zm-3.55-2.8a2.36,2.36,0,0,0-1.6.55,2.49,2.49,0,0,0-.81,1.58h4.6a2.25,2.25,0,0,0-.67-1.58A2.12,2.12,0,0,0,372.67,193.83Z"/>
        <path d="M379.66,194.29a2.34,2.34,0,0,1,.95-1,2.91,2.91,0,0,1,1.48-.4v1.27a2.5,2.5,0,0,0-1.78.57,2.38,2.38,0,0,0-.62,1.82v4.1h-1.35v-7.68h1.32Z"/>
        <path d="M388.62,192.94h1.45l-3.13,7.68h-1.15l-3.11-7.68h1.44l2.25,6.11Z"/>
        <path d="M393.14,200.77a2.63,2.63,0,0,1-1.69-.53,1.88,1.88,0,0,1-.66-1.57,2.2,2.2,0,0,1,.21-1,1.77,1.77,0,0,1,.63-.7,3.76,3.76,0,0,1,.9-.44,8.52,8.52,0,0,1,1.17-.27l1.24-.21c.46-.08.68-.32.68-.71a1.33,1.33,0,0,0-.48-1.14,1.9,1.9,0,0,0-1.21-.37,2.06,2.06,0,0,0-1.21.35,1.51,1.51,0,0,0-.57,1.08l-1.22-.25a2.38,2.38,0,0,1,1-1.65,3.54,3.54,0,0,1,2.09-.55,4.21,4.21,0,0,1,1.11.14,2.82,2.82,0,0,1,.93.43,1.89,1.89,0,0,1,.67.82,3.27,3.27,0,0,1,.23,1.27v3.17a1.29,1.29,0,0,0,.18.8.76.76,0,0,0,.61.21h.12v1h-.67a1.27,1.27,0,0,1-1.45-1h-.07A2.91,2.91,0,0,1,393.14,200.77Zm.31-1.09a2.05,2.05,0,0,0,1.65-.75,3.08,3.08,0,0,0,.62-2l-2,.39a2.73,2.73,0,0,0-1.19.43,1,1,0,0,0-.39.84,1,1,0,0,0,.38.84A1.5,1.5,0,0,0,393.45,199.68Z"/>
        <path d="M405.26,188.62h1.35v12h-1.3l0-1.49a2.86,2.86,0,0,1-1.1,1.21,3,3,0,0,1-1.62.45,3.46,3.46,0,0,1-1.39-.29,3.41,3.41,0,0,1-1.15-.8,3.72,3.72,0,0,1-.77-1.27,4.59,4.59,0,0,1-.28-1.64,4,4,0,0,1,1-2.89,3.35,3.35,0,0,1,2.55-1.11,3,3,0,0,1,1.6.44,2.81,2.81,0,0,1,1.1,1.17Zm-2.42,11a2.34,2.34,0,0,0,1.79-.8,2.94,2.94,0,0,0,.72-2,2.88,2.88,0,0,0-.73-2,2.3,2.3,0,0,0-1.78-.81,2.38,2.38,0,0,0-1.8.78,2.93,2.93,0,0,0-.72,2,2.89,2.89,0,0,0,.72,2A2.38,2.38,0,0,0,402.84,199.61Z"/>
        <path d="M412.6,200.77a4,4,0,0,1-2-.48,3.44,3.44,0,0,1-1.39-1.39,4.29,4.29,0,0,1-.51-2.12,3.92,3.92,0,0,1,1.09-2.9,4.09,4.09,0,0,1,5.56,0,4.4,4.4,0,0,1,0,5.8A3.77,3.77,0,0,1,412.6,200.77Zm0-1.12a2.4,2.4,0,0,0,1.82-.79,3,3,0,0,0,.72-2.08,2.93,2.93,0,0,0-.72-2.07,2.36,2.36,0,0,0-1.82-.79,2.32,2.32,0,0,0-1.8.79,2.93,2.93,0,0,0-.71,2.07,3,3,0,0,0,.71,2.08A2.36,2.36,0,0,0,412.59,199.65Z"/>
        <path d="M419.9,194.29a2.37,2.37,0,0,1,1-1,2.84,2.84,0,0,1,1.47-.4v1.27a2.52,2.52,0,0,0-1.78.57,2.38,2.38,0,0,0-.62,1.82v4.1h-1.35v-7.68h1.32Z"/>
        <path d="M338.34,210.1h-4.51v3.59h3.93V215h-3.93v4.86H332.4v-11h5.94Z"/>
        <path d="M343.26,220a4,4,0,0,1-2-.48,3.42,3.42,0,0,1-1.38-1.39,4.29,4.29,0,0,1-.51-2.12,3.92,3.92,0,0,1,1.09-2.9,4.08,4.08,0,0,1,5.55,0,4.4,4.4,0,0,1,0,5.8A3.75,3.75,0,0,1,343.26,220Zm0-1.12a2.38,2.38,0,0,0,1.82-.79,3,3,0,0,0,.72-2.08,2.93,2.93,0,0,0-.72-2.07,2.35,2.35,0,0,0-1.82-.79,2.32,2.32,0,0,0-1.8.79,3,3,0,0,0-.71,2.07,3,3,0,0,0,.71,2.08A2.36,2.36,0,0,0,343.25,218.85Z"/>
        <path d="M350.57,213.49a2.34,2.34,0,0,1,.95-1,2.85,2.85,0,0,1,1.48-.4v1.27a2.55,2.55,0,0,0-1.79.57,2.38,2.38,0,0,0-.61,1.82v4.1h-1.35v-7.68h1.32Z"/>
        <path d="M362.43,212a2.46,2.46,0,0,1,1.79.66,2.38,2.38,0,0,1,.68,1.83v5.34h-1.35v-5a1.75,1.75,0,0,0-.42-1.27,1.46,1.46,0,0,0-1.07-.43,1.52,1.52,0,0,0-1.17.49,2.06,2.06,0,0,0-.45,1.45v4.75h-1.37v-4.94a1.82,1.82,0,0,0-.43-1.3,1.43,1.43,0,0,0-1.09-.45,1.51,1.51,0,0,0-1.17.5,2.16,2.16,0,0,0-.45,1.49v4.7h-1.35v-7.68h1.35v1a2.44,2.44,0,0,1,.88-.84A2.49,2.49,0,0,1,358,212a2.58,2.58,0,0,1,1.31.33,2,2,0,0,1,.85.93,2.42,2.42,0,0,1,.92-.93A2.6,2.6,0,0,1,362.43,212Z"/>
        <path d="M369.29,220a2.56,2.56,0,0,1-1.68-.53,1.88,1.88,0,0,1-.66-1.57,2.2,2.2,0,0,1,.21-1,1.7,1.7,0,0,1,.63-.7,3.42,3.42,0,0,1,.9-.44,7.88,7.88,0,0,1,1.17-.27l1.24-.21c.45-.08.68-.32.68-.71a1.33,1.33,0,0,0-.48-1.14,1.93,1.93,0,0,0-1.22-.37,2,2,0,0,0-1.2.35,1.51,1.51,0,0,0-.57,1.08l-1.22-.25a2.37,2.37,0,0,1,1-1.65,3.6,3.6,0,0,1,2.1-.55,4.32,4.32,0,0,1,1.11.14,3,3,0,0,1,.93.43,1.94,1.94,0,0,1,.66.82,3.09,3.09,0,0,1,.24,1.27v3.17a1.29,1.29,0,0,0,.18.8.73.73,0,0,0,.6.21H374v1h-.67c-.83,0-1.32-.34-1.46-1h-.06A2.91,2.91,0,0,1,369.29,220Zm.32-1.09a2,2,0,0,0,1.64-.75,3,3,0,0,0,.63-2l-2,.39a2.63,2.63,0,0,0-1.19.43,1,1,0,0,0-.39.84,1,1,0,0,0,.37.84A1.55,1.55,0,0,0,369.61,218.88Z"/>
        <path d="M375.9,219.82v-12h1.37v12Z"/>
        <path d="M338.15,228v1.28h-2.82V239h-1.4V229.3h-2.82V228Z"/>
        <path d="M340.32,232.69a2.34,2.34,0,0,1,.95-1,2.85,2.85,0,0,1,1.48-.4v1.27a2.55,2.55,0,0,0-1.79.57,2.38,2.38,0,0,0-.61,1.82V239H339v-7.68h1.32Z"/>
        <path d="M346,239.17a2.62,2.62,0,0,1-1.68-.53,1.88,1.88,0,0,1-.66-1.57,2.28,2.28,0,0,1,.21-1,1.78,1.78,0,0,1,.62-.69,3.65,3.65,0,0,1,.91-.44,9.22,9.22,0,0,1,1.17-.28l1.24-.2c.45-.08.68-.32.68-.71a1.33,1.33,0,0,0-.48-1.14,1.93,1.93,0,0,0-1.22-.37,2,2,0,0,0-1.2.35,1.48,1.48,0,0,0-.57,1.08l-1.22-.26a2.33,2.33,0,0,1,1-1.64,3.56,3.56,0,0,1,2.09-.55,4.35,4.35,0,0,1,1.12.14,3,3,0,0,1,.93.43,1.94,1.94,0,0,1,.66.82,3.09,3.09,0,0,1,.24,1.27V237a1.29,1.29,0,0,0,.18.8.73.73,0,0,0,.6.21h.13v1H350a1.28,1.28,0,0,1-1.45-1h-.06A3,3,0,0,1,346,239.17Zm.32-1.09a2,2,0,0,0,1.64-.75,3,3,0,0,0,.63-2l-2,.39a2.63,2.63,0,0,0-1.19.43,1,1,0,0,0-.39.84,1,1,0,0,0,.37.84A1.55,1.55,0,0,0,346.33,238.08Z"/>
        <path d="M356.25,231.19a2.69,2.69,0,0,1,1.93.7,2.6,2.6,0,0,1,.72,2V239h-1.35v-4.87a1.79,1.79,0,0,0-.47-1.37,1.65,1.65,0,0,0-1.2-.45,1.88,1.88,0,0,0-1.37.53,2.19,2.19,0,0,0-.54,1.57V239h-1.35v-7.68H354v1A2.56,2.56,0,0,1,356.25,231.19Z"/>
        <path d="M367.22,231.34h1.3v11.55h-1.35v-5.3a2.83,2.83,0,0,1-1.09,1.16,3.08,3.08,0,0,1-1.6.44,3.37,3.37,0,0,1-2.56-1.11,4,4,0,0,1-1-2.89,4.7,4.7,0,0,1,.28-1.66,3.59,3.59,0,0,1,.78-1.27,3.53,3.53,0,0,1,1.14-.79,3.63,3.63,0,0,1,1.39-.28,3.06,3.06,0,0,1,1.61.44,2.75,2.75,0,0,1,1.09,1.18ZM364.74,238a2.33,2.33,0,0,0,1.8-.8,3.16,3.16,0,0,0,0-4,2.43,2.43,0,0,0-3.58,0,3.28,3.28,0,0,0,0,4.1A2.33,2.33,0,0,0,364.74,238Z"/>
        <path d="M376.06,231.34h1.35V239h-1.3l0-1a2.39,2.39,0,0,1-.95.86,2.93,2.93,0,0,1-1.34.3,2.66,2.66,0,0,1-1.94-.7,2.58,2.58,0,0,1-.72-2v-5.17h1.35v4.87a1.83,1.83,0,0,0,.47,1.37,1.66,1.66,0,0,0,1.21.46,1.84,1.84,0,0,0,1.36-.53,2.16,2.16,0,0,0,.54-1.57Z"/>
        <path d="M380.85,229.54a.92.92,0,0,1-.92-.92.87.87,0,0,1,.27-.64.93.93,0,0,1,1.29,0,.9.9,0,0,1,.26.64.92.92,0,0,1-.26.65A.89.89,0,0,1,380.85,229.54Zm-.69,9.48v-7.68h1.36V239Z"/>
        <path d="M384.27,239V227h1.37v12Z"/>
        <path d="M391.62,239.17a4,4,0,0,1-2-.48,3.42,3.42,0,0,1-1.38-1.39,4.19,4.19,0,0,1-.52-2.12,4,4,0,0,1,1.09-2.9,4.09,4.09,0,0,1,5.56,0,4.4,4.4,0,0,1,0,5.8A3.75,3.75,0,0,1,391.62,239.17Zm0-1.12a2.38,2.38,0,0,0,1.82-.79,3,3,0,0,0,.72-2.08,2.93,2.93,0,0,0-.72-2.07,2.35,2.35,0,0,0-1.82-.79,2.32,2.32,0,0,0-1.8.79,3,3,0,0,0-.71,2.07,3,3,0,0,0,.71,2.08A2.36,2.36,0,0,0,391.61,238.05Z"/>
      </g>
    </g>
  </g>
</svg>
