<svg id="Layer_1" data-name="Layer 1" xmlns="http://www.w3.org/2000/svg" width="563.56" height="300.44" viewBox="0 0 563.56 300.44">
  <defs>
    <style>
      .cls-1 {
        fill: #8cc63f;
      }

      .cls-2 {
        fill: #f2f2f2;
      }

      .cls-3 {
        opacity: 0.75;
      }

      .cls-4 {
        opacity: 0.5;
      }

      .cls-5 {
        opacity: 0.25;
      }
    </style>
  </defs>
  <g>
    <rect class="cls-1" width="281.78" height="228.44"/>
    <rect class="cls-2" x="281.78" width="281.78" height="300.44"/>
    <rect class="cls-1" y="228.44" width="70.44" height="72"/>
    <g class="cls-3">
      <rect class="cls-1" x="70.44" y="228.44" width="70.44" height="72"/>
    </g>
    <g class="cls-4">
      <rect class="cls-1" x="140.89" y="228.44" width="70.44" height="72"/>
    </g>
    <g class="cls-5">
      <rect class="cls-1" x="211.33" y="228.44" width="70.44" height="72"/>
    </g>
    <g>
      <path d="M334.75,55.59h5.91l-9.9,26.81h-6.13l-9.85-26.81h5.9l7,20.32Z"/>
      <path d="M360,72.59,360,73.87H345.84a5,5,0,0,0,1.52,3.49,4.91,4.91,0,0,0,3.36,1.2,4.71,4.71,0,0,0,2.52-.66,4.06,4.06,0,0,0,1.6-1.92l4.9.73a8.4,8.4,0,0,1-3.34,4.47,10,10,0,0,1-5.64,1.59,10.31,10.31,0,0,1-7.43-2.62,9.58,9.58,0,0,1-2.76-7.29,9.62,9.62,0,0,1,2.77-7.28,10,10,0,0,1,7.25-2.66,9.58,9.58,0,0,1,6.85,2.43C359.16,67,360,69.38,360,72.59Zm-9.41-5.89q-3.9,0-4.64,3.68h8.76a4,4,0,0,0-1.32-2.73A4.18,4.18,0,0,0,350.63,66.7Z"/>
      <path d="M369.22,66.35a6.2,6.2,0,0,1,2.51-2.29,7.57,7.57,0,0,1,3.72-1v4.76A7.26,7.26,0,0,0,370.89,69c-.94.77-1.41,2.13-1.41,4.09V82.4H364.1V63.33h5.12Z"/>
      <path d="M392,53.9h5.34V82.4h-5.07l-.13-2.48a5.5,5.5,0,0,1-2.42,2.16,8.19,8.19,0,0,1-3.57.77,9.22,9.22,0,0,1-3.56-.69,8.62,8.62,0,0,1-4.9-5.08A11.68,11.68,0,0,1,377,72.9a10.83,10.83,0,0,1,1.26-5.31,8.56,8.56,0,0,1,3.33-3.46A9.17,9.17,0,0,1,386.16,63a8.42,8.42,0,0,1,3.46.69,5.53,5.53,0,0,1,2.39,2Zm-4.62,24.51a4.71,4.71,0,0,0,3.6-1.52,6.25,6.25,0,0,0,0-8,4.73,4.73,0,0,0-3.59-1.53,4.79,4.79,0,0,0-3.63,1.51,6.32,6.32,0,0,0,0,8A4.82,4.82,0,0,0,387.39,78.41Z"/>
      <path d="M420.82,72.59l-.05,1.28H406.63a4.92,4.92,0,0,0,1.52,3.49,4.87,4.87,0,0,0,3.36,1.2A4.68,4.68,0,0,0,414,77.9,4.08,4.08,0,0,0,415.63,76l4.89.73a8.35,8.35,0,0,1-3.34,4.47,9.93,9.93,0,0,1-5.64,1.59,10.34,10.34,0,0,1-7.43-2.62,9.61,9.61,0,0,1-2.75-7.29,9.65,9.65,0,0,1,2.76-7.28,10,10,0,0,1,7.26-2.66,9.57,9.57,0,0,1,6.84,2.43Q420.8,67.78,420.82,72.59Zm-9.41-5.89q-3.89,0-4.64,3.68h8.76a4,4,0,0,0-1.31-2.73A4.21,4.21,0,0,0,411.41,66.7Z"/>
    </g>
    <g>
      <path d="M327.46,162.22l-.95-2.63h-5l-.94,2.63h-1.46l4.05-11h1.67l4.06,11ZM322,158.36h4.1L324,152.63Z"/>
      <path d="M332.08,155.89a2.37,2.37,0,0,1,1-1,2.84,2.84,0,0,1,1.47-.4v1.27a2.52,2.52,0,0,0-1.78.57,2.38,2.38,0,0,0-.62,1.82v4.1h-1.35v-7.68h1.32Z"/>
      <path d="M344,154.39a2.46,2.46,0,0,1,1.79.66,2.41,2.41,0,0,1,.68,1.83v5.34h-1.35v-5a1.75,1.75,0,0,0-.42-1.27,1.48,1.48,0,0,0-1.07-.43,1.54,1.54,0,0,0-1.18.49,2.11,2.11,0,0,0-.44,1.45v4.75h-1.38v-4.94a1.81,1.81,0,0,0-.42-1.3,1.45,1.45,0,0,0-1.09-.45,1.51,1.51,0,0,0-1.17.5,2.16,2.16,0,0,0-.45,1.49v4.7H336.1v-7.68h1.35v1a2.36,2.36,0,0,1,.88-.84,2.48,2.48,0,0,1,1.22-.3,2.55,2.55,0,0,1,1.31.33,2,2,0,0,1,.86.93,2.29,2.29,0,0,1,.92-.93A2.58,2.58,0,0,1,344,154.39Z"/>
      <path d="M352.27,162.37a4,4,0,0,1-2-.48,3.42,3.42,0,0,1-1.38-1.39,4.19,4.19,0,0,1-.52-2.12,4,4,0,0,1,1.09-2.9,4.09,4.09,0,0,1,5.56,0,4.4,4.4,0,0,1,0,5.8A3.75,3.75,0,0,1,352.27,162.37Zm0-1.12a2.38,2.38,0,0,0,1.82-.79,3,3,0,0,0,.72-2.08,2.93,2.93,0,0,0-.72-2.07,2.35,2.35,0,0,0-1.82-.79,2.32,2.32,0,0,0-1.8.79,3,3,0,0,0-.71,2.07,3,3,0,0,0,.71,2.08A2.36,2.36,0,0,0,352.26,161.25Z"/>
      <path d="M361.88,154.39a2.67,2.67,0,0,1,1.93.7,2.6,2.6,0,0,1,.73,2v5.17h-1.36v-4.86a1.84,1.84,0,0,0-.46-1.38,1.69,1.69,0,0,0-1.21-.45,1.85,1.85,0,0,0-1.36.53,2.11,2.11,0,0,0-.54,1.57v4.59h-1.36v-7.68h1.36v1A2.55,2.55,0,0,1,361.88,154.39Z"/>
      <path d="M367.83,152.74a.87.87,0,0,1-.64-.27.89.89,0,0,1-.27-.65.87.87,0,0,1,.27-.64.92.92,0,0,1,1.28,0,.87.87,0,0,1,.27.64.89.89,0,0,1-.27.65A.87.87,0,0,1,367.83,152.74Zm-.68,9.48v-7.68h1.35v7.68Z"/>
      <path d="M373,162.37a2.65,2.65,0,0,1-1.69-.53,1.88,1.88,0,0,1-.66-1.57,2.08,2.08,0,0,1,.22-1,1.67,1.67,0,0,1,.62-.7,3.76,3.76,0,0,1,.9-.44,8.52,8.52,0,0,1,1.17-.27l1.24-.21c.46-.08.68-.32.68-.71a1.33,1.33,0,0,0-.48-1.14,1.9,1.9,0,0,0-1.21-.37,2.06,2.06,0,0,0-1.21.35,1.51,1.51,0,0,0-.57,1.08l-1.21-.25a2.33,2.33,0,0,1,1-1.65,3.54,3.54,0,0,1,2.09-.55,4.21,4.21,0,0,1,1.11.14,2.82,2.82,0,0,1,.93.43,1.89,1.89,0,0,1,.67.82,3.09,3.09,0,0,1,.24,1.27v3.17a1.3,1.3,0,0,0,.17.8.76.76,0,0,0,.61.21h.12v1h-.67a1.27,1.27,0,0,1-1.45-1h-.07A2.91,2.91,0,0,1,373,162.37Zm.31-1.09a2.05,2.05,0,0,0,1.65-.75,3,3,0,0,0,.62-2l-2,.39a2.73,2.73,0,0,0-1.19.43,1,1,0,0,0-.39.84,1,1,0,0,0,.38.84A1.5,1.5,0,0,0,373.34,161.28Z"/>
      <path d="M325.61,175.68a2.86,2.86,0,0,1,1.59,1,2.69,2.69,0,0,1,.59,1.8,2.89,2.89,0,0,1-.85,2.15,3.07,3.07,0,0,1-2.26.83H320.4v-11h3.33a3.38,3.38,0,0,1,2.36.81,2.73,2.73,0,0,1,.89,2.11,2.83,2.83,0,0,1-.35,1.41A2.3,2.3,0,0,1,325.61,175.68Zm.06-2.26a1.68,1.68,0,0,0-.53-1.27,2,2,0,0,0-1.42-.5h-2v3.59H324a1.57,1.57,0,0,0,1.22-.52A1.92,1.92,0,0,0,325.67,173.42Zm-1.23,6.76a2,2,0,0,0,1.45-.54,1.94,1.94,0,0,0,0-2.71,2.14,2.14,0,0,0-1.53-.53h-2.59v3.78Z"/>
      <path d="M331.81,181.57a2.56,2.56,0,0,1-1.68-.53,1.88,1.88,0,0,1-.66-1.57,2.2,2.2,0,0,1,.21-1,1.74,1.74,0,0,1,.62-.7,3.76,3.76,0,0,1,.9-.44,8.52,8.52,0,0,1,1.17-.27l1.24-.21c.46-.08.68-.32.68-.71a1.33,1.33,0,0,0-.48-1.14,1.9,1.9,0,0,0-1.21-.37,1.94,1.94,0,0,0-1.2.36,1.41,1.41,0,0,0-.57,1.07l-1.22-.25a2.33,2.33,0,0,1,1-1.65,3.54,3.54,0,0,1,2.09-.55,4.21,4.21,0,0,1,1.11.14,2.82,2.82,0,0,1,.93.43,1.89,1.89,0,0,1,.67.82,3.09,3.09,0,0,1,.24,1.27v3.17a1.37,1.37,0,0,0,.17.8.76.76,0,0,0,.61.21h.12v1h-.67a1.27,1.27,0,0,1-1.45-1h-.06A2.94,2.94,0,0,1,331.81,181.57Zm.31-1.09a2.07,2.07,0,0,0,1.65-.74,3.07,3.07,0,0,0,.63-2l-2,.39a2.73,2.73,0,0,0-1.19.43,1,1,0,0,0-.38.84,1,1,0,0,0,.37.84A1.52,1.52,0,0,0,332.12,180.48Z"/>
      <path d="M338.42,181.42v-12h1.37v12Z"/>
      <path d="M344.31,181.57a2.56,2.56,0,0,1-1.68-.53,1.88,1.88,0,0,1-.66-1.57,2.2,2.2,0,0,1,.21-1,1.74,1.74,0,0,1,.62-.7,3.76,3.76,0,0,1,.9-.44,8.52,8.52,0,0,1,1.17-.27l1.24-.21c.46-.08.68-.32.68-.71a1.33,1.33,0,0,0-.48-1.14,1.9,1.9,0,0,0-1.21-.37,1.94,1.94,0,0,0-1.2.36,1.41,1.41,0,0,0-.57,1.07l-1.22-.25a2.33,2.33,0,0,1,1-1.65,3.54,3.54,0,0,1,2.09-.55,4.21,4.21,0,0,1,1.11.14,2.82,2.82,0,0,1,.93.43,1.89,1.89,0,0,1,.67.82,3.09,3.09,0,0,1,.24,1.27v3.17a1.37,1.37,0,0,0,.17.8.76.76,0,0,0,.61.21H349v1h-.67a1.27,1.27,0,0,1-1.45-1h-.06A2.94,2.94,0,0,1,344.31,181.57Zm.31-1.09a2.07,2.07,0,0,0,1.65-.74,3.07,3.07,0,0,0,.63-2l-2,.39a2.73,2.73,0,0,0-1.19.43,1,1,0,0,0-.38.84,1,1,0,0,0,.37.84A1.52,1.52,0,0,0,344.62,180.48Z"/>
      <path d="M354.54,173.59a2.7,2.7,0,0,1,1.94.7,2.6,2.6,0,0,1,.72,2v5.17h-1.35v-4.86a1.84,1.84,0,0,0-.47-1.38,1.65,1.65,0,0,0-1.2-.44,1.85,1.85,0,0,0-1.37.52,2.19,2.19,0,0,0-.54,1.57v4.59h-1.35v-7.68h1.35v1A2.56,2.56,0,0,1,354.54,173.59Z"/>
      <path d="M363,181.56a3.67,3.67,0,0,1-2.75-1.1,4.36,4.36,0,0,1,0-5.76,3.68,3.68,0,0,1,2.76-1.11,3.72,3.72,0,0,1,2.22.68,3.33,3.33,0,0,1,1.29,1.86l-1.26.21a2.3,2.3,0,0,0-2.26-1.62,2.27,2.27,0,0,0-1.78.79,3.41,3.41,0,0,0,0,4.14,2.29,2.29,0,0,0,1.78.78,2.3,2.3,0,0,0,2.26-1.62l1.26.21a3.37,3.37,0,0,1-1.3,1.87A3.71,3.71,0,0,1,363,181.56Z"/>
      <path d="M375.22,177.43v.37h-6a2.69,2.69,0,0,0,.73,2,2.4,2.4,0,0,0,1.75.69,2.32,2.32,0,0,0,2.15-1.39l1.22.26a3.47,3.47,0,0,1-1.31,1.65,3.59,3.59,0,0,1-2,.6,3.75,3.75,0,0,1-2.77-1.07,4.57,4.57,0,0,1,0-5.84,3.66,3.66,0,0,1,2.72-1.07,3.46,3.46,0,0,1,2.58,1A3.89,3.89,0,0,1,375.22,177.43Zm-3.55-2.8a2.41,2.41,0,0,0-1.6.55,2.49,2.49,0,0,0-.81,1.58h4.6a2.25,2.25,0,0,0-.67-1.58A2.16,2.16,0,0,0,371.67,174.63Z"/>
      <path d="M326.29,190.9h-4.46v3.6h3.93v1.25h-3.93v3.6h4.46v1.27H320.4v-11h5.89Z"/>
      <path d="M331.05,200.77a3.63,3.63,0,0,1-2.07-.55,2.31,2.31,0,0,1-1-1.58l1.18-.34a1.7,1.7,0,0,0,.63,1.07,2.07,2.07,0,0,0,1.26.38,2.82,2.82,0,0,0,.74-.1,1.28,1.28,0,0,0,.57-.38,1.09,1.09,0,0,0,.23-.7,1.07,1.07,0,0,0-.07-.32,1.17,1.17,0,0,0-.12-.25.64.64,0,0,0-.22-.21,2.29,2.29,0,0,0-.27-.17,2.08,2.08,0,0,0-.34-.14l-.38-.13-.43-.12-.44-.13c-.32-.1-.59-.19-.8-.28a3.66,3.66,0,0,1-.65-.37,1.49,1.49,0,0,1-.5-.61,2.06,2.06,0,0,1-.17-.86,2,2,0,0,1,.38-1.23,2.12,2.12,0,0,1,1-.72,3.84,3.84,0,0,1,1.36-.22,3.34,3.34,0,0,1,1.87.5,2.14,2.14,0,0,1,.94,1.5l-1.11.28a1.44,1.44,0,0,0-.59-1,1.82,1.82,0,0,0-1.1-.33,1.91,1.91,0,0,0-1,.27.91.91,0,0,0-.43.83.85.85,0,0,0,.11.42,1.65,1.65,0,0,0,.23.3,1.26,1.26,0,0,0,.43.23,3.6,3.6,0,0,0,.45.17l.56.14.12,0,.74.21a5.36,5.36,0,0,1,.66.28,2.43,2.43,0,0,1,.6.42,2,2,0,0,1,.37.59,2,2,0,0,1,.16.83,2.31,2.31,0,0,1-.23,1,1.71,1.71,0,0,1-.63.7,2.74,2.74,0,0,1-.89.39A4.15,4.15,0,0,1,331.05,200.77Z"/>
      <path d="M338.46,200.62a2,2,0,0,1-1.5-.55,2.07,2.07,0,0,1-.55-1.53V194h-1.57v-1.08h.58a1.13,1.13,0,0,0,.85-.27,1.35,1.35,0,0,0,.24-.9v-1.39h1.26v2.56h1.77V194h-1.77v4.38a1.17,1.17,0,0,0,.29.84,1,1,0,0,0,.77.3h.71v1.08Z"/>
      <path d="M343.17,200.77a2.62,2.62,0,0,1-1.68-.53,1.85,1.85,0,0,1-.66-1.57,2.28,2.28,0,0,1,.21-1,1.71,1.71,0,0,1,.62-.69,3.76,3.76,0,0,1,.9-.44,10.14,10.14,0,0,1,1.17-.28l1.24-.2c.46-.08.68-.32.68-.71a1.33,1.33,0,0,0-.48-1.14,1.9,1.9,0,0,0-1.21-.37,2.06,2.06,0,0,0-1.21.35,1.51,1.51,0,0,0-.57,1.08L341,195a2.33,2.33,0,0,1,1-1.64,3.54,3.54,0,0,1,2.09-.55,4.21,4.21,0,0,1,1.11.14,2.82,2.82,0,0,1,.93.43,1.89,1.89,0,0,1,.67.82,3.09,3.09,0,0,1,.24,1.27v3.17a1.3,1.3,0,0,0,.17.8.76.76,0,0,0,.61.21h.12v1h-.67a1.27,1.27,0,0,1-1.45-1h-.07A2.91,2.91,0,0,1,343.17,200.77Zm.31-1.09a2.05,2.05,0,0,0,1.65-.75,3,3,0,0,0,.62-2l-2,.39a2.73,2.73,0,0,0-1.19.43,1,1,0,0,0-.38.84,1,1,0,0,0,.37.84A1.52,1.52,0,0,0,343.48,199.68Z"/>
      <path d="M353.85,192.79a3.36,3.36,0,0,1,2.54,1.11,4.07,4.07,0,0,1,1,2.89,4.12,4.12,0,0,1-1,2.89,3.35,3.35,0,0,1-2.55,1.11,3.06,3.06,0,0,1-1.64-.45,2.86,2.86,0,0,1-1.1-1.21l0,1.49h-1.3v-12h1.34v5.79a2.84,2.84,0,0,1,1.1-1.18A3.07,3.07,0,0,1,353.85,192.79Zm-.3,6.82a2.36,2.36,0,0,0,1.8-.78,2.89,2.89,0,0,0,.73-2,2.94,2.94,0,0,0-.73-2,2.36,2.36,0,0,0-1.8-.78,2.3,2.3,0,0,0-1.78.81,3,3,0,0,0-.73,2,2.9,2.9,0,0,0,.73,2A2.31,2.31,0,0,0,353.55,199.61Z"/>
      <path d="M360.24,191.14a.89.89,0,0,1-.65-.27.92.92,0,0,1-.26-.65.9.9,0,0,1,.26-.64.93.93,0,0,1,1.29,0,.87.87,0,0,1,.27.64.92.92,0,0,1-.91.92Zm-.69,9.48v-7.68h1.36v7.68Z"/>
      <path d="M363.66,200.62v-12H365v12Z"/>
      <path d="M368.47,191.14a.92.92,0,0,1-.92-.92.87.87,0,0,1,.27-.64.92.92,0,0,1,.65-.26.89.89,0,0,1,.63.26.87.87,0,0,1,.27.64.89.89,0,0,1-.27.65A.86.86,0,0,1,368.47,191.14Zm-.69,9.48v-7.68h1.36v7.68Z"/>
      <path d="M377.56,188.62h1.35v12h-1.3l0-1.49a2.86,2.86,0,0,1-1.1,1.21,3,3,0,0,1-1.62.45,3.53,3.53,0,0,1-2.54-1.09,3.72,3.72,0,0,1-.77-1.27,4.59,4.59,0,0,1-.29-1.64,4,4,0,0,1,1.05-2.89,3.35,3.35,0,0,1,2.55-1.11,3.06,3.06,0,0,1,1.6.44,2.88,2.88,0,0,1,1.1,1.17Zm-2.42,11a2.31,2.31,0,0,0,1.78-.8,3.16,3.16,0,0,0,0-4,2.31,2.31,0,0,0-1.78-.81,2.36,2.36,0,0,0-1.8.78,2.94,2.94,0,0,0-.73,2,2.89,2.89,0,0,0,.73,2A2.36,2.36,0,0,0,375.14,199.61Z"/>
      <path d="M383.43,200.77a2.62,2.62,0,0,1-1.68-.53,1.88,1.88,0,0,1-.66-1.57,2.28,2.28,0,0,1,.21-1,1.74,1.74,0,0,1,.63-.69,3.42,3.42,0,0,1,.9-.44,9.22,9.22,0,0,1,1.17-.28l1.24-.2c.45-.08.68-.32.68-.71a1.33,1.33,0,0,0-.48-1.14,1.93,1.93,0,0,0-1.22-.37,2,2,0,0,0-1.2.35,1.51,1.51,0,0,0-.57,1.08l-1.22-.26a2.4,2.4,0,0,1,1-1.64,3.6,3.6,0,0,1,2.1-.55,4.32,4.32,0,0,1,1.11.14,2.92,2.92,0,0,1,.93.43,1.94,1.94,0,0,1,.66.82,3.09,3.09,0,0,1,.24,1.27v3.17a1.29,1.29,0,0,0,.18.8.74.74,0,0,0,.6.21h.13v1h-.67c-.83,0-1.32-.34-1.46-1H386A2.91,2.91,0,0,1,383.43,200.77Zm.32-1.09a2.05,2.05,0,0,0,1.65-.75,3.08,3.08,0,0,0,.62-2l-2,.39a2.68,2.68,0,0,0-1.19.43,1,1,0,0,0-.39.84,1,1,0,0,0,.37.84A1.55,1.55,0,0,0,383.75,199.68Z"/>
      <path d="M395.56,188.62h1.35v12h-1.3l0-1.49a2.86,2.86,0,0,1-1.1,1.21,3,3,0,0,1-1.62.45,3.53,3.53,0,0,1-2.54-1.09,3.72,3.72,0,0,1-.77-1.27,4.59,4.59,0,0,1-.29-1.64,4,4,0,0,1,1.05-2.89,3.35,3.35,0,0,1,2.55-1.11,3.06,3.06,0,0,1,1.6.44,2.88,2.88,0,0,1,1.1,1.17Zm-2.42,11a2.31,2.31,0,0,0,1.78-.8,3.16,3.16,0,0,0,0-4,2.31,2.31,0,0,0-1.78-.81,2.36,2.36,0,0,0-1.8.78,2.94,2.94,0,0,0-.73,2,2.89,2.89,0,0,0,.73,2A2.36,2.36,0,0,0,393.14,199.61Z"/>
      <path d="M323.79,220a5,5,0,0,1-2.87-.78,3.27,3.27,0,0,1-1.43-2.13l1.41-.34a2.28,2.28,0,0,0,1,1.5,3.31,3.31,0,0,0,1.94.55,4.23,4.23,0,0,0,.73-.06,3.63,3.63,0,0,0,.66-.21,2.12,2.12,0,0,0,.54-.36,1.5,1.5,0,0,0,.36-.54,1.7,1.7,0,0,0,.12-.73,1.46,1.46,0,0,0-.09-.52,1.75,1.75,0,0,0-.22-.41,1.34,1.34,0,0,0-.37-.33,3.82,3.82,0,0,0-.45-.27,4.14,4.14,0,0,0-.55-.22l-.58-.18-.63-.18-.12,0-.74-.2-.68-.24a3.67,3.67,0,0,1-.65-.3,4.94,4.94,0,0,1-.54-.38,1.67,1.67,0,0,1-.44-.49,2.36,2.36,0,0,1-.27-.62,2.78,2.78,0,0,1-.1-.78,2.82,2.82,0,0,1,.51-1.69,3.05,3.05,0,0,1,1.32-1,4.76,4.76,0,0,1,1.82-.33,5,5,0,0,1,2.64.68,3,3,0,0,1,1.4,2l-1.36.34a2,2,0,0,0-.91-1.35,3.15,3.15,0,0,0-1.72-.45,3.22,3.22,0,0,0-.84.1,2.27,2.27,0,0,0-.73.31,1.46,1.46,0,0,0-.53.57,1.8,1.8,0,0,0-.2.84,1.38,1.38,0,0,0,.28.84,1.64,1.64,0,0,0,.33.3l.41.25a5,5,0,0,0,.51.2l.55.17.6.16a12.56,12.56,0,0,1,2.12.7,2.67,2.67,0,0,1,1.63,2,3.64,3.64,0,0,1,0,.48,3.06,3.06,0,0,1-.31,1.42,2.61,2.61,0,0,1-.87,1,4.57,4.57,0,0,1-1.23.55A5.83,5.83,0,0,1,323.79,220Z"/>
      <path d="M336.69,215.83v.37h-6a2.69,2.69,0,0,0,.73,2,2.4,2.4,0,0,0,1.75.69,2.33,2.33,0,0,0,1.27-.37,2.37,2.37,0,0,0,.88-1l1.22.26a3.53,3.53,0,0,1-1.31,1.65,3.59,3.59,0,0,1-2,.6,3.73,3.73,0,0,1-2.77-1.07,4,4,0,0,1-1.05-2.92,3.93,3.93,0,0,1,1.06-2.91,3.63,3.63,0,0,1,2.72-1.08,3.46,3.46,0,0,1,2.58,1A3.89,3.89,0,0,1,336.69,215.83Zm-3.55-2.8a2.36,2.36,0,0,0-1.6.55,2.49,2.49,0,0,0-.81,1.58h4.6a2.25,2.25,0,0,0-.67-1.58A2.12,2.12,0,0,0,333.14,213Z"/>
      <path d="M344.37,212.14h1.31v7.29a4.17,4.17,0,0,1-1,3,4.12,4.12,0,0,1-6.47-1.3l1.11-.55a2.55,2.55,0,0,0,2.57,1.78,2.19,2.19,0,0,0,1.8-.75,3.17,3.17,0,0,0,.63-2.1v-1.42a2.73,2.73,0,0,1-1.1,1.11,3.37,3.37,0,0,1-4.08-.67,3.78,3.78,0,0,1-1-2.73,3.74,3.74,0,0,1,1-2.72,3.32,3.32,0,0,1,2.5-1.08,3.14,3.14,0,0,1,1.6.43,2.77,2.77,0,0,1,1.09,1.14Zm-2.44,6.32a2.32,2.32,0,0,0,1.77-.79,2.8,2.8,0,0,0,0-3.76,2.33,2.33,0,0,0-1.78-.79,2.3,2.3,0,0,0-1.76.77,2.63,2.63,0,0,0-.73,1.9,2.7,2.7,0,0,0,.73,1.9A2.37,2.37,0,0,0,341.93,218.46Z"/>
      <path d="M353.22,212.14h1.35v7.68h-1.3l0-1a2.46,2.46,0,0,1-.95.86,3,3,0,0,1-1.35.3,2.67,2.67,0,0,1-1.93-.69,2.61,2.61,0,0,1-.72-2v-5.18h1.35V217a1.83,1.83,0,0,0,.47,1.38,1.69,1.69,0,0,0,1.21.45,1.85,1.85,0,0,0,1.36-.53,2.21,2.21,0,0,0,.54-1.57Z"/>
      <path d="M358.64,213.49a2.34,2.34,0,0,1,.95-1,2.88,2.88,0,0,1,1.48-.4v1.27a2.55,2.55,0,0,0-1.79.57,2.38,2.38,0,0,0-.61,1.82v4.1h-1.35v-7.68h1.32Z"/>
      <path d="M363.34,210.34a.87.87,0,0,1-.64-.27.89.89,0,0,1-.27-.65.87.87,0,0,1,.27-.64.92.92,0,0,1,1.28,0,.87.87,0,0,1,.27.64.89.89,0,0,1-.27.65A.87.87,0,0,1,363.34,210.34Zm-.69,9.48v-7.68H364v7.68Z"/>
      <path d="M372.43,207.82h1.36v12h-1.31l0-1.49a2.83,2.83,0,0,1-1.09,1.21,3.05,3.05,0,0,1-1.63.45,3.46,3.46,0,0,1-1.39-.29,3.27,3.27,0,0,1-1.14-.8,3.64,3.64,0,0,1-.78-1.26,4.69,4.69,0,0,1-.28-1.65,4.07,4.07,0,0,1,1-2.89,3.38,3.38,0,0,1,2.55-1.11,3.09,3.09,0,0,1,1.61.44,2.86,2.86,0,0,1,1.09,1.17Zm-2.42,11a2.3,2.3,0,0,0,1.79-.81,2.94,2.94,0,0,0,.72-2,2.88,2.88,0,0,0-.73-2,2.28,2.28,0,0,0-1.78-.81,2.34,2.34,0,0,0-1.79.78,3.23,3.23,0,0,0,0,4.09A2.35,2.35,0,0,0,370,218.82Z"/>
      <path d="M378.31,220a2.56,2.56,0,0,1-1.68-.53,1.88,1.88,0,0,1-.66-1.57,2.2,2.2,0,0,1,.21-1,1.74,1.74,0,0,1,.62-.7,3.76,3.76,0,0,1,.9-.44,8.52,8.52,0,0,1,1.17-.27l1.24-.21c.46-.08.68-.32.68-.71a1.33,1.33,0,0,0-.48-1.14,1.9,1.9,0,0,0-1.21-.37,1.94,1.94,0,0,0-1.2.36,1.41,1.41,0,0,0-.57,1.07l-1.22-.25a2.33,2.33,0,0,1,1-1.65,3.54,3.54,0,0,1,2.09-.55,4.21,4.21,0,0,1,1.11.14,2.82,2.82,0,0,1,.93.43,1.89,1.89,0,0,1,.67.82,3.09,3.09,0,0,1,.24,1.27v3.17a1.37,1.37,0,0,0,.17.8.76.76,0,0,0,.61.21H383v1h-.67a1.27,1.27,0,0,1-1.45-1h-.06A3,3,0,0,1,378.31,220Zm.31-1.09a2.07,2.07,0,0,0,1.65-.74,3.07,3.07,0,0,0,.63-2l-2,.39a2.86,2.86,0,0,0-1.19.43,1,1,0,0,0-.38.84,1,1,0,0,0,.37.84A1.52,1.52,0,0,0,378.62,218.88Z"/>
      <path d="M390.43,207.82h1.36v12h-1.31l0-1.49a2.83,2.83,0,0,1-1.09,1.21,3.05,3.05,0,0,1-1.63.45,3.46,3.46,0,0,1-1.39-.29,3.27,3.27,0,0,1-1.14-.8,3.64,3.64,0,0,1-.78-1.26,4.69,4.69,0,0,1-.28-1.65,4.07,4.07,0,0,1,1-2.89,3.38,3.38,0,0,1,2.55-1.11,3.09,3.09,0,0,1,1.61.44,2.86,2.86,0,0,1,1.09,1.17Zm-2.42,11a2.3,2.3,0,0,0,1.79-.81,2.94,2.94,0,0,0,.72-2,2.88,2.88,0,0,0-.73-2,2.28,2.28,0,0,0-1.78-.81,2.34,2.34,0,0,0-1.79.78,3.23,3.23,0,0,0,0,4.09A2.35,2.35,0,0,0,388,218.82Z"/>
      <path d="M324.56,228a3.19,3.19,0,0,1,1.72.46,3.09,3.09,0,0,1,1.16,1.22,3.58,3.58,0,0,1,.4,1.7,3.31,3.31,0,0,1-.91,2.39,3.13,3.13,0,0,1-2.37,1h-2.77V239H320.4V228Zm-.2,5.51a2,2,0,0,0,1.53-.59,2.17,2.17,0,0,0,.55-1.56,2.19,2.19,0,0,0-.55-1.55,2,2,0,0,0-1.53-.6h-2.57v4.3Z"/>
      <path d="M331,239.17a2.65,2.65,0,0,1-1.69-.53,1.88,1.88,0,0,1-.66-1.57,2.08,2.08,0,0,1,.22-1,1.67,1.67,0,0,1,.62-.7,3.76,3.76,0,0,1,.9-.44,10.14,10.14,0,0,1,1.17-.28l1.24-.2c.46-.08.68-.32.68-.71a1.33,1.33,0,0,0-.48-1.14,1.9,1.9,0,0,0-1.21-.37,2.06,2.06,0,0,0-1.21.35,1.51,1.51,0,0,0-.57,1.08l-1.21-.26a2.33,2.33,0,0,1,1-1.64,3.54,3.54,0,0,1,2.09-.55,4.21,4.21,0,0,1,1.11.14,2.82,2.82,0,0,1,.93.43,1.89,1.89,0,0,1,.67.82,3.09,3.09,0,0,1,.24,1.27V237a1.3,1.3,0,0,0,.17.8.76.76,0,0,0,.61.21h.12v1h-.67a1.27,1.27,0,0,1-1.45-1h-.07A2.91,2.91,0,0,1,331,239.17Zm.31-1.09a2.05,2.05,0,0,0,1.65-.75,3,3,0,0,0,.62-2l-2,.39a2.73,2.73,0,0,0-1.19.43,1,1,0,0,0-.39.84,1,1,0,0,0,.38.84A1.5,1.5,0,0,0,331.34,238.08Z"/>
      <path d="M338.7,237.93h4.09V239h-6.12l4.05-6.58H336.9v-1.1h5.89Z"/>
    </g>
    <g>
      <path d="M324.82,117.11a3.42,3.42,0,0,1,2.61,1,3.69,3.69,0,0,1,1,2.6,3.55,3.55,0,0,1-1,2.58,3.44,3.44,0,0,1-2.61,1h-2.35v4h-2.34V117.11Zm-.39,5.28a1.68,1.68,0,0,0,1.29-.44,1.65,1.65,0,0,0,.43-1.22,1.68,1.68,0,0,0-.43-1.21,1.71,1.71,0,0,0-1.29-.45h-2v3.32Z"/>
      <path d="M333.55,128.56a5.15,5.15,0,0,1-2.27-.49,3.7,3.7,0,0,1-1.56-1.45,4.26,4.26,0,0,1-.57-2.24,4,4,0,0,1,1.22-3,5.09,5.09,0,0,1,6.37,0,4.44,4.44,0,0,1,0,6.11A4.52,4.52,0,0,1,333.55,128.56Zm0-1.79a2.07,2.07,0,0,0,1.59-.66,2.44,2.44,0,0,0,.6-1.73,2.49,2.49,0,0,0-.6-1.74,2.1,2.1,0,0,0-1.59-.65,2,2,0,0,0-1.55.66,2.83,2.83,0,0,0,0,3.46A2,2,0,0,0,333.53,126.77Z"/>
      <path d="M342.46,128.56a4.57,4.57,0,0,1-2.35-.56,2.4,2.4,0,0,1-1.14-1.68l1.88-.53a1.51,1.51,0,0,0,1.61,1.2,1.58,1.58,0,0,0,.82-.19.63.63,0,0,0,.32-.62.69.69,0,0,0-.13-.41,1.12,1.12,0,0,0-.41-.3l-.55-.21-.72-.21a7.45,7.45,0,0,1-.74-.23,4.33,4.33,0,0,1-.71-.3,2.68,2.68,0,0,1-.58-.41,1.67,1.67,0,0,1-.44-.63,2.31,2.31,0,0,1-.15-.86,2.06,2.06,0,0,1,.87-1.8,3.94,3.94,0,0,1,2.28-.61,4,4,0,0,1,2.1.52,2.32,2.32,0,0,1,1.08,1.61l-1.75.39a1.36,1.36,0,0,0-1.43-1,1.63,1.63,0,0,0-.78.18.59.59,0,0,0-.32.54.64.64,0,0,0,0,.24.48.48,0,0,0,.16.19l.23.15a1.48,1.48,0,0,0,.32.13,2.89,2.89,0,0,0,.35.1l.41.11.42.11a6.19,6.19,0,0,1,.75.23,4.81,4.81,0,0,1,.7.33,2.66,2.66,0,0,1,.6.47,2.29,2.29,0,0,1,.4.67,2.48,2.48,0,0,1,.15.89,2.39,2.39,0,0,1-.27,1.16,2,2,0,0,1-.74.79,3.55,3.55,0,0,1-1,.42A5.44,5.44,0,0,1,342.46,128.56Z"/>
      <path d="M348.53,119.17a1.26,1.26,0,0,1-.92-.38,1.27,1.27,0,0,1,0-1.83,1.28,1.28,0,0,1,.92-.38,1.3,1.3,0,0,1,0,2.59Zm-1.15,9.23v-8h2.27v8Z"/>
      <path d="M355,128.4a2.41,2.41,0,0,1-1.82-.65,2.56,2.56,0,0,1-.64-1.86V122.1h-1.58v-1.73h.51a1.29,1.29,0,0,0,1-.34,1.68,1.68,0,0,0,.32-1.19v-1.06h2v2.59h1.66v1.73h-1.66v3.55c0,.7.31,1,.93,1h.73v1.71Z"/>
      <path d="M359.34,119.17a1.26,1.26,0,0,1-.92-.38,1.29,1.29,0,0,1,0-1.83,1.29,1.29,0,0,1,.92-.38,1.27,1.27,0,0,1,.91.38,1.29,1.29,0,0,1,0,1.83A1.27,1.27,0,0,1,359.34,119.17Zm-1.15,9.23v-8h2.27v8Z"/>
      <path d="M368,120.37h2.39l-3.43,8h-2l-3.38-8H364l2,5.49Z"/>
      <path d="M375,128.56a5.17,5.17,0,0,1-2.28-.49,3.7,3.7,0,0,1-1.56-1.45,4.35,4.35,0,0,1-.56-2.24,3.91,3.91,0,0,1,1.22-3,5.07,5.07,0,0,1,6.36,0,4.44,4.44,0,0,1,0,6.11A4.49,4.49,0,0,1,375,128.56Zm0-1.79a2,2,0,0,0,1.59-.66,2.41,2.41,0,0,0,.61-1.73,2.45,2.45,0,0,0-.61-1.74A2.07,2.07,0,0,0,375,122a2,2,0,0,0-1.54.66,2.79,2.79,0,0,0,0,3.46A2,2,0,0,0,375,126.77Z"/>
    </g>
    <g>
      <path d="M440.64,162.22l-.94-2.63h-5l-.94,2.63h-1.46l4.06-11h1.67l4.05,11Zm-5.47-3.86h4.09l-2.05-5.73Z"/>
      <path d="M448,154.39a3.36,3.36,0,0,1,2.54,1.11,4.54,4.54,0,0,1,0,5.78,3.31,3.31,0,0,1-2.54,1.11,3.06,3.06,0,0,1-1.64-.45,2.86,2.86,0,0,1-1.1-1.21l0,1.49H444v-12h1.34V156a2.84,2.84,0,0,1,1.1-1.18A3.07,3.07,0,0,1,448,154.39Zm-.3,6.82a2.38,2.38,0,0,0,1.8-.78,2.89,2.89,0,0,0,.72-2,2.93,2.93,0,0,0-.72-2,2.38,2.38,0,0,0-1.8-.78,2.3,2.3,0,0,0-1.78.81,3.16,3.16,0,0,0,0,4A2.31,2.31,0,0,0,447.72,161.21Z"/>
      <path d="M458.5,154.54h1.35v7.68h-1.29l0-1a2.42,2.42,0,0,1-1,.86,2.91,2.91,0,0,1-1.34.3,2.67,2.67,0,0,1-1.93-.69,2.59,2.59,0,0,1-.73-2v-5.17h1.35v4.87a1.8,1.8,0,0,0,.48,1.37,1.62,1.62,0,0,0,1.2.46,1.86,1.86,0,0,0,1.37-.53,2.16,2.16,0,0,0,.53-1.57Z"/>
      <path d="M463.92,155.89a2.37,2.37,0,0,1,1-1,2.84,2.84,0,0,1,1.47-.4v1.27a2.52,2.52,0,0,0-1.78.57,2.38,2.38,0,0,0-.61,1.82v4.1H462.6v-7.68h1.32Z"/>
      <path d="M469.26,155.89a2.34,2.34,0,0,1,.95-1,2.91,2.91,0,0,1,1.48-.4v1.27a2.55,2.55,0,0,0-1.79.57,2.42,2.42,0,0,0-.61,1.82v4.1h-1.35v-7.68h1.32Z"/>
      <path d="M474,152.74a.87.87,0,0,1-.64-.27.89.89,0,0,1-.27-.65.87.87,0,0,1,.27-.64.92.92,0,0,1,1.28,0,.87.87,0,0,1,.27.64.89.89,0,0,1-.27.65A.87.87,0,0,1,474,152.74Zm-.68,9.48v-7.68h1.36v7.68Z"/>
      <path d="M485.24,154.39a2.47,2.47,0,0,1,1.79.66,2.41,2.41,0,0,1,.68,1.83v5.34h-1.36v-5a1.75,1.75,0,0,0-.42-1.27,1.46,1.46,0,0,0-1.07-.43,1.54,1.54,0,0,0-1.17.49,2.06,2.06,0,0,0-.45,1.45v4.75h-1.37v-4.94a1.77,1.77,0,0,0-.43-1.3,1.42,1.42,0,0,0-1.09-.45,1.49,1.49,0,0,0-1.16.5,2.16,2.16,0,0,0-.45,1.49v4.7h-1.35v-7.68h1.35v1a2.29,2.29,0,0,1,.88-.84,2.48,2.48,0,0,1,1.22-.3,2.58,2.58,0,0,1,1.31.33,2,2,0,0,1,.85.93,2.42,2.42,0,0,1,.92-.93A2.64,2.64,0,0,1,485.24,154.39Z"/>
      <path d="M491,152.74a.87.87,0,0,1-.64-.27.89.89,0,0,1-.27-.65.87.87,0,0,1,.27-.64.9.9,0,0,1,.64-.26.92.92,0,0,1,.64.26.87.87,0,0,1,.27.64.92.92,0,0,1-.91.92Zm-.69,9.48v-7.68h1.36v7.68Z"/>
      <path d="M501.15,158.23v.37h-6a2.69,2.69,0,0,0,.73,2,2.4,2.4,0,0,0,1.75.69,2.33,2.33,0,0,0,1.27-.37,2.44,2.44,0,0,0,.88-1l1.22.26a3.48,3.48,0,0,1-1.32,1.65,3.54,3.54,0,0,1-2,.6,3.71,3.71,0,0,1-2.77-1.07,4.55,4.55,0,0,1,0-5.84,3.7,3.7,0,0,1,2.73-1.07,3.46,3.46,0,0,1,2.58,1A3.88,3.88,0,0,1,501.15,158.23Zm-3.55-2.8a2.36,2.36,0,0,0-1.6.55,2.49,2.49,0,0,0-.81,1.58h4.6a2.25,2.25,0,0,0-.67-1.58A2.14,2.14,0,0,0,497.6,155.43Z"/>
      <path d="M506.89,154.39a2.71,2.71,0,0,1,1.94.7,2.6,2.6,0,0,1,.72,2v5.17H508.2v-4.86a1.84,1.84,0,0,0-.47-1.38,1.65,1.65,0,0,0-1.2-.45,1.86,1.86,0,0,0-1.37.53,2.11,2.11,0,0,0-.54,1.57v4.59h-1.35v-7.68h1.35v1A2.56,2.56,0,0,1,506.89,154.39Z"/>
      <path d="M514.61,162.22a2,2,0,0,1-1.5-.55,2.11,2.11,0,0,1-.55-1.53v-4.52H511v-1.08h.58a1.11,1.11,0,0,0,.85-.27,1.34,1.34,0,0,0,.25-.9V152h1.25v2.56h1.77v1.08h-1.77V160a1.14,1.14,0,0,0,.3.84,1,1,0,0,0,.77.3h.7v1.08Z"/>
      <path d="M520.78,162.37a4,4,0,0,1-2-.48,3.42,3.42,0,0,1-1.38-1.39,4.29,4.29,0,0,1-.51-2.12,3.92,3.92,0,0,1,1.09-2.9,4.08,4.08,0,0,1,5.55,0,4.4,4.4,0,0,1,0,5.8A3.75,3.75,0,0,1,520.78,162.37Zm0-1.12a2.38,2.38,0,0,0,1.81-.79,3,3,0,0,0,.72-2.08,2.93,2.93,0,0,0-.72-2.07,2.34,2.34,0,0,0-1.81-.79,2.29,2.29,0,0,0-1.8.79,2.93,2.93,0,0,0-.72,2.07,3,3,0,0,0,.72,2.08A2.33,2.33,0,0,0,520.78,161.25Z"/>
      <path d="M439.48,171.7H435v3.6H439v1.26H435v3.59h4.47v1.27h-5.9v-11h5.9Z"/>
      <path d="M444.24,181.57a3.63,3.63,0,0,1-2.07-.55,2.28,2.28,0,0,1-1-1.58l1.18-.34a1.62,1.62,0,0,0,.63,1.07,2,2,0,0,0,1.26.38,2.82,2.82,0,0,0,.74-.1,1.2,1.2,0,0,0,.56-.38,1,1,0,0,0,.23-.7,1.52,1.52,0,0,0-.06-.32,1.17,1.17,0,0,0-.13-.25.56.56,0,0,0-.22-.21,2.26,2.26,0,0,0-.26-.17l-.35-.14-.37-.13-.43-.12-.45-.13c-.32-.1-.58-.19-.79-.28a3.34,3.34,0,0,1-.65-.37,1.49,1.49,0,0,1-.5-.61,1.91,1.91,0,0,1-.17-.86,2,2,0,0,1,.37-1.22,2.1,2.1,0,0,1,1-.73,3.8,3.8,0,0,1,1.36-.22,3.36,3.36,0,0,1,1.87.5,2.1,2.1,0,0,1,.93,1.5l-1.11.28a1.46,1.46,0,0,0-.58-1,1.86,1.86,0,0,0-1.1-.33,1.92,1.92,0,0,0-1,.27.92.92,0,0,0-.42.83.76.76,0,0,0,.11.42,1.07,1.07,0,0,0,.23.3,1.5,1.5,0,0,0,.42.24l.45.16.57.14.11,0c.31.07.55.14.74.2a6.15,6.15,0,0,1,.67.28,2.18,2.18,0,0,1,.59.42,1.93,1.93,0,0,1,.38.6,2.14,2.14,0,0,1,.15.82,2.18,2.18,0,0,1-.23,1,1.86,1.86,0,0,1-.62.71,3,3,0,0,1-.9.38A4.08,4.08,0,0,1,444.24,181.57Z"/>
      <path d="M451.64,181.42a2,2,0,0,1-1.5-.55,2.1,2.1,0,0,1-.54-1.53v-4.52H448v-1.08h.57a1.11,1.11,0,0,0,.85-.27,1.29,1.29,0,0,0,.25-.9v-1.39H451v2.56h1.76v1.08H451v4.38a1.13,1.13,0,0,0,.29.84,1,1,0,0,0,.77.3h.7v1.08Z"/>
      <path d="M456.35,181.57a2.56,2.56,0,0,1-1.68-.53,1.88,1.88,0,0,1-.66-1.57,2.2,2.2,0,0,1,.21-1,1.7,1.7,0,0,1,.63-.7,3.42,3.42,0,0,1,.9-.44,7.88,7.88,0,0,1,1.17-.27l1.24-.21c.45-.08.68-.32.68-.71a1.33,1.33,0,0,0-.48-1.14,2.19,2.19,0,0,0-2.42,0,1.47,1.47,0,0,0-.57,1.07l-1.22-.25a2.4,2.4,0,0,1,1-1.65,3.6,3.6,0,0,1,2.1-.55,4.32,4.32,0,0,1,1.11.14,3,3,0,0,1,.93.43,1.94,1.94,0,0,1,.66.82,3.09,3.09,0,0,1,.24,1.27v3.17a1.29,1.29,0,0,0,.18.8.74.74,0,0,0,.6.21h.13v1h-.67c-.83,0-1.32-.34-1.46-1h-.06A2.91,2.91,0,0,1,456.35,181.57Zm.32-1.09a2,2,0,0,0,1.64-.74,3.07,3.07,0,0,0,.63-2l-2,.39a2.68,2.68,0,0,0-1.19.43,1,1,0,0,0-.39.84,1,1,0,0,0,.37.84A1.55,1.55,0,0,0,456.67,180.48Z"/>
      <path d="M466.59,173.59a2.67,2.67,0,0,1,1.93.7,2.6,2.6,0,0,1,.72,2v5.17h-1.35v-4.86a1.8,1.8,0,0,0-.47-1.38,1.65,1.65,0,0,0-1.2-.44,1.87,1.87,0,0,0-1.37.52,2.19,2.19,0,0,0-.54,1.57v4.59H463v-7.68h1.35v1A2.58,2.58,0,0,1,466.59,173.59Z"/>
      <path d="M475,181.56a3.68,3.68,0,0,1-2.75-1.1,4.38,4.38,0,0,1,0-5.76,4,4,0,0,1,5-.43,3.4,3.4,0,0,1,1.3,1.86l-1.27.21a2.3,2.3,0,0,0-.87-1.2,2.36,2.36,0,0,0-1.39-.42,2.23,2.23,0,0,0-1.77.79,3,3,0,0,0-.7,2.07,3,3,0,0,0,.7,2.07,2.26,2.26,0,0,0,1.77.78,2.36,2.36,0,0,0,1.39-.42,2.3,2.3,0,0,0,.87-1.2l1.27.21a3.42,3.42,0,0,1-1.3,1.87A3.74,3.74,0,0,1,475,181.56Z"/>
      <path d="M482.32,181.57a2.56,2.56,0,0,1-1.68-.53,1.88,1.88,0,0,1-.66-1.57,2.2,2.2,0,0,1,.21-1,1.74,1.74,0,0,1,.62-.7,3.65,3.65,0,0,1,.91-.44,7.88,7.88,0,0,1,1.17-.27l1.24-.21c.45-.08.68-.32.68-.71a1.33,1.33,0,0,0-.48-1.14,2.19,2.19,0,0,0-2.42,0,1.47,1.47,0,0,0-.57,1.07l-1.22-.25a2.33,2.33,0,0,1,1-1.65,3.56,3.56,0,0,1,2.09-.55,4.35,4.35,0,0,1,1.12.14,3,3,0,0,1,.93.43,1.94,1.94,0,0,1,.66.82,3.09,3.09,0,0,1,.24,1.27v3.17a1.29,1.29,0,0,0,.18.8.73.73,0,0,0,.6.21H487v1h-.68a1.28,1.28,0,0,1-1.45-1h-.06A2.92,2.92,0,0,1,482.32,181.57Zm.32-1.09a2,2,0,0,0,1.64-.74,3.07,3.07,0,0,0,.63-2l-2,.39a2.63,2.63,0,0,0-1.19.43,1,1,0,0,0-.39.84,1,1,0,0,0,.37.84A1.55,1.55,0,0,0,482.64,180.48Z"/>
      <path d="M496.78,173.59a2.46,2.46,0,0,1,1.79.66,2.38,2.38,0,0,1,.68,1.83v5.34H497.9v-5a1.75,1.75,0,0,0-.42-1.27,1.45,1.45,0,0,0-1.07-.42,1.5,1.5,0,0,0-1.17.48,2.06,2.06,0,0,0-.45,1.45v4.75h-1.37v-4.93a1.83,1.83,0,0,0-.43-1.31,1.43,1.43,0,0,0-1.09-.44,1.5,1.5,0,0,0-1.17.49,2.16,2.16,0,0,0-.45,1.49v4.7h-1.35v-7.68h1.35v1a2.39,2.39,0,0,1,.88-.85,2.49,2.49,0,0,1,1.23-.3,2.58,2.58,0,0,1,1.31.33,2,2,0,0,1,.85.93,2.42,2.42,0,0,1,.92-.93A2.6,2.6,0,0,1,496.78,173.59Z"/>
      <path d="M502.56,171.94a.92.92,0,0,1-.92-.92.87.87,0,0,1,.27-.64.92.92,0,0,1,.65-.26.89.89,0,0,1,.63.26.87.87,0,0,1,.27.64.89.89,0,0,1-.27.65A.86.86,0,0,1,502.56,171.94Zm-.69,9.48v-7.68h1.36v7.68Z"/>
      <path d="M512.7,177.43l0,.37h-6a2.69,2.69,0,0,0,.74,2,2.4,2.4,0,0,0,1.75.69,2.32,2.32,0,0,0,2.14-1.39l1.22.26a3.41,3.41,0,0,1-1.31,1.65,3.59,3.59,0,0,1-2,.6,3.71,3.71,0,0,1-2.76-1.07,4.55,4.55,0,0,1,0-5.84,3.68,3.68,0,0,1,2.72-1.07,3.47,3.47,0,0,1,2.59,1A3.93,3.93,0,0,1,512.7,177.43Zm-3.56-2.8a2.35,2.35,0,0,0-1.59.55,2.49,2.49,0,0,0-.81,1.58h4.6a2.29,2.29,0,0,0-.67-1.58A2.16,2.16,0,0,0,509.14,174.63Z"/>
      <path d="M518.44,173.59a2.67,2.67,0,0,1,1.93.7,2.6,2.6,0,0,1,.73,2v5.17h-1.36v-4.86a1.84,1.84,0,0,0-.46-1.38,1.69,1.69,0,0,0-1.21-.44,1.85,1.85,0,0,0-1.36.52,2.11,2.11,0,0,0-.54,1.57v4.59h-1.36v-7.68h1.36v1A2.55,2.55,0,0,1,518.44,173.59Z"/>
      <path d="M526.16,181.42a2,2,0,0,1-1.5-.55,2.07,2.07,0,0,1-.55-1.53v-4.52h-1.57v-1.08h.58a1.13,1.13,0,0,0,.85-.27,1.35,1.35,0,0,0,.24-.9v-1.39h1.26v2.56h1.77v1.08h-1.77v4.38a1.17,1.17,0,0,0,.29.84,1,1,0,0,0,.77.3h.71v1.08Z"/>
      <path d="M532.33,181.57a4,4,0,0,1-2-.48A3.42,3.42,0,0,1,529,179.7a4.19,4.19,0,0,1-.52-2.12,4,4,0,0,1,1.09-2.9,4.09,4.09,0,0,1,5.56,0,4.4,4.4,0,0,1,0,5.8A3.75,3.75,0,0,1,532.33,181.57Zm0-1.12a2.38,2.38,0,0,0,1.82-.79,3,3,0,0,0,.72-2.08,2.93,2.93,0,0,0-.72-2.07,2.35,2.35,0,0,0-1.82-.79,2.32,2.32,0,0,0-1.8.79,3,3,0,0,0-.71,2.07,3,3,0,0,0,.71,2.08A2.36,2.36,0,0,0,532.32,180.45Z"/>
      <path d="M433.58,200.62v-11H435v11Z"/>
      <path d="M441.71,192.79a2.69,2.69,0,0,1,1.93.7,2.6,2.6,0,0,1,.72,2v5.17H443v-4.87a1.83,1.83,0,0,0-.47-1.37,1.65,1.65,0,0,0-1.2-.45,1.88,1.88,0,0,0-1.37.53,2.19,2.19,0,0,0-.54,1.57v4.59h-1.35v-7.68h1.35v1A2.56,2.56,0,0,1,441.71,192.79Z"/>
      <path d="M449.4,200.77a3.63,3.63,0,0,1-2.07-.55,2.31,2.31,0,0,1-1-1.58l1.18-.34a1.7,1.7,0,0,0,.63,1.07,2.07,2.07,0,0,0,1.26.38,2.82,2.82,0,0,0,.74-.1,1.28,1.28,0,0,0,.57-.38,1,1,0,0,0,.22-.7.83.83,0,0,0-.06-.32,1.17,1.17,0,0,0-.12-.25.64.64,0,0,0-.22-.21,2.29,2.29,0,0,0-.27-.17,2.27,2.27,0,0,0-.35-.14l-.37-.13-.43-.12-.44-.13c-.32-.1-.59-.19-.8-.28a3.66,3.66,0,0,1-.65-.37,1.49,1.49,0,0,1-.5-.61,2.06,2.06,0,0,1-.17-.86,2,2,0,0,1,.38-1.23,2.12,2.12,0,0,1,1-.72,3.84,3.84,0,0,1,1.36-.22,3.34,3.34,0,0,1,1.87.5,2.14,2.14,0,0,1,.94,1.5l-1.11.28a1.47,1.47,0,0,0-.59-1,1.84,1.84,0,0,0-1.1-.33,1.91,1.91,0,0,0-1,.27.91.91,0,0,0-.43.83.85.85,0,0,0,.11.42,1,1,0,0,0,.65.53,4.26,4.26,0,0,0,.46.17l.56.14.12,0,.74.21a5.36,5.36,0,0,1,.66.28,2.43,2.43,0,0,1,.6.42,2,2,0,0,1,.37.59,2,2,0,0,1,.16.83,2.31,2.31,0,0,1-.23,1,1.78,1.78,0,0,1-.63.7,2.74,2.74,0,0,1-.89.39A4.15,4.15,0,0,1,449.4,200.77Z"/>
      <path d="M455,191.14a.87.87,0,0,1-.64-.27.89.89,0,0,1-.27-.65.87.87,0,0,1,.27-.64.92.92,0,0,1,1.28,0,.87.87,0,0,1,.27.64.89.89,0,0,1-.27.65A.87.87,0,0,1,455,191.14Zm-.69,9.48v-7.68h1.36v7.68Z"/>
      <path d="M462.52,192.79a3.63,3.63,0,0,1,1.39.28,3.53,3.53,0,0,1,1.14.79,3.72,3.72,0,0,1,.77,1.27,4.7,4.7,0,0,1,.28,1.66,4,4,0,0,1-1,2.89,3.35,3.35,0,0,1-2.55,1.11,3.06,3.06,0,0,1-1.61-.44,2.9,2.9,0,0,1-1.1-1.18v5.32h-1.35V192.94h1.31l0,1.49a2.78,2.78,0,0,1,1.09-1.19A3.05,3.05,0,0,1,462.52,192.79Zm-.27,6.82a2.31,2.31,0,0,0,1.78-.77,3.28,3.28,0,0,0,0-4.1,2.31,2.31,0,0,0-1.78-.77,2.36,2.36,0,0,0-1.8.8,3.13,3.13,0,0,0,0,4A2.36,2.36,0,0,0,462.25,199.61Z"/>
      <path d="M468.92,191.14a.87.87,0,0,1-.64-.27.89.89,0,0,1-.27-.65.87.87,0,0,1,.27-.64.92.92,0,0,1,1.28,0,.87.87,0,0,1,.27.64.89.89,0,0,1-.27.65A.87.87,0,0,1,468.92,191.14Zm-.68,9.48v-7.68h1.36v7.68Z"/>
      <path d="M478,188.62h1.35v12h-1.31l0-1.49a2.83,2.83,0,0,1-1.09,1.21,3,3,0,0,1-1.63.45,3.5,3.5,0,0,1-1.39-.29,3.37,3.37,0,0,1-1.14-.8,3.57,3.57,0,0,1-.77-1.27,4.59,4.59,0,0,1-.29-1.64,4.07,4.07,0,0,1,1-2.89,3.38,3.38,0,0,1,2.55-1.11,3.06,3.06,0,0,1,1.61.44,2.88,2.88,0,0,1,1.1,1.17Zm-2.42,11a2.32,2.32,0,0,0,1.78-.8,3.19,3.19,0,0,0,0-4,2.31,2.31,0,0,0-1.78-.81,2.35,2.35,0,0,0-1.8.78,3.23,3.23,0,0,0,0,4.09A2.35,2.35,0,0,0,475.6,199.61Z"/>
      <path d="M488.84,196.63l0,.37h-6a2.69,2.69,0,0,0,.74,2,2.4,2.4,0,0,0,1.75.69,2.33,2.33,0,0,0,1.27-.37,2.5,2.5,0,0,0,.88-1l1.21.26a3.41,3.41,0,0,1-1.31,1.65,3.59,3.59,0,0,1-2,.6,3.71,3.71,0,0,1-2.76-1.07,4.55,4.55,0,0,1,0-5.84,3.68,3.68,0,0,1,2.72-1.07,3.47,3.47,0,0,1,2.59,1A3.92,3.92,0,0,1,488.84,196.63Zm-3.56-2.8a2.35,2.35,0,0,0-1.59.55,2.49,2.49,0,0,0-.81,1.58h4.6a2.29,2.29,0,0,0-.67-1.58A2.16,2.16,0,0,0,485.28,193.83Z"/>
      <path d="M491.79,199.53h4.1v1.09h-6.13l4.05-6.58H490v-1.1h5.89Z"/>
      <path d="M439.48,210.1H435v3.6H439V215H435v3.6h4.47v1.27h-5.9v-11h5.9Z"/>
      <path d="M445.43,212a2.71,2.71,0,0,1,1.94.7,2.6,2.6,0,0,1,.72,2v5.17h-1.35V215a1.83,1.83,0,0,0-.47-1.37,1.68,1.68,0,0,0-1.21-.45,1.85,1.85,0,0,0-1.36.53,2.11,2.11,0,0,0-.54,1.57v4.59h-1.35v-7.68h1.35v1A2.56,2.56,0,0,1,445.43,212Z"/>
      <path d="M457.42,215.83l0,.37h-6a2.69,2.69,0,0,0,.74,2,2.38,2.38,0,0,0,1.75.69,2.32,2.32,0,0,0,2.14-1.39l1.22.26a3.41,3.41,0,0,1-1.31,1.65,3.59,3.59,0,0,1-2,.6,3.71,3.71,0,0,1-2.76-1.07,4.55,4.55,0,0,1,0-5.84,3.66,3.66,0,0,1,2.72-1.07,3.44,3.44,0,0,1,2.58,1A3.88,3.88,0,0,1,457.42,215.83Zm-3.56-2.8a2.38,2.38,0,0,0-1.6.55,2.43,2.43,0,0,0-.8,1.58h4.6a2.34,2.34,0,0,0-.67-1.58A2.16,2.16,0,0,0,453.86,213Z"/>
      <path d="M460.85,213.49a2.37,2.37,0,0,1,1-1,2.84,2.84,0,0,1,1.47-.4v1.27a2.52,2.52,0,0,0-1.78.57,2.38,2.38,0,0,0-.61,1.82v4.1h-1.36v-7.68h1.32Z"/>
      <path d="M469.81,212.14h1.45l-3.12,7.68H467l-3.11-7.68h1.43l2.25,6.11Z"/>
      <path d="M474.33,220a2.62,2.62,0,0,1-1.68-.53,1.88,1.88,0,0,1-.66-1.57,2.28,2.28,0,0,1,.21-1,1.78,1.78,0,0,1,.62-.69,3.65,3.65,0,0,1,.91-.44,9.46,9.46,0,0,1,1.16-.28l1.25-.2c.45-.08.67-.32.67-.71a1.33,1.33,0,0,0-.48-1.14,1.9,1.9,0,0,0-1.21-.37,2,2,0,0,0-1.2.35,1.45,1.45,0,0,0-.57,1.08l-1.22-.26a2.33,2.33,0,0,1,1-1.64,3.54,3.54,0,0,1,2.09-.55,4.35,4.35,0,0,1,1.12.14,3,3,0,0,1,.93.43,1.94,1.94,0,0,1,.66.82,3.09,3.09,0,0,1,.24,1.27v3.17a1.37,1.37,0,0,0,.17.8.76.76,0,0,0,.61.21H479v1h-.67a1.27,1.27,0,0,1-1.45-1h-.06A3,3,0,0,1,474.33,220Zm.31-1.09a2,2,0,0,0,1.65-.75,3,3,0,0,0,.63-2l-2,.39a2.73,2.73,0,0,0-1.2.43,1,1,0,0,0-.38.84,1,1,0,0,0,.37.84A1.54,1.54,0,0,0,474.64,218.88Z"/>
      <path d="M484,220a3.67,3.67,0,0,1-2.75-1.1,4.38,4.38,0,0,1,0-5.76,4,4,0,0,1,5-.43,3.4,3.4,0,0,1,1.3,1.86l-1.27.21a2.3,2.3,0,0,0-2.26-1.62,2.23,2.23,0,0,0-1.77.79,3.4,3.4,0,0,0,0,4.13,2.23,2.23,0,0,0,1.77.79,2.3,2.3,0,0,0,2.26-1.62l1.27.21a3.42,3.42,0,0,1-1.3,1.87A3.76,3.76,0,0,1,484,220Z"/>
      <path d="M490.17,210.34a.92.92,0,0,1-.92-.92.87.87,0,0,1,.27-.64.92.92,0,0,1,.65-.26.89.89,0,0,1,.63.26.87.87,0,0,1,.27.64.89.89,0,0,1-.27.65A.86.86,0,0,1,490.17,210.34Zm-.69,9.48v-7.68h1.36v7.68Z"/>
      <path d="M496.82,220a4,4,0,0,1-2-.48,3.42,3.42,0,0,1-1.38-1.39A4.29,4.29,0,0,1,493,216a3.92,3.92,0,0,1,1.09-2.9,4.08,4.08,0,0,1,5.55,0,4.4,4.4,0,0,1,0,5.8A3.75,3.75,0,0,1,496.82,220Zm0-1.12a2.38,2.38,0,0,0,1.82-.79,3,3,0,0,0,.72-2.08,2.93,2.93,0,0,0-.72-2.07,2.35,2.35,0,0,0-1.82-.79,2.32,2.32,0,0,0-1.8.79,3,3,0,0,0-.71,2.07,3,3,0,0,0,.71,2.08A2.36,2.36,0,0,0,496.81,218.85Zm-.5-8,2-2.54.72.52-1.75,2Z"/>
      <path d="M506.43,212a2.71,2.71,0,0,1,1.94.7,2.6,2.6,0,0,1,.72,2v5.17h-1.35V215a1.83,1.83,0,0,0-.47-1.37,1.68,1.68,0,0,0-1.21-.45,1.85,1.85,0,0,0-1.36.53,2.11,2.11,0,0,0-.54,1.57v4.59h-1.35v-7.68h1.35v1A2.56,2.56,0,0,1,506.43,212Z"/>
      <path d="M439.48,229.3H435v3.6H439v1.25H435v3.6h4.47V239h-5.9V228h5.9Z"/>
      <path d="M445.43,231.19a2.71,2.71,0,0,1,1.94.7,2.6,2.6,0,0,1,.72,2V239h-1.35v-4.87a1.82,1.82,0,0,0-.47-1.37,1.68,1.68,0,0,0-1.21-.45,1.85,1.85,0,0,0-1.36.53,2.11,2.11,0,0,0-.54,1.57V239h-1.35v-7.68h1.35v1A2.56,2.56,0,0,1,445.43,231.19Z"/>
      <path d="M454.22,228.15h-.29l-.28,0a1.31,1.31,0,0,0-.28,0l-.25.08a.56.56,0,0,0-.23.13l-.18.2a.84.84,0,0,0-.15.28,2.78,2.78,0,0,0-.08.38,2.33,2.33,0,0,0,0,.48v1.58h1.78v1.08h-1.78V239H451.1v-6.6h-1.49v-1.08h1.49v-1.61a4,4,0,0,1,.08-.89,2.86,2.86,0,0,1,.22-.68,1.72,1.72,0,0,1,.36-.49,2.86,2.86,0,0,1,.47-.33,2.32,2.32,0,0,1,.58-.19,5.43,5.43,0,0,1,.67-.1c.21,0,.46,0,.74,0Z"/>
      <path d="M462.41,235l0,.37h-6a2.69,2.69,0,0,0,.74,2,2.4,2.4,0,0,0,1.75.69,2.33,2.33,0,0,0,1.27-.37,2.44,2.44,0,0,0,.88-1l1.21.26a3.41,3.41,0,0,1-1.31,1.65,3.59,3.59,0,0,1-2,.6,3.71,3.71,0,0,1-2.76-1.07,4,4,0,0,1-1.06-2.92,4,4,0,0,1,1.06-2.92,3.68,3.68,0,0,1,2.72-1.07,3.47,3.47,0,0,1,2.59,1A3.9,3.9,0,0,1,462.41,235Zm-3.56-2.8a2.35,2.35,0,0,0-1.59.55,2.49,2.49,0,0,0-.81,1.58h4.6a2.29,2.29,0,0,0-.67-1.58A2.16,2.16,0,0,0,458.85,232.23Z"/>
      <path d="M465.85,232.69a2.34,2.34,0,0,1,.95-1,2.85,2.85,0,0,1,1.48-.4v1.27a2.53,2.53,0,0,0-1.79.57,2.38,2.38,0,0,0-.61,1.82V239h-1.35v-7.68h1.32Z"/>
      <path d="M477.71,231.19a2.46,2.46,0,0,1,1.79.66,2.38,2.38,0,0,1,.68,1.83V239h-1.35v-5a1.75,1.75,0,0,0-.42-1.27,1.46,1.46,0,0,0-1.07-.43,1.51,1.51,0,0,0-1.17.49,2.06,2.06,0,0,0-.45,1.45V239h-1.37v-4.94a1.82,1.82,0,0,0-.43-1.3,1.43,1.43,0,0,0-1.09-.45,1.51,1.51,0,0,0-1.17.5,2.16,2.16,0,0,0-.45,1.49V239h-1.35v-7.68h1.35v1a2.44,2.44,0,0,1,.88-.84,2.48,2.48,0,0,1,1.22-.3,2.59,2.59,0,0,1,1.32.33,2,2,0,0,1,.85.93,2.42,2.42,0,0,1,.92-.93A2.6,2.6,0,0,1,477.71,231.19Z"/>
      <path d="M489.52,235l0,.37h-6a2.69,2.69,0,0,0,.74,2,2.4,2.4,0,0,0,1.75.69,2.33,2.33,0,0,0,1.27-.37,2.44,2.44,0,0,0,.88-1l1.21.26a3.41,3.41,0,0,1-1.31,1.65,3.59,3.59,0,0,1-2,.6,3.71,3.71,0,0,1-2.76-1.07,4.55,4.55,0,0,1,0-5.84,3.68,3.68,0,0,1,2.72-1.07,3.47,3.47,0,0,1,2.59,1A3.9,3.9,0,0,1,489.52,235Zm-3.56-2.8a2.35,2.35,0,0,0-1.59.55,2.49,2.49,0,0,0-.81,1.58h4.6a2.29,2.29,0,0,0-.67-1.58A2.16,2.16,0,0,0,486,232.23Z"/>
      <path d="M497.31,227h1.35v12h-1.31l0-1.49a2.83,2.83,0,0,1-1.09,1.21,3.05,3.05,0,0,1-1.63.45,3.46,3.46,0,0,1-1.39-.29,3.51,3.51,0,0,1-1.14-.8,3.57,3.57,0,0,1-.77-1.27,4.39,4.39,0,0,1-.29-1.64,4.07,4.07,0,0,1,1-2.89,3.38,3.38,0,0,1,2.55-1.11,3.06,3.06,0,0,1,1.61.44,2.88,2.88,0,0,1,1.1,1.17Zm-2.42,11a2.32,2.32,0,0,0,1.78-.8,3.19,3.19,0,0,0,0-4,2.31,2.31,0,0,0-1.78-.81,2.35,2.35,0,0,0-1.8.78,2.89,2.89,0,0,0-.73,2.05,2.85,2.85,0,0,0,.73,2A2.35,2.35,0,0,0,494.89,238Z"/>
      <path d="M503.18,239.17a2.62,2.62,0,0,1-1.68-.53,1.88,1.88,0,0,1-.66-1.57,2.2,2.2,0,0,1,.21-1,1.74,1.74,0,0,1,.62-.7,3.65,3.65,0,0,1,.91-.44,9.46,9.46,0,0,1,1.16-.28l1.25-.2c.45-.08.68-.32.68-.71a1.33,1.33,0,0,0-.48-1.14,1.93,1.93,0,0,0-1.22-.37,2,2,0,0,0-1.2.35,1.45,1.45,0,0,0-.57,1.08L501,233.4a2.33,2.33,0,0,1,1-1.64,3.56,3.56,0,0,1,2.09-.55,4.35,4.35,0,0,1,1.12.14,3,3,0,0,1,.93.43,1.94,1.94,0,0,1,.66.82,3.09,3.09,0,0,1,.24,1.27V237a1.37,1.37,0,0,0,.17.8.76.76,0,0,0,.61.21h.13v1h-.68a1.28,1.28,0,0,1-1.45-1h-.06A2.92,2.92,0,0,1,503.18,239.17Zm.31-1.09a2,2,0,0,0,1.65-.75,3,3,0,0,0,.63-2l-2,.39a2.63,2.63,0,0,0-1.19.43,1,1,0,0,0-.39.84,1,1,0,0,0,.37.84A1.54,1.54,0,0,0,503.49,238.08Z"/>
      <path d="M515.31,227h1.35v12h-1.31l0-1.49a2.83,2.83,0,0,1-1.09,1.21,3.05,3.05,0,0,1-1.63.45,3.46,3.46,0,0,1-1.39-.29,3.51,3.51,0,0,1-1.14-.8,3.57,3.57,0,0,1-.77-1.27,4.39,4.39,0,0,1-.29-1.64,4.07,4.07,0,0,1,1-2.89,3.38,3.38,0,0,1,2.55-1.11,3.06,3.06,0,0,1,1.61.44,2.88,2.88,0,0,1,1.1,1.17Zm-2.42,11a2.32,2.32,0,0,0,1.78-.8,3.19,3.19,0,0,0,0-4,2.31,2.31,0,0,0-1.78-.81,2.35,2.35,0,0,0-1.8.78,2.89,2.89,0,0,0-.73,2.05,2.85,2.85,0,0,0,.73,2A2.35,2.35,0,0,0,512.89,238Z"/>
    </g>
    <g>
      <path d="M441,117.11h2.33V128.4h-2.71l-5-8.07v8.07h-2.34V117.11H436l5,8Z"/>
      <path d="M453.49,124.27l0,.54h-6a2.06,2.06,0,0,0,.64,1.47,2.23,2.23,0,0,0,2.47.23,1.75,1.75,0,0,0,.68-.81l2.06.3a3.51,3.51,0,0,1-1.41,1.89,4.22,4.22,0,0,1-2.37.67,4.34,4.34,0,0,1-3.13-1.11,4,4,0,0,1-1.16-3.06,4.09,4.09,0,0,1,1.16-3.07,4.23,4.23,0,0,1,3.06-1.12,3.67,3.67,0,0,1,4,4.07Zm-4-2.48a1.78,1.78,0,0,0-1.95,1.55h3.69a1.69,1.69,0,0,0-.56-1.15A1.77,1.77,0,0,0,449.53,121.79Z"/>
      <path d="M460.74,120.37h2.14v7.43a6,6,0,0,1-.3,2,3.3,3.3,0,0,1-.87,1.37,3.65,3.65,0,0,1-1.34.77,5.52,5.52,0,0,1-1.75.25q-3.18,0-4.14-2.49l1.87-.8a2.71,2.71,0,0,0,.86,1.17,2.21,2.21,0,0,0,1.32.37c1.39,0,2.09-.82,2.09-2.48V127a2.53,2.53,0,0,1-1,.79,3.39,3.39,0,0,1-1.43.3,3.58,3.58,0,0,1-1.41-.28,3.75,3.75,0,0,1-1.17-.8,3.81,3.81,0,0,1-.79-1.26,4.73,4.73,0,0,1,0-3.26,3.59,3.59,0,0,1,.8-1.24,3.34,3.34,0,0,1,1.17-.78,3.61,3.61,0,0,1,1.42-.29,3.3,3.3,0,0,1,1.49.34,2.31,2.31,0,0,1,1,.88Zm-3.45,5.31a1.94,1.94,0,0,0,1.47.62,2,2,0,0,0,1.48-.62,2.25,2.25,0,0,0,0-3.06,2.09,2.09,0,0,0-3,0,2.14,2.14,0,0,0-.59,1.54A2.1,2.1,0,0,0,457.29,125.68Z"/>
      <path d="M471.8,126.22a7.51,7.51,0,0,0,.19,2v.22h-2.1l-.18-.87a2.59,2.59,0,0,1-1.12.77,4.22,4.22,0,0,1-1.45.26,4.35,4.35,0,0,1-.75-.07,2.75,2.75,0,0,1-.68-.24,2,2,0,0,1-.56-.42,1.66,1.66,0,0,1-.37-.64,2.34,2.34,0,0,1-.14-.87,2.41,2.41,0,0,1,.14-.87,2.08,2.08,0,0,1,.39-.65,2.49,2.49,0,0,1,.64-.48,5,5,0,0,1,.79-.34,9.36,9.36,0,0,1,1-.25l1.32-.3a1.42,1.42,0,0,0,.6-.25.53.53,0,0,0,.17-.4.85.85,0,0,0-.39-.78,2,2,0,0,0-1-.23,1.38,1.38,0,0,0-1.57,1.23l-2-.36a2.7,2.7,0,0,1,1.16-1.84,4.65,4.65,0,0,1,2.52-.59q3.38,0,3.38,2.9Zm-4,.81a1.8,1.8,0,0,0,1.39-.58,2.43,2.43,0,0,0,.54-1.72l-1.91.54a2.14,2.14,0,0,0-.8.33.68.68,0,0,0-.28.58.74.74,0,0,0,.3.63A1.22,1.22,0,0,0,467.84,127Z"/>
      <path d="M476.87,128.4a2.39,2.39,0,0,1-1.81-.65,2.52,2.52,0,0,1-.64-1.86V122.1h-1.58v-1.73h.51a1.32,1.32,0,0,0,1-.34,1.73,1.73,0,0,0,.32-1.19v-1.06h2v2.59h1.65v1.73H476.7v3.55c0,.7.31,1,.93,1h.72v1.71Z"/>
      <path d="M481.24,119.17a1.29,1.29,0,0,1-.92-.38,1.26,1.26,0,0,1-.38-.92,1.23,1.23,0,0,1,.39-.91,1.28,1.28,0,0,1,1.82,0,1.29,1.29,0,0,1,0,1.83A1.25,1.25,0,0,1,481.24,119.17Zm-1.14,9.23v-8h2.26v8Z"/>
      <path d="M489.92,120.37h2.38l-3.42,8h-2l-3.38-8h2.37l2,5.49Z"/>
      <path d="M496.9,128.56a5.15,5.15,0,0,1-2.27-.49,3.7,3.7,0,0,1-1.56-1.45,4.26,4.26,0,0,1-.57-2.24,4,4,0,0,1,1.22-3,5.09,5.09,0,0,1,6.37,0,4.44,4.44,0,0,1,0,6.11A4.52,4.52,0,0,1,496.9,128.56Zm0-1.79a2.07,2.07,0,0,0,1.59-.66,2.44,2.44,0,0,0,.6-1.73,2.49,2.49,0,0,0-.6-1.74,2.1,2.1,0,0,0-1.59-.65,2,2,0,0,0-1.55.66,2.83,2.83,0,0,0,0,3.46A2,2,0,0,0,496.88,126.77Z"/>
    </g>
  </g>
</svg>
