<svg id="Layer_1" data-name="Layer 1" xmlns="http://www.w3.org/2000/svg" width="335.24" height="340.54" viewBox="0 0 335.24 340.54">
  <defs>
    <style>
      .cls-1 {
        fill: #fff;
      }

      .cls-2 {
        fill: #fac712;
      }

      .cls-3 {
        fill: #feef00;
      }

      .cls-4 {
        fill: #f69f23;
      }

      .cls-5 {
        fill: #7421b0;
      }

      .cls-6 {
        fill: #3a48ba;
      }

      .cls-7 {
        fill: #d2298e;
      }

      .cls-8 {
        fill: #006fc4;
      }

      .cls-9 {
        fill: #ff2600;
      }

      .cls-10 {
        fill: #fb6312;
      }

      .cls-11 {
        fill: #00c2af;
      }

      .cls-12 {
        fill: #7fd200;
      }

      .cls-13 {
        fill: #00b500;
      }

      .cls-14 {
        fill: #2e2e2e;
      }

      .cls-15 {
        fill: #1f6eff;
      }

      .cls-16 {
        fill: #ff341f;
      }

      .cls-17 {
        fill: #fffb1d;
      }
    </style>
  </defs>
  <g>
    <circle class="cls-1" cx="167.62" cy="172.92" r="167.62"/>
    <g>
      <g>
        <path class="cls-2" d="M319.71,132.33a157.22,157.22,0,0,1,0,81.34h0L167.62,172.92l152.09-40.75Z"/>
        <path class="cls-3" d="M319.71,213.67A158.49,158.49,0,0,1,279,284.26l-3.14-3.15-3.5-3.49-1.88-1.89L267,272.32l-.61-.61-2.76-2.77-6.5-6.5-.41-.4-5-5-1.35-1.35-82.74-82.74,95.18,25.5h0Z"/>
        <path class="cls-4" d="M279,61.58h0A157.2,157.2,0,0,1,319.63,132l.08.15h0l-41.39,11.09L167.62,172.92Z"/>
        <path class="cls-5" d="M56.29,61.58h0L98,103.25h0l69.67,69.67L15.54,132.17h0A158.64,158.64,0,0,1,56.28,61.59Z"/>
        <path class="cls-6" d="M167.62,172.92,15.54,213.67v-.15a157.36,157.36,0,0,1,0-81.35h0l56.92,15.25h0Z"/>
        <path class="cls-7" d="M126.72,20.91l.15-.08v0h0l15.25,56.9h0l25.49,95.15L56.29,61.58h0A157.25,157.25,0,0,1,126.72,20.91Z"/>
        <path class="cls-8" d="M167.62,172.92,56.29,284.25h0a157.24,157.24,0,0,1-40.68-70.45l-.08-.14h0l56.9-15.25h0Z"/>
        <path class="cls-9" d="M208.36,20.83h0L193.12,77.75h0l-25.5,95.17L126.87,20.83H127A157.25,157.25,0,0,1,208.36,20.83Z"/>
        <path class="cls-10" d="M246.33,36.6a157.37,157.37,0,0,1,32.62,25h0l-41.67,41.67h0l-69.67,69.67L208.37,20.83h0A157.44,157.44,0,0,1,246.33,36.6Z"/>
        <path class="cls-11" d="M167.62,172.92,126.87,325h0a158.39,158.39,0,0,1-70.58-40.75L98,242.59h0Z"/>
        <path class="cls-12" d="M167.62,172.92l69.68,69.67h0l1.56,1.57,4.11,4.1,5.37,5.38,5,5,1.57,1.57,4.61,4.61.36.36L279,284.25h0a157.31,157.31,0,0,1-70.45,40.67l-.13.08Z"/>
        <path class="cls-13" d="M167.62,172.92,208.38,325h-.16a157.25,157.25,0,0,1-81.35,0l15.25-56.91h0Z"/>
      </g>
      <g>
        <path class="cls-14" d="M167.15,15.66,303,251H31.29Zm0,9.45L39.47,246.26H294.83Z"/>
        <g>
          <path class="cls-15" d="M36.52,228.88a21.63,21.63,0,1,0,21.62,21.63A21.62,21.62,0,0,0,36.52,228.88Z"/>
          <path class="cls-14" d="M36.51,226.52a24,24,0,1,1-24,24A24,24,0,0,1,36.51,226.52Zm0,4.72a19.27,19.27,0,1,0,19.27,19.27A19.28,19.28,0,0,0,36.51,231.24Z"/>
        </g>
        <g>
          <path class="cls-16" d="M167.15,2.36A21.63,21.63,0,1,0,188.78,24,21.62,21.62,0,0,0,167.15,2.36Z"/>
          <path class="cls-14" d="M167.15,0a24,24,0,1,1-24,24A24,24,0,0,1,167.15,0Zm0,4.72A19.27,19.27,0,1,0,186.42,24,19.28,19.28,0,0,0,167.15,4.72Z"/>
        </g>
        <g>
          <path class="cls-17" d="M298.73,226.88a21.63,21.63,0,1,0,21.63,21.63A21.63,21.63,0,0,0,298.73,226.88Z"/>
          <path class="cls-14" d="M298.73,224.52a24,24,0,1,1-24,24A24,24,0,0,1,298.73,224.52Zm0,4.72A19.27,19.27,0,1,0,318,248.51,19.29,19.29,0,0,0,298.73,229.24Z"/>
        </g>
      </g>
    </g>
  </g>
</svg>
