<svg xmlns="http://www.w3.org/2000/svg" xmlns:xlink="http://www.w3.org/1999/xlink" width="350.627" height="386.533" viewBox="0 0 350.627 386.533">
  <defs>
    <clipPath id="clip-path">
      <rect id="Rectángulo_4631" data-name="Rectángulo 4631" width="350.627" height="386.533" fill="none"/>
    </clipPath>
  </defs>
  <g id="Grupo_31598" data-name="Grupo 31598" transform="translate(0)">
    <g id="Grupo_31595" data-name="Grupo 31595" transform="translate(0)">
      <g id="Grupo_31594" data-name="Grupo 31594" clip-path="url(#clip-path)">
        <path id="Trazado_28992" data-name="Trazado 28992" d="M133.249,144.68a108.738,108.738,0,0,1,41.87-101.77A108.961,108.961,0,1,0,67.694,230.376a109.066,109.066,0,0,1,65.554-85.7" transform="translate(0.195 32.159)" fill="#0099df"/>
        <path id="Trazado_28993" data-name="Trazado 28993" d="M133.249,144.68a108.738,108.738,0,0,1,41.87-101.77A108.961,108.961,0,1,0,67.694,230.376,109.066,109.066,0,0,1,133.249,144.68Z" transform="translate(0.195 32.159)" fill="none" stroke="#000" stroke-miterlimit="10" stroke-width="0.25"/>
        <path id="Trazado_28994" data-name="Trazado 28994" d="M243.461,129.573A108.947,108.947,0,0,0,68.468,42.91,108.772,108.772,0,0,1,111.4,129.573a109.374,109.374,0,0,1-1.017,14.713,109.055,109.055,0,0,1,66.5,85.7,108.992,108.992,0,0,0,66.571-100.408" transform="translate(106.845 32.159)" fill="#e93179"/>
        <path id="Trazado_28995" data-name="Trazado 28995" d="M243.461,129.573A108.947,108.947,0,0,0,68.468,42.91,108.772,108.772,0,0,1,111.4,129.573a109.374,109.374,0,0,1-1.017,14.713,109.055,109.055,0,0,1,66.5,85.7A108.992,108.992,0,0,0,243.461,129.573Z" transform="translate(106.845 32.159)" fill="none" stroke="#000" stroke-miterlimit="10" stroke-width="0.25"/>
        <path id="Trazado_28996" data-name="Trazado 28996" d="M51.7,115.981a109.679,109.679,0,0,0,1.068,15.107,109.189,109.189,0,0,1,83.785-.394,109.373,109.373,0,0,0,1.017-14.713A108.772,108.772,0,0,0,94.635,29.318,108.772,108.772,0,0,0,51.7,115.981" transform="translate(80.679 45.751)" fill="#012072"/>
        <path id="Trazado_28997" data-name="Trazado 28997" d="M51.7,115.981a109.679,109.679,0,0,0,1.068,15.107,109.189,109.189,0,0,1,83.785-.394,109.373,109.373,0,0,0,1.017-14.713A108.772,108.772,0,0,0,94.635,29.318,108.772,108.772,0,0,0,51.7,115.981Z" transform="translate(80.679 45.751)" fill="none" stroke="#000" stroke-miterlimit="10" stroke-width="0.25"/>
        <path id="Trazado_28998" data-name="Trazado 28998" d="M134.557,97.009a108.457,108.457,0,0,1-66.028,22.3,108.641,108.641,0,0,1-41.4-8.163,108.957,108.957,0,1,0,216.914,14.715,109.743,109.743,0,0,0-1.068-15.11,108.589,108.589,0,0,1-42.392,8.557,108.464,108.464,0,0,1-66.031-22.3" transform="translate(40.756 151.384)" fill="#fef011"/>
        <path id="Trazado_28999" data-name="Trazado 28999" d="M134.557,97.009a108.457,108.457,0,0,1-66.028,22.3,108.641,108.641,0,0,1-41.4-8.163,108.957,108.957,0,1,0,216.914,14.715,109.743,109.743,0,0,0-1.068-15.11,108.589,108.589,0,0,1-42.392,8.557A108.464,108.464,0,0,1,134.557,97.009Z" transform="translate(40.756 151.384)" fill="none" stroke="#000" stroke-miterlimit="10" stroke-width="0.25"/>
        <path id="Trazado_29000" data-name="Trazado 29000" d="M133.938,140.616a108.848,108.848,0,0,1-41.87-71.551,109.072,109.072,0,0,0-65.554,85.693,108.943,108.943,0,0,0,107.424-14.142" transform="translate(41.376 107.777)" fill="#178f48"/>
        <path id="Trazado_29001" data-name="Trazado 29001" d="M133.938,140.616a108.848,108.848,0,0,1-41.87-71.551,109.072,109.072,0,0,0-65.554,85.693,108.943,108.943,0,0,0,107.424-14.142Z" transform="translate(41.376 107.777)" fill="none" stroke="#000" stroke-miterlimit="10" stroke-width="0.25"/>
        <path id="Trazado_29002" data-name="Trazado 29002" d="M110.386,68.91a108.844,108.844,0,0,1-41.918,71.948,109.037,109.037,0,0,0,108.423,13.747,109.057,109.057,0,0,0-66.5-85.7" transform="translate(106.845 107.535)" fill="#eb2d16"/>
        <path id="Trazado_29003" data-name="Trazado 29003" d="M110.386,68.91a108.844,108.844,0,0,1-41.918,71.948,109.037,109.037,0,0,0,108.423,13.747A109.057,109.057,0,0,0,110.386,68.91Z" transform="translate(106.845 107.535)" fill="none" stroke="#000" stroke-miterlimit="10" stroke-width="0.25"/>
        <path id="Trazado_29004" data-name="Trazado 29004" d="M52.116,74.279a108.838,108.838,0,0,0,41.87,71.551A108.839,108.839,0,0,0,135.9,73.885a109.164,109.164,0,0,0-83.788.394" transform="translate(81.328 102.56)"/>
        <path id="Trazado_29005" data-name="Trazado 29005" d="M52.116,74.279a108.838,108.838,0,0,0,41.87,71.551A108.839,108.839,0,0,0,135.9,73.885a109.164,109.164,0,0,0-83.788.394Z" transform="translate(81.328 102.56)" fill="none" stroke="#000" stroke-miterlimit="10" stroke-width="0.25"/>
      </g>
    </g>
    <text id="Verde" transform="translate(92.051 239.34)" fill="#fff" font-size="18" font-family="CerebriSans-Regular, Cerebri Sans"><tspan x="0" y="0" letter-spacing="-0.049em">V</tspan><tspan y="0">e</tspan><tspan y="0" letter-spacing="-0.005em">r</tspan><tspan y="0">de</tspan></text>
    <text id="Azul" transform="translate(156.146 144.765)" fill="#fff" font-size="18" font-family="CerebriSans-Regular, Cerebri Sans"><tspan x="0" y="0">Azul</tspan></text>
    <text id="Negro" transform="translate(146.989 199.622)" fill="#fff" font-size="18" font-family="CerebriSans-Regular, Cerebri Sans"><tspan x="0" y="0" letter-spacing="-0.006em">N</tspan><tspan y="0">eg</tspan><tspan y="0" letter-spacing="-0.006em">r</tspan><tspan y="0">o</tspan></text>
    <text id="Rojo" transform="translate(208.994 239.34)" fill="#fff" font-size="18" font-family="CerebriSans-Regular, Cerebri Sans"><tspan x="0" y="0" letter-spacing="-0.029em">R</tspan><tspan y="0">ojo</tspan></text>
    <text id="Magenta" transform="translate(239.433 144.765)" fill="#fff" font-size="18" font-family="CerebriSans-Regular, Cerebri Sans"><tspan x="0" y="0" letter-spacing="-0.006em">M</tspan><tspan y="0" letter-spacing="-0.009em">a</tspan><tspan y="0">gen</tspan><tspan y="0" letter-spacing="-0.006em">t</tspan><tspan y="0">a</tspan></text>
    <text id="Amarillo" transform="translate(138.099 314.763)" font-size="18" font-family="CerebriSans-Regular, Cerebri Sans"><tspan x="0" y="0">Amarillo</tspan></text>
    <text id="Cian" transform="translate(45.511 143.765)" fill="#fff" font-size="17" font-family="CerebriSans-Regular, Cerebri Sans"><tspan x="0" y="0">Cian</tspan></text>
    <g id="Grupo_31597" data-name="Grupo 31597" transform="translate(0)">
      <g id="Grupo_31596" data-name="Grupo 31596" clip-path="url(#clip-path)">
        <text id="Colores_pigmento" data-name="Colores pigmento" transform="translate(61.839 22.599)" font-size="28" font-family="CerebriSans-Regular, Cerebri Sans"><tspan x="0" y="0">Colo</tspan><tspan y="0" letter-spacing="-0.005em">r</tspan><tspan y="0">es pigmen</tspan><tspan y="0" letter-spacing="-0.006em">t</tspan><tspan y="0">o</tspan></text>
      </g>
    </g>
  </g>
</svg>
