<svg id="Layer_1" data-name="Layer 1" xmlns="http://www.w3.org/2000/svg" width="563.56" height="300.44" viewBox="0 0 563.56 300.44">
  <defs>
    <style>
      .cls-1 {
        fill: #662d91;
      }

      .cls-2 {
        fill: #f2f2f2;
      }

      .cls-3 {
        opacity: 0.75;
      }

      .cls-4 {
        opacity: 0.5;
      }

      .cls-5 {
        opacity: 0.25;
      }
    </style>
  </defs>
  <g>
    <rect class="cls-1" width="281.78" height="228.44"/>
    <rect class="cls-2" x="281.78" width="281.78" height="300.44"/>
    <rect class="cls-1" y="228.44" width="70.44" height="72"/>
    <g class="cls-3">
      <rect class="cls-1" x="70.44" y="228.44" width="70.44" height="72"/>
    </g>
    <g class="cls-4">
      <rect class="cls-1" x="140.89" y="228.44" width="70.44" height="72"/>
    </g>
    <g class="cls-5">
      <rect class="cls-1" x="211.33" y="228.44" width="70.44" height="72"/>
    </g>
    <g>
      <path d="M346.75,97.59h5.92l-9.91,26.81h-6.13l-9.85-26.81h5.9l7,20.32Z"/>
      <path d="M358.71,102.47a3,3,0,0,1-2.19-.9,3,3,0,0,1-.9-2.18,2.92,2.92,0,0,1,.91-2.16,3,3,0,0,1,2.18-.9,3.07,3.07,0,0,1,0,6.14ZM356,124.4V105.33h5.38V124.4Z"/>
      <path d="M375.78,124.77a12,12,0,0,1-5.4-1.17,8.69,8.69,0,0,1-3.7-3.43,10.28,10.28,0,0,1-1.34-5.32,9.33,9.33,0,0,1,2.89-7.24,12.11,12.11,0,0,1,15.12,0,10.51,10.51,0,0,1,0,14.5A10.71,10.71,0,0,1,375.78,124.77Zm0-4.25A4.86,4.86,0,0,0,379.5,119a6.61,6.61,0,0,0,0-8.24,4.87,4.87,0,0,0-3.77-1.56,4.71,4.71,0,0,0-3.67,1.57,6.66,6.66,0,0,0,0,8.22A4.74,4.74,0,0,0,375.73,120.52Z"/>
      <path d="M390.22,124.4V95.9h5.4v28.5Z"/>
      <path d="M419.09,114.59l0,1.28H404.9a4.92,4.92,0,0,0,1.52,3.49,4.87,4.87,0,0,0,3.36,1.2,4.68,4.68,0,0,0,2.51-.66A4.08,4.08,0,0,0,413.9,118l4.89.73a8.35,8.35,0,0,1-3.34,4.47,9.93,9.93,0,0,1-5.64,1.59,10.34,10.34,0,0,1-7.43-2.62,11,11,0,0,1,0-14.57,10,10,0,0,1,7.26-2.66,9.57,9.57,0,0,1,6.84,2.43Q419.07,109.78,419.09,114.59Zm-9.41-5.88c-2.59,0-4.14,1.22-4.63,3.67h8.75a4,4,0,0,0-1.31-2.73A4.2,4.2,0,0,0,409.68,108.71Z"/>
      <path d="M430.26,124.4a5.72,5.72,0,0,1-4.3-1.55,6,6,0,0,1-1.53-4.4v-9h-3.74v-4.1h1.2a3.17,3.17,0,0,0,2.38-.8,4.15,4.15,0,0,0,.76-2.84V99.17h4.82v6.16h3.94v4.1h-3.94v8.44c0,1.65.74,2.47,2.21,2.47h1.73v4.06Z"/>
      <path d="M453.49,119.23a17.72,17.72,0,0,0,.47,4.65v.52h-5l-.42-2.08a6.19,6.19,0,0,1-2.67,1.84,9.89,9.89,0,0,1-3.46.61,9.21,9.21,0,0,1-1.78-.16A5.89,5.89,0,0,1,439,124a4.76,4.76,0,0,1-1.33-1,4.38,4.38,0,0,1-.89-1.51,6.16,6.16,0,0,1-.33-2.07,5.62,5.62,0,0,1,.35-2.07,4.67,4.67,0,0,1,.93-1.55,5.46,5.46,0,0,1,1.5-1.13,11.14,11.14,0,0,1,1.89-.82,21.65,21.65,0,0,1,2.27-.59l3.13-.71A3.47,3.47,0,0,0,448,112a1.2,1.2,0,0,0,.42-1,2,2,0,0,0-.94-1.83,4.37,4.37,0,0,0-2.27-.56q-3.29,0-3.73,2.91l-4.73-.85a6.39,6.39,0,0,1,2.76-4.35,11,11,0,0,1,6-1.4q8,0,8,6.88Zm-9.41,1.93a4.3,4.3,0,0,0,3.31-1.39,5.83,5.83,0,0,0,1.28-4.09L444.14,117a5.4,5.4,0,0,0-1.9.78,1.6,1.6,0,0,0-.66,1.37,1.79,1.79,0,0,0,.7,1.52A2.94,2.94,0,0,0,444.08,121.16Z"/>
    </g>
    <g>
      <path d="M332.4,162.22v-11h1.39v11Z"/>
      <path d="M344.75,154.39a2.47,2.47,0,0,1,1.79.66,2.41,2.41,0,0,1,.68,1.83v5.34h-1.36v-5a1.75,1.75,0,0,0-.42-1.27,1.46,1.46,0,0,0-1.07-.43,1.54,1.54,0,0,0-1.17.49,2.06,2.06,0,0,0-.44,1.45v4.75h-1.38v-4.94A1.77,1.77,0,0,0,341,156a1.42,1.42,0,0,0-1.09-.45,1.49,1.49,0,0,0-1.16.5,2.16,2.16,0,0,0-.45,1.49v4.7H336.9v-7.68h1.35v1a2.29,2.29,0,0,1,.88-.84,2.48,2.48,0,0,1,1.22-.3,2.58,2.58,0,0,1,1.31.33,2,2,0,0,1,.85.93,2.42,2.42,0,0,1,.92-.93A2.64,2.64,0,0,1,344.75,154.39Z"/>
      <path d="M351.61,162.37a2.57,2.57,0,0,1-1.69-.53,1.88,1.88,0,0,1-.66-1.57,2.2,2.2,0,0,1,.21-1,1.7,1.7,0,0,1,.63-.7,3.42,3.42,0,0,1,.9-.44,8.52,8.52,0,0,1,1.17-.27l1.24-.21c.45-.08.68-.32.68-.71a1.33,1.33,0,0,0-.48-1.14,1.92,1.92,0,0,0-1.21-.37,2,2,0,0,0-1.21.35,1.51,1.51,0,0,0-.57,1.08l-1.22-.25a2.4,2.4,0,0,1,1-1.65,3.6,3.6,0,0,1,2.1-.55,4.27,4.27,0,0,1,1.11.14,2.82,2.82,0,0,1,.93.43,2,2,0,0,1,.67.82,3.27,3.27,0,0,1,.23,1.27v3.17a1.29,1.29,0,0,0,.18.8.75.75,0,0,0,.6.21h.13v1h-.67a1.29,1.29,0,0,1-1.46-1h-.06A2.91,2.91,0,0,1,351.61,162.37Zm.31-1.09a2.05,2.05,0,0,0,1.65-.75,3.08,3.08,0,0,0,.62-2l-2,.39a2.68,2.68,0,0,0-1.19.43,1,1,0,0,0-.39.84,1,1,0,0,0,.37.84A1.55,1.55,0,0,0,351.92,161.28Z"/>
      <path d="M363.62,154.54h1.31v7.29a4.17,4.17,0,0,1-1,3,4.12,4.12,0,0,1-6.47-1.3l1.11-.55a2.55,2.55,0,0,0,2.57,1.78A2.19,2.19,0,0,0,363,164a3.17,3.17,0,0,0,.63-2.1v-1.42a2.73,2.73,0,0,1-1.1,1.11,3.37,3.37,0,0,1-4.08-.67,3.78,3.78,0,0,1-1-2.73,3.74,3.74,0,0,1,1-2.72,3.32,3.32,0,0,1,2.5-1.08,3.21,3.21,0,0,1,1.61.43,2.81,2.81,0,0,1,1.08,1.14Zm-2.44,6.32a2.32,2.32,0,0,0,1.77-.79,2.8,2.8,0,0,0,0-3.76,2.41,2.41,0,0,0-3.54,0,2.67,2.67,0,0,0-.73,1.91,2.7,2.7,0,0,0,.73,1.9A2.37,2.37,0,0,0,361.18,160.86Z"/>
      <path d="M368.37,152.74a.87.87,0,0,1-.64-.27.89.89,0,0,1-.27-.65.87.87,0,0,1,.27-.64.92.92,0,0,1,1.28,0,.87.87,0,0,1,.27.64.89.89,0,0,1-.27.65A.87.87,0,0,1,368.37,152.74Zm-.69,9.48v-7.68H369v7.68Z"/>
      <path d="M375.42,154.39a2.67,2.67,0,0,1,1.93.7,2.6,2.6,0,0,1,.73,2v5.17h-1.36v-4.86a1.84,1.84,0,0,0-.46-1.38,1.69,1.69,0,0,0-1.21-.45,1.88,1.88,0,0,0-1.37.53,2.14,2.14,0,0,0-.53,1.57v4.59h-1.36v-7.68h1.36v1A2.55,2.55,0,0,1,375.42,154.39Z"/>
      <path d="M382.46,162.37a2.59,2.59,0,0,1-1.69-.53,1.88,1.88,0,0,1-.66-1.57,2.08,2.08,0,0,1,.22-1,1.67,1.67,0,0,1,.62-.7,3.76,3.76,0,0,1,.9-.44,8.52,8.52,0,0,1,1.17-.27l1.24-.21c.46-.08.68-.32.68-.71a1.33,1.33,0,0,0-.48-1.14,1.9,1.9,0,0,0-1.21-.37,2.06,2.06,0,0,0-1.21.35,1.51,1.51,0,0,0-.57,1.08l-1.21-.25a2.33,2.33,0,0,1,1-1.65,3.54,3.54,0,0,1,2.09-.55,4.21,4.21,0,0,1,1.11.14,2.82,2.82,0,0,1,.93.43,1.89,1.89,0,0,1,.67.82,3.27,3.27,0,0,1,.24,1.27v3.17a1.3,1.3,0,0,0,.17.8.76.76,0,0,0,.61.21h.12v1h-.67a1.27,1.27,0,0,1-1.45-1H385A2.91,2.91,0,0,1,382.46,162.37Zm.31-1.09a2.05,2.05,0,0,0,1.65-.75,3,3,0,0,0,.62-2l-2,.39a2.73,2.73,0,0,0-1.19.43,1,1,0,0,0-.39.84,1,1,0,0,0,.38.84A1.5,1.5,0,0,0,382.77,161.28Z"/>
      <path d="M391.47,162.22a2,2,0,0,1-1.5-.55,2.1,2.1,0,0,1-.54-1.53v-4.52h-1.57v-1.08h.57a1.1,1.1,0,0,0,.85-.27,1.29,1.29,0,0,0,.25-.9V152h1.26v2.56h1.76v1.08h-1.76V160a1.13,1.13,0,0,0,.29.84,1,1,0,0,0,.77.3h.7v1.08Z"/>
      <path d="M395.19,152.74a.87.87,0,0,1-.64-.27.89.89,0,0,1-.27-.65.87.87,0,0,1,.27-.64.92.92,0,0,1,1.28,0,.87.87,0,0,1,.27.64.89.89,0,0,1-.27.65A.87.87,0,0,1,395.19,152.74Zm-.68,9.48v-7.68h1.35v7.68Z"/>
      <path d="M403.4,154.54h1.45l-3.13,7.68h-1.14l-3.11-7.68h1.43l2.25,6.11Z"/>
      <path d="M409.38,162.37a4,4,0,0,1-2-.48A3.51,3.51,0,0,1,406,160.5a4.29,4.29,0,0,1-.51-2.12,4,4,0,0,1,1.09-2.9,4.09,4.09,0,0,1,5.56,0,4.4,4.4,0,0,1,0,5.8A3.75,3.75,0,0,1,409.38,162.37Zm0-1.12a2.38,2.38,0,0,0,1.82-.79,3,3,0,0,0,.72-2.08,2.93,2.93,0,0,0-.72-2.07,2.35,2.35,0,0,0-1.82-.79,2.32,2.32,0,0,0-1.8.79,2.93,2.93,0,0,0-.71,2.07,3,3,0,0,0,.71,2.08A2.36,2.36,0,0,0,409.37,161.25Z"/>
      <path d="M338.29,171.7h-4.46v3.6h3.93v1.26h-3.93v3.59h4.46v1.27H332.4v-11h5.89Z"/>
      <path d="M343.05,181.57A3.63,3.63,0,0,1,341,181a2.31,2.31,0,0,1-1-1.58l1.18-.34a1.7,1.7,0,0,0,.63,1.07,2.07,2.07,0,0,0,1.26.38,2.82,2.82,0,0,0,.74-.1,1.28,1.28,0,0,0,.57-.38,1,1,0,0,0,.23-.7,1.07,1.07,0,0,0-.07-.32,1.45,1.45,0,0,0-.12-.25.64.64,0,0,0-.22-.21,2.29,2.29,0,0,0-.27-.17,2.08,2.08,0,0,0-.34-.14l-.38-.13-.42-.12-.45-.13c-.32-.1-.59-.19-.8-.28a3.66,3.66,0,0,1-.65-.37,1.49,1.49,0,0,1-.5-.61,2.06,2.06,0,0,1-.17-.86,2,2,0,0,1,.38-1.22,2.08,2.08,0,0,1,1-.73,3.84,3.84,0,0,1,1.36-.22,3.34,3.34,0,0,1,1.87.5,2.14,2.14,0,0,1,.94,1.5l-1.11.28a1.47,1.47,0,0,0-.59-1,1.82,1.82,0,0,0-1.1-.33,1.91,1.91,0,0,0-1,.27.91.91,0,0,0-.43.83.85.85,0,0,0,.11.42,1.65,1.65,0,0,0,.23.3,1.44,1.44,0,0,0,.43.24l.45.16.56.14.12,0c.3.07.55.14.74.2a5.36,5.36,0,0,1,.66.28,2.43,2.43,0,0,1,.6.42,1.92,1.92,0,0,1,.37.6,2,2,0,0,1,.16.82,2.31,2.31,0,0,1-.23,1,1.8,1.8,0,0,1-.63.71,2.85,2.85,0,0,1-.89.38A4.1,4.1,0,0,1,343.05,181.57Z"/>
      <path d="M352.06,173.59a3.46,3.46,0,0,1,1.39.29,3.36,3.36,0,0,1,1.14.78,3.82,3.82,0,0,1,.77,1.27,4.71,4.71,0,0,1,.29,1.66,4.09,4.09,0,0,1-1,2.9,3.37,3.37,0,0,1-2.55,1.1,3.09,3.09,0,0,1-1.61-.44,2.88,2.88,0,0,1-1.09-1.18v5.32H348V173.74h1.3l0,1.5a2.81,2.81,0,0,1,1.09-1.2A3.05,3.05,0,0,1,352.06,173.59Zm-.27,6.82a2.31,2.31,0,0,0,1.78-.77,3.28,3.28,0,0,0,0-4.1,2.31,2.31,0,0,0-1.78-.77,2.36,2.36,0,0,0-1.8.8,3.16,3.16,0,0,0,0,4A2.33,2.33,0,0,0,351.79,180.41Z"/>
      <path d="M358.47,171.94a.92.92,0,0,1-.92-.92.87.87,0,0,1,.27-.64.92.92,0,0,1,.65-.26.89.89,0,0,1,.63.26.87.87,0,0,1,.27.64.89.89,0,0,1-.27.65A.86.86,0,0,1,358.47,171.94Zm-.69,9.48v-7.68h1.36v7.68Z"/>
      <path d="M363.21,175.09a2.34,2.34,0,0,1,1-1,2.88,2.88,0,0,1,1.48-.4v1.27a2.55,2.55,0,0,0-1.79.57,2.38,2.38,0,0,0-.61,1.82v4.1h-1.35v-7.68h1.32Z"/>
      <path d="M367.91,171.94a.87.87,0,0,1-.64-.27A.89.89,0,0,1,367,171a.87.87,0,0,1,.27-.64.92.92,0,0,1,1.28,0,.87.87,0,0,1,.27.64.89.89,0,0,1-.27.65A.87.87,0,0,1,367.91,171.94Zm-.69,9.48v-7.68h1.36v7.68Z"/>
      <path d="M373.79,181.42a2,2,0,0,1-1.5-.55,2.07,2.07,0,0,1-.55-1.53v-4.52h-1.57v-1.08h.58a1.08,1.08,0,0,0,.84-.27,1.29,1.29,0,0,0,.25-.9v-1.39h1.26v2.56h1.76v1.08H373.1v4.38a1.17,1.17,0,0,0,.29.84,1,1,0,0,0,.77.3h.7v1.08Z"/>
      <path d="M381.6,173.74H383v7.68h-1.3l0-1a2.46,2.46,0,0,1-.95.86,2.93,2.93,0,0,1-1.34.3,2.69,2.69,0,0,1-1.94-.69,2.62,2.62,0,0,1-.72-2v-5.17H378v4.87a1.87,1.87,0,0,0,.47,1.38,1.69,1.69,0,0,0,1.21.45,1.84,1.84,0,0,0,1.36-.53,2.16,2.16,0,0,0,.54-1.57Z"/>
      <path d="M387.47,181.57a2.56,2.56,0,0,1-1.68-.53,1.88,1.88,0,0,1-.66-1.57,2.2,2.2,0,0,1,.21-1,1.7,1.7,0,0,1,.63-.7,3.42,3.42,0,0,1,.9-.44,7.88,7.88,0,0,1,1.17-.27l1.24-.21c.45-.08.68-.32.68-.71a1.33,1.33,0,0,0-.48-1.14,2.19,2.19,0,0,0-2.42,0,1.47,1.47,0,0,0-.57,1.07l-1.22-.25a2.37,2.37,0,0,1,1-1.65,3.6,3.6,0,0,1,2.1-.55,4.32,4.32,0,0,1,1.11.14,3,3,0,0,1,.93.43,1.94,1.94,0,0,1,.66.82,3.09,3.09,0,0,1,.24,1.27v3.17a1.29,1.29,0,0,0,.18.8.73.73,0,0,0,.6.21h.13v1h-.67c-.83,0-1.32-.34-1.46-1H390A2.91,2.91,0,0,1,387.47,181.57Zm.32-1.09a2,2,0,0,0,1.64-.74,3.07,3.07,0,0,0,.63-2l-2,.39a2.63,2.63,0,0,0-1.19.43,1,1,0,0,0-.39.84,1,1,0,0,0,.37.84A1.55,1.55,0,0,0,387.79,180.48Z"/>
      <path d="M394.08,181.42v-12h1.37v12Z"/>
      <path d="M337.11,200.77a5.93,5.93,0,0,1-2.17-.39,5.62,5.62,0,0,1-1.74-1.11,5,5,0,0,1-1.15-1.79,6.84,6.84,0,0,1,0-4.72,5.09,5.09,0,0,1,1.16-1.79,5.29,5.29,0,0,1,1.73-1.11,5.93,5.93,0,0,1,2.17-.39,5.55,5.55,0,0,1,2.92.78A4.82,4.82,0,0,1,342,192.4l-1.29.53a3.71,3.71,0,0,0-1.44-1.57,4.12,4.12,0,0,0-2.13-.55,4.38,4.38,0,0,0-1.6.29,3.76,3.76,0,0,0-1.3.83,3.7,3.7,0,0,0-.87,1.36,5,5,0,0,0-.32,1.82,5.11,5.11,0,0,0,.32,1.84,3.7,3.7,0,0,0,.87,1.36,3.76,3.76,0,0,0,1.3.83,4.18,4.18,0,0,0,1.6.29,4.12,4.12,0,0,0,2.13-.55,3.66,3.66,0,0,0,1.44-1.55l1.29.52A4.8,4.8,0,0,1,340,200,5.65,5.65,0,0,1,337.11,200.77Z"/>
      <path d="M347.25,200.77a4,4,0,0,1-2-.48,3.38,3.38,0,0,1-1.39-1.39,4.29,4.29,0,0,1-.51-2.12,3.92,3.92,0,0,1,1.09-2.9,4.09,4.09,0,0,1,5.56,0,4,4,0,0,1,1.08,2.9,3.91,3.91,0,0,1-1.09,2.9A3.73,3.73,0,0,1,347.25,200.77Zm0-1.12a2.4,2.4,0,0,0,1.82-.79,3,3,0,0,0,.72-2.08,2.93,2.93,0,0,0-.72-2.07,2.36,2.36,0,0,0-1.82-.79,2.31,2.31,0,0,0-1.8.79,2.93,2.93,0,0,0-.72,2.07,3,3,0,0,0,.72,2.08A2.34,2.34,0,0,0,347.24,199.65Z"/>
      <path d="M361.08,192.79a2.46,2.46,0,0,1,1.79.66,2.38,2.38,0,0,1,.68,1.83v5.34H362.2v-5a1.75,1.75,0,0,0-.42-1.27,1.46,1.46,0,0,0-1.07-.43,1.51,1.51,0,0,0-1.17.49,2.06,2.06,0,0,0-.45,1.45v4.75h-1.37v-4.94a1.82,1.82,0,0,0-.43-1.3,1.43,1.43,0,0,0-1.09-.45,1.51,1.51,0,0,0-1.17.5,2.16,2.16,0,0,0-.45,1.49v4.7h-1.35v-7.68h1.35v1a2.44,2.44,0,0,1,.88-.84,2.48,2.48,0,0,1,1.22-.3,2.59,2.59,0,0,1,1.32.33,2,2,0,0,1,.85.93,2.35,2.35,0,0,1,.92-.93A2.6,2.6,0,0,1,361.08,192.79Z"/>
      <path d="M370.22,192.79a3.43,3.43,0,0,1,1.39.29,3.5,3.5,0,0,1,1.15.78,3.8,3.8,0,0,1,.76,1.27,4.71,4.71,0,0,1,.29,1.66,4,4,0,0,1-1,2.89,3.35,3.35,0,0,1-2.55,1.11,3,3,0,0,1-1.6-.44,2.9,2.9,0,0,1-1.1-1.18v5.32h-1.35V192.94h1.3l0,1.49a2.72,2.72,0,0,1,1.09-1.19A3,3,0,0,1,370.22,192.79Zm-.26,6.82a2.34,2.34,0,0,0,1.78-.77,3.28,3.28,0,0,0,0-4.1A2.34,2.34,0,0,0,370,194a2.37,2.37,0,0,0-1.81.8,3.16,3.16,0,0,0,0,4A2.37,2.37,0,0,0,370,199.61Z"/>
      <path d="M377.72,200.77a2.63,2.63,0,0,1-1.69-.53,1.88,1.88,0,0,1-.66-1.57,2.2,2.2,0,0,1,.21-1,1.7,1.7,0,0,1,.63-.7,3.42,3.42,0,0,1,.9-.44,8.52,8.52,0,0,1,1.17-.27l1.24-.21c.45-.08.68-.32.68-.71a1.33,1.33,0,0,0-.48-1.14,1.92,1.92,0,0,0-1.21-.37,2,2,0,0,0-1.21.35,1.51,1.51,0,0,0-.57,1.08l-1.22-.25a2.4,2.4,0,0,1,1-1.65,3.6,3.6,0,0,1,2.1-.55,4.32,4.32,0,0,1,1.11.14,2.82,2.82,0,0,1,.93.43,1.87,1.87,0,0,1,.66.82,3.09,3.09,0,0,1,.24,1.27v3.17a1.29,1.29,0,0,0,.18.8.75.75,0,0,0,.6.21h.13v1h-.67c-.83,0-1.32-.34-1.46-1h-.06A2.91,2.91,0,0,1,377.72,200.77Zm.31-1.09a2.05,2.05,0,0,0,1.65-.75,3.08,3.08,0,0,0,.62-2l-2,.39a2.68,2.68,0,0,0-1.19.43,1,1,0,0,0-.39.84,1,1,0,0,0,.37.84A1.55,1.55,0,0,0,378,199.68Z"/>
      <path d="M386.76,200.77a3.68,3.68,0,0,1-2.08-.55,2.3,2.3,0,0,1-1-1.58l1.18-.34a1.62,1.62,0,0,0,.63,1.07,2,2,0,0,0,1.26.38,2.88,2.88,0,0,0,.74-.1,1.2,1.2,0,0,0,.56-.38,1,1,0,0,0,.23-.7,1.52,1.52,0,0,0-.06-.32,1.17,1.17,0,0,0-.13-.25.64.64,0,0,0-.22-.21l-.26-.17-.35-.14-.37-.13-.43-.12-.45-.13a7.56,7.56,0,0,1-.79-.28,3.34,3.34,0,0,1-.65-.37,1.43,1.43,0,0,1-.51-.61,2.06,2.06,0,0,1-.16-.86,2,2,0,0,1,.37-1.22,2.08,2.08,0,0,1,1-.73,3.9,3.9,0,0,1,1.37-.22,3.36,3.36,0,0,1,1.87.5,2.1,2.1,0,0,1,.93,1.5l-1.11.28a1.46,1.46,0,0,0-.58-1,1.87,1.87,0,0,0-1.11-.33,1.91,1.91,0,0,0-1,.27.93.93,0,0,0-.43.83.76.76,0,0,0,.12.42,1.07,1.07,0,0,0,.23.3,1.3,1.3,0,0,0,.42.23,3.6,3.6,0,0,0,.45.17l.56.14.12,0,.74.21a5.36,5.36,0,0,1,.66.28,2.1,2.1,0,0,1,.6.42,2,2,0,0,1,.38.59,2.23,2.23,0,0,1,.15.83,2.18,2.18,0,0,1-.23,1,1.8,1.8,0,0,1-.63.71,2.85,2.85,0,0,1-.89.38A4.08,4.08,0,0,1,386.76,200.77Z"/>
      <path d="M392.4,191.14a.92.92,0,0,1-.92-.92.87.87,0,0,1,.27-.64.92.92,0,0,1,.65-.26.89.89,0,0,1,.63.26.87.87,0,0,1,.27.64.89.89,0,0,1-.27.65A.86.86,0,0,1,392.4,191.14Zm-.69,9.48v-7.68h1.36v7.68Z"/>
      <path d="M400.61,192.94h1.44l-3.12,7.68h-1.15l-3.11-7.68h1.44l2.25,6.11Z"/>
      <path d="M406.58,200.77a4,4,0,0,1-2-.48,3.42,3.42,0,0,1-1.38-1.39,4.29,4.29,0,0,1-.51-2.12,3.92,3.92,0,0,1,1.09-2.9,4.08,4.08,0,0,1,5.55,0,4.4,4.4,0,0,1,0,5.8A3.75,3.75,0,0,1,406.58,200.77Zm0-1.12a2.38,2.38,0,0,0,1.81-.79,3,3,0,0,0,.72-2.08,2.93,2.93,0,0,0-.72-2.07,2.47,2.47,0,0,0-3.62,0,3,3,0,0,0-.71,2.07,3,3,0,0,0,.71,2.08A2.36,2.36,0,0,0,406.58,199.65Z"/>
      <path d="M335.79,220a5,5,0,0,1-2.87-.78,3.27,3.27,0,0,1-1.43-2.13l1.41-.34a2.28,2.28,0,0,0,1,1.5,3.31,3.31,0,0,0,1.94.55,4.23,4.23,0,0,0,.73-.06,3.63,3.63,0,0,0,.66-.21,2.12,2.12,0,0,0,.54-.36,1.5,1.5,0,0,0,.36-.54,1.9,1.9,0,0,0,.13-.73,1.72,1.72,0,0,0-.1-.52,1.75,1.75,0,0,0-.22-.41,1.52,1.52,0,0,0-.37-.33,3.82,3.82,0,0,0-.45-.27,4.14,4.14,0,0,0-.55-.22l-.58-.18-.63-.18-.12,0-.74-.2-.68-.24a3.67,3.67,0,0,1-.65-.3,4.94,4.94,0,0,1-.54-.38,1.83,1.83,0,0,1-.44-.49,2.36,2.36,0,0,1-.27-.62,3.07,3.07,0,0,1,.41-2.47,3,3,0,0,1,1.32-1,4.76,4.76,0,0,1,1.82-.33,5,5,0,0,1,2.64.68,3,3,0,0,1,1.4,2l-1.36.34a2,2,0,0,0-.91-1.35,3.18,3.18,0,0,0-1.72-.46,3.22,3.22,0,0,0-.84.11,2.27,2.27,0,0,0-.73.31,1.46,1.46,0,0,0-.53.57,1.8,1.8,0,0,0-.2.84,1.45,1.45,0,0,0,.08.47,1.31,1.31,0,0,0,.2.37,1.39,1.39,0,0,0,.33.3l.41.25.52.2.54.17.6.16a12.56,12.56,0,0,1,2.12.7,2.67,2.67,0,0,1,1.63,2,3.75,3.75,0,0,1,0,.48,3.06,3.06,0,0,1-.31,1.42,2.61,2.61,0,0,1-.87,1,4.28,4.28,0,0,1-1.23.55A5.83,5.83,0,0,1,335.79,220Z"/>
      <path d="M348.69,215.83v.37h-6a2.69,2.69,0,0,0,.73,2,2.4,2.4,0,0,0,1.75.69,2.33,2.33,0,0,0,1.27-.37,2.37,2.37,0,0,0,.88-1l1.22.26a3.53,3.53,0,0,1-1.31,1.65,3.59,3.59,0,0,1-2,.6,3.73,3.73,0,0,1-2.77-1.07,4.57,4.57,0,0,1,0-5.84,3.66,3.66,0,0,1,2.72-1.07,3.46,3.46,0,0,1,2.58,1A3.88,3.88,0,0,1,348.69,215.83Zm-3.55-2.8a2.36,2.36,0,0,0-1.6.55,2.49,2.49,0,0,0-.81,1.58h4.6a2.25,2.25,0,0,0-.67-1.58A2.14,2.14,0,0,0,345.14,213Z"/>
      <path d="M354.43,212a2.7,2.7,0,0,1,1.94.7,2.6,2.6,0,0,1,.72,2v5.17h-1.35V215a1.84,1.84,0,0,0-.47-1.38,1.65,1.65,0,0,0-1.2-.45,1.86,1.86,0,0,0-1.37.53,2.19,2.19,0,0,0-.54,1.57v4.59h-1.35v-7.68h1.35v1A2.56,2.56,0,0,1,354.43,212Z"/>
      <path d="M362.13,220a3.63,3.63,0,0,1-2.07-.55,2.31,2.31,0,0,1-1-1.58l1.18-.34a1.62,1.62,0,0,0,.63,1.07,2.07,2.07,0,0,0,1.26.38,2.82,2.82,0,0,0,.74-.1,1.28,1.28,0,0,0,.57-.38,1,1,0,0,0,.22-.7.83.83,0,0,0-.06-.32c0-.09-.08-.18-.12-.25a.64.64,0,0,0-.22-.21,2.29,2.29,0,0,0-.27-.17,2.27,2.27,0,0,0-.35-.14l-.37-.13-.43-.12-.44-.13a7.85,7.85,0,0,1-.8-.28,3.66,3.66,0,0,1-.65-.37,1.49,1.49,0,0,1-.5-.61,2.06,2.06,0,0,1-.17-.86,2,2,0,0,1,.38-1.22,2.08,2.08,0,0,1,1-.73A3.84,3.84,0,0,1,362,212a3.36,3.36,0,0,1,1.87.5,2.14,2.14,0,0,1,.94,1.5l-1.11.28a1.47,1.47,0,0,0-.59-1A1.84,1.84,0,0,0,362,213a1.88,1.88,0,0,0-1,.27.91.91,0,0,0-.43.83.85.85,0,0,0,.11.42,1.3,1.3,0,0,0,.23.3,1.5,1.5,0,0,0,.42.24l.46.16.56.14.12,0,.74.21a6.1,6.1,0,0,1,.66.28,2.43,2.43,0,0,1,.6.42,2,2,0,0,1,.37.59,2,2,0,0,1,.16.83,2.31,2.31,0,0,1-.23,1,2,2,0,0,1-.63.71,3,3,0,0,1-.9.38A4.08,4.08,0,0,1,362.13,220Z"/>
      <path d="M367.77,210.34a.87.87,0,0,1-.64-.27.89.89,0,0,1-.27-.65.87.87,0,0,1,.27-.64.9.9,0,0,1,.64-.26.92.92,0,0,1,.64.26.87.87,0,0,1,.27.64.92.92,0,0,1-.91.92Zm-.69,9.48v-7.68h1.36v7.68Z"/>
      <path d="M373.65,219.82a2,2,0,0,1-1.5-.55,2.07,2.07,0,0,1-.55-1.53v-4.52H370v-1.08h.58a1.08,1.08,0,0,0,.84-.27,1.29,1.29,0,0,0,.25-.9v-1.39H373v2.56h1.76v1.08H373v4.38a1.17,1.17,0,0,0,.29.84,1,1,0,0,0,.77.3h.7v1.08Z"/>
      <path d="M377.36,210.34a.87.87,0,0,1-.64-.27.89.89,0,0,1-.27-.65.87.87,0,0,1,.27-.64.92.92,0,0,1,1.28,0,.87.87,0,0,1,.27.64.89.89,0,0,1-.27.65A.87.87,0,0,1,377.36,210.34Zm-.68,9.48v-7.68H378v7.68Z"/>
      <path d="M385.58,212.14H387l-3.12,7.68h-1.15l-3.11-7.68h1.44l2.25,6.11Z"/>
      <path d="M391.55,220a4,4,0,0,1-2-.48,3.42,3.42,0,0,1-1.38-1.39,4.19,4.19,0,0,1-.52-2.12,4,4,0,0,1,1.09-2.9,4.09,4.09,0,0,1,5.56,0,4.4,4.4,0,0,1,0,5.8A3.75,3.75,0,0,1,391.55,220Zm0-1.12a2.38,2.38,0,0,0,1.82-.79,3,3,0,0,0,.72-2.08,2.93,2.93,0,0,0-.72-2.07,2.35,2.35,0,0,0-1.82-.79,2.32,2.32,0,0,0-1.8.79A3,3,0,0,0,389,216a3,3,0,0,0,.71,2.08A2.36,2.36,0,0,0,391.54,218.85Z"/>
      <path d="M344,239h-1.36l-.74-9.08L338.42,239h-.84l-3.49-9-.74,9H332l.84-11h1.84L338,236.6l3.34-8.58h1.86Z"/>
      <path d="M347.4,229.54a.87.87,0,0,1-.64-.27.89.89,0,0,1-.27-.65.87.87,0,0,1,.27-.64.92.92,0,0,1,1.28,0,.87.87,0,0,1,.27.64.89.89,0,0,1-.27.65A.87.87,0,0,1,347.4,229.54Zm-.68,9.48v-7.68h1.36V239Z"/>
      <path d="M353.26,239.17a3.68,3.68,0,0,1-2.08-.55,2.3,2.3,0,0,1-1-1.58l1.18-.34a1.62,1.62,0,0,0,.63,1.07,2,2,0,0,0,1.26.38,2.88,2.88,0,0,0,.74-.1,1.2,1.2,0,0,0,.56-.38,1,1,0,0,0,.23-.7,1.52,1.52,0,0,0-.06-.32,1.17,1.17,0,0,0-.13-.25.64.64,0,0,0-.22-.21l-.26-.17-.35-.14-.37-.13-.43-.12-.45-.13a7.56,7.56,0,0,1-.79-.28,3.34,3.34,0,0,1-.65-.37,1.43,1.43,0,0,1-.51-.61,2.06,2.06,0,0,1-.16-.86,2,2,0,0,1,.37-1.23,2.12,2.12,0,0,1,1-.72,3.9,3.9,0,0,1,1.37-.22,3.36,3.36,0,0,1,1.87.5,2.1,2.1,0,0,1,.93,1.5l-1.11.28a1.46,1.46,0,0,0-.58-1,1.87,1.87,0,0,0-1.11-.33,1.91,1.91,0,0,0-1,.27.93.93,0,0,0-.43.83.76.76,0,0,0,.12.42,1.07,1.07,0,0,0,.23.3,1.3,1.3,0,0,0,.42.23,3.6,3.6,0,0,0,.45.17l.56.14.12,0,.74.21a5.36,5.36,0,0,1,.66.28,2.1,2.1,0,0,1,.6.42,2,2,0,0,1,.38.59,2.23,2.23,0,0,1,.15.83,2.18,2.18,0,0,1-.23,1,1.71,1.71,0,0,1-.63.7,2.65,2.65,0,0,1-.89.39A4.08,4.08,0,0,1,353.26,239.17Z"/>
      <path d="M360.66,239a2,2,0,0,1-1.5-.55,2.11,2.11,0,0,1-.55-1.53v-4.52H357v-1.08h.58a1.11,1.11,0,0,0,.85-.27,1.34,1.34,0,0,0,.25-.9v-1.39H360v2.56h1.77v1.08H360v4.38a1.14,1.14,0,0,0,.3.84,1,1,0,0,0,.77.3h.7V239Z"/>
      <path d="M370.32,235l0,.37h-6a2.69,2.69,0,0,0,.74,2,2.4,2.4,0,0,0,1.75.69,2.32,2.32,0,0,0,2.14-1.39l1.22.26a3.41,3.41,0,0,1-1.31,1.65,3.59,3.59,0,0,1-2,.6A3.71,3.71,0,0,1,364,238.1a4.55,4.55,0,0,1,0-5.84,3.68,3.68,0,0,1,2.72-1.07,3.43,3.43,0,0,1,2.58,1A3.88,3.88,0,0,1,370.32,235Zm-3.56-2.8a2.33,2.33,0,0,0-1.59.55,2.49,2.49,0,0,0-.81,1.58H369a2.29,2.29,0,0,0-.67-1.58A2.16,2.16,0,0,0,366.76,232.23Z"/>
      <path d="M373.76,232.69a2.29,2.29,0,0,1,.95-1,2.84,2.84,0,0,1,1.47-.4v1.27a2.52,2.52,0,0,0-1.78.57,2.38,2.38,0,0,0-.61,1.82V239h-1.36v-7.68h1.33Z"/>
      <path d="M378.46,229.54a.92.92,0,0,1-.92-.92.87.87,0,0,1,.27-.64.92.92,0,0,1,.65-.26.9.9,0,0,1,.9.9.89.89,0,0,1-.27.65A.85.85,0,0,1,378.46,229.54Zm-.69,9.48v-7.68h1.36V239Z"/>
      <path d="M385.11,239.17a4,4,0,0,1-2-.48,3.38,3.38,0,0,1-1.39-1.39,4.29,4.29,0,0,1-.51-2.12,3.92,3.92,0,0,1,1.09-2.9,3.77,3.77,0,0,1,2.77-1.09,3.81,3.81,0,0,1,2.79,1.09,4,4,0,0,1,1.08,2.9,3.91,3.91,0,0,1-1.09,2.9A3.74,3.74,0,0,1,385.11,239.17Zm0-1.12a2.36,2.36,0,0,0,1.81-.79,3,3,0,0,0,.73-2.08,2.94,2.94,0,0,0-.73-2.07,2.33,2.33,0,0,0-1.81-.79,2.29,2.29,0,0,0-1.8.79,2.93,2.93,0,0,0-.72,2.07,3,3,0,0,0,.72,2.08A2.33,2.33,0,0,0,385.11,238.05Z"/>
      <path d="M393.53,239.17a3.63,3.63,0,0,1-2.07-.55,2.31,2.31,0,0,1-1-1.58l1.18-.34a1.62,1.62,0,0,0,.63,1.07,2,2,0,0,0,1.26.38,2.82,2.82,0,0,0,.74-.1,1.28,1.28,0,0,0,.57-.38,1,1,0,0,0,.22-.7.83.83,0,0,0-.06-.32,1.17,1.17,0,0,0-.13-.25.6.6,0,0,0-.21-.21,2.29,2.29,0,0,0-.27-.17,2.27,2.27,0,0,0-.35-.14l-.37-.13-.43-.12-.44-.13a7.85,7.85,0,0,1-.8-.28,3.34,3.34,0,0,1-.65-.37,1.49,1.49,0,0,1-.5-.61,1.91,1.91,0,0,1-.17-.86,2,2,0,0,1,.37-1.23,2.15,2.15,0,0,1,1-.72,3.84,3.84,0,0,1,1.36-.22,3.36,3.36,0,0,1,1.87.5,2.1,2.1,0,0,1,.93,1.5l-1.1.28a1.47,1.47,0,0,0-.59-1,1.86,1.86,0,0,0-1.1-.33,1.88,1.88,0,0,0-1,.27.91.91,0,0,0-.43.83.76.76,0,0,0,.11.42,1,1,0,0,0,.65.53,4.26,4.26,0,0,0,.46.17l.56.14.12,0,.73.21a6.15,6.15,0,0,1,.67.28,2.43,2.43,0,0,1,.6.42,2,2,0,0,1,.37.59,2.23,2.23,0,0,1,.16.83,2.31,2.31,0,0,1-.23,1,1.86,1.86,0,0,1-.63.7,2.8,2.8,0,0,1-.9.39A4.08,4.08,0,0,1,393.53,239.17Z"/>
      <path d="M401.72,239.17a4,4,0,0,1-2-.48,3.38,3.38,0,0,1-1.39-1.39,4.29,4.29,0,0,1-.51-2.12,3.92,3.92,0,0,1,1.09-2.9,4.09,4.09,0,0,1,5.56,0,4,4,0,0,1,1.08,2.9,3.91,3.91,0,0,1-1.09,2.9A3.73,3.73,0,0,1,401.72,239.17Zm0-1.12a2.36,2.36,0,0,0,1.81-.79,2.93,2.93,0,0,0,.73-2.08,2.89,2.89,0,0,0-.73-2.07,2.33,2.33,0,0,0-1.81-.79,2.29,2.29,0,0,0-1.8.79,2.93,2.93,0,0,0-.72,2.07,3,3,0,0,0,.72,2.08A2.33,2.33,0,0,0,401.71,238.05Z"/>
    </g>
  </g>
</svg>
