<svg id="Layer_1" data-name="Layer 1" xmlns="http://www.w3.org/2000/svg" width="563.56" height="300.44" viewBox="0 0 563.56 300.44">
  <defs>
    <style>
      .cls-1 {
        fill: #f2f2f2;
      }

      .cls-2 {
        opacity: 0.75;
      }

      .cls-3 {
        opacity: 0.5;
      }

      .cls-4 {
        opacity: 0.25;
      }
    </style>
  </defs>
  <g>
    <rect y="228.44" width="70.44" height="72"/>
    <rect width="281.78" height="228.44"/>
    <rect class="cls-1" x="281.78" width="281.78" height="300.44"/>
    <g class="cls-2">
      <rect x="70.44" y="228.44" width="70.44" height="72"/>
    </g>
    <g class="cls-3">
      <rect x="140.89" y="228.44" width="70.44" height="72"/>
    </g>
    <g class="cls-4">
      <rect x="211.33" y="228.44" width="70.44" height="72"/>
    </g>
    <g>
      <path d="M336,55.59h5.54V82.4h-6.43L323.24,63.24V82.4h-5.55V55.59h6.37L336,74.65Z"/>
      <path d="M365.62,72.59l-.06,1.28H351.43A4.92,4.92,0,0,0,353,77.36a4.87,4.87,0,0,0,3.36,1.2,4.68,4.68,0,0,0,2.51-.66,4,4,0,0,0,1.6-1.92l4.9.73A8.35,8.35,0,0,1,362,81.18a9.93,9.93,0,0,1-5.64,1.59,10.34,10.34,0,0,1-7.43-2.62,9.61,9.61,0,0,1-2.75-7.29,9.65,9.65,0,0,1,2.76-7.28,10,10,0,0,1,7.26-2.66A9.57,9.57,0,0,1,363,65.35Q365.6,67.78,365.62,72.59Zm-9.41-5.89q-3.88,0-4.64,3.68h8.76A4,4,0,0,0,359,67.65,4.17,4.17,0,0,0,356.21,66.7Z"/>
      <path d="M382.82,63.33h5.08V81a14.18,14.18,0,0,1-.71,4.75A7.89,7.89,0,0,1,385.12,89,8.71,8.71,0,0,1,382,90.81a13.56,13.56,0,0,1-4.16.59q-7.55,0-9.83-5.92l4.43-1.89a6.56,6.56,0,0,0,2.06,2.77,5.3,5.3,0,0,0,3.14.89c3.3,0,5-2,5-5.89V79.14a6,6,0,0,1-2.4,1.88,7.92,7.92,0,0,1-3.39.71,8.49,8.49,0,0,1-3.35-.67,8.4,8.4,0,0,1-2.77-1.9,8.62,8.62,0,0,1-1.88-3,11,11,0,0,1,0-7.73,8.37,8.37,0,0,1,1.89-3,8.92,8.92,0,0,1,2.78-1.86,8.69,8.69,0,0,1,3.37-.66,7.74,7.74,0,0,1,3.54.79,5.58,5.58,0,0,1,2.36,2.1Zm-8.19,12.61a4.89,4.89,0,0,0,7,0,5.34,5.34,0,0,0,0-7.26,4.95,4.95,0,0,0-7,0,5.1,5.1,0,0,0-1.4,3.67A5,5,0,0,0,374.63,75.94Z"/>
      <path d="M398.57,66.35a6.27,6.27,0,0,1,2.51-2.29,7.58,7.58,0,0,1,3.73-1v4.76A7.29,7.29,0,0,0,400.24,69c-.94.77-1.41,2.13-1.41,4.09V82.4h-5.38V63.33h5.12Z"/>
      <path d="M416.72,82.77a12.11,12.11,0,0,1-5.4-1.16,8.77,8.77,0,0,1-3.7-3.44,10.19,10.19,0,0,1-1.35-5.32,9.34,9.34,0,0,1,2.9-7.24,12.11,12.11,0,0,1,15.12,0,9.33,9.33,0,0,1,2.89,7.24,9.37,9.37,0,0,1-2.89,7.26A10.71,10.71,0,0,1,416.72,82.77Zm-.06-4.25A4.9,4.9,0,0,0,420.44,77a6.61,6.61,0,0,0,0-8.24,4.9,4.9,0,0,0-3.78-1.56A4.71,4.71,0,0,0,413,68.74,6.66,6.66,0,0,0,413,77,4.73,4.73,0,0,0,416.66,78.52Z"/>
    </g>
    <g>
      <path d="M324.56,151.22a3.19,3.19,0,0,1,1.72.46,3.09,3.09,0,0,1,1.16,1.22,3.58,3.58,0,0,1,.4,1.7,3.31,3.31,0,0,1-.91,2.39,3.13,3.13,0,0,1-2.37,1h-2.77v4.27H320.4v-11Zm-.2,5.51a2,2,0,0,0,1.53-.59,2.17,2.17,0,0,0,.55-1.56,2.19,2.19,0,0,0-.55-1.55,2,2,0,0,0-1.53-.6h-2.57v4.3Z"/>
      <path d="M332.49,162.37a4,4,0,0,1-2-.48,3.44,3.44,0,0,1-1.39-1.39,4.29,4.29,0,0,1-.51-2.12,4,4,0,0,1,1.09-2.9,4.09,4.09,0,0,1,5.56,0,4.4,4.4,0,0,1,0,5.8A3.77,3.77,0,0,1,332.49,162.37Zm0-1.12a2.38,2.38,0,0,0,1.82-.79,3,3,0,0,0,.72-2.08,2.93,2.93,0,0,0-.72-2.07,2.35,2.35,0,0,0-1.82-.79,2.32,2.32,0,0,0-1.8.79,2.93,2.93,0,0,0-.71,2.07,3,3,0,0,0,.71,2.08A2.36,2.36,0,0,0,332.48,161.25Z"/>
      <path d="M344.15,150.22h1.35v12h-1.31l0-1.49a2.83,2.83,0,0,1-1.09,1.21,3.05,3.05,0,0,1-1.63.45,3.46,3.46,0,0,1-1.39-.29,3.27,3.27,0,0,1-1.14-.8,3.59,3.59,0,0,1-.78-1.27,4.59,4.59,0,0,1-.28-1.64,4.07,4.07,0,0,1,1-2.89,3.38,3.38,0,0,1,2.55-1.11,3.06,3.06,0,0,1,1.61.44,2.88,2.88,0,0,1,1.1,1.17Zm-2.43,11a2.33,2.33,0,0,0,1.79-.8,2.94,2.94,0,0,0,.72-2,2.88,2.88,0,0,0-.73-2,2.28,2.28,0,0,0-1.78-.81,2.34,2.34,0,0,0-1.79.78,2.89,2.89,0,0,0-.73,2,2.85,2.85,0,0,0,.73,2A2.34,2.34,0,0,0,341.72,161.21Z"/>
      <path d="M355,158.23l0,.37h-6a2.73,2.73,0,0,0,.73,2,2.41,2.41,0,0,0,1.75.69,2.32,2.32,0,0,0,2.15-1.39l1.22.26a3.41,3.41,0,0,1-1.31,1.65,3.59,3.59,0,0,1-2,.6,3.75,3.75,0,0,1-2.77-1.07,4.57,4.57,0,0,1,0-5.84,3.66,3.66,0,0,1,2.72-1.07,3.46,3.46,0,0,1,2.58,1A3.88,3.88,0,0,1,355,158.23Zm-3.56-2.8a2.38,2.38,0,0,0-1.6.55,2.49,2.49,0,0,0-.81,1.58h4.61a2.3,2.3,0,0,0-.68-1.58A2.12,2.12,0,0,0,351.41,155.43Z"/>
      <path d="M358.4,155.89a2.37,2.37,0,0,1,1-1,2.84,2.84,0,0,1,1.47-.4v1.27a2.52,2.52,0,0,0-1.78.57,2.38,2.38,0,0,0-.62,1.82v4.1h-1.35v-7.68h1.32Z"/>
      <path d="M365.56,162.37a4,4,0,0,1-2-.48,3.51,3.51,0,0,1-1.39-1.39,4.29,4.29,0,0,1-.51-2.12,4,4,0,0,1,1.09-2.9,4.09,4.09,0,0,1,5.56,0,4.4,4.4,0,0,1,0,5.8A3.77,3.77,0,0,1,365.56,162.37Zm0-1.12a2.38,2.38,0,0,0,1.82-.79,3,3,0,0,0,.72-2.08,2.93,2.93,0,0,0-.72-2.07,2.35,2.35,0,0,0-1.82-.79,2.32,2.32,0,0,0-1.8.79,2.93,2.93,0,0,0-.71,2.07,3,3,0,0,0,.71,2.08A2.36,2.36,0,0,0,365.55,161.25Z"/>
      <path d="M374,162.37a3.67,3.67,0,0,1-2.07-.55,2.27,2.27,0,0,1-1-1.58l1.18-.34a1.64,1.64,0,0,0,.62,1.07,2.08,2.08,0,0,0,1.27.38,2.74,2.74,0,0,0,.73-.1,1.28,1.28,0,0,0,.57-.38,1,1,0,0,0,.23-.7,1.07,1.07,0,0,0-.07-.32,1,1,0,0,0-.12-.25.64.64,0,0,0-.22-.21l-.26-.17a2.78,2.78,0,0,0-.35-.14l-.37-.13-.43-.12-.45-.13c-.32-.1-.59-.19-.8-.28a3.6,3.6,0,0,1-.64-.37,1.43,1.43,0,0,1-.51-.61,2.06,2.06,0,0,1-.17-.86,2,2,0,0,1,.38-1.22,2.08,2.08,0,0,1,1-.73,3.86,3.86,0,0,1,1.37-.22,3.39,3.39,0,0,1,1.87.5,2.16,2.16,0,0,1,.93,1.5l-1.11.28a1.46,1.46,0,0,0-.59-1,1.82,1.82,0,0,0-1.1-.33,1.91,1.91,0,0,0-1,.27.91.91,0,0,0-.43.83.76.76,0,0,0,.12.42,1.07,1.07,0,0,0,.23.3,1.11,1.11,0,0,0,.42.23,3.6,3.6,0,0,0,.45.17l.56.14.12,0,.74.21a5.36,5.36,0,0,1,.66.28,2.43,2.43,0,0,1,.6.42,2,2,0,0,1,.38.59,2.23,2.23,0,0,1,.15.83,2.31,2.31,0,0,1-.23,1,1.8,1.8,0,0,1-.63.71,2.85,2.85,0,0,1-.89.38A4.1,4.1,0,0,1,374,162.37Z"/>
      <path d="M382.16,162.37a4,4,0,0,1-2-.48,3.42,3.42,0,0,1-1.38-1.39,4.19,4.19,0,0,1-.52-2.12,4,4,0,0,1,1.09-2.9,4.09,4.09,0,0,1,5.56,0,4.4,4.4,0,0,1,0,5.8A3.75,3.75,0,0,1,382.16,162.37Zm0-1.12a2.38,2.38,0,0,0,1.82-.79,3,3,0,0,0,.72-2.08,2.93,2.93,0,0,0-.72-2.07,2.35,2.35,0,0,0-1.82-.79,2.32,2.32,0,0,0-1.8.79,3,3,0,0,0-.71,2.07,3,3,0,0,0,.71,2.08A2.36,2.36,0,0,0,382.15,161.25Z"/>
      <path d="M325.11,181.57a5.93,5.93,0,0,1-2.17-.39,5.62,5.62,0,0,1-1.74-1.11,5,5,0,0,1-1.15-1.79,6.84,6.84,0,0,1,0-4.72,5.09,5.09,0,0,1,1.16-1.79,5.46,5.46,0,0,1,1.73-1.11,5.93,5.93,0,0,1,2.17-.39,5.55,5.55,0,0,1,2.92.78A4.82,4.82,0,0,1,330,173.2l-1.29.53a3.71,3.71,0,0,0-1.44-1.57,4.12,4.12,0,0,0-2.13-.55,4.47,4.47,0,0,0-1.61.29,3.81,3.81,0,0,0-1.29.83,3.7,3.7,0,0,0-.87,1.36,5,5,0,0,0-.32,1.82,5.11,5.11,0,0,0,.32,1.84,3.7,3.7,0,0,0,.87,1.36,3.81,3.81,0,0,0,1.29.83,4.27,4.27,0,0,0,1.61.29,4.12,4.12,0,0,0,2.13-.55,3.66,3.66,0,0,0,1.44-1.55l1.29.52A4.8,4.8,0,0,1,328,180.8,5.65,5.65,0,0,1,325.11,181.57Z"/>
      <path d="M335.25,181.57a4,4,0,0,1-2-.48,3.38,3.38,0,0,1-1.39-1.39,4.29,4.29,0,0,1-.51-2.12,3.92,3.92,0,0,1,1.09-2.9,4.09,4.09,0,0,1,5.56,0,4,4,0,0,1,1.08,2.9,3.91,3.91,0,0,1-1.09,2.9A3.73,3.73,0,0,1,335.25,181.57Zm0-1.12a2.4,2.4,0,0,0,1.82-.79,3.35,3.35,0,0,0,0-4.15,2.36,2.36,0,0,0-1.82-.79,2.31,2.31,0,0,0-1.8.79,3.35,3.35,0,0,0,0,4.15A2.34,2.34,0,0,0,335.24,180.45Z"/>
      <path d="M344.86,173.59a2.69,2.69,0,0,1,1.93.7,2.6,2.6,0,0,1,.72,2v5.17h-1.35v-4.86a1.84,1.84,0,0,0-.47-1.38,1.65,1.65,0,0,0-1.2-.45,1.88,1.88,0,0,0-1.37.53,2.19,2.19,0,0,0-.54,1.57v4.59h-1.35v-7.68h1.35v1A2.56,2.56,0,0,1,344.86,173.59Z"/>
      <path d="M352.58,181.42a2,2,0,0,1-1.5-.55,2.07,2.07,0,0,1-.55-1.53v-4.52H349v-1.08h.58a1.08,1.08,0,0,0,.84-.27,1.29,1.29,0,0,0,.25-.9v-1.39h1.26v2.56h1.76v1.08h-1.76v4.38a1.17,1.17,0,0,0,.29.84,1,1,0,0,0,.77.3h.7v1.08Z"/>
      <path d="M356.93,175.09a2.34,2.34,0,0,1,.95-1,2.85,2.85,0,0,1,1.48-.4v1.27a2.55,2.55,0,0,0-1.79.57,2.38,2.38,0,0,0-.61,1.82v4.1h-1.35v-7.68h1.32Z"/>
      <path d="M364.08,181.57a4,4,0,0,1-2-.48,3.42,3.42,0,0,1-1.38-1.39,4.29,4.29,0,0,1-.51-2.12,3.92,3.92,0,0,1,1.09-2.9,4.08,4.08,0,0,1,5.55,0,4.4,4.4,0,0,1,0,5.8A3.75,3.75,0,0,1,364.08,181.57Zm0-1.12a2.38,2.38,0,0,0,1.81-.79,3.35,3.35,0,0,0,0-4.15,2.47,2.47,0,0,0-3.62,0,3.39,3.39,0,0,0,0,4.15A2.36,2.36,0,0,0,364.08,180.45Z"/>
      <path d="M370.07,181.42v-12h1.36v12Z"/>
      <path d="M376,181.57a2.59,2.59,0,0,1-1.69-.53,1.88,1.88,0,0,1-.66-1.57,2.08,2.08,0,0,1,.22-1,1.67,1.67,0,0,1,.62-.7,3.76,3.76,0,0,1,.9-.44,8.52,8.52,0,0,1,1.17-.27l1.24-.21c.46-.08.68-.32.68-.71A1.33,1.33,0,0,0,378,175a1.9,1.9,0,0,0-1.21-.37,2.06,2.06,0,0,0-1.21.35,1.51,1.51,0,0,0-.57,1.08l-1.22-.25a2.38,2.38,0,0,1,1-1.65,3.54,3.54,0,0,1,2.09-.55,4.21,4.21,0,0,1,1.11.14,2.82,2.82,0,0,1,.93.43,1.89,1.89,0,0,1,.67.82,3.27,3.27,0,0,1,.23,1.27v3.17a1.29,1.29,0,0,0,.18.8.76.76,0,0,0,.61.21h.12v1H380a1.27,1.27,0,0,1-1.45-1h-.07A2.91,2.91,0,0,1,376,181.57Zm.31-1.09a2.05,2.05,0,0,0,1.65-.75,3,3,0,0,0,.62-2l-2,.39a2.73,2.73,0,0,0-1.19.43,1,1,0,0,0-.39.84,1,1,0,0,0,.38.84A1.5,1.5,0,0,0,376.27,180.48Z"/>
      <path d="M388.08,169.42h1.35v12h-1.3l0-1.49a2.86,2.86,0,0,1-1.1,1.21,3,3,0,0,1-1.62.45,3.46,3.46,0,0,1-1.39-.29,3.41,3.41,0,0,1-1.15-.8,3.72,3.72,0,0,1-.77-1.27,4.59,4.59,0,0,1-.28-1.64,4,4,0,0,1,1-2.89,3.35,3.35,0,0,1,2.55-1.11A3.09,3.09,0,0,1,387,174a2.86,2.86,0,0,1,1.09,1.17Zm-2.42,11a2.31,2.31,0,0,0,1.79-.8,2.94,2.94,0,0,0,.72-2,2.88,2.88,0,0,0-.73-2,2.3,2.3,0,0,0-1.78-.81,2.38,2.38,0,0,0-1.8.78,2.93,2.93,0,0,0-.72,2.05,2.89,2.89,0,0,0,.72,2A2.38,2.38,0,0,0,385.66,180.41Z"/>
      <path d="M395.42,181.57a4,4,0,0,1-2-.48,3.44,3.44,0,0,1-1.39-1.39,4.29,4.29,0,0,1-.51-2.12,4,4,0,0,1,1.09-2.9,4.09,4.09,0,0,1,5.56,0,4.4,4.4,0,0,1,0,5.8A3.77,3.77,0,0,1,395.42,181.57Zm0-1.12a2.38,2.38,0,0,0,1.82-.79,3.35,3.35,0,0,0,0-4.15,2.35,2.35,0,0,0-1.82-.79,2.32,2.32,0,0,0-1.8.79,3.39,3.39,0,0,0,0,4.15A2.36,2.36,0,0,0,395.41,180.45Z"/>
      <path d="M402.72,175.09a2.37,2.37,0,0,1,1-1,2.84,2.84,0,0,1,1.47-.4v1.27a2.52,2.52,0,0,0-1.78.57,2.38,2.38,0,0,0-.62,1.82v4.1H401.4v-7.68h1.32Z"/>
      <path d="M327.46,200.62l-.95-2.63h-5l-.94,2.63h-1.46l4.05-11h1.67l4.06,11ZM322,196.76h4.1L324,191Z"/>
      <path d="M335.54,192.94h1.36v7.68h-1.3l0-1a2.42,2.42,0,0,1-1,.86,2.91,2.91,0,0,1-1.34.3,2.67,2.67,0,0,1-1.93-.69,2.59,2.59,0,0,1-.73-2v-5.17H332v4.87a1.83,1.83,0,0,0,.47,1.38,1.68,1.68,0,0,0,1.21.45,1.85,1.85,0,0,0,1.36-.53,2.16,2.16,0,0,0,.53-1.57Z"/>
      <path d="M342.1,200.62a2,2,0,0,1-1.5-.55,2.07,2.07,0,0,1-.55-1.53V194h-1.57v-1.08h.58a1.13,1.13,0,0,0,.85-.27,1.35,1.35,0,0,0,.24-.9v-1.39h1.26v2.56h1.77V194h-1.77v4.38a1.17,1.17,0,0,0,.29.84,1,1,0,0,0,.77.3h.71v1.08Z"/>
      <path d="M348.27,200.77a4,4,0,0,1-2-.48,3.42,3.42,0,0,1-1.38-1.39,4.19,4.19,0,0,1-.52-2.12,4,4,0,0,1,1.09-2.9,4.09,4.09,0,0,1,5.56,0,4.4,4.4,0,0,1,0,5.8A3.75,3.75,0,0,1,348.27,200.77Zm0-1.12a2.38,2.38,0,0,0,1.82-.79,3,3,0,0,0,.72-2.08,2.93,2.93,0,0,0-.72-2.07,2.35,2.35,0,0,0-1.82-.79,2.32,2.32,0,0,0-1.8.79,3,3,0,0,0-.71,2.07,3,3,0,0,0,.71,2.08A2.36,2.36,0,0,0,348.26,199.65Z"/>
      <path d="M355.58,194.29a2.34,2.34,0,0,1,.95-1,2.84,2.84,0,0,1,1.47-.4v1.27a2.52,2.52,0,0,0-1.78.57,2.38,2.38,0,0,0-.61,1.82v4.1h-1.36v-7.68h1.33Z"/>
      <path d="M360.28,191.14a.92.92,0,0,1-.92-.92.87.87,0,0,1,.27-.64.93.93,0,0,1,1.29,0,.9.9,0,0,1,.26.64.92.92,0,0,1-.26.65A.89.89,0,0,1,360.28,191.14Zm-.69,9.48v-7.68H361v7.68Z"/>
      <path d="M366.15,200.62a2,2,0,0,1-1.5-.55,2.1,2.1,0,0,1-.54-1.53V194h-1.57v-1.08h.57a1.11,1.11,0,0,0,.85-.27,1.29,1.29,0,0,0,.25-.9v-1.39h1.26v2.56h1.76V194h-1.76v4.38a1.13,1.13,0,0,0,.29.84,1,1,0,0,0,.77.3h.7v1.08Z"/>
      <path d="M370.86,200.77a2.56,2.56,0,0,1-1.68-.53,1.88,1.88,0,0,1-.66-1.57,2.2,2.2,0,0,1,.21-1,1.7,1.7,0,0,1,.63-.7,3.42,3.42,0,0,1,.9-.44,7.88,7.88,0,0,1,1.17-.27l1.24-.21c.45-.08.68-.32.68-.71a1.33,1.33,0,0,0-.48-1.14,2.19,2.19,0,0,0-2.42,0,1.47,1.47,0,0,0-.57,1.07l-1.22-.25a2.4,2.4,0,0,1,1-1.65,3.6,3.6,0,0,1,2.1-.55,4.32,4.32,0,0,1,1.11.14,2.92,2.92,0,0,1,.93.43,1.94,1.94,0,0,1,.66.82,3.09,3.09,0,0,1,.24,1.27v3.17a1.29,1.29,0,0,0,.18.8.74.74,0,0,0,.6.21h.13v1h-.67c-.83,0-1.32-.34-1.46-1h-.06A2.91,2.91,0,0,1,370.86,200.77Zm.32-1.09a2.07,2.07,0,0,0,1.65-.74,3.12,3.12,0,0,0,.62-2l-2,.39a2.68,2.68,0,0,0-1.19.43,1,1,0,0,0-.39.84,1,1,0,0,0,.37.84A1.55,1.55,0,0,0,371.18,199.68Z"/>
      <path d="M378.79,194.29a2.37,2.37,0,0,1,1-1,2.84,2.84,0,0,1,1.47-.4v1.27a2.52,2.52,0,0,0-1.78.57,2.38,2.38,0,0,0-.61,1.82v4.1h-1.36v-7.68h1.32Z"/>
      <path d="M383.5,191.14a.92.92,0,0,1-.92-.92.87.87,0,0,1,.27-.64.92.92,0,0,1,.65-.26.89.89,0,0,1,.63.26.87.87,0,0,1,.27.64.89.89,0,0,1-.27.65A.86.86,0,0,1,383.5,191.14Zm-.69,9.48v-7.68h1.36v7.68Z"/>
      <path d="M390.15,200.77a4,4,0,0,1-2-.48,3.42,3.42,0,0,1-1.38-1.39,4.29,4.29,0,0,1-.51-2.12,3.92,3.92,0,0,1,1.09-2.9,4.08,4.08,0,0,1,5.55,0,4.4,4.4,0,0,1,0,5.8A3.75,3.75,0,0,1,390.15,200.77Zm0-1.12a2.38,2.38,0,0,0,1.81-.79,3,3,0,0,0,.72-2.08,2.93,2.93,0,0,0-.72-2.07,2.47,2.47,0,0,0-3.62,0,3,3,0,0,0-.71,2.07,3,3,0,0,0,.71,2.08A2.36,2.36,0,0,0,390.15,199.65Z"/>
      <path d="M320.4,219.82v-11h3.54a5.27,5.27,0,0,1,2.8.71,4.31,4.31,0,0,1,1.72,1.94,6.79,6.79,0,0,1,.56,2.84,7.41,7.41,0,0,1-.32,2.23,5.22,5.22,0,0,1-.95,1.74,4.17,4.17,0,0,1-1.6,1.14,5.73,5.73,0,0,1-2.21.4Zm1.39-1.27h2.11a3.35,3.35,0,0,0,2.74-1.13,5.63,5.63,0,0,0,0-6.2,3.36,3.36,0,0,0-2.74-1.12h-2.11Z"/>
      <path d="M332.08,210.34a.92.92,0,0,1-.92-.92.87.87,0,0,1,.27-.64.92.92,0,0,1,.65-.26.89.89,0,0,1,.63.26.87.87,0,0,1,.27.64.89.89,0,0,1-.27.65A.86.86,0,0,1,332.08,210.34Zm-.69,9.48v-7.68h1.36v7.68Z"/>
      <path d="M337.93,220a3.63,3.63,0,0,1-2.07-.55,2.28,2.28,0,0,1-1-1.58l1.18-.34a1.62,1.62,0,0,0,.63,1.07,2,2,0,0,0,1.26.38,2.82,2.82,0,0,0,.74-.1,1.2,1.2,0,0,0,.56-.38,1,1,0,0,0,.23-.7,1.52,1.52,0,0,0-.06-.32,1.46,1.46,0,0,0-.13-.25A.56.56,0,0,0,339,217a2.26,2.26,0,0,0-.26-.17,2.78,2.78,0,0,0-.35-.14l-.37-.13-.43-.12-.45-.13c-.32-.1-.58-.19-.79-.28a3.34,3.34,0,0,1-.65-.37,1.41,1.41,0,0,1-.5-.61,1.91,1.91,0,0,1-.17-.86,2,2,0,0,1,.37-1.22,2.1,2.1,0,0,1,1-.73,3.8,3.8,0,0,1,1.36-.22,3.36,3.36,0,0,1,1.87.5,2.1,2.1,0,0,1,.93,1.5l-1.11.28a1.46,1.46,0,0,0-.58-1,1.86,1.86,0,0,0-1.1-.33,1.92,1.92,0,0,0-1,.27.92.92,0,0,0-.42.83.76.76,0,0,0,.11.42,1.07,1.07,0,0,0,.23.3,1.5,1.5,0,0,0,.42.24l.45.16.57.14.11,0c.31.07.55.14.74.2a6.15,6.15,0,0,1,.67.28,2.18,2.18,0,0,1,.59.42,1.93,1.93,0,0,1,.38.6,2.14,2.14,0,0,1,.15.82,2.18,2.18,0,0,1-.23,1,1.86,1.86,0,0,1-.62.71,3,3,0,0,1-.9.38A4.08,4.08,0,0,1,337.93,220Z"/>
      <path d="M346.07,220a3.67,3.67,0,0,1-2.75-1.1,4.36,4.36,0,0,1,0-5.76,3.68,3.68,0,0,1,2.76-1.11,3.72,3.72,0,0,1,2.22.68,3.33,3.33,0,0,1,1.29,1.86l-1.26.21a2.3,2.3,0,0,0-2.26-1.62,2.27,2.27,0,0,0-1.78.79,3.41,3.41,0,0,0,0,4.14,2.29,2.29,0,0,0,1.78.78,2.3,2.3,0,0,0,2.26-1.62l1.26.21a3.32,3.32,0,0,1-1.3,1.87A3.71,3.71,0,0,1,346.07,220Z"/>
      <path d="M352.26,210.34a.87.87,0,0,1-.64-.27.89.89,0,0,1-.27-.65.87.87,0,0,1,.27-.64.92.92,0,0,1,1.28,0,.87.87,0,0,1,.27.64.89.89,0,0,1-.27.65A.87.87,0,0,1,352.26,210.34Zm-.68,9.48v-7.68h1.35v7.68Z"/>
      <path d="M359.74,212a3.46,3.46,0,0,1,1.39.29,3.36,3.36,0,0,1,1.14.78,3.82,3.82,0,0,1,.77,1.27,4.71,4.71,0,0,1,.29,1.66,4.07,4.07,0,0,1-1,2.9,3.37,3.37,0,0,1-2.55,1.1,3.09,3.09,0,0,1-1.61-.44,2.88,2.88,0,0,1-1.09-1.18v5.32h-1.36V212.14H357l0,1.5a2.75,2.75,0,0,1,1.09-1.2A3.05,3.05,0,0,1,359.74,212Zm-.27,6.82a2.31,2.31,0,0,0,1.78-.77,3.28,3.28,0,0,0,0-4.1,2.31,2.31,0,0,0-1.78-.77,2.34,2.34,0,0,0-1.8.81,2.87,2.87,0,0,0-.74,2,2.91,2.91,0,0,0,.74,2A2.33,2.33,0,0,0,359.47,218.81Z"/>
      <path d="M365.46,219.82v-12h1.37v12Z"/>
      <path d="M370.26,210.34a.87.87,0,0,1-.64-.27.89.89,0,0,1-.27-.65.87.87,0,0,1,.27-.64.92.92,0,0,1,1.28,0,.87.87,0,0,1,.27.64.89.89,0,0,1-.27.65A.87.87,0,0,1,370.26,210.34Zm-.68,9.48v-7.68h1.35v7.68Z"/>
      <path d="M377.31,212a2.67,2.67,0,0,1,1.93.7,2.6,2.6,0,0,1,.73,2v5.17h-1.36V215a1.84,1.84,0,0,0-.46-1.38,1.69,1.69,0,0,0-1.21-.44,1.83,1.83,0,0,0-1.36.52,2.11,2.11,0,0,0-.54,1.57v4.59h-1.36v-7.68H375v1A2.55,2.55,0,0,1,377.31,212Z"/>
      <path d="M384.35,220a2.54,2.54,0,0,1-1.68-.53,1.86,1.86,0,0,1-.67-1.57,2.2,2.2,0,0,1,.22-1,1.67,1.67,0,0,1,.62-.7,3.76,3.76,0,0,1,.9-.44,8.52,8.52,0,0,1,1.17-.27l1.24-.21c.46-.08.68-.32.68-.71a1.33,1.33,0,0,0-.48-1.14,1.9,1.9,0,0,0-1.21-.37,2,2,0,0,0-1.21.36,1.47,1.47,0,0,0-.57,1.07l-1.21-.25a2.33,2.33,0,0,1,1-1.65,3.54,3.54,0,0,1,2.09-.55,4.21,4.21,0,0,1,1.11.14,2.82,2.82,0,0,1,.93.43,1.89,1.89,0,0,1,.67.82,3.09,3.09,0,0,1,.24,1.27v3.17a1.3,1.3,0,0,0,.17.8.76.76,0,0,0,.61.21h.12v1h-.67a1.27,1.27,0,0,1-1.45-1h-.07A2.91,2.91,0,0,1,384.35,220Zm.31-1.09a2.07,2.07,0,0,0,1.65-.74,3.07,3.07,0,0,0,.62-2l-2,.39a2.86,2.86,0,0,0-1.19.43,1,1,0,0,0-.38.84,1,1,0,0,0,.37.84A1.5,1.5,0,0,0,384.66,218.88Z"/>
      <path d="M396.47,207.82h1.36v12h-1.31l0-1.49a2.9,2.9,0,0,1-1.09,1.21,3.05,3.05,0,0,1-1.63.45,3.46,3.46,0,0,1-1.39-.29,3.27,3.27,0,0,1-1.14-.8,3.64,3.64,0,0,1-.78-1.26,4.69,4.69,0,0,1-.28-1.65,4,4,0,0,1,1-2.89,3.36,3.36,0,0,1,2.55-1.11,3.09,3.09,0,0,1,1.61.44,2.86,2.86,0,0,1,1.09,1.17Zm-2.42,11a2.31,2.31,0,0,0,1.79-.8,2.94,2.94,0,0,0,.72-2,2.9,2.9,0,0,0-.73-2,2.3,2.3,0,0,0-1.78-.81,2.38,2.38,0,0,0-1.8.78,2.93,2.93,0,0,0-.72,2.05,2.89,2.89,0,0,0,.72,2A2.38,2.38,0,0,0,394.05,218.81Z"/>
      <path d="M403.81,220a4,4,0,0,1-2-.48,3.51,3.51,0,0,1-1.39-1.39,4.29,4.29,0,0,1-.51-2.12,4,4,0,0,1,1.09-2.9,4.09,4.09,0,0,1,5.56,0,4.4,4.4,0,0,1,0,5.8A3.77,3.77,0,0,1,403.81,220Zm0-1.12a2.38,2.38,0,0,0,1.82-.79,3.35,3.35,0,0,0,0-4.15,2.35,2.35,0,0,0-1.82-.79,2.32,2.32,0,0,0-1.8.79,3.39,3.39,0,0,0,0,4.15A2.36,2.36,0,0,0,403.8,218.85Z"/>
      <path d="M326.29,229.3h-4.46v3.6h3.93v1.25h-3.93v3.6h4.46V239H320.4V228h5.89Z"/>
      <path d="M328.62,239V227H330v12Z"/>
      <path d="M339.46,235l0,.37h-6a2.69,2.69,0,0,0,.74,2,2.4,2.4,0,0,0,1.75.69,2.33,2.33,0,0,0,1.27-.37,2.44,2.44,0,0,0,.88-1l1.21.26a3.41,3.41,0,0,1-1.31,1.65,3.59,3.59,0,0,1-2,.6,3.71,3.71,0,0,1-2.76-1.07,4.55,4.55,0,0,1,0-5.84,3.68,3.68,0,0,1,2.72-1.07,3.47,3.47,0,0,1,2.59,1A3.92,3.92,0,0,1,339.46,235Zm-3.56-2.8a2.35,2.35,0,0,0-1.59.55,2.49,2.49,0,0,0-.81,1.58h4.6a2.29,2.29,0,0,0-.67-1.58A2.16,2.16,0,0,0,335.9,232.23Z"/>
      <path d="M347.14,231.34h1.31v7.29a4.17,4.17,0,0,1-1,3,4.13,4.13,0,0,1-6.48-1.3l1.12-.55a2.54,2.54,0,0,0,2.57,1.78,2.19,2.19,0,0,0,1.8-.75,3.23,3.23,0,0,0,.62-2.1v-1.42a2.71,2.71,0,0,1-1.09,1.11,3.38,3.38,0,0,1-4.09-.67,3.82,3.82,0,0,1-1-2.73,3.74,3.74,0,0,1,1-2.72,3.29,3.29,0,0,1,2.49-1.08,3.15,3.15,0,0,1,1.61.43,2.84,2.84,0,0,1,1.09,1.14Zm-2.44,6.31a2.35,2.35,0,0,0,1.77-.78,2.79,2.79,0,0,0,0-3.76,2.29,2.29,0,0,0-1.77-.79,2.33,2.33,0,0,0-1.77.76,2.7,2.7,0,0,0-.72,1.91,2.66,2.66,0,0,0,.73,1.9A2.32,2.32,0,0,0,344.7,237.65Z"/>
      <path d="M353,239.17a2.62,2.62,0,0,1-1.68-.53,1.88,1.88,0,0,1-.66-1.57,2.28,2.28,0,0,1,.21-1,1.74,1.74,0,0,1,.63-.69,3.42,3.42,0,0,1,.9-.44,9.22,9.22,0,0,1,1.17-.28l1.24-.2c.45-.08.68-.32.68-.71a1.33,1.33,0,0,0-.48-1.14,1.93,1.93,0,0,0-1.22-.37,2,2,0,0,0-1.2.35,1.51,1.51,0,0,0-.57,1.08l-1.22-.26a2.36,2.36,0,0,1,1-1.64,3.6,3.6,0,0,1,2.1-.55,4.32,4.32,0,0,1,1.11.14,3,3,0,0,1,.93.43,1.94,1.94,0,0,1,.66.82,3.09,3.09,0,0,1,.24,1.27V237a1.29,1.29,0,0,0,.18.8.73.73,0,0,0,.6.21h.13v1H357a1.28,1.28,0,0,1-1.45-1h-.06A2.94,2.94,0,0,1,353,239.17Zm.32-1.09a2,2,0,0,0,1.64-.75,3,3,0,0,0,.63-2l-2,.39a2.63,2.63,0,0,0-1.19.43,1,1,0,0,0-.39.84,1,1,0,0,0,.37.84A1.55,1.55,0,0,0,353.29,238.08Z"/>
      <path d="M363.21,231.19a2.69,2.69,0,0,1,1.93.7,2.6,2.6,0,0,1,.72,2V239h-1.35v-4.87a1.79,1.79,0,0,0-.47-1.37,1.65,1.65,0,0,0-1.2-.45,1.88,1.88,0,0,0-1.37.53,2.19,2.19,0,0,0-.54,1.57V239h-1.35v-7.68h1.35v1A2.56,2.56,0,0,1,363.21,231.19Z"/>
      <path d="M370.93,239a2,2,0,0,1-1.5-.55,2.07,2.07,0,0,1-.55-1.53v-4.52h-1.57v-1.08h.58a1.13,1.13,0,0,0,.85-.27,1.35,1.35,0,0,0,.24-.9v-1.39h1.26v2.56H372v1.08h-1.76v4.38a1.17,1.17,0,0,0,.29.84,1,1,0,0,0,.77.3h.7V239Z"/>
      <path d="M380.58,235v.37h-6a2.69,2.69,0,0,0,.73,2,2.49,2.49,0,0,0,3,.32,2.35,2.35,0,0,0,.87-1l1.22.26a3.47,3.47,0,0,1-1.31,1.65,3.59,3.59,0,0,1-2,.6,3.73,3.73,0,0,1-2.77-1.07,4.57,4.57,0,0,1,0-5.84,3.66,3.66,0,0,1,2.72-1.07,3.46,3.46,0,0,1,2.58,1A3.88,3.88,0,0,1,380.58,235Zm-3.55-2.8a2.36,2.36,0,0,0-1.6.55,2.49,2.49,0,0,0-.81,1.58h4.6a2.25,2.25,0,0,0-.67-1.58A2.12,2.12,0,0,0,377,232.23Z"/>
    </g>
    <g>
      <path d="M324.83,117.11a3.41,3.41,0,0,1,2.6,1,3.69,3.69,0,0,1,1,2.6,3.51,3.51,0,0,1-1,2.58,3.43,3.43,0,0,1-2.6,1h-2.36v4h-2.34V117.11Zm-.4,5.28a1.68,1.68,0,0,0,1.29-.44,1.65,1.65,0,0,0,.43-1.22,1.68,1.68,0,0,0-.43-1.21,1.71,1.71,0,0,0-1.29-.45h-2v3.32Z"/>
      <path d="M333.55,128.56a5.15,5.15,0,0,1-2.27-.49,3.7,3.7,0,0,1-1.56-1.45,4.26,4.26,0,0,1-.57-2.24,4,4,0,0,1,1.22-3,5.09,5.09,0,0,1,6.37,0,4.44,4.44,0,0,1,0,6.11A4.52,4.52,0,0,1,333.55,128.56Zm0-1.79a2.07,2.07,0,0,0,1.59-.66,2.44,2.44,0,0,0,.6-1.73,2.49,2.49,0,0,0-.6-1.74,2.1,2.1,0,0,0-1.59-.65,2,2,0,0,0-1.54.66,2.79,2.79,0,0,0,0,3.46A2,2,0,0,0,333.53,126.77Z"/>
      <path d="M342.46,128.56a4.57,4.57,0,0,1-2.35-.56,2.4,2.4,0,0,1-1.14-1.68l1.88-.53a1.51,1.51,0,0,0,1.61,1.2,1.58,1.58,0,0,0,.82-.19.63.63,0,0,0,.32-.62.69.69,0,0,0-.13-.41,1.24,1.24,0,0,0-.41-.3l-.55-.21-.72-.21a7.45,7.45,0,0,1-.74-.23,4.74,4.74,0,0,1-.71-.3,2.68,2.68,0,0,1-.58-.41,1.67,1.67,0,0,1-.44-.63,2.31,2.31,0,0,1-.15-.86,2.06,2.06,0,0,1,.87-1.8,3.94,3.94,0,0,1,2.28-.61,4,4,0,0,1,2.1.52,2.32,2.32,0,0,1,1.08,1.61l-1.75.39a1.35,1.35,0,0,0-1.42-1,1.54,1.54,0,0,0-.79.18.61.61,0,0,0-.27.78.48.48,0,0,0,.16.19l.23.15a1.48,1.48,0,0,0,.32.13,2.89,2.89,0,0,0,.35.1l.41.11.42.11a7,7,0,0,1,.76.23,5.28,5.28,0,0,1,.69.33,2.66,2.66,0,0,1,.6.47,2.29,2.29,0,0,1,.4.67,2.52,2.52,0,0,1,.15.89,2.39,2.39,0,0,1-.27,1.16,2,2,0,0,1-.74.79,3.55,3.55,0,0,1-1,.42A5.44,5.44,0,0,1,342.46,128.56Z"/>
      <path d="M348.53,119.17a1.26,1.26,0,0,1-.92-.38,1.27,1.27,0,0,1,0-1.83,1.28,1.28,0,0,1,.92-.38,1.3,1.3,0,0,1,0,2.59Zm-1.15,9.23v-8h2.27v8Z"/>
      <path d="M355,128.4a2.41,2.41,0,0,1-1.82-.65,2.56,2.56,0,0,1-.64-1.86V122.1h-1.58v-1.73h.51a1.29,1.29,0,0,0,1-.34,1.68,1.68,0,0,0,.32-1.19v-1.06h2v2.59h1.66v1.73h-1.66v3.55c0,.7.31,1,.93,1h.73v1.71Z"/>
      <path d="M359.34,119.17a1.26,1.26,0,0,1-.92-.38,1.22,1.22,0,0,1-.38-.92,1.25,1.25,0,0,1,.38-.91,1.29,1.29,0,0,1,.92-.38,1.27,1.27,0,0,1,.91.38,1.29,1.29,0,0,1,0,1.83A1.27,1.27,0,0,1,359.34,119.17Zm-1.15,9.23v-8h2.27v8Z"/>
      <path d="M368,120.37h2.39l-3.43,8h-2l-3.38-8H364l2,5.49Z"/>
      <path d="M375,128.56a5.17,5.17,0,0,1-2.28-.49,3.62,3.62,0,0,1-1.55-1.45,4.26,4.26,0,0,1-.57-2.24,3.91,3.91,0,0,1,1.22-3,5.07,5.07,0,0,1,6.36,0,4.44,4.44,0,0,1,0,6.11A4.49,4.49,0,0,1,375,128.56Zm0-1.79a2,2,0,0,0,1.59-.66,2.41,2.41,0,0,0,.61-1.73,2.45,2.45,0,0,0-.61-1.74A2.07,2.07,0,0,0,375,122a2,2,0,0,0-1.54.66,2.79,2.79,0,0,0,0,3.46A2,2,0,0,0,375,126.77Z"/>
    </g>
    <g>
      <path d="M438.29,162.37a5.84,5.84,0,0,1-2.16-.39,5.4,5.4,0,0,1-1.74-1.11,5,5,0,0,1-1.16-1.79,6.76,6.76,0,0,1,0-4.72,5.07,5.07,0,0,1,1.15-1.79,5.4,5.4,0,0,1,1.74-1.11,6.08,6.08,0,0,1,4.31,0,5,5,0,0,1,1.73,1.11,5,5,0,0,1,1.16,1.78,6.38,6.38,0,0,1,.42,2.35,6.49,6.49,0,0,1-.42,2.37,5.09,5.09,0,0,1-1.16,1.79,5.35,5.35,0,0,1-1.73,1.11A5.86,5.86,0,0,1,438.29,162.37Zm0-1.32a4,4,0,0,0,2.91-1.16,4.29,4.29,0,0,0,1.15-3.18,5,5,0,0,0-.31-1.82,3.7,3.7,0,0,0-.87-1.36,3.81,3.81,0,0,0-1.29-.83,4.36,4.36,0,0,0-1.59-.29,4.42,4.42,0,0,0-1.6.29,3.76,3.76,0,0,0-1.3.83,3.7,3.7,0,0,0-.87,1.36,5,5,0,0,0-.31,1.82,5.17,5.17,0,0,0,.31,1.85,3.75,3.75,0,0,0,.87,1.37,4.07,4.07,0,0,0,1.3.83A4.42,4.42,0,0,0,438.29,161.05Z"/>
      <path d="M450.14,154.39a3.43,3.43,0,0,1,1.39.29,3.36,3.36,0,0,1,1.14.78,3.66,3.66,0,0,1,.77,1.27,4.71,4.71,0,0,1,.29,1.66,4,4,0,0,1-1,2.89,3.35,3.35,0,0,1-2.55,1.11,3,3,0,0,1-1.6-.44,2.9,2.9,0,0,1-1.1-1.18v5.32h-1.35V154.54h1.3l0,1.49a2.81,2.81,0,0,1,1.1-1.19A3,3,0,0,1,450.14,154.39Zm-.26,6.82a2.31,2.31,0,0,0,1.77-.77,3.24,3.24,0,0,0,0-4.1,2.31,2.31,0,0,0-1.77-.77,2.37,2.37,0,0,0-1.81.8,3.16,3.16,0,0,0,0,4A2.37,2.37,0,0,0,449.88,161.21Z"/>
      <path d="M457.18,155.89a2.34,2.34,0,0,1,.95-1,2.91,2.91,0,0,1,1.48-.4v1.27a2.52,2.52,0,0,0-1.78.57,2.38,2.38,0,0,0-.62,1.82v4.1h-1.35v-7.68h1.32Z"/>
      <path d="M467.82,158.23v.37h-6a2.69,2.69,0,0,0,.73,2,2.4,2.4,0,0,0,1.75.69,2.33,2.33,0,0,0,1.27-.37,2.37,2.37,0,0,0,.88-1l1.22.26a3.53,3.53,0,0,1-1.31,1.65,3.59,3.59,0,0,1-2,.6,3.73,3.73,0,0,1-2.77-1.07,4.57,4.57,0,0,1,0-5.84,3.66,3.66,0,0,1,2.72-1.07,3.46,3.46,0,0,1,2.58,1A3.88,3.88,0,0,1,467.82,158.23Zm-3.55-2.8a2.36,2.36,0,0,0-1.6.55,2.49,2.49,0,0,0-.81,1.58h4.6a2.25,2.25,0,0,0-.67-1.58A2.12,2.12,0,0,0,464.27,155.43Z"/>
      <path d="M472.37,162.37a3.63,3.63,0,0,1-2.07-.55,2.31,2.31,0,0,1-1-1.58l1.18-.34a1.62,1.62,0,0,0,.63,1.07,2.07,2.07,0,0,0,1.26.38,2.82,2.82,0,0,0,.74-.1,1.28,1.28,0,0,0,.57-.38,1,1,0,0,0,.22-.7.83.83,0,0,0-.06-.32c0-.09-.08-.18-.12-.25a.64.64,0,0,0-.22-.21,2.29,2.29,0,0,0-.27-.17,2.27,2.27,0,0,0-.35-.14l-.37-.13-.43-.12-.44-.13a7.85,7.85,0,0,1-.8-.28,3.66,3.66,0,0,1-.65-.37,1.49,1.49,0,0,1-.5-.61,2.06,2.06,0,0,1-.17-.86,2,2,0,0,1,.37-1.22,2.1,2.1,0,0,1,1-.73,3.84,3.84,0,0,1,1.36-.22,3.36,3.36,0,0,1,1.87.5,2.14,2.14,0,0,1,.94,1.5l-1.11.28a1.5,1.5,0,0,0-.59-1,1.84,1.84,0,0,0-1.1-.33,1.88,1.88,0,0,0-1,.27.91.91,0,0,0-.43.83.85.85,0,0,0,.11.42,1,1,0,0,0,.65.53,4.26,4.26,0,0,0,.46.17l.56.14.12,0,.73.21a5.42,5.42,0,0,1,.67.28,2.43,2.43,0,0,1,.6.42,2,2,0,0,1,.37.59,2,2,0,0,1,.16.83,2.31,2.31,0,0,1-.23,1,2,2,0,0,1-.63.71,3,3,0,0,1-.9.38A4.08,4.08,0,0,1,472.37,162.37Z"/>
      <path d="M478,152.74a.87.87,0,0,1-.64-.27.89.89,0,0,1-.27-.65.87.87,0,0,1,.27-.64.9.9,0,0,1,.64-.26.92.92,0,0,1,.64.26.87.87,0,0,1,.27.64.92.92,0,0,1-.91.92Zm-.69,9.48v-7.68h1.36v7.68Z"/>
      <path d="M486.22,154.54h1.45l-3.13,7.68h-1.15l-3.11-7.68h1.44l2.25,6.11Z"/>
      <path d="M492.2,162.37a4,4,0,0,1-2-.48,3.44,3.44,0,0,1-1.39-1.39,4.29,4.29,0,0,1-.51-2.12,3.92,3.92,0,0,1,1.09-2.9,4.09,4.09,0,0,1,5.56,0,4,4,0,0,1,1.08,2.9,3.91,3.91,0,0,1-1.09,2.9A3.73,3.73,0,0,1,492.2,162.37Zm0-1.12a2.4,2.4,0,0,0,1.82-.79,3,3,0,0,0,.72-2.08,2.93,2.93,0,0,0-.72-2.07,2.36,2.36,0,0,0-1.82-.79,2.32,2.32,0,0,0-1.8.79,2.93,2.93,0,0,0-.72,2.07,3,3,0,0,0,.72,2.08A2.36,2.36,0,0,0,492.19,161.25Z"/>
      <path d="M439.53,171.7H435v3.59H439v1.27H435v4.86h-1.43v-11h5.95Z"/>
      <path d="M442.85,175.09a2.37,2.37,0,0,1,1-1,2.84,2.84,0,0,1,1.47-.4v1.27a2.52,2.52,0,0,0-1.78.57,2.38,2.38,0,0,0-.62,1.82v4.1h-1.35v-7.68h1.32Z"/>
      <path d="M447.56,171.94a.92.92,0,0,1-.92-.92.87.87,0,0,1,.27-.64.92.92,0,0,1,.65-.26.89.89,0,0,1,.63.26.87.87,0,0,1,.27.64.89.89,0,0,1-.27.65A.86.86,0,0,1,447.56,171.94Zm-.69,9.48v-7.68h1.36v7.68Z"/>
      <path d="M454.21,181.57a4,4,0,0,1-2-.48,3.42,3.42,0,0,1-1.38-1.39,4.29,4.29,0,0,1-.51-2.12,3.92,3.92,0,0,1,1.09-2.9,4.08,4.08,0,0,1,5.55,0,4.4,4.4,0,0,1,0,5.8A3.75,3.75,0,0,1,454.21,181.57Zm0-1.12a2.38,2.38,0,0,0,1.81-.79,3,3,0,0,0,.72-2.08,2.93,2.93,0,0,0-.72-2.07,2.47,2.47,0,0,0-3.62,0,3,3,0,0,0-.71,2.07,3,3,0,0,0,.71,2.08A2.36,2.36,0,0,0,454.21,180.45Z"/>
      <path d="M440.64,200.62,439.7,198h-5l-.94,2.63h-1.46l4.06-11h1.67l4.05,11Zm-5.47-3.86h4.09L437.21,191Z"/>
      <path d="M451.8,192.79a2.47,2.47,0,0,1,1.79.66,2.41,2.41,0,0,1,.68,1.83v5.34h-1.35v-5a1.71,1.71,0,0,0-.43-1.27,1.44,1.44,0,0,0-1.07-.42,1.53,1.53,0,0,0-1.17.48,2.11,2.11,0,0,0-.44,1.45v4.75h-1.38v-4.93a1.82,1.82,0,0,0-.42-1.31,1.44,1.44,0,0,0-1.09-.44,1.5,1.5,0,0,0-1.17.49,2.16,2.16,0,0,0-.45,1.49v4.7H444v-7.68h1.35v1a2.31,2.31,0,0,1,.88-.85,2.48,2.48,0,0,1,1.22-.3,2.55,2.55,0,0,1,1.31.33,2,2,0,0,1,.85.93,2.38,2.38,0,0,1,.93-.93A2.58,2.58,0,0,1,451.8,192.79Z"/>
      <path d="M463.6,196.63V197h-6a2.69,2.69,0,0,0,.73,2,2.4,2.4,0,0,0,1.75.69,2.36,2.36,0,0,0,1.28-.37,2.41,2.41,0,0,0,.87-1l1.22.26a3.47,3.47,0,0,1-1.31,1.65,3.59,3.59,0,0,1-2,.6,3.75,3.75,0,0,1-2.77-1.07,4.57,4.57,0,0,1,0-5.84,3.66,3.66,0,0,1,2.72-1.07,3.46,3.46,0,0,1,2.58,1A3.89,3.89,0,0,1,463.6,196.63Zm-3.55-2.8a2.36,2.36,0,0,0-1.6.55,2.49,2.49,0,0,0-.81,1.58h4.6a2.25,2.25,0,0,0-.67-1.58A2.12,2.12,0,0,0,460.05,193.83Z"/>
      <path d="M469.35,192.79a2.69,2.69,0,0,1,1.93.7,2.6,2.6,0,0,1,.72,2v5.17h-1.35v-4.86a1.84,1.84,0,0,0-.47-1.38,1.65,1.65,0,0,0-1.2-.44,1.87,1.87,0,0,0-1.37.52,2.19,2.19,0,0,0-.54,1.57v4.59h-1.35v-7.68h1.35v1A2.56,2.56,0,0,1,469.35,192.79Z"/>
      <path d="M476.38,200.77a2.56,2.56,0,0,1-1.68-.53,1.88,1.88,0,0,1-.66-1.57,2.2,2.2,0,0,1,.21-1,1.7,1.7,0,0,1,.63-.7,3.42,3.42,0,0,1,.9-.44,7.88,7.88,0,0,1,1.17-.27l1.24-.21c.45-.08.68-.32.68-.71a1.33,1.33,0,0,0-.48-1.14,2.19,2.19,0,0,0-2.42,0,1.47,1.47,0,0,0-.57,1.07l-1.22-.25a2.4,2.4,0,0,1,1-1.65,3.6,3.6,0,0,1,2.1-.55,4.32,4.32,0,0,1,1.11.14,2.82,2.82,0,0,1,.93.43,1.94,1.94,0,0,1,.66.82,3.09,3.09,0,0,1,.24,1.27v3.17a1.29,1.29,0,0,0,.18.8.74.74,0,0,0,.6.21h.13v1h-.67c-.83,0-1.32-.34-1.46-1h-.06A2.94,2.94,0,0,1,476.38,200.77Zm.32-1.09a2.07,2.07,0,0,0,1.65-.74,3.12,3.12,0,0,0,.62-2l-2,.39a2.68,2.68,0,0,0-1.19.43,1.12,1.12,0,0,0,0,1.68A1.55,1.55,0,0,0,476.7,199.68Z"/>
      <path d="M484.06,199.53h4.09v1.09H482l4-6.58h-3.81v-1.1h5.88Z"/>
      <path d="M491.53,200.77a2.57,2.57,0,0,1-1.69-.53,1.88,1.88,0,0,1-.66-1.57,2.2,2.2,0,0,1,.21-1,1.7,1.7,0,0,1,.63-.7,3.42,3.42,0,0,1,.9-.44,8.19,8.19,0,0,1,1.17-.27l1.24-.21c.45-.08.68-.32.68-.71a1.33,1.33,0,0,0-.48-1.14,1.93,1.93,0,0,0-1.22-.37,2,2,0,0,0-1.2.36,1.47,1.47,0,0,0-.57,1.07l-1.22-.25a2.4,2.4,0,0,1,1-1.65,3.6,3.6,0,0,1,2.1-.55,4.32,4.32,0,0,1,1.11.14,2.82,2.82,0,0,1,.93.43,1.94,1.94,0,0,1,.66.82,3.09,3.09,0,0,1,.24,1.27v3.17a1.29,1.29,0,0,0,.18.8.75.75,0,0,0,.6.21h.13v1h-.67c-.83,0-1.32-.34-1.46-1H494A2.93,2.93,0,0,1,491.53,200.77Zm.31-1.09a2.07,2.07,0,0,0,1.65-.74,3.12,3.12,0,0,0,.62-2l-2,.39a2.68,2.68,0,0,0-1.19.43,1.12,1.12,0,0,0,0,1.68A1.55,1.55,0,0,0,491.84,199.68Z"/>
      <path d="M501.76,192.79a2.67,2.67,0,0,1,1.93.7,2.6,2.6,0,0,1,.73,2v5.17h-1.36v-4.86a1.84,1.84,0,0,0-.46-1.38,1.69,1.69,0,0,0-1.21-.44,1.85,1.85,0,0,0-1.36.52,2.11,2.11,0,0,0-.54,1.57v4.59h-1.36v-7.68h1.36v1A2.55,2.55,0,0,1,501.76,192.79Z"/>
      <path d="M509.48,200.62a2,2,0,0,1-1.5-.55,2.07,2.07,0,0,1-.55-1.53V194h-1.57v-1.08h.58a1.13,1.13,0,0,0,.85-.27,1.35,1.35,0,0,0,.24-.9v-1.39h1.26v2.56h1.77V194h-1.77v4.38a1.17,1.17,0,0,0,.29.84,1,1,0,0,0,.77.3h.71v1.08Z"/>
      <path d="M519.13,196.63V197h-6a2.69,2.69,0,0,0,.73,2,2.41,2.41,0,0,0,1.75.69,2.36,2.36,0,0,0,1.28-.37,2.41,2.41,0,0,0,.87-1l1.22.26a3.47,3.47,0,0,1-1.31,1.65,3.59,3.59,0,0,1-2,.6,3.75,3.75,0,0,1-2.77-1.07,4.57,4.57,0,0,1,0-5.84,3.66,3.66,0,0,1,2.72-1.07,3.46,3.46,0,0,1,2.58,1A3.89,3.89,0,0,1,519.13,196.63Zm-3.55-2.8a2.36,2.36,0,0,0-1.6.55,2.49,2.49,0,0,0-.81,1.58h4.61a2.3,2.3,0,0,0-.68-1.58A2.12,2.12,0,0,0,515.58,193.83Z"/>
      <path d="M437.74,208.82a3.24,3.24,0,0,1,1.73.46,3.07,3.07,0,0,1,1.15,1.22,3.59,3.59,0,0,1,.41,1.7,3.36,3.36,0,0,1-.91,2.39,3.13,3.13,0,0,1-2.38,1H435v4.27h-1.4v-11Zm-.2,5.51a2,2,0,0,0,1.53-.59,2.18,2.18,0,0,0,.56-1.56,2.2,2.2,0,0,0-.56-1.55,2,2,0,0,0-1.53-.6H435v4.3Z"/>
      <path d="M449.16,215.83l0,.37h-6a2.69,2.69,0,0,0,.74,2,2.4,2.4,0,0,0,1.75.69,2.33,2.33,0,0,0,1.27-.37,2.44,2.44,0,0,0,.88-1l1.21.26a3.41,3.41,0,0,1-1.31,1.65,3.59,3.59,0,0,1-2,.6,3.71,3.71,0,0,1-2.76-1.07,4.55,4.55,0,0,1,0-5.84A3.68,3.68,0,0,1,445.6,212a3.47,3.47,0,0,1,2.59,1A3.92,3.92,0,0,1,449.16,215.83ZM445.6,213a2.35,2.35,0,0,0-1.59.55,2.49,2.49,0,0,0-.81,1.58h4.6a2.29,2.29,0,0,0-.67-1.58A2.16,2.16,0,0,0,445.6,213Z"/>
      <path d="M453.71,220a3.68,3.68,0,0,1-2.08-.55,2.3,2.3,0,0,1-1-1.58l1.18-.34a1.62,1.62,0,0,0,.63,1.07,2,2,0,0,0,1.26.38,2.88,2.88,0,0,0,.74-.1,1.2,1.2,0,0,0,.56-.38,1,1,0,0,0,.23-.7,1.52,1.52,0,0,0-.06-.32,1.46,1.46,0,0,0-.13-.25.64.64,0,0,0-.22-.21l-.26-.17a2.78,2.78,0,0,0-.35-.14l-.37-.13-.43-.12-.45-.13a7.56,7.56,0,0,1-.79-.28,3.34,3.34,0,0,1-.65-.37A1.51,1.51,0,0,1,451,215a2.06,2.06,0,0,1-.16-.86,2,2,0,0,1,.37-1.23,2.18,2.18,0,0,1,1-.72,3.9,3.9,0,0,1,1.37-.22,3.36,3.36,0,0,1,1.87.5,2.1,2.1,0,0,1,.93,1.5l-1.11.28a1.46,1.46,0,0,0-.58-1,1.87,1.87,0,0,0-1.11-.33,1.91,1.91,0,0,0-1,.27.93.93,0,0,0-.43.83.76.76,0,0,0,.12.42,1.07,1.07,0,0,0,.23.3,1.3,1.3,0,0,0,.42.23,3.6,3.6,0,0,0,.45.17l.56.14.12,0,.74.21a5.36,5.36,0,0,1,.66.28,2.1,2.1,0,0,1,.6.42,2,2,0,0,1,.38.59,2.23,2.23,0,0,1,.15.83,2.18,2.18,0,0,1-.23,1,1.71,1.71,0,0,1-.63.7,2.65,2.65,0,0,1-.89.39A4.08,4.08,0,0,1,453.71,220Z"/>
      <path d="M460.43,220a2.62,2.62,0,0,1-1.68-.53,1.88,1.88,0,0,1-.66-1.57,2.28,2.28,0,0,1,.21-1,1.78,1.78,0,0,1,.62-.69,3.65,3.65,0,0,1,.91-.44,9.46,9.46,0,0,1,1.16-.28l1.25-.2c.45-.08.68-.32.68-.71a1.33,1.33,0,0,0-.48-1.14,1.93,1.93,0,0,0-1.22-.37,2,2,0,0,0-1.2.35,1.45,1.45,0,0,0-.57,1.08l-1.22-.26a2.33,2.33,0,0,1,1-1.64,3.56,3.56,0,0,1,2.09-.55,4.35,4.35,0,0,1,1.12.14,3,3,0,0,1,.93.43,1.94,1.94,0,0,1,.66.82,3.09,3.09,0,0,1,.24,1.27v3.17a1.37,1.37,0,0,0,.17.8.76.76,0,0,0,.61.21h.12v1h-.67a1.27,1.27,0,0,1-1.45-1H463A2.92,2.92,0,0,1,460.43,220Zm.31-1.09a2,2,0,0,0,1.65-.75,3,3,0,0,0,.63-2l-2,.39a2.63,2.63,0,0,0-1.19.43,1,1,0,0,0-.39.84,1,1,0,0,0,.37.84A1.54,1.54,0,0,0,460.74,218.88Z"/>
      <path d="M472.56,207.82h1.35v12H472.6l0-1.49a2.83,2.83,0,0,1-1.09,1.21,3.05,3.05,0,0,1-1.63.45,3.46,3.46,0,0,1-1.39-.29,3.37,3.37,0,0,1-1.14-.8,3.57,3.57,0,0,1-.77-1.27,4.39,4.39,0,0,1-.29-1.64,4.07,4.07,0,0,1,1-2.89,3.38,3.38,0,0,1,2.55-1.11,3.06,3.06,0,0,1,1.61.44,2.88,2.88,0,0,1,1.1,1.17Zm-2.43,11a2.33,2.33,0,0,0,1.79-.8,3.19,3.19,0,0,0,0-4,2.32,2.32,0,0,0-1.79-.81,2.34,2.34,0,0,0-1.79.78,2.89,2.89,0,0,0-.73,2.05,2.85,2.85,0,0,0,.73,2A2.34,2.34,0,0,0,470.13,218.81Z"/>
      <path d="M479.89,220a4,4,0,0,1-2-.48,3.42,3.42,0,0,1-1.38-1.39A4.29,4.29,0,0,1,476,216a3.91,3.91,0,0,1,1.09-2.9,4.08,4.08,0,0,1,5.55,0,4.4,4.4,0,0,1,0,5.8A3.75,3.75,0,0,1,479.89,220Zm0-1.12a2.38,2.38,0,0,0,1.82-.79,3.35,3.35,0,0,0,0-4.15,2.35,2.35,0,0,0-1.82-.79,2.32,2.32,0,0,0-1.8.79,3.39,3.39,0,0,0,0,4.15A2.36,2.36,0,0,0,479.88,218.85Z"/>
      <path d="M445.21,239h-1.36l-.73-9.08L439.6,239h-.83l-3.49-9-.75,9h-1.36l.83-11h1.85l3.33,8.58,3.35-8.58h1.85Z"/>
      <path d="M449.56,239.17a2.62,2.62,0,0,1-1.68-.53,1.88,1.88,0,0,1-.66-1.57,2.28,2.28,0,0,1,.21-1,1.74,1.74,0,0,1,.63-.69,3.42,3.42,0,0,1,.9-.44,9.22,9.22,0,0,1,1.17-.28l1.24-.2c.45-.08.68-.32.68-.71a1.33,1.33,0,0,0-.48-1.14,1.93,1.93,0,0,0-1.22-.37,2,2,0,0,0-1.2.35,1.51,1.51,0,0,0-.57,1.08l-1.22-.26a2.4,2.4,0,0,1,1-1.64,3.6,3.6,0,0,1,2.1-.55,4.32,4.32,0,0,1,1.11.14,2.92,2.92,0,0,1,.93.43,1.94,1.94,0,0,1,.66.82,3.09,3.09,0,0,1,.24,1.27V237a1.29,1.29,0,0,0,.18.8.74.74,0,0,0,.6.21h.13v1h-.67c-.83,0-1.32-.34-1.46-1h-.06A2.94,2.94,0,0,1,449.56,239.17Zm.32-1.09a2.05,2.05,0,0,0,1.65-.75,3.08,3.08,0,0,0,.62-2l-2,.39a2.68,2.68,0,0,0-1.19.43,1.12,1.12,0,0,0,0,1.68A1.55,1.55,0,0,0,449.88,238.08Z"/>
      <path d="M456.17,239V227h1.37v12Z"/>
      <path d="M467,235l0,.37h-6a2.69,2.69,0,0,0,.74,2,2.4,2.4,0,0,0,1.75.69,2.33,2.33,0,0,0,1.27-.37,2.44,2.44,0,0,0,.88-1l1.22.26a3.48,3.48,0,0,1-1.32,1.65,3.59,3.59,0,0,1-2,.6,3.71,3.71,0,0,1-2.76-1.07,4.55,4.55,0,0,1,0-5.84,3.7,3.7,0,0,1,2.73-1.07,3.46,3.46,0,0,1,2.58,1A3.86,3.86,0,0,1,467,235Zm-3.55-2.8a2.36,2.36,0,0,0-1.6.55,2.49,2.49,0,0,0-.81,1.58h4.6a2.29,2.29,0,0,0-.67-1.58A2.14,2.14,0,0,0,463.46,232.23Z"/>
      <path d="M473.61,231.34h1.45L471.93,239h-1.15l-3.11-7.68h1.44l2.25,6.11Z"/>
      <path d="M479.59,239.17a4,4,0,0,1-2-.48,3.44,3.44,0,0,1-1.39-1.39,4.29,4.29,0,0,1-.51-2.12,3.92,3.92,0,0,1,1.09-2.9,4.09,4.09,0,0,1,5.56,0,4.4,4.4,0,0,1,0,5.8A3.77,3.77,0,0,1,479.59,239.17Zm0-1.12a2.38,2.38,0,0,0,1.82-.79,3,3,0,0,0,.72-2.08,2.93,2.93,0,0,0-.72-2.07,2.35,2.35,0,0,0-1.82-.79,2.32,2.32,0,0,0-1.8.79,2.93,2.93,0,0,0-.72,2.07,3,3,0,0,0,.72,2.08A2.36,2.36,0,0,0,479.58,238.05Z"/>
      <path d="M485.57,239V227h1.37v12Z"/>
      <path d="M492.92,239.17a4,4,0,0,1-2-.48,3.38,3.38,0,0,1-1.39-1.39,4.29,4.29,0,0,1-.51-2.12,3.92,3.92,0,0,1,1.09-2.9,3.77,3.77,0,0,1,2.77-1.09,3.81,3.81,0,0,1,2.79,1.09,4,4,0,0,1,1.08,2.9,3.91,3.91,0,0,1-1.09,2.9A3.75,3.75,0,0,1,492.92,239.17Zm0-1.12a2.36,2.36,0,0,0,1.81-.79,3,3,0,0,0,.73-2.08,2.94,2.94,0,0,0-.73-2.07,2.33,2.33,0,0,0-1.81-.79,2.29,2.29,0,0,0-1.8.79,2.93,2.93,0,0,0-.72,2.07,3,3,0,0,0,.72,2.08A2.33,2.33,0,0,0,492.92,238.05Z"/>
    </g>
    <g>
      <path d="M441,117.11h2.33V128.4h-2.71l-5-8.07v8.07h-2.34V117.11H436l5,8Z"/>
      <path d="M453.49,124.27l0,.54h-6a2.06,2.06,0,0,0,.64,1.47,2.23,2.23,0,0,0,2.47.23,1.75,1.75,0,0,0,.68-.81l2.06.3a3.56,3.56,0,0,1-1.41,1.89,4.15,4.15,0,0,1-2.37.67,4.34,4.34,0,0,1-3.13-1.11,4,4,0,0,1-1.16-3.06,4.09,4.09,0,0,1,1.16-3.07,4.23,4.23,0,0,1,3.06-1.12,3.67,3.67,0,0,1,4,4.07Zm-4-2.48a1.78,1.78,0,0,0-1.95,1.55h3.69a1.69,1.69,0,0,0-.56-1.15A1.77,1.77,0,0,0,449.53,121.79Z"/>
      <path d="M460.74,120.37h2.14v7.43a6,6,0,0,1-.3,2,3.23,3.23,0,0,1-.87,1.37,3.65,3.65,0,0,1-1.34.77,5.52,5.52,0,0,1-1.75.25q-3.18,0-4.14-2.49l1.87-.8a2.71,2.71,0,0,0,.86,1.17,2.21,2.21,0,0,0,1.32.37c1.39,0,2.09-.82,2.09-2.48V127a2.53,2.53,0,0,1-1,.79,3.39,3.39,0,0,1-1.43.3,3.58,3.58,0,0,1-1.41-.28,3.75,3.75,0,0,1-1.17-.8,3.81,3.81,0,0,1-.79-1.26,4.73,4.73,0,0,1,0-3.26,3.59,3.59,0,0,1,.8-1.24,3.34,3.34,0,0,1,1.17-.78,3.57,3.57,0,0,1,1.42-.29,3.3,3.3,0,0,1,1.49.34,2.31,2.31,0,0,1,1,.88Zm-3.45,5.31a1.94,1.94,0,0,0,1.47.62,2,2,0,0,0,1.48-.62,2.25,2.25,0,0,0,0-3.06,2.09,2.09,0,0,0-3,0,2.14,2.14,0,0,0-.59,1.54A2.1,2.1,0,0,0,457.29,125.68Z"/>
      <path d="M471.8,126.22a7.51,7.51,0,0,0,.19,2v.22h-2.1l-.18-.87a2.59,2.59,0,0,1-1.12.77,4.24,4.24,0,0,1-1.46.26,4.54,4.54,0,0,1-.75-.07,2.68,2.68,0,0,1-.67-.24,2,2,0,0,1-.56-.42,1.66,1.66,0,0,1-.37-.64,2.33,2.33,0,0,1-.15-.87,2.41,2.41,0,0,1,.15-.87,2.08,2.08,0,0,1,.39-.65,2.49,2.49,0,0,1,.64-.48,5,5,0,0,1,.79-.34,9.36,9.36,0,0,1,1-.25l1.32-.3a1.31,1.31,0,0,0,.59-.25.5.5,0,0,0,.18-.4.85.85,0,0,0-.39-.78,2,2,0,0,0-1-.23,1.38,1.38,0,0,0-1.57,1.23l-2-.36a2.7,2.7,0,0,1,1.16-1.84,4.65,4.65,0,0,1,2.52-.59q3.38,0,3.38,2.9Zm-4,.81a1.8,1.8,0,0,0,1.39-.58,2.43,2.43,0,0,0,.54-1.72l-1.91.54a2.14,2.14,0,0,0-.8.33.68.68,0,0,0-.28.58.74.74,0,0,0,.3.63A1.22,1.22,0,0,0,467.84,127Z"/>
      <path d="M476.87,128.4a2.39,2.39,0,0,1-1.81-.65,2.52,2.52,0,0,1-.64-1.86V122.1h-1.58v-1.73h.51a1.32,1.32,0,0,0,1-.34,1.73,1.73,0,0,0,.32-1.19v-1.06h2v2.59h1.65v1.73H476.7v3.55c0,.7.31,1,.93,1h.72v1.71Z"/>
      <path d="M481.24,119.17a1.28,1.28,0,0,1-.92-.38,1.26,1.26,0,0,1-.38-.92,1.23,1.23,0,0,1,.39-.91,1.28,1.28,0,0,1,1.82,0,1.29,1.29,0,0,1,0,1.83A1.25,1.25,0,0,1,481.24,119.17Zm-1.14,9.23v-8h2.26v8Z"/>
      <path d="M489.92,120.37h2.38l-3.42,8h-2l-3.38-8h2.37l2,5.49Z"/>
      <path d="M496.9,128.56a5.15,5.15,0,0,1-2.27-.49,3.7,3.7,0,0,1-1.56-1.45,4.26,4.26,0,0,1-.57-2.24,4,4,0,0,1,1.22-3,5.09,5.09,0,0,1,6.37,0,4.44,4.44,0,0,1,0,6.11A4.52,4.52,0,0,1,496.9,128.56Zm0-1.79a2.07,2.07,0,0,0,1.59-.66,2.44,2.44,0,0,0,.6-1.73,2.49,2.49,0,0,0-.6-1.74,2.1,2.1,0,0,0-1.59-.65,2,2,0,0,0-1.55.66,2.83,2.83,0,0,0,0,3.46A2,2,0,0,0,496.88,126.77Z"/>
    </g>
  </g>
</svg>
