<svg id="Layer_1" data-name="Layer 1" xmlns="http://www.w3.org/2000/svg" width="563.56" height="300.44" viewBox="0 0 563.56 300.44">
  <defs>
    <style>
      .cls-1 {
        fill: #fcee21;
      }

      .cls-2 {
        fill: #f2f2f2;
      }

      .cls-3 {
        opacity: 0.75;
      }

      .cls-4 {
        opacity: 0.5;
      }

      .cls-5 {
        opacity: 0.25;
      }
    </style>
  </defs>
  <rect class="cls-1" y="228.44" width="70.44" height="72"/>
  <g>
    <rect class="cls-1" width="281.78" height="228.44"/>
    <rect class="cls-2" x="281.78" width="281.78" height="300.44"/>
    <g class="cls-3">
      <rect class="cls-1" x="70.44" y="228.44" width="70.44" height="72"/>
    </g>
    <g class="cls-4">
      <rect class="cls-1" x="140.89" y="228.44" width="70.44" height="72"/>
    </g>
    <g class="cls-5">
      <rect class="cls-1" x="211.33" y="228.44" width="70.44" height="72"/>
    </g>
    <g>
      <path d="M335.64,82.4l-1.95-5.53H322.43l-1.95,5.53h-5.7l9.87-26.81h6.81l9.87,26.81ZM324.06,72.22h8l-4-11.38Z"/>
      <path d="M367.25,63a7.26,7.26,0,0,1,4.92,1.55A5.53,5.53,0,0,1,374,69V82.4h-5.34V70.47a3.18,3.18,0,0,0-.86-2.41,3,3,0,0,0-2.15-.82,3.47,3.47,0,0,0-2.6,1,4.77,4.77,0,0,0-1,3.36V82.4h-5.4V70.53a3.27,3.27,0,0,0-.85-2.46,3.06,3.06,0,0,0-2.21-.83,3.35,3.35,0,0,0-2.58,1.1,5.21,5.21,0,0,0-1,3.58V82.4h-5.33V63.33H350v2.24A6.49,6.49,0,0,1,355.51,63a8.16,8.16,0,0,1,3.59.73,4.88,4.88,0,0,1,2.25,2.12A6.76,6.76,0,0,1,367.25,63Z"/>
      <path d="M394.81,77.23a17.79,17.79,0,0,0,.46,4.65v.52h-5l-.43-2.08a6.19,6.19,0,0,1-2.67,1.84,9.79,9.79,0,0,1-3.45.61,9.21,9.21,0,0,1-1.78-.16,6,6,0,0,1-1.61-.57,5.07,5.07,0,0,1-1.32-1,4.38,4.38,0,0,1-.89-1.51,5.91,5.91,0,0,1-.34-2.07,5.62,5.62,0,0,1,.36-2.07,4.83,4.83,0,0,1,.92-1.55,5.67,5.67,0,0,1,1.51-1.13,10.81,10.81,0,0,1,1.89-.82,21.42,21.42,0,0,1,2.26-.59l3.14-.71a3.47,3.47,0,0,0,1.42-.6,1.2,1.2,0,0,0,.42-1,2,2,0,0,0-.94-1.83,4.3,4.3,0,0,0-2.27-.56c-2.19,0-3.44,1-3.73,2.91L378,68.71a6.4,6.4,0,0,1,2.77-4.35,10.93,10.93,0,0,1,6-1.4q8,0,8,6.88Zm-9.41,1.93a4.3,4.3,0,0,0,3.3-1.39A5.78,5.78,0,0,0,390,73.68L385.46,75a5.47,5.47,0,0,0-1.91.78,1.59,1.59,0,0,0-.65,1.37,1.79,1.79,0,0,0,.7,1.52A2.94,2.94,0,0,0,385.4,79.16Z"/>
      <path d="M405.12,66.35a6.27,6.27,0,0,1,2.51-2.29,7.58,7.58,0,0,1,3.73-1v4.76A7.27,7.27,0,0,0,406.79,69c-.94.77-1.41,2.13-1.41,4.09V82.4H400V63.33h5.12Z"/>
      <path d="M417.22,60.47a3.09,3.09,0,0,1-3.1-3.08,2.93,2.93,0,0,1,.92-2.16,3,3,0,0,1,2.18-.9,3.07,3.07,0,0,1,0,6.14ZM414.49,82.4V63.33h5.39V82.4Z"/>
      <path d="M425.4,82.4V53.9h5.4V82.4Z"/>
      <path d="M436.33,82.4V53.9h5.4V82.4Z"/>
      <path d="M456.15,82.77a12,12,0,0,1-5.4-1.17,8.63,8.63,0,0,1-3.7-3.43,10.19,10.19,0,0,1-1.35-5.32,9.34,9.34,0,0,1,2.9-7.24,12.11,12.11,0,0,1,15.12,0,9.33,9.33,0,0,1,2.89,7.24,9.37,9.37,0,0,1-2.89,7.26A10.71,10.71,0,0,1,456.15,82.77Zm-.06-4.25A4.93,4.93,0,0,0,459.87,77a6.61,6.61,0,0,0,0-8.24,4.9,4.9,0,0,0-3.78-1.56,4.71,4.71,0,0,0-3.66,1.57,6.66,6.66,0,0,0,0,8.22A4.73,4.73,0,0,0,456.09,78.52Z"/>
    </g>
    <g>
      <path d="M326.29,152.5h-4.46v3.6h3.93v1.25h-3.93V161h4.46v1.27H320.4v-11h5.89Z"/>
      <path d="M332.25,154.39a2.69,2.69,0,0,1,1.93.7,2.6,2.6,0,0,1,.72,2v5.17h-1.35v-4.87a1.79,1.79,0,0,0-.47-1.37,1.65,1.65,0,0,0-1.2-.45,1.88,1.88,0,0,0-1.37.53,2.19,2.19,0,0,0-.54,1.57v4.59h-1.35v-7.68H330v1A2.56,2.56,0,0,1,332.25,154.39Z"/>
      <path d="M340,162.22a2,2,0,0,1-1.5-.55,2.07,2.07,0,0,1-.55-1.53v-4.52h-1.57v-1.08h.58a1.08,1.08,0,0,0,.84-.27,1.29,1.29,0,0,0,.25-.9V152h1.26v2.56H341v1.08h-1.76V160a1.17,1.17,0,0,0,.29.84,1,1,0,0,0,.77.3h.7v1.08Z"/>
      <path d="M347.78,154.54h1.35v7.68h-1.3l0-1a2.46,2.46,0,0,1-.95.86,3,3,0,0,1-1.35.3,2.68,2.68,0,0,1-1.93-.69,2.62,2.62,0,0,1-.72-2v-5.17h1.35v4.87a1.83,1.83,0,0,0,.47,1.37,1.66,1.66,0,0,0,1.21.46,1.84,1.84,0,0,0,1.36-.53,2.21,2.21,0,0,0,.54-1.57Z"/>
      <path d="M354.31,162.37a3.63,3.63,0,0,1-2.07-.55,2.31,2.31,0,0,1-1-1.58l1.18-.34A1.62,1.62,0,0,0,353,161a2.07,2.07,0,0,0,1.26.38,2.82,2.82,0,0,0,.74-.1,1.28,1.28,0,0,0,.57-.38,1,1,0,0,0,.22-.7.83.83,0,0,0-.06-.32,2,2,0,0,0-.12-.25.64.64,0,0,0-.22-.21,2.29,2.29,0,0,0-.27-.17,2.27,2.27,0,0,0-.35-.14l-.37-.13-.43-.12-.44-.13a7.85,7.85,0,0,1-.8-.28,3.66,3.66,0,0,1-.65-.37,1.49,1.49,0,0,1-.5-.61,2.06,2.06,0,0,1-.17-.86,2,2,0,0,1,.38-1.23,2.12,2.12,0,0,1,1-.72,3.84,3.84,0,0,1,1.36-.22,3.36,3.36,0,0,1,1.87.5,2.14,2.14,0,0,1,.94,1.5l-1.11.28a1.47,1.47,0,0,0-.59-1,1.84,1.84,0,0,0-1.1-.33,1.88,1.88,0,0,0-1,.27.91.91,0,0,0-.43.83.85.85,0,0,0,.11.42,1,1,0,0,0,.65.53,4.26,4.26,0,0,0,.46.17l.56.14.12,0,.73.21a5.42,5.42,0,0,1,.67.28,2.43,2.43,0,0,1,.6.42,2,2,0,0,1,.37.59,2,2,0,0,1,.16.83,2.31,2.31,0,0,1-.23,1,1.86,1.86,0,0,1-.63.7,2.8,2.8,0,0,1-.9.39A4.08,4.08,0,0,1,354.31,162.37Z"/>
      <path d="M360,152.74a.87.87,0,0,1-.64-.27.89.89,0,0,1-.27-.65.87.87,0,0,1,.27-.64.9.9,0,0,1,.64-.26.92.92,0,0,1,.64.26.87.87,0,0,1,.27.64.92.92,0,0,1-.91.92Zm-.69,9.48v-7.68h1.36v7.68Z"/>
      <path d="M365.15,162.37a2.63,2.63,0,0,1-1.69-.53,1.88,1.88,0,0,1-.66-1.57,2.2,2.2,0,0,1,.21-1,1.7,1.7,0,0,1,.63-.7,3.42,3.42,0,0,1,.9-.44,9.66,9.66,0,0,1,1.17-.28l1.24-.2c.45-.08.68-.32.68-.71a1.33,1.33,0,0,0-.48-1.14,1.93,1.93,0,0,0-1.22-.37,2,2,0,0,0-1.2.35,1.51,1.51,0,0,0-.57,1.08l-1.22-.26a2.4,2.4,0,0,1,1-1.64,3.6,3.6,0,0,1,2.1-.55,4.32,4.32,0,0,1,1.11.14,2.82,2.82,0,0,1,.93.43,1.87,1.87,0,0,1,.66.82,3.09,3.09,0,0,1,.24,1.27v3.17a1.29,1.29,0,0,0,.18.8.75.75,0,0,0,.6.21h.13v1h-.67c-.83,0-1.32-.34-1.46-1h-.06A2.91,2.91,0,0,1,365.15,162.37Zm.31-1.09a2.05,2.05,0,0,0,1.65-.75,3.08,3.08,0,0,0,.62-2l-2,.39a2.68,2.68,0,0,0-1.19.43,1,1,0,0,0-.39.84,1,1,0,0,0,.37.84A1.55,1.55,0,0,0,365.46,161.28Z"/>
      <path d="M374.18,162.37a3.67,3.67,0,0,1-2.07-.55,2.3,2.3,0,0,1-1-1.58l1.18-.34a1.62,1.62,0,0,0,.63,1.07,2,2,0,0,0,1.26.38,2.88,2.88,0,0,0,.74-.1,1.2,1.2,0,0,0,.56-.38,1,1,0,0,0,.23-.7,1.52,1.52,0,0,0-.06-.32,1.17,1.17,0,0,0-.13-.25.64.64,0,0,0-.22-.21l-.26-.17-.35-.14-.37-.13-.43-.12-.45-.13a7.56,7.56,0,0,1-.79-.28,3.34,3.34,0,0,1-.65-.37,1.43,1.43,0,0,1-.51-.61,2.06,2.06,0,0,1-.16-.86,2,2,0,0,1,.37-1.23,2.12,2.12,0,0,1,1-.72,3.9,3.9,0,0,1,1.37-.22,3.36,3.36,0,0,1,1.87.5,2.1,2.1,0,0,1,.93,1.5l-1.11.28a1.46,1.46,0,0,0-.58-1,1.87,1.87,0,0,0-1.11-.33,1.91,1.91,0,0,0-1,.27.93.93,0,0,0-.43.83.76.76,0,0,0,.12.42,1.07,1.07,0,0,0,.23.3,1.2,1.2,0,0,0,.42.23,3.6,3.6,0,0,0,.45.17l.56.14.12,0,.74.21a5.36,5.36,0,0,1,.66.28,2.1,2.1,0,0,1,.6.42,2,2,0,0,1,.38.59,2.23,2.23,0,0,1,.15.83,2.18,2.18,0,0,1-.23,1,1.71,1.71,0,0,1-.63.7,2.65,2.65,0,0,1-.89.39A4.1,4.1,0,0,1,374.18,162.37Z"/>
      <path d="M381.59,162.22a2,2,0,0,1-1.5-.55,2.11,2.11,0,0,1-.55-1.53v-4.52H378v-1.08h.58a1.11,1.11,0,0,0,.85-.27,1.34,1.34,0,0,0,.25-.9V152h1.25v2.56h1.77v1.08H380.9V160a1.14,1.14,0,0,0,.3.84,1,1,0,0,0,.77.3h.7v1.08Z"/>
      <path d="M386.3,162.37a2.62,2.62,0,0,1-1.68-.53,1.88,1.88,0,0,1-.66-1.57,2.2,2.2,0,0,1,.21-1,1.74,1.74,0,0,1,.62-.7,3.65,3.65,0,0,1,.91-.44,9.46,9.46,0,0,1,1.16-.28l1.25-.2c.45-.08.68-.32.68-.71a1.33,1.33,0,0,0-.48-1.14,1.93,1.93,0,0,0-1.22-.37,2,2,0,0,0-1.2.35,1.45,1.45,0,0,0-.57,1.08l-1.22-.26a2.33,2.33,0,0,1,1-1.64,3.56,3.56,0,0,1,2.09-.55,4.35,4.35,0,0,1,1.12.14,3,3,0,0,1,.93.43,1.94,1.94,0,0,1,.66.82,3.09,3.09,0,0,1,.24,1.27v3.17a1.37,1.37,0,0,0,.17.8.76.76,0,0,0,.61.21H391v1h-.67a1.27,1.27,0,0,1-1.45-1h-.06A2.92,2.92,0,0,1,386.3,162.37Zm.31-1.09a2,2,0,0,0,1.65-.75,3,3,0,0,0,.63-2l-2,.39a2.63,2.63,0,0,0-1.19.43,1,1,0,0,0-.39.84,1,1,0,0,0,.37.84A1.54,1.54,0,0,0,386.61,161.28Z"/>
      <path d="M325.11,181.57a5.93,5.93,0,0,1-2.17-.39,5.62,5.62,0,0,1-1.74-1.11,5,5,0,0,1-1.15-1.79,6.84,6.84,0,0,1,0-4.72,5.09,5.09,0,0,1,1.16-1.79,5.29,5.29,0,0,1,1.73-1.11,5.93,5.93,0,0,1,2.17-.39,5.82,5.82,0,0,1,2.14.4,5,5,0,0,1,2.9,2.89,6.38,6.38,0,0,1,.42,2.35,6.49,6.49,0,0,1-.42,2.37,5.23,5.23,0,0,1-1.16,1.79,5.4,5.4,0,0,1-1.74,1.11A5.81,5.81,0,0,1,325.11,181.57Zm0-1.32a4,4,0,0,0,2.91-1.16,4.34,4.34,0,0,0,1.15-3.18,5,5,0,0,0-.32-1.82,3.64,3.64,0,0,0-2.15-2.19,4.56,4.56,0,0,0-3.2,0,3.81,3.81,0,0,0-1.29.83,3.7,3.7,0,0,0-.87,1.36,5,5,0,0,0-.32,1.82,5.17,5.17,0,0,0,.32,1.85,3.75,3.75,0,0,0,.87,1.37,4.14,4.14,0,0,0,1.29.83A4.47,4.47,0,0,0,325.11,180.25Z"/>
      <path d="M337,173.59a3.46,3.46,0,0,1,1.39.29,3.36,3.36,0,0,1,1.14.78,3.82,3.82,0,0,1,.77,1.27,4.7,4.7,0,0,1,.28,1.66,4,4,0,0,1-1,2.89,3.35,3.35,0,0,1-2.55,1.11,3.06,3.06,0,0,1-1.61-.44,2.9,2.9,0,0,1-1.1-1.18v5.32H332.9V173.74h1.31l0,1.49a2.78,2.78,0,0,1,1.09-1.19A3.05,3.05,0,0,1,337,173.59Zm-.27,6.82a2.31,2.31,0,0,0,1.78-.77,3.28,3.28,0,0,0,0-4.1,2.31,2.31,0,0,0-1.78-.77,2.36,2.36,0,0,0-1.8.8,3.13,3.13,0,0,0,0,4A2.33,2.33,0,0,0,336.69,180.41Z"/>
      <path d="M345.91,181.57a4,4,0,0,1-2-.48,3.42,3.42,0,0,1-1.38-1.39,4.19,4.19,0,0,1-.52-2.12,4,4,0,0,1,1.09-2.9,4.09,4.09,0,0,1,5.56,0,4.4,4.4,0,0,1,0,5.8A3.75,3.75,0,0,1,345.91,181.57Zm0-1.12a2.38,2.38,0,0,0,1.82-.79,3,3,0,0,0,.72-2.08,2.93,2.93,0,0,0-.72-2.07,2.35,2.35,0,0,0-1.82-.79,2.32,2.32,0,0,0-1.8.79,3,3,0,0,0-.71,2.07,3,3,0,0,0,.71,2.08A2.36,2.36,0,0,0,345.9,180.45Z"/>
      <path d="M353.22,175.09a2.34,2.34,0,0,1,.95-1,2.85,2.85,0,0,1,1.48-.4v1.27a2.53,2.53,0,0,0-1.79.57,2.38,2.38,0,0,0-.61,1.82v4.1H351.9v-7.68h1.32Z"/>
      <path d="M360.13,181.42a2,2,0,0,1-1.5-.55,2.07,2.07,0,0,1-.55-1.53v-4.52h-1.57v-1.08h.58a1.13,1.13,0,0,0,.85-.27,1.35,1.35,0,0,0,.24-.9v-1.39h1.26v2.56h1.77v1.08h-1.77v4.38a1.14,1.14,0,0,0,.3.84,1,1,0,0,0,.76.3h.71v1.08Z"/>
      <path d="M367.94,173.74h1.35v7.68H368l0-1a2.42,2.42,0,0,1-1,.86,2.91,2.91,0,0,1-1.34.3,2.67,2.67,0,0,1-1.93-.69,2.59,2.59,0,0,1-.73-2v-5.17h1.35v4.87a1.8,1.8,0,0,0,.48,1.37,1.62,1.62,0,0,0,1.2.46,1.86,1.86,0,0,0,1.37-.53,2.16,2.16,0,0,0,.53-1.57Z"/>
      <path d="M375.67,173.59a2.67,2.67,0,0,1,1.93.7,2.6,2.6,0,0,1,.73,2v5.17H377v-4.86a1.8,1.8,0,0,0-.47-1.38,1.65,1.65,0,0,0-1.2-.45,1.88,1.88,0,0,0-1.37.53,2.14,2.14,0,0,0-.53,1.57v4.59H372v-7.68h1.36v1A2.55,2.55,0,0,1,375.67,173.59Z"/>
      <path d="M381.62,171.94a.87.87,0,0,1-.64-.27.89.89,0,0,1-.27-.65.87.87,0,0,1,.27-.64.92.92,0,0,1,1.28,0,.87.87,0,0,1,.27.64.89.89,0,0,1-.27.65A.87.87,0,0,1,381.62,171.94Zm-.69,9.48v-7.68h1.36v7.68Z"/>
      <path d="M390.72,169.42h1.35v12h-1.31l0-1.49a2.83,2.83,0,0,1-1.09,1.21,3.05,3.05,0,0,1-1.63.45,3.46,3.46,0,0,1-1.39-.29,3.27,3.27,0,0,1-1.14-.8,3.59,3.59,0,0,1-.78-1.27,4.59,4.59,0,0,1-.28-1.64,4.07,4.07,0,0,1,1-2.89,3.38,3.38,0,0,1,2.55-1.11,3.06,3.06,0,0,1,1.61.44,2.88,2.88,0,0,1,1.1,1.17Zm-2.43,11a2.29,2.29,0,0,0,1.79-.8,3.19,3.19,0,0,0,0-4,2.32,2.32,0,0,0-1.79-.81,2.34,2.34,0,0,0-1.79.78,2.89,2.89,0,0,0-.73,2.05,2.85,2.85,0,0,0,.73,2A2.34,2.34,0,0,0,388.29,180.41Z"/>
      <path d="M396.59,181.57a2.56,2.56,0,0,1-1.68-.53,1.88,1.88,0,0,1-.66-1.57,2.2,2.2,0,0,1,.21-1,1.74,1.74,0,0,1,.62-.7,3.65,3.65,0,0,1,.91-.44,8,8,0,0,1,1.16-.27l1.25-.21c.45-.08.68-.32.68-.71a1.31,1.31,0,0,0-.49-1.14,1.9,1.9,0,0,0-1.21-.37,2,2,0,0,0-1.2.35,1.45,1.45,0,0,0-.57,1.08l-1.22-.25a2.33,2.33,0,0,1,1-1.65,3.54,3.54,0,0,1,2.09-.55,4.35,4.35,0,0,1,1.12.14,3,3,0,0,1,.93.43,1.94,1.94,0,0,1,.66.82,3.09,3.09,0,0,1,.24,1.27v3.17a1.37,1.37,0,0,0,.17.8.76.76,0,0,0,.61.21h.12v1h-.67a1.27,1.27,0,0,1-1.45-1h-.06A2.94,2.94,0,0,1,396.59,181.57Zm.31-1.09a2,2,0,0,0,1.65-.75,3,3,0,0,0,.63-2l-2,.39a2.73,2.73,0,0,0-1.2.43,1,1,0,0,0-.38.84,1,1,0,0,0,.37.84A1.54,1.54,0,0,0,396.9,180.48Z"/>
      <path d="M408.72,169.42h1.35v12h-1.31l0-1.49a2.83,2.83,0,0,1-1.09,1.21,3.05,3.05,0,0,1-1.63.45,3.46,3.46,0,0,1-1.39-.29,3.27,3.27,0,0,1-1.14-.8,3.59,3.59,0,0,1-.78-1.27,4.59,4.59,0,0,1-.28-1.64,4.07,4.07,0,0,1,1-2.89,3.38,3.38,0,0,1,2.55-1.11,3.06,3.06,0,0,1,1.61.44,2.88,2.88,0,0,1,1.1,1.17Zm-2.43,11a2.29,2.29,0,0,0,1.79-.8,3.19,3.19,0,0,0,0-4,2.32,2.32,0,0,0-1.79-.81,2.34,2.34,0,0,0-1.79.78,2.89,2.89,0,0,0-.73,2.05,2.85,2.85,0,0,0,.73,2A2.34,2.34,0,0,0,406.29,180.41Z"/>
      <path d="M326.29,190.9h-4.46v3.6h3.93v1.25h-3.93v3.6h4.46v1.27H320.4v-11h5.89Z"/>
      <path d="M327.54,200.62l2.95-3.84-2.95-3.84h1.66l2.13,2.94,2.12-2.94h1.64l-3,3.84,3,3.84h-1.65l-2.11-2.92-2.13,2.92Z"/>
      <path d="M340.81,192.79a3.46,3.46,0,0,1,1.39.29,3.36,3.36,0,0,1,1.14.78,3.72,3.72,0,0,1,.77,1.27,4.71,4.71,0,0,1,.29,1.66,4,4,0,0,1-1,2.89,3.35,3.35,0,0,1-2.55,1.11,3.09,3.09,0,0,1-1.61-.44,2.88,2.88,0,0,1-1.09-1.18v5.32h-1.36V192.94h1.31l0,1.49a2.85,2.85,0,0,1,1.09-1.19A3.05,3.05,0,0,1,340.81,192.79Zm-.27,6.82a2.31,2.31,0,0,0,1.78-.77,3.28,3.28,0,0,0,0-4.1,2.31,2.31,0,0,0-1.78-.77,2.36,2.36,0,0,0-1.8.8,3.13,3.13,0,0,0,0,4A2.36,2.36,0,0,0,340.54,199.61Z"/>
      <path d="M349.76,200.77a4,4,0,0,1-2-.48,3.42,3.42,0,0,1-1.38-1.39,4.29,4.29,0,0,1-.51-2.12,3.92,3.92,0,0,1,1.09-2.9,4.08,4.08,0,0,1,5.55,0,4.4,4.4,0,0,1,0,5.8A3.75,3.75,0,0,1,349.76,200.77Zm0-1.12a2.38,2.38,0,0,0,1.82-.79,3,3,0,0,0,.72-2.08,2.93,2.93,0,0,0-.72-2.07,2.35,2.35,0,0,0-1.82-.79,2.32,2.32,0,0,0-1.8.79,3,3,0,0,0-.71,2.07,3,3,0,0,0,.71,2.08A2.36,2.36,0,0,0,349.75,199.65Z"/>
      <path d="M359.37,192.79a2.71,2.71,0,0,1,1.94.7,2.6,2.6,0,0,1,.72,2v5.17h-1.35v-4.87a1.83,1.83,0,0,0-.47-1.37,1.68,1.68,0,0,0-1.21-.45,1.85,1.85,0,0,0-1.36.53,2.11,2.11,0,0,0-.54,1.57v4.59h-1.35v-7.68h1.35v1A2.56,2.56,0,0,1,359.37,192.79Z"/>
      <path d="M367.09,200.62a2,2,0,0,1-1.5-.55,2.11,2.11,0,0,1-.55-1.53V194h-1.57v-1.08h.58a1.11,1.11,0,0,0,.85-.27,1.34,1.34,0,0,0,.25-.9v-1.39h1.25v2.56h1.77V194H366.4v4.38a1.14,1.14,0,0,0,.3.84,1,1,0,0,0,.77.3h.7v1.08Z"/>
      <path d="M371.8,200.77a2.62,2.62,0,0,1-1.68-.53,1.88,1.88,0,0,1-.66-1.57,2.2,2.2,0,0,1,.21-1,1.74,1.74,0,0,1,.62-.7,3.65,3.65,0,0,1,.91-.44,9.46,9.46,0,0,1,1.16-.28l1.25-.2c.45-.08.68-.32.68-.71a1.33,1.33,0,0,0-.48-1.14,1.93,1.93,0,0,0-1.22-.37,2,2,0,0,0-1.2.35,1.45,1.45,0,0,0-.57,1.08L369.6,195a2.33,2.33,0,0,1,1-1.64,3.56,3.56,0,0,1,2.09-.55,4.35,4.35,0,0,1,1.12.14,3,3,0,0,1,.93.43,1.94,1.94,0,0,1,.66.82,3.09,3.09,0,0,1,.24,1.27v3.17a1.37,1.37,0,0,0,.17.8.76.76,0,0,0,.61.21h.12v1h-.67a1.27,1.27,0,0,1-1.45-1h-.06A2.92,2.92,0,0,1,371.8,200.77Zm.31-1.09a2,2,0,0,0,1.65-.75,3,3,0,0,0,.63-2l-2,.39a2.63,2.63,0,0,0-1.19.43,1,1,0,0,0-.39.84,1,1,0,0,0,.37.84A1.54,1.54,0,0,0,372.11,199.68Z"/>
      <path d="M382,192.79a2.69,2.69,0,0,1,1.93.7,2.6,2.6,0,0,1,.72,2v5.17h-1.35v-4.87a1.83,1.83,0,0,0-.47-1.37,1.65,1.65,0,0,0-1.2-.45,1.88,1.88,0,0,0-1.37.53,2.19,2.19,0,0,0-.54,1.57v4.59h-1.35v-7.68h1.35v1A2.56,2.56,0,0,1,382,192.79Z"/>
      <path d="M394,196.63l0,.37h-6a2.73,2.73,0,0,0,.74,2,2.4,2.4,0,0,0,1.75.69,2.33,2.33,0,0,0,1.27-.37,2.44,2.44,0,0,0,.88-1l1.22.26a3.48,3.48,0,0,1-1.32,1.65,3.59,3.59,0,0,1-2,.6,3.71,3.71,0,0,1-2.76-1.07,4.55,4.55,0,0,1,0-5.84,3.7,3.7,0,0,1,2.73-1.07,3.46,3.46,0,0,1,2.58,1A3.88,3.88,0,0,1,394,196.63Zm-3.55-2.8a2.36,2.36,0,0,0-1.6.55,2.49,2.49,0,0,0-.81,1.58h4.6a2.29,2.29,0,0,0-.67-1.58A2.14,2.14,0,0,0,390.47,193.83Z"/>
      <path d="M399.37,200.77a4,4,0,0,1-2-.48A3.42,3.42,0,0,1,396,198.9a4.19,4.19,0,0,1-.52-2.12,4,4,0,0,1,1.09-2.9,4.09,4.09,0,0,1,5.56,0,4.4,4.4,0,0,1,0,5.8A3.75,3.75,0,0,1,399.37,200.77Zm0-1.12a2.38,2.38,0,0,0,1.82-.79,3,3,0,0,0,.72-2.08,2.93,2.93,0,0,0-.72-2.07,2.35,2.35,0,0,0-1.82-.79,2.32,2.32,0,0,0-1.8.79,3,3,0,0,0-.71,2.07,3,3,0,0,0,.71,2.08A2.36,2.36,0,0,0,399.36,199.65Z"/>
      <path d="M326.34,210.1h-4.51v3.59h3.93V215h-3.93v4.86H320.4v-11h5.94Z"/>
      <path d="M334.75,215.83l0,.37h-6a2.69,2.69,0,0,0,.74,2,2.38,2.38,0,0,0,1.75.69,2.32,2.32,0,0,0,2.14-1.39l1.22.26a3.41,3.41,0,0,1-1.31,1.65,3.59,3.59,0,0,1-2,.6,3.71,3.71,0,0,1-2.76-1.07,4.55,4.55,0,0,1,0-5.84,3.66,3.66,0,0,1,2.72-1.07,3.44,3.44,0,0,1,2.58,1A3.88,3.88,0,0,1,334.75,215.83Zm-3.56-2.8a2.38,2.38,0,0,0-1.6.55,2.53,2.53,0,0,0-.8,1.58h4.6a2.29,2.29,0,0,0-.67-1.58A2.16,2.16,0,0,0,331.19,213Z"/>
      <path d="M336.86,219.82v-12h1.37v12Z"/>
      <path d="M341.67,210.34a.92.92,0,0,1-.92-.92.87.87,0,0,1,.27-.64.93.93,0,0,1,1.29,0,.87.87,0,0,1,.27.64.92.92,0,0,1-.91.92Zm-.69,9.48v-7.68h1.36v7.68Z"/>
      <path d="M346.15,218.73h4.1v1.09h-6.13l4.05-6.58h-3.81v-1.1h5.88Z"/>
      <path d="M324.56,228a3.19,3.19,0,0,1,1.72.46,3.09,3.09,0,0,1,1.16,1.22,3.58,3.58,0,0,1,.4,1.7,3.31,3.31,0,0,1-.91,2.39,3.13,3.13,0,0,1-2.37,1h-2.77V239H320.4V228Zm-.2,5.51a2,2,0,0,0,1.53-.59,2.17,2.17,0,0,0,.55-1.56,2.19,2.19,0,0,0-.55-1.55,2,2,0,0,0-1.53-.6h-2.57v4.3Z"/>
      <path d="M332.49,239.17a4,4,0,0,1-2-.48,3.44,3.44,0,0,1-1.39-1.39,4.29,4.29,0,0,1-.51-2.12,4,4,0,0,1,1.09-2.9,4.09,4.09,0,0,1,5.56,0,4.4,4.4,0,0,1,0,5.8A3.77,3.77,0,0,1,332.49,239.17Zm0-1.12a2.38,2.38,0,0,0,1.82-.79,3,3,0,0,0,.72-2.08,2.93,2.93,0,0,0-.72-2.07,2.35,2.35,0,0,0-1.82-.79,2.32,2.32,0,0,0-1.8.79,2.93,2.93,0,0,0-.71,2.07,3,3,0,0,0,.71,2.08A2.36,2.36,0,0,0,332.48,238.05Z"/>
      <path d="M340.9,239.17a3.65,3.65,0,0,1-2.07-.55,2.27,2.27,0,0,1-1-1.58l1.17-.34a1.7,1.7,0,0,0,.63,1.07,2.08,2.08,0,0,0,1.27.38,2.74,2.74,0,0,0,.73-.1,1.28,1.28,0,0,0,.57-.38,1,1,0,0,0,.23-.7,1.07,1.07,0,0,0-.07-.32.83.83,0,0,0-.12-.25.64.64,0,0,0-.22-.21,2.29,2.29,0,0,0-.27-.17,2.08,2.08,0,0,0-.34-.14l-.37-.13-.43-.12-.45-.13c-.32-.1-.59-.19-.8-.28a3.6,3.6,0,0,1-.64-.37,1.43,1.43,0,0,1-.51-.61,2.06,2.06,0,0,1-.17-.86,2,2,0,0,1,.38-1.23,2.12,2.12,0,0,1,1-.72,3.84,3.84,0,0,1,1.36-.22,3.4,3.4,0,0,1,1.88.5,2.16,2.16,0,0,1,.93,1.5l-1.11.28a1.44,1.44,0,0,0-.59-1,1.82,1.82,0,0,0-1.1-.33,1.91,1.91,0,0,0-1,.27.91.91,0,0,0-.43.83.76.76,0,0,0,.12.42,1.07,1.07,0,0,0,.23.3,1.11,1.11,0,0,0,.42.23,3.6,3.6,0,0,0,.45.17l.56.14.12,0,.74.21a5.36,5.36,0,0,1,.66.28,2.43,2.43,0,0,1,.6.42,2,2,0,0,1,.38.59,2.23,2.23,0,0,1,.15.83,2.31,2.31,0,0,1-.23,1,1.71,1.71,0,0,1-.63.7,2.65,2.65,0,0,1-.89.39A4.1,4.1,0,0,1,340.9,239.17Z"/>
      <path d="M346.54,229.54a.87.87,0,0,1-.64-.27.89.89,0,0,1-.27-.65.87.87,0,0,1,.27-.64.92.92,0,0,1,1.28,0,.87.87,0,0,1,.27.64.89.89,0,0,1-.27.65A.87.87,0,0,1,346.54,229.54Zm-.68,9.48v-7.68h1.36V239Z"/>
      <path d="M352.42,239a2,2,0,0,1-1.5-.55,2.07,2.07,0,0,1-.55-1.53v-4.52H348.8v-1.08h.58a1.13,1.13,0,0,0,.85-.27,1.35,1.35,0,0,0,.24-.9v-1.39h1.26v2.56h1.77v1.08h-1.77v4.38a1.17,1.17,0,0,0,.29.84,1,1,0,0,0,.77.3h.71V239Z"/>
      <path d="M356.14,229.54a.92.92,0,0,1-.92-.92.87.87,0,0,1,.27-.64.92.92,0,0,1,.65-.26.89.89,0,0,1,.63.26.87.87,0,0,1,.27.64.89.89,0,0,1-.27.65A.86.86,0,0,1,356.14,229.54Zm-.69,9.48v-7.68h1.36V239Z"/>
      <path d="M364.35,231.34h1.44L362.67,239h-1.15l-3.11-7.68h1.44l2.25,6.11Z"/>
      <path d="M370.33,239.17a4,4,0,0,1-2-.48A3.38,3.38,0,0,1,367,237.3a4.29,4.29,0,0,1-.51-2.12,3.92,3.92,0,0,1,1.09-2.9,4.09,4.09,0,0,1,5.56,0,4,4,0,0,1,1.08,2.9,3.91,3.91,0,0,1-1.09,2.9A3.73,3.73,0,0,1,370.33,239.17Zm0-1.12a2.36,2.36,0,0,0,1.81-.79,2.93,2.93,0,0,0,.73-2.08,2.89,2.89,0,0,0-.73-2.07,2.33,2.33,0,0,0-1.81-.79,2.29,2.29,0,0,0-1.8.79,2.93,2.93,0,0,0-.72,2.07,3,3,0,0,0,.72,2.08A2.33,2.33,0,0,0,370.32,238.05Z"/>
    </g>
    <g>
      <path d="M445.58,162.22v-11H447v11Z"/>
      <path d="M451.4,155.89a2.34,2.34,0,0,1,1-1,2.91,2.91,0,0,1,1.48-.4v1.27a2.5,2.5,0,0,0-1.78.57,2.38,2.38,0,0,0-.62,1.82v4.1h-1.35v-7.68h1.32Z"/>
      <path d="M456.74,155.89a2.34,2.34,0,0,1,.95-1,2.85,2.85,0,0,1,1.48-.4v1.27a2.53,2.53,0,0,0-1.79.57,2.38,2.38,0,0,0-.61,1.82v4.1h-1.35v-7.68h1.32Z"/>
      <path d="M462.43,162.37a2.62,2.62,0,0,1-1.68-.53,1.88,1.88,0,0,1-.66-1.57,2.2,2.2,0,0,1,.21-1,1.74,1.74,0,0,1,.62-.7,3.65,3.65,0,0,1,.91-.44,9.46,9.46,0,0,1,1.16-.28l1.25-.2c.45-.08.68-.32.68-.71a1.33,1.33,0,0,0-.48-1.14,1.93,1.93,0,0,0-1.22-.37,2,2,0,0,0-1.2.35,1.45,1.45,0,0,0-.57,1.08l-1.22-.26a2.33,2.33,0,0,1,1-1.64,3.56,3.56,0,0,1,2.09-.55,4.35,4.35,0,0,1,1.12.14,3,3,0,0,1,.93.43,1.94,1.94,0,0,1,.66.82,3.09,3.09,0,0,1,.24,1.27v3.17a1.37,1.37,0,0,0,.17.8.76.76,0,0,0,.61.21h.12v1h-.67a1.27,1.27,0,0,1-1.45-1H465A2.92,2.92,0,0,1,462.43,162.37Zm.31-1.09a2,2,0,0,0,1.65-.75,3,3,0,0,0,.63-2l-2,.39a2.63,2.63,0,0,0-1.19.43,1,1,0,0,0-.39.84,1,1,0,0,0,.37.84A1.54,1.54,0,0,0,462.74,161.28Z"/>
      <path d="M472.07,162.36a3.68,3.68,0,0,1-2.75-1.1,4.38,4.38,0,0,1,0-5.76,3.68,3.68,0,0,1,2.75-1.11,3.73,3.73,0,0,1,2.23.68,3.43,3.43,0,0,1,1.29,1.86l-1.27.21a2.28,2.28,0,0,0-.86-1.2,2.41,2.41,0,0,0-1.4-.42,2.25,2.25,0,0,0-1.77.79,3.4,3.4,0,0,0,0,4.13,2.25,2.25,0,0,0,1.77.79,2.41,2.41,0,0,0,1.4-.42,2.28,2.28,0,0,0,.86-1.2l1.27.21a3.42,3.42,0,0,1-1.3,1.87A3.74,3.74,0,0,1,472.07,162.36Z"/>
      <path d="M478.27,152.74a.92.92,0,0,1-.92-.92.87.87,0,0,1,.27-.64.92.92,0,0,1,.65-.26.89.89,0,0,1,.63.26.87.87,0,0,1,.27.64.89.89,0,0,1-.27.65A.86.86,0,0,1,478.27,152.74Zm-.69,9.48v-7.68h1.36v7.68Z"/>
      <path d="M484.92,162.37a4,4,0,0,1-2-.48,3.38,3.38,0,0,1-1.39-1.39,4.29,4.29,0,0,1-.51-2.12,3.92,3.92,0,0,1,1.09-2.9,3.77,3.77,0,0,1,2.77-1.09,3.81,3.81,0,0,1,2.79,1.09,4,4,0,0,1,1.08,2.9,3.91,3.91,0,0,1-1.09,2.9A3.75,3.75,0,0,1,484.92,162.37Zm0-1.12a2.36,2.36,0,0,0,1.81-.79,3,3,0,0,0,.73-2.08,2.94,2.94,0,0,0-.73-2.07,2.33,2.33,0,0,0-1.81-.79,2.29,2.29,0,0,0-1.8.79,2.93,2.93,0,0,0-.72,2.07,3,3,0,0,0,.72,2.08A2.33,2.33,0,0,0,484.92,161.25Z"/>
      <path d="M494.53,154.39a2.7,2.7,0,0,1,1.94.7,2.6,2.6,0,0,1,.72,2v5.17h-1.35v-4.87a1.83,1.83,0,0,0-.47-1.37,1.65,1.65,0,0,0-1.2-.45,1.86,1.86,0,0,0-1.37.53,2.11,2.11,0,0,0-.54,1.57v4.59h-1.35v-7.68h1.35v1A2.56,2.56,0,0,1,494.53,154.39Z"/>
      <path d="M501.57,162.37a2.62,2.62,0,0,1-1.68-.53,1.88,1.88,0,0,1-.66-1.57,2.2,2.2,0,0,1,.21-1,1.74,1.74,0,0,1,.62-.7,3.65,3.65,0,0,1,.91-.44,9.46,9.46,0,0,1,1.16-.28l1.25-.2c.45-.08.68-.32.68-.71a1.33,1.33,0,0,0-.48-1.14,1.93,1.93,0,0,0-1.22-.37,2,2,0,0,0-1.2.35,1.51,1.51,0,0,0-.57,1.08l-1.22-.26a2.33,2.33,0,0,1,1-1.64,3.56,3.56,0,0,1,2.09-.55,4.35,4.35,0,0,1,1.12.14,3,3,0,0,1,.93.43,1.94,1.94,0,0,1,.66.82,3.09,3.09,0,0,1,.24,1.27v3.17a1.29,1.29,0,0,0,.18.8.73.73,0,0,0,.6.21h.13v1h-.68a1.28,1.28,0,0,1-1.45-1h-.06A2.92,2.92,0,0,1,501.57,162.37Zm.31-1.09a2,2,0,0,0,1.65-.75,3,3,0,0,0,.63-2l-2,.39a2.63,2.63,0,0,0-1.19.43,1,1,0,0,0-.39.84,1,1,0,0,0,.37.84A1.54,1.54,0,0,0,501.88,161.28Z"/>
      <path d="M508.18,162.22v-12h1.37v12Z"/>
      <path d="M457.21,181.42h-1.36l-.73-9.08-3.52,9.08h-.83l-3.49-9-.75,9h-1.36l.83-11h1.85l3.33,8.58,3.35-8.58h1.85Z"/>
      <path d="M460.59,171.94a.92.92,0,0,1-.92-.92.87.87,0,0,1,.27-.64.92.92,0,0,1,.65-.26.9.9,0,0,1,.9.9.89.89,0,0,1-.27.65A.85.85,0,0,1,460.59,171.94Zm-.69,9.48v-7.68h1.36v7.68Z"/>
      <path d="M470.73,177.43l0,.37h-6a2.69,2.69,0,0,0,.74,2,2.4,2.4,0,0,0,1.75.69,2.33,2.33,0,0,0,1.27-.37,2.44,2.44,0,0,0,.88-1l1.21.26a3.41,3.41,0,0,1-1.31,1.65,3.59,3.59,0,0,1-2,.6,3.71,3.71,0,0,1-2.76-1.07,4,4,0,0,1-1.06-2.92,4,4,0,0,1,1.06-2.92,3.68,3.68,0,0,1,2.72-1.07,3.47,3.47,0,0,1,2.59,1A3.92,3.92,0,0,1,470.73,177.43Zm-3.56-2.8a2.35,2.35,0,0,0-1.59.55,2.49,2.49,0,0,0-.81,1.58h4.6a2.29,2.29,0,0,0-.67-1.58A2.16,2.16,0,0,0,467.17,174.63Z"/>
      <path d="M478.52,169.42h1.35v12h-1.31l0-1.49a2.83,2.83,0,0,1-1.09,1.21,3,3,0,0,1-1.63.45,3.5,3.5,0,0,1-1.39-.29,3.37,3.37,0,0,1-1.14-.8,3.57,3.57,0,0,1-.77-1.27,4.59,4.59,0,0,1-.29-1.64,4.07,4.07,0,0,1,1-2.89,3.38,3.38,0,0,1,2.55-1.11,3.06,3.06,0,0,1,1.61.44,2.88,2.88,0,0,1,1.1,1.17Zm-2.42,11a2.29,2.29,0,0,0,1.78-.8,3.19,3.19,0,0,0,0-4,2.31,2.31,0,0,0-1.78-.81,2.35,2.35,0,0,0-1.8.78,2.89,2.89,0,0,0-.73,2.05,2.85,2.85,0,0,0,.73,2A2.35,2.35,0,0,0,476.1,180.41Z"/>
      <path d="M485.85,181.57a4,4,0,0,1-2-.48,3.42,3.42,0,0,1-1.38-1.39,4.29,4.29,0,0,1-.51-2.12,3.92,3.92,0,0,1,1.09-2.9,4.08,4.08,0,0,1,5.55,0,4.4,4.4,0,0,1,0,5.8A3.75,3.75,0,0,1,485.85,181.57Zm0-1.12a2.36,2.36,0,0,0,1.81-.79,3,3,0,0,0,.72-2.08,2.93,2.93,0,0,0-.72-2.07,2.33,2.33,0,0,0-1.81-.79,2.29,2.29,0,0,0-1.8.79,2.93,2.93,0,0,0-.72,2.07,3,3,0,0,0,.72,2.08A2.33,2.33,0,0,0,485.85,180.45Z"/>
      <path d="M451.53,190.9H447v3.59H451v1.26H447v4.87h-1.43v-11h5.95Z"/>
      <path d="M454.85,194.29a2.37,2.37,0,0,1,1-1,2.84,2.84,0,0,1,1.47-.4v1.27a2.52,2.52,0,0,0-1.78.57,2.38,2.38,0,0,0-.62,1.82v4.1h-1.35v-7.68h1.32Z"/>
      <path d="M460.55,200.77a2.62,2.62,0,0,1-1.68-.53,1.85,1.85,0,0,1-.66-1.57,2.2,2.2,0,0,1,.21-1,1.67,1.67,0,0,1,.62-.7,3.76,3.76,0,0,1,.9-.44,10.14,10.14,0,0,1,1.17-.28l1.24-.2c.46-.08.68-.32.68-.71a1.33,1.33,0,0,0-.48-1.14,1.9,1.9,0,0,0-1.21-.37,2.06,2.06,0,0,0-1.21.35,1.51,1.51,0,0,0-.57,1.08l-1.21-.26a2.33,2.33,0,0,1,1-1.64,3.54,3.54,0,0,1,2.09-.55,4.21,4.21,0,0,1,1.11.14,2.82,2.82,0,0,1,.93.43,1.89,1.89,0,0,1,.67.82,3.09,3.09,0,0,1,.24,1.27v3.17a1.3,1.3,0,0,0,.17.8.76.76,0,0,0,.61.21h.12v1h-.67a1.27,1.27,0,0,1-1.45-1h-.07A2.91,2.91,0,0,1,460.55,200.77Zm.31-1.09a2.05,2.05,0,0,0,1.65-.75,3,3,0,0,0,.62-2l-2,.39a2.73,2.73,0,0,0-1.19.43,1,1,0,0,0-.38.84,1,1,0,0,0,.37.84A1.52,1.52,0,0,0,460.86,199.68Z"/>
      <path d="M472.56,192.94h1.32v7.29a4.12,4.12,0,0,1-1,3,4.12,4.12,0,0,1-6.47-1.3l1.12-.55a2.54,2.54,0,0,0,2.57,1.78,2.22,2.22,0,0,0,1.8-.75,3.23,3.23,0,0,0,.62-2.1v-1.42a2.73,2.73,0,0,1-1.1,1.11,3.37,3.37,0,0,1-4.08-.67,3.83,3.83,0,0,1-1-2.73,3.78,3.78,0,0,1,1-2.72,3.33,3.33,0,0,1,2.5-1.08,3.18,3.18,0,0,1,1.61.43,2.81,2.81,0,0,1,1.08,1.14Zm-2.43,6.31a2.35,2.35,0,0,0,1.77-.78,2.72,2.72,0,0,0,.73-1.88,2.69,2.69,0,0,0-.73-1.88,2.29,2.29,0,0,0-1.77-.79,2.33,2.33,0,0,0-1.77.76,2.71,2.71,0,0,0-.73,1.91,2.67,2.67,0,0,0,.74,1.9A2.32,2.32,0,0,0,470.13,199.25Z"/>
      <path d="M477.31,191.14a.87.87,0,0,1-.64-.27.89.89,0,0,1-.27-.65.87.87,0,0,1,.27-.64.92.92,0,0,1,1.28,0,.87.87,0,0,1,.27.64.89.89,0,0,1-.27.65A.87.87,0,0,1,477.31,191.14Zm-.68,9.48v-7.68H478v7.68Z"/>
      <path d="M480.74,200.62v-12h1.36v12Z"/>
      <path d="M485.54,191.14a.87.87,0,0,1-.64-.27.89.89,0,0,1-.27-.65.87.87,0,0,1,.27-.64.92.92,0,0,1,1.28,0,.87.87,0,0,1,.27.64.89.89,0,0,1-.27.65A.87.87,0,0,1,485.54,191.14Zm-.69,9.48v-7.68h1.36v7.68Z"/>
      <path d="M494.63,188.62H496v12h-1.31l0-1.49a2.83,2.83,0,0,1-1.09,1.21,3.05,3.05,0,0,1-1.63.45,3.46,3.46,0,0,1-1.39-.29,3.27,3.27,0,0,1-1.14-.8,3.59,3.59,0,0,1-.78-1.27,4.59,4.59,0,0,1-.28-1.64,4.07,4.07,0,0,1,1-2.89,3.38,3.38,0,0,1,2.55-1.11,3.06,3.06,0,0,1,1.61.44,2.86,2.86,0,0,1,1.09,1.17Zm-2.42,11a2.33,2.33,0,0,0,1.79-.8,2.94,2.94,0,0,0,.72-2,2.88,2.88,0,0,0-.73-2,2.28,2.28,0,0,0-1.78-.81,2.34,2.34,0,0,0-1.79.78,3.23,3.23,0,0,0,0,4.09A2.34,2.34,0,0,0,492.21,199.61Z"/>
      <path d="M500.51,200.77a2.62,2.62,0,0,1-1.68-.53,1.88,1.88,0,0,1-.66-1.57,2.2,2.2,0,0,1,.21-1,1.74,1.74,0,0,1,.62-.7,3.76,3.76,0,0,1,.9-.44,10.14,10.14,0,0,1,1.17-.28l1.24-.2c.46-.08.68-.32.68-.71a1.33,1.33,0,0,0-.48-1.14,1.9,1.9,0,0,0-1.21-.37,2,2,0,0,0-1.2.35,1.45,1.45,0,0,0-.57,1.08l-1.22-.26a2.33,2.33,0,0,1,1-1.64,3.54,3.54,0,0,1,2.09-.55,4.21,4.21,0,0,1,1.11.14,2.82,2.82,0,0,1,.93.43,1.89,1.89,0,0,1,.67.82,3.09,3.09,0,0,1,.24,1.27v3.17a1.37,1.37,0,0,0,.17.8.76.76,0,0,0,.61.21h.12v1h-.67a1.27,1.27,0,0,1-1.45-1H503A2.94,2.94,0,0,1,500.51,200.77Zm.31-1.09a2.05,2.05,0,0,0,1.65-.75,3,3,0,0,0,.63-2l-2,.39a2.73,2.73,0,0,0-1.19.43,1,1,0,0,0-.38.84,1,1,0,0,0,.37.84A1.52,1.52,0,0,0,500.82,199.68Z"/>
      <path d="M512.63,188.62H514v12h-1.31l0-1.49a2.83,2.83,0,0,1-1.09,1.21,3.05,3.05,0,0,1-1.63.45,3.46,3.46,0,0,1-1.39-.29,3.27,3.27,0,0,1-1.14-.8,3.59,3.59,0,0,1-.78-1.27,4.59,4.59,0,0,1-.28-1.64,4.07,4.07,0,0,1,1-2.89,3.38,3.38,0,0,1,2.55-1.11,3.06,3.06,0,0,1,1.61.44,2.86,2.86,0,0,1,1.09,1.17Zm-2.42,11a2.33,2.33,0,0,0,1.79-.8,2.94,2.94,0,0,0,.72-2,2.88,2.88,0,0,0-.73-2,2.28,2.28,0,0,0-1.78-.81,2.34,2.34,0,0,0-1.79.78,3.23,3.23,0,0,0,0,4.09A2.34,2.34,0,0,0,510.21,199.61Z"/>
      <path d="M451.48,210.1H447v3.6H451V215H447v3.59h4.47v1.27h-5.9v-11h5.9Z"/>
      <path d="M461.66,212a2.47,2.47,0,0,1,1.79.66,2.41,2.41,0,0,1,.68,1.83v5.34h-1.35v-5a1.76,1.76,0,0,0-.43-1.27,1.45,1.45,0,0,0-1.07-.43,1.54,1.54,0,0,0-1.17.49,2.06,2.06,0,0,0-.44,1.45v4.75h-1.38v-4.94a1.81,1.81,0,0,0-.42-1.3,1.45,1.45,0,0,0-1.09-.45,1.51,1.51,0,0,0-1.17.5,2.16,2.16,0,0,0-.45,1.49v4.7h-1.35v-7.68h1.35v1a2.29,2.29,0,0,1,.88-.84,2.48,2.48,0,0,1,1.22-.3,2.58,2.58,0,0,1,1.31.33,2,2,0,0,1,.85.93,2.38,2.38,0,0,1,.93-.93A2.58,2.58,0,0,1,461.66,212Z"/>
      <path d="M470,220a4,4,0,0,1-2-.48,3.44,3.44,0,0,1-1.39-1.39,4.29,4.29,0,0,1-.51-2.12,3.92,3.92,0,0,1,1.09-2.9,4.09,4.09,0,0,1,5.56,0,4.4,4.4,0,0,1,0,5.8A3.77,3.77,0,0,1,470,220Zm0-1.12a2.38,2.38,0,0,0,1.82-.79,3,3,0,0,0,.72-2.08,2.93,2.93,0,0,0-.72-2.07,2.35,2.35,0,0,0-1.82-.79,2.32,2.32,0,0,0-1.8.79,2.93,2.93,0,0,0-.71,2.07,3,3,0,0,0,.71,2.08A2.36,2.36,0,0,0,470,218.85Z"/>
      <path d="M479.15,220a3.67,3.67,0,0,1-2.75-1.1,3.93,3.93,0,0,1-1.09-2.88,3.89,3.89,0,0,1,1.09-2.88,4,4,0,0,1,5-.43,3.4,3.4,0,0,1,1.3,1.86l-1.27.21a2.3,2.3,0,0,0-2.26-1.62,2.23,2.23,0,0,0-1.77.79,3.4,3.4,0,0,0,0,4.13,2.23,2.23,0,0,0,1.77.79,2.3,2.3,0,0,0,2.26-1.62l1.27.21a3.42,3.42,0,0,1-1.3,1.87A3.76,3.76,0,0,1,479.15,220Z"/>
      <path d="M485.35,210.34a.92.92,0,0,1-.92-.92.87.87,0,0,1,.27-.64.92.92,0,0,1,.65-.26.89.89,0,0,1,.63.26.87.87,0,0,1,.27.64.89.89,0,0,1-.27.65A.86.86,0,0,1,485.35,210.34Zm-.69,9.48v-7.68H486v7.68Z"/>
      <path d="M492,220a4,4,0,0,1-2-.48,3.42,3.42,0,0,1-1.38-1.39,4.3,4.3,0,0,1-.52-2.12,4,4,0,0,1,1.09-2.9,4.09,4.09,0,0,1,5.56,0,4.4,4.4,0,0,1,0,5.8A3.75,3.75,0,0,1,492,220Zm0-1.12a2.38,2.38,0,0,0,1.82-.79,3,3,0,0,0,.72-2.08,2.93,2.93,0,0,0-.72-2.07,2.35,2.35,0,0,0-1.82-.79,2.32,2.32,0,0,0-1.8.79,3,3,0,0,0-.71,2.07,3,3,0,0,0,.71,2.08A2.36,2.36,0,0,0,492,218.85Z"/>
      <path d="M501.61,212a2.71,2.71,0,0,1,1.94.7,2.6,2.6,0,0,1,.72,2v5.17h-1.35V215a1.84,1.84,0,0,0-.47-1.38,1.69,1.69,0,0,0-1.21-.45,1.85,1.85,0,0,0-1.36.53,2.11,2.11,0,0,0-.54,1.57v4.59H498v-7.68h1.35v1A2.56,2.56,0,0,1,501.61,212Z"/>
      <path d="M508.65,220a2.62,2.62,0,0,1-1.68-.53,1.88,1.88,0,0,1-.66-1.57,2.2,2.2,0,0,1,.21-1,1.74,1.74,0,0,1,.62-.7,3.65,3.65,0,0,1,.91-.44,8,8,0,0,1,1.16-.27l1.25-.21c.45-.08.67-.32.67-.71a1.33,1.33,0,0,0-.48-1.14,1.9,1.9,0,0,0-1.21-.37,2,2,0,0,0-1.2.35,1.45,1.45,0,0,0-.57,1.08l-1.22-.25a2.33,2.33,0,0,1,1-1.65,3.54,3.54,0,0,1,2.09-.55,4.35,4.35,0,0,1,1.12.14,3,3,0,0,1,.93.43,1.94,1.94,0,0,1,.66.82,3.09,3.09,0,0,1,.24,1.27v3.17a1.37,1.37,0,0,0,.17.8.76.76,0,0,0,.61.21h.12v1h-.67a1.27,1.27,0,0,1-1.45-1h-.06A2.94,2.94,0,0,1,508.65,220Zm.31-1.09a2,2,0,0,0,1.65-.75,3,3,0,0,0,.63-2l-2,.39a2.73,2.73,0,0,0-1.2.43,1,1,0,0,0-.38.84,1,1,0,0,0,.37.84A1.54,1.54,0,0,0,509,218.88Z"/>
      <path d="M515.26,219.82v-12h1.37v12Z"/>
      <path d="M451.53,229.3H447v3.59H451v1.26H447V239h-1.43V228h5.95Z"/>
      <path d="M454.85,232.69a2.37,2.37,0,0,1,1-1,2.84,2.84,0,0,1,1.47-.4v1.27a2.52,2.52,0,0,0-1.78.57,2.38,2.38,0,0,0-.62,1.82V239h-1.35v-7.68h1.32Z"/>
      <path d="M463.65,231.34H465V239h-1.29l0-1a2.39,2.39,0,0,1-.95.86,2.91,2.91,0,0,1-1.34.3,2.69,2.69,0,0,1-1.94-.69,2.62,2.62,0,0,1-.72-2v-5.17h1.35v4.87a1.8,1.8,0,0,0,.48,1.37,1.62,1.62,0,0,0,1.2.46,1.88,1.88,0,0,0,1.37-.53,2.16,2.16,0,0,0,.53-1.57Z"/>
      <path d="M470.18,239.17a3.63,3.63,0,0,1-2.07-.55,2.31,2.31,0,0,1-1-1.58l1.18-.34a1.7,1.7,0,0,0,.63,1.07,2.07,2.07,0,0,0,1.26.38,2.82,2.82,0,0,0,.74-.1,1.28,1.28,0,0,0,.57-.38,1.09,1.09,0,0,0,.23-.7,1.07,1.07,0,0,0-.07-.32,1.17,1.17,0,0,0-.12-.25.64.64,0,0,0-.22-.21A2.29,2.29,0,0,0,471,236a2.08,2.08,0,0,0-.34-.14l-.38-.13-.43-.12-.44-.13c-.32-.1-.59-.19-.8-.28a3.66,3.66,0,0,1-.65-.37,1.49,1.49,0,0,1-.5-.61,2.06,2.06,0,0,1-.17-.86,2,2,0,0,1,.38-1.23,2.12,2.12,0,0,1,1-.72,3.84,3.84,0,0,1,1.36-.22,3.34,3.34,0,0,1,1.87.5,2.14,2.14,0,0,1,.94,1.5l-1.11.28a1.44,1.44,0,0,0-.59-1,1.82,1.82,0,0,0-1.1-.33,1.91,1.91,0,0,0-1,.27.91.91,0,0,0-.43.83.85.85,0,0,0,.11.42,1.65,1.65,0,0,0,.23.3,1.26,1.26,0,0,0,.43.23,3.6,3.6,0,0,0,.45.17l.56.14.12,0,.74.21a5.36,5.36,0,0,1,.66.28,2.43,2.43,0,0,1,.6.42,2,2,0,0,1,.37.59,2,2,0,0,1,.16.83,2.31,2.31,0,0,1-.23,1,1.71,1.71,0,0,1-.63.7,2.74,2.74,0,0,1-.89.39A4.15,4.15,0,0,1,470.18,239.17Z"/>
      <path d="M477.59,239a2,2,0,0,1-1.5-.55,2.07,2.07,0,0,1-.55-1.53v-4.52H474v-1.08h.58a1.13,1.13,0,0,0,.85-.27,1.35,1.35,0,0,0,.24-.9v-1.39h1.26v2.56h1.77v1.08H476.9v4.38a1.17,1.17,0,0,0,.29.84,1,1,0,0,0,.77.3h.71V239Z"/>
      <path d="M481.94,232.69a2.34,2.34,0,0,1,.95-1,2.91,2.91,0,0,1,1.48-.4v1.27a2.55,2.55,0,0,0-1.79.57,2.38,2.38,0,0,0-.61,1.82V239h-1.35v-7.68h1.32Z"/>
      <path d="M487.63,239.17a2.62,2.62,0,0,1-1.68-.53,1.88,1.88,0,0,1-.66-1.57,2.28,2.28,0,0,1,.21-1,1.74,1.74,0,0,1,.63-.69,3.42,3.42,0,0,1,.9-.44,9.22,9.22,0,0,1,1.17-.28l1.24-.2c.45-.08.68-.32.68-.71a1.33,1.33,0,0,0-.48-1.14,1.93,1.93,0,0,0-1.22-.37,2,2,0,0,0-1.2.35,1.51,1.51,0,0,0-.57,1.08l-1.22-.26a2.4,2.4,0,0,1,1-1.64,3.6,3.6,0,0,1,2.1-.55,4.32,4.32,0,0,1,1.11.14,2.82,2.82,0,0,1,.93.43,1.94,1.94,0,0,1,.66.82,3.09,3.09,0,0,1,.24,1.27V237a1.29,1.29,0,0,0,.18.8.74.74,0,0,0,.6.21h.13v1h-.67c-.83,0-1.32-.34-1.46-1h-.06A2.94,2.94,0,0,1,487.63,239.17Zm.32-1.09a2.05,2.05,0,0,0,1.65-.75,3.08,3.08,0,0,0,.62-2l-2,.39a2.68,2.68,0,0,0-1.19.43,1.12,1.12,0,0,0,0,1.68A1.55,1.55,0,0,0,488,238.08Z"/>
      <path d="M497.28,239.16a3.67,3.67,0,0,1-2.75-1.1,4.36,4.36,0,0,1,0-5.76,3.68,3.68,0,0,1,2.76-1.11,3.72,3.72,0,0,1,2.22.68,3.33,3.33,0,0,1,1.29,1.86l-1.26.21a2.35,2.35,0,0,0-.87-1.2,2.38,2.38,0,0,0-1.39-.42,2.27,2.27,0,0,0-1.78.79,3.4,3.4,0,0,0,0,4.13,2.27,2.27,0,0,0,1.78.79,2.38,2.38,0,0,0,1.39-.42,2.35,2.35,0,0,0,.87-1.2l1.26.21a3.37,3.37,0,0,1-1.3,1.87A3.71,3.71,0,0,1,497.28,239.16Z"/>
      <path d="M503.47,229.54a.87.87,0,0,1-.64-.27.89.89,0,0,1-.27-.65.87.87,0,0,1,.27-.64.92.92,0,0,1,1.28,0,.87.87,0,0,1,.27.64.89.89,0,0,1-.27.65A.87.87,0,0,1,503.47,229.54Zm-.69,9.48v-7.68h1.36V239Z"/>
      <path d="M510.13,239.17a4,4,0,0,1-2-.48,3.44,3.44,0,0,1-1.39-1.39,4.29,4.29,0,0,1-.51-2.12,3.92,3.92,0,0,1,1.09-2.9,4.09,4.09,0,0,1,5.56,0,4,4,0,0,1,1.08,2.9,3.91,3.91,0,0,1-1.09,2.9A3.73,3.73,0,0,1,510.13,239.17Zm0-1.12a2.4,2.4,0,0,0,1.82-.79,3,3,0,0,0,.72-2.08,2.93,2.93,0,0,0-.72-2.07,2.36,2.36,0,0,0-1.82-.79,2.32,2.32,0,0,0-1.8.79,2.93,2.93,0,0,0-.72,2.07,3,3,0,0,0,.72,2.08A2.36,2.36,0,0,0,510.12,238.05Zm-.51-8,2-2.54.72.52-1.75,2Z"/>
      <path d="M519.74,231.19a2.69,2.69,0,0,1,1.93.7,2.6,2.6,0,0,1,.72,2V239H521v-4.87a1.83,1.83,0,0,0-.47-1.37,1.65,1.65,0,0,0-1.2-.45,1.88,1.88,0,0,0-1.37.53,2.19,2.19,0,0,0-.54,1.57V239h-1.35v-7.68h1.35v1A2.56,2.56,0,0,1,519.74,231.19Z"/>
    </g>
    <g>
      <path d="M324.83,117.11a3.41,3.41,0,0,1,2.6,1,3.69,3.69,0,0,1,1,2.6,3.51,3.51,0,0,1-1,2.58,3.43,3.43,0,0,1-2.6,1h-2.36v4h-2.34V117.11Zm-.4,5.28a1.68,1.68,0,0,0,1.29-.44,1.65,1.65,0,0,0,.43-1.22,1.68,1.68,0,0,0-.43-1.21,1.71,1.71,0,0,0-1.29-.45h-2v3.32Z"/>
      <path d="M333.55,128.56a5.15,5.15,0,0,1-2.27-.49,3.7,3.7,0,0,1-1.56-1.45,4.26,4.26,0,0,1-.57-2.24,4,4,0,0,1,1.22-3,5.09,5.09,0,0,1,6.37,0,4.44,4.44,0,0,1,0,6.11A4.52,4.52,0,0,1,333.55,128.56Zm0-1.79a2.07,2.07,0,0,0,1.59-.66,2.44,2.44,0,0,0,.6-1.73,2.49,2.49,0,0,0-.6-1.74,2.1,2.1,0,0,0-1.59-.65,2,2,0,0,0-1.54.66,2.79,2.79,0,0,0,0,3.46A2,2,0,0,0,333.53,126.77Z"/>
      <path d="M342.46,128.56a4.57,4.57,0,0,1-2.35-.56,2.4,2.4,0,0,1-1.14-1.68l1.88-.53a1.51,1.51,0,0,0,1.61,1.2,1.58,1.58,0,0,0,.82-.19.63.63,0,0,0,.32-.62.69.69,0,0,0-.13-.41,1.24,1.24,0,0,0-.41-.3l-.55-.21-.72-.21a7.45,7.45,0,0,1-.74-.23,4.74,4.74,0,0,1-.71-.3,2.68,2.68,0,0,1-.58-.41,1.67,1.67,0,0,1-.44-.63,2.31,2.31,0,0,1-.15-.86,2.06,2.06,0,0,1,.87-1.8,3.94,3.94,0,0,1,2.28-.61,4,4,0,0,1,2.1.52,2.32,2.32,0,0,1,1.08,1.61l-1.75.39a1.35,1.35,0,0,0-1.42-1,1.54,1.54,0,0,0-.79.18.59.59,0,0,0-.32.54.64.64,0,0,0,0,.24.48.48,0,0,0,.16.19l.23.15a1.48,1.48,0,0,0,.32.13,2.89,2.89,0,0,0,.35.1l.41.11.42.11c.29.08.54.15.76.23a5.28,5.28,0,0,1,.69.33,2.66,2.66,0,0,1,.6.47,2.29,2.29,0,0,1,.4.67,2.48,2.48,0,0,1,.15.89,2.39,2.39,0,0,1-.27,1.16,2,2,0,0,1-.74.79,3.55,3.55,0,0,1-1,.42A5.44,5.44,0,0,1,342.46,128.56Z"/>
      <path d="M348.53,119.17a1.26,1.26,0,0,1-.92-.38,1.27,1.27,0,0,1,0-1.83,1.28,1.28,0,0,1,.92-.38,1.3,1.3,0,0,1,0,2.59Zm-1.15,9.23v-8h2.27v8Z"/>
      <path d="M355,128.4a2.41,2.41,0,0,1-1.82-.65,2.56,2.56,0,0,1-.64-1.86V122.1h-1.58v-1.73h.51a1.32,1.32,0,0,0,1-.33,1.73,1.73,0,0,0,.32-1.2v-1.06h2v2.59h1.66v1.73h-1.66v3.55c0,.7.31,1,.93,1h.73v1.71Z"/>
      <path d="M359.34,119.17a1.26,1.26,0,0,1-.92-.38,1.22,1.22,0,0,1-.38-.92,1.25,1.25,0,0,1,.38-.91,1.29,1.29,0,0,1,.92-.38,1.27,1.27,0,0,1,.91.38,1.29,1.29,0,0,1,0,1.83A1.27,1.27,0,0,1,359.34,119.17Zm-1.15,9.23v-8h2.27v8Z"/>
      <path d="M368,120.37h2.39l-3.43,8h-2l-3.38-8H364l2,5.49Z"/>
      <path d="M375,128.56a5.17,5.17,0,0,1-2.28-.49,3.62,3.62,0,0,1-1.55-1.45,4.26,4.26,0,0,1-.57-2.24,3.91,3.91,0,0,1,1.22-3,5.07,5.07,0,0,1,6.36,0,4.44,4.44,0,0,1,0,6.11A4.49,4.49,0,0,1,375,128.56Zm0-1.79a2,2,0,0,0,1.59-.66,2.41,2.41,0,0,0,.61-1.73,2.45,2.45,0,0,0-.61-1.74A2.07,2.07,0,0,0,375,122a2,2,0,0,0-1.54.66,2.79,2.79,0,0,0,0,3.46A2,2,0,0,0,375,126.77Z"/>
    </g>
    <g>
      <path d="M453,117.11h2.33V128.4h-2.71l-5-8.07v8.07h-2.34V117.11H448l5,8Z"/>
      <path d="M465.49,124.27l0,.54h-6a2.06,2.06,0,0,0,.64,1.47,2,2,0,0,0,1.41.51,2,2,0,0,0,1.06-.28,1.75,1.75,0,0,0,.68-.81l2.06.3a3.56,3.56,0,0,1-1.41,1.89,4.22,4.22,0,0,1-2.37.67,4.34,4.34,0,0,1-3.13-1.11,4,4,0,0,1-1.16-3.06,4.09,4.09,0,0,1,1.16-3.07,4.23,4.23,0,0,1,3.06-1.12,3.67,3.67,0,0,1,4,4.07Zm-4-2.48a1.78,1.78,0,0,0-1.95,1.55h3.69a1.69,1.69,0,0,0-.56-1.15A1.77,1.77,0,0,0,461.53,121.79Z"/>
      <path d="M472.74,120.37h2.14v7.43a6,6,0,0,1-.3,2,3.23,3.23,0,0,1-.87,1.37,3.65,3.65,0,0,1-1.34.77,5.52,5.52,0,0,1-1.75.25q-3.18,0-4.14-2.49l1.87-.8a2.71,2.71,0,0,0,.86,1.17,2.21,2.21,0,0,0,1.32.37c1.39,0,2.09-.82,2.09-2.48V127a2.53,2.53,0,0,1-1,.79,3.39,3.39,0,0,1-1.43.3,3.58,3.58,0,0,1-1.41-.28,3.75,3.75,0,0,1-1.17-.8,3.81,3.81,0,0,1-.79-1.26,4.73,4.73,0,0,1,0-3.26,3.59,3.59,0,0,1,.8-1.24,3.34,3.34,0,0,1,1.17-.78,3.57,3.57,0,0,1,1.42-.29,3.3,3.3,0,0,1,1.49.34,2.31,2.31,0,0,1,1,.88Zm-3.45,5.31a1.94,1.94,0,0,0,1.47.62,2,2,0,0,0,1.48-.62,2.25,2.25,0,0,0,0-3.06,2.09,2.09,0,0,0-3,0,2.14,2.14,0,0,0-.59,1.54A2.1,2.1,0,0,0,469.29,125.68Z"/>
      <path d="M483.8,126.22a7.51,7.51,0,0,0,.19,2v.22h-2.1l-.18-.87a2.59,2.59,0,0,1-1.12.77,4.24,4.24,0,0,1-1.46.26,3.67,3.67,0,0,1-.75-.07,2.68,2.68,0,0,1-.67-.24,2,2,0,0,1-.56-.42,1.7,1.7,0,0,1-.37-.63,2.63,2.63,0,0,1,0-1.75,2.2,2.2,0,0,1,.39-.65,2.49,2.49,0,0,1,.64-.48,5,5,0,0,1,.79-.34,9.36,9.36,0,0,1,1-.25l1.32-.3a1.31,1.31,0,0,0,.59-.25.5.5,0,0,0,.18-.4.85.85,0,0,0-.39-.78,2,2,0,0,0-1-.23,1.38,1.38,0,0,0-1.57,1.23l-2-.36a2.7,2.7,0,0,1,1.16-1.84,4.65,4.65,0,0,1,2.52-.59q3.38,0,3.38,2.9Zm-4,.82a1.81,1.81,0,0,0,1.39-.59,2.43,2.43,0,0,0,.54-1.72l-1.91.54a2.14,2.14,0,0,0-.8.33.68.68,0,0,0-.28.58.74.74,0,0,0,.3.63A1.23,1.23,0,0,0,479.84,127Z"/>
      <path d="M488.87,128.4a2.39,2.39,0,0,1-1.81-.65,2.52,2.52,0,0,1-.64-1.86V122.1h-1.58v-1.73h.51a1.35,1.35,0,0,0,1-.33,1.78,1.78,0,0,0,.32-1.2v-1.06h2v2.59h1.65v1.73H488.7v3.55c0,.7.31,1,.93,1h.72v1.71Z"/>
      <path d="M493.24,119.17a1.28,1.28,0,0,1-.92-.38,1.26,1.26,0,0,1-.38-.92,1.23,1.23,0,0,1,.39-.91,1.28,1.28,0,0,1,1.82,0,1.29,1.29,0,0,1,0,1.83A1.25,1.25,0,0,1,493.24,119.17Zm-1.14,9.23v-8h2.26v8Z"/>
      <path d="M501.92,120.37h2.38l-3.42,8h-2l-3.38-8h2.37l2,5.49Z"/>
      <path d="M508.9,128.56a5.15,5.15,0,0,1-2.27-.49,3.7,3.7,0,0,1-1.56-1.45,4.26,4.26,0,0,1-.57-2.24,4,4,0,0,1,1.22-3,5.09,5.09,0,0,1,6.37,0,4.44,4.44,0,0,1,0,6.11A4.52,4.52,0,0,1,508.9,128.56Zm0-1.79a2.07,2.07,0,0,0,1.59-.66,2.44,2.44,0,0,0,.6-1.73,2.49,2.49,0,0,0-.6-1.74,2.1,2.1,0,0,0-1.59-.65,2,2,0,0,0-1.55.66,2.83,2.83,0,0,0,0,3.46A2,2,0,0,0,508.88,126.77Z"/>
    </g>
  </g>
</svg>
