<svg id="Layer_1" data-name="Layer 1" xmlns="http://www.w3.org/2000/svg" width="563.56" height="300.44" viewBox="0 0 563.56 300.44">
  <defs>
    <style>
      .cls-1 {
        fill: #ff7bac;
      }

      .cls-2 {
        fill: #f2f2f2;
      }

      .cls-3 {
        opacity: 0.75;
      }

      .cls-4 {
        opacity: 0.5;
      }

      .cls-5 {
        opacity: 0.25;
      }
    </style>
  </defs>
  <g>
    <rect class="cls-1" width="281.78" height="228.44"/>
    <rect class="cls-2" x="281.78" width="281.78" height="300.44"/>
    <rect class="cls-1" y="228.44" width="70.44" height="72"/>
    <g class="cls-3">
      <rect class="cls-1" x="70.44" y="228.44" width="70.44" height="72"/>
    </g>
    <g class="cls-4">
      <rect class="cls-1" x="140.89" y="228.44" width="70.44" height="72"/>
    </g>
    <g class="cls-5">
      <rect class="cls-1" x="211.33" y="228.44" width="70.44" height="72"/>
    </g>
    <g>
      <path d="M343.85,124.4l-7-11.8h-1.61v11.8h-5.57V97.59h9.73a11.3,11.3,0,0,1,3.89.62,6.7,6.7,0,0,1,2.7,1.73,7.25,7.25,0,0,1,1.52,2.53,9.27,9.27,0,0,1,.51,3.14,6.51,6.51,0,0,1-1.46,4.4,7.33,7.33,0,0,1-4.21,2.31l8.07,12.08Zm-8.59-22.19v6.4h3.28q4.18,0,4.18-3.19a2.92,2.92,0,0,0-1-2.36,4.91,4.91,0,0,0-3.16-.85Z"/>
      <path d="M361.57,124.77a12,12,0,0,1-5.4-1.17,8.69,8.69,0,0,1-3.7-3.43,10.19,10.19,0,0,1-1.35-5.32,9.34,9.34,0,0,1,2.9-7.24,12.11,12.11,0,0,1,15.12,0,10.51,10.51,0,0,1,0,14.5A10.71,10.71,0,0,1,361.57,124.77Zm-.05-4.25a4.89,4.89,0,0,0,3.77-1.55,6.61,6.61,0,0,0,0-8.24,4.9,4.9,0,0,0-3.77-1.56,4.71,4.71,0,0,0-3.67,1.57,6.66,6.66,0,0,0,0,8.22A4.74,4.74,0,0,0,361.52,120.52Z"/>
      <path d="M382.72,124.77a10.65,10.65,0,0,1-5.56-1.33,5.63,5.63,0,0,1-2.73-4l4.47-1.26a3.59,3.59,0,0,0,3.82,2.83,4,4,0,0,0,1.95-.43,1.52,1.52,0,0,0,.76-1.48,1.55,1.55,0,0,0-.31-1,2.56,2.56,0,0,0-1-.71c-.44-.19-.87-.36-1.3-.5s-1-.3-1.69-.49a18.42,18.42,0,0,1-1.77-.55,12.31,12.31,0,0,1-1.68-.71,7.21,7.21,0,0,1-1.39-1,4.12,4.12,0,0,1-1-1.5,5.38,5.38,0,0,1-.36-2A4.88,4.88,0,0,1,377,106.4a9.28,9.28,0,0,1,5.41-1.44,9.53,9.53,0,0,1,5,1.22,5.55,5.55,0,0,1,2.56,3.82l-4.14.93a3.23,3.23,0,0,0-3.39-2.41,3.68,3.68,0,0,0-1.88.43,1.37,1.37,0,0,0-.74,1.26,1.48,1.48,0,0,0,.11.57,1.23,1.23,0,0,0,.39.47c.19.13.37.25.54.35a4.31,4.31,0,0,0,.76.31l.84.24,1,.25,1,.26c.68.18,1.28.37,1.79.55a11.48,11.48,0,0,1,1.65.78,5.76,5.76,0,0,1,1.43,1.13,5,5,0,0,1,.94,1.57,5.81,5.81,0,0,1,.37,2.13,5.68,5.68,0,0,1-.64,2.76,4.78,4.78,0,0,1-1.75,1.87,8.66,8.66,0,0,1-2.48,1A12.67,12.67,0,0,1,382.72,124.77Z"/>
      <path d="M410.05,119.23a17.72,17.72,0,0,0,.47,4.65v.52h-5l-.43-2.08a6.19,6.19,0,0,1-2.67,1.84,9.79,9.79,0,0,1-3.45.61,9.14,9.14,0,0,1-1.78-.16,5.84,5.84,0,0,1-1.61-.57,5.3,5.3,0,0,1-1.33-1,4.54,4.54,0,0,1-.89-1.51,6.16,6.16,0,0,1-.33-2.07,5.83,5.83,0,0,1,.35-2.07,5,5,0,0,1,.93-1.55,5.46,5.46,0,0,1,1.5-1.13,10.9,10.9,0,0,1,1.9-.82,20.79,20.79,0,0,1,2.26-.59l3.14-.71a3.41,3.41,0,0,0,1.41-.6,1.2,1.2,0,0,0,.42-1,2,2,0,0,0-.93-1.83,4.43,4.43,0,0,0-2.28-.56q-3.28,0-3.73,2.91l-4.73-.85a6.4,6.4,0,0,1,2.77-4.35,10.9,10.9,0,0,1,6-1.4q8,0,8,6.88Zm-9.4,1.93a4.3,4.3,0,0,0,3.3-1.39,5.83,5.83,0,0,0,1.28-4.09L400.7,117a5.4,5.4,0,0,0-1.9.78,1.6,1.6,0,0,0-.66,1.37,1.8,1.8,0,0,0,.71,1.52A2.94,2.94,0,0,0,400.65,121.16Z"/>
      <path d="M428.35,95.9h5.34v28.5h-5.06l-.13-2.48a5.56,5.56,0,0,1-2.42,2.16,8.21,8.21,0,0,1-3.58.77,9.25,9.25,0,0,1-3.56-.69,8.62,8.62,0,0,1-4.9-5.08,11.68,11.68,0,0,1-.72-4.18,10.83,10.83,0,0,1,1.26-5.31,8.62,8.62,0,0,1,3.33-3.46A9.17,9.17,0,0,1,422.5,105a8.46,8.46,0,0,1,3.47.69,5.5,5.5,0,0,1,2.38,2Zm-4.62,24.51a4.74,4.74,0,0,0,3.61-1.52,5.55,5.55,0,0,0,1.44-4,5.62,5.62,0,0,0-1.45-4,5.06,5.06,0,0,0-7.23,0,6.32,6.32,0,0,0,0,8A4.82,4.82,0,0,0,423.73,120.41Z"/>
      <path d="M448.11,124.77a12,12,0,0,1-5.4-1.17,8.69,8.69,0,0,1-3.7-3.43,10.19,10.19,0,0,1-1.35-5.32,9.34,9.34,0,0,1,2.9-7.24,12.11,12.11,0,0,1,15.12,0,10.51,10.51,0,0,1,0,14.5A10.71,10.71,0,0,1,448.11,124.77Zm-.06-4.25a4.9,4.9,0,0,0,3.78-1.55,6.61,6.61,0,0,0,0-8.24,4.9,4.9,0,0,0-3.78-1.56,4.71,4.71,0,0,0-3.66,1.57,6.66,6.66,0,0,0,0,8.22A4.73,4.73,0,0,0,448.05,120.52Z"/>
    </g>
    <g>
      <path d="M337.11,162.37a5.93,5.93,0,0,1-2.17-.39,5.62,5.62,0,0,1-1.74-1.11,5,5,0,0,1-1.15-1.79,6.41,6.41,0,0,1-.42-2.37,6.34,6.34,0,0,1,.42-2.35,5,5,0,0,1,2.89-2.9,5.93,5.93,0,0,1,2.17-.39,5.55,5.55,0,0,1,2.92.78A4.82,4.82,0,0,1,342,154l-1.29.53a3.71,3.71,0,0,0-1.44-1.57,4.12,4.12,0,0,0-2.13-.55,4.47,4.47,0,0,0-1.61.29,3.81,3.81,0,0,0-1.29.83,3.7,3.7,0,0,0-.87,1.36,5,5,0,0,0-.32,1.82,5.11,5.11,0,0,0,.32,1.84,3.7,3.7,0,0,0,.87,1.36,3.81,3.81,0,0,0,1.29.83,4.27,4.27,0,0,0,1.61.29,4.12,4.12,0,0,0,2.13-.55,3.63,3.63,0,0,0,1.44-1.56l1.29.53A4.8,4.8,0,0,1,340,161.6,5.65,5.65,0,0,1,337.11,162.37Z"/>
      <path d="M347.25,162.37a4,4,0,0,1-2-.48,3.38,3.38,0,0,1-1.39-1.39,4.29,4.29,0,0,1-.51-2.12,3.91,3.91,0,0,1,1.09-2.9,4.09,4.09,0,0,1,5.56,0,4.42,4.42,0,0,1,0,5.8A3.73,3.73,0,0,1,347.25,162.37Zm0-1.12a2.4,2.4,0,0,0,1.82-.79,3,3,0,0,0,.72-2.08,2.93,2.93,0,0,0-.72-2.07,2.36,2.36,0,0,0-1.82-.79,2.31,2.31,0,0,0-1.8.79,2.93,2.93,0,0,0-.72,2.07,3,3,0,0,0,.72,2.08A2.34,2.34,0,0,0,347.24,161.25Z"/>
      <path d="M361.08,154.39a2.46,2.46,0,0,1,1.79.66,2.38,2.38,0,0,1,.68,1.83v5.34H362.2v-5a1.75,1.75,0,0,0-.42-1.27,1.46,1.46,0,0,0-1.07-.43,1.51,1.51,0,0,0-1.17.49,2.06,2.06,0,0,0-.45,1.45v4.75h-1.37v-4.94a1.82,1.82,0,0,0-.43-1.3,1.43,1.43,0,0,0-1.09-.45,1.51,1.51,0,0,0-1.17.5,2.16,2.16,0,0,0-.45,1.49v4.7h-1.35v-7.68h1.35v1a2.44,2.44,0,0,1,.88-.84,2.48,2.48,0,0,1,1.22-.3,2.59,2.59,0,0,1,1.32.33,2,2,0,0,1,.85.93,2.35,2.35,0,0,1,.92-.93A2.6,2.6,0,0,1,361.08,154.39Z"/>
      <path d="M370.22,154.39a3.59,3.59,0,0,1,1.39.28,3.53,3.53,0,0,1,1.14.79,3.57,3.57,0,0,1,.77,1.27,4.71,4.71,0,0,1,.29,1.66,4,4,0,0,1-1,2.89,3.35,3.35,0,0,1-2.55,1.11,3,3,0,0,1-1.6-.44,2.9,2.9,0,0,1-1.1-1.18v5.32h-1.35V154.54h1.3l0,1.49a2.81,2.81,0,0,1,1.1-1.19A3,3,0,0,1,370.22,154.39Zm-.26,6.82a2.34,2.34,0,0,0,1.78-.77,3.28,3.28,0,0,0,0-4.1,2.34,2.34,0,0,0-1.78-.77,2.37,2.37,0,0,0-1.81.8,3.16,3.16,0,0,0,0,4A2.37,2.37,0,0,0,370,161.21Z"/>
      <path d="M377.72,162.37a2.63,2.63,0,0,1-1.69-.53,1.88,1.88,0,0,1-.66-1.57,2.28,2.28,0,0,1,.21-1,1.74,1.74,0,0,1,.63-.69,3.42,3.42,0,0,1,.9-.44,10.14,10.14,0,0,1,1.17-.28l1.24-.2c.45-.08.68-.32.68-.71a1.33,1.33,0,0,0-.48-1.14,1.93,1.93,0,0,0-1.22-.37,2,2,0,0,0-1.2.35,1.51,1.51,0,0,0-.57,1.08l-1.22-.26a2.4,2.4,0,0,1,1-1.64,3.6,3.6,0,0,1,2.1-.55,4.32,4.32,0,0,1,1.11.14,2.82,2.82,0,0,1,.93.43,1.87,1.87,0,0,1,.66.82,3.09,3.09,0,0,1,.24,1.27v3.17a1.29,1.29,0,0,0,.18.8.75.75,0,0,0,.6.21h.13v1h-.67c-.83,0-1.32-.34-1.46-1h-.06A2.93,2.93,0,0,1,377.72,162.37Zm.31-1.09a2.05,2.05,0,0,0,1.65-.75,3.08,3.08,0,0,0,.62-2l-2,.39a2.68,2.68,0,0,0-1.19.43,1.12,1.12,0,0,0,0,1.68A1.55,1.55,0,0,0,378,161.28Z"/>
      <path d="M386.75,162.37a3.67,3.67,0,0,1-2.07-.55,2.3,2.3,0,0,1-1-1.58l1.18-.34a1.62,1.62,0,0,0,.63,1.07,2,2,0,0,0,1.26.38,2.88,2.88,0,0,0,.74-.1,1.2,1.2,0,0,0,.56-.38,1,1,0,0,0,.23-.7,1.52,1.52,0,0,0-.06-.32,1.46,1.46,0,0,0-.13-.25.64.64,0,0,0-.22-.21l-.26-.17a2.78,2.78,0,0,0-.35-.14l-.37-.13-.43-.12-.45-.13a7.56,7.56,0,0,1-.79-.28,3.34,3.34,0,0,1-.65-.37,1.51,1.51,0,0,1-.51-.61,2.06,2.06,0,0,1-.16-.86,2,2,0,0,1,.37-1.23,2.12,2.12,0,0,1,1-.72,3.9,3.9,0,0,1,1.37-.22,3.36,3.36,0,0,1,1.87.5,2.1,2.1,0,0,1,.93,1.5l-1.11.28a1.46,1.46,0,0,0-.58-1,1.87,1.87,0,0,0-1.11-.33,1.91,1.91,0,0,0-1,.27.93.93,0,0,0-.43.83.76.76,0,0,0,.12.42,1.07,1.07,0,0,0,.23.3,1.3,1.3,0,0,0,.42.23,3.6,3.6,0,0,0,.45.17l.56.14.12,0,.74.21a5.36,5.36,0,0,1,.66.28,2.1,2.1,0,0,1,.6.42,2,2,0,0,1,.38.59,2.23,2.23,0,0,1,.15.83,2.18,2.18,0,0,1-.23,1,1.71,1.71,0,0,1-.63.7,2.65,2.65,0,0,1-.89.39A4.1,4.1,0,0,1,386.75,162.37Z"/>
      <path d="M392.4,152.74a.92.92,0,0,1-.92-.92.87.87,0,0,1,.27-.64.92.92,0,0,1,.65-.26.89.89,0,0,1,.63.26.87.87,0,0,1,.27.64.89.89,0,0,1-.27.65A.86.86,0,0,1,392.4,152.74Zm-.69,9.48v-7.68h1.36v7.68Z"/>
      <path d="M399.05,162.37a4,4,0,0,1-2-.48,3.42,3.42,0,0,1-1.38-1.39,4.19,4.19,0,0,1-.52-2.12,4,4,0,0,1,1.09-2.9,4.09,4.09,0,0,1,5.56,0,4.4,4.4,0,0,1,0,5.8A3.75,3.75,0,0,1,399.05,162.37Zm0-1.12a2.38,2.38,0,0,0,1.82-.79,3,3,0,0,0,.72-2.08,2.93,2.93,0,0,0-.72-2.07,2.35,2.35,0,0,0-1.82-.79,2.32,2.32,0,0,0-1.8.79,3,3,0,0,0-.71,2.07,3,3,0,0,0,.71,2.08A2.36,2.36,0,0,0,399,161.25Zm-.5-8,2-2.55.72.53-1.75,2Z"/>
      <path d="M408.66,154.39a2.67,2.67,0,0,1,1.93.7,2.56,2.56,0,0,1,.73,2v5.17H410v-4.87a1.83,1.83,0,0,0-.47-1.37,1.69,1.69,0,0,0-1.21-.45,1.85,1.85,0,0,0-1.36.53,2.11,2.11,0,0,0-.54,1.57v4.59H405v-7.68h1.35v1A2.56,2.56,0,0,1,408.66,154.39Z"/>
      <path d="M339.46,181.42l-.95-2.63h-5l-.94,2.63h-1.46l4.05-11h1.67l4.06,11ZM334,177.55h4.1L336,171.83Z"/>
      <path d="M350.61,173.59a2.46,2.46,0,0,1,1.79.66,2.38,2.38,0,0,1,.68,1.83v5.34h-1.35v-5a1.75,1.75,0,0,0-.42-1.27,1.46,1.46,0,0,0-1.07-.43,1.51,1.51,0,0,0-1.17.49,2.06,2.06,0,0,0-.45,1.45v4.75h-1.37v-4.94a1.82,1.82,0,0,0-.43-1.3,1.43,1.43,0,0,0-1.09-.45,1.51,1.51,0,0,0-1.17.5,2.16,2.16,0,0,0-.45,1.49v4.7h-1.35v-7.68h1.35v1a2.44,2.44,0,0,1,.88-.84,2.49,2.49,0,0,1,1.23-.3,2.58,2.58,0,0,1,1.31.33,2,2,0,0,1,.85.93,2.42,2.42,0,0,1,.92-.93A2.6,2.6,0,0,1,350.61,173.59Z"/>
      <path d="M358.93,181.57a4,4,0,0,1-2-.48,3.38,3.38,0,0,1-1.39-1.39,4.29,4.29,0,0,1-.51-2.12,3.92,3.92,0,0,1,1.09-2.9,3.77,3.77,0,0,1,2.77-1.09,3.81,3.81,0,0,1,2.79,1.09,4,4,0,0,1,1.08,2.9,3.91,3.91,0,0,1-1.09,2.9A3.74,3.74,0,0,1,358.93,181.57Zm0-1.12a2.36,2.36,0,0,0,1.81-.79,3,3,0,0,0,.73-2.08,2.94,2.94,0,0,0-.73-2.07,2.33,2.33,0,0,0-1.81-.79,2.29,2.29,0,0,0-1.8.79,2.93,2.93,0,0,0-.72,2.07,3,3,0,0,0,.72,2.08A2.33,2.33,0,0,0,358.93,180.45Z"/>
      <path d="M366.24,175.09a2.34,2.34,0,0,1,.95-1,2.88,2.88,0,0,1,1.48-.4v1.27a2.55,2.55,0,0,0-1.79.57,2.38,2.38,0,0,0-.61,1.82v4.1h-1.35v-7.68h1.32Z"/>
      <path d="M332.4,200.62v-11h1.39v11Z"/>
      <path d="M340.52,192.79a2.67,2.67,0,0,1,1.93.7,2.56,2.56,0,0,1,.73,2v5.17h-1.35v-4.86a1.83,1.83,0,0,0-.47-1.38,1.69,1.69,0,0,0-1.21-.45,1.85,1.85,0,0,0-1.36.53,2.11,2.11,0,0,0-.54,1.57v4.59H336.9v-7.68h1.35v1A2.56,2.56,0,0,1,340.52,192.79Z"/>
      <path d="M353.64,192.79a2.47,2.47,0,0,1,1.79.66,2.41,2.41,0,0,1,.68,1.83v5.34h-1.36v-5a1.75,1.75,0,0,0-.42-1.27,1.46,1.46,0,0,0-1.07-.43,1.54,1.54,0,0,0-1.17.49,2.06,2.06,0,0,0-.44,1.45v4.75h-1.38v-4.94a1.77,1.77,0,0,0-.43-1.3,1.42,1.42,0,0,0-1.09-.45,1.51,1.51,0,0,0-1.16.5,2.16,2.16,0,0,0-.45,1.49v4.7h-1.35v-7.68h1.35v1a2.29,2.29,0,0,1,.88-.84,2.48,2.48,0,0,1,1.22-.3,2.58,2.58,0,0,1,1.31.33,2,2,0,0,1,.85.93,2.38,2.38,0,0,1,.93-.93A2.58,2.58,0,0,1,353.64,192.79Z"/>
      <path d="M360.5,200.77a2.63,2.63,0,0,1-1.69-.53,1.88,1.88,0,0,1-.66-1.57,2.2,2.2,0,0,1,.21-1,1.7,1.7,0,0,1,.63-.7,3.76,3.76,0,0,1,.9-.44,8.52,8.52,0,0,1,1.17-.27l1.24-.21c.45-.08.68-.32.68-.71a1.33,1.33,0,0,0-.48-1.14,1.9,1.9,0,0,0-1.21-.37,2.06,2.06,0,0,0-1.21.35,1.51,1.51,0,0,0-.57,1.08l-1.22-.25a2.4,2.4,0,0,1,1-1.65,3.6,3.6,0,0,1,2.1-.55,4.27,4.27,0,0,1,1.11.14,2.82,2.82,0,0,1,.93.43,1.89,1.89,0,0,1,.67.82,3.27,3.27,0,0,1,.23,1.27v3.17a1.29,1.29,0,0,0,.18.8.76.76,0,0,0,.61.21h.12v1h-.67a1.27,1.27,0,0,1-1.45-1H363A2.91,2.91,0,0,1,360.5,200.77Zm.31-1.09a2.05,2.05,0,0,0,1.65-.75,3.08,3.08,0,0,0,.62-2l-2,.39a2.73,2.73,0,0,0-1.19.43,1,1,0,0,0-.39.84,1,1,0,0,0,.37.84A1.55,1.55,0,0,0,360.81,199.68Z"/>
      <path d="M372.62,188.62H374v12h-1.3l0-1.49a2.86,2.86,0,0,1-1.1,1.21,3,3,0,0,1-1.62.45,3.46,3.46,0,0,1-1.39-.29,3.41,3.41,0,0,1-1.15-.8,3.72,3.72,0,0,1-.77-1.27,4.59,4.59,0,0,1-.28-1.64,4,4,0,0,1,1-2.89,3.35,3.35,0,0,1,2.55-1.11,3,3,0,0,1,1.6.44,2.81,2.81,0,0,1,1.1,1.17Zm-2.42,11a2.34,2.34,0,0,0,1.79-.8,2.94,2.94,0,0,0,.72-2,2.88,2.88,0,0,0-.73-2,2.3,2.3,0,0,0-1.78-.81,2.38,2.38,0,0,0-1.8.78,2.93,2.93,0,0,0-.72,2,2.89,2.89,0,0,0,.72,2A2.38,2.38,0,0,0,370.2,199.61Z"/>
      <path d="M381.5,192.94h1.36v7.68h-1.3l0-1a2.46,2.46,0,0,1-.95.86,3,3,0,0,1-1.35.3,2.67,2.67,0,0,1-1.93-.69,2.62,2.62,0,0,1-.72-2v-5.17h1.35v4.87a1.79,1.79,0,0,0,.47,1.37,1.64,1.64,0,0,0,1.21.46,1.85,1.85,0,0,0,1.36-.53,2.16,2.16,0,0,0,.53-1.57Z"/>
      <path d="M386.93,194.29a2.34,2.34,0,0,1,.95-1,2.85,2.85,0,0,1,1.48-.4v1.27a2.55,2.55,0,0,0-1.79.57,2.38,2.38,0,0,0-.61,1.82v4.1h-1.35v-7.68h1.32Z"/>
      <path d="M394.08,200.77a4,4,0,0,1-2-.48,3.42,3.42,0,0,1-1.38-1.39,4.29,4.29,0,0,1-.51-2.12,3.92,3.92,0,0,1,1.09-2.9,4.08,4.08,0,0,1,5.55,0,4.4,4.4,0,0,1,0,5.8A3.75,3.75,0,0,1,394.08,200.77Zm0-1.12a2.38,2.38,0,0,0,1.81-.79,3,3,0,0,0,.72-2.08,2.93,2.93,0,0,0-.72-2.07,2.47,2.47,0,0,0-3.62,0,3,3,0,0,0-.71,2.07,3,3,0,0,0,.71,2.08A2.36,2.36,0,0,0,394.08,199.65Z"/>
      <path d="M332.4,219.82v-11h3.54a5.27,5.27,0,0,1,2.8.71,4.31,4.31,0,0,1,1.72,1.94,6.79,6.79,0,0,1,.56,2.84,7.41,7.41,0,0,1-.32,2.23,5.22,5.22,0,0,1-.95,1.74,4.28,4.28,0,0,1-1.6,1.14,5.69,5.69,0,0,1-2.21.4Zm1.39-1.27h2.11a3.35,3.35,0,0,0,2.74-1.13,5.63,5.63,0,0,0,0-6.2,3.36,3.36,0,0,0-2.74-1.12h-2.11Z"/>
      <path d="M344.08,210.34a.92.92,0,0,1-.92-.92.87.87,0,0,1,.27-.64.92.92,0,0,1,.65-.26.89.89,0,0,1,.63.26.87.87,0,0,1,.27.64.89.89,0,0,1-.27.65A.86.86,0,0,1,344.08,210.34Zm-.69,9.48v-7.68h1.36v7.68Z"/>
      <path d="M352.29,212.14h1.44l-3.12,7.68h-1.15l-3.11-7.68h1.44l2.25,6.11Z"/>
      <path d="M361.75,215.83l0,.37h-6a2.69,2.69,0,0,0,.74,2,2.38,2.38,0,0,0,1.75.69,2.32,2.32,0,0,0,2.14-1.39l1.22.26a3.41,3.41,0,0,1-1.31,1.65,3.59,3.59,0,0,1-2,.6,3.71,3.71,0,0,1-2.76-1.07,4.55,4.55,0,0,1,0-5.84,3.68,3.68,0,0,1,2.72-1.07,3.43,3.43,0,0,1,2.58,1A3.88,3.88,0,0,1,361.75,215.83Zm-3.56-2.8a2.38,2.38,0,0,0-1.6.55,2.48,2.48,0,0,0-.8,1.58h4.6a2.29,2.29,0,0,0-.67-1.58A2.16,2.16,0,0,0,358.19,213Z"/>
      <path d="M365.18,213.49a2.37,2.37,0,0,1,1-1,2.84,2.84,0,0,1,1.47-.4v1.27a2.52,2.52,0,0,0-1.78.57,2.38,2.38,0,0,0-.61,1.82v4.1h-1.36v-7.68h1.32Z"/>
      <path d="M372.1,219.82a2,2,0,0,1-1.5-.55,2.07,2.07,0,0,1-.55-1.53v-4.52h-1.57v-1.08h.58a1.13,1.13,0,0,0,.85-.27,1.35,1.35,0,0,0,.24-.9v-1.39h1.26v2.56h1.77v1.08h-1.77v4.38a1.17,1.17,0,0,0,.29.84,1,1,0,0,0,.77.3h.71v1.08Z"/>
      <path d="M375.82,210.34a.92.92,0,0,1-.92-.92.87.87,0,0,1,.27-.64.92.92,0,0,1,.65-.26.89.89,0,0,1,.63.26.87.87,0,0,1,.27.64.89.89,0,0,1-.27.65A.86.86,0,0,1,375.82,210.34Zm-.69,9.48v-7.68h1.36v7.68Z"/>
      <path d="M384.91,207.82h1.35v12H385l0-1.49a2.86,2.86,0,0,1-1.1,1.21,3,3,0,0,1-1.62.45,3.53,3.53,0,0,1-2.54-1.09,3.72,3.72,0,0,1-.77-1.27,4.59,4.59,0,0,1-.29-1.64,4,4,0,0,1,1.05-2.89,3.35,3.35,0,0,1,2.55-1.11,3,3,0,0,1,1.6.44,2.88,2.88,0,0,1,1.1,1.17Zm-2.42,11a2.27,2.27,0,0,0,1.78-.8,3.16,3.16,0,0,0,0-4,2.3,2.3,0,0,0-1.78-.81,2.38,2.38,0,0,0-1.8.78A2.93,2.93,0,0,0,380,216a2.89,2.89,0,0,0,.72,2A2.38,2.38,0,0,0,382.49,218.81Z"/>
      <path d="M392.25,220a4,4,0,0,1-2-.48,3.38,3.38,0,0,1-1.39-1.39,4.29,4.29,0,0,1-.51-2.12,3.92,3.92,0,0,1,1.09-2.9,4.09,4.09,0,0,1,5.56,0,4,4,0,0,1,1.08,2.9,3.91,3.91,0,0,1-1.09,2.9A3.73,3.73,0,0,1,392.25,220Zm0-1.12a2.4,2.4,0,0,0,1.82-.79,3,3,0,0,0,.72-2.08,2.93,2.93,0,0,0-.72-2.07,2.36,2.36,0,0,0-1.82-.79,2.31,2.31,0,0,0-1.8.79,2.93,2.93,0,0,0-.72,2.07,3,3,0,0,0,.72,2.08A2.34,2.34,0,0,0,392.24,218.85Z"/>
      <path d="M339.46,239l-.95-2.63h-5L332.6,239h-1.46l4.05-11h1.67l4.06,11ZM334,235.15h4.1L336,229.43Z"/>
      <path d="M348.33,227h1.35v12h-1.31l0-1.49a2.83,2.83,0,0,1-1.09,1.21,3.05,3.05,0,0,1-1.63.45,3.46,3.46,0,0,1-1.39-.29,3.27,3.27,0,0,1-1.14-.8,3.59,3.59,0,0,1-.78-1.27,4.59,4.59,0,0,1-.28-1.64,4.07,4.07,0,0,1,1-2.89,3.38,3.38,0,0,1,2.55-1.11,3.06,3.06,0,0,1,1.61.44,2.88,2.88,0,0,1,1.1,1.17Zm-2.43,11a2.33,2.33,0,0,0,1.79-.8,2.94,2.94,0,0,0,.72-2,2.88,2.88,0,0,0-.73-2,2.28,2.28,0,0,0-1.78-.81,2.34,2.34,0,0,0-1.79.78,3.23,3.23,0,0,0,0,4.09A2.34,2.34,0,0,0,345.9,238Z"/>
      <path d="M360.28,231.19a2.47,2.47,0,0,1,1.79.66,2.41,2.41,0,0,1,.68,1.83V239H361.4v-5a1.76,1.76,0,0,0-.43-1.27,1.45,1.45,0,0,0-1.07-.43,1.54,1.54,0,0,0-1.17.49,2.06,2.06,0,0,0-.44,1.45V239h-1.38v-4.94a1.81,1.81,0,0,0-.42-1.3,1.45,1.45,0,0,0-1.09-.45,1.51,1.51,0,0,0-1.17.5,2.16,2.16,0,0,0-.45,1.49V239h-1.35v-7.68h1.35v1a2.29,2.29,0,0,1,.88-.84,2.48,2.48,0,0,1,1.22-.3,2.58,2.58,0,0,1,1.31.33,2,2,0,0,1,.85.93,2.38,2.38,0,0,1,.93-.93A2.58,2.58,0,0,1,360.28,231.19Z"/>
      <path d="M366.05,229.54a.87.87,0,0,1-.64-.27.89.89,0,0,1-.27-.65.87.87,0,0,1,.27-.64.92.92,0,0,1,1.28,0,.87.87,0,0,1,.27.64.89.89,0,0,1-.27.65A.87.87,0,0,1,366.05,229.54Zm-.69,9.48v-7.68h1.36V239Z"/>
      <path d="M370.79,232.69a2.37,2.37,0,0,1,1-1,2.84,2.84,0,0,1,1.47-.4v1.27a2.52,2.52,0,0,0-1.78.57,2.38,2.38,0,0,0-.61,1.82V239h-1.36v-7.68h1.32Z"/>
      <path d="M376.49,239.17a2.62,2.62,0,0,1-1.68-.53,1.88,1.88,0,0,1-.66-1.57,2.28,2.28,0,0,1,.21-1,1.71,1.71,0,0,1,.62-.69,3.76,3.76,0,0,1,.9-.44,10.14,10.14,0,0,1,1.17-.28l1.24-.2c.46-.08.68-.32.68-.71a1.33,1.33,0,0,0-.48-1.14,1.9,1.9,0,0,0-1.21-.37,2,2,0,0,0-1.2.35,1.49,1.49,0,0,0-.58,1.08l-1.21-.26a2.33,2.33,0,0,1,1-1.64,3.54,3.54,0,0,1,2.09-.55,4.21,4.21,0,0,1,1.11.14,2.82,2.82,0,0,1,.93.43,1.89,1.89,0,0,1,.67.82,3.09,3.09,0,0,1,.24,1.27V237a1.3,1.3,0,0,0,.17.8.76.76,0,0,0,.61.21h.12v1h-.67a1.27,1.27,0,0,1-1.45-1H379A2.93,2.93,0,0,1,376.49,239.17Zm.31-1.09a2.05,2.05,0,0,0,1.65-.75,3,3,0,0,0,.63-2l-2,.39a2.73,2.73,0,0,0-1.19.43,1.13,1.13,0,0,0,0,1.68A1.52,1.52,0,0,0,376.8,238.08Z"/>
      <path d="M386.13,239.16a3.67,3.67,0,0,1-2.75-1.1,3.93,3.93,0,0,1-1.09-2.88,3.89,3.89,0,0,1,1.09-2.88,3.68,3.68,0,0,1,2.75-1.11,3.72,3.72,0,0,1,2.22.68,3.4,3.4,0,0,1,1.3,1.86l-1.27.21a2.3,2.3,0,0,0-2.26-1.62,2.27,2.27,0,0,0-1.78.79,3.44,3.44,0,0,0,0,4.13,2.27,2.27,0,0,0,1.78.79,2.3,2.3,0,0,0,2.26-1.62l1.27.21a3.39,3.39,0,0,1-1.31,1.87A3.71,3.71,0,0,1,386.13,239.16Z"/>
      <path d="M392.33,229.54a.92.92,0,0,1-.92-.92.87.87,0,0,1,.27-.64.92.92,0,0,1,.65-.26.89.89,0,0,1,.63.26.87.87,0,0,1,.27.64.89.89,0,0,1-.27.65A.86.86,0,0,1,392.33,229.54Zm-.69,9.48v-7.68H393V239Z"/>
      <path d="M399,239.17a4,4,0,0,1-2-.48,3.42,3.42,0,0,1-1.38-1.39,4.19,4.19,0,0,1-.52-2.12,4,4,0,0,1,1.09-2.9,4.09,4.09,0,0,1,5.56,0,4.4,4.4,0,0,1,0,5.8A3.75,3.75,0,0,1,399,239.17Zm0-1.12a2.38,2.38,0,0,0,1.82-.79,3,3,0,0,0,.72-2.08,2.93,2.93,0,0,0-.72-2.07,2.35,2.35,0,0,0-1.82-.79,2.32,2.32,0,0,0-1.8.79,3,3,0,0,0-.71,2.07,3,3,0,0,0,.71,2.08A2.36,2.36,0,0,0,399,238.05Zm-.5-8,2-2.55.72.53-1.75,2Z"/>
      <path d="M408.59,231.19a2.67,2.67,0,0,1,1.93.7,2.56,2.56,0,0,1,.73,2V239H409.9v-4.87a1.83,1.83,0,0,0-.47-1.37,1.69,1.69,0,0,0-1.21-.45,1.85,1.85,0,0,0-1.36.53,2.11,2.11,0,0,0-.54,1.57V239H405v-7.68h1.35v1A2.56,2.56,0,0,1,408.59,231.19Z"/>
    </g>
  </g>
</svg>
