<svg id="Layer_1" data-name="Layer 1" xmlns="http://www.w3.org/2000/svg" width="563.56" height="300.44" viewBox="0 0 563.56 300.44">
  <defs>
    <style>
      .cls-1 {
        fill: #fcee21;
      }

      .cls-2 {
        fill: #f2f2f2;
      }

      .cls-3 {
        opacity: 0.75;
      }

      .cls-4 {
        opacity: 0.5;
      }

      .cls-5 {
        opacity: 0.25;
      }
    </style>
  </defs>
  <g>
    <rect class="cls-1" width="281.78" height="228.44"/>
    <rect class="cls-2" x="281.78" width="281.78" height="300.44"/>
    <rect class="cls-1" y="228.44" width="70.44" height="72"/>
    <g class="cls-3">
      <rect class="cls-1" x="70.44" y="228.44" width="70.44" height="72"/>
    </g>
    <g class="cls-4">
      <rect class="cls-1" x="140.89" y="228.44" width="70.44" height="72"/>
    </g>
    <g class="cls-5">
      <rect class="cls-1" x="211.33" y="228.44" width="70.44" height="72"/>
    </g>
    <g>
      <path d="M347.64,124.4l-1.95-5.53H334.43l-1.95,5.53h-5.7l9.87-26.81h6.81l9.87,26.81Zm-11.58-10.18h8l-4-11.38Z"/>
      <path d="M379.25,105a7.26,7.26,0,0,1,4.92,1.55A5.53,5.53,0,0,1,386,111V124.4h-5.34V112.47a3.18,3.18,0,0,0-.86-2.41,3,3,0,0,0-2.15-.82,3.47,3.47,0,0,0-2.6,1,4.77,4.77,0,0,0-1,3.36V124.4h-5.4V112.53a3.27,3.27,0,0,0-.85-2.46,3.06,3.06,0,0,0-2.21-.83,3.35,3.35,0,0,0-2.58,1.1,5.21,5.21,0,0,0-1,3.58V124.4h-5.33V105.33H362v2.24a6.49,6.49,0,0,1,5.53-2.61,8.16,8.16,0,0,1,3.59.73,4.88,4.88,0,0,1,2.25,2.12A6.76,6.76,0,0,1,379.25,105Z"/>
      <path d="M406.81,119.23a17.79,17.79,0,0,0,.46,4.65v.52h-5l-.43-2.08a6.19,6.19,0,0,1-2.67,1.84,9.79,9.79,0,0,1-3.45.61,9.21,9.21,0,0,1-1.78-.16,6,6,0,0,1-1.61-.57,4.86,4.86,0,0,1-1.32-1,4.38,4.38,0,0,1-.89-1.51,5.91,5.91,0,0,1-.34-2.07,5.62,5.62,0,0,1,.36-2.07,4.83,4.83,0,0,1,.92-1.55,5.67,5.67,0,0,1,1.51-1.13,10.81,10.81,0,0,1,1.89-.82,21.42,21.42,0,0,1,2.26-.59l3.14-.71a3.47,3.47,0,0,0,1.42-.6,1.19,1.19,0,0,0,.41-1,2,2,0,0,0-.93-1.83,4.4,4.4,0,0,0-2.28-.56c-2.18,0-3.43,1-3.72,2.91l-4.74-.85a6.4,6.4,0,0,1,2.77-4.35,10.93,10.93,0,0,1,6-1.4q8,0,8,6.88Zm-9.41,1.93a4.26,4.26,0,0,0,3.3-1.39,5.78,5.78,0,0,0,1.28-4.09L397.46,117a5.47,5.47,0,0,0-1.91.78,1.59,1.59,0,0,0-.65,1.37,1.79,1.79,0,0,0,.7,1.52A2.94,2.94,0,0,0,397.4,121.16Z"/>
      <path d="M417.12,108.35a6.27,6.27,0,0,1,2.51-2.29,7.58,7.58,0,0,1,3.73-1v4.76a7.29,7.29,0,0,0-4.57,1.15c-.94.77-1.41,2.13-1.41,4.09v9.29H412V105.33h5.12Z"/>
      <path d="M429.22,102.47a3.09,3.09,0,0,1-3.1-3.08,2.93,2.93,0,0,1,.92-2.16,3,3,0,0,1,2.18-.9,3.07,3.07,0,0,1,0,6.14Zm-2.73,21.93V105.33h5.38V124.4Z"/>
      <path d="M437.4,124.4V95.9h5.4v28.5Z"/>
      <path d="M448.33,124.4V95.9h5.4v28.5Z"/>
      <path d="M468.15,124.77a12,12,0,0,1-5.4-1.17,8.63,8.63,0,0,1-3.7-3.43,10.19,10.19,0,0,1-1.35-5.32,9.34,9.34,0,0,1,2.9-7.24,12.11,12.11,0,0,1,15.12,0,10.54,10.54,0,0,1,0,14.5A10.71,10.71,0,0,1,468.15,124.77Zm-.06-4.25a4.9,4.9,0,0,0,3.78-1.55,6.61,6.61,0,0,0,0-8.24,4.9,4.9,0,0,0-3.78-1.56,4.71,4.71,0,0,0-3.66,1.57,6.66,6.66,0,0,0,0,8.22A4.73,4.73,0,0,0,468.09,120.52Z"/>
    </g>
    <g>
      <path d="M338.29,152.5h-4.46v3.6h3.93v1.26h-3.93V161h4.46v1.27H332.4v-11h5.89Z"/>
      <path d="M344.25,154.39a2.69,2.69,0,0,1,1.93.7,2.6,2.6,0,0,1,.72,2v5.17h-1.35v-4.86a1.8,1.8,0,0,0-.47-1.38,1.65,1.65,0,0,0-1.2-.45,1.88,1.88,0,0,0-1.37.53,2.19,2.19,0,0,0-.54,1.57v4.59h-1.35v-7.68H342v1A2.56,2.56,0,0,1,344.25,154.39Z"/>
      <path d="M352,162.22a2,2,0,0,1-1.5-.55,2.07,2.07,0,0,1-.55-1.53v-4.52h-1.57v-1.08h.58a1.08,1.08,0,0,0,.84-.27,1.29,1.29,0,0,0,.25-.9V152h1.26v2.56H353v1.08h-1.76V160a1.17,1.17,0,0,0,.29.84,1,1,0,0,0,.77.3h.7v1.08Z"/>
      <path d="M359.78,154.54h1.35v7.68h-1.3l0-1a2.46,2.46,0,0,1-.95.86,3,3,0,0,1-1.35.3,2.68,2.68,0,0,1-1.93-.69,2.62,2.62,0,0,1-.72-2v-5.17h1.35v4.87a1.83,1.83,0,0,0,.47,1.37,1.66,1.66,0,0,0,1.21.46,1.84,1.84,0,0,0,1.36-.53,2.21,2.21,0,0,0,.54-1.57Z"/>
      <path d="M366.31,162.37a3.63,3.63,0,0,1-2.07-.55,2.31,2.31,0,0,1-1-1.58l1.18-.34A1.62,1.62,0,0,0,365,161a2.07,2.07,0,0,0,1.26.38,2.82,2.82,0,0,0,.74-.1,1.28,1.28,0,0,0,.57-.38,1,1,0,0,0,.22-.7.83.83,0,0,0-.06-.32c0-.09-.08-.18-.12-.25a.64.64,0,0,0-.22-.21,2.29,2.29,0,0,0-.27-.17,2.27,2.27,0,0,0-.35-.14l-.37-.13-.43-.12-.44-.13a7.85,7.85,0,0,1-.8-.28,3.66,3.66,0,0,1-.65-.37,1.49,1.49,0,0,1-.5-.61,2.06,2.06,0,0,1-.17-.86,2,2,0,0,1,.38-1.22,2.08,2.08,0,0,1,1-.73,3.84,3.84,0,0,1,1.36-.22,3.36,3.36,0,0,1,1.87.5,2.14,2.14,0,0,1,.94,1.5l-1.11.28a1.47,1.47,0,0,0-.59-1,1.84,1.84,0,0,0-1.1-.33,1.88,1.88,0,0,0-1,.27.91.91,0,0,0-.43.83.85.85,0,0,0,.11.42,1.3,1.3,0,0,0,.23.3,1.5,1.5,0,0,0,.42.24l.46.16.56.14.12,0,.73.21a5.42,5.42,0,0,1,.67.28,2.43,2.43,0,0,1,.6.42,2,2,0,0,1,.37.59,2,2,0,0,1,.16.83,2.31,2.31,0,0,1-.23,1,2,2,0,0,1-.63.71,3,3,0,0,1-.9.38A4.08,4.08,0,0,1,366.31,162.37Z"/>
      <path d="M372,152.74a.87.87,0,0,1-.64-.27.89.89,0,0,1-.27-.65.87.87,0,0,1,.27-.64.9.9,0,0,1,.64-.26.92.92,0,0,1,.64.26.87.87,0,0,1,.27.64.92.92,0,0,1-.91.92Zm-.69,9.48v-7.68h1.36v7.68Z"/>
      <path d="M377.15,162.37a2.57,2.57,0,0,1-1.69-.53,1.88,1.88,0,0,1-.66-1.57,2.2,2.2,0,0,1,.21-1,1.7,1.7,0,0,1,.63-.7,3.42,3.42,0,0,1,.9-.44,8.19,8.19,0,0,1,1.17-.27l1.24-.21c.45-.08.68-.32.68-.71a1.33,1.33,0,0,0-.48-1.14,1.93,1.93,0,0,0-1.22-.37,2,2,0,0,0-1.2.35,1.51,1.51,0,0,0-.57,1.08l-1.22-.25a2.4,2.4,0,0,1,1-1.65,3.6,3.6,0,0,1,2.1-.55,4.32,4.32,0,0,1,1.11.14,2.82,2.82,0,0,1,.93.43,1.94,1.94,0,0,1,.66.82,3.09,3.09,0,0,1,.24,1.27v3.17a1.29,1.29,0,0,0,.18.8.75.75,0,0,0,.6.21h.13v1h-.67c-.83,0-1.32-.34-1.46-1h-.06A2.91,2.91,0,0,1,377.15,162.37Zm.31-1.09a2.05,2.05,0,0,0,1.65-.75,3.08,3.08,0,0,0,.62-2l-2,.39a2.68,2.68,0,0,0-1.19.43,1,1,0,0,0-.39.84,1,1,0,0,0,.37.84A1.55,1.55,0,0,0,377.46,161.28Z"/>
      <path d="M386.18,162.37a3.67,3.67,0,0,1-2.07-.55,2.3,2.3,0,0,1-1-1.58l1.18-.34a1.64,1.64,0,0,0,.62,1.07,2.08,2.08,0,0,0,1.27.38,2.74,2.74,0,0,0,.73-.1,1.18,1.18,0,0,0,.57-.38,1,1,0,0,0,.23-.7,1.52,1.52,0,0,0-.06-.32,1.46,1.46,0,0,0-.13-.25.64.64,0,0,0-.22-.21l-.26-.17-.35-.14-.37-.13-.43-.12-.45-.13a7.56,7.56,0,0,1-.79-.28,3.34,3.34,0,0,1-.65-.37,1.43,1.43,0,0,1-.51-.61,2.06,2.06,0,0,1-.16-.86,2,2,0,0,1,.37-1.22,2.08,2.08,0,0,1,1-.73,3.9,3.9,0,0,1,1.37-.22,3.36,3.36,0,0,1,1.87.5,2.13,2.13,0,0,1,.93,1.5l-1.11.28a1.46,1.46,0,0,0-.58-1,1.87,1.87,0,0,0-1.11-.33,1.91,1.91,0,0,0-1,.27.93.93,0,0,0-.43.83.76.76,0,0,0,.12.42,1.07,1.07,0,0,0,.23.3,1.36,1.36,0,0,0,.42.24l.45.16.56.14.12,0,.74.21a5.36,5.36,0,0,1,.66.28,2.1,2.1,0,0,1,.6.42,2,2,0,0,1,.38.59,2.23,2.23,0,0,1,.15.83,2.18,2.18,0,0,1-.23,1,1.8,1.8,0,0,1-.63.71,2.85,2.85,0,0,1-.89.38A4.1,4.1,0,0,1,386.18,162.37Z"/>
      <path d="M393.59,162.22a2,2,0,0,1-1.5-.55,2.11,2.11,0,0,1-.55-1.53v-4.52H390v-1.08h.58a1.11,1.11,0,0,0,.85-.27,1.34,1.34,0,0,0,.25-.9V152h1.25v2.56h1.77v1.08H392.9V160a1.14,1.14,0,0,0,.3.84,1,1,0,0,0,.77.3h.7v1.08Z"/>
      <path d="M398.3,162.37a2.56,2.56,0,0,1-1.68-.53,1.88,1.88,0,0,1-.66-1.57,2.2,2.2,0,0,1,.21-1,1.74,1.74,0,0,1,.62-.7,3.65,3.65,0,0,1,.91-.44,8,8,0,0,1,1.16-.27l1.25-.21c.45-.08.68-.32.68-.71a1.33,1.33,0,0,0-.48-1.14,1.93,1.93,0,0,0-1.22-.37,2,2,0,0,0-1.2.35,1.45,1.45,0,0,0-.57,1.08l-1.22-.25a2.33,2.33,0,0,1,1-1.65,3.56,3.56,0,0,1,2.09-.55,4.35,4.35,0,0,1,1.12.14,3,3,0,0,1,.93.43,1.94,1.94,0,0,1,.66.82,3.09,3.09,0,0,1,.24,1.27v3.17a1.37,1.37,0,0,0,.17.8.76.76,0,0,0,.61.21H403v1h-.67a1.27,1.27,0,0,1-1.45-1h-.06A2.92,2.92,0,0,1,398.3,162.37Zm.31-1.09a2,2,0,0,0,1.65-.75,3,3,0,0,0,.63-2l-2,.39a2.73,2.73,0,0,0-1.2.43,1,1,0,0,0-.38.84,1,1,0,0,0,.37.84A1.54,1.54,0,0,0,398.61,161.28Z"/>
      <path d="M337.11,181.57a5.93,5.93,0,0,1-2.17-.39,5.62,5.62,0,0,1-1.74-1.11,5,5,0,0,1-1.15-1.79,6.84,6.84,0,0,1,0-4.72,5.09,5.09,0,0,1,1.16-1.79,5.46,5.46,0,0,1,1.73-1.11,5.93,5.93,0,0,1,2.17-.39,5.82,5.82,0,0,1,2.14.4,5,5,0,0,1,2.9,2.89,6.38,6.38,0,0,1,.42,2.35,6.49,6.49,0,0,1-.42,2.37,5.23,5.23,0,0,1-1.16,1.79,5.4,5.4,0,0,1-1.74,1.11A5.81,5.81,0,0,1,337.11,181.57Zm0-1.32a4,4,0,0,0,2.91-1.16,4.34,4.34,0,0,0,1.15-3.18,5,5,0,0,0-.32-1.82,3.64,3.64,0,0,0-2.15-2.19,4.56,4.56,0,0,0-3.2,0,3.81,3.81,0,0,0-1.29.83,3.7,3.7,0,0,0-.87,1.36,5,5,0,0,0-.32,1.82,5.17,5.17,0,0,0,.32,1.85,3.75,3.75,0,0,0,.87,1.37,4,4,0,0,0,1.29.83A4.47,4.47,0,0,0,337.11,180.25Z"/>
      <path d="M349,173.59a3.46,3.46,0,0,1,1.39.29,3.36,3.36,0,0,1,1.14.78,3.82,3.82,0,0,1,.77,1.27,4.7,4.7,0,0,1,.28,1.66,4.08,4.08,0,0,1-1,2.9,3.37,3.37,0,0,1-2.55,1.1,3.06,3.06,0,0,1-1.61-.44,2.9,2.9,0,0,1-1.1-1.18v5.32H344.9V173.74h1.31l0,1.5a2.75,2.75,0,0,1,1.09-1.2A3.05,3.05,0,0,1,349,173.59Zm-.27,6.82a2.31,2.31,0,0,0,1.78-.77,3.28,3.28,0,0,0,0-4.1,2.31,2.31,0,0,0-1.78-.77,2.36,2.36,0,0,0-1.8.8,3.13,3.13,0,0,0,0,4A2.33,2.33,0,0,0,348.69,180.41Z"/>
      <path d="M357.91,181.57a4,4,0,0,1-2-.48,3.42,3.42,0,0,1-1.38-1.39,4.19,4.19,0,0,1-.52-2.12,4,4,0,0,1,1.09-2.9,4.09,4.09,0,0,1,5.56,0,4.4,4.4,0,0,1,0,5.8A3.75,3.75,0,0,1,357.91,181.57Zm0-1.12a2.38,2.38,0,0,0,1.82-.79,3,3,0,0,0,.72-2.08,2.93,2.93,0,0,0-.72-2.07,2.35,2.35,0,0,0-1.82-.79,2.32,2.32,0,0,0-1.8.79,3,3,0,0,0-.71,2.07,3,3,0,0,0,.71,2.08A2.36,2.36,0,0,0,357.9,180.45Z"/>
      <path d="M365.22,175.09a2.34,2.34,0,0,1,.95-1,2.85,2.85,0,0,1,1.48-.4v1.27a2.53,2.53,0,0,0-1.79.57,2.38,2.38,0,0,0-.61,1.82v4.1H363.9v-7.68h1.32Z"/>
      <path d="M372.13,181.42a2,2,0,0,1-1.5-.55,2.11,2.11,0,0,1-.55-1.53v-4.52h-1.57v-1.08h.58a1.13,1.13,0,0,0,.85-.27,1.35,1.35,0,0,0,.24-.9v-1.39h1.26v2.56h1.77v1.08h-1.77v4.38a1.14,1.14,0,0,0,.3.84,1,1,0,0,0,.76.3h.71v1.08Z"/>
      <path d="M379.94,173.74h1.35v7.68H380l0-1a2.42,2.42,0,0,1-1,.86,2.91,2.91,0,0,1-1.34.3,2.67,2.67,0,0,1-1.93-.69,2.59,2.59,0,0,1-.73-2v-5.17h1.35v4.87a1.84,1.84,0,0,0,.48,1.38,1.65,1.65,0,0,0,1.2.45,1.86,1.86,0,0,0,1.37-.53,2.16,2.16,0,0,0,.53-1.57Z"/>
      <path d="M387.67,173.59a2.67,2.67,0,0,1,1.93.7,2.6,2.6,0,0,1,.73,2v5.17H389v-4.86a1.8,1.8,0,0,0-.47-1.38,1.65,1.65,0,0,0-1.2-.44,1.87,1.87,0,0,0-1.37.52,2.14,2.14,0,0,0-.53,1.57v4.59H384v-7.68h1.36v1A2.55,2.55,0,0,1,387.67,173.59Z"/>
      <path d="M393.62,171.94a.87.87,0,0,1-.64-.27.89.89,0,0,1-.27-.65.87.87,0,0,1,.27-.64.92.92,0,0,1,1.28,0,.87.87,0,0,1,.27.64.89.89,0,0,1-.27.65A.87.87,0,0,1,393.62,171.94Zm-.69,9.48v-7.68h1.36v7.68Z"/>
      <path d="M402.72,169.42h1.35v12h-1.31l0-1.49a2.83,2.83,0,0,1-1.09,1.21,3.05,3.05,0,0,1-1.63.45,3.46,3.46,0,0,1-1.39-.29,3.27,3.27,0,0,1-1.14-.8,3.64,3.64,0,0,1-.78-1.26,4.69,4.69,0,0,1-.28-1.65,4.07,4.07,0,0,1,1-2.89,3.38,3.38,0,0,1,2.55-1.11,3.06,3.06,0,0,1,1.61.44,2.88,2.88,0,0,1,1.1,1.17Zm-2.43,11a2.29,2.29,0,0,0,1.79-.8,3.19,3.19,0,0,0,0-4,2.32,2.32,0,0,0-1.79-.81,2.34,2.34,0,0,0-1.79.78,2.89,2.89,0,0,0-.73,2.05,2.85,2.85,0,0,0,.73,2A2.34,2.34,0,0,0,400.29,180.41Z"/>
      <path d="M408.59,181.57a2.56,2.56,0,0,1-1.68-.53,1.88,1.88,0,0,1-.66-1.57,2.2,2.2,0,0,1,.21-1,1.74,1.74,0,0,1,.62-.7,3.65,3.65,0,0,1,.91-.44,8,8,0,0,1,1.16-.27l1.25-.21c.45-.08.68-.32.68-.71a1.34,1.34,0,0,0-.49-1.14,1.9,1.9,0,0,0-1.21-.37,1.94,1.94,0,0,0-1.2.36,1.41,1.41,0,0,0-.57,1.07l-1.22-.25a2.33,2.33,0,0,1,1-1.65,3.54,3.54,0,0,1,2.09-.55,4.35,4.35,0,0,1,1.12.14,3,3,0,0,1,.93.43,1.94,1.94,0,0,1,.66.82,3.09,3.09,0,0,1,.24,1.27v3.17a1.37,1.37,0,0,0,.17.8.76.76,0,0,0,.61.21h.12v1h-.67a1.27,1.27,0,0,1-1.45-1h-.06A2.94,2.94,0,0,1,408.59,181.57Zm.31-1.09a2.06,2.06,0,0,0,1.65-.74,3.07,3.07,0,0,0,.63-2l-2,.39a2.73,2.73,0,0,0-1.2.43,1,1,0,0,0-.38.84,1,1,0,0,0,.37.84A1.54,1.54,0,0,0,408.9,180.48Z"/>
      <path d="M420.72,169.42h1.35v12h-1.31l0-1.49a2.83,2.83,0,0,1-1.09,1.21,3.05,3.05,0,0,1-1.63.45,3.46,3.46,0,0,1-1.39-.29,3.27,3.27,0,0,1-1.14-.8,3.64,3.64,0,0,1-.78-1.26,4.69,4.69,0,0,1-.28-1.65,4.07,4.07,0,0,1,1-2.89,3.38,3.38,0,0,1,2.55-1.11,3.06,3.06,0,0,1,1.61.44,2.88,2.88,0,0,1,1.1,1.17Zm-2.43,11a2.29,2.29,0,0,0,1.79-.8,3.19,3.19,0,0,0,0-4,2.32,2.32,0,0,0-1.79-.81,2.34,2.34,0,0,0-1.79.78,2.89,2.89,0,0,0-.73,2.05,2.85,2.85,0,0,0,.73,2A2.34,2.34,0,0,0,418.29,180.41Z"/>
      <path d="M338.29,190.9h-4.46v3.6h3.93v1.26h-3.93v3.59h4.46v1.27H332.4v-11h5.89Z"/>
      <path d="M339.54,200.62l2.95-3.84-2.95-3.84h1.66l2.13,2.94,2.12-2.94h1.64l-3,3.84,3,3.84h-1.65l-2.11-2.92-2.13,2.92Z"/>
      <path d="M352.81,192.79a3.46,3.46,0,0,1,1.39.29,3.36,3.36,0,0,1,1.14.78,3.82,3.82,0,0,1,.77,1.27,4.71,4.71,0,0,1,.29,1.66,4,4,0,0,1-1,2.89,3.35,3.35,0,0,1-2.55,1.11,3.09,3.09,0,0,1-1.61-.44,2.88,2.88,0,0,1-1.09-1.18v5.32h-1.36V192.94h1.31l0,1.49a2.85,2.85,0,0,1,1.09-1.19A3.05,3.05,0,0,1,352.81,192.79Zm-.27,6.82a2.31,2.31,0,0,0,1.78-.77,3.28,3.28,0,0,0,0-4.1,2.31,2.31,0,0,0-1.78-.77,2.36,2.36,0,0,0-1.8.8,3.13,3.13,0,0,0,0,4A2.36,2.36,0,0,0,352.54,199.61Z"/>
      <path d="M361.76,200.77a4,4,0,0,1-2-.48,3.42,3.42,0,0,1-1.38-1.39,4.29,4.29,0,0,1-.51-2.12,3.92,3.92,0,0,1,1.09-2.9,4.08,4.08,0,0,1,5.55,0,4.4,4.4,0,0,1,0,5.8A3.75,3.75,0,0,1,361.76,200.77Zm0-1.12a2.38,2.38,0,0,0,1.82-.79,3,3,0,0,0,.72-2.08,2.93,2.93,0,0,0-.72-2.07,2.35,2.35,0,0,0-1.82-.79,2.32,2.32,0,0,0-1.8.79,3,3,0,0,0-.71,2.07,3,3,0,0,0,.71,2.08A2.36,2.36,0,0,0,361.75,199.65Z"/>
      <path d="M371.37,192.79a2.71,2.71,0,0,1,1.94.7,2.6,2.6,0,0,1,.72,2v5.17h-1.35v-4.86a1.84,1.84,0,0,0-.47-1.38,1.68,1.68,0,0,0-1.21-.45,1.85,1.85,0,0,0-1.36.53,2.11,2.11,0,0,0-.54,1.57v4.59h-1.35v-7.68h1.35v1A2.56,2.56,0,0,1,371.37,192.79Z"/>
      <path d="M379.09,200.62a2,2,0,0,1-1.5-.55,2.11,2.11,0,0,1-.55-1.53V194h-1.57v-1.08h.58a1.11,1.11,0,0,0,.85-.27,1.34,1.34,0,0,0,.25-.9v-1.39h1.25v2.56h1.77V194H378.4v4.38a1.14,1.14,0,0,0,.3.84,1,1,0,0,0,.77.3h.7v1.08Z"/>
      <path d="M383.8,200.77a2.62,2.62,0,0,1-1.68-.53,1.88,1.88,0,0,1-.66-1.57,2.2,2.2,0,0,1,.21-1,1.74,1.74,0,0,1,.62-.7,3.65,3.65,0,0,1,.91-.44,8,8,0,0,1,1.16-.27l1.25-.21c.45-.08.68-.32.68-.71a1.33,1.33,0,0,0-.48-1.14,1.93,1.93,0,0,0-1.22-.37,2,2,0,0,0-1.2.35,1.45,1.45,0,0,0-.57,1.08L381.6,195a2.33,2.33,0,0,1,1-1.65,3.56,3.56,0,0,1,2.09-.55,4.35,4.35,0,0,1,1.12.14,3,3,0,0,1,.93.43,1.94,1.94,0,0,1,.66.82,3.09,3.09,0,0,1,.24,1.27v3.17a1.37,1.37,0,0,0,.17.8.76.76,0,0,0,.61.21h.12v1h-.67a1.27,1.27,0,0,1-1.45-1h-.06A2.92,2.92,0,0,1,383.8,200.77Zm.31-1.09a2,2,0,0,0,1.65-.75,3,3,0,0,0,.63-2l-2,.39a2.73,2.73,0,0,0-1.2.43,1,1,0,0,0-.38.84,1,1,0,0,0,.37.84A1.54,1.54,0,0,0,384.11,199.68Z"/>
      <path d="M394,192.79a2.69,2.69,0,0,1,1.93.7,2.6,2.6,0,0,1,.72,2v5.17h-1.35v-4.86a1.84,1.84,0,0,0-.47-1.38,1.65,1.65,0,0,0-1.2-.45,1.88,1.88,0,0,0-1.37.53,2.19,2.19,0,0,0-.54,1.57v4.59h-1.35v-7.68h1.35v1A2.56,2.56,0,0,1,394,192.79Z"/>
      <path d="M406,196.63l0,.37h-6a2.73,2.73,0,0,0,.74,2,2.4,2.4,0,0,0,1.75.69,2.33,2.33,0,0,0,1.27-.37,2.44,2.44,0,0,0,.88-1l1.22.26a3.48,3.48,0,0,1-1.32,1.65,3.57,3.57,0,0,1-2,.6,3.71,3.71,0,0,1-2.76-1.07,4.55,4.55,0,0,1,0-5.84,3.7,3.7,0,0,1,2.73-1.07,3.46,3.46,0,0,1,2.58,1A3.88,3.88,0,0,1,406,196.63Zm-3.55-2.8a2.36,2.36,0,0,0-1.6.55,2.49,2.49,0,0,0-.81,1.58h4.6a2.29,2.29,0,0,0-.67-1.58A2.14,2.14,0,0,0,402.47,193.83Z"/>
      <path d="M411.37,200.77a4,4,0,0,1-2-.48A3.42,3.42,0,0,1,408,198.9a4.3,4.3,0,0,1-.52-2.12,4,4,0,0,1,1.09-2.9,4.09,4.09,0,0,1,5.56,0,4.4,4.4,0,0,1,0,5.8A3.75,3.75,0,0,1,411.37,200.77Zm0-1.12a2.38,2.38,0,0,0,1.82-.79,3,3,0,0,0,.72-2.08,2.93,2.93,0,0,0-.72-2.07,2.35,2.35,0,0,0-1.82-.79,2.32,2.32,0,0,0-1.8.79,3,3,0,0,0-.71,2.07,3,3,0,0,0,.71,2.08A2.36,2.36,0,0,0,411.36,199.65Z"/>
      <path d="M338.34,210.1h-4.51v3.59h3.93V215h-3.93v4.86H332.4v-11h5.94Z"/>
      <path d="M346.75,215.83l0,.37h-6a2.69,2.69,0,0,0,.74,2,2.38,2.38,0,0,0,1.75.69,2.32,2.32,0,0,0,2.14-1.39l1.22.26a3.41,3.41,0,0,1-1.31,1.65,3.59,3.59,0,0,1-2,.6,3.71,3.71,0,0,1-2.76-1.07,4.55,4.55,0,0,1,0-5.84,3.68,3.68,0,0,1,2.72-1.07,3.43,3.43,0,0,1,2.58,1A3.88,3.88,0,0,1,346.75,215.83Zm-3.56-2.8a2.38,2.38,0,0,0-1.6.55,2.48,2.48,0,0,0-.8,1.58h4.6a2.29,2.29,0,0,0-.67-1.58A2.16,2.16,0,0,0,343.19,213Z"/>
      <path d="M348.86,219.82v-12h1.37v12Z"/>
      <path d="M353.67,210.34a.92.92,0,0,1-.92-.92.87.87,0,0,1,.27-.64.93.93,0,0,1,1.29,0,.87.87,0,0,1,.27.64.92.92,0,0,1-.91.92Zm-.69,9.48v-7.68h1.36v7.68Z"/>
      <path d="M358.15,218.73h4.1v1.09h-6.13l4.05-6.58h-3.81v-1.1h5.88Z"/>
      <path d="M336.56,228a3.21,3.21,0,0,1,1.72.46,3.09,3.09,0,0,1,1.16,1.22,3.58,3.58,0,0,1,.4,1.7,3.31,3.31,0,0,1-.91,2.39,3.13,3.13,0,0,1-2.37,1h-2.77V239H332.4V228Zm-.2,5.51a2,2,0,0,0,1.53-.59,2.17,2.17,0,0,0,.55-1.56,2.19,2.19,0,0,0-.55-1.55,2,2,0,0,0-1.53-.6h-2.57v4.3Z"/>
      <path d="M344.49,239.17a4,4,0,0,1-2-.48,3.44,3.44,0,0,1-1.39-1.39,4.29,4.29,0,0,1-.51-2.12,4,4,0,0,1,1.09-2.9,4.09,4.09,0,0,1,5.56,0,4.4,4.4,0,0,1,0,5.8A3.77,3.77,0,0,1,344.49,239.17Zm0-1.12a2.38,2.38,0,0,0,1.82-.79,3,3,0,0,0,.72-2.08,2.93,2.93,0,0,0-.72-2.07,2.35,2.35,0,0,0-1.82-.79,2.32,2.32,0,0,0-1.8.79,2.93,2.93,0,0,0-.71,2.07,3,3,0,0,0,.71,2.08A2.36,2.36,0,0,0,344.48,238.05Z"/>
      <path d="M352.9,239.17a3.65,3.65,0,0,1-2.07-.55,2.27,2.27,0,0,1-1-1.58l1.17-.34a1.7,1.7,0,0,0,.63,1.07,2.08,2.08,0,0,0,1.27.38,2.74,2.74,0,0,0,.73-.1,1.28,1.28,0,0,0,.57-.38,1,1,0,0,0,.23-.7,1.07,1.07,0,0,0-.07-.32.83.83,0,0,0-.12-.25.64.64,0,0,0-.22-.21,2.29,2.29,0,0,0-.27-.17,2.08,2.08,0,0,0-.34-.14l-.37-.13-.43-.12-.45-.13c-.32-.1-.59-.19-.8-.28a3.6,3.6,0,0,1-.64-.37,1.43,1.43,0,0,1-.51-.61,2.06,2.06,0,0,1-.17-.86,2,2,0,0,1,.38-1.23,2.12,2.12,0,0,1,1-.72,3.84,3.84,0,0,1,1.36-.22,3.4,3.4,0,0,1,1.88.5,2.16,2.16,0,0,1,.93,1.5l-1.11.28a1.44,1.44,0,0,0-.59-1,1.82,1.82,0,0,0-1.1-.33,1.91,1.91,0,0,0-1,.27.91.91,0,0,0-.43.83.85.85,0,0,0,.11.42,1.31,1.31,0,0,0,.24.3,1.11,1.11,0,0,0,.42.23,3.6,3.6,0,0,0,.45.17l.56.14.12,0,.74.21a5.36,5.36,0,0,1,.66.28,2.43,2.43,0,0,1,.6.42,2,2,0,0,1,.38.59,2.23,2.23,0,0,1,.15.83,2.31,2.31,0,0,1-.23,1,1.71,1.71,0,0,1-.63.7,2.65,2.65,0,0,1-.89.39A4.1,4.1,0,0,1,352.9,239.17Z"/>
      <path d="M358.54,229.54a.87.87,0,0,1-.64-.27.89.89,0,0,1-.27-.65.87.87,0,0,1,.27-.64.92.92,0,0,1,1.28,0,.87.87,0,0,1,.27.64.89.89,0,0,1-.27.65A.87.87,0,0,1,358.54,229.54Zm-.68,9.48v-7.68h1.36V239Z"/>
      <path d="M364.42,239a2,2,0,0,1-1.5-.55,2.07,2.07,0,0,1-.55-1.53v-4.52H360.8v-1.08h.58a1.13,1.13,0,0,0,.85-.27,1.35,1.35,0,0,0,.24-.9v-1.39h1.26v2.56h1.77v1.08h-1.77v4.38a1.17,1.17,0,0,0,.29.84,1,1,0,0,0,.77.3h.71V239Z"/>
      <path d="M368.14,229.54a.92.92,0,0,1-.92-.92.87.87,0,0,1,.27-.64.92.92,0,0,1,.65-.26.89.89,0,0,1,.63.26.87.87,0,0,1,.27.64.89.89,0,0,1-.27.65A.86.86,0,0,1,368.14,229.54Zm-.69,9.48v-7.68h1.36V239Z"/>
      <path d="M376.35,231.34h1.44L374.67,239h-1.15l-3.11-7.68h1.44l2.25,6.11Z"/>
      <path d="M382.33,239.17a4,4,0,0,1-2-.48A3.38,3.38,0,0,1,379,237.3a4.29,4.29,0,0,1-.51-2.12,3.92,3.92,0,0,1,1.09-2.9,4.09,4.09,0,0,1,5.56,0,4,4,0,0,1,1.08,2.9,3.91,3.91,0,0,1-1.09,2.9A3.73,3.73,0,0,1,382.33,239.17Zm0-1.12a2.36,2.36,0,0,0,1.81-.79,2.93,2.93,0,0,0,.73-2.08,2.89,2.89,0,0,0-.73-2.07,2.33,2.33,0,0,0-1.81-.79,2.29,2.29,0,0,0-1.8.79,2.93,2.93,0,0,0-.72,2.07,3,3,0,0,0,.72,2.08A2.33,2.33,0,0,0,382.32,238.05Z"/>
    </g>
  </g>
</svg>
