<svg id="Layer_1" data-name="Layer 1" xmlns="http://www.w3.org/2000/svg" width="563.56" height="300.44" viewBox="0 0 563.56 300.44">
  <defs>
    <style>
      .cls-1 {
        fill: #8cc63f;
      }

      .cls-2 {
        fill: #f2f2f2;
      }

      .cls-3 {
        opacity: 0.75;
      }

      .cls-4 {
        opacity: 0.5;
      }

      .cls-5 {
        opacity: 0.25;
      }
    </style>
  </defs>
  <g>
    <rect class="cls-1" width="281.78" height="228.44"/>
    <rect class="cls-2" x="281.78" width="281.78" height="300.44"/>
    <rect class="cls-1" y="228.44" width="70.44" height="72"/>
    <g class="cls-3">
      <rect class="cls-1" x="70.44" y="228.44" width="70.44" height="72"/>
    </g>
    <g class="cls-4">
      <rect class="cls-1" x="140.89" y="228.44" width="70.44" height="72"/>
    </g>
    <g class="cls-5">
      <rect class="cls-1" x="211.33" y="228.44" width="70.44" height="72"/>
    </g>
    <g>
      <path d="M346.75,97.59h5.91l-9.9,26.81h-6.13l-9.85-26.81h5.9l7,20.32Z"/>
      <path d="M372,114.59l-.06,1.28H357.84a5,5,0,0,0,1.52,3.49,4.91,4.91,0,0,0,3.36,1.2,4.71,4.71,0,0,0,2.52-.66,4.06,4.06,0,0,0,1.6-1.92l4.9.73a8.4,8.4,0,0,1-3.34,4.47,10,10,0,0,1-5.64,1.59,10.31,10.31,0,0,1-7.43-2.62,11,11,0,0,1,0-14.57,10,10,0,0,1,7.25-2.66,9.58,9.58,0,0,1,6.85,2.43C371.16,109,372,111.38,372,114.59Zm-9.41-5.88q-3.9,0-4.64,3.67h8.76a4,4,0,0,0-1.32-2.73A4.18,4.18,0,0,0,362.63,108.71Z"/>
      <path d="M381.22,108.35a6.2,6.2,0,0,1,2.51-2.29,7.57,7.57,0,0,1,3.72-1v4.76a7.26,7.26,0,0,0-4.56,1.15c-.94.77-1.41,2.13-1.41,4.09v9.29H376.1V105.33h5.12Z"/>
      <path d="M404,95.9h5.34v28.5h-5.07l-.13-2.48a5.5,5.5,0,0,1-2.42,2.16,8.19,8.19,0,0,1-3.57.77,9.22,9.22,0,0,1-3.56-.69,8.62,8.62,0,0,1-4.9-5.08,11.68,11.68,0,0,1-.72-4.18,10.83,10.83,0,0,1,1.26-5.31,8.62,8.62,0,0,1,3.33-3.46,9.17,9.17,0,0,1,4.59-1.17,8.42,8.42,0,0,1,3.46.69,5.53,5.53,0,0,1,2.39,2Zm-4.62,24.51a4.73,4.73,0,0,0,3.6-1.52,5.55,5.55,0,0,0,1.44-4,5.61,5.61,0,0,0-1.44-4,5.06,5.06,0,0,0-7.23,0,6.32,6.32,0,0,0,0,8A4.82,4.82,0,0,0,399.39,120.41Z"/>
      <path d="M432.82,114.59l-.05,1.28H418.63a4.92,4.92,0,0,0,1.52,3.49,4.87,4.87,0,0,0,3.36,1.2,4.68,4.68,0,0,0,2.51-.66,4.08,4.08,0,0,0,1.61-1.92l4.89.73a8.35,8.35,0,0,1-3.34,4.47,9.93,9.93,0,0,1-5.64,1.59,10.34,10.34,0,0,1-7.43-2.62,11,11,0,0,1,0-14.57,10,10,0,0,1,7.26-2.66,9.57,9.57,0,0,1,6.84,2.43Q432.8,109.78,432.82,114.59Zm-9.41-5.88c-2.59,0-4.14,1.22-4.63,3.67h8.75a4,4,0,0,0-1.31-2.73A4.2,4.2,0,0,0,423.41,108.71Z"/>
    </g>
    <g>
      <path d="M339.46,162.22l-.95-2.63h-5l-.94,2.63h-1.46l4.05-11h1.67l4.06,11ZM334,158.35h4.1L336,152.63Z"/>
      <path d="M344.08,155.89a2.37,2.37,0,0,1,1-1,2.84,2.84,0,0,1,1.47-.4v1.27a2.52,2.52,0,0,0-1.78.57,2.38,2.38,0,0,0-.62,1.82v4.1h-1.35v-7.68h1.32Z"/>
      <path d="M356,154.39a2.46,2.46,0,0,1,1.79.66,2.41,2.41,0,0,1,.68,1.83v5.34h-1.35v-5a1.75,1.75,0,0,0-.42-1.27,1.48,1.48,0,0,0-1.07-.43,1.54,1.54,0,0,0-1.18.49,2.11,2.11,0,0,0-.44,1.45v4.75h-1.38v-4.94a1.81,1.81,0,0,0-.42-1.3,1.45,1.45,0,0,0-1.09-.45,1.51,1.51,0,0,0-1.17.5,2.16,2.16,0,0,0-.45,1.49v4.7H348.1v-7.68h1.35v1a2.36,2.36,0,0,1,.88-.84,2.48,2.48,0,0,1,1.22-.3,2.55,2.55,0,0,1,1.31.33,2,2,0,0,1,.86.93,2.29,2.29,0,0,1,.92-.93A2.58,2.58,0,0,1,356,154.39Z"/>
      <path d="M364.27,162.37a4,4,0,0,1-2-.48,3.51,3.51,0,0,1-1.39-1.39,4.29,4.29,0,0,1-.51-2.12,4,4,0,0,1,1.09-2.9,4.09,4.09,0,0,1,5.56,0,3.91,3.91,0,0,1,1.09,2.9,4,4,0,0,1-1.09,2.9A3.75,3.75,0,0,1,364.27,162.37Zm0-1.12a2.38,2.38,0,0,0,1.82-.79,3,3,0,0,0,.72-2.08,2.93,2.93,0,0,0-.72-2.07,2.35,2.35,0,0,0-1.82-.79,2.32,2.32,0,0,0-1.8.79,3,3,0,0,0-.71,2.07,3,3,0,0,0,.71,2.08A2.36,2.36,0,0,0,364.26,161.25Z"/>
      <path d="M373.88,154.39a2.67,2.67,0,0,1,1.93.7,2.6,2.6,0,0,1,.73,2v5.17h-1.36v-4.87a1.83,1.83,0,0,0-.46-1.37,1.69,1.69,0,0,0-1.21-.45,1.84,1.84,0,0,0-1.36.53,2.11,2.11,0,0,0-.54,1.57v4.59h-1.36v-7.68h1.36v1A2.55,2.55,0,0,1,373.88,154.39Z"/>
      <path d="M379.83,152.74a.87.87,0,0,1-.64-.27.89.89,0,0,1-.27-.65.87.87,0,0,1,.27-.64.92.92,0,0,1,1.28,0,.87.87,0,0,1,.27.64.89.89,0,0,1-.27.65A.87.87,0,0,1,379.83,152.74Zm-.68,9.48v-7.68h1.35v7.68Z"/>
      <path d="M385,162.37a2.65,2.65,0,0,1-1.69-.53,1.88,1.88,0,0,1-.66-1.57,2.15,2.15,0,0,1,.22-1,1.71,1.71,0,0,1,.62-.69,3.76,3.76,0,0,1,.9-.44,10.14,10.14,0,0,1,1.17-.28l1.24-.2c.46-.08.68-.32.68-.71a1.33,1.33,0,0,0-.48-1.14,1.9,1.9,0,0,0-1.21-.37,2.06,2.06,0,0,0-1.21.35,1.51,1.51,0,0,0-.57,1.08l-1.21-.26a2.33,2.33,0,0,1,1-1.64,3.54,3.54,0,0,1,2.09-.55,4.21,4.21,0,0,1,1.11.14,2.82,2.82,0,0,1,.93.43,1.89,1.89,0,0,1,.67.82,3.27,3.27,0,0,1,.24,1.27v3.17a1.3,1.3,0,0,0,.17.8.76.76,0,0,0,.61.21h.12v1h-.67a1.27,1.27,0,0,1-1.45-1h-.07A2.93,2.93,0,0,1,385,162.37Zm.31-1.09a2.05,2.05,0,0,0,1.65-.75,3,3,0,0,0,.62-2l-2,.39a2.73,2.73,0,0,0-1.19.43,1,1,0,0,0-.39.84,1,1,0,0,0,.38.84A1.5,1.5,0,0,0,385.34,161.28Z"/>
      <path d="M337.61,175.68a2.86,2.86,0,0,1,1.59,1,2.69,2.69,0,0,1,.59,1.8,2.89,2.89,0,0,1-.85,2.15,3.07,3.07,0,0,1-2.26.83H332.4v-11h3.33a3.4,3.4,0,0,1,2.36.81,2.73,2.73,0,0,1,.89,2.11,2.83,2.83,0,0,1-.35,1.41A2.3,2.3,0,0,1,337.61,175.68Zm.06-2.26a1.68,1.68,0,0,0-.53-1.27,2,2,0,0,0-1.42-.5h-2v3.59H336a1.57,1.57,0,0,0,1.22-.52A1.92,1.92,0,0,0,337.67,173.42Zm-1.23,6.76a2,2,0,0,0,1.45-.54,1.94,1.94,0,0,0,0-2.71,2.16,2.16,0,0,0-1.53-.53h-2.59v3.78Z"/>
      <path d="M343.81,181.57a2.62,2.62,0,0,1-1.68-.53,1.88,1.88,0,0,1-.66-1.57,2.2,2.2,0,0,1,.21-1,1.74,1.74,0,0,1,.62-.7,3.76,3.76,0,0,1,.9-.44,10.14,10.14,0,0,1,1.17-.28l1.24-.2c.46-.08.68-.32.68-.71a1.33,1.33,0,0,0-.48-1.14,1.9,1.9,0,0,0-1.21-.37,2,2,0,0,0-1.2.35,1.45,1.45,0,0,0-.57,1.08l-1.22-.26a2.33,2.33,0,0,1,1-1.64,3.54,3.54,0,0,1,2.09-.55,4.21,4.21,0,0,1,1.11.14,2.82,2.82,0,0,1,.93.43,1.89,1.89,0,0,1,.67.82,3.09,3.09,0,0,1,.24,1.27v3.17a1.3,1.3,0,0,0,.17.8.76.76,0,0,0,.61.21h.12v1h-.67a1.27,1.27,0,0,1-1.45-1h-.06A3,3,0,0,1,343.81,181.57Zm.31-1.09a2.05,2.05,0,0,0,1.65-.75,3,3,0,0,0,.63-2l-2,.39a2.73,2.73,0,0,0-1.19.43,1,1,0,0,0-.38.84,1,1,0,0,0,.37.84A1.52,1.52,0,0,0,344.12,180.48Z"/>
      <path d="M350.42,181.42v-12h1.37v12Z"/>
      <path d="M356.31,181.57a2.62,2.62,0,0,1-1.68-.53,1.88,1.88,0,0,1-.66-1.57,2.2,2.2,0,0,1,.21-1,1.74,1.74,0,0,1,.62-.7,3.76,3.76,0,0,1,.9-.44,10.14,10.14,0,0,1,1.17-.28l1.24-.2c.46-.08.68-.32.68-.71a1.33,1.33,0,0,0-.48-1.14,1.9,1.9,0,0,0-1.21-.37,2,2,0,0,0-1.2.35,1.45,1.45,0,0,0-.57,1.08l-1.22-.26a2.33,2.33,0,0,1,1-1.64,3.54,3.54,0,0,1,2.09-.55,4.21,4.21,0,0,1,1.11.14,2.82,2.82,0,0,1,.93.43,1.89,1.89,0,0,1,.67.82,3.09,3.09,0,0,1,.24,1.27v3.17a1.3,1.3,0,0,0,.17.8.76.76,0,0,0,.61.21H361v1h-.67a1.27,1.27,0,0,1-1.45-1h-.06A3,3,0,0,1,356.31,181.57Zm.31-1.09a2.05,2.05,0,0,0,1.65-.75,3,3,0,0,0,.63-2l-2,.39a2.73,2.73,0,0,0-1.19.43,1,1,0,0,0-.38.84,1,1,0,0,0,.37.84A1.52,1.52,0,0,0,356.62,180.48Z"/>
      <path d="M366.54,173.59a2.71,2.71,0,0,1,1.94.7,2.6,2.6,0,0,1,.72,2v5.17h-1.35v-4.87a1.83,1.83,0,0,0-.47-1.37,1.65,1.65,0,0,0-1.2-.45,1.86,1.86,0,0,0-1.37.53,2.15,2.15,0,0,0-.54,1.57v4.59h-1.35v-7.68h1.35v1A2.56,2.56,0,0,1,366.54,173.59Z"/>
      <path d="M375,181.56a3.67,3.67,0,0,1-2.75-1.1,4.36,4.36,0,0,1,0-5.76,3.68,3.68,0,0,1,2.76-1.11,3.72,3.72,0,0,1,2.22.68,3.33,3.33,0,0,1,1.29,1.86l-1.26.21a2.35,2.35,0,0,0-.87-1.2,2.38,2.38,0,0,0-1.39-.42,2.27,2.27,0,0,0-1.78.79,3.4,3.4,0,0,0,0,4.13,2.27,2.27,0,0,0,1.78.79,2.38,2.38,0,0,0,1.39-.42,2.35,2.35,0,0,0,.87-1.2l1.26.21a3.37,3.37,0,0,1-1.3,1.87A3.71,3.71,0,0,1,375,181.56Z"/>
      <path d="M387.22,177.43v.37h-6a2.69,2.69,0,0,0,.73,2,2.49,2.49,0,0,0,3,.32,2.35,2.35,0,0,0,.87-1l1.22.26a3.47,3.47,0,0,1-1.31,1.65,3.59,3.59,0,0,1-2,.6,3.75,3.75,0,0,1-2.77-1.07,4.57,4.57,0,0,1,0-5.84,3.66,3.66,0,0,1,2.72-1.07,3.46,3.46,0,0,1,2.58,1A3.88,3.88,0,0,1,387.22,177.43Zm-3.55-2.8a2.36,2.36,0,0,0-1.6.55,2.49,2.49,0,0,0-.81,1.58h4.6a2.25,2.25,0,0,0-.67-1.58A2.12,2.12,0,0,0,383.67,174.63Z"/>
      <path d="M338.29,190.9h-4.46v3.6h3.93v1.26h-3.93v3.59h4.46v1.27H332.4v-11h5.89Z"/>
      <path d="M343.05,200.77a3.63,3.63,0,0,1-2.07-.55,2.31,2.31,0,0,1-1-1.58l1.18-.34a1.7,1.7,0,0,0,.63,1.07,2.07,2.07,0,0,0,1.26.38,2.82,2.82,0,0,0,.74-.1,1.28,1.28,0,0,0,.57-.38,1.09,1.09,0,0,0,.23-.7,1.07,1.07,0,0,0-.07-.32,1.17,1.17,0,0,0-.12-.25.64.64,0,0,0-.22-.21,2.29,2.29,0,0,0-.27-.17,2.08,2.08,0,0,0-.34-.14l-.38-.13-.43-.12-.44-.13c-.32-.1-.59-.19-.8-.28a3.66,3.66,0,0,1-.65-.37,1.49,1.49,0,0,1-.5-.61,2.06,2.06,0,0,1-.17-.86,2,2,0,0,1,.38-1.22,2.08,2.08,0,0,1,1-.73,3.84,3.84,0,0,1,1.36-.22,3.34,3.34,0,0,1,1.87.5,2.14,2.14,0,0,1,.94,1.5l-1.11.28a1.47,1.47,0,0,0-.59-1,1.84,1.84,0,0,0-1.1-.33,1.91,1.91,0,0,0-1,.27.91.91,0,0,0-.43.83.85.85,0,0,0,.11.42,1.65,1.65,0,0,0,.23.3,1.26,1.26,0,0,0,.43.23,3.6,3.6,0,0,0,.45.17c.1,0,.28.08.56.14l.12,0,.74.21a5.36,5.36,0,0,1,.66.28,2.43,2.43,0,0,1,.6.42,2,2,0,0,1,.37.59,2,2,0,0,1,.16.83,2.31,2.31,0,0,1-.23,1,1.88,1.88,0,0,1-.63.71,3,3,0,0,1-.89.38A4.15,4.15,0,0,1,343.05,200.77Z"/>
      <path d="M350.46,200.62a2,2,0,0,1-1.5-.55,2.07,2.07,0,0,1-.55-1.53V194h-1.57v-1.08h.58a1.13,1.13,0,0,0,.85-.27,1.35,1.35,0,0,0,.24-.9v-1.39h1.26v2.56h1.77V194h-1.77v4.38a1.17,1.17,0,0,0,.29.84,1,1,0,0,0,.77.3h.71v1.08Z"/>
      <path d="M355.17,200.77a2.6,2.6,0,0,1-1.68-.53,1.85,1.85,0,0,1-.66-1.57,2.2,2.2,0,0,1,.21-1,1.67,1.67,0,0,1,.62-.7,3.76,3.76,0,0,1,.9-.44,8.52,8.52,0,0,1,1.17-.27l1.24-.21c.46-.08.68-.32.68-.71a1.33,1.33,0,0,0-.48-1.14,1.9,1.9,0,0,0-1.21-.37,2.06,2.06,0,0,0-1.21.35,1.51,1.51,0,0,0-.57,1.08L353,195a2.33,2.33,0,0,1,1-1.65,3.54,3.54,0,0,1,2.09-.55,4.21,4.21,0,0,1,1.11.14,2.82,2.82,0,0,1,.93.43,1.89,1.89,0,0,1,.67.82,3.09,3.09,0,0,1,.24,1.27v3.17a1.3,1.3,0,0,0,.17.8.76.76,0,0,0,.61.21h.12v1h-.67a1.27,1.27,0,0,1-1.45-1h-.07A2.91,2.91,0,0,1,355.17,200.77Zm.31-1.09a2.05,2.05,0,0,0,1.65-.75,3,3,0,0,0,.62-2l-2,.39a2.73,2.73,0,0,0-1.19.43,1,1,0,0,0-.38.84,1,1,0,0,0,.37.84A1.5,1.5,0,0,0,355.48,199.68Z"/>
      <path d="M365.85,192.79a3.36,3.36,0,0,1,2.54,1.11,4.07,4.07,0,0,1,1,2.89,4.12,4.12,0,0,1-1,2.89,3.35,3.35,0,0,1-2.55,1.11,3.06,3.06,0,0,1-1.64-.45,2.86,2.86,0,0,1-1.1-1.21l0,1.49h-1.3v-12h1.34v5.79a2.78,2.78,0,0,1,1.1-1.18A3.07,3.07,0,0,1,365.85,192.79Zm-.3,6.82a2.38,2.38,0,0,0,1.8-.78,2.89,2.89,0,0,0,.73-2,2.94,2.94,0,0,0-.73-2,2.38,2.38,0,0,0-1.8-.78,2.3,2.3,0,0,0-1.78.81,3.16,3.16,0,0,0,0,4A2.31,2.31,0,0,0,365.55,199.61Z"/>
      <path d="M372.24,191.14a.89.89,0,0,1-.65-.27.88.88,0,0,1-.26-.65.86.86,0,0,1,.26-.64.93.93,0,0,1,1.29,0,.87.87,0,0,1,.27.64.92.92,0,0,1-.91.92Zm-.69,9.48v-7.68h1.36v7.68Z"/>
      <path d="M375.66,200.62v-12H377v12Z"/>
      <path d="M380.47,191.14a.92.92,0,0,1-.92-.92.87.87,0,0,1,.27-.64.92.92,0,0,1,.65-.26.89.89,0,0,1,.63.26.87.87,0,0,1,.27.64.89.89,0,0,1-.27.65A.86.86,0,0,1,380.47,191.14Zm-.69,9.48v-7.68h1.36v7.68Z"/>
      <path d="M389.56,188.62h1.35v12h-1.3l0-1.49a2.86,2.86,0,0,1-1.1,1.21,3,3,0,0,1-1.62.45,3.53,3.53,0,0,1-2.54-1.09,3.57,3.57,0,0,1-.77-1.27,4.59,4.59,0,0,1-.29-1.64,4,4,0,0,1,1.05-2.89,3.35,3.35,0,0,1,2.55-1.11,3.06,3.06,0,0,1,1.6.44,2.88,2.88,0,0,1,1.1,1.17Zm-2.42,11a2.31,2.31,0,0,0,1.78-.8,3.16,3.16,0,0,0,0-4,2.31,2.31,0,0,0-1.78-.81,2.36,2.36,0,0,0-1.8.78,2.94,2.94,0,0,0-.73,2,2.89,2.89,0,0,0,.73,2A2.36,2.36,0,0,0,387.14,199.61Z"/>
      <path d="M395.43,200.77a2.62,2.62,0,0,1-1.68-.53,1.88,1.88,0,0,1-.66-1.57,2.2,2.2,0,0,1,.21-1,1.7,1.7,0,0,1,.63-.7,3.42,3.42,0,0,1,.9-.44,7.88,7.88,0,0,1,1.17-.27l1.24-.21c.45-.08.68-.32.68-.71a1.33,1.33,0,0,0-.48-1.14,1.93,1.93,0,0,0-1.22-.37,2,2,0,0,0-1.2.35,1.51,1.51,0,0,0-.57,1.08l-1.22-.25a2.4,2.4,0,0,1,1-1.65,3.6,3.6,0,0,1,2.1-.55,4.32,4.32,0,0,1,1.11.14,2.92,2.92,0,0,1,.93.43,1.94,1.94,0,0,1,.66.82,3.09,3.09,0,0,1,.24,1.27v3.17a1.29,1.29,0,0,0,.18.8.74.74,0,0,0,.6.21h.13v1h-.67c-.83,0-1.32-.34-1.46-1H398A2.91,2.91,0,0,1,395.43,200.77Zm.32-1.09a2.05,2.05,0,0,0,1.65-.75,3.08,3.08,0,0,0,.62-2l-2,.39a2.68,2.68,0,0,0-1.19.43,1,1,0,0,0-.39.84,1,1,0,0,0,.37.84A1.55,1.55,0,0,0,395.75,199.68Z"/>
      <path d="M407.56,188.62h1.35v12h-1.3l0-1.49a2.86,2.86,0,0,1-1.1,1.21,3,3,0,0,1-1.62.45,3.53,3.53,0,0,1-2.54-1.09,3.57,3.57,0,0,1-.77-1.27,4.59,4.59,0,0,1-.29-1.64,4,4,0,0,1,1.05-2.89,3.35,3.35,0,0,1,2.55-1.11,3.06,3.06,0,0,1,1.6.44,2.88,2.88,0,0,1,1.1,1.17Zm-2.42,11a2.31,2.31,0,0,0,1.78-.8,3.16,3.16,0,0,0,0-4,2.31,2.31,0,0,0-1.78-.81,2.36,2.36,0,0,0-1.8.78,2.94,2.94,0,0,0-.73,2,2.89,2.89,0,0,0,.73,2A2.36,2.36,0,0,0,405.14,199.61Z"/>
      <path d="M335.79,220a5,5,0,0,1-2.87-.78,3.29,3.29,0,0,1-1.43-2.13l1.41-.34a2.28,2.28,0,0,0,1,1.5,3.31,3.31,0,0,0,1.94.55,4.23,4.23,0,0,0,.73-.06,3.63,3.63,0,0,0,.66-.21,2.12,2.12,0,0,0,.54-.36,1.5,1.5,0,0,0,.36-.54,1.73,1.73,0,0,0,.12-.73,1.46,1.46,0,0,0-.09-.52,1.75,1.75,0,0,0-.22-.41,1.52,1.52,0,0,0-.37-.33,3.82,3.82,0,0,0-.45-.27,4.14,4.14,0,0,0-.55-.22l-.58-.18-.63-.18-.12,0-.74-.2-.68-.24a4.2,4.2,0,0,1-.66-.3,4.88,4.88,0,0,1-.53-.38,1.67,1.67,0,0,1-.44-.49,2.36,2.36,0,0,1-.27-.62,3.07,3.07,0,0,1,.41-2.47,3,3,0,0,1,1.32-1,4.76,4.76,0,0,1,1.82-.33,5,5,0,0,1,2.64.68,3,3,0,0,1,1.4,2l-1.36.34a2,2,0,0,0-.91-1.35,3.18,3.18,0,0,0-1.72-.46,3.22,3.22,0,0,0-.84.11,2.27,2.27,0,0,0-.73.31,1.46,1.46,0,0,0-.53.57,1.8,1.8,0,0,0-.2.84,1.38,1.38,0,0,0,.28.84,1.39,1.39,0,0,0,.33.3l.41.25.51.2.55.17.6.16a12.56,12.56,0,0,1,2.12.7,2.67,2.67,0,0,1,1.63,2,3.75,3.75,0,0,1,0,.48,3.06,3.06,0,0,1-.31,1.42,2.61,2.61,0,0,1-.87,1,4.28,4.28,0,0,1-1.23.55A5.83,5.83,0,0,1,335.79,220Z"/>
      <path d="M348.69,215.83v.37h-6a2.69,2.69,0,0,0,.73,2,2.4,2.4,0,0,0,1.75.69,2.33,2.33,0,0,0,1.27-.37,2.37,2.37,0,0,0,.88-1l1.22.26a3.53,3.53,0,0,1-1.31,1.65,3.59,3.59,0,0,1-2,.6,3.73,3.73,0,0,1-2.77-1.07,4.59,4.59,0,0,1,0-5.84,3.7,3.7,0,0,1,2.73-1.07,3.46,3.46,0,0,1,2.58,1A3.88,3.88,0,0,1,348.69,215.83Zm-3.55-2.8a2.36,2.36,0,0,0-1.6.55,2.49,2.49,0,0,0-.81,1.58h4.6a2.25,2.25,0,0,0-.67-1.58A2.14,2.14,0,0,0,345.14,213Z"/>
      <path d="M356.37,212.14h1.31v7.29a4.17,4.17,0,0,1-1,3,4.12,4.12,0,0,1-6.47-1.3l1.11-.55a2.55,2.55,0,0,0,2.57,1.78,2.19,2.19,0,0,0,1.8-.75,3.17,3.17,0,0,0,.63-2.1v-1.42a2.79,2.79,0,0,1-1.1,1.11,3.37,3.37,0,0,1-4.08-.67,3.78,3.78,0,0,1-1-2.73,3.74,3.74,0,0,1,1-2.72,3.32,3.32,0,0,1,2.5-1.08,3.14,3.14,0,0,1,1.6.43,2.77,2.77,0,0,1,1.09,1.14Zm-2.44,6.32a2.32,2.32,0,0,0,1.77-.79,2.8,2.8,0,0,0,0-3.76,2.33,2.33,0,0,0-1.78-.79,2.36,2.36,0,0,0-1.77.76,2.87,2.87,0,0,0,0,3.81A2.37,2.37,0,0,0,353.93,218.46Z"/>
      <path d="M365.22,212.14h1.35v7.68h-1.3l0-1a2.46,2.46,0,0,1-.95.86,3,3,0,0,1-1.35.3,2.67,2.67,0,0,1-1.93-.69,2.62,2.62,0,0,1-.72-2v-5.17h1.35V217a1.79,1.79,0,0,0,.47,1.37,1.64,1.64,0,0,0,1.21.46,1.85,1.85,0,0,0,1.36-.53,2.21,2.21,0,0,0,.54-1.57Z"/>
      <path d="M370.64,213.49a2.34,2.34,0,0,1,.95-1,2.88,2.88,0,0,1,1.48-.4v1.27a2.55,2.55,0,0,0-1.79.57,2.38,2.38,0,0,0-.61,1.82v4.1h-1.35v-7.68h1.32Z"/>
      <path d="M375.34,210.34a.87.87,0,0,1-.64-.27.89.89,0,0,1-.27-.65.87.87,0,0,1,.27-.64.9.9,0,0,1,.64-.26.92.92,0,0,1,.64.26.87.87,0,0,1,.27.64.92.92,0,0,1-.91.92Zm-.69,9.48v-7.68H376v7.68Z"/>
      <path d="M384.43,207.82h1.36v12h-1.31l0-1.49a2.9,2.9,0,0,1-1.09,1.21,3.05,3.05,0,0,1-1.63.45,3.46,3.46,0,0,1-1.39-.29,3.27,3.27,0,0,1-1.14-.8,3.59,3.59,0,0,1-.78-1.27,4.59,4.59,0,0,1-.28-1.64,4.07,4.07,0,0,1,1-2.89,3.38,3.38,0,0,1,2.55-1.11,3.09,3.09,0,0,1,1.61.44,2.86,2.86,0,0,1,1.09,1.17Zm-2.42,11a2.29,2.29,0,0,0,1.79-.8,2.94,2.94,0,0,0,.72-2,2.88,2.88,0,0,0-.73-2,2.28,2.28,0,0,0-1.78-.81,2.34,2.34,0,0,0-1.79.78,2.89,2.89,0,0,0-.73,2.05,2.85,2.85,0,0,0,.73,2A2.34,2.34,0,0,0,382,218.81Z"/>
      <path d="M390.31,220a2.56,2.56,0,0,1-1.68-.53,1.88,1.88,0,0,1-.66-1.57,2.2,2.2,0,0,1,.21-1,1.74,1.74,0,0,1,.62-.7,3.76,3.76,0,0,1,.9-.44,8.52,8.52,0,0,1,1.17-.27l1.24-.21c.46-.08.68-.32.68-.71a1.33,1.33,0,0,0-.48-1.14,1.9,1.9,0,0,0-1.21-.37,2,2,0,0,0-1.2.35,1.45,1.45,0,0,0-.57,1.08l-1.22-.25a2.33,2.33,0,0,1,1-1.65,3.54,3.54,0,0,1,2.09-.55,4.21,4.21,0,0,1,1.11.14,2.82,2.82,0,0,1,.93.43,1.89,1.89,0,0,1,.67.82,3.09,3.09,0,0,1,.24,1.27v3.17a1.3,1.3,0,0,0,.17.8.76.76,0,0,0,.61.21H395v1h-.67a1.27,1.27,0,0,1-1.45-1h-.06A2.94,2.94,0,0,1,390.31,220Zm.31-1.09a2.05,2.05,0,0,0,1.65-.75,3,3,0,0,0,.63-2l-2,.39a2.73,2.73,0,0,0-1.19.43,1,1,0,0,0-.38.84,1,1,0,0,0,.37.84A1.52,1.52,0,0,0,390.62,218.88Z"/>
      <path d="M402.43,207.82h1.36v12h-1.31l0-1.49a2.9,2.9,0,0,1-1.09,1.21,3.05,3.05,0,0,1-1.63.45,3.46,3.46,0,0,1-1.39-.29,3.27,3.27,0,0,1-1.14-.8,3.59,3.59,0,0,1-.78-1.27,4.59,4.59,0,0,1-.28-1.64,4.07,4.07,0,0,1,1-2.89,3.38,3.38,0,0,1,2.55-1.11,3.09,3.09,0,0,1,1.61.44,2.86,2.86,0,0,1,1.09,1.17Zm-2.42,11a2.29,2.29,0,0,0,1.79-.8,2.94,2.94,0,0,0,.72-2,2.88,2.88,0,0,0-.73-2,2.28,2.28,0,0,0-1.78-.81,2.34,2.34,0,0,0-1.79.78,2.89,2.89,0,0,0-.73,2.05,2.85,2.85,0,0,0,.73,2A2.34,2.34,0,0,0,400,218.81Z"/>
      <path d="M336.56,228a3.21,3.21,0,0,1,1.72.46,3.09,3.09,0,0,1,1.16,1.22,3.58,3.58,0,0,1,.4,1.7,3.31,3.31,0,0,1-.91,2.39,3.13,3.13,0,0,1-2.37,1h-2.77V239H332.4V228Zm-.2,5.51a2,2,0,0,0,1.53-.59,2.17,2.17,0,0,0,.55-1.56,2.19,2.19,0,0,0-.55-1.55,2,2,0,0,0-1.53-.6h-2.57v4.3Z"/>
      <path d="M343,239.17a2.65,2.65,0,0,1-1.69-.53,1.88,1.88,0,0,1-.66-1.57,2.15,2.15,0,0,1,.22-1,1.71,1.71,0,0,1,.62-.69,3.76,3.76,0,0,1,.9-.44,10.14,10.14,0,0,1,1.17-.28l1.24-.2c.46-.08.68-.32.68-.71a1.33,1.33,0,0,0-.48-1.14,1.9,1.9,0,0,0-1.21-.37,2.06,2.06,0,0,0-1.21.35,1.51,1.51,0,0,0-.57,1.08l-1.21-.26a2.33,2.33,0,0,1,1-1.64,3.54,3.54,0,0,1,2.09-.55,4.21,4.21,0,0,1,1.11.14,2.82,2.82,0,0,1,.93.43,1.89,1.89,0,0,1,.67.82,3.27,3.27,0,0,1,.24,1.27V237a1.3,1.3,0,0,0,.17.8.76.76,0,0,0,.61.21h.12v1h-.67a1.27,1.27,0,0,1-1.45-1h-.07A2.93,2.93,0,0,1,343,239.17Zm.31-1.09a2.05,2.05,0,0,0,1.65-.75,3,3,0,0,0,.62-2l-2,.39a2.73,2.73,0,0,0-1.19.43,1.11,1.11,0,0,0,0,1.68A1.5,1.5,0,0,0,343.34,238.08Z"/>
      <path d="M350.7,237.93h4.09V239h-6.12l4.05-6.58H348.9v-1.1h5.89Z"/>
    </g>
  </g>
</svg>
