<svg id="Layer_1" data-name="Layer 1" xmlns="http://www.w3.org/2000/svg" width="563.56" height="300.44" viewBox="0 0 563.56 300.44">
  <defs>
    <style>
      .cls-1 {
        fill: #ff7bac;
      }

      .cls-2 {
        fill: #f2f2f2;
      }

      .cls-3 {
        opacity: 0.75;
      }

      .cls-4 {
        opacity: 0.5;
      }

      .cls-5 {
        opacity: 0.25;
      }
    </style>
  </defs>
  <g>
    <rect class="cls-1" width="281.78" height="228.44"/>
    <rect class="cls-2" x="281.78" width="281.78" height="300.44"/>
    <rect class="cls-1" y="228.44" width="70.44" height="72"/>
    <g class="cls-3">
      <rect class="cls-1" x="70.44" y="228.44" width="70.44" height="72"/>
    </g>
    <g class="cls-4">
      <rect class="cls-1" x="140.89" y="228.44" width="70.44" height="72"/>
    </g>
    <g class="cls-5">
      <rect class="cls-1" x="211.33" y="228.44" width="70.44" height="72"/>
    </g>
    <g>
      <path d="M331.85,82.4l-7-11.8h-1.62V82.4h-5.57V55.59h9.73a11.3,11.3,0,0,1,3.89.62,6.7,6.7,0,0,1,2.7,1.73,7.25,7.25,0,0,1,1.52,2.53,9.27,9.27,0,0,1,.51,3.14,6.51,6.51,0,0,1-1.46,4.4,7.33,7.33,0,0,1-4.21,2.31l8.07,12.08Zm-8.59-22.19v6.4h3.28q4.18,0,4.18-3.19a2.92,2.92,0,0,0-1-2.36,4.91,4.91,0,0,0-3.16-.85Z"/>
      <path d="M349.57,82.77a12,12,0,0,1-5.4-1.17,8.75,8.75,0,0,1-3.7-3.43,10.19,10.19,0,0,1-1.35-5.32,9.34,9.34,0,0,1,2.9-7.24,12.11,12.11,0,0,1,15.12,0,9.34,9.34,0,0,1,2.9,7.24,9.38,9.38,0,0,1-2.9,7.26A10.71,10.71,0,0,1,349.57,82.77Zm-.05-4.25A4.92,4.92,0,0,0,353.29,77a6.61,6.61,0,0,0,0-8.24,4.9,4.9,0,0,0-3.77-1.56,4.71,4.71,0,0,0-3.67,1.57,6.66,6.66,0,0,0,0,8.22A4.74,4.74,0,0,0,349.52,78.52Z"/>
      <path d="M370.72,82.77a10.65,10.65,0,0,1-5.56-1.33,5.63,5.63,0,0,1-2.73-4l4.47-1.27A3.59,3.59,0,0,0,370.72,79a4,4,0,0,0,1.95-.43,1.52,1.52,0,0,0,.76-1.48,1.55,1.55,0,0,0-.31-1,2.56,2.56,0,0,0-1-.71c-.44-.19-.87-.36-1.3-.5s-1-.3-1.69-.49a18.42,18.42,0,0,1-1.77-.55,12.31,12.31,0,0,1-1.68-.71,7.21,7.21,0,0,1-1.39-1,4,4,0,0,1-1-1.5,5.38,5.38,0,0,1-.36-2A4.88,4.88,0,0,1,365,64.4,9.28,9.28,0,0,1,370.39,63a9.53,9.53,0,0,1,5,1.22A5.55,5.55,0,0,1,377.94,68l-4.14.93a3.23,3.23,0,0,0-3.39-2.41,3.68,3.68,0,0,0-1.88.43,1.37,1.37,0,0,0-.74,1.26,1.48,1.48,0,0,0,.11.57,1.23,1.23,0,0,0,.39.47c.19.13.37.25.54.35a4.31,4.31,0,0,0,.76.31l.84.24,1,.25,1,.26c.68.18,1.28.37,1.79.55a11.48,11.48,0,0,1,1.65.78,5.76,5.76,0,0,1,1.43,1.13,5,5,0,0,1,.94,1.57,5.81,5.81,0,0,1,.37,2.13,5.68,5.68,0,0,1-.64,2.76,4.85,4.85,0,0,1-1.75,1.87,8.66,8.66,0,0,1-2.48,1A13.22,13.22,0,0,1,370.72,82.77Z"/>
      <path d="M398.05,77.23a17.72,17.72,0,0,0,.47,4.65v.52h-5l-.43-2.08a6.19,6.19,0,0,1-2.67,1.84,9.79,9.79,0,0,1-3.45.61,9.14,9.14,0,0,1-1.78-.16,6.18,6.18,0,0,1-1.61-.57,5.3,5.3,0,0,1-1.33-1,4.54,4.54,0,0,1-.89-1.51,6.16,6.16,0,0,1-.33-2.07,5.83,5.83,0,0,1,.35-2.07,5,5,0,0,1,.93-1.55,5.46,5.46,0,0,1,1.5-1.13,10.9,10.9,0,0,1,1.9-.82,20.79,20.79,0,0,1,2.26-.59l3.14-.71a3.41,3.41,0,0,0,1.41-.6,1.2,1.2,0,0,0,.42-1,2,2,0,0,0-.94-1.83,4.27,4.27,0,0,0-2.27-.56q-3.28,0-3.73,2.91l-4.73-.85a6.4,6.4,0,0,1,2.77-4.35,10.9,10.9,0,0,1,6-1.4q8,0,8,6.88Zm-9.4,1.93a4.3,4.3,0,0,0,3.3-1.39,5.83,5.83,0,0,0,1.28-4.09L388.7,75a5.4,5.4,0,0,0-1.9.78,1.6,1.6,0,0,0-.66,1.37,1.8,1.8,0,0,0,.71,1.52A2.94,2.94,0,0,0,388.65,79.16Z"/>
      <path d="M416.35,53.9h5.34V82.4h-5.06l-.13-2.48a5.56,5.56,0,0,1-2.42,2.16,8.21,8.21,0,0,1-3.58.77,9.25,9.25,0,0,1-3.56-.69,8.62,8.62,0,0,1-4.9-5.08,11.68,11.68,0,0,1-.72-4.18,10.83,10.83,0,0,1,1.26-5.31,8.62,8.62,0,0,1,3.33-3.46A9.17,9.17,0,0,1,410.5,63a8.38,8.38,0,0,1,3.46.69,5.47,5.47,0,0,1,2.39,2Zm-4.62,24.51a4.74,4.74,0,0,0,3.61-1.52,5.55,5.55,0,0,0,1.44-4,5.62,5.62,0,0,0-1.45-4,5.06,5.06,0,0,0-7.23,0,6.32,6.32,0,0,0,0,8A4.82,4.82,0,0,0,411.73,78.41Z"/>
      <path d="M436.11,82.77a12,12,0,0,1-5.4-1.17,8.75,8.75,0,0,1-3.7-3.43,10.19,10.19,0,0,1-1.35-5.32,9.34,9.34,0,0,1,2.9-7.24,12.11,12.11,0,0,1,15.12,0,9.34,9.34,0,0,1,2.9,7.24,9.38,9.38,0,0,1-2.9,7.26A10.71,10.71,0,0,1,436.11,82.77Zm-.06-4.25A4.93,4.93,0,0,0,439.83,77a6.61,6.61,0,0,0,0-8.24,4.9,4.9,0,0,0-3.78-1.56,4.71,4.71,0,0,0-3.66,1.57,6.66,6.66,0,0,0,0,8.22A4.73,4.73,0,0,0,436.05,78.52Z"/>
    </g>
    <g>
      <path d="M325.11,162.37a5.93,5.93,0,0,1-2.17-.39,5.62,5.62,0,0,1-1.74-1.11,5,5,0,0,1-1.15-1.79,6.84,6.84,0,0,1,0-4.72,5.09,5.09,0,0,1,1.16-1.79,5.29,5.29,0,0,1,1.73-1.11,5.93,5.93,0,0,1,2.17-.39,5.55,5.55,0,0,1,2.92.78A4.82,4.82,0,0,1,330,154l-1.29.53a3.71,3.71,0,0,0-1.44-1.57,4.12,4.12,0,0,0-2.13-.55,4.47,4.47,0,0,0-1.61.29,3.81,3.81,0,0,0-1.29.83,3.7,3.7,0,0,0-.87,1.36,5,5,0,0,0-.32,1.82,5.11,5.11,0,0,0,.32,1.84,3.7,3.7,0,0,0,.87,1.36,3.81,3.81,0,0,0,1.29.83,4.27,4.27,0,0,0,1.61.29,4.12,4.12,0,0,0,2.13-.55,3.66,3.66,0,0,0,1.44-1.55l1.29.52A4.8,4.8,0,0,1,328,161.6,5.65,5.65,0,0,1,325.11,162.37Z"/>
      <path d="M335.25,162.37a4,4,0,0,1-2-.48,3.38,3.38,0,0,1-1.39-1.39,4.29,4.29,0,0,1-.51-2.12,3.92,3.92,0,0,1,1.09-2.9,4.09,4.09,0,0,1,5.56,0,4,4,0,0,1,1.08,2.9,3.91,3.91,0,0,1-1.09,2.9A3.73,3.73,0,0,1,335.25,162.37Zm0-1.12a2.4,2.4,0,0,0,1.82-.79,3,3,0,0,0,.72-2.08,2.93,2.93,0,0,0-.72-2.07,2.36,2.36,0,0,0-1.82-.79,2.31,2.31,0,0,0-1.8.79,2.93,2.93,0,0,0-.72,2.07,3,3,0,0,0,.72,2.08A2.34,2.34,0,0,0,335.24,161.25Z"/>
      <path d="M349.08,154.39a2.46,2.46,0,0,1,1.79.66,2.38,2.38,0,0,1,.68,1.83v5.34H350.2v-5a1.75,1.75,0,0,0-.42-1.27,1.46,1.46,0,0,0-1.07-.43,1.51,1.51,0,0,0-1.17.49,2.06,2.06,0,0,0-.45,1.45v4.75h-1.37v-4.94a1.82,1.82,0,0,0-.43-1.3,1.43,1.43,0,0,0-1.09-.45,1.51,1.51,0,0,0-1.17.5,2.16,2.16,0,0,0-.45,1.49v4.7h-1.35v-7.68h1.35v1a2.44,2.44,0,0,1,.88-.84,2.48,2.48,0,0,1,1.22-.3,2.59,2.59,0,0,1,1.32.33,2,2,0,0,1,.85.93,2.35,2.35,0,0,1,.92-.93A2.6,2.6,0,0,1,349.08,154.39Z"/>
      <path d="M358.22,154.39a3.43,3.43,0,0,1,1.39.29,3.36,3.36,0,0,1,1.14.78,3.66,3.66,0,0,1,.77,1.27,4.71,4.71,0,0,1,.29,1.66,4,4,0,0,1-1,2.89,3.35,3.35,0,0,1-2.55,1.11,3,3,0,0,1-1.6-.44,2.9,2.9,0,0,1-1.1-1.18v5.32h-1.35V154.54h1.3l0,1.49a2.81,2.81,0,0,1,1.1-1.19A3,3,0,0,1,358.22,154.39Zm-.26,6.82a2.34,2.34,0,0,0,1.78-.77,3.28,3.28,0,0,0,0-4.1,2.34,2.34,0,0,0-1.78-.77,2.37,2.37,0,0,0-1.81.8,3.16,3.16,0,0,0,0,4A2.33,2.33,0,0,0,358,161.21Z"/>
      <path d="M365.72,162.37a2.57,2.57,0,0,1-1.69-.53,1.88,1.88,0,0,1-.66-1.57,2.2,2.2,0,0,1,.21-1,1.7,1.7,0,0,1,.63-.7,3.42,3.42,0,0,1,.9-.44,8.52,8.52,0,0,1,1.17-.27l1.24-.21c.45-.08.68-.32.68-.71a1.33,1.33,0,0,0-.48-1.14,1.93,1.93,0,0,0-1.22-.37,2,2,0,0,0-1.2.35,1.51,1.51,0,0,0-.57,1.08l-1.22-.25a2.4,2.4,0,0,1,1-1.65,3.6,3.6,0,0,1,2.1-.55,4.32,4.32,0,0,1,1.11.14,2.82,2.82,0,0,1,.93.43,1.87,1.87,0,0,1,.66.82,3.09,3.09,0,0,1,.24,1.27v3.17a1.29,1.29,0,0,0,.18.8.75.75,0,0,0,.6.21h.13v1h-.67c-.83,0-1.32-.34-1.46-1h-.06A2.91,2.91,0,0,1,365.72,162.37Zm.31-1.09a2.05,2.05,0,0,0,1.65-.75,3.08,3.08,0,0,0,.62-2l-2,.39a2.68,2.68,0,0,0-1.19.43,1,1,0,0,0-.39.84,1,1,0,0,0,.37.84A1.55,1.55,0,0,0,366,161.28Z"/>
      <path d="M374.75,162.37a3.67,3.67,0,0,1-2.07-.55,2.3,2.3,0,0,1-1-1.58l1.18-.34a1.62,1.62,0,0,0,.63,1.07,2,2,0,0,0,1.26.38,2.88,2.88,0,0,0,.74-.1,1.2,1.2,0,0,0,.56-.38,1,1,0,0,0,.23-.7,1.52,1.52,0,0,0-.06-.32,1.17,1.17,0,0,0-.13-.25.64.64,0,0,0-.22-.21l-.26-.17a2.78,2.78,0,0,0-.35-.14l-.37-.13-.43-.12-.45-.13a7.56,7.56,0,0,1-.79-.28,3.34,3.34,0,0,1-.65-.37,1.43,1.43,0,0,1-.51-.61,2.06,2.06,0,0,1-.16-.86,2,2,0,0,1,.37-1.22,2.08,2.08,0,0,1,1-.73,3.9,3.9,0,0,1,1.37-.22,3.36,3.36,0,0,1,1.87.5,2.1,2.1,0,0,1,.93,1.5l-1.11.28a1.46,1.46,0,0,0-.58-1,1.87,1.87,0,0,0-1.11-.33,1.91,1.91,0,0,0-1,.27.93.93,0,0,0-.43.83.76.76,0,0,0,.12.42,1.07,1.07,0,0,0,.23.3,1.5,1.5,0,0,0,.42.24l.45.16.56.14.12,0,.74.21a5.36,5.36,0,0,1,.66.28,2.1,2.1,0,0,1,.6.42,2,2,0,0,1,.38.59,2.23,2.23,0,0,1,.15.83,2.18,2.18,0,0,1-.23,1,1.8,1.8,0,0,1-.63.71,2.85,2.85,0,0,1-.89.38A4.1,4.1,0,0,1,374.75,162.37Z"/>
      <path d="M380.4,152.74a.92.92,0,0,1-.92-.92.87.87,0,0,1,.27-.64.92.92,0,0,1,.65-.26.89.89,0,0,1,.63.26.87.87,0,0,1,.27.64.89.89,0,0,1-.27.65A.86.86,0,0,1,380.4,152.74Zm-.69,9.48v-7.68h1.36v7.68Z"/>
      <path d="M387.05,162.37a4,4,0,0,1-2-.48,3.42,3.42,0,0,1-1.38-1.39,4.19,4.19,0,0,1-.52-2.12,4,4,0,0,1,1.09-2.9,4.09,4.09,0,0,1,5.56,0,4.4,4.4,0,0,1,0,5.8A3.75,3.75,0,0,1,387.05,162.37Zm0-1.12a2.38,2.38,0,0,0,1.82-.79,3,3,0,0,0,.72-2.08,2.93,2.93,0,0,0-.72-2.07,2.35,2.35,0,0,0-1.82-.79,2.32,2.32,0,0,0-1.8.79,3,3,0,0,0-.71,2.07,3,3,0,0,0,.71,2.08A2.36,2.36,0,0,0,387,161.25Zm-.5-8,2-2.54.72.52-1.75,2Z"/>
      <path d="M396.66,154.39a2.67,2.67,0,0,1,1.93.7,2.56,2.56,0,0,1,.73,2v5.17H398v-4.86a1.84,1.84,0,0,0-.47-1.38,1.69,1.69,0,0,0-1.21-.45,1.85,1.85,0,0,0-1.36.53,2.11,2.11,0,0,0-.54,1.57v4.59H393v-7.68h1.35v1A2.56,2.56,0,0,1,396.66,154.39Z"/>
      <path d="M327.46,181.42l-.95-2.63h-5l-.94,2.63h-1.46l4.05-11h1.67l4.06,11ZM322,177.56h4.1L324,171.83Z"/>
      <path d="M338.61,173.59a2.46,2.46,0,0,1,1.79.66,2.38,2.38,0,0,1,.68,1.83v5.34h-1.35v-5a1.75,1.75,0,0,0-.42-1.27,1.45,1.45,0,0,0-1.07-.42,1.5,1.5,0,0,0-1.17.48,2.06,2.06,0,0,0-.45,1.45v4.75h-1.37v-4.93a1.83,1.83,0,0,0-.43-1.31,1.43,1.43,0,0,0-1.09-.44,1.5,1.5,0,0,0-1.17.49,2.16,2.16,0,0,0-.45,1.49v4.7h-1.35v-7.68h1.35v1a2.39,2.39,0,0,1,.88-.85,2.49,2.49,0,0,1,1.23-.3,2.58,2.58,0,0,1,1.31.33,2,2,0,0,1,.85.93,2.42,2.42,0,0,1,.92-.93A2.6,2.6,0,0,1,338.61,173.59Z"/>
      <path d="M346.93,181.57a4,4,0,0,1-2-.48,3.38,3.38,0,0,1-1.39-1.39,4.29,4.29,0,0,1-.51-2.12,3.92,3.92,0,0,1,1.09-2.9,3.77,3.77,0,0,1,2.77-1.09,3.81,3.81,0,0,1,2.79,1.09,4,4,0,0,1,1.08,2.9,3.91,3.91,0,0,1-1.09,2.9A3.74,3.74,0,0,1,346.93,181.57Zm0-1.12a2.36,2.36,0,0,0,1.81-.79,3,3,0,0,0,.73-2.08,2.94,2.94,0,0,0-.73-2.07,2.33,2.33,0,0,0-1.81-.79,2.29,2.29,0,0,0-1.8.79,2.93,2.93,0,0,0-.72,2.07,3,3,0,0,0,.72,2.08A2.33,2.33,0,0,0,346.93,180.45Z"/>
      <path d="M354.24,175.09a2.34,2.34,0,0,1,.95-1,2.88,2.88,0,0,1,1.48-.4v1.27a2.55,2.55,0,0,0-1.79.57,2.38,2.38,0,0,0-.61,1.82v4.1h-1.35v-7.68h1.32Z"/>
      <path d="M320.4,200.62v-11h1.39v11Z"/>
      <path d="M328.52,192.79a2.67,2.67,0,0,1,1.93.7,2.56,2.56,0,0,1,.73,2v5.17h-1.35v-4.87a1.83,1.83,0,0,0-.47-1.37,1.69,1.69,0,0,0-1.21-.45,1.85,1.85,0,0,0-1.36.53,2.11,2.11,0,0,0-.54,1.57v4.59H324.9v-7.68h1.35v1A2.55,2.55,0,0,1,328.52,192.79Z"/>
      <path d="M341.64,192.79a2.47,2.47,0,0,1,1.79.66,2.41,2.41,0,0,1,.68,1.83v5.34h-1.36v-5a1.75,1.75,0,0,0-.42-1.27,1.46,1.46,0,0,0-1.07-.43,1.54,1.54,0,0,0-1.17.49,2.06,2.06,0,0,0-.44,1.45v4.75h-1.38v-4.94a1.77,1.77,0,0,0-.43-1.3,1.42,1.42,0,0,0-1.09-.45,1.51,1.51,0,0,0-1.16.5,2.16,2.16,0,0,0-.45,1.49v4.7h-1.35v-7.68h1.35v1a2.29,2.29,0,0,1,.88-.84,2.48,2.48,0,0,1,1.22-.3,2.58,2.58,0,0,1,1.31.33,2,2,0,0,1,.85.93,2.38,2.38,0,0,1,.93-.93A2.58,2.58,0,0,1,341.64,192.79Z"/>
      <path d="M348.5,200.77a2.63,2.63,0,0,1-1.69-.53,1.88,1.88,0,0,1-.66-1.57,2.28,2.28,0,0,1,.21-1A1.74,1.74,0,0,1,347,197a3.58,3.58,0,0,1,.9-.44,10.14,10.14,0,0,1,1.17-.28l1.24-.2c.45-.08.68-.32.68-.71a1.33,1.33,0,0,0-.48-1.14,1.9,1.9,0,0,0-1.21-.37,2.06,2.06,0,0,0-1.21.35,1.51,1.51,0,0,0-.57,1.08l-1.22-.26a2.4,2.4,0,0,1,1-1.64,3.6,3.6,0,0,1,2.1-.55,4.27,4.27,0,0,1,1.11.14,2.82,2.82,0,0,1,.93.43,2,2,0,0,1,.67.82,3.27,3.27,0,0,1,.23,1.27v3.17a1.29,1.29,0,0,0,.18.8.76.76,0,0,0,.61.21h.12v1h-.67a1.27,1.27,0,0,1-1.45-1H351A2.93,2.93,0,0,1,348.5,200.77Zm.31-1.09a2.05,2.05,0,0,0,1.65-.75,3.08,3.08,0,0,0,.62-2l-2,.39a2.68,2.68,0,0,0-1.19.43,1.12,1.12,0,0,0,0,1.68A1.55,1.55,0,0,0,348.81,199.68Z"/>
      <path d="M360.62,188.62H362v12h-1.3l0-1.49a2.86,2.86,0,0,1-1.1,1.21,3,3,0,0,1-1.62.45,3.46,3.46,0,0,1-1.39-.29,3.41,3.41,0,0,1-1.15-.8,3.72,3.72,0,0,1-.77-1.27,4.59,4.59,0,0,1-.28-1.64,4,4,0,0,1,1-2.89,3.35,3.35,0,0,1,2.55-1.11,3,3,0,0,1,1.6.44,2.81,2.81,0,0,1,1.1,1.17Zm-2.42,11a2.34,2.34,0,0,0,1.79-.8,2.94,2.94,0,0,0,.72-2,2.88,2.88,0,0,0-.73-2,2.3,2.3,0,0,0-1.78-.81,2.38,2.38,0,0,0-1.8.78,3.26,3.26,0,0,0,0,4.09A2.38,2.38,0,0,0,358.2,199.61Z"/>
      <path d="M369.5,192.94h1.36v7.68h-1.3l0-1a2.46,2.46,0,0,1-.95.86,3,3,0,0,1-1.35.3,2.63,2.63,0,0,1-1.93-.7,2.58,2.58,0,0,1-.72-2v-5.17h1.35v4.87a1.79,1.79,0,0,0,.47,1.37,1.64,1.64,0,0,0,1.21.46,1.85,1.85,0,0,0,1.36-.53,2.16,2.16,0,0,0,.53-1.57Z"/>
      <path d="M374.93,194.29a2.34,2.34,0,0,1,.95-1,2.85,2.85,0,0,1,1.48-.4v1.27a2.55,2.55,0,0,0-1.79.57,2.38,2.38,0,0,0-.61,1.82v4.1h-1.35v-7.68h1.32Z"/>
      <path d="M382.08,200.77a4,4,0,0,1-2-.48,3.42,3.42,0,0,1-1.38-1.39,4.29,4.29,0,0,1-.51-2.12,3.91,3.91,0,0,1,1.09-2.9,4.08,4.08,0,0,1,5.55,0,4.4,4.4,0,0,1,0,5.8A3.75,3.75,0,0,1,382.08,200.77Zm0-1.12a2.38,2.38,0,0,0,1.81-.79,3,3,0,0,0,.72-2.08,2.93,2.93,0,0,0-.72-2.07,2.47,2.47,0,0,0-3.62,0,3,3,0,0,0-.71,2.07,3,3,0,0,0,.71,2.08A2.36,2.36,0,0,0,382.08,199.65Z"/>
      <path d="M320.4,219.82v-11h3.54a5.27,5.27,0,0,1,2.8.71,4.31,4.31,0,0,1,1.72,1.94,6.79,6.79,0,0,1,.56,2.84,7.41,7.41,0,0,1-.32,2.23,5.22,5.22,0,0,1-.95,1.74,4.17,4.17,0,0,1-1.6,1.14,5.73,5.73,0,0,1-2.21.4Zm1.39-1.27h2.11a3.35,3.35,0,0,0,2.74-1.13,5.63,5.63,0,0,0,0-6.2,3.36,3.36,0,0,0-2.74-1.12h-2.11Z"/>
      <path d="M332.08,210.34a.92.92,0,0,1-.92-.92.87.87,0,0,1,.27-.64.92.92,0,0,1,.65-.26.89.89,0,0,1,.63.26.87.87,0,0,1,.27.64.89.89,0,0,1-.27.65A.86.86,0,0,1,332.08,210.34Zm-.69,9.48v-7.68h1.36v7.68Z"/>
      <path d="M340.29,212.14h1.44l-3.12,7.68h-1.15l-3.11-7.68h1.44l2.25,6.11Z"/>
      <path d="M349.75,215.83l0,.37h-6a2.69,2.69,0,0,0,.74,2,2.38,2.38,0,0,0,1.75.69,2.32,2.32,0,0,0,2.14-1.39l1.22.26a3.41,3.41,0,0,1-1.31,1.65,3.59,3.59,0,0,1-2,.6,3.71,3.71,0,0,1-2.76-1.07,4.55,4.55,0,0,1,0-5.84,3.66,3.66,0,0,1,2.72-1.07,3.44,3.44,0,0,1,2.58,1A3.88,3.88,0,0,1,349.75,215.83Zm-3.56-2.8a2.38,2.38,0,0,0-1.6.55,2.53,2.53,0,0,0-.8,1.58h4.6a2.34,2.34,0,0,0-.67-1.58A2.16,2.16,0,0,0,346.19,213Z"/>
      <path d="M353.18,213.49a2.37,2.37,0,0,1,1-1,2.84,2.84,0,0,1,1.47-.4v1.27a2.52,2.52,0,0,0-1.78.57,2.38,2.38,0,0,0-.61,1.82v4.1h-1.36v-7.68h1.32Z"/>
      <path d="M360.1,219.82a2,2,0,0,1-1.5-.55,2.07,2.07,0,0,1-.55-1.53v-4.52h-1.57v-1.08h.58a1.13,1.13,0,0,0,.85-.27,1.35,1.35,0,0,0,.24-.9v-1.39h1.26v2.56h1.77v1.08h-1.77v4.38a1.17,1.17,0,0,0,.29.84,1,1,0,0,0,.77.3h.71v1.08Z"/>
      <path d="M363.82,210.34a.92.92,0,0,1-.92-.92.87.87,0,0,1,.27-.64.92.92,0,0,1,.65-.26.89.89,0,0,1,.63.26.87.87,0,0,1,.27.64.89.89,0,0,1-.27.65A.86.86,0,0,1,363.82,210.34Zm-.69,9.48v-7.68h1.36v7.68Z"/>
      <path d="M372.91,207.82h1.35v12H373l0-1.49a2.86,2.86,0,0,1-1.1,1.21,3,3,0,0,1-1.62.45,3.53,3.53,0,0,1-2.54-1.09,3.72,3.72,0,0,1-.77-1.27,4.59,4.59,0,0,1-.29-1.64,4,4,0,0,1,1.05-2.89,3.35,3.35,0,0,1,2.55-1.11,3,3,0,0,1,1.6.44,2.88,2.88,0,0,1,1.1,1.17Zm-2.42,11a2.31,2.31,0,0,0,1.78-.8,3.16,3.16,0,0,0,0-4,2.3,2.3,0,0,0-1.78-.81,2.38,2.38,0,0,0-1.8.78,3.26,3.26,0,0,0,0,4.09A2.38,2.38,0,0,0,370.49,218.81Z"/>
      <path d="M380.25,220a4,4,0,0,1-2-.48,3.38,3.38,0,0,1-1.39-1.39,4.29,4.29,0,0,1-.51-2.12,3.92,3.92,0,0,1,1.09-2.9,4.09,4.09,0,0,1,5.56,0,4,4,0,0,1,1.08,2.9,3.91,3.91,0,0,1-1.09,2.9A3.73,3.73,0,0,1,380.25,220Zm0-1.12a2.4,2.4,0,0,0,1.82-.79,3,3,0,0,0,.72-2.08,2.93,2.93,0,0,0-.72-2.07,2.36,2.36,0,0,0-1.82-.79,2.31,2.31,0,0,0-1.8.79,2.93,2.93,0,0,0-.72,2.07,3,3,0,0,0,.72,2.08A2.34,2.34,0,0,0,380.24,218.85Z"/>
      <path d="M327.46,239l-.95-2.63h-5L320.6,239h-1.46l4.05-11h1.67l4.06,11ZM322,235.16h4.1L324,229.43Z"/>
      <path d="M336.33,227h1.35v12h-1.31l0-1.49a2.83,2.83,0,0,1-1.09,1.21,3.05,3.05,0,0,1-1.63.45,3.46,3.46,0,0,1-1.39-.29,3.27,3.27,0,0,1-1.14-.8,3.59,3.59,0,0,1-.78-1.27,4.59,4.59,0,0,1-.28-1.64,4.07,4.07,0,0,1,1-2.89,3.38,3.38,0,0,1,2.55-1.11,3.06,3.06,0,0,1,1.61.44,2.88,2.88,0,0,1,1.1,1.17Zm-2.43,11a2.33,2.33,0,0,0,1.79-.8,2.94,2.94,0,0,0,.72-2,2.88,2.88,0,0,0-.73-2,2.28,2.28,0,0,0-1.78-.81,2.34,2.34,0,0,0-1.79.78,2.89,2.89,0,0,0-.73,2.05,2.85,2.85,0,0,0,.73,2A2.34,2.34,0,0,0,333.9,238Z"/>
      <path d="M348.28,231.19a2.47,2.47,0,0,1,1.79.66,2.41,2.41,0,0,1,.68,1.83V239H349.4v-5a1.76,1.76,0,0,0-.43-1.27,1.46,1.46,0,0,0-1.07-.43,1.54,1.54,0,0,0-1.17.49,2.06,2.06,0,0,0-.44,1.45V239h-1.38v-4.94a1.81,1.81,0,0,0-.42-1.3,1.45,1.45,0,0,0-1.09-.45,1.51,1.51,0,0,0-1.17.5,2.16,2.16,0,0,0-.45,1.49V239h-1.35v-7.68h1.35v1a2.29,2.29,0,0,1,.88-.84,2.48,2.48,0,0,1,1.22-.3,2.58,2.58,0,0,1,1.31.33,2,2,0,0,1,.85.93,2.38,2.38,0,0,1,.93-.93A2.58,2.58,0,0,1,348.28,231.19Z"/>
      <path d="M354.05,229.54a.87.87,0,0,1-.64-.27.89.89,0,0,1-.27-.65.87.87,0,0,1,.27-.64.92.92,0,0,1,1.28,0,.87.87,0,0,1,.27.64.89.89,0,0,1-.27.65A.87.87,0,0,1,354.05,229.54Zm-.69,9.48v-7.68h1.36V239Z"/>
      <path d="M358.79,232.69a2.37,2.37,0,0,1,1-1,2.84,2.84,0,0,1,1.47-.4v1.27a2.52,2.52,0,0,0-1.78.57,2.38,2.38,0,0,0-.61,1.82V239h-1.36v-7.68h1.32Z"/>
      <path d="M364.49,239.17a2.62,2.62,0,0,1-1.68-.53,1.88,1.88,0,0,1-.66-1.57,2.2,2.2,0,0,1,.21-1,1.74,1.74,0,0,1,.62-.7,3.76,3.76,0,0,1,.9-.44,8.52,8.52,0,0,1,1.17-.27l1.24-.21c.46-.08.68-.32.68-.71a1.33,1.33,0,0,0-.48-1.14,1.9,1.9,0,0,0-1.21-.37,2,2,0,0,0-1.2.35,1.49,1.49,0,0,0-.58,1.08l-1.21-.25a2.33,2.33,0,0,1,1-1.65,3.54,3.54,0,0,1,2.09-.55,4.21,4.21,0,0,1,1.11.14,2.82,2.82,0,0,1,.93.43,1.89,1.89,0,0,1,.67.82,3.09,3.09,0,0,1,.24,1.27V237a1.3,1.3,0,0,0,.17.8.76.76,0,0,0,.61.21h.12v1h-.67a1.27,1.27,0,0,1-1.45-1H367A2.91,2.91,0,0,1,364.49,239.17Zm.31-1.09a2.05,2.05,0,0,0,1.65-.75,3,3,0,0,0,.63-2l-2,.39a2.73,2.73,0,0,0-1.19.43,1,1,0,0,0-.38.84,1,1,0,0,0,.37.84A1.52,1.52,0,0,0,364.8,238.08Z"/>
      <path d="M374.13,239.16a3.67,3.67,0,0,1-2.75-1.1,3.93,3.93,0,0,1-1.09-2.88,3.89,3.89,0,0,1,1.09-2.88,3.66,3.66,0,0,1,2.75-1.11,3.72,3.72,0,0,1,2.22.68,3.4,3.4,0,0,1,1.3,1.86l-1.27.21a2.3,2.3,0,0,0-2.26-1.62,2.27,2.27,0,0,0-1.78.79,3.44,3.44,0,0,0,0,4.13,2.27,2.27,0,0,0,1.78.79,2.3,2.3,0,0,0,2.26-1.62l1.27.21a3.39,3.39,0,0,1-1.31,1.87A3.71,3.71,0,0,1,374.13,239.16Z"/>
      <path d="M380.33,229.54a.92.92,0,0,1-.92-.92.87.87,0,0,1,.27-.64.92.92,0,0,1,.65-.26.89.89,0,0,1,.63.26.87.87,0,0,1,.27.64.89.89,0,0,1-.27.65A.86.86,0,0,1,380.33,229.54Zm-.69,9.48v-7.68H381V239Z"/>
      <path d="M387,239.17a4,4,0,0,1-2-.48,3.42,3.42,0,0,1-1.38-1.39,4.19,4.19,0,0,1-.52-2.12,4,4,0,0,1,1.09-2.9,4.09,4.09,0,0,1,5.56,0,4.4,4.4,0,0,1,0,5.8A3.75,3.75,0,0,1,387,239.17Zm0-1.12a2.38,2.38,0,0,0,1.82-.79,3,3,0,0,0,.72-2.08,2.93,2.93,0,0,0-.72-2.07,2.35,2.35,0,0,0-1.82-.79,2.32,2.32,0,0,0-1.8.79,3,3,0,0,0-.71,2.07,3,3,0,0,0,.71,2.08A2.36,2.36,0,0,0,387,238.05Zm-.5-8,2-2.54.72.52-1.75,2Z"/>
      <path d="M396.59,231.19a2.67,2.67,0,0,1,1.93.7,2.56,2.56,0,0,1,.73,2V239H397.9v-4.86a1.83,1.83,0,0,0-.47-1.38,1.69,1.69,0,0,0-1.21-.45,1.85,1.85,0,0,0-1.36.53,2.11,2.11,0,0,0-.54,1.57V239H393v-7.68h1.35v1A2.55,2.55,0,0,1,396.59,231.19Z"/>
    </g>
    <g>
      <path d="M324.82,117.11a3.42,3.42,0,0,1,2.61,1,3.7,3.7,0,0,1,1,2.6,3.55,3.55,0,0,1-1,2.58,3.44,3.44,0,0,1-2.61,1h-2.35v4h-2.34V117.11Zm-.39,5.28a1.68,1.68,0,0,0,1.29-.44,1.65,1.65,0,0,0,.43-1.22,1.68,1.68,0,0,0-.43-1.21,1.71,1.71,0,0,0-1.29-.45h-2v3.32Z"/>
      <path d="M333.55,128.56a5.15,5.15,0,0,1-2.27-.49,3.7,3.7,0,0,1-1.56-1.45,4.26,4.26,0,0,1-.57-2.24,4,4,0,0,1,1.22-3,5.12,5.12,0,0,1,6.37,0,4.44,4.44,0,0,1,0,6.11A4.52,4.52,0,0,1,333.55,128.56Zm0-1.79a2.07,2.07,0,0,0,1.59-.66,2.44,2.44,0,0,0,.6-1.73,2.49,2.49,0,0,0-.6-1.74,2.1,2.1,0,0,0-1.59-.65,2,2,0,0,0-1.55.66,2.83,2.83,0,0,0,0,3.46A2,2,0,0,0,333.53,126.77Z"/>
      <path d="M342.46,128.56a4.57,4.57,0,0,1-2.35-.56,2.4,2.4,0,0,1-1.14-1.68l1.88-.53a1.51,1.51,0,0,0,1.61,1.2,1.58,1.58,0,0,0,.82-.19.63.63,0,0,0,.32-.62.69.69,0,0,0-.13-.41,1.24,1.24,0,0,0-.41-.3l-.55-.21-.72-.21a7.45,7.45,0,0,1-.74-.23,4.33,4.33,0,0,1-.71-.3,2.68,2.68,0,0,1-.58-.41,1.67,1.67,0,0,1-.44-.63,2.31,2.31,0,0,1-.15-.86,2.06,2.06,0,0,1,.87-1.8,3.94,3.94,0,0,1,2.28-.6,4,4,0,0,1,2.1.51,2.32,2.32,0,0,1,1.08,1.61l-1.75.39a1.35,1.35,0,0,0-1.43-1,1.64,1.64,0,0,0-.78.17.59.59,0,0,0-.32.54.64.64,0,0,0,0,.24.48.48,0,0,0,.16.19l.23.15a1.48,1.48,0,0,0,.32.13,2.89,2.89,0,0,0,.35.1l.41.11.42.11c.29.08.54.15.75.23a4.81,4.81,0,0,1,.7.33,2.66,2.66,0,0,1,.6.47,2.29,2.29,0,0,1,.4.67,2.52,2.52,0,0,1,.15.89,2.46,2.46,0,0,1-.27,1.17,2,2,0,0,1-.74.78,3.55,3.55,0,0,1-1,.42A5.44,5.44,0,0,1,342.46,128.56Z"/>
      <path d="M348.53,119.17a1.26,1.26,0,0,1-.92-.38,1.27,1.27,0,0,1,0-1.83,1.28,1.28,0,0,1,.92-.38,1.3,1.3,0,0,1,0,2.59Zm-1.15,9.23v-8h2.27v8Z"/>
      <path d="M355,128.4a2.41,2.41,0,0,1-1.82-.65,2.56,2.56,0,0,1-.64-1.86V122.1h-1.58v-1.73h.51a1.32,1.32,0,0,0,1-.33,1.73,1.73,0,0,0,.32-1.2v-1.06h2v2.59h1.66v1.73h-1.66v3.55c0,.7.31,1,.93,1h.73v1.71Z"/>
      <path d="M359.34,119.17a1.26,1.26,0,0,1-.92-.38,1.29,1.29,0,0,1,0-1.83,1.29,1.29,0,0,1,.92-.38,1.27,1.27,0,0,1,.91.38,1.29,1.29,0,0,1,0,1.83A1.27,1.27,0,0,1,359.34,119.17Zm-1.15,9.23v-8h2.27v8Z"/>
      <path d="M368,120.37h2.39l-3.43,8h-2l-3.38-8H364l2,5.49Z"/>
      <path d="M375,128.56a5.17,5.17,0,0,1-2.28-.49,3.7,3.7,0,0,1-1.56-1.45,4.35,4.35,0,0,1-.56-2.24,3.91,3.91,0,0,1,1.22-3,5.11,5.11,0,0,1,6.36,0,4.44,4.44,0,0,1,0,6.11A4.49,4.49,0,0,1,375,128.56Zm0-1.79a2,2,0,0,0,1.59-.66,2.41,2.41,0,0,0,.61-1.73,2.45,2.45,0,0,0-.61-1.74A2.07,2.07,0,0,0,375,122a2,2,0,0,0-1.54.66,2.79,2.79,0,0,0,0,3.46A2,2,0,0,0,375,126.77Z"/>
    </g>
    <g>
      <path d="M445.58,162.22v-11H447v11Z"/>
      <path d="M453.71,154.39a2.69,2.69,0,0,1,1.93.7,2.6,2.6,0,0,1,.72,2v5.17H455v-4.86a1.84,1.84,0,0,0-.47-1.38,1.65,1.65,0,0,0-1.2-.45,1.88,1.88,0,0,0-1.37.53,2.19,2.19,0,0,0-.54,1.57v4.59h-1.35v-7.68h1.35v1A2.56,2.56,0,0,1,453.71,154.39Z"/>
      <path d="M462.64,154.39a2.55,2.55,0,0,1,1.9.72,2.71,2.71,0,0,1,.71,2v5.08H463.9V157.4a1.89,1.89,0,0,0-.47-1.41,1.67,1.67,0,0,0-1.21-.46,1.83,1.83,0,0,0-1.35.53,2.13,2.13,0,0,0-.55,1.57v4.59H459v-12h1.35v5.34a2.51,2.51,0,0,1,1-.86A3,3,0,0,1,462.64,154.39Z"/>
      <path d="M468.54,152.74a.87.87,0,0,1-.64-.27.89.89,0,0,1-.27-.65.87.87,0,0,1,.27-.64.92.92,0,0,1,1.28,0,.87.87,0,0,1,.27.64.89.89,0,0,1-.27.65A.87.87,0,0,1,468.54,152.74Zm-.69,9.48v-7.68h1.36v7.68Z"/>
      <path d="M476,154.39a3.34,3.34,0,0,1,2.54,1.11,4,4,0,0,1,1,2.89,4.08,4.08,0,0,1-1,2.89,3.35,3.35,0,0,1-2.55,1.11,3,3,0,0,1-1.63-.45,2.79,2.79,0,0,1-1.1-1.21l0,1.49H472v-12h1.35V156a2.84,2.84,0,0,1,1.1-1.18A3.07,3.07,0,0,1,476,154.39Zm-.29,6.82a2.34,2.34,0,0,0,1.79-.78,2.85,2.85,0,0,0,.73-2,2.89,2.89,0,0,0-.73-2,2.34,2.34,0,0,0-1.79-.78,2.28,2.28,0,0,0-1.78.81,2.88,2.88,0,0,0-.73,2,2.94,2.94,0,0,0,.72,2A2.29,2.29,0,0,0,475.74,161.21Z"/>
      <path d="M482.42,152.74a.87.87,0,0,1-.64-.27.89.89,0,0,1-.27-.65.87.87,0,0,1,.27-.64.92.92,0,0,1,1.28,0,.87.87,0,0,1,.27.64.89.89,0,0,1-.27.65A.87.87,0,0,1,482.42,152.74Zm-.68,9.48v-7.68h1.36v7.68Z"/>
      <path d="M489,162.36a3.68,3.68,0,0,1-2.75-1.1,4.38,4.38,0,0,1,0-5.76,3.68,3.68,0,0,1,2.75-1.11,3.73,3.73,0,0,1,2.23.68,3.43,3.43,0,0,1,1.29,1.86l-1.27.21a2.28,2.28,0,0,0-.86-1.2,2.38,2.38,0,0,0-1.39-.42,2.25,2.25,0,0,0-1.78.79,3,3,0,0,0-.7,2.07,3,3,0,0,0,.7,2.07,2.28,2.28,0,0,0,1.78.78,2.38,2.38,0,0,0,1.39-.42,2.28,2.28,0,0,0,.86-1.2l1.27.21a3.42,3.42,0,0,1-1.3,1.87A3.72,3.72,0,0,1,489,162.36Z"/>
      <path d="M495.23,152.74a.92.92,0,0,1-.92-.92.87.87,0,0,1,.27-.64.93.93,0,0,1,1.29,0,.87.87,0,0,1,.27.64.92.92,0,0,1-.91.92Zm-.69,9.48v-7.68h1.36v7.68Z"/>
      <path d="M501.89,162.37a4,4,0,0,1-2-.48,3.38,3.38,0,0,1-1.39-1.39,4.29,4.29,0,0,1-.51-2.12,3.92,3.92,0,0,1,1.09-2.9,4.09,4.09,0,0,1,5.56,0,4,4,0,0,1,1.08,2.9,3.91,3.91,0,0,1-1.09,2.9A3.73,3.73,0,0,1,501.89,162.37Zm0-1.12a2.36,2.36,0,0,0,1.81-.79,2.93,2.93,0,0,0,.73-2.08,2.89,2.89,0,0,0-.73-2.07,2.33,2.33,0,0,0-1.81-.79,2.29,2.29,0,0,0-1.8.79,2.93,2.93,0,0,0-.72,2.07,3,3,0,0,0,.72,2.08A2.33,2.33,0,0,0,501.88,161.25Zm-.51-8,2-2.54.72.52-1.75,2Z"/>
      <path d="M511.49,154.39a2.7,2.7,0,0,1,1.94.7,2.6,2.6,0,0,1,.72,2v5.17H512.8v-4.86a1.84,1.84,0,0,0-.47-1.38,1.65,1.65,0,0,0-1.2-.45,1.86,1.86,0,0,0-1.37.53,2.19,2.19,0,0,0-.54,1.57v4.59h-1.35v-7.68h1.35v1A2.56,2.56,0,0,1,511.49,154.39Z"/>
      <path d="M450.29,181.57a5.88,5.88,0,0,1-2.16-.39,5.4,5.4,0,0,1-1.74-1.11,5,5,0,0,1-1.16-1.79,6.76,6.76,0,0,1,0-4.72,5.07,5.07,0,0,1,1.15-1.79,5.24,5.24,0,0,1,1.74-1.11,6.08,6.08,0,0,1,4.31,0,5,5,0,0,1,1.73,1.11,5,5,0,0,1,1.16,1.78,6.38,6.38,0,0,1,.42,2.35,6.49,6.49,0,0,1-.42,2.37,5.09,5.09,0,0,1-1.16,1.79,5.35,5.35,0,0,1-1.73,1.11A5.86,5.86,0,0,1,450.29,181.57Zm0-1.32a4,4,0,0,0,2.91-1.16,4.29,4.29,0,0,0,1.15-3.18,5,5,0,0,0-.31-1.82,3.7,3.7,0,0,0-.87-1.36,3.81,3.81,0,0,0-1.29-.83,4.36,4.36,0,0,0-1.59-.29,4.42,4.42,0,0,0-1.6.29,3.76,3.76,0,0,0-1.3.83,3.7,3.7,0,0,0-.87,1.36,5,5,0,0,0-.31,1.82,5.17,5.17,0,0,0,.31,1.85,3.75,3.75,0,0,0,.87,1.37,3.91,3.91,0,0,0,1.3.83A4.42,4.42,0,0,0,450.29,180.25Z"/>
      <path d="M462.14,173.59a3.43,3.43,0,0,1,1.39.29,3.36,3.36,0,0,1,1.14.78,3.66,3.66,0,0,1,.77,1.27,4.71,4.71,0,0,1,.29,1.66,4.09,4.09,0,0,1-1,2.9,3.37,3.37,0,0,1-2.55,1.1,3,3,0,0,1-1.6-.44,2.9,2.9,0,0,1-1.1-1.18v5.32h-1.35V173.74h1.3l0,1.5a2.77,2.77,0,0,1,1.1-1.2A3,3,0,0,1,462.14,173.59Zm-.26,6.82a2.31,2.31,0,0,0,1.77-.77,3.24,3.24,0,0,0,0-4.1,2.31,2.31,0,0,0-1.77-.77,2.37,2.37,0,0,0-1.81.8,3.16,3.16,0,0,0,0,4A2.33,2.33,0,0,0,461.88,180.41Z"/>
      <path d="M469.18,175.09a2.31,2.31,0,0,1,1-1,2.84,2.84,0,0,1,1.47-.4v1.27a2.52,2.52,0,0,0-1.78.57,2.38,2.38,0,0,0-.62,1.82v4.1h-1.35v-7.68h1.32Z"/>
      <path d="M479.82,177.43v.37h-6a2.69,2.69,0,0,0,.73,2,2.4,2.4,0,0,0,1.75.69,2.33,2.33,0,0,0,1.27-.37,2.37,2.37,0,0,0,.88-1l1.22.26a3.53,3.53,0,0,1-1.31,1.65,3.59,3.59,0,0,1-2,.6,3.73,3.73,0,0,1-2.77-1.07,4.57,4.57,0,0,1,0-5.84,3.66,3.66,0,0,1,2.72-1.07,3.46,3.46,0,0,1,2.58,1A3.89,3.89,0,0,1,479.82,177.43Zm-3.55-2.8a2.36,2.36,0,0,0-1.6.55,2.49,2.49,0,0,0-.81,1.58h4.6a2.25,2.25,0,0,0-.67-1.58A2.12,2.12,0,0,0,476.27,174.63Z"/>
      <path d="M484.37,181.57a3.63,3.63,0,0,1-2.07-.55,2.31,2.31,0,0,1-1-1.58l1.18-.34a1.62,1.62,0,0,0,.63,1.07,2.07,2.07,0,0,0,1.26.38,2.82,2.82,0,0,0,.74-.1,1.28,1.28,0,0,0,.57-.38,1,1,0,0,0,.22-.7.83.83,0,0,0-.06-.32,2,2,0,0,0-.12-.25.64.64,0,0,0-.22-.21,2.29,2.29,0,0,0-.27-.17,2.27,2.27,0,0,0-.35-.14l-.37-.13-.43-.12-.44-.13a7.85,7.85,0,0,1-.8-.28,3.66,3.66,0,0,1-.65-.37,1.49,1.49,0,0,1-.5-.61,2.06,2.06,0,0,1-.17-.86,2,2,0,0,1,.38-1.22,2.08,2.08,0,0,1,1-.73,3.84,3.84,0,0,1,1.36-.22,3.36,3.36,0,0,1,1.87.5,2.14,2.14,0,0,1,.94,1.5l-1.11.28a1.47,1.47,0,0,0-.59-1,1.84,1.84,0,0,0-1.1-.33,1.88,1.88,0,0,0-1,.27.91.91,0,0,0-.43.83.85.85,0,0,0,.11.42,1.3,1.3,0,0,0,.23.3,1.5,1.5,0,0,0,.42.24l.46.16.56.14.12,0c.3.07.54.14.73.2a5.42,5.42,0,0,1,.67.28,2.43,2.43,0,0,1,.6.42,1.92,1.92,0,0,1,.37.6,2,2,0,0,1,.16.82,2.31,2.31,0,0,1-.23,1,2,2,0,0,1-.63.71,3,3,0,0,1-.9.38A4.08,4.08,0,0,1,484.37,181.57Z"/>
      <path d="M490,171.94a.87.87,0,0,1-.64-.27.89.89,0,0,1-.27-.65.87.87,0,0,1,.27-.64.9.9,0,0,1,.64-.26.92.92,0,0,1,.64.26.87.87,0,0,1,.27.64.92.92,0,0,1-.91.92Zm-.69,9.48v-7.68h1.36v7.68Z"/>
      <path d="M498.22,173.74h1.45l-3.13,7.68h-1.15l-3.11-7.68h1.44l2.25,6.11Z"/>
      <path d="M504.2,181.57a4,4,0,0,1-2-.48,3.44,3.44,0,0,1-1.39-1.39,4.29,4.29,0,0,1-.51-2.12,3.92,3.92,0,0,1,1.09-2.9,4.09,4.09,0,0,1,5.56,0,4.43,4.43,0,0,1,0,5.8A3.77,3.77,0,0,1,504.2,181.57Zm0-1.12a2.4,2.4,0,0,0,1.82-.79,3,3,0,0,0,.72-2.08,2.93,2.93,0,0,0-.72-2.07,2.36,2.36,0,0,0-1.82-.79,2.32,2.32,0,0,0-1.8.79,2.93,2.93,0,0,0-.72,2.07,3,3,0,0,0,.72,2.08A2.36,2.36,0,0,0,504.19,180.45Z"/>
      <path d="M445.23,200.62v-12h1.37v12Z"/>
      <path d="M450,191.14a.87.87,0,0,1-.64-.27.89.89,0,0,1-.27-.65.87.87,0,0,1,.27-.64.92.92,0,0,1,1.28,0,.87.87,0,0,1,.27.64.89.89,0,0,1-.27.65A.87.87,0,0,1,450,191.14Zm-.68,9.48v-7.68h1.36v7.68Z"/>
      <path d="M459,192.94h1.31v7.29a4.17,4.17,0,0,1-1,3,4.13,4.13,0,0,1-6.48-1.3l1.12-.55a2.54,2.54,0,0,0,2.57,1.78,2.19,2.19,0,0,0,1.8-.75,3.23,3.23,0,0,0,.62-2.1v-1.42a2.71,2.71,0,0,1-1.09,1.11,3.38,3.38,0,0,1-4.09-.67,3.82,3.82,0,0,1-1-2.73,3.74,3.74,0,0,1,1-2.72,3.29,3.29,0,0,1,2.49-1.08,3.15,3.15,0,0,1,1.61.43,2.77,2.77,0,0,1,1.09,1.14Zm-2.44,6.31a2.35,2.35,0,0,0,1.77-.78,2.79,2.79,0,0,0,0-3.76,2.29,2.29,0,0,0-1.77-.79,2.33,2.33,0,0,0-1.77.76,2.7,2.7,0,0,0-.72,1.91,2.66,2.66,0,0,0,.73,1.9A2.34,2.34,0,0,0,456.58,199.25Z"/>
      <path d="M469.8,196.63l0,.37h-6a2.69,2.69,0,0,0,.74,2,2.4,2.4,0,0,0,1.75.69,2.33,2.33,0,0,0,1.27-.37,2.44,2.44,0,0,0,.88-1l1.22.26a3.48,3.48,0,0,1-1.32,1.65,3.59,3.59,0,0,1-2,.6,3.71,3.71,0,0,1-2.76-1.07,4,4,0,0,1-1.06-2.92,4,4,0,0,1,1.06-2.92,3.69,3.69,0,0,1,2.72-1.07,3.47,3.47,0,0,1,2.59,1A3.88,3.88,0,0,1,469.8,196.63Zm-3.56-2.8a2.35,2.35,0,0,0-1.59.55,2.49,2.49,0,0,0-.81,1.58h4.6a2.29,2.29,0,0,0-.67-1.58A2.16,2.16,0,0,0,466.24,193.83Z"/>
      <path d="M473.24,194.29a2.34,2.34,0,0,1,.95-1,2.85,2.85,0,0,1,1.48-.4v1.27a2.55,2.55,0,0,0-1.79.57,2.38,2.38,0,0,0-.61,1.82v4.1h-1.35v-7.68h1.32Z"/>
      <path d="M483.88,196.63l0,.37h-6a2.69,2.69,0,0,0,.74,2,2.38,2.38,0,0,0,1.75.69,2.32,2.32,0,0,0,2.14-1.39l1.22.26a3.41,3.41,0,0,1-1.31,1.65,3.59,3.59,0,0,1-2,.6,3.71,3.71,0,0,1-2.76-1.07,4.55,4.55,0,0,1,0-5.84,3.68,3.68,0,0,1,2.72-1.07,3.43,3.43,0,0,1,2.58,1A3.88,3.88,0,0,1,483.88,196.63Zm-3.56-2.8a2.33,2.33,0,0,0-1.59.55,2.49,2.49,0,0,0-.81,1.58h4.6a2.29,2.29,0,0,0-.67-1.58A2.16,2.16,0,0,0,480.32,193.83Z"/>
      <path d="M486.83,199.53h4.09v1.09H484.8l4.05-6.58H485v-1.1h5.89Z"/>
      <path d="M494.3,200.77a2.62,2.62,0,0,1-1.68-.53,1.88,1.88,0,0,1-.66-1.57,2.28,2.28,0,0,1,.21-1,1.78,1.78,0,0,1,.62-.69,3.76,3.76,0,0,1,.9-.44,10.14,10.14,0,0,1,1.17-.28l1.24-.2c.46-.08.68-.32.68-.71a1.33,1.33,0,0,0-.48-1.14,1.9,1.9,0,0,0-1.21-.37,2,2,0,0,0-1.2.35,1.49,1.49,0,0,0-.58,1.08L492.1,195a2.33,2.33,0,0,1,1-1.64,3.54,3.54,0,0,1,2.09-.55,4.21,4.21,0,0,1,1.11.14,2.82,2.82,0,0,1,.93.43,1.89,1.89,0,0,1,.67.82,3.09,3.09,0,0,1,.24,1.27v3.17a1.3,1.3,0,0,0,.17.8.76.76,0,0,0,.61.21H499v1h-.67a1.27,1.27,0,0,1-1.45-1h-.07A2.93,2.93,0,0,1,494.3,200.77Zm.31-1.09a2.05,2.05,0,0,0,1.65-.75,3,3,0,0,0,.63-2l-2,.39a2.73,2.73,0,0,0-1.19.43,1,1,0,0,0-.38.84,1,1,0,0,0,.37.84A1.52,1.52,0,0,0,494.61,199.68Z"/>
      <path d="M445.58,219.82v-11h3.55a5.32,5.32,0,0,1,2.8.71,4.43,4.43,0,0,1,1.72,1.94,6.79,6.79,0,0,1,.56,2.84,7.1,7.1,0,0,1-.33,2.23,4.89,4.89,0,0,1-.95,1.74,4.1,4.1,0,0,1-1.6,1.14,5.64,5.64,0,0,1-2.2.4Zm1.4-1.27h2.1a3.37,3.37,0,0,0,2.75-1.13,4.78,4.78,0,0,0,.92-3.11,4.71,4.71,0,0,0-.93-3.09,3.34,3.34,0,0,0-2.74-1.12H447Z"/>
      <path d="M463.29,215.83v.37h-6a2.69,2.69,0,0,0,.73,2,2.4,2.4,0,0,0,1.75.69,2.33,2.33,0,0,0,1.27-.37,2.37,2.37,0,0,0,.88-1l1.22.26a3.48,3.48,0,0,1-1.32,1.65,3.54,3.54,0,0,1-2,.6A3.73,3.73,0,0,1,457,218.9a4.59,4.59,0,0,1,0-5.84,3.7,3.7,0,0,1,2.73-1.07,3.46,3.46,0,0,1,2.58,1A3.88,3.88,0,0,1,463.29,215.83Zm-3.55-2.8a2.36,2.36,0,0,0-1.6.55,2.49,2.49,0,0,0-.81,1.58h4.6a2.25,2.25,0,0,0-.67-1.58A2.14,2.14,0,0,0,459.74,213Z"/>
      <path d="M469.48,212A3.34,3.34,0,0,1,472,213.1a4.07,4.07,0,0,1,1,2.89,4.12,4.12,0,0,1-1,2.89,3.35,3.35,0,0,1-2.55,1.11,3.06,3.06,0,0,1-1.64-.45,2.86,2.86,0,0,1-1.1-1.21l0,1.49h-1.3v-12h1.34v5.79a2.84,2.84,0,0,1,1.1-1.18A3.07,3.07,0,0,1,469.48,212Zm-.3,6.82A2.36,2.36,0,0,0,471,218a3.23,3.23,0,0,0,0-4.09,2.36,2.36,0,0,0-1.8-.78,2.31,2.31,0,0,0-1.78.81,3.16,3.16,0,0,0,0,4A2.31,2.31,0,0,0,469.18,218.81Z"/>
      <path d="M475.87,210.34a.85.85,0,0,1-.64-.27.89.89,0,0,1-.27-.65.87.87,0,0,1,.27-.64.88.88,0,0,1,.64-.26.92.92,0,0,1,.64.26.87.87,0,0,1,.27.64.92.92,0,0,1-.91.92Zm-.69,9.48v-7.68h1.36v7.68Z"/>
      <path d="M479.29,219.82v-12h1.37v12Z"/>
      <path d="M484.1,210.34a.92.92,0,0,1-.92-.92.87.87,0,0,1,.27-.64.92.92,0,0,1,.65-.26.89.89,0,0,1,.63.26.87.87,0,0,1,.27.64.89.89,0,0,1-.27.65A.86.86,0,0,1,484.1,210.34Zm-.69,9.48v-7.68h1.36v7.68Z"/>
      <path d="M493.19,207.82h1.35v12h-1.3l0-1.49a2.86,2.86,0,0,1-1.1,1.21,3,3,0,0,1-1.62.45A3.53,3.53,0,0,1,488,218.9a3.72,3.72,0,0,1-.77-1.27,4.59,4.59,0,0,1-.29-1.64,4,4,0,0,1,1.05-2.89,3.35,3.35,0,0,1,2.55-1.11,3,3,0,0,1,1.6.44,2.88,2.88,0,0,1,1.1,1.17Zm-2.42,11a2.31,2.31,0,0,0,1.78-.8,3.16,3.16,0,0,0,0-4,2.31,2.31,0,0,0-1.78-.81,2.36,2.36,0,0,0-1.8.78,3.23,3.23,0,0,0,0,4.09A2.36,2.36,0,0,0,490.77,218.81Z"/>
      <path d="M499.06,220a2.62,2.62,0,0,1-1.68-.53,1.88,1.88,0,0,1-.66-1.57,2.2,2.2,0,0,1,.21-1,1.7,1.7,0,0,1,.63-.7,3.42,3.42,0,0,1,.9-.44,9.22,9.22,0,0,1,1.17-.28l1.24-.2c.45-.08.68-.32.68-.71a1.33,1.33,0,0,0-.48-1.14,1.93,1.93,0,0,0-1.22-.37,2,2,0,0,0-1.2.35,1.51,1.51,0,0,0-.57,1.08l-1.22-.26a2.4,2.4,0,0,1,1-1.64,3.6,3.6,0,0,1,2.1-.55,4.32,4.32,0,0,1,1.11.14,2.82,2.82,0,0,1,.93.43,1.94,1.94,0,0,1,.66.82,3.09,3.09,0,0,1,.24,1.27v3.17a1.29,1.29,0,0,0,.18.8.74.74,0,0,0,.6.21h.13v1h-.67c-.83,0-1.32-.34-1.46-1h-.06A2.94,2.94,0,0,1,499.06,220Zm.32-1.09a2.05,2.05,0,0,0,1.65-.75,3.08,3.08,0,0,0,.62-2l-2,.39a2.68,2.68,0,0,0-1.19.43,1,1,0,0,0-.39.84,1,1,0,0,0,.37.84A1.55,1.55,0,0,0,499.38,218.88Z"/>
      <path d="M511.19,207.82h1.35v12h-1.3l0-1.49a2.86,2.86,0,0,1-1.1,1.21,3,3,0,0,1-1.62.45A3.53,3.53,0,0,1,506,218.9a3.72,3.72,0,0,1-.77-1.27,4.59,4.59,0,0,1-.29-1.64,4,4,0,0,1,1.05-2.89,3.35,3.35,0,0,1,2.55-1.11,3,3,0,0,1,1.6.44,2.88,2.88,0,0,1,1.1,1.17Zm-2.42,11a2.31,2.31,0,0,0,1.78-.8,3.16,3.16,0,0,0,0-4,2.31,2.31,0,0,0-1.78-.81,2.36,2.36,0,0,0-1.8.78,3.23,3.23,0,0,0,0,4.09A2.36,2.36,0,0,0,508.77,218.81Z"/>
      <path d="M451.48,229.3H447v3.6H451v1.26H447v3.59h4.47V239h-5.9V228h5.9Z"/>
      <path d="M457.33,228.16h-.57a1.21,1.21,0,0,0-.28,0l-.25.08a.56.56,0,0,0-.23.13l-.18.2a.69.69,0,0,0-.15.28c0,.11-.06.23-.09.38a3.43,3.43,0,0,0,0,.48v1.58h1.78v1.08h-1.78V239h-1.34v-6.6h-1.49v-1.08h1.49v-1.61a4,4,0,0,1,.08-.89,2.86,2.86,0,0,1,.22-.68,1.72,1.72,0,0,1,.36-.49,2.86,2.86,0,0,1,.47-.33,2.32,2.32,0,0,1,.58-.19,5.57,5.57,0,0,1,.66-.1q.33,0,.75,0Z"/>
      <path d="M458.89,239v-7.68h1.36V239Zm.17-9,2-2.54.71.52L460,230Z"/>
      <path d="M470.85,231.19a2.46,2.46,0,0,1,1.79.66,2.38,2.38,0,0,1,.68,1.83V239H472v-5a1.75,1.75,0,0,0-.42-1.27,1.46,1.46,0,0,0-1.07-.43,1.51,1.51,0,0,0-1.17.49,2.06,2.06,0,0,0-.45,1.45V239h-1.37v-4.94a1.82,1.82,0,0,0-.43-1.3,1.43,1.43,0,0,0-1.09-.45,1.51,1.51,0,0,0-1.17.5,2.16,2.16,0,0,0-.45,1.49V239H463v-7.68h1.35v1a2.44,2.44,0,0,1,.88-.84,2.49,2.49,0,0,1,1.23-.3,2.58,2.58,0,0,1,1.31.33,2,2,0,0,1,.85.93,2.42,2.42,0,0,1,.92-.93A2.6,2.6,0,0,1,470.85,231.19Z"/>
      <path d="M482.66,235l0,.37h-6a2.69,2.69,0,0,0,.74,2,2.4,2.4,0,0,0,1.75.69,2.33,2.33,0,0,0,1.27-.37,2.44,2.44,0,0,0,.88-1l1.21.26a3.41,3.41,0,0,1-1.31,1.65,3.59,3.59,0,0,1-2,.6,3.71,3.71,0,0,1-2.76-1.07,4,4,0,0,1-1.06-2.92,4,4,0,0,1,1.06-2.92,3.68,3.68,0,0,1,2.72-1.07,3.47,3.47,0,0,1,2.59,1A3.9,3.9,0,0,1,482.66,235Zm-3.56-2.8a2.35,2.35,0,0,0-1.59.55,2.49,2.49,0,0,0-.81,1.58h4.6a2.29,2.29,0,0,0-.67-1.58A2.16,2.16,0,0,0,479.1,232.23Z"/>
      <path d="M486.1,232.69a2.34,2.34,0,0,1,.95-1,2.85,2.85,0,0,1,1.48-.4v1.27a2.53,2.53,0,0,0-1.79.57,2.38,2.38,0,0,0-.61,1.82V239h-1.35v-7.68h1.32Z"/>
      <path d="M493.25,239.17a4,4,0,0,1-2-.48,3.42,3.42,0,0,1-1.38-1.39,4.29,4.29,0,0,1-.51-2.12,3.92,3.92,0,0,1,1.09-2.9,4.08,4.08,0,0,1,5.55,0,4.4,4.4,0,0,1,0,5.8A3.75,3.75,0,0,1,493.25,239.17Zm0-1.12a2.38,2.38,0,0,0,1.82-.79,3,3,0,0,0,.72-2.08,2.93,2.93,0,0,0-.72-2.07,2.35,2.35,0,0,0-1.82-.79,2.32,2.32,0,0,0-1.8.79,3,3,0,0,0-.71,2.07,3,3,0,0,0,.71,2.08A2.36,2.36,0,0,0,493.24,238.05Z"/>
    </g>
    <g>
      <path d="M453,117.11h2.33V128.4h-2.71l-5-8.07v8.07h-2.34V117.11H448l5,8Z"/>
      <path d="M465.49,124.27l0,.54h-6a2.06,2.06,0,0,0,.64,1.47,2,2,0,0,0,1.41.51,2,2,0,0,0,1.06-.28,1.75,1.75,0,0,0,.68-.81l2.06.3a3.51,3.51,0,0,1-1.41,1.89,4.15,4.15,0,0,1-2.37.67,4.34,4.34,0,0,1-3.13-1.11,4,4,0,0,1-1.16-3.06,4.09,4.09,0,0,1,1.16-3.07,4.23,4.23,0,0,1,3.06-1.12,3.67,3.67,0,0,1,4,4.07Zm-4-2.48a1.78,1.78,0,0,0-1.95,1.55h3.69a1.69,1.69,0,0,0-.56-1.15A1.77,1.77,0,0,0,461.53,121.79Z"/>
      <path d="M472.74,120.37h2.14v7.43a6,6,0,0,1-.3,2,3.23,3.23,0,0,1-.87,1.37,3.65,3.65,0,0,1-1.34.77,5.52,5.52,0,0,1-1.75.25q-3.18,0-4.14-2.49l1.87-.8a2.71,2.71,0,0,0,.86,1.17,2.21,2.21,0,0,0,1.32.37c1.39,0,2.09-.82,2.09-2.47V127a2.53,2.53,0,0,1-1,.79,3.39,3.39,0,0,1-1.43.3,3.58,3.58,0,0,1-1.41-.28,3.75,3.75,0,0,1-1.17-.8,3.81,3.81,0,0,1-.79-1.26,4.73,4.73,0,0,1,0-3.26,3.59,3.59,0,0,1,.8-1.24,3.34,3.34,0,0,1,1.17-.78,3.6,3.6,0,0,1,1.42-.28,3.3,3.3,0,0,1,1.49.33,2.31,2.31,0,0,1,1,.88Zm-3.45,5.31a1.94,1.94,0,0,0,1.47.62,2,2,0,0,0,1.48-.62,2.25,2.25,0,0,0,0-3.06,2.09,2.09,0,0,0-3,0,2.14,2.14,0,0,0-.59,1.54A2.1,2.1,0,0,0,469.29,125.68Z"/>
      <path d="M483.8,126.22a7.51,7.51,0,0,0,.19,2v.22h-2.1l-.18-.87a2.59,2.59,0,0,1-1.12.77,4.22,4.22,0,0,1-1.45.26,3.54,3.54,0,0,1-.75-.07,2.75,2.75,0,0,1-.68-.24,2,2,0,0,1-.56-.42,1.7,1.7,0,0,1-.37-.63,2.8,2.8,0,0,1,0-1.75,2.2,2.2,0,0,1,.39-.65,2.74,2.74,0,0,1,.64-.48,5,5,0,0,1,.79-.34,9.36,9.36,0,0,1,1-.25l1.32-.3a1.42,1.42,0,0,0,.6-.25.53.53,0,0,0,.17-.4.85.85,0,0,0-.39-.78,2,2,0,0,0-1-.23,1.38,1.38,0,0,0-1.57,1.23l-2-.36a2.7,2.7,0,0,1,1.16-1.84,4.65,4.65,0,0,1,2.52-.58q3.38,0,3.38,2.89Zm-4,.82a1.81,1.81,0,0,0,1.39-.59,2.43,2.43,0,0,0,.54-1.72l-1.91.54a2.14,2.14,0,0,0-.8.33.68.68,0,0,0-.28.58.74.74,0,0,0,.3.63A1.23,1.23,0,0,0,479.84,127Z"/>
      <path d="M488.87,128.4a2.39,2.39,0,0,1-1.81-.65,2.52,2.52,0,0,1-.64-1.86V122.1h-1.58v-1.73h.51a1.35,1.35,0,0,0,1-.33,1.78,1.78,0,0,0,.32-1.2v-1.06h2v2.59h1.65v1.73H488.7v3.55c0,.7.31,1,.93,1h.72v1.71Z"/>
      <path d="M493.24,119.17a1.29,1.29,0,0,1-.92-.38,1.26,1.26,0,0,1-.38-.92,1.23,1.23,0,0,1,.39-.91,1.28,1.28,0,0,1,1.82,0,1.29,1.29,0,0,1,0,1.83A1.25,1.25,0,0,1,493.24,119.17Zm-1.14,9.23v-8h2.26v8Z"/>
      <path d="M501.92,120.37h2.38l-3.42,8h-2l-3.38-8h2.37l2,5.49Z"/>
      <path d="M508.9,128.56a5.15,5.15,0,0,1-2.27-.49,3.7,3.7,0,0,1-1.56-1.45,4.26,4.26,0,0,1-.57-2.24,4,4,0,0,1,1.22-3,5.12,5.12,0,0,1,6.37,0,4.44,4.44,0,0,1,0,6.11A4.52,4.52,0,0,1,508.9,128.56Zm0-1.79a2.07,2.07,0,0,0,1.59-.66,2.44,2.44,0,0,0,.6-1.73,2.49,2.49,0,0,0-.6-1.74,2.1,2.1,0,0,0-1.59-.65,2,2,0,0,0-1.55.66,2.83,2.83,0,0,0,0,3.46A2,2,0,0,0,508.88,126.77Z"/>
    </g>
  </g>
</svg>
