<svg id="Layer_1" data-name="Layer 1" xmlns="http://www.w3.org/2000/svg" width="563.56" height="300.44" viewBox="0 0 563.56 300.44">
  <defs>
    <style>
      .cls-1 {
        fill: #754c24;
      }

      .cls-2 {
        fill: #f2f2f2;
      }

      .cls-3 {
        opacity: 0.75;
      }

      .cls-4 {
        opacity: 0.5;
      }

      .cls-5 {
        opacity: 0.25;
      }
    </style>
  </defs>
  <rect class="cls-1" y="228.44" width="70.44" height="72"/>
  <g>
    <rect class="cls-1" width="281.78" height="228.44"/>
    <rect class="cls-2" x="281.78" width="281.78" height="300.44"/>
    <g class="cls-3">
      <rect class="cls-1" x="70.44" y="228.44" width="70.44" height="72"/>
    </g>
    <g class="cls-4">
      <rect class="cls-1" x="140.89" y="228.44" width="70.44" height="72"/>
    </g>
    <g class="cls-5">
      <rect class="cls-1" x="211.33" y="228.44" width="70.44" height="72"/>
    </g>
    <g>
      <path d="M348.42,82.4h-5.55l-1.76-20.2-6.79,20.2h-3.6l-6.79-20.2-1.78,20.2h-5.57l2.25-26.81h7.94l5.71,16.83,5.79-16.83h7.94Z"/>
      <path d="M369.07,77.23a17.72,17.72,0,0,0,.47,4.65v.52h-5l-.42-2.08a6.19,6.19,0,0,1-2.67,1.84,9.87,9.87,0,0,1-3.45.61,9.24,9.24,0,0,1-1.79-.16,6.24,6.24,0,0,1-1.6-.57,4.76,4.76,0,0,1-1.33-1,4.38,4.38,0,0,1-.89-1.51,6.16,6.16,0,0,1-.33-2.07,5.62,5.62,0,0,1,.35-2.07,4.67,4.67,0,0,1,.93-1.55,5.46,5.46,0,0,1,1.5-1.13,11.14,11.14,0,0,1,1.89-.82,21.65,21.65,0,0,1,2.27-.59l3.13-.71a3.47,3.47,0,0,0,1.42-.6,1.2,1.2,0,0,0,.42-1,2,2,0,0,0-.94-1.83,4.27,4.27,0,0,0-2.27-.56q-3.28,0-3.73,2.91l-4.73-.85a6.39,6.39,0,0,1,2.76-4.35,11,11,0,0,1,6-1.4q8,0,8,6.88Zm-9.4,1.92a4.32,4.32,0,0,0,3.3-1.38,5.83,5.83,0,0,0,1.28-4.09L359.72,75a5.4,5.4,0,0,0-1.9.78,1.6,1.6,0,0,0-.66,1.37,1.79,1.79,0,0,0,.7,1.52A3,3,0,0,0,359.67,79.15Z"/>
      <path d="M379.39,66.35a6.23,6.23,0,0,1,2.5-2.29,7.64,7.64,0,0,1,3.73-1v4.76A7.26,7.26,0,0,0,381.06,69c-.94.77-1.41,2.13-1.41,4.09V82.4h-5.38V63.33h5.12Z"/>
      <path d="M393.88,66.35a6.23,6.23,0,0,1,2.5-2.29,7.64,7.64,0,0,1,3.73-1v4.76A7.26,7.26,0,0,0,395.55,69c-.94.77-1.41,2.13-1.41,4.09V82.4h-5.38V63.33h5.12Z"/>
      <path d="M412,82.77a12,12,0,0,1-5.4-1.17,8.77,8.77,0,0,1-3.71-3.43,10.28,10.28,0,0,1-1.34-5.32,9.33,9.33,0,0,1,2.89-7.24,12.12,12.12,0,0,1,15.13,0,9.33,9.33,0,0,1,2.89,7.24,9.37,9.37,0,0,1-2.89,7.26A10.73,10.73,0,0,1,412,82.77ZM412,78.52A4.93,4.93,0,0,0,415.75,77a6.65,6.65,0,0,0,0-8.24A4.9,4.9,0,0,0,412,67.17a4.68,4.68,0,0,0-3.66,1.57,6.66,6.66,0,0,0,0,8.22A4.7,4.7,0,0,0,412,78.52Zm-1.6-17.79,4.87-6.83,2.63,1.86-4.21,5Z"/>
      <path d="M437.72,63A7.44,7.44,0,0,1,443,64.67a6.36,6.36,0,0,1,1.84,4.89V82.4h-5.36V70.71a3.29,3.29,0,0,0-1-2.63,3.56,3.56,0,0,0-2.46-.84,5,5,0,0,0-1.59.24,4.37,4.37,0,0,0-1.34.76,3.33,3.33,0,0,0-.95,1.43,6.6,6.6,0,0,0-.36,2.21V82.4h-5.35V63.33h5.35v2.11A7.36,7.36,0,0,1,437.72,63Z"/>
    </g>
    <g>
      <path d="M326.29,152.5h-4.46v3.6h3.93v1.26h-3.93V161h4.46v1.27H320.4v-11h5.89Z"/>
      <path d="M331.05,162.37a3.63,3.63,0,0,1-2.07-.55,2.31,2.31,0,0,1-1-1.58l1.18-.34a1.7,1.7,0,0,0,.63,1.07,2.07,2.07,0,0,0,1.26.38,2.82,2.82,0,0,0,.74-.1,1.28,1.28,0,0,0,.57-.38,1.09,1.09,0,0,0,.23-.7,1.07,1.07,0,0,0-.07-.32,1.17,1.17,0,0,0-.12-.25.64.64,0,0,0-.22-.21,2.29,2.29,0,0,0-.27-.17,2.08,2.08,0,0,0-.34-.14l-.38-.13-.43-.12-.44-.13c-.32-.1-.59-.19-.8-.28a3.66,3.66,0,0,1-.65-.37,1.49,1.49,0,0,1-.5-.61,2.06,2.06,0,0,1-.17-.86,2,2,0,0,1,.38-1.22,2.08,2.08,0,0,1,1-.73,3.84,3.84,0,0,1,1.36-.22,3.34,3.34,0,0,1,1.87.5,2.14,2.14,0,0,1,.94,1.5l-1.11.28a1.47,1.47,0,0,0-.59-1,1.82,1.82,0,0,0-1.1-.33,1.91,1.91,0,0,0-1,.27.91.91,0,0,0-.43.83.85.85,0,0,0,.11.42,1.65,1.65,0,0,0,.23.3,1.26,1.26,0,0,0,.43.23,3.6,3.6,0,0,0,.45.17l.56.14.12,0,.74.21a5.36,5.36,0,0,1,.66.28,2.43,2.43,0,0,1,.6.42,2,2,0,0,1,.37.59,2,2,0,0,1,.16.83,2.31,2.31,0,0,1-.23,1,1.8,1.8,0,0,1-.63.71,3,3,0,0,1-.89.38A4.1,4.1,0,0,1,331.05,162.37Z"/>
      <path d="M338.46,162.22a2,2,0,0,1-1.5-.55,2.07,2.07,0,0,1-.55-1.53v-4.52h-1.57v-1.08h.58a1.13,1.13,0,0,0,.85-.27,1.35,1.35,0,0,0,.24-.9V152h1.26v2.56h1.77v1.08h-1.77V160a1.17,1.17,0,0,0,.29.84,1,1,0,0,0,.77.3h.71v1.08Z"/>
      <path d="M343.17,162.37a2.6,2.6,0,0,1-1.68-.53,1.88,1.88,0,0,1-.66-1.57,2.2,2.2,0,0,1,.21-1,1.67,1.67,0,0,1,.62-.7,3.76,3.76,0,0,1,.9-.44,8.52,8.52,0,0,1,1.17-.27l1.24-.21c.46-.08.68-.32.68-.71a1.33,1.33,0,0,0-.48-1.14,1.9,1.9,0,0,0-1.21-.37,2.06,2.06,0,0,0-1.21.35,1.51,1.51,0,0,0-.57,1.08l-1.21-.25a2.33,2.33,0,0,1,1-1.65,3.54,3.54,0,0,1,2.09-.55,4.21,4.21,0,0,1,1.11.14,2.82,2.82,0,0,1,.93.43,1.89,1.89,0,0,1,.67.82,3.09,3.09,0,0,1,.24,1.27v3.17a1.3,1.3,0,0,0,.17.8.76.76,0,0,0,.61.21h.12v1h-.67a1.27,1.27,0,0,1-1.45-1h-.07A2.91,2.91,0,0,1,343.17,162.37Zm.31-1.09a2.05,2.05,0,0,0,1.65-.75,3,3,0,0,0,.62-2l-2,.39a2.73,2.73,0,0,0-1.19.43,1,1,0,0,0-.38.84,1,1,0,0,0,.37.84A1.52,1.52,0,0,0,343.48,161.28Z"/>
      <path d="M353.85,154.39a3.36,3.36,0,0,1,2.54,1.11,4.07,4.07,0,0,1,1,2.89,4.12,4.12,0,0,1-1,2.89,3.35,3.35,0,0,1-2.55,1.11,3.06,3.06,0,0,1-1.64-.45,2.86,2.86,0,0,1-1.1-1.21l0,1.49h-1.3v-12h1.34V156a2.84,2.84,0,0,1,1.1-1.18A3.07,3.07,0,0,1,353.85,154.39Zm-.3,6.82a2.38,2.38,0,0,0,1.8-.78,2.89,2.89,0,0,0,.73-2,2.94,2.94,0,0,0-.73-2,2.38,2.38,0,0,0-1.8-.78,2.3,2.3,0,0,0-1.78.81,3.16,3.16,0,0,0,0,4A2.31,2.31,0,0,0,353.55,161.21Z"/>
      <path d="M359.55,162.22v-12h1.37v12Z"/>
      <path d="M370.39,158.23l0,.37h-6a2.69,2.69,0,0,0,.74,2,2.4,2.4,0,0,0,1.75.69,2.32,2.32,0,0,0,2.14-1.39l1.22.26a3.41,3.41,0,0,1-1.31,1.65,3.59,3.59,0,0,1-2,.6,3.71,3.71,0,0,1-2.76-1.07,4.55,4.55,0,0,1,0-5.84,3.68,3.68,0,0,1,2.72-1.07,3.47,3.47,0,0,1,2.59,1A3.92,3.92,0,0,1,370.39,158.23Zm-3.56-2.8a2.35,2.35,0,0,0-1.59.55,2.49,2.49,0,0,0-.81,1.58H369a2.29,2.29,0,0,0-.67-1.58A2.16,2.16,0,0,0,366.83,155.43Z"/>
      <path d="M327.37,170.42h1.4v11h-1.4v-4.88H321.8v4.88h-1.4v-11h1.4v4.86h5.57Z"/>
      <path d="M335,181.57a4,4,0,0,1-2-.48,3.38,3.38,0,0,1-1.39-1.39,4.29,4.29,0,0,1-.51-2.12,3.92,3.92,0,0,1,1.09-2.9,4.09,4.09,0,0,1,5.56,0,4,4,0,0,1,1.08,2.9,3.91,3.91,0,0,1-1.09,2.9A3.73,3.73,0,0,1,335,181.57Zm0-1.12a2.4,2.4,0,0,0,1.82-.79,3.35,3.35,0,0,0,0-4.15,2.36,2.36,0,0,0-1.82-.79,2.31,2.31,0,0,0-1.8.79,3.35,3.35,0,0,0,0,4.15A2.34,2.34,0,0,0,335,180.45Z"/>
      <path d="M344.61,173.59a2.69,2.69,0,0,1,1.93.7,2.6,2.6,0,0,1,.72,2v5.17h-1.35v-4.86a1.84,1.84,0,0,0-.47-1.38,1.65,1.65,0,0,0-1.2-.44,1.87,1.87,0,0,0-1.37.52,2.19,2.19,0,0,0-.54,1.57v4.59H341v-7.68h1.35v1A2.56,2.56,0,0,1,344.61,173.59Z"/>
      <path d="M356.59,177.43v.37h-6a2.69,2.69,0,0,0,.73,2,2.4,2.4,0,0,0,1.75.69,2.33,2.33,0,0,0,1.27-.37,2.44,2.44,0,0,0,.88-1l1.22.26a3.48,3.48,0,0,1-1.32,1.65,3.56,3.56,0,0,1-2,.6,3.71,3.71,0,0,1-2.77-1.07,4.55,4.55,0,0,1,0-5.84,3.7,3.7,0,0,1,2.73-1.07,3.46,3.46,0,0,1,2.58,1A3.89,3.89,0,0,1,356.59,177.43Zm-3.55-2.8a2.41,2.41,0,0,0-1.6.55,2.49,2.49,0,0,0-.81,1.58h4.6a2.25,2.25,0,0,0-.67-1.58A2.18,2.18,0,0,0,353,174.63Z"/>
      <path d="M361.14,181.57a3.63,3.63,0,0,1-2.07-.55,2.28,2.28,0,0,1-1-1.58l1.18-.34a1.62,1.62,0,0,0,.63,1.07,2,2,0,0,0,1.26.38,2.82,2.82,0,0,0,.74-.1,1.2,1.2,0,0,0,.56-.38,1,1,0,0,0,.23-.7,1.07,1.07,0,0,0-.06-.32,1.46,1.46,0,0,0-.13-.25.64.64,0,0,0-.22-.21,1.64,1.64,0,0,0-.26-.17,2.27,2.27,0,0,0-.35-.14l-.37-.13-.43-.12-.44-.13a7.85,7.85,0,0,1-.8-.28,3.34,3.34,0,0,1-.65-.37,1.49,1.49,0,0,1-.5-.61,1.91,1.91,0,0,1-.17-.86,2,2,0,0,1,.37-1.22,2.1,2.1,0,0,1,1-.73,3.8,3.8,0,0,1,1.36-.22,3.36,3.36,0,0,1,1.87.5,2.1,2.1,0,0,1,.93,1.5l-1.11.28a1.45,1.45,0,0,0-.58-1,1.86,1.86,0,0,0-1.1-.33,1.88,1.88,0,0,0-1,.27.91.91,0,0,0-.43.83.76.76,0,0,0,.11.42,1.07,1.07,0,0,0,.23.3,1.29,1.29,0,0,0,.42.24l.45.16.57.14.11,0c.31.07.55.14.74.2a6.15,6.15,0,0,1,.67.28,2.18,2.18,0,0,1,.59.42,1.77,1.77,0,0,1,.38.6,2.14,2.14,0,0,1,.16.82,2.31,2.31,0,0,1-.23,1,2,2,0,0,1-.63.71,3,3,0,0,1-.9.38A4.08,4.08,0,0,1,361.14,181.57Z"/>
      <path d="M368.54,181.42a2,2,0,0,1-1.5-.55,2.1,2.1,0,0,1-.54-1.53v-4.52h-1.57v-1.08h.57a1.1,1.1,0,0,0,.85-.27,1.29,1.29,0,0,0,.25-.9v-1.39h1.26v2.56h1.76v1.08h-1.76v4.38a1.13,1.13,0,0,0,.29.84,1,1,0,0,0,.77.3h.7v1.08Z"/>
      <path d="M374.72,181.57a4,4,0,0,1-2-.48,3.38,3.38,0,0,1-1.39-1.39,4.29,4.29,0,0,1-.51-2.12,3.92,3.92,0,0,1,1.09-2.9,4.09,4.09,0,0,1,5.56,0,4,4,0,0,1,1.08,2.9,3.91,3.91,0,0,1-1.09,2.9A3.73,3.73,0,0,1,374.72,181.57Zm0-1.12a2.36,2.36,0,0,0,1.81-.79,3.31,3.31,0,0,0,0-4.15,2.33,2.33,0,0,0-1.81-.79,2.29,2.29,0,0,0-1.8.79,3.35,3.35,0,0,0,0,4.15A2.33,2.33,0,0,0,374.71,180.45Z"/>
      <path d="M325.11,200.77a5.93,5.93,0,0,1-2.17-.39,5.62,5.62,0,0,1-1.74-1.11,5,5,0,0,1-1.15-1.79,6.41,6.41,0,0,1-.42-2.37,6.34,6.34,0,0,1,.42-2.35,5.09,5.09,0,0,1,1.16-1.79,5.29,5.29,0,0,1,1.73-1.11,5.93,5.93,0,0,1,2.17-.39,5.55,5.55,0,0,1,2.92.78A4.82,4.82,0,0,1,330,192.4l-1.29.53a3.71,3.71,0,0,0-1.44-1.57,4.12,4.12,0,0,0-2.13-.55,4.47,4.47,0,0,0-1.61.29,3.81,3.81,0,0,0-1.29.83,3.7,3.7,0,0,0-.87,1.36,5,5,0,0,0-.32,1.82,5.11,5.11,0,0,0,.32,1.84,3.7,3.7,0,0,0,.87,1.36,3.81,3.81,0,0,0,1.29.83,4.27,4.27,0,0,0,1.61.29,4.12,4.12,0,0,0,2.13-.55,3.63,3.63,0,0,0,1.44-1.56l1.29.53A4.8,4.8,0,0,1,328,200,5.65,5.65,0,0,1,325.11,200.77Z"/>
      <path d="M333.79,200.77a2.63,2.63,0,0,1-1.69-.53,1.88,1.88,0,0,1-.66-1.57,2.28,2.28,0,0,1,.21-1,1.74,1.74,0,0,1,.63-.69,3.42,3.42,0,0,1,.9-.44,10.14,10.14,0,0,1,1.17-.28l1.24-.2c.45-.08.68-.32.68-.71a1.33,1.33,0,0,0-.48-1.14,1.92,1.92,0,0,0-1.21-.37,2,2,0,0,0-1.21.35,1.51,1.51,0,0,0-.57,1.08l-1.22-.26a2.4,2.4,0,0,1,1-1.64,3.6,3.6,0,0,1,2.1-.55,4.27,4.27,0,0,1,1.11.14,2.82,2.82,0,0,1,.93.43,1.87,1.87,0,0,1,.66.82,3.09,3.09,0,0,1,.24,1.27v3.17a1.29,1.29,0,0,0,.18.8.75.75,0,0,0,.6.21h.13v1h-.67c-.83,0-1.32-.34-1.46-1h-.06A2.91,2.91,0,0,1,333.79,200.77Zm.31-1.09a2.05,2.05,0,0,0,1.65-.75,3.08,3.08,0,0,0,.62-2l-2,.39a2.68,2.68,0,0,0-1.19.43,1.12,1.12,0,0,0,0,1.68A1.55,1.55,0,0,0,334.1,199.68Z"/>
      <path d="M340.4,200.62v-12h1.36v12Z"/>
      <path d="M345.2,191.14a.87.87,0,0,1-.64-.27.89.89,0,0,1-.27-.65.87.87,0,0,1,.27-.64.9.9,0,0,1,.64-.26.92.92,0,0,1,.64.26.87.87,0,0,1,.27.64.92.92,0,0,1-.91.92Zm-.69,9.48v-7.68h1.36v7.68Z"/>
      <path d="M354.29,188.62h1.36v12h-1.31l0-1.49a2.9,2.9,0,0,1-1.09,1.21,3.05,3.05,0,0,1-1.63.45,3.46,3.46,0,0,1-1.39-.29,3.27,3.27,0,0,1-1.14-.8,3.59,3.59,0,0,1-.78-1.27,4.59,4.59,0,0,1-.28-1.64,4,4,0,0,1,1-2.89,3.38,3.38,0,0,1,2.55-1.11,3.09,3.09,0,0,1,1.61.44,2.86,2.86,0,0,1,1.09,1.17Zm-2.42,11a2.34,2.34,0,0,0,1.79-.8,2.94,2.94,0,0,0,.72-2,2.9,2.9,0,0,0-.73-2,2.28,2.28,0,0,0-1.78-.81,2.34,2.34,0,0,0-1.79.78,2.89,2.89,0,0,0-.73,2,2.85,2.85,0,0,0,.73,2A2.34,2.34,0,0,0,351.87,199.61Z"/>
      <path d="M361.63,200.77a4,4,0,0,1-2-.48,3.51,3.51,0,0,1-1.39-1.39,4.29,4.29,0,0,1-.51-2.12,4,4,0,0,1,1.09-2.9,4.09,4.09,0,0,1,5.56,0,4.4,4.4,0,0,1,0,5.8A3.77,3.77,0,0,1,361.63,200.77Zm0-1.12a2.38,2.38,0,0,0,1.82-.79,3.35,3.35,0,0,0,0-4.15,2.35,2.35,0,0,0-1.82-.79,2.32,2.32,0,0,0-1.8.79,3.39,3.39,0,0,0,0,4.15A2.36,2.36,0,0,0,361.62,199.65Z"/>
      <path d="M325.11,220a5.93,5.93,0,0,1-2.17-.39,5.62,5.62,0,0,1-1.74-1.11,5,5,0,0,1-1.15-1.79,6.84,6.84,0,0,1,0-4.72,5.09,5.09,0,0,1,1.16-1.79,5,5,0,0,1,1.73-1.1,5.74,5.74,0,0,1,2.17-.4,5.55,5.55,0,0,1,2.92.78A4.82,4.82,0,0,1,330,211.6l-1.29.53a3.71,3.71,0,0,0-1.44-1.57,4.12,4.12,0,0,0-2.13-.55,4.47,4.47,0,0,0-1.61.29,3.81,3.81,0,0,0-1.29.83,3.7,3.7,0,0,0-.87,1.36,5,5,0,0,0-.32,1.83,5.09,5.09,0,0,0,.32,1.83,3.7,3.7,0,0,0,.87,1.36,3.81,3.81,0,0,0,1.29.83,4.27,4.27,0,0,0,1.61.3,4.13,4.13,0,0,0,2.13-.56,3.66,3.66,0,0,0,1.44-1.55l1.29.52A4.8,4.8,0,0,1,328,219.2,5.65,5.65,0,0,1,325.11,220Z"/>
      <path d="M335.25,220a4,4,0,0,1-2-.48,3.38,3.38,0,0,1-1.39-1.39,4.29,4.29,0,0,1-.51-2.12,3.92,3.92,0,0,1,1.09-2.9,4.09,4.09,0,0,1,5.56,0,4,4,0,0,1,1.08,2.9,3.91,3.91,0,0,1-1.09,2.9A3.73,3.73,0,0,1,335.25,220Zm0-1.12a2.4,2.4,0,0,0,1.82-.79,3,3,0,0,0,.72-2.08,2.93,2.93,0,0,0-.72-2.07,2.36,2.36,0,0,0-1.82-.79,2.31,2.31,0,0,0-1.8.79,2.93,2.93,0,0,0-.72,2.07,3,3,0,0,0,.72,2.08A2.34,2.34,0,0,0,335.24,218.85Z"/>
      <path d="M344.86,212a2.69,2.69,0,0,1,1.93.7,2.6,2.6,0,0,1,.72,2v5.17h-1.35V215a1.84,1.84,0,0,0-.47-1.38,1.65,1.65,0,0,0-1.2-.44,1.87,1.87,0,0,0-1.37.52,2.19,2.19,0,0,0-.54,1.57v4.59h-1.35v-7.68h1.35v1A2.56,2.56,0,0,1,344.86,212Z"/>
      <path d="M353.65,209h-.58a1.31,1.31,0,0,0-.28,0l-.24.08a.56.56,0,0,0-.23.13,1.9,1.9,0,0,0-.18.2.69.69,0,0,0-.15.28,1.77,1.77,0,0,0-.09.38,3.32,3.32,0,0,0,0,.48v1.58h1.79v1.08h-1.79v6.6h-1.34v-6.6H349v-1.08h1.48v-1.61a4.74,4.74,0,0,1,.08-.89,3.4,3.4,0,0,1,.22-.68,1.55,1.55,0,0,1,.36-.48,2.48,2.48,0,0,1,.48-.34,2.08,2.08,0,0,1,.58-.19,5,5,0,0,1,.66-.1c.22,0,.46,0,.75,0Z"/>
      <path d="M358.35,220a4,4,0,0,1-2-.48A3.44,3.44,0,0,1,355,218.1a4.29,4.29,0,0,1-.51-2.12,3.92,3.92,0,0,1,1.09-2.9,4.09,4.09,0,0,1,5.56,0,4.4,4.4,0,0,1,0,5.8A3.77,3.77,0,0,1,358.35,220Zm0-1.12a2.4,2.4,0,0,0,1.82-.79,3,3,0,0,0,.72-2.08,2.93,2.93,0,0,0-.72-2.07,2.36,2.36,0,0,0-1.82-.79,2.32,2.32,0,0,0-1.8.79,2.93,2.93,0,0,0-.71,2.07,3,3,0,0,0,.71,2.08A2.36,2.36,0,0,0,358.34,218.85Z"/>
      <path d="M365.65,213.49a2.37,2.37,0,0,1,1-1,2.84,2.84,0,0,1,1.47-.4v1.27a2.52,2.52,0,0,0-1.78.57,2.38,2.38,0,0,0-.62,1.82v4.1h-1.35v-7.68h1.32Z"/>
      <path d="M372.57,219.82a2,2,0,0,1-1.5-.55,2.07,2.07,0,0,1-.55-1.53v-4.52H369v-1.08h.58a1.13,1.13,0,0,0,.85-.27,1.35,1.35,0,0,0,.24-.9v-1.39h1.26v2.56h1.77v1.08h-1.77v4.38a1.17,1.17,0,0,0,.29.84,1,1,0,0,0,.77.3h.71v1.08Z"/>
      <path d="M377.28,220a2.59,2.59,0,0,1-1.69-.53,1.88,1.88,0,0,1-.66-1.57,2.08,2.08,0,0,1,.22-1,1.67,1.67,0,0,1,.62-.7,3.76,3.76,0,0,1,.9-.44,8.52,8.52,0,0,1,1.17-.27l1.24-.21c.46-.08.68-.32.68-.71a1.33,1.33,0,0,0-.48-1.14,1.9,1.9,0,0,0-1.21-.37,2,2,0,0,0-1.21.36,1.47,1.47,0,0,0-.57,1.07l-1.21-.25a2.33,2.33,0,0,1,1-1.65,3.54,3.54,0,0,1,2.09-.55,4.21,4.21,0,0,1,1.11.14,2.82,2.82,0,0,1,.93.43,1.89,1.89,0,0,1,.67.82,3.09,3.09,0,0,1,.24,1.27v3.17a1.3,1.3,0,0,0,.17.8.76.76,0,0,0,.61.21H382v1h-.67a1.27,1.27,0,0,1-1.45-1h-.07A2.93,2.93,0,0,1,377.28,220Zm.31-1.09a2.07,2.07,0,0,0,1.65-.74,3.07,3.07,0,0,0,.62-2l-2,.39a2.86,2.86,0,0,0-1.19.43,1,1,0,0,0-.39.84,1,1,0,0,0,.38.84A1.5,1.5,0,0,0,377.59,218.88Z"/>
      <path d="M388,212a3.36,3.36,0,0,1,2.54,1.11,4.54,4.54,0,0,1,0,5.78A3.31,3.31,0,0,1,388,220a3.06,3.06,0,0,1-1.64-.45,2.86,2.86,0,0,1-1.1-1.21l0,1.49h-1.3v-12h1.34v5.79a2.78,2.78,0,0,1,1.1-1.18A3.07,3.07,0,0,1,388,212Zm-.3,6.83a2.39,2.39,0,0,0,1.8-.79,3.26,3.26,0,0,0,0-4.09,2.38,2.38,0,0,0-1.8-.78,2.3,2.3,0,0,0-1.78.81,3.16,3.16,0,0,0,0,4A2.28,2.28,0,0,0,387.66,218.82Z"/>
      <path d="M393.66,219.82v-12H395v12Z"/>
      <path d="M404.5,215.83l0,.37h-6a2.69,2.69,0,0,0,.74,2,2.38,2.38,0,0,0,1.75.69,2.32,2.32,0,0,0,2.14-1.39l1.22.26a3.41,3.41,0,0,1-1.31,1.65,3.59,3.59,0,0,1-2,.6,3.71,3.71,0,0,1-2.76-1.07,4.54,4.54,0,0,1,0-5.83,3.63,3.63,0,0,1,2.72-1.08,3.44,3.44,0,0,1,2.58,1A3.9,3.9,0,0,1,404.5,215.83Zm-3.56-2.8a2.38,2.38,0,0,0-1.6.55,2.53,2.53,0,0,0-.8,1.58h4.6a2.29,2.29,0,0,0-.67-1.58A2.16,2.16,0,0,0,400.94,213Z"/>
      <path d="M327.79,228h1.39v11H327.7l-5.93-8.9V239H320.4V228h1.46l5.93,8.86Z"/>
      <path d="M338.89,235l0,.37h-6a2.69,2.69,0,0,0,.74,2,2.4,2.4,0,0,0,1.75.69,2.32,2.32,0,0,0,2.14-1.39l1.22.26a3.41,3.41,0,0,1-1.31,1.65,3.59,3.59,0,0,1-2,.6,3.71,3.71,0,0,1-2.76-1.07,4.55,4.55,0,0,1,0-5.84,3.68,3.68,0,0,1,2.72-1.07,3.47,3.47,0,0,1,2.59,1A3.92,3.92,0,0,1,338.89,235Zm-3.56-2.8a2.35,2.35,0,0,0-1.59.55,2.49,2.49,0,0,0-.81,1.58h4.6a2.29,2.29,0,0,0-.67-1.58A2.16,2.16,0,0,0,335.33,232.23Z"/>
      <path d="M345.79,231.34h1.35V239h-1.3l0-1a2.46,2.46,0,0,1-.95.86,3,3,0,0,1-1.35.3,2.68,2.68,0,0,1-1.93-.69,2.62,2.62,0,0,1-.72-2v-5.17h1.35v4.87a1.83,1.83,0,0,0,.47,1.37,1.66,1.66,0,0,0,1.21.46,1.85,1.85,0,0,0,1.36-.53,2.21,2.21,0,0,0,.54-1.57Z"/>
      <path d="M352.34,239a2,2,0,0,1-1.5-.55,2.11,2.11,0,0,1-.55-1.53v-4.52h-1.57v-1.08h.58a1.11,1.11,0,0,0,.85-.27,1.34,1.34,0,0,0,.25-.9v-1.39h1.25v2.56h1.77v1.08h-1.77v4.38a1.14,1.14,0,0,0,.3.84,1,1,0,0,0,.77.3h.7V239Z"/>
      <path d="M356.69,232.69a2.31,2.31,0,0,1,1-1,2.84,2.84,0,0,1,1.47-.4v1.27a2.52,2.52,0,0,0-1.78.57,2.38,2.38,0,0,0-.62,1.82V239h-1.35v-7.68h1.32Z"/>
      <path d="M362.39,239.17a2.65,2.65,0,0,1-1.69-.53,1.88,1.88,0,0,1-.66-1.57,2.2,2.2,0,0,1,.21-1,1.77,1.77,0,0,1,.63-.7,3.76,3.76,0,0,1,.9-.44,10.14,10.14,0,0,1,1.17-.28l1.24-.2c.46-.08.68-.32.68-.71a1.33,1.33,0,0,0-.48-1.14,1.9,1.9,0,0,0-1.21-.37,2.06,2.06,0,0,0-1.21.35,1.51,1.51,0,0,0-.57,1.08l-1.22-.26a2.38,2.38,0,0,1,1-1.64,3.54,3.54,0,0,1,2.09-.55,4.21,4.21,0,0,1,1.11.14,2.82,2.82,0,0,1,.93.43,1.89,1.89,0,0,1,.67.82,3.27,3.27,0,0,1,.23,1.27V237a1.29,1.29,0,0,0,.18.8.76.76,0,0,0,.61.21h.12v1h-.67a1.27,1.27,0,0,1-1.45-1h-.07A2.91,2.91,0,0,1,362.39,239.17Zm.31-1.09a2.05,2.05,0,0,0,1.65-.75,3.08,3.08,0,0,0,.62-2l-2,.39a2.73,2.73,0,0,0-1.19.43,1,1,0,0,0-.39.84,1,1,0,0,0,.38.84A1.5,1.5,0,0,0,362.7,238.08Z"/>
      <path d="M369,239V227h1.36v12Z"/>
    </g>
    <g>
      <path d="M324.83,117.11a3.41,3.41,0,0,1,2.6,1,3.69,3.69,0,0,1,1,2.6,3.51,3.51,0,0,1-1,2.58,3.43,3.43,0,0,1-2.6,1h-2.36v4h-2.34V117.11Zm-.4,5.28a1.68,1.68,0,0,0,1.29-.44,1.65,1.65,0,0,0,.43-1.22,1.68,1.68,0,0,0-.43-1.21,1.71,1.71,0,0,0-1.29-.45h-2v3.32Z"/>
      <path d="M333.55,128.56a5.15,5.15,0,0,1-2.27-.49,3.7,3.7,0,0,1-1.56-1.45,4.26,4.26,0,0,1-.57-2.24,4,4,0,0,1,1.22-3,5.09,5.09,0,0,1,6.37,0,4.44,4.44,0,0,1,0,6.11A4.52,4.52,0,0,1,333.55,128.56Zm0-1.79a2.07,2.07,0,0,0,1.59-.66,2.44,2.44,0,0,0,.6-1.73,2.49,2.49,0,0,0-.6-1.74,2.1,2.1,0,0,0-1.59-.65,2,2,0,0,0-1.54.66,2.79,2.79,0,0,0,0,3.46A2,2,0,0,0,333.53,126.77Z"/>
      <path d="M342.46,128.56a4.57,4.57,0,0,1-2.35-.56,2.4,2.4,0,0,1-1.14-1.68l1.88-.53a1.51,1.51,0,0,0,1.61,1.2,1.58,1.58,0,0,0,.82-.19.63.63,0,0,0,.32-.62.69.69,0,0,0-.13-.41,1.12,1.12,0,0,0-.41-.3l-.55-.21-.72-.21a7.45,7.45,0,0,1-.74-.23,4.74,4.74,0,0,1-.71-.3,2.68,2.68,0,0,1-.58-.41,1.67,1.67,0,0,1-.44-.63,2.31,2.31,0,0,1-.15-.86,2.06,2.06,0,0,1,.87-1.8,3.94,3.94,0,0,1,2.28-.61,4,4,0,0,1,2.1.52,2.32,2.32,0,0,1,1.08,1.61l-1.75.39a1.35,1.35,0,0,0-1.42-1,1.65,1.65,0,0,0-.79.18.59.59,0,0,0-.32.54.64.64,0,0,0,0,.24.48.48,0,0,0,.16.19l.23.15a1.48,1.48,0,0,0,.32.13,2.89,2.89,0,0,0,.35.1l.41.11.42.11a7,7,0,0,1,.76.23,5.28,5.28,0,0,1,.69.33,2.66,2.66,0,0,1,.6.47,2.29,2.29,0,0,1,.4.67,2.48,2.48,0,0,1,.15.89,2.39,2.39,0,0,1-.27,1.16,2,2,0,0,1-.74.79,3.55,3.55,0,0,1-1,.42A5.44,5.44,0,0,1,342.46,128.56Z"/>
      <path d="M348.53,119.17a1.26,1.26,0,0,1-.92-.38,1.27,1.27,0,0,1,0-1.83,1.28,1.28,0,0,1,.92-.38,1.3,1.3,0,0,1,0,2.59Zm-1.15,9.23v-8h2.27v8Z"/>
      <path d="M355,128.4a2.41,2.41,0,0,1-1.82-.65,2.56,2.56,0,0,1-.64-1.86V122.1h-1.58v-1.73h.51a1.29,1.29,0,0,0,1-.34,1.68,1.68,0,0,0,.32-1.19v-1.06h2v2.59h1.66v1.73h-1.66v3.55c0,.7.31,1,.93,1h.73v1.71Z"/>
      <path d="M359.34,119.17a1.26,1.26,0,0,1-.92-.38,1.22,1.22,0,0,1-.38-.92,1.25,1.25,0,0,1,.38-.91,1.29,1.29,0,0,1,.92-.38,1.27,1.27,0,0,1,.91.38,1.29,1.29,0,0,1,0,1.83A1.27,1.27,0,0,1,359.34,119.17Zm-1.15,9.23v-8h2.27v8Z"/>
      <path d="M368,120.37h2.39l-3.43,8h-2l-3.38-8H364l2,5.49Z"/>
      <path d="M375,128.56a5.17,5.17,0,0,1-2.28-.49,3.62,3.62,0,0,1-1.55-1.45,4.26,4.26,0,0,1-.57-2.24,3.91,3.91,0,0,1,1.22-3,5.07,5.07,0,0,1,6.36,0,4.44,4.44,0,0,1,0,6.11A4.49,4.49,0,0,1,375,128.56Zm0-1.79a2,2,0,0,0,1.59-.66,2.41,2.41,0,0,0,.61-1.73,2.45,2.45,0,0,0-.61-1.74A2.07,2.07,0,0,0,375,122a2,2,0,0,0-1.54.66,2.79,2.79,0,0,0,0,3.46A2,2,0,0,0,375,126.77Z"/>
    </g>
    <g>
      <path d="M440.64,162.22l-.94-2.63h-5l-.94,2.63h-1.46l4.06-11h1.67l4.05,11Zm-5.47-3.86h4.09l-2.05-5.73Z"/>
      <path d="M448,154.39a3.36,3.36,0,0,1,2.54,1.11,4.54,4.54,0,0,1,0,5.78,3.31,3.31,0,0,1-2.54,1.11,3.06,3.06,0,0,1-1.64-.45,2.86,2.86,0,0,1-1.1-1.21l0,1.49H444v-12h1.34V156a2.84,2.84,0,0,1,1.1-1.18A3.07,3.07,0,0,1,448,154.39Zm-.3,6.82a2.38,2.38,0,0,0,1.8-.78,2.89,2.89,0,0,0,.72-2,2.93,2.93,0,0,0-.72-2,2.38,2.38,0,0,0-1.8-.78,2.3,2.3,0,0,0-1.78.81,3.16,3.16,0,0,0,0,4A2.31,2.31,0,0,0,447.72,161.21Z"/>
      <path d="M458.5,154.54h1.35v7.68h-1.29l0-1a2.42,2.42,0,0,1-1,.86,2.91,2.91,0,0,1-1.34.3,2.67,2.67,0,0,1-1.93-.69,2.59,2.59,0,0,1-.73-2v-5.17h1.35v4.87a1.8,1.8,0,0,0,.48,1.37,1.62,1.62,0,0,0,1.2.46,1.86,1.86,0,0,0,1.37-.53,2.16,2.16,0,0,0,.53-1.57Z"/>
      <path d="M463.92,155.89a2.37,2.37,0,0,1,1-1,2.84,2.84,0,0,1,1.47-.4v1.27a2.52,2.52,0,0,0-1.78.57,2.38,2.38,0,0,0-.61,1.82v4.1H462.6v-7.68h1.32Z"/>
      <path d="M469.26,155.89a2.34,2.34,0,0,1,.95-1,2.91,2.91,0,0,1,1.48-.4v1.27a2.55,2.55,0,0,0-1.79.57,2.42,2.42,0,0,0-.61,1.82v4.1h-1.35v-7.68h1.32Z"/>
      <path d="M474,152.74a.87.87,0,0,1-.64-.27.89.89,0,0,1-.27-.65.87.87,0,0,1,.27-.64.92.92,0,0,1,1.28,0,.87.87,0,0,1,.27.64.89.89,0,0,1-.27.65A.87.87,0,0,1,474,152.74Zm-.68,9.48v-7.68h1.35v7.68Z"/>
      <path d="M483.06,150.22h1.35v12H483.1l0-1.49a2.83,2.83,0,0,1-1.09,1.21,3.05,3.05,0,0,1-1.63.45,3.46,3.46,0,0,1-1.39-.29,3.37,3.37,0,0,1-1.14-.8,3.57,3.57,0,0,1-.77-1.27,4.39,4.39,0,0,1-.29-1.64,4.07,4.07,0,0,1,1-2.89,3.38,3.38,0,0,1,2.55-1.11,3.06,3.06,0,0,1,1.61.44,2.88,2.88,0,0,1,1.1,1.17Zm-2.43,11a2.33,2.33,0,0,0,1.79-.8,3.19,3.19,0,0,0,0-4,2.32,2.32,0,0,0-1.79-.81,2.34,2.34,0,0,0-1.79.78,2.89,2.89,0,0,0-.73,2,2.85,2.85,0,0,0,.73,2A2.34,2.34,0,0,0,480.63,161.21Z"/>
      <path d="M490.39,162.37a4,4,0,0,1-2-.48A3.42,3.42,0,0,1,487,160.5a4.29,4.29,0,0,1-.51-2.12,3.92,3.92,0,0,1,1.09-2.9,4.08,4.08,0,0,1,5.55,0,4.4,4.4,0,0,1,0,5.8A3.75,3.75,0,0,1,490.39,162.37Zm0-1.12a2.38,2.38,0,0,0,1.82-.79,3,3,0,0,0,.72-2.08,2.93,2.93,0,0,0-.72-2.07,2.35,2.35,0,0,0-1.82-.79,2.32,2.32,0,0,0-1.8.79,3,3,0,0,0-.71,2.07,3,3,0,0,0,.71,2.08A2.36,2.36,0,0,0,490.38,161.25Z"/>
      <path d="M437.74,170.42a3.24,3.24,0,0,1,1.73.46,3.07,3.07,0,0,1,1.15,1.22,3.59,3.59,0,0,1,.41,1.7,3.36,3.36,0,0,1-.91,2.39,3.13,3.13,0,0,1-2.38,1H435v4.27h-1.4v-11Zm-.2,5.51a2,2,0,0,0,1.53-.59,2.18,2.18,0,0,0,.56-1.56,2.2,2.2,0,0,0-.56-1.55,2,2,0,0,0-1.53-.6H435v4.3Z"/>
      <path d="M449.16,177.43l0,.37h-6a2.69,2.69,0,0,0,.74,2,2.4,2.4,0,0,0,1.75.69,2.33,2.33,0,0,0,1.27-.37,2.44,2.44,0,0,0,.88-1l1.21.26a3.41,3.41,0,0,1-1.31,1.65,3.59,3.59,0,0,1-2,.6,3.71,3.71,0,0,1-2.76-1.07,4.55,4.55,0,0,1,0-5.84,3.68,3.68,0,0,1,2.72-1.07,3.47,3.47,0,0,1,2.59,1A3.93,3.93,0,0,1,449.16,177.43Zm-3.56-2.8a2.35,2.35,0,0,0-1.59.55,2.49,2.49,0,0,0-.81,1.58h4.6a2.29,2.29,0,0,0-.67-1.58A2.16,2.16,0,0,0,445.6,174.63Z"/>
      <path d="M453.71,181.57a3.68,3.68,0,0,1-2.08-.55,2.3,2.3,0,0,1-1-1.58l1.18-.34a1.62,1.62,0,0,0,.63,1.07,2,2,0,0,0,1.26.38,2.88,2.88,0,0,0,.74-.1,1.2,1.2,0,0,0,.56-.38,1,1,0,0,0,.23-.7,1.52,1.52,0,0,0-.06-.32,1.17,1.17,0,0,0-.13-.25.64.64,0,0,0-.22-.21l-.26-.17-.35-.14-.37-.13-.43-.12-.45-.13a7.56,7.56,0,0,1-.79-.28,3.34,3.34,0,0,1-.65-.37,1.51,1.51,0,0,1-.51-.61,2.06,2.06,0,0,1-.16-.86,2,2,0,0,1,.37-1.22,2.13,2.13,0,0,1,1-.73,3.9,3.9,0,0,1,1.37-.22,3.36,3.36,0,0,1,1.87.5,2.1,2.1,0,0,1,.93,1.5l-1.11.28a1.46,1.46,0,0,0-.58-1,1.87,1.87,0,0,0-1.11-.33,1.91,1.91,0,0,0-1,.27.93.93,0,0,0-.43.83.76.76,0,0,0,.12.42,1.07,1.07,0,0,0,.23.3,1.5,1.5,0,0,0,.42.24l.45.16.56.14.12,0c.3.07.55.14.74.2a5.36,5.36,0,0,1,.66.28,2.1,2.1,0,0,1,.6.42,1.93,1.93,0,0,1,.38.6,2.14,2.14,0,0,1,.15.82,2.18,2.18,0,0,1-.23,1,1.8,1.8,0,0,1-.63.71,2.85,2.85,0,0,1-.89.38A4.08,4.08,0,0,1,453.71,181.57Z"/>
      <path d="M460.43,181.57a2.56,2.56,0,0,1-1.68-.53,1.88,1.88,0,0,1-.66-1.57,2.2,2.2,0,0,1,.21-1,1.74,1.74,0,0,1,.62-.7,3.65,3.65,0,0,1,.91-.44,8,8,0,0,1,1.16-.27l1.25-.21c.45-.08.68-.32.68-.71a1.33,1.33,0,0,0-.48-1.14,2.19,2.19,0,0,0-2.42,0,1.41,1.41,0,0,0-.57,1.07l-1.22-.25a2.33,2.33,0,0,1,1-1.65,3.56,3.56,0,0,1,2.09-.55,4.35,4.35,0,0,1,1.12.14,3,3,0,0,1,.93.43,1.94,1.94,0,0,1,.66.82,3.09,3.09,0,0,1,.24,1.27v3.17a1.37,1.37,0,0,0,.17.8.76.76,0,0,0,.61.21h.12v1h-.67a1.27,1.27,0,0,1-1.45-1H463A2.92,2.92,0,0,1,460.43,181.57Zm.31-1.09a2,2,0,0,0,1.65-.74,3.07,3.07,0,0,0,.63-2l-2,.39a2.63,2.63,0,0,0-1.19.43,1,1,0,0,0-.39.84,1,1,0,0,0,.37.84A1.54,1.54,0,0,0,460.74,180.48Z"/>
      <path d="M472.56,169.42h1.35v12H472.6l0-1.49a2.83,2.83,0,0,1-1.09,1.21,3.05,3.05,0,0,1-1.63.45,3.46,3.46,0,0,1-1.39-.29,3.37,3.37,0,0,1-1.14-.8,3.62,3.62,0,0,1-.77-1.26,4.48,4.48,0,0,1-.29-1.65,4.07,4.07,0,0,1,1-2.89,3.38,3.38,0,0,1,2.55-1.11,3.06,3.06,0,0,1,1.61.44,2.88,2.88,0,0,1,1.1,1.17Zm-2.43,11a2.29,2.29,0,0,0,1.79-.8,3.19,3.19,0,0,0,0-4,2.32,2.32,0,0,0-1.79-.81,2.34,2.34,0,0,0-1.79.78,2.89,2.89,0,0,0-.73,2.05,2.85,2.85,0,0,0,.73,2A2.34,2.34,0,0,0,470.13,180.41Z"/>
      <path d="M479.89,181.57a4,4,0,0,1-2-.48,3.42,3.42,0,0,1-1.38-1.39,4.29,4.29,0,0,1-.51-2.12,3.92,3.92,0,0,1,1.09-2.9,4.08,4.08,0,0,1,5.55,0,4.4,4.4,0,0,1,0,5.8A3.75,3.75,0,0,1,479.89,181.57Zm0-1.12a2.38,2.38,0,0,0,1.82-.79,3,3,0,0,0,.72-2.08,2.93,2.93,0,0,0-.72-2.07,2.35,2.35,0,0,0-1.82-.79,2.32,2.32,0,0,0-1.8.79,3,3,0,0,0-.71,2.07,3,3,0,0,0,.71,2.08A2.36,2.36,0,0,0,479.88,180.45Z"/>
      <path d="M440.64,200.62,439.7,198h-5l-.94,2.63h-1.46l4.06-11h1.67l4.05,11Zm-5.47-3.87h4.09L437.21,191Z"/>
      <path d="M447.57,192.79a2.71,2.71,0,0,1,1.94.7,2.6,2.6,0,0,1,.72,2v5.17h-1.35v-4.87a1.83,1.83,0,0,0-.47-1.37,1.67,1.67,0,0,0-1.2-.45,1.86,1.86,0,0,0-1.37.53,2.11,2.11,0,0,0-.54,1.57v4.59H444v-7.68h1.35v1A2.56,2.56,0,0,1,447.57,192.79Z"/>
      <path d="M455.29,200.62a2,2,0,0,1-1.5-.55,2.11,2.11,0,0,1-.55-1.53V194h-1.57v-1.08h.58a1.11,1.11,0,0,0,.85-.27,1.34,1.34,0,0,0,.25-.9v-1.39h1.25v2.56h1.77V194H454.6v4.38a1.14,1.14,0,0,0,.3.84,1,1,0,0,0,.77.3h.7v1.08Z"/>
      <path d="M459,191.14a.87.87,0,0,1-.64-.27.89.89,0,0,1-.27-.65.87.87,0,0,1,.27-.64.9.9,0,0,1,.64-.26.92.92,0,0,1,.64.26.87.87,0,0,1,.27.64.92.92,0,0,1-.91.92Zm-.69,9.48v-7.68h1.36v7.68Z"/>
      <path d="M465.62,200.76a3.67,3.67,0,0,1-2.75-1.1,3.93,3.93,0,0,1-1.09-2.88,3.89,3.89,0,0,1,1.09-2.88,3.66,3.66,0,0,1,2.75-1.11,3.72,3.72,0,0,1,2.22.68,3.33,3.33,0,0,1,1.29,1.86l-1.26.21a2.3,2.3,0,0,0-2.26-1.62,2.27,2.27,0,0,0-1.78.79,3.4,3.4,0,0,0,0,4.13,2.27,2.27,0,0,0,1.78.79,2.3,2.3,0,0,0,2.26-1.62l1.26.21a3.32,3.32,0,0,1-1.3,1.87A3.71,3.71,0,0,1,465.62,200.76Z"/>
      <path d="M475.91,192.94h1.35v7.68H476l0-1a2.46,2.46,0,0,1-.95.86,3,3,0,0,1-1.35.3,2.65,2.65,0,0,1-1.93-.7,2.58,2.58,0,0,1-.72-2v-5.17h1.35v4.87a1.83,1.83,0,0,0,.47,1.37,1.66,1.66,0,0,0,1.21.46,1.84,1.84,0,0,0,1.36-.53,2.21,2.21,0,0,0,.54-1.57Z"/>
      <path d="M481.78,200.77a2.62,2.62,0,0,1-1.68-.53,1.88,1.88,0,0,1-.66-1.57,2.28,2.28,0,0,1,.21-1,1.74,1.74,0,0,1,.63-.69,3.42,3.42,0,0,1,.9-.44,9.22,9.22,0,0,1,1.17-.28l1.24-.2c.45-.08.68-.32.68-.71a1.33,1.33,0,0,0-.48-1.14,1.93,1.93,0,0,0-1.22-.37,2,2,0,0,0-1.2.35,1.51,1.51,0,0,0-.57,1.08l-1.22-.26a2.33,2.33,0,0,1,1-1.64,3.56,3.56,0,0,1,2.09-.55,4.35,4.35,0,0,1,1.12.14,3,3,0,0,1,.93.43,1.94,1.94,0,0,1,.66.82,3.09,3.09,0,0,1,.24,1.27v3.17a1.29,1.29,0,0,0,.18.8.74.74,0,0,0,.6.21h.13v1h-.68a1.28,1.28,0,0,1-1.45-1h-.06A2.94,2.94,0,0,1,481.78,200.77Zm.32-1.09a2,2,0,0,0,1.64-.75,3,3,0,0,0,.63-2l-2,.39a2.63,2.63,0,0,0-1.19.43,1,1,0,0,0-.39.84,1,1,0,0,0,.37.84A1.55,1.55,0,0,0,482.1,199.68Z"/>
      <path d="M493.91,188.62h1.35v12H494l0-1.49a2.83,2.83,0,0,1-1.09,1.21,3,3,0,0,1-1.62.45,3.51,3.51,0,0,1-1.4-.29,3.47,3.47,0,0,1-1.14-.8,3.57,3.57,0,0,1-.77-1.27,4.59,4.59,0,0,1-.29-1.64,4.07,4.07,0,0,1,1-2.89,3.39,3.39,0,0,1,2.56-1.11,3.06,3.06,0,0,1,1.6.44,2.88,2.88,0,0,1,1.1,1.17Zm-2.42,11a2.32,2.32,0,0,0,1.78-.8,3.19,3.19,0,0,0,0-4,2.31,2.31,0,0,0-1.78-.81,2.35,2.35,0,0,0-1.8.78,3.23,3.23,0,0,0,0,4.09A2.35,2.35,0,0,0,491.49,199.61Z"/>
      <path d="M501.24,200.77a4,4,0,0,1-2-.48,3.38,3.38,0,0,1-1.39-1.39,4.29,4.29,0,0,1-.51-2.12,3.91,3.91,0,0,1,1.09-2.9,3.77,3.77,0,0,1,2.77-1.09,3.81,3.81,0,0,1,2.79,1.09,4.42,4.42,0,0,1,0,5.8A3.74,3.74,0,0,1,501.24,200.77Zm0-1.12a2.36,2.36,0,0,0,1.81-.79,3,3,0,0,0,.73-2.08,2.94,2.94,0,0,0-.73-2.07,2.33,2.33,0,0,0-1.81-.79,2.29,2.29,0,0,0-1.8.79,2.93,2.93,0,0,0-.72,2.07,3,3,0,0,0,.72,2.08A2.33,2.33,0,0,0,501.24,199.65Z"/>
      <path d="M437,220a5,5,0,0,1-2.87-.78,3.28,3.28,0,0,1-1.44-2.13l1.42-.34a2.3,2.3,0,0,0,1,1.5,3.32,3.32,0,0,0,1.95.55,3.38,3.38,0,0,0,.72-.07,3,3,0,0,0,.66-.2,2.38,2.38,0,0,0,.55-.36,1.37,1.37,0,0,0,.35-.54,1.9,1.9,0,0,0,.13-.73,1.72,1.72,0,0,0-.1-.52,1.45,1.45,0,0,0-.22-.41,1.21,1.21,0,0,0-.37-.33,3.27,3.27,0,0,0-1-.49l-.59-.18-.63-.18-.12,0-.73-.2-.69-.24a4.5,4.5,0,0,1-.65-.3,4.94,4.94,0,0,1-.54-.38,2,2,0,0,1-.44-.49,2.85,2.85,0,0,1-.37-1.4,2.8,2.8,0,0,1,.51-1.69,3,3,0,0,1,1.32-1,4.8,4.8,0,0,1,1.82-.33,5,5,0,0,1,2.65.68,3,3,0,0,1,1.4,2l-1.36.34a2.06,2.06,0,0,0-.92-1.35,3.12,3.12,0,0,0-1.71-.46,3.35,3.35,0,0,0-.85.11,2.37,2.37,0,0,0-.73.31,1.53,1.53,0,0,0-.53.57,1.76,1.76,0,0,0-.19.84,1.22,1.22,0,0,0,.08.47,1.43,1.43,0,0,0,.19.37,1.48,1.48,0,0,0,.34.3,3.77,3.77,0,0,0,.41.25,5.26,5.26,0,0,0,.51.19l.55.18.6.16a12.89,12.89,0,0,1,2.12.7,2.69,2.69,0,0,1,1.63,2,3.64,3.64,0,0,1,0,.48,3.06,3.06,0,0,1-.32,1.42,2.67,2.67,0,0,1-.86,1,4.5,4.5,0,0,1-1.24.55A5.75,5.75,0,0,1,437,220Z"/>
      <path d="M447.94,212.14h1.35v7.68H448l0-1a2.39,2.39,0,0,1-.95.86,2.93,2.93,0,0,1-1.34.3,2.69,2.69,0,0,1-1.94-.69,2.62,2.62,0,0,1-.72-2v-5.17h1.35V217a1.83,1.83,0,0,0,.47,1.37,1.66,1.66,0,0,0,1.21.46,1.84,1.84,0,0,0,1.36-.53,2.16,2.16,0,0,0,.54-1.57Z"/>
      <path d="M455.23,220a3.67,3.67,0,0,1-2.75-1.1,4.36,4.36,0,0,1,0-5.76,4,4,0,0,1,5-.43,3.33,3.33,0,0,1,1.29,1.86l-1.26.21a2.3,2.3,0,0,0-2.26-1.62,2.27,2.27,0,0,0-1.78.79,3.4,3.4,0,0,0,0,4.13,2.27,2.27,0,0,0,1.78.79,2.3,2.3,0,0,0,2.26-1.62l1.26.21a3.32,3.32,0,0,1-1.3,1.87A3.71,3.71,0,0,1,455.23,220Z"/>
      <path d="M461.42,210.34a.87.87,0,0,1-.64-.27.89.89,0,0,1-.27-.65.87.87,0,0,1,.27-.64.92.92,0,0,1,1.28,0,.87.87,0,0,1,.27.64.89.89,0,0,1-.27.65A.87.87,0,0,1,461.42,210.34Zm-.68,9.48v-7.68h1.36v7.68Z"/>
      <path d="M468.08,220a4,4,0,0,1-2-.48,3.51,3.51,0,0,1-1.39-1.39,4.29,4.29,0,0,1-.51-2.12,4,4,0,0,1,1.09-2.9,4.09,4.09,0,0,1,5.56,0,4.4,4.4,0,0,1,0,5.8A3.75,3.75,0,0,1,468.08,220Zm0-1.12a2.38,2.38,0,0,0,1.82-.79,3,3,0,0,0,.72-2.08,2.93,2.93,0,0,0-.72-2.07,2.35,2.35,0,0,0-1.82-.79,2.32,2.32,0,0,0-1.8.79,3,3,0,0,0-.71,2.07,3,3,0,0,0,.71,2.08A2.36,2.36,0,0,0,468.07,218.85Z"/>
      <path d="M439.33,228v1.28h-2.82V239h-1.39V229.3h-2.83V228Z"/>
      <path d="M441.5,232.69a2.31,2.31,0,0,1,1-1,2.84,2.84,0,0,1,1.47-.4v1.27a2.52,2.52,0,0,0-1.78.57,2.38,2.38,0,0,0-.62,1.82V239h-1.35v-7.68h1.32Z"/>
      <path d="M446.21,229.54a.92.92,0,0,1-.92-.92.87.87,0,0,1,.27-.64.92.92,0,0,1,.65-.26.89.89,0,0,1,.63.26.87.87,0,0,1,.27.64.89.89,0,0,1-.27.65A.86.86,0,0,1,446.21,229.54Zm-.69,9.48v-7.68h1.36V239Z"/>
      <path d="M452.06,239.17a3.63,3.63,0,0,1-2.07-.55,2.28,2.28,0,0,1-1-1.58l1.18-.34a1.62,1.62,0,0,0,.63,1.07,2,2,0,0,0,1.26.38,2.82,2.82,0,0,0,.74-.1,1.2,1.2,0,0,0,.56-.38,1,1,0,0,0,.23-.7,1.07,1.07,0,0,0-.06-.32,1.17,1.17,0,0,0-.13-.25.56.56,0,0,0-.22-.21,1.64,1.64,0,0,0-.26-.17l-.35-.14-.37-.13-.43-.12-.45-.13c-.32-.1-.58-.19-.79-.28a3.34,3.34,0,0,1-.65-.37,1.49,1.49,0,0,1-.5-.61,1.91,1.91,0,0,1-.17-.86,2,2,0,0,1,.37-1.23,2.15,2.15,0,0,1,1-.72,3.8,3.8,0,0,1,1.36-.22,3.36,3.36,0,0,1,1.87.5,2.1,2.1,0,0,1,.93,1.5l-1.11.28a1.43,1.43,0,0,0-.58-1,1.86,1.86,0,0,0-1.1-.33,1.92,1.92,0,0,0-1,.27.92.92,0,0,0-.42.83.76.76,0,0,0,.11.42,1.07,1.07,0,0,0,.23.3,1.3,1.3,0,0,0,.42.23,4.31,4.31,0,0,0,.45.17l.57.14.11,0,.74.21a4.64,4.64,0,0,1,.67.28,2.18,2.18,0,0,1,.59.42,2,2,0,0,1,.38.59,2.23,2.23,0,0,1,.15.83,2.18,2.18,0,0,1-.23,1,1.76,1.76,0,0,1-.62.7,2.8,2.8,0,0,1-.9.39A4.08,4.08,0,0,1,452.06,239.17Z"/>
      <path d="M459.46,239a2,2,0,0,1-1.5-.55,2.1,2.1,0,0,1-.54-1.53v-4.52h-1.57v-1.08h.57a1.1,1.1,0,0,0,.85-.27,1.29,1.29,0,0,0,.25-.9v-1.39h1.26v2.56h1.76v1.08h-1.76v4.38a1.13,1.13,0,0,0,.29.84,1,1,0,0,0,.77.3h.7V239Z"/>
      <path d="M469.12,235l0,.37h-6a2.69,2.69,0,0,0,.74,2,2.4,2.4,0,0,0,1.75.69,2.33,2.33,0,0,0,1.27-.37,2.44,2.44,0,0,0,.88-1l1.22.26a3.48,3.48,0,0,1-1.32,1.65,3.59,3.59,0,0,1-2,.6,3.71,3.71,0,0,1-2.76-1.07,4,4,0,0,1-1.06-2.92,4,4,0,0,1,1.06-2.92,3.69,3.69,0,0,1,2.72-1.07,3.47,3.47,0,0,1,2.59,1A3.86,3.86,0,0,1,469.12,235Zm-3.56-2.8a2.35,2.35,0,0,0-1.59.55,2.49,2.49,0,0,0-.81,1.58h4.6a2.29,2.29,0,0,0-.67-1.58A2.16,2.16,0,0,0,465.56,232.23Z"/>
    </g>
    <g>
      <path d="M441,117.11h2.33V128.4h-2.71l-5-8.07v8.07h-2.34V117.11H436l5,8Z"/>
      <path d="M453.49,124.27l0,.54h-6a2.06,2.06,0,0,0,.64,1.47,2.23,2.23,0,0,0,2.47.23,1.75,1.75,0,0,0,.68-.81l2.06.3a3.56,3.56,0,0,1-1.41,1.89,4.22,4.22,0,0,1-2.37.67,4.34,4.34,0,0,1-3.13-1.11,4,4,0,0,1-1.16-3.06,4.09,4.09,0,0,1,1.16-3.07,4.23,4.23,0,0,1,3.06-1.12,3.67,3.67,0,0,1,4,4.07Zm-4-2.48a1.78,1.78,0,0,0-1.95,1.55h3.69a1.69,1.69,0,0,0-.56-1.15A1.77,1.77,0,0,0,449.53,121.79Z"/>
      <path d="M460.74,120.37h2.14v7.43a6,6,0,0,1-.3,2,3.3,3.3,0,0,1-.87,1.37,3.65,3.65,0,0,1-1.34.77,5.52,5.52,0,0,1-1.75.25q-3.18,0-4.14-2.49l1.87-.8a2.71,2.71,0,0,0,.86,1.17,2.21,2.21,0,0,0,1.32.37c1.39,0,2.09-.82,2.09-2.48V127a2.53,2.53,0,0,1-1,.79,3.39,3.39,0,0,1-1.43.3,3.58,3.58,0,0,1-1.41-.28,3.75,3.75,0,0,1-1.17-.8,3.81,3.81,0,0,1-.79-1.26,4.73,4.73,0,0,1,0-3.26,3.59,3.59,0,0,1,.8-1.24,3.34,3.34,0,0,1,1.17-.78,3.57,3.57,0,0,1,1.42-.29,3.3,3.3,0,0,1,1.49.34,2.31,2.31,0,0,1,1,.88Zm-3.45,5.31a1.94,1.94,0,0,0,1.47.62,2,2,0,0,0,1.48-.62,2.25,2.25,0,0,0,0-3.06,2.09,2.09,0,0,0-3,0,2.14,2.14,0,0,0-.59,1.54A2.1,2.1,0,0,0,457.29,125.68Z"/>
      <path d="M471.8,126.22a7.51,7.51,0,0,0,.19,2v.22h-2.1l-.18-.87a2.59,2.59,0,0,1-1.12.77,4.24,4.24,0,0,1-1.46.26,4.54,4.54,0,0,1-.75-.07,2.68,2.68,0,0,1-.67-.24,2,2,0,0,1-.56-.42,1.66,1.66,0,0,1-.37-.64,2.33,2.33,0,0,1-.15-.87,2.41,2.41,0,0,1,.15-.87,2.08,2.08,0,0,1,.39-.65,2.49,2.49,0,0,1,.64-.48,5,5,0,0,1,.79-.34,9.36,9.36,0,0,1,1-.25l1.32-.3a1.31,1.31,0,0,0,.59-.25.5.5,0,0,0,.18-.4.85.85,0,0,0-.39-.78,2,2,0,0,0-1-.23,1.38,1.38,0,0,0-1.57,1.23l-2-.36a2.7,2.7,0,0,1,1.16-1.84,4.65,4.65,0,0,1,2.52-.59q3.38,0,3.38,2.9Zm-4,.81a1.8,1.8,0,0,0,1.39-.58,2.43,2.43,0,0,0,.54-1.72l-1.91.54a2.14,2.14,0,0,0-.8.33.68.68,0,0,0-.28.58.74.74,0,0,0,.3.63A1.22,1.22,0,0,0,467.84,127Z"/>
      <path d="M476.87,128.4a2.39,2.39,0,0,1-1.81-.65,2.52,2.52,0,0,1-.64-1.86V122.1h-1.58v-1.73h.51a1.32,1.32,0,0,0,1-.34,1.73,1.73,0,0,0,.32-1.19v-1.06h2v2.59h1.65v1.73H476.7v3.55c0,.7.31,1,.93,1h.72v1.71Z"/>
      <path d="M481.24,119.17a1.28,1.28,0,0,1-.92-.38,1.26,1.26,0,0,1-.38-.92,1.23,1.23,0,0,1,.39-.91,1.28,1.28,0,0,1,1.82,0,1.29,1.29,0,0,1,0,1.83A1.25,1.25,0,0,1,481.24,119.17Zm-1.14,9.23v-8h2.26v8Z"/>
      <path d="M489.92,120.37h2.38l-3.42,8h-2l-3.38-8h2.37l2,5.49Z"/>
      <path d="M496.9,128.56a5.15,5.15,0,0,1-2.27-.49,3.7,3.7,0,0,1-1.56-1.45,4.26,4.26,0,0,1-.57-2.24,4,4,0,0,1,1.22-3,5.09,5.09,0,0,1,6.37,0,4.44,4.44,0,0,1,0,6.11A4.52,4.52,0,0,1,496.9,128.56Zm0-1.79a2.07,2.07,0,0,0,1.59-.66,2.44,2.44,0,0,0,.6-1.73,2.49,2.49,0,0,0-.6-1.74,2.1,2.1,0,0,0-1.59-.65,2,2,0,0,0-1.55.66,2.83,2.83,0,0,0,0,3.46A2,2,0,0,0,496.88,126.77Z"/>
    </g>
  </g>
</svg>
