<svg id="Layer_1" data-name="Layer 1" xmlns="http://www.w3.org/2000/svg" width="563.56" height="300.44" viewBox="0 0 563.56 300.44">
  <defs>
    <style>
      .cls-1 {
        fill: #29abe2;
      }

      .cls-2 {
        fill: #f2f2f2;
      }

      .cls-3 {
        opacity: 0.75;
      }

      .cls-4 {
        opacity: 0.5;
      }

      .cls-5 {
        opacity: 0.25;
      }
    </style>
  </defs>
  <g>
    <rect class="cls-1" width="281.78" height="228.44"/>
    <rect class="cls-2" x="281.78" width="281.78" height="300.44"/>
    <rect class="cls-1" y="228.44" width="70.44" height="72"/>
    <g class="cls-3">
      <rect class="cls-1" x="70.44" y="228.44" width="70.44" height="72"/>
    </g>
    <g class="cls-4">
      <rect class="cls-1" x="140.89" y="228.44" width="70.44" height="72"/>
    </g>
    <g class="cls-5">
      <rect class="cls-1" x="211.33" y="228.44" width="70.44" height="72"/>
    </g>
    <g>
      <path d="M347.64,124.4l-1.95-5.53H334.43l-1.95,5.53h-5.7l9.87-26.81h6.81l9.87,26.81Zm-11.58-10.18h8l-4-11.38Z"/>
      <path d="M370.57,105.33l-8.39,15h8.13v4.12H354.59l8.35-15h-7.7v-4.12Z"/>
      <path d="M386.86,105.33h5.34V124.4h-5.06l-.13-2.3a7.28,7.28,0,0,1-6.07,2.67,7.46,7.46,0,0,1-5.27-1.71,6.4,6.4,0,0,1-1.83-4.89V105.33h5.36V117a3.29,3.29,0,0,0,.95,2.61,3.63,3.63,0,0,0,2.48.84,4.25,4.25,0,0,0,3-1.09,4.62,4.62,0,0,0,1.2-3.53Z"/>
      <path d="M397.73,124.4V95.9h5.4v28.5Z"/>
    </g>
    <g>
      <path d="M337.11,162.37a5.93,5.93,0,0,1-2.17-.39,5.62,5.62,0,0,1-1.74-1.11,5,5,0,0,1-1.15-1.79,6.84,6.84,0,0,1,0-4.72,5.09,5.09,0,0,1,1.16-1.79,5.29,5.29,0,0,1,1.73-1.11,5.93,5.93,0,0,1,2.17-.39,5.55,5.55,0,0,1,2.92.78A4.82,4.82,0,0,1,342,154l-1.29.53a3.71,3.71,0,0,0-1.44-1.57,4.12,4.12,0,0,0-2.13-.55,4.47,4.47,0,0,0-1.61.29,3.81,3.81,0,0,0-1.29.83,3.7,3.7,0,0,0-.87,1.36,5,5,0,0,0-.32,1.82,5.11,5.11,0,0,0,.32,1.84,3.7,3.7,0,0,0,.87,1.36,3.81,3.81,0,0,0,1.29.83,4.27,4.27,0,0,0,1.61.29,4.12,4.12,0,0,0,2.13-.55,3.66,3.66,0,0,0,1.44-1.55l1.29.52A4.8,4.8,0,0,1,340,161.6,5.65,5.65,0,0,1,337.11,162.37Z"/>
      <path d="M347.25,162.37a4,4,0,0,1-2-.48,3.38,3.38,0,0,1-1.39-1.39,4.29,4.29,0,0,1-.51-2.12,3.92,3.92,0,0,1,1.09-2.9,4.09,4.09,0,0,1,5.56,0,4,4,0,0,1,1.08,2.9,3.91,3.91,0,0,1-1.09,2.9A3.73,3.73,0,0,1,347.25,162.37Zm0-1.12a2.4,2.4,0,0,0,1.82-.79,3,3,0,0,0,.72-2.08,2.93,2.93,0,0,0-.72-2.07,2.36,2.36,0,0,0-1.82-.79,2.29,2.29,0,0,0-1.8.79,2.93,2.93,0,0,0-.72,2.07,3,3,0,0,0,.72,2.08A2.33,2.33,0,0,0,347.24,161.25Z"/>
      <path d="M356.86,154.39a2.69,2.69,0,0,1,1.93.7,2.6,2.6,0,0,1,.72,2v5.17h-1.35v-4.86a1.84,1.84,0,0,0-.47-1.38,1.65,1.65,0,0,0-1.2-.45,1.88,1.88,0,0,0-1.37.53,2.19,2.19,0,0,0-.54,1.57v4.59h-1.35v-7.68h1.35v1A2.56,2.56,0,0,1,356.86,154.39Z"/>
      <path d="M362.52,152.93a4.74,4.74,0,0,1,.08-.89,3.4,3.4,0,0,1,.22-.68,1.72,1.72,0,0,1,.36-.49,2.56,2.56,0,0,1,.48-.33,2.08,2.08,0,0,1,.58-.19,5,5,0,0,1,.66-.1c.22,0,.46,0,.75,0v1.14h-.58a1.31,1.31,0,0,0-.28,0l-.24.08a.56.56,0,0,0-.23.13,1.2,1.2,0,0,0-.18.2.69.69,0,0,0-.15.28,1.77,1.77,0,0,0-.09.38,3.32,3.32,0,0,0,0,.48v1.58h1.79v1.08h-1.79v6.6h-1.34v-6.6H361v-1.08h1.48Zm5.38-.19a.92.92,0,0,1-.92-.92.87.87,0,0,1,.27-.64.92.92,0,0,1,.65-.26.89.89,0,0,1,.63.26.87.87,0,0,1,.27.64.89.89,0,0,1-.27.65A.86.86,0,0,1,367.9,152.74Zm-.69,9.48v-7.68h1.36v7.68Z"/>
      <path d="M373.09,162.37a2.56,2.56,0,0,1-1.68-.53,1.88,1.88,0,0,1-.66-1.57,2.2,2.2,0,0,1,.21-1,1.74,1.74,0,0,1,.62-.7,3.65,3.65,0,0,1,.91-.44,8,8,0,0,1,1.16-.27l1.25-.21c.45-.08.68-.32.68-.71a1.34,1.34,0,0,0-.49-1.14,1.9,1.9,0,0,0-1.21-.37,2,2,0,0,0-1.2.35,1.45,1.45,0,0,0-.57,1.08l-1.22-.25a2.33,2.33,0,0,1,1-1.65,3.54,3.54,0,0,1,2.09-.55,4.35,4.35,0,0,1,1.12.14,3,3,0,0,1,.93.43,1.94,1.94,0,0,1,.66.82,3.09,3.09,0,0,1,.24,1.27v3.17a1.37,1.37,0,0,0,.17.8.76.76,0,0,0,.61.21h.12v1h-.67a1.27,1.27,0,0,1-1.45-1h-.06A2.94,2.94,0,0,1,373.09,162.37Zm.31-1.09a2.05,2.05,0,0,0,1.65-.75,3,3,0,0,0,.63-2l-2,.39a2.73,2.73,0,0,0-1.2.43,1,1,0,0,0-.38.84,1,1,0,0,0,.37.84A1.54,1.54,0,0,0,373.4,161.28Z"/>
      <path d="M383.77,154.39a3.34,3.34,0,0,1,2.54,1.11,4.07,4.07,0,0,1,1,2.89,4.12,4.12,0,0,1-1,2.89,3.35,3.35,0,0,1-2.55,1.11,3.09,3.09,0,0,1-1.64-.45,2.83,2.83,0,0,1-1.09-1.21l0,1.49h-1.3v-12H381V156a2.84,2.84,0,0,1,1.1-1.18A3.07,3.07,0,0,1,383.77,154.39Zm-.3,6.82a2.35,2.35,0,0,0,1.8-.78,2.89,2.89,0,0,0,.73-2,2.94,2.94,0,0,0-.73-2,2.35,2.35,0,0,0-1.8-.78,2.31,2.31,0,0,0-1.78.81,3.19,3.19,0,0,0,0,4A2.27,2.27,0,0,0,383.47,161.21Z"/>
      <path d="M389.47,162.22v-12h1.37v12Z"/>
      <path d="M400.31,158.23l0,.37h-6a2.69,2.69,0,0,0,.74,2,2.4,2.4,0,0,0,1.75.69,2.33,2.33,0,0,0,1.27-.37,2.44,2.44,0,0,0,.88-1l1.22.26a3.48,3.48,0,0,1-1.32,1.65,3.59,3.59,0,0,1-2,.6A3.71,3.71,0,0,1,394,161.3a4.55,4.55,0,0,1,0-5.84,3.69,3.69,0,0,1,2.72-1.07,3.47,3.47,0,0,1,2.59,1A3.88,3.88,0,0,1,400.31,158.23Zm-3.56-2.8a2.35,2.35,0,0,0-1.59.55,2.49,2.49,0,0,0-.81,1.58H399a2.29,2.29,0,0,0-.67-1.58A2.16,2.16,0,0,0,396.75,155.43Z"/>
      <path d="M338.35,181.42l-2.83-5h-1.73v5H332.4v-11H336a3.3,3.3,0,0,1,2.47.87,3.1,3.1,0,0,1,.85,2.24,2.76,2.76,0,0,1-2.44,2.88l3.06,5Zm-4.56-9.77v3.71h2.07a2.27,2.27,0,0,0,1.61-.5,1.73,1.73,0,0,0,.53-1.34,1.78,1.78,0,0,0-.54-1.36,2.26,2.26,0,0,0-1.6-.51Z"/>
      <path d="M348.25,177.43l0,.37h-6a2.69,2.69,0,0,0,.74,2,2.38,2.38,0,0,0,1.75.69,2.32,2.32,0,0,0,2.14-1.39l1.22.26a3.41,3.41,0,0,1-1.31,1.65,3.59,3.59,0,0,1-2,.6A3.71,3.71,0,0,1,342,180.5a4.55,4.55,0,0,1,0-5.84,3.66,3.66,0,0,1,2.72-1.07,3.44,3.44,0,0,1,2.58,1A3.9,3.9,0,0,1,348.25,177.43Zm-3.56-2.8a2.38,2.38,0,0,0-1.6.55,2.48,2.48,0,0,0-.8,1.58h4.6a2.34,2.34,0,0,0-.67-1.58A2.16,2.16,0,0,0,344.69,174.63Z"/>
      <path d="M352.79,181.57a3.67,3.67,0,0,1-2.07-.55,2.27,2.27,0,0,1-1-1.58l1.18-.34a1.64,1.64,0,0,0,.62,1.07,2.08,2.08,0,0,0,1.27.38,2.74,2.74,0,0,0,.73-.1,1.28,1.28,0,0,0,.57-.38,1,1,0,0,0,.23-.7,1.07,1.07,0,0,0-.07-.32,1,1,0,0,0-.12-.25.64.64,0,0,0-.22-.21l-.26-.17-.35-.14-.37-.13-.43-.12-.45-.13c-.32-.1-.59-.19-.8-.28a3.6,3.6,0,0,1-.64-.37,1.43,1.43,0,0,1-.51-.61,2.06,2.06,0,0,1-.17-.86,2,2,0,0,1,.38-1.22,2.08,2.08,0,0,1,1-.73,3.86,3.86,0,0,1,1.37-.22,3.39,3.39,0,0,1,1.87.5,2.16,2.16,0,0,1,.93,1.5l-1.11.28a1.44,1.44,0,0,0-.59-1,1.82,1.82,0,0,0-1.1-.33,1.91,1.91,0,0,0-1,.27.91.91,0,0,0-.43.83.76.76,0,0,0,.12.42,1.07,1.07,0,0,0,.23.3,1.25,1.25,0,0,0,.42.24l.45.16.56.14.12,0c.3.07.55.14.74.2a5.36,5.36,0,0,1,.66.28,2.43,2.43,0,0,1,.6.42,1.93,1.93,0,0,1,.38.6,2.14,2.14,0,0,1,.15.82,2.31,2.31,0,0,1-.23,1,1.8,1.8,0,0,1-.63.71,2.85,2.85,0,0,1-.89.38A4.1,4.1,0,0,1,352.79,181.57Z"/>
      <path d="M361.8,173.59a3.46,3.46,0,0,1,1.39.29,3.36,3.36,0,0,1,1.14.78,3.66,3.66,0,0,1,.77,1.27,4.71,4.71,0,0,1,.29,1.66,4.09,4.09,0,0,1-1,2.9,3.37,3.37,0,0,1-2.55,1.1,3,3,0,0,1-1.6-.44,2.84,2.84,0,0,1-1.1-1.18v5.32h-1.35V173.74h1.3l0,1.5a2.77,2.77,0,0,1,1.1-1.2A3,3,0,0,1,361.8,173.59Zm-.26,6.82a2.31,2.31,0,0,0,1.77-.77,3.24,3.24,0,0,0,0-4.1,2.31,2.31,0,0,0-1.77-.77,2.37,2.37,0,0,0-1.81.8,3.16,3.16,0,0,0,0,4A2.33,2.33,0,0,0,361.54,180.41Z"/>
      <path d="M370.75,181.57a4,4,0,0,1-2-.48,3.38,3.38,0,0,1-1.39-1.39,4.29,4.29,0,0,1-.51-2.12,3.92,3.92,0,0,1,1.09-2.9,3.77,3.77,0,0,1,2.77-1.09,3.81,3.81,0,0,1,2.79,1.09,4,4,0,0,1,1.08,2.9,3.91,3.91,0,0,1-1.09,2.9A3.74,3.74,0,0,1,370.75,181.57Zm0-1.12a2.36,2.36,0,0,0,1.81-.79,3,3,0,0,0,.73-2.08,2.94,2.94,0,0,0-.73-2.07,2.33,2.33,0,0,0-1.81-.79,2.29,2.29,0,0,0-1.8.79,2.93,2.93,0,0,0-.72,2.07,3,3,0,0,0,.72,2.08A2.33,2.33,0,0,0,370.75,180.45Z"/>
      <path d="M380.36,173.59a2.7,2.7,0,0,1,1.94.7,2.6,2.6,0,0,1,.72,2v5.17h-1.35v-4.86a1.84,1.84,0,0,0-.47-1.38,1.65,1.65,0,0,0-1.2-.44,1.85,1.85,0,0,0-1.37.52,2.19,2.19,0,0,0-.54,1.57v4.59h-1.35v-7.68h1.35v1A2.56,2.56,0,0,1,380.36,173.59Z"/>
      <path d="M388.06,181.57A3.63,3.63,0,0,1,386,181a2.31,2.31,0,0,1-1-1.58l1.18-.34a1.62,1.62,0,0,0,.63,1.07,2.07,2.07,0,0,0,1.26.38,2.82,2.82,0,0,0,.74-.1,1.28,1.28,0,0,0,.57-.38,1,1,0,0,0,.22-.7.83.83,0,0,0-.06-.32c0-.09-.08-.18-.12-.25a.64.64,0,0,0-.22-.21,2.29,2.29,0,0,0-.27-.17,2.27,2.27,0,0,0-.35-.14l-.37-.13-.43-.12-.44-.13a7.85,7.85,0,0,1-.8-.28,3.66,3.66,0,0,1-.65-.37,1.49,1.49,0,0,1-.5-.61,2.06,2.06,0,0,1-.17-.86,2,2,0,0,1,.38-1.22,2.08,2.08,0,0,1,1-.73,3.84,3.84,0,0,1,1.36-.22,3.36,3.36,0,0,1,1.87.5,2.14,2.14,0,0,1,.94,1.5l-1.11.28a1.47,1.47,0,0,0-.59-1,1.84,1.84,0,0,0-1.1-.33,1.88,1.88,0,0,0-1,.27.91.91,0,0,0-.43.83.76.76,0,0,0,.11.42,1.3,1.3,0,0,0,.23.3,1.5,1.5,0,0,0,.42.24l.46.16.56.14.12,0c.3.07.54.14.73.2a5.42,5.42,0,0,1,.67.28,2.43,2.43,0,0,1,.6.42,1.92,1.92,0,0,1,.37.6,2.14,2.14,0,0,1,.16.82,2.31,2.31,0,0,1-.23,1,2,2,0,0,1-.63.71,3,3,0,0,1-.9.38A4.08,4.08,0,0,1,388.06,181.57Z"/>
      <path d="M394.79,181.57a2.57,2.57,0,0,1-1.69-.53,1.88,1.88,0,0,1-.66-1.57,2.2,2.2,0,0,1,.21-1,1.7,1.7,0,0,1,.63-.7,3.42,3.42,0,0,1,.9-.44,8.52,8.52,0,0,1,1.17-.27l1.24-.21c.45-.08.68-.32.68-.71a1.33,1.33,0,0,0-.48-1.14,1.92,1.92,0,0,0-1.21-.37,2,2,0,0,0-1.21.36,1.47,1.47,0,0,0-.57,1.07l-1.22-.25a2.4,2.4,0,0,1,1-1.65,3.6,3.6,0,0,1,2.1-.55,4.32,4.32,0,0,1,1.11.14,2.82,2.82,0,0,1,.93.43,1.87,1.87,0,0,1,.66.82,3.09,3.09,0,0,1,.24,1.27v3.17a1.29,1.29,0,0,0,.18.8.75.75,0,0,0,.6.21h.13v1h-.67c-.83,0-1.32-.34-1.46-1h-.06A2.91,2.91,0,0,1,394.79,181.57Zm.31-1.09a2.07,2.07,0,0,0,1.65-.74,3.12,3.12,0,0,0,.62-2l-2,.39a2.68,2.68,0,0,0-1.19.43,1,1,0,0,0-.39.84,1,1,0,0,0,.37.84A1.55,1.55,0,0,0,395.1,180.48Z"/>
      <path d="M405.47,173.59A3.32,3.32,0,0,1,408,174.7a4,4,0,0,1,1,2.89,4.08,4.08,0,0,1-1,2.89,3.31,3.31,0,0,1-2.54,1.11,3.06,3.06,0,0,1-1.64-.45,2.86,2.86,0,0,1-1.1-1.21l0,1.49h-1.3v-12h1.34v5.79a2.82,2.82,0,0,1,1.09-1.18A3.14,3.14,0,0,1,405.47,173.59Zm-.3,6.82a2.38,2.38,0,0,0,1.8-.78,2.89,2.89,0,0,0,.72-2,2.93,2.93,0,0,0-.72-2.05,2.38,2.38,0,0,0-1.8-.78,2.3,2.3,0,0,0-1.78.81,2.88,2.88,0,0,0-.73,2,2.94,2.94,0,0,0,.72,2A2.31,2.31,0,0,0,405.17,180.41Z"/>
      <path d="M411.17,181.42v-12h1.37v12Z"/>
      <path d="M422,177.43v.37h-6a2.69,2.69,0,0,0,.73,2,2.41,2.41,0,0,0,1.75.69,2.32,2.32,0,0,0,2.15-1.39l1.22.26a3.47,3.47,0,0,1-1.31,1.65,3.59,3.59,0,0,1-2,.6,3.75,3.75,0,0,1-2.77-1.07,4.57,4.57,0,0,1,0-5.84,3.66,3.66,0,0,1,2.72-1.07,3.46,3.46,0,0,1,2.58,1A3.89,3.89,0,0,1,422,177.43Zm-3.55-2.8a2.36,2.36,0,0,0-1.6.55,2.49,2.49,0,0,0-.81,1.58h4.61a2.3,2.3,0,0,0-.68-1.58A2.12,2.12,0,0,0,418.45,174.63Z"/>
      <path d="M339.37,189.62h1.4v11h-1.4v-4.88H333.8v4.88h-1.4v-11h1.4v4.86h5.57Z"/>
      <path d="M347,200.77a4,4,0,0,1-2-.48,3.38,3.38,0,0,1-1.39-1.39,4.29,4.29,0,0,1-.51-2.12,3.92,3.92,0,0,1,1.09-2.9,4.09,4.09,0,0,1,5.56,0,4,4,0,0,1,1.08,2.9,3.91,3.91,0,0,1-1.09,2.9A3.73,3.73,0,0,1,347,200.77Zm0-1.12a2.4,2.4,0,0,0,1.82-.79,3,3,0,0,0,.72-2.08,2.93,2.93,0,0,0-.72-2.07,2.36,2.36,0,0,0-1.82-.79,2.29,2.29,0,0,0-1.8.79,2.93,2.93,0,0,0-.72,2.07,3,3,0,0,0,.72,2.08A2.33,2.33,0,0,0,347,199.65Z"/>
      <path d="M356.61,192.79a2.69,2.69,0,0,1,1.93.7,2.6,2.6,0,0,1,.72,2v5.17h-1.35v-4.86a1.84,1.84,0,0,0-.47-1.38,1.65,1.65,0,0,0-1.2-.45,1.88,1.88,0,0,0-1.37.53,2.19,2.19,0,0,0-.54,1.57v4.59H353v-7.68h1.35v1A2.56,2.56,0,0,1,356.61,192.79Z"/>
      <path d="M368.59,196.63V197h-6a2.69,2.69,0,0,0,.73,2,2.4,2.4,0,0,0,1.75.69,2.33,2.33,0,0,0,1.27-.37,2.44,2.44,0,0,0,.88-1l1.22.26a3.48,3.48,0,0,1-1.32,1.65,3.58,3.58,0,0,1-2,.6,3.71,3.71,0,0,1-2.77-1.07,4.55,4.55,0,0,1,0-5.84,3.7,3.7,0,0,1,2.73-1.07,3.46,3.46,0,0,1,2.58,1A3.88,3.88,0,0,1,368.59,196.63Zm-3.55-2.8a2.36,2.36,0,0,0-1.6.55,2.49,2.49,0,0,0-.81,1.58h4.6a2.29,2.29,0,0,0-.67-1.58A2.14,2.14,0,0,0,365,193.83Z"/>
      <path d="M373.14,200.77a3.63,3.63,0,0,1-2.07-.55,2.28,2.28,0,0,1-1-1.58l1.18-.34a1.62,1.62,0,0,0,.63,1.07,2,2,0,0,0,1.26.38,2.82,2.82,0,0,0,.74-.1,1.2,1.2,0,0,0,.56-.38,1,1,0,0,0,.23-.7,1.07,1.07,0,0,0-.06-.32,1.17,1.17,0,0,0-.13-.25.56.56,0,0,0-.22-.21,1.64,1.64,0,0,0-.26-.17l-.35-.14-.37-.13-.43-.12-.44-.13a7.85,7.85,0,0,1-.8-.28,3.34,3.34,0,0,1-.65-.37,1.49,1.49,0,0,1-.5-.61,1.91,1.91,0,0,1-.17-.86,2,2,0,0,1,.37-1.22,2.1,2.1,0,0,1,1-.73,3.8,3.8,0,0,1,1.36-.22,3.36,3.36,0,0,1,1.87.5,2.1,2.1,0,0,1,.93,1.5l-1.11.28a1.43,1.43,0,0,0-.58-1,1.86,1.86,0,0,0-1.1-.33,1.88,1.88,0,0,0-1,.27.91.91,0,0,0-.43.83.76.76,0,0,0,.11.42,1.07,1.07,0,0,0,.23.3,1.3,1.3,0,0,0,.42.23,4.31,4.31,0,0,0,.45.17l.57.14.11,0,.74.21a6.15,6.15,0,0,1,.67.28,2.18,2.18,0,0,1,.59.42,2,2,0,0,1,.38.59,2.23,2.23,0,0,1,.16.83,2.31,2.31,0,0,1-.23,1,2,2,0,0,1-.63.71,3,3,0,0,1-.9.38A4.08,4.08,0,0,1,373.14,200.77Z"/>
      <path d="M380.54,200.62a2,2,0,0,1-1.5-.55,2.1,2.1,0,0,1-.54-1.53V194h-1.57v-1.08h.57a1.1,1.1,0,0,0,.85-.27,1.29,1.29,0,0,0,.25-.9v-1.39h1.26v2.56h1.76V194h-1.76v4.38a1.13,1.13,0,0,0,.29.84,1,1,0,0,0,.77.3h.7v1.08Z"/>
      <path d="M386.72,200.77a4,4,0,0,1-2-.48,3.38,3.38,0,0,1-1.39-1.39,4.29,4.29,0,0,1-.51-2.12,3.92,3.92,0,0,1,1.09-2.9,4.09,4.09,0,0,1,5.56,0,4,4,0,0,1,1.08,2.9,3.91,3.91,0,0,1-1.09,2.9A3.73,3.73,0,0,1,386.72,200.77Zm0-1.12a2.36,2.36,0,0,0,1.81-.79,2.93,2.93,0,0,0,.73-2.08,2.89,2.89,0,0,0-.73-2.07,2.33,2.33,0,0,0-1.81-.79,2.29,2.29,0,0,0-1.8.79,2.93,2.93,0,0,0-.72,2.07,3,3,0,0,0,.72,2.08A2.33,2.33,0,0,0,386.71,199.65Z"/>
      <path d="M333.79,218.55h3.82v1.27H332.4v-11h1.39Z"/>
      <path d="M346.15,215.83v.37h-6a2.69,2.69,0,0,0,.73,2,2.49,2.49,0,0,0,3,.32,2.35,2.35,0,0,0,.87-1l1.22.26a3.47,3.47,0,0,1-1.31,1.65,3.59,3.59,0,0,1-2,.6,3.75,3.75,0,0,1-2.77-1.07,4.57,4.57,0,0,1,0-5.84A3.66,3.66,0,0,1,342.6,212a3.46,3.46,0,0,1,2.58,1A3.88,3.88,0,0,1,346.15,215.83ZM342.6,213a2.36,2.36,0,0,0-1.6.55,2.49,2.49,0,0,0-.81,1.58h4.6a2.25,2.25,0,0,0-.67-1.58A2.12,2.12,0,0,0,342.6,213Z"/>
      <path d="M350,220a2.56,2.56,0,0,1-1.68-.53,1.88,1.88,0,0,1-.66-1.57,2.2,2.2,0,0,1,.21-1,1.7,1.7,0,0,1,.63-.7,3.42,3.42,0,0,1,.9-.44,7.88,7.88,0,0,1,1.17-.27l1.24-.21c.45-.08.68-.32.68-.71a1.33,1.33,0,0,0-.48-1.14,1.93,1.93,0,0,0-1.22-.37,2,2,0,0,0-1.2.35,1.51,1.51,0,0,0-.57,1.08l-1.22-.25a2.37,2.37,0,0,1,1-1.65,3.6,3.6,0,0,1,2.1-.55,4.32,4.32,0,0,1,1.11.14,3,3,0,0,1,.93.43,1.94,1.94,0,0,1,.66.82,3.09,3.09,0,0,1,.24,1.27v3.17a1.29,1.29,0,0,0,.18.8.73.73,0,0,0,.6.21h.13v1h-.67c-.83,0-1.32-.34-1.46-1h-.06A2.91,2.91,0,0,1,350,220Zm.32-1.09a2,2,0,0,0,1.64-.75,3,3,0,0,0,.63-2l-2,.39a2.63,2.63,0,0,0-1.19.43,1,1,0,0,0-.39.84,1,1,0,0,0,.37.84A1.55,1.55,0,0,0,350.36,218.88Z"/>
      <path d="M356.65,219.82v-12H358v12Z"/>
      <path d="M335.79,239.17a5,5,0,0,1-2.87-.78,3.27,3.27,0,0,1-1.43-2.13l1.41-.34a2.28,2.28,0,0,0,1,1.5,3.31,3.31,0,0,0,1.94.55,3.41,3.41,0,0,0,.73-.07,3,3,0,0,0,.66-.2,2.12,2.12,0,0,0,.54-.36,1.5,1.5,0,0,0,.36-.54,1.73,1.73,0,0,0,.12-.73,1.46,1.46,0,0,0-.09-.52,1.75,1.75,0,0,0-.22-.41,1.52,1.52,0,0,0-.37-.33,3.82,3.82,0,0,0-.45-.27,4.14,4.14,0,0,0-.55-.22l-.58-.18-.63-.18-.12,0-.74-.2-.68-.24a4.2,4.2,0,0,1-.66-.3,4.88,4.88,0,0,1-.53-.38,1.67,1.67,0,0,1-.44-.49,2.36,2.36,0,0,1-.27-.62,3.07,3.07,0,0,1,.41-2.47,3,3,0,0,1,1.32-1,4.76,4.76,0,0,1,1.82-.33,5,5,0,0,1,2.64.68,3,3,0,0,1,1.4,2l-1.36.34a2,2,0,0,0-.91-1.35,3.18,3.18,0,0,0-1.72-.46,3.22,3.22,0,0,0-.84.11,2.27,2.27,0,0,0-.73.31,1.46,1.46,0,0,0-.53.57,1.8,1.8,0,0,0-.2.84,1.38,1.38,0,0,0,.28.84,1.64,1.64,0,0,0,.33.3l.41.25a5.26,5.26,0,0,0,.51.19l.55.18.6.16a12.56,12.56,0,0,1,2.12.7,2.67,2.67,0,0,1,1.63,2,3.64,3.64,0,0,1,0,.48,3.06,3.06,0,0,1-.31,1.42,2.61,2.61,0,0,1-.87,1,4.57,4.57,0,0,1-1.23.55A5.83,5.83,0,0,1,335.79,239.17Z"/>
      <path d="M348.69,235v.37h-6a2.69,2.69,0,0,0,.73,2,2.4,2.4,0,0,0,1.75.69,2.33,2.33,0,0,0,1.27-.37,2.37,2.37,0,0,0,.88-1l1.22.26a3.53,3.53,0,0,1-1.31,1.65,3.59,3.59,0,0,1-2,.6,3.73,3.73,0,0,1-2.77-1.07,4.59,4.59,0,0,1,0-5.84,3.7,3.7,0,0,1,2.73-1.07,3.46,3.46,0,0,1,2.58,1A3.88,3.88,0,0,1,348.69,235Zm-3.55-2.8a2.36,2.36,0,0,0-1.6.55,2.49,2.49,0,0,0-.81,1.58h4.6a2.25,2.25,0,0,0-.67-1.58A2.14,2.14,0,0,0,345.14,232.23Z"/>
      <path d="M356.37,231.34h1.31v7.29a4.17,4.17,0,0,1-1,3,4.12,4.12,0,0,1-6.47-1.3l1.11-.55a2.55,2.55,0,0,0,2.57,1.78,2.19,2.19,0,0,0,1.8-.75,3.17,3.17,0,0,0,.63-2.1v-1.42a2.79,2.79,0,0,1-1.1,1.11,3.37,3.37,0,0,1-4.08-.67,3.78,3.78,0,0,1-1-2.73,3.74,3.74,0,0,1,1-2.72,3.32,3.32,0,0,1,2.5-1.08,3.14,3.14,0,0,1,1.6.43,2.77,2.77,0,0,1,1.09,1.14Zm-2.44,6.31a2.31,2.31,0,0,0,1.77-.78,2.8,2.8,0,0,0,0-3.76,2.33,2.33,0,0,0-1.78-.79,2.36,2.36,0,0,0-1.77.76,2.87,2.87,0,0,0,0,3.81A2.36,2.36,0,0,0,353.93,237.65Z"/>
      <path d="M365.22,231.34h1.35V239h-1.3l0-1a2.46,2.46,0,0,1-.95.86,3,3,0,0,1-1.35.3,2.67,2.67,0,0,1-1.93-.69,2.62,2.62,0,0,1-.72-2v-5.17h1.35v4.87a1.79,1.79,0,0,0,.47,1.37,1.64,1.64,0,0,0,1.21.46,1.85,1.85,0,0,0,1.36-.53,2.21,2.21,0,0,0,.54-1.57Z"/>
      <path d="M370.64,232.69a2.34,2.34,0,0,1,.95-1,2.88,2.88,0,0,1,1.48-.4v1.27a2.55,2.55,0,0,0-1.79.57,2.38,2.38,0,0,0-.61,1.82V239h-1.35v-7.68h1.32Z"/>
      <path d="M377.79,239.17a4,4,0,0,1-2-.48,3.38,3.38,0,0,1-1.39-1.39,4.29,4.29,0,0,1-.51-2.12,3.92,3.92,0,0,1,1.09-2.9,3.77,3.77,0,0,1,2.77-1.09,3.81,3.81,0,0,1,2.79,1.09,4,4,0,0,1,1.08,2.9,3.91,3.91,0,0,1-1.09,2.9A3.75,3.75,0,0,1,377.79,239.17Zm0-1.12a2.38,2.38,0,0,0,1.81-.79,3,3,0,0,0,.73-2.08,2.94,2.94,0,0,0-.73-2.07,2.34,2.34,0,0,0-1.81-.79,2.29,2.29,0,0,0-1.8.79,2.93,2.93,0,0,0-.72,2.07,3,3,0,0,0,.72,2.08A2.33,2.33,0,0,0,377.79,238.05Z"/>
    </g>
  </g>
</svg>
