<svg id="Layer_1" data-name="Layer 1" xmlns="http://www.w3.org/2000/svg" width="563.56" height="300.44" viewBox="0 0 563.56 300.44">
  <defs>
    <style>
      .cls-1 {
        fill: red;
      }

      .cls-2 {
        fill: #f2f2f2;
      }

      .cls-3 {
        opacity: 0.75;
      }

      .cls-4 {
        opacity: 0.5;
      }

      .cls-5 {
        opacity: 0.25;
      }
    </style>
  </defs>
  <g>
    <rect class="cls-1" width="281.78" height="228.44"/>
    <rect class="cls-2" x="281.78" width="281.78" height="300.44"/>
    <rect class="cls-1" y="228.44" width="70.44" height="72"/>
    <g class="cls-3">
      <rect class="cls-1" x="70.44" y="228.44" width="70.44" height="72"/>
    </g>
    <g class="cls-4">
      <rect class="cls-1" x="140.89" y="228.44" width="70.44" height="72"/>
    </g>
    <g class="cls-5">
      <rect class="cls-1" x="211.33" y="228.44" width="70.44" height="72"/>
    </g>
    <g>
      <path d="M331.85,82.4l-7-11.8h-1.62V82.4h-5.57V55.59h9.73a11.3,11.3,0,0,1,3.89.62,6.7,6.7,0,0,1,2.7,1.73,7.25,7.25,0,0,1,1.52,2.53,9.27,9.27,0,0,1,.51,3.14,6.51,6.51,0,0,1-1.46,4.4,7.33,7.33,0,0,1-4.21,2.31l8.07,12.08Zm-8.59-22.19v6.4h3.28q4.18,0,4.18-3.19a2.92,2.92,0,0,0-1-2.36,4.91,4.91,0,0,0-3.16-.85Z"/>
      <path d="M349.57,82.77a12,12,0,0,1-5.4-1.17,8.69,8.69,0,0,1-3.7-3.43,10.19,10.19,0,0,1-1.35-5.32,9.34,9.34,0,0,1,2.9-7.24,12.11,12.11,0,0,1,15.12,0,9.34,9.34,0,0,1,2.9,7.24,9.38,9.38,0,0,1-2.9,7.26A10.71,10.71,0,0,1,349.57,82.77Zm-.05-4.25A4.92,4.92,0,0,0,353.29,77a6.61,6.61,0,0,0,0-8.24,4.9,4.9,0,0,0-3.77-1.56,4.71,4.71,0,0,0-3.67,1.57,6.66,6.66,0,0,0,0,8.22A4.74,4.74,0,0,0,349.52,78.52Z"/>
      <path d="M360.11,91.35V87.17a6.07,6.07,0,0,0,2-.27,2.25,2.25,0,0,0,1.19-1,4.3,4.3,0,0,0,.57-1.65,18.78,18.78,0,0,0,.14-2.55V63.33h5.41V81.75q0,5-2.17,7.29C365.81,90.58,363.42,91.35,360.11,91.35Zm6.64-30.88a3.09,3.09,0,0,1-3.1-3.08,2.93,2.93,0,0,1,.92-2.16,3.07,3.07,0,0,1,4.34,0,3.07,3.07,0,0,1,0,4.34A3,3,0,0,1,366.75,60.47Z"/>
      <path d="M383.86,82.77a12,12,0,0,1-5.4-1.17,8.69,8.69,0,0,1-3.7-3.43,10.19,10.19,0,0,1-1.35-5.32,9.34,9.34,0,0,1,2.9-7.24,12.11,12.11,0,0,1,15.12,0,9.34,9.34,0,0,1,2.9,7.24,9.38,9.38,0,0,1-2.9,7.26A10.71,10.71,0,0,1,383.86,82.77Zm-.06-4.25A4.93,4.93,0,0,0,387.58,77a6.61,6.61,0,0,0,0-8.24,4.9,4.9,0,0,0-3.78-1.56,4.71,4.71,0,0,0-3.66,1.57,6.66,6.66,0,0,0,0,8.22A4.73,4.73,0,0,0,383.8,78.52Z"/>
    </g>
    <g>
      <path d="M326.29,152.5h-4.46v3.6h3.93v1.25h-3.93V161h4.46v1.27H320.4v-11h5.89Z"/>
      <path d="M332.25,154.39a2.69,2.69,0,0,1,1.93.7,2.6,2.6,0,0,1,.72,2v5.17h-1.35v-4.87a1.79,1.79,0,0,0-.47-1.37,1.65,1.65,0,0,0-1.2-.45,1.88,1.88,0,0,0-1.37.53,2.19,2.19,0,0,0-.54,1.57v4.59h-1.35v-7.68H330v1A2.56,2.56,0,0,1,332.25,154.39Z"/>
      <path d="M344.23,158.23v.37h-6a2.69,2.69,0,0,0,.73,2,2.4,2.4,0,0,0,1.75.69,2.33,2.33,0,0,0,1.27-.37,2.37,2.37,0,0,0,.88-1l1.22.26a3.48,3.48,0,0,1-1.32,1.65,3.54,3.54,0,0,1-2,.6A3.73,3.73,0,0,1,338,161.3a4.59,4.59,0,0,1,0-5.84,3.7,3.7,0,0,1,2.73-1.07,3.46,3.46,0,0,1,2.58,1A3.88,3.88,0,0,1,344.23,158.23Zm-3.55-2.8a2.36,2.36,0,0,0-1.6.55,2.49,2.49,0,0,0-.81,1.58h4.6a2.25,2.25,0,0,0-.67-1.58A2.14,2.14,0,0,0,340.68,155.43Z"/>
      <path d="M347.67,155.89a2.34,2.34,0,0,1,.95-1,2.88,2.88,0,0,1,1.48-.4v1.27a2.55,2.55,0,0,0-1.79.57,2.38,2.38,0,0,0-.61,1.82v4.1h-1.35v-7.68h1.32Z"/>
      <path d="M357.15,154.54h1.32v7.29a4.17,4.17,0,0,1-1,3,4.12,4.12,0,0,1-6.47-1.3l1.11-.55a2.55,2.55,0,0,0,2.57,1.78,2.23,2.23,0,0,0,1.81-.75,3.23,3.23,0,0,0,.62-2.1v-1.42a2.73,2.73,0,0,1-1.1,1.11,3.37,3.37,0,0,1-4.08-.67,4.12,4.12,0,0,1,0-5.45,3.33,3.33,0,0,1,2.5-1.08,3.21,3.21,0,0,1,1.61.43,2.81,2.81,0,0,1,1.08,1.14Zm-2.43,6.31a2.35,2.35,0,0,0,1.77-.78,2.79,2.79,0,0,0,0-3.76,2.41,2.41,0,0,0-3.54,0,2.67,2.67,0,0,0-.73,1.91,2.7,2.7,0,0,0,.73,1.9A2.36,2.36,0,0,0,354.72,160.85Z"/>
      <path d="M361.22,162.22v-7.68h1.36v7.68Zm.17-9,2-2.54.72.52-1.75,2Z"/>
      <path d="M367.1,162.37a2.6,2.6,0,0,1-1.68-.53,1.86,1.86,0,0,1-.67-1.57,2.2,2.2,0,0,1,.22-1,1.67,1.67,0,0,1,.62-.7,3.76,3.76,0,0,1,.9-.44,10.14,10.14,0,0,1,1.17-.28l1.24-.2c.46-.08.68-.32.68-.71a1.33,1.33,0,0,0-.48-1.14,1.9,1.9,0,0,0-1.21-.37,2.06,2.06,0,0,0-1.21.35,1.51,1.51,0,0,0-.57,1.08l-1.21-.26a2.33,2.33,0,0,1,1-1.64,3.54,3.54,0,0,1,2.09-.55,4.21,4.21,0,0,1,1.11.14,2.82,2.82,0,0,1,.93.43,1.89,1.89,0,0,1,.67.82,3.09,3.09,0,0,1,.24,1.27v3.17a1.3,1.3,0,0,0,.17.8.76.76,0,0,0,.61.21h.12v1h-.67a1.27,1.27,0,0,1-1.45-1h-.07A2.91,2.91,0,0,1,367.1,162.37Zm.31-1.09a2.05,2.05,0,0,0,1.65-.75,3,3,0,0,0,.62-2l-2,.39a2.73,2.73,0,0,0-1.19.43,1,1,0,0,0-.38.84,1,1,0,0,0,.37.84A1.5,1.5,0,0,0,367.41,161.28Z"/>
      <path d="M326.29,171.7h-4.46v3.6h3.93v1.26h-3.93v3.59h4.46v1.27H320.4v-11h5.89Z"/>
      <path d="M327.54,181.42l2.95-3.84-2.95-3.84h1.66l2.13,2.94,2.12-2.94h1.64l-3,3.84,3,3.84h-1.65l-2.11-2.92-2.13,2.92Z"/>
      <path d="M339.64,181.56a3.67,3.67,0,0,1-2.75-1.1,4.36,4.36,0,0,1,0-5.76,3.68,3.68,0,0,1,2.76-1.11,3.72,3.72,0,0,1,2.22.68,3.33,3.33,0,0,1,1.29,1.86l-1.26.21a2.3,2.3,0,0,0-2.26-1.62,2.27,2.27,0,0,0-1.78.79,3,3,0,0,0-.7,2.07,3,3,0,0,0,.7,2.07,2.29,2.29,0,0,0,1.78.78,2.3,2.3,0,0,0,2.26-1.62l1.26.21a3.32,3.32,0,0,1-1.3,1.87A3.71,3.71,0,0,1,339.64,181.56Z"/>
      <path d="M345.83,171.94a.87.87,0,0,1-.64-.27.89.89,0,0,1-.27-.65.87.87,0,0,1,.27-.64.92.92,0,0,1,1.28,0,.87.87,0,0,1,.27.64.89.89,0,0,1-.27.65A.87.87,0,0,1,345.83,171.94Zm-.68,9.48v-7.68h1.35v7.68Z"/>
      <path d="M351.71,181.42a2,2,0,0,1-1.5-.55,2.07,2.07,0,0,1-.55-1.53v-4.52h-1.57v-1.08h.58a1.13,1.13,0,0,0,.85-.27,1.35,1.35,0,0,0,.24-.9v-1.39H351v2.56h1.77v1.08H351v4.38a1.17,1.17,0,0,0,.29.84,1,1,0,0,0,.77.3h.71v1.08Z"/>
      <path d="M356.42,181.57a2.54,2.54,0,0,1-1.68-.53,1.85,1.85,0,0,1-.66-1.57,2.2,2.2,0,0,1,.21-1,1.67,1.67,0,0,1,.62-.7,3.76,3.76,0,0,1,.9-.44,8.52,8.52,0,0,1,1.17-.27l1.24-.21c.46-.08.68-.32.68-.71a1.33,1.33,0,0,0-.48-1.14,1.9,1.9,0,0,0-1.21-.37A2.06,2.06,0,0,0,356,175a1.51,1.51,0,0,0-.57,1.08l-1.21-.25a2.33,2.33,0,0,1,1-1.65,3.54,3.54,0,0,1,2.09-.55,4.21,4.21,0,0,1,1.11.14,2.82,2.82,0,0,1,.93.43,1.89,1.89,0,0,1,.67.82,3.09,3.09,0,0,1,.24,1.27v3.17a1.3,1.3,0,0,0,.17.8.76.76,0,0,0,.61.21h.12v1h-.67a1.27,1.27,0,0,1-1.45-1h-.07A2.91,2.91,0,0,1,356.42,181.57Zm.31-1.09a2.05,2.05,0,0,0,1.65-.75,3,3,0,0,0,.62-2l-2,.39a2.73,2.73,0,0,0-1.19.43,1,1,0,0,0-.38.84,1,1,0,0,0,.37.84A1.5,1.5,0,0,0,356.73,180.48Z"/>
      <path d="M366.06,181.56a3.67,3.67,0,0,1-2.75-1.1,4.35,4.35,0,0,1,0-5.76,3.66,3.66,0,0,1,2.75-1.11,3.72,3.72,0,0,1,2.22.68,3.4,3.4,0,0,1,1.3,1.86l-1.27.21a2.3,2.3,0,0,0-2.26-1.62,2.27,2.27,0,0,0-1.78.79,3,3,0,0,0-.69,2.07,3,3,0,0,0,.69,2.07,2.29,2.29,0,0,0,1.78.78,2.3,2.3,0,0,0,2.26-1.62l1.27.21a3.39,3.39,0,0,1-1.31,1.87A3.71,3.71,0,0,1,366.06,181.56Z"/>
      <path d="M372.25,171.94a.87.87,0,0,1-.64-.27.89.89,0,0,1-.27-.65.87.87,0,0,1,.27-.64.92.92,0,0,1,1.28,0,.87.87,0,0,1,.27.64.89.89,0,0,1-.27.65A.87.87,0,0,1,372.25,171.94Zm-.68,9.48v-7.68h1.36v7.68Z"/>
      <path d="M378.91,181.57a4,4,0,0,1-2-.48,3.42,3.42,0,0,1-1.38-1.39,4.19,4.19,0,0,1-.52-2.12,4,4,0,0,1,1.09-2.9,4.09,4.09,0,0,1,5.56,0,4.4,4.4,0,0,1,0,5.8A3.75,3.75,0,0,1,378.91,181.57Zm0-1.12a2.38,2.38,0,0,0,1.82-.79,3,3,0,0,0,.72-2.08,2.93,2.93,0,0,0-.72-2.07,2.35,2.35,0,0,0-1.82-.79,2.32,2.32,0,0,0-1.8.79,3,3,0,0,0-.71,2.07,3,3,0,0,0,.71,2.08A2.36,2.36,0,0,0,378.9,180.45Zm-.5-8,2-2.54.72.52-1.75,2Z"/>
      <path d="M388.52,173.59a2.67,2.67,0,0,1,1.93.7,2.56,2.56,0,0,1,.73,2v5.17h-1.35v-4.86a1.84,1.84,0,0,0-.47-1.38,1.69,1.69,0,0,0-1.21-.45,1.85,1.85,0,0,0-1.36.53,2.11,2.11,0,0,0-.54,1.57v4.59H384.9v-7.68h1.35v1A2.55,2.55,0,0,1,388.52,173.59Z"/>
      <path d="M324.56,189.62a3.19,3.19,0,0,1,1.72.46,3.09,3.09,0,0,1,1.16,1.22,3.58,3.58,0,0,1,.4,1.7,3.31,3.31,0,0,1-.91,2.39,3.13,3.13,0,0,1-2.37,1h-2.77v4.27H320.4v-11Zm-.2,5.51a2,2,0,0,0,1.53-.59,2.17,2.17,0,0,0,.55-1.56,2.19,2.19,0,0,0-.55-1.55,2,2,0,0,0-1.53-.6h-2.57v4.3Z"/>
      <path d="M331,200.77a2.65,2.65,0,0,1-1.69-.53,1.88,1.88,0,0,1-.66-1.57,2.08,2.08,0,0,1,.22-1,1.67,1.67,0,0,1,.62-.7,3.76,3.76,0,0,1,.9-.44,10.14,10.14,0,0,1,1.17-.28l1.24-.2c.46-.08.68-.32.68-.71a1.33,1.33,0,0,0-.48-1.14,1.9,1.9,0,0,0-1.21-.37,2.06,2.06,0,0,0-1.21.35,1.51,1.51,0,0,0-.57,1.08l-1.21-.26a2.33,2.33,0,0,1,1-1.64,3.54,3.54,0,0,1,2.09-.55A4.21,4.21,0,0,1,333,193a2.82,2.82,0,0,1,.93.43,1.89,1.89,0,0,1,.67.82,3.09,3.09,0,0,1,.24,1.27v3.17a1.3,1.3,0,0,0,.17.8.76.76,0,0,0,.61.21h.12v1h-.67a1.27,1.27,0,0,1-1.45-1h-.07A2.91,2.91,0,0,1,331,200.77Zm.31-1.09a2.05,2.05,0,0,0,1.65-.75,3,3,0,0,0,.62-2l-2,.39a2.73,2.73,0,0,0-1.19.43,1,1,0,0,0-.39.84,1,1,0,0,0,.38.84A1.5,1.5,0,0,0,331.34,199.68Z"/>
      <path d="M340.07,200.77a3.63,3.63,0,0,1-2.07-.55,2.28,2.28,0,0,1-1-1.58l1.18-.34a1.62,1.62,0,0,0,.63,1.07,2,2,0,0,0,1.26.38,2.82,2.82,0,0,0,.74-.1,1.2,1.2,0,0,0,.56-.38,1,1,0,0,0,.23-.7,1.52,1.52,0,0,0-.06-.32,1.17,1.17,0,0,0-.13-.25.56.56,0,0,0-.22-.21,2.26,2.26,0,0,0-.26-.17l-.35-.14-.37-.13-.43-.12-.44-.13a7.85,7.85,0,0,1-.8-.28,3.34,3.34,0,0,1-.65-.37,1.49,1.49,0,0,1-.5-.61,1.91,1.91,0,0,1-.17-.86,2,2,0,0,1,.37-1.23,2.15,2.15,0,0,1,1-.72,3.8,3.8,0,0,1,1.36-.22,3.36,3.36,0,0,1,1.87.5,2.1,2.1,0,0,1,.93,1.5l-1.11.28a1.46,1.46,0,0,0-.58-1,1.86,1.86,0,0,0-1.1-.33,1.88,1.88,0,0,0-1,.27.91.91,0,0,0-.43.83.76.76,0,0,0,.11.42,1.07,1.07,0,0,0,.23.3,1.3,1.3,0,0,0,.42.23,3.6,3.6,0,0,0,.45.17l.57.14.11,0,.74.21a6.15,6.15,0,0,1,.67.28,2.18,2.18,0,0,1,.59.42,2,2,0,0,1,.38.59,2.23,2.23,0,0,1,.16.83,2.31,2.31,0,0,1-.23,1,1.86,1.86,0,0,1-.63.7,2.8,2.8,0,0,1-.9.39A4.08,4.08,0,0,1,340.07,200.77Z"/>
      <path d="M345.71,191.14a.92.92,0,0,1-.92-.92.87.87,0,0,1,.27-.64.92.92,0,0,1,.65-.26.9.9,0,0,1,.9.9.89.89,0,0,1-.27.65A.85.85,0,0,1,345.71,191.14Zm-.69,9.48v-7.68h1.36v7.68Z"/>
      <path d="M352.36,200.77a4,4,0,0,1-2-.48A3.38,3.38,0,0,1,349,198.9a4.29,4.29,0,0,1-.51-2.12,3.92,3.92,0,0,1,1.09-2.9,3.77,3.77,0,0,1,2.77-1.09,3.81,3.81,0,0,1,2.79,1.09,4,4,0,0,1,1.08,2.9,3.91,3.91,0,0,1-1.09,2.9A3.74,3.74,0,0,1,352.36,200.77Zm0-1.12a2.38,2.38,0,0,0,1.81-.79,3,3,0,0,0,.73-2.08,2.94,2.94,0,0,0-.73-2.07,2.34,2.34,0,0,0-1.81-.79,2.29,2.29,0,0,0-1.8.79,2.93,2.93,0,0,0-.72,2.07,3,3,0,0,0,.72,2.08A2.33,2.33,0,0,0,352.36,199.65Zm-.51-8,2-2.54.72.52-1.75,2Z"/>
      <path d="M362,192.79a2.71,2.71,0,0,1,1.94.7,2.6,2.6,0,0,1,.72,2v5.17h-1.35v-4.87a1.83,1.83,0,0,0-.47-1.37,1.65,1.65,0,0,0-1.2-.45,1.86,1.86,0,0,0-1.37.53,2.15,2.15,0,0,0-.54,1.57v4.59h-1.35v-7.68h1.35v1A2.56,2.56,0,0,1,362,192.79Z"/>
      <path d="M325.11,220a5.93,5.93,0,0,1-2.17-.39,5.62,5.62,0,0,1-1.74-1.11,5,5,0,0,1-1.15-1.79,6.84,6.84,0,0,1,0-4.72,5.09,5.09,0,0,1,1.16-1.79,5.29,5.29,0,0,1,1.73-1.11,5.93,5.93,0,0,1,2.17-.39,5.55,5.55,0,0,1,2.92.78A4.82,4.82,0,0,1,330,211.6l-1.29.53a3.71,3.71,0,0,0-1.44-1.57,4.12,4.12,0,0,0-2.13-.55,4.47,4.47,0,0,0-1.61.29,3.81,3.81,0,0,0-1.29.83,3.7,3.7,0,0,0-.87,1.36,5,5,0,0,0-.32,1.82,5.11,5.11,0,0,0,.32,1.84,3.7,3.7,0,0,0,.87,1.36,3.81,3.81,0,0,0,1.29.83,4.27,4.27,0,0,0,1.61.29,4.12,4.12,0,0,0,2.13-.55,3.66,3.66,0,0,0,1.44-1.55l1.29.52A4.8,4.8,0,0,1,328,219.2,5.65,5.65,0,0,1,325.11,220Z"/>
      <path d="M335.25,220a4,4,0,0,1-2-.48,3.38,3.38,0,0,1-1.39-1.39,4.29,4.29,0,0,1-.51-2.12,3.92,3.92,0,0,1,1.09-2.9,4.09,4.09,0,0,1,5.56,0,4,4,0,0,1,1.08,2.9,3.91,3.91,0,0,1-1.09,2.9A3.73,3.73,0,0,1,335.25,220Zm0-1.12a2.4,2.4,0,0,0,1.82-.79,3,3,0,0,0,.72-2.08,2.93,2.93,0,0,0-.72-2.07,2.36,2.36,0,0,0-1.82-.79,2.31,2.31,0,0,0-1.8.79,2.93,2.93,0,0,0-.72,2.07,3,3,0,0,0,.72,2.08A2.34,2.34,0,0,0,335.24,218.85Z"/>
      <path d="M342.55,213.49a2.34,2.34,0,0,1,.95-1,2.91,2.91,0,0,1,1.48-.4v1.27a2.5,2.5,0,0,0-1.78.57,2.38,2.38,0,0,0-.62,1.82v4.1h-1.35v-7.68h1.32Z"/>
      <path d="M348.25,220a2.63,2.63,0,0,1-1.69-.53,1.88,1.88,0,0,1-.66-1.57,2.2,2.2,0,0,1,.21-1,1.7,1.7,0,0,1,.63-.7,3.58,3.58,0,0,1,.9-.44,8.52,8.52,0,0,1,1.17-.27l1.24-.21c.45-.08.68-.32.68-.71a1.33,1.33,0,0,0-.48-1.14A1.9,1.9,0,0,0,349,213a2.06,2.06,0,0,0-1.21.35,1.51,1.51,0,0,0-.57,1.08l-1.22-.25a2.4,2.4,0,0,1,1-1.65,3.6,3.6,0,0,1,2.1-.55,4.27,4.27,0,0,1,1.11.14,2.82,2.82,0,0,1,.93.43,2,2,0,0,1,.67.82,3.27,3.27,0,0,1,.23,1.27v3.17a1.29,1.29,0,0,0,.18.8.76.76,0,0,0,.61.21H353v1h-.67a1.27,1.27,0,0,1-1.45-1h-.07A2.91,2.91,0,0,1,348.25,220Zm.31-1.09a2.05,2.05,0,0,0,1.65-.75,3.08,3.08,0,0,0,.62-2l-2,.39a2.68,2.68,0,0,0-1.19.43,1,1,0,0,0-.39.84,1,1,0,0,0,.37.84A1.55,1.55,0,0,0,348.56,218.88Z"/>
      <path d="M353.09,223.42v-1.15a2.24,2.24,0,0,0,1.1-.22,1.21,1.21,0,0,0,.52-.75,6.28,6.28,0,0,0,.15-1.59v-7.57h1.36v7.57a4.43,4.43,0,0,1-.71,2.87A3,3,0,0,1,353.09,223.42Zm2.46-13.08a.87.87,0,0,1-.64-.27.89.89,0,0,1-.27-.65.87.87,0,0,1,.27-.64.92.92,0,0,1,1.28,0,.87.87,0,0,1,.27.64.89.89,0,0,1-.27.65A.87.87,0,0,1,355.55,210.34Z"/>
      <path d="M365.7,215.83l0,.37h-6a2.73,2.73,0,0,0,.74,2,2.4,2.4,0,0,0,1.75.69,2.33,2.33,0,0,0,1.27-.37,2.44,2.44,0,0,0,.88-1l1.22.26a3.48,3.48,0,0,1-1.32,1.65,3.59,3.59,0,0,1-2,.6,3.71,3.71,0,0,1-2.76-1.07,4.55,4.55,0,0,1,0-5.84,3.7,3.7,0,0,1,2.73-1.07,3.46,3.46,0,0,1,2.58,1A3.88,3.88,0,0,1,365.7,215.83Zm-3.55-2.8a2.36,2.36,0,0,0-1.6.55,2.49,2.49,0,0,0-.81,1.58h4.6a2.29,2.29,0,0,0-.67-1.58A2.15,2.15,0,0,0,362.15,213Z"/>
      <path d="M327.46,239l-.95-2.63h-5L320.6,239h-1.46l4.05-11h1.67l4.06,11ZM322,235.15h4.1L324,229.43Z"/>
      <path d="M333.22,239a2,2,0,0,1-1.5-.55,2.07,2.07,0,0,1-.55-1.53v-4.52H329.6v-1.08h.58a1.08,1.08,0,0,0,.84-.27,1.29,1.29,0,0,0,.25-.9v-1.39h1.26v2.56h1.76v1.08h-1.76v4.38a1.17,1.17,0,0,0,.29.84,1,1,0,0,0,.77.3h.7V239Z"/>
      <path d="M342.87,235v.37h-6a2.69,2.69,0,0,0,.73,2,2.4,2.4,0,0,0,1.75.69,2.33,2.33,0,0,0,1.27-.37,2.37,2.37,0,0,0,.88-1l1.22.26a3.53,3.53,0,0,1-1.31,1.65,3.59,3.59,0,0,1-2,.6,3.73,3.73,0,0,1-2.77-1.07,4.59,4.59,0,0,1,0-5.84,3.7,3.7,0,0,1,2.73-1.07,3.46,3.46,0,0,1,2.58,1A3.88,3.88,0,0,1,342.87,235Zm-3.55-2.8a2.36,2.36,0,0,0-1.6.55,2.49,2.49,0,0,0-.81,1.58h4.6a2.25,2.25,0,0,0-.67-1.58A2.14,2.14,0,0,0,339.32,232.23Z"/>
      <path d="M348.61,231.19a2.7,2.7,0,0,1,1.94.7,2.6,2.6,0,0,1,.72,2V239h-1.35v-4.87a1.83,1.83,0,0,0-.47-1.37,1.65,1.65,0,0,0-1.2-.45,1.86,1.86,0,0,0-1.37.53,2.19,2.19,0,0,0-.54,1.57V239H345v-7.68h1.35v1A2.56,2.56,0,0,1,348.61,231.19Z"/>
      <path d="M357.07,239.16a3.67,3.67,0,0,1-2.75-1.1,4.36,4.36,0,0,1,0-5.76,3.68,3.68,0,0,1,2.76-1.11,3.72,3.72,0,0,1,2.22.68,3.33,3.33,0,0,1,1.29,1.86l-1.26.21a2.35,2.35,0,0,0-.87-1.2,2.38,2.38,0,0,0-1.39-.42,2.27,2.27,0,0,0-1.78.79,3.4,3.4,0,0,0,0,4.13,2.27,2.27,0,0,0,1.78.79,2.38,2.38,0,0,0,1.39-.42,2.35,2.35,0,0,0,.87-1.2l1.26.21a3.32,3.32,0,0,1-1.3,1.87A3.71,3.71,0,0,1,357.07,239.16Z"/>
      <path d="M363.26,229.54a.87.87,0,0,1-.64-.27.89.89,0,0,1-.27-.65.87.87,0,0,1,.27-.64.92.92,0,0,1,1.28,0,.87.87,0,0,1,.27.64.89.89,0,0,1-.27.65A.87.87,0,0,1,363.26,229.54Zm-.68,9.48v-7.68h1.35V239Z"/>
      <path d="M369.92,239.17a4,4,0,0,1-2-.48,3.44,3.44,0,0,1-1.39-1.39,4.29,4.29,0,0,1-.51-2.12,4,4,0,0,1,1.09-2.9,4.09,4.09,0,0,1,5.56,0,4.4,4.4,0,0,1,0,5.8A3.77,3.77,0,0,1,369.92,239.17Zm0-1.12a2.38,2.38,0,0,0,1.82-.79,3,3,0,0,0,.72-2.08,2.93,2.93,0,0,0-.72-2.07,2.35,2.35,0,0,0-1.82-.79,2.32,2.32,0,0,0-1.8.79,2.93,2.93,0,0,0-.71,2.07,3,3,0,0,0,.71,2.08A2.36,2.36,0,0,0,369.91,238.05Zm-.51-8,2-2.54.72.52-1.75,2Z"/>
      <path d="M379.53,231.19a2.69,2.69,0,0,1,1.93.7,2.6,2.6,0,0,1,.72,2V239h-1.35v-4.87a1.79,1.79,0,0,0-.47-1.37,1.65,1.65,0,0,0-1.2-.45,1.88,1.88,0,0,0-1.37.53,2.19,2.19,0,0,0-.54,1.57V239H375.9v-7.68h1.35v1A2.56,2.56,0,0,1,379.53,231.19Z"/>
    </g>
    <g>
      <path d="M324.83,117.11a3.41,3.41,0,0,1,2.6,1,3.69,3.69,0,0,1,1,2.6,3.55,3.55,0,0,1-1,2.58,3.43,3.43,0,0,1-2.6,1h-2.36v4h-2.34V117.11Zm-.4,5.28a1.68,1.68,0,0,0,1.29-.44,1.65,1.65,0,0,0,.43-1.22,1.68,1.68,0,0,0-.43-1.21,1.71,1.71,0,0,0-1.29-.45h-2v3.32Z"/>
      <path d="M333.55,128.56a5.15,5.15,0,0,1-2.27-.49,3.7,3.7,0,0,1-1.56-1.45,4.26,4.26,0,0,1-.57-2.24,4,4,0,0,1,1.22-3,5.09,5.09,0,0,1,6.37,0,4.44,4.44,0,0,1,0,6.11A4.52,4.52,0,0,1,333.55,128.56Zm0-1.79a2.07,2.07,0,0,0,1.59-.66,2.44,2.44,0,0,0,.6-1.73,2.49,2.49,0,0,0-.6-1.74,2.1,2.1,0,0,0-1.59-.65,2,2,0,0,0-1.54.66,2.79,2.79,0,0,0,0,3.46A2,2,0,0,0,333.53,126.77Z"/>
      <path d="M342.46,128.56a4.57,4.57,0,0,1-2.35-.56,2.4,2.4,0,0,1-1.14-1.68l1.88-.53a1.51,1.51,0,0,0,1.61,1.2,1.58,1.58,0,0,0,.82-.19.63.63,0,0,0,.32-.62.69.69,0,0,0-.13-.41,1.24,1.24,0,0,0-.41-.3l-.55-.21-.72-.21a7.45,7.45,0,0,1-.74-.23,4.33,4.33,0,0,1-.71-.3,2.68,2.68,0,0,1-.58-.41,1.67,1.67,0,0,1-.44-.63,2.31,2.31,0,0,1-.15-.86,2.06,2.06,0,0,1,.87-1.8,3.94,3.94,0,0,1,2.28-.61,4,4,0,0,1,2.1.52,2.32,2.32,0,0,1,1.08,1.61l-1.75.39a1.35,1.35,0,0,0-1.42-1,1.54,1.54,0,0,0-.79.18.59.59,0,0,0-.32.54.64.64,0,0,0,0,.24.48.48,0,0,0,.16.19l.23.15a1.48,1.48,0,0,0,.32.13,2.89,2.89,0,0,0,.35.1l.41.11.42.11c.29.08.54.15.76.23a5.28,5.28,0,0,1,.69.33,2.66,2.66,0,0,1,.6.47,2.29,2.29,0,0,1,.4.67,2.48,2.48,0,0,1,.15.89,2.39,2.39,0,0,1-.27,1.16,2,2,0,0,1-.74.79,3.55,3.55,0,0,1-1,.42A5.44,5.44,0,0,1,342.46,128.56Z"/>
      <path d="M348.53,119.17a1.26,1.26,0,0,1-.92-.38,1.27,1.27,0,0,1,0-1.83,1.28,1.28,0,0,1,.92-.38,1.3,1.3,0,0,1,0,2.59Zm-1.15,9.23v-8h2.27v8Z"/>
      <path d="M355,128.4a2.41,2.41,0,0,1-1.82-.65,2.56,2.56,0,0,1-.64-1.86V122.1h-1.58v-1.73h.51a1.32,1.32,0,0,0,1-.33,1.73,1.73,0,0,0,.32-1.2v-1.06h2v2.59h1.66v1.73h-1.66v3.55c0,.7.31,1,.93,1h.73v1.71Z"/>
      <path d="M359.34,119.17a1.26,1.26,0,0,1-.92-.38,1.22,1.22,0,0,1-.38-.92,1.25,1.25,0,0,1,.38-.91,1.29,1.29,0,0,1,.92-.38,1.27,1.27,0,0,1,.91.38,1.29,1.29,0,0,1,0,1.83A1.27,1.27,0,0,1,359.34,119.17Zm-1.15,9.23v-8h2.27v8Z"/>
      <path d="M368,120.37h2.39l-3.43,8h-2l-3.38-8H364l2,5.49Z"/>
      <path d="M375,128.56a5.17,5.17,0,0,1-2.28-.49,3.62,3.62,0,0,1-1.55-1.45,4.26,4.26,0,0,1-.57-2.24,3.91,3.91,0,0,1,1.22-3,5.07,5.07,0,0,1,6.36,0,4.44,4.44,0,0,1,0,6.11A4.49,4.49,0,0,1,375,128.56Zm0-1.79a2,2,0,0,0,1.59-.66,2.41,2.41,0,0,0,.61-1.73,2.45,2.45,0,0,0-.61-1.74A2.07,2.07,0,0,0,375,122a2,2,0,0,0-1.54.66,2.79,2.79,0,0,0,0,3.46A2,2,0,0,0,375,126.77Z"/>
    </g>
    <g>
      <path d="M451.48,152.5H447v3.6H451v1.25H447V161h4.47v1.27h-5.9v-11h5.9Z"/>
      <path d="M457.43,154.39a2.71,2.71,0,0,1,1.94.7,2.6,2.6,0,0,1,.72,2v5.17h-1.35v-4.87a1.83,1.83,0,0,0-.47-1.37,1.68,1.68,0,0,0-1.21-.45,1.85,1.85,0,0,0-1.36.53,2.11,2.11,0,0,0-.54,1.57v4.59h-1.35v-7.68h1.35v1A2.56,2.56,0,0,1,457.43,154.39Z"/>
      <path d="M465.93,162.37a4,4,0,0,1-2-.48,3.42,3.42,0,0,1-1.38-1.39,4.3,4.3,0,0,1-.52-2.12,4,4,0,0,1,1.09-2.9,4.09,4.09,0,0,1,5.56,0,4.4,4.4,0,0,1,0,5.8A3.75,3.75,0,0,1,465.93,162.37Zm0-1.12a2.38,2.38,0,0,0,1.82-.79,3,3,0,0,0,.72-2.08,2.93,2.93,0,0,0-.72-2.07,2.35,2.35,0,0,0-1.82-.79,2.32,2.32,0,0,0-1.8.79,3,3,0,0,0-.71,2.07,3,3,0,0,0,.71,2.08A2.36,2.36,0,0,0,465.92,161.25Z"/>
      <path d="M470.15,165.82v-1.15a2.24,2.24,0,0,0,1.1-.22,1.21,1.21,0,0,0,.52-.75,6.28,6.28,0,0,0,.15-1.59v-7.57h1.36v7.57a4.43,4.43,0,0,1-.71,2.87A3,3,0,0,1,470.15,165.82Zm2.46-13.08a.87.87,0,0,1-.64-.27.89.89,0,0,1-.27-.65.87.87,0,0,1,.27-.64.92.92,0,0,1,1.28,0,.87.87,0,0,1,.27.64.89.89,0,0,1-.27.65A.87.87,0,0,1,472.61,152.74Z"/>
      <path d="M479.28,162.37a4,4,0,0,1-2-.48,3.38,3.38,0,0,1-1.39-1.39,4.29,4.29,0,0,1-.51-2.12,3.92,3.92,0,0,1,1.09-2.9,4.09,4.09,0,0,1,5.56,0,4,4,0,0,1,1.08,2.9,3.91,3.91,0,0,1-1.09,2.9A3.73,3.73,0,0,1,479.28,162.37Zm0-1.12a2.36,2.36,0,0,0,1.81-.79,2.93,2.93,0,0,0,.73-2.08,2.89,2.89,0,0,0-.73-2.07,2.33,2.33,0,0,0-1.81-.79,2.29,2.29,0,0,0-1.8.79,2.93,2.93,0,0,0-.72,2.07,3,3,0,0,0,.72,2.08A2.33,2.33,0,0,0,479.27,161.25Z"/>
      <path d="M449.74,170.42a3.24,3.24,0,0,1,1.73.46,3.07,3.07,0,0,1,1.15,1.22,3.59,3.59,0,0,1,.41,1.7,3.36,3.36,0,0,1-.91,2.39,3.13,3.13,0,0,1-2.38,1H447v4.27h-1.4v-11Zm-.2,5.51a2,2,0,0,0,1.53-.59,2.18,2.18,0,0,0,.56-1.56,2.2,2.2,0,0,0-.56-1.55,2,2,0,0,0-1.53-.6H447v4.3Z"/>
      <path d="M461.16,177.43l0,.37h-6a2.69,2.69,0,0,0,.74,2,2.4,2.4,0,0,0,1.75.69,2.33,2.33,0,0,0,1.27-.37,2.44,2.44,0,0,0,.88-1l1.21.26a3.41,3.41,0,0,1-1.31,1.65,3.59,3.59,0,0,1-2,.6,3.71,3.71,0,0,1-2.76-1.07,4,4,0,0,1-1.06-2.92,4,4,0,0,1,1.06-2.92,3.68,3.68,0,0,1,2.72-1.07,3.47,3.47,0,0,1,2.59,1A3.92,3.92,0,0,1,461.16,177.43Zm-3.56-2.8a2.35,2.35,0,0,0-1.59.55,2.49,2.49,0,0,0-.81,1.58h4.6a2.29,2.29,0,0,0-.67-1.58A2.16,2.16,0,0,0,457.6,174.63Z"/>
      <path d="M463.28,181.42v-12h1.36v12Z"/>
      <path d="M468.08,171.94a.87.87,0,0,1-.64-.27.89.89,0,0,1-.27-.65.87.87,0,0,1,.27-.64.92.92,0,0,1,1.28,0,.87.87,0,0,1,.27.64.89.89,0,0,1-.27.65A.87.87,0,0,1,468.08,171.94Zm-.69,9.48v-7.68h1.36v7.68Z"/>
      <path d="M477.06,173.74h1.32V181a4.17,4.17,0,0,1-1,3,4.13,4.13,0,0,1-6.48-1.3l1.12-.55A2.54,2.54,0,0,0,474.6,184a2.22,2.22,0,0,0,1.8-.75,3.23,3.23,0,0,0,.62-2.1v-1.42a2.73,2.73,0,0,1-1.1,1.11,3.37,3.37,0,0,1-4.08-.67,3.83,3.83,0,0,1-1-2.73,3.78,3.78,0,0,1,1-2.72,3.33,3.33,0,0,1,2.5-1.08A3.18,3.18,0,0,1,476,174a2.81,2.81,0,0,1,1.08,1.14Zm-2.43,6.32a2.35,2.35,0,0,0,1.77-.79,2.71,2.71,0,0,0,.73-1.88,2.64,2.64,0,0,0-.73-1.88,2.29,2.29,0,0,0-1.77-.79,2.33,2.33,0,0,0-1.77.76,2.7,2.7,0,0,0-.72,1.91,2.66,2.66,0,0,0,.73,1.9A2.33,2.33,0,0,0,474.63,180.06Z"/>
      <path d="M482.45,175.09a2.34,2.34,0,0,1,.95-1,2.88,2.88,0,0,1,1.48-.4v1.27a2.55,2.55,0,0,0-1.79.57,2.38,2.38,0,0,0-.61,1.82v4.1h-1.35v-7.68h1.32Z"/>
      <path d="M489.6,181.57a4,4,0,0,1-2-.48,3.38,3.38,0,0,1-1.39-1.39,4.29,4.29,0,0,1-.51-2.12,3.92,3.92,0,0,1,1.09-2.9,3.77,3.77,0,0,1,2.77-1.09,3.81,3.81,0,0,1,2.79,1.09,4,4,0,0,1,1.08,2.9,3.91,3.91,0,0,1-1.09,2.9A3.75,3.75,0,0,1,489.6,181.57Zm0-1.12a2.36,2.36,0,0,0,1.81-.79,3,3,0,0,0,.73-2.08,2.94,2.94,0,0,0-.73-2.07,2.33,2.33,0,0,0-1.81-.79,2.29,2.29,0,0,0-1.8.79,2.93,2.93,0,0,0-.72,2.07,3,3,0,0,0,.72,2.08A2.33,2.33,0,0,0,489.6,180.45Z"/>
      <path d="M445.58,200.62v-11h3.55a5.32,5.32,0,0,1,2.8.71,4.43,4.43,0,0,1,1.72,1.94,6.79,6.79,0,0,1,.56,2.84,7.1,7.1,0,0,1-.33,2.23,4.89,4.89,0,0,1-.95,1.74,4.2,4.2,0,0,1-1.6,1.14,5.64,5.64,0,0,1-2.2.4Zm1.4-1.27h2.1a3.37,3.37,0,0,0,2.75-1.13,4.78,4.78,0,0,0,.92-3.11,4.71,4.71,0,0,0-.93-3.09,3.34,3.34,0,0,0-2.74-1.12H447Z"/>
      <path d="M463.29,196.63V197h-6a2.69,2.69,0,0,0,.73,2,2.4,2.4,0,0,0,1.75.69,2.33,2.33,0,0,0,1.27-.37,2.37,2.37,0,0,0,.88-1l1.22.26a3.48,3.48,0,0,1-1.32,1.65,3.54,3.54,0,0,1-2,.6A3.73,3.73,0,0,1,457,199.7a4.59,4.59,0,0,1,0-5.84,3.7,3.7,0,0,1,2.73-1.07,3.46,3.46,0,0,1,2.58,1A3.88,3.88,0,0,1,463.29,196.63Zm-3.55-2.8a2.36,2.36,0,0,0-1.6.55,2.49,2.49,0,0,0-.81,1.58h4.6a2.25,2.25,0,0,0-.67-1.58A2.14,2.14,0,0,0,459.74,193.83Z"/>
      <path d="M467.84,200.77a3.63,3.63,0,0,1-2.07-.55,2.31,2.31,0,0,1-1-1.58l1.18-.34a1.62,1.62,0,0,0,.63,1.07,2.05,2.05,0,0,0,1.26.38,2.82,2.82,0,0,0,.74-.1,1.28,1.28,0,0,0,.57-.38,1,1,0,0,0,.22-.7.83.83,0,0,0-.06-.32,1.17,1.17,0,0,0-.13-.25.6.6,0,0,0-.21-.21,2.29,2.29,0,0,0-.27-.17,2.27,2.27,0,0,0-.35-.14l-.37-.13-.43-.12-.44-.13a7.85,7.85,0,0,1-.8-.28,3.34,3.34,0,0,1-.65-.37,1.49,1.49,0,0,1-.5-.61A1.91,1.91,0,0,1,465,195a2,2,0,0,1,.37-1.23,2.15,2.15,0,0,1,1-.72,3.84,3.84,0,0,1,1.36-.22,3.36,3.36,0,0,1,1.87.5,2.1,2.1,0,0,1,.93,1.5l-1.1.28a1.47,1.47,0,0,0-.59-1,1.86,1.86,0,0,0-1.1-.33,1.88,1.88,0,0,0-1,.27.91.91,0,0,0-.43.83.76.76,0,0,0,.11.42,1,1,0,0,0,.65.53,4.26,4.26,0,0,0,.46.17l.56.14.12,0,.73.21a6.15,6.15,0,0,1,.67.28,2.43,2.43,0,0,1,.6.42,2,2,0,0,1,.37.59,2.23,2.23,0,0,1,.16.83,2.31,2.31,0,0,1-.23,1,1.86,1.86,0,0,1-.63.7,2.8,2.8,0,0,1-.9.39A4.08,4.08,0,0,1,467.84,200.77Z"/>
      <path d="M474.56,200.77a2.62,2.62,0,0,1-1.68-.53,1.88,1.88,0,0,1-.66-1.57,2.2,2.2,0,0,1,.21-1,1.7,1.7,0,0,1,.63-.7,3.42,3.42,0,0,1,.9-.44,9.22,9.22,0,0,1,1.17-.28l1.24-.2c.45-.08.68-.32.68-.71a1.33,1.33,0,0,0-.48-1.14,1.93,1.93,0,0,0-1.22-.37,2,2,0,0,0-1.2.35,1.51,1.51,0,0,0-.57,1.08l-1.22-.26a2.4,2.4,0,0,1,1-1.64,3.6,3.6,0,0,1,2.1-.55,4.32,4.32,0,0,1,1.11.14,2.82,2.82,0,0,1,.93.43,1.94,1.94,0,0,1,.66.82,3.09,3.09,0,0,1,.24,1.27v3.17a1.29,1.29,0,0,0,.18.8.74.74,0,0,0,.6.21h.13v1h-.67c-.83,0-1.32-.34-1.46-1h-.06A2.91,2.91,0,0,1,474.56,200.77Zm.32-1.09a2.05,2.05,0,0,0,1.65-.75,3.08,3.08,0,0,0,.62-2l-2,.39a2.68,2.68,0,0,0-1.19.43,1,1,0,0,0-.39.84,1,1,0,0,0,.37.84A1.55,1.55,0,0,0,474.88,199.68Z"/>
      <path d="M484.7,189.75h-.3l-.28,0a1.42,1.42,0,0,0-.28,0l-.24.08a.56.56,0,0,0-.23.13l-.18.2a.69.69,0,0,0-.15.28,2.67,2.67,0,0,0-.09.38,3.43,3.43,0,0,0,0,.48v1.58h1.78V194h-1.78v6.6h-1.35V194h-1.48v-1.08h1.48v-1.61a4.74,4.74,0,0,1,.08-.89,3.4,3.4,0,0,1,.22-.68,1.76,1.76,0,0,1,.37-.49,2.86,2.86,0,0,1,.47-.33,2.19,2.19,0,0,1,.58-.19,5.57,5.57,0,0,1,.66-.1q.33,0,.75,0Z"/>
      <path d="M486.26,200.62v-7.68h1.36v7.68Zm.17-9,2-2.54.72.52-1.75,2Z"/>
      <path d="M493.6,200.77a4,4,0,0,1-2-.48,3.38,3.38,0,0,1-1.39-1.39,4.29,4.29,0,0,1-.51-2.12,3.92,3.92,0,0,1,1.09-2.9,3.77,3.77,0,0,1,2.77-1.09,3.81,3.81,0,0,1,2.79,1.09,4,4,0,0,1,1.08,2.9,3.91,3.91,0,0,1-1.09,2.9A3.75,3.75,0,0,1,493.6,200.77Zm0-1.12a2.36,2.36,0,0,0,1.81-.79,3,3,0,0,0,.73-2.08,2.94,2.94,0,0,0-.73-2.07,2.33,2.33,0,0,0-1.81-.79,2.29,2.29,0,0,0-1.8.79,2.93,2.93,0,0,0-.72,2.07,3,3,0,0,0,.72,2.08A2.33,2.33,0,0,0,493.6,199.65Z"/>
      <path d="M452.64,219.82l-.94-2.63h-5l-.94,2.63h-1.46l4.06-11h1.67l4.05,11ZM447.17,216h4.09l-2.05-5.73Z"/>
      <path d="M461.4,212.14h1.31v7.29a4.17,4.17,0,0,1-1,3,4.13,4.13,0,0,1-6.48-1.3l1.12-.55a2.54,2.54,0,0,0,2.57,1.78,2.19,2.19,0,0,0,1.8-.75,3.17,3.17,0,0,0,.62-2.1v-1.42a2.71,2.71,0,0,1-1.09,1.11,3.26,3.26,0,0,1-1.6.41,3.31,3.31,0,0,1-2.49-1.08,3.82,3.82,0,0,1-1-2.73,3.74,3.74,0,0,1,1-2.72,3.29,3.29,0,0,1,2.49-1.08,3.15,3.15,0,0,1,1.61.43,2.77,2.77,0,0,1,1.09,1.14ZM459,218.46a2.32,2.32,0,0,0,1.77-.79,2.8,2.8,0,0,0,0-3.76,2.33,2.33,0,0,0-1.78-.79,2.36,2.36,0,0,0-1.77.76,2.7,2.7,0,0,0-.72,1.91,2.66,2.66,0,0,0,.73,1.9A2.37,2.37,0,0,0,459,218.46Z"/>
      <path d="M466.78,213.49a2.37,2.37,0,0,1,1-1,2.84,2.84,0,0,1,1.47-.4v1.27a2.52,2.52,0,0,0-1.78.57,2.38,2.38,0,0,0-.62,1.82v4.1h-1.35v-7.68h1.32Z"/>
      <path d="M477.42,215.83v.37h-6a2.69,2.69,0,0,0,.73,2,2.4,2.4,0,0,0,1.75.69,2.32,2.32,0,0,0,2.15-1.39l1.22.26a3.47,3.47,0,0,1-1.31,1.65,3.59,3.59,0,0,1-2,.6,3.75,3.75,0,0,1-2.77-1.07,4.57,4.57,0,0,1,0-5.84,3.66,3.66,0,0,1,2.72-1.07,3.46,3.46,0,0,1,2.58,1A3.88,3.88,0,0,1,477.42,215.83Zm-3.55-2.8a2.36,2.36,0,0,0-1.6.55,2.49,2.49,0,0,0-.81,1.58h4.6a2.25,2.25,0,0,0-.67-1.58A2.12,2.12,0,0,0,473.87,213Z"/>
      <path d="M482,220a3.63,3.63,0,0,1-2.07-.55,2.31,2.31,0,0,1-1-1.58l1.18-.34a1.7,1.7,0,0,0,.63,1.07A2.07,2.07,0,0,0,482,219a2.82,2.82,0,0,0,.74-.1,1.28,1.28,0,0,0,.57-.38,1,1,0,0,0,.22-.7.83.83,0,0,0-.06-.32,1.17,1.17,0,0,0-.12-.25.64.64,0,0,0-.22-.21,2.29,2.29,0,0,0-.27-.17,2.54,2.54,0,0,0-.34-.14l-.38-.13-.43-.12-.44-.13c-.32-.1-.59-.19-.8-.28a3.66,3.66,0,0,1-.65-.37,1.49,1.49,0,0,1-.5-.61,2.06,2.06,0,0,1-.17-.86,2,2,0,0,1,.38-1.22,2.08,2.08,0,0,1,1-.73,3.84,3.84,0,0,1,1.36-.22,3.34,3.34,0,0,1,1.87.5,2.14,2.14,0,0,1,.94,1.5l-1.11.28a1.47,1.47,0,0,0-.59-1,1.84,1.84,0,0,0-1.1-.33,1.91,1.91,0,0,0-1,.27.91.91,0,0,0-.43.83.85.85,0,0,0,.11.42,1.65,1.65,0,0,0,.23.3,1.26,1.26,0,0,0,.43.23,3.6,3.6,0,0,0,.45.17l.56.14.12,0,.74.21a5.36,5.36,0,0,1,.66.28,2.43,2.43,0,0,1,.6.42,2,2,0,0,1,.37.59,2,2,0,0,1,.16.83,2.31,2.31,0,0,1-.23,1,1.8,1.8,0,0,1-.63.71,3,3,0,0,1-.89.38A4.15,4.15,0,0,1,482,220Z"/>
      <path d="M487.61,210.34a.87.87,0,0,1-.64-.27.89.89,0,0,1-.27-.65.87.87,0,0,1,.27-.64.92.92,0,0,1,1.28,0,.87.87,0,0,1,.27.64.89.89,0,0,1-.27.65A.87.87,0,0,1,487.61,210.34Zm-.69,9.48v-7.68h1.36v7.68Z"/>
      <path d="M494.27,220a4,4,0,0,1-2-.48,3.44,3.44,0,0,1-1.39-1.39,4.29,4.29,0,0,1-.51-2.12,3.92,3.92,0,0,1,1.09-2.9,4.09,4.09,0,0,1,5.56,0,4.4,4.4,0,0,1,0,5.8A3.77,3.77,0,0,1,494.27,220Zm0-1.12a2.4,2.4,0,0,0,1.82-.79,3,3,0,0,0,.72-2.08,2.93,2.93,0,0,0-.72-2.07,2.36,2.36,0,0,0-1.82-.79,2.32,2.32,0,0,0-1.8.79,2.93,2.93,0,0,0-.72,2.07,3,3,0,0,0,.72,2.08A2.36,2.36,0,0,0,494.26,218.85Zm-.51-8,2-2.54.72.52-1.75,2Z"/>
      <path d="M503.88,212a2.69,2.69,0,0,1,1.93.7,2.6,2.6,0,0,1,.72,2v5.17h-1.35V215a1.8,1.8,0,0,0-.47-1.38,1.65,1.65,0,0,0-1.2-.45,1.88,1.88,0,0,0-1.37.53,2.19,2.19,0,0,0-.54,1.57v4.59h-1.35v-7.68h1.35v1A2.56,2.56,0,0,1,503.88,212Z"/>
      <path d="M451.33,228v1.28h-2.82V239h-1.39V229.3h-2.83V228Z"/>
      <path d="M458.58,235l0,.37h-6a2.73,2.73,0,0,0,.74,2,2.4,2.4,0,0,0,1.75.69,2.33,2.33,0,0,0,1.27-.37,2.44,2.44,0,0,0,.88-1l1.22.26a3.48,3.48,0,0,1-1.32,1.65,3.57,3.57,0,0,1-2,.6,3.71,3.71,0,0,1-2.76-1.07,4.55,4.55,0,0,1,0-5.84,3.7,3.7,0,0,1,2.73-1.07,3.46,3.46,0,0,1,2.58,1A3.88,3.88,0,0,1,458.58,235Zm-3.55-2.8a2.36,2.36,0,0,0-1.6.55,2.49,2.49,0,0,0-.81,1.58h4.6a2.29,2.29,0,0,0-.67-1.58A2.14,2.14,0,0,0,455,232.23Z"/>
      <path d="M464.32,231.19a2.71,2.71,0,0,1,1.94.7,2.6,2.6,0,0,1,.72,2V239h-1.35v-4.87a1.83,1.83,0,0,0-.47-1.37,1.67,1.67,0,0,0-1.2-.45,1.86,1.86,0,0,0-1.37.53,2.11,2.11,0,0,0-.54,1.57V239H460.7v-7.68h1.35v1A2.56,2.56,0,0,1,464.32,231.19Z"/>
      <path d="M472,239.17a3.63,3.63,0,0,1-2.07-.55,2.31,2.31,0,0,1-1-1.58l1.18-.34a1.62,1.62,0,0,0,.63,1.07,2,2,0,0,0,1.26.38,2.82,2.82,0,0,0,.74-.1,1.2,1.2,0,0,0,.56-.38,1,1,0,0,0,.23-.7.83.83,0,0,0-.06-.32,1.17,1.17,0,0,0-.13-.25.6.6,0,0,0-.21-.21,2.29,2.29,0,0,0-.27-.17,2.27,2.27,0,0,0-.35-.14l-.37-.13-.43-.12-.44-.13a7.85,7.85,0,0,1-.8-.28,3.34,3.34,0,0,1-.65-.37,1.49,1.49,0,0,1-.5-.61,1.91,1.91,0,0,1-.17-.86,2,2,0,0,1,.37-1.23,2.15,2.15,0,0,1,1-.72,3.8,3.8,0,0,1,1.36-.22,3.36,3.36,0,0,1,1.87.5,2.1,2.1,0,0,1,.93,1.5l-1.11.28a1.43,1.43,0,0,0-.58-1,1.86,1.86,0,0,0-1.1-.33,1.88,1.88,0,0,0-1,.27.91.91,0,0,0-.43.83.76.76,0,0,0,.11.42,1.07,1.07,0,0,0,.23.3,1.3,1.3,0,0,0,.42.23,4.26,4.26,0,0,0,.46.17l.56.14.11,0,.74.21a6.15,6.15,0,0,1,.67.28,2.18,2.18,0,0,1,.59.42,1.82,1.82,0,0,1,.38.59,2.23,2.23,0,0,1,.16.83,2.31,2.31,0,0,1-.23,1,1.86,1.86,0,0,1-.63.7,2.8,2.8,0,0,1-.9.39A4.08,4.08,0,0,1,472,239.17Z"/>
      <path d="M477.66,229.54a.92.92,0,0,1-.92-.92A.87.87,0,0,1,477,228a.93.93,0,0,1,1.29,0,.86.86,0,0,1,.26.64.9.9,0,0,1-.9.92ZM477,239v-7.68h1.36V239Z"/>
      <path d="M484.31,239.17a4,4,0,0,1-2-.48A3.38,3.38,0,0,1,481,237.3a4.29,4.29,0,0,1-.51-2.12,3.92,3.92,0,0,1,1.09-2.9,3.77,3.77,0,0,1,2.77-1.09,3.81,3.81,0,0,1,2.79,1.09,4,4,0,0,1,1.08,2.9,3.91,3.91,0,0,1-1.09,2.9A3.74,3.74,0,0,1,484.31,239.17Zm0-1.12a2.36,2.36,0,0,0,1.81-.79,3,3,0,0,0,.73-2.08,2.94,2.94,0,0,0-.73-2.07,2.33,2.33,0,0,0-1.81-.79,2.29,2.29,0,0,0-1.8.79,2.93,2.93,0,0,0-.72,2.07,3,3,0,0,0,.72,2.08A2.33,2.33,0,0,0,484.31,238.05Zm-.51-8,2-2.54.72.52-1.75,2Z"/>
      <path d="M493.92,231.19a2.7,2.7,0,0,1,1.94.7,2.6,2.6,0,0,1,.72,2V239h-1.35v-4.87a1.83,1.83,0,0,0-.47-1.37,1.65,1.65,0,0,0-1.2-.45,1.86,1.86,0,0,0-1.37.53,2.19,2.19,0,0,0-.54,1.57V239H490.3v-7.68h1.35v1A2.56,2.56,0,0,1,493.92,231.19Z"/>
    </g>
    <g>
      <path d="M453,117.11h2.33V128.4h-2.71l-5-8.07v8.07h-2.34V117.11H448l5,8Z"/>
      <path d="M465.49,124.27l0,.54h-6a2.06,2.06,0,0,0,.64,1.47,2,2,0,0,0,1.41.51,2,2,0,0,0,1.06-.28,1.75,1.75,0,0,0,.68-.81l2.06.3a3.51,3.51,0,0,1-1.41,1.89,4.22,4.22,0,0,1-2.37.67,4.34,4.34,0,0,1-3.13-1.11,4,4,0,0,1-1.16-3.06,4.09,4.09,0,0,1,1.16-3.07,4.23,4.23,0,0,1,3.06-1.12,3.67,3.67,0,0,1,4,4.07Zm-4-2.48a1.78,1.78,0,0,0-1.95,1.55h3.69a1.69,1.69,0,0,0-.56-1.15A1.77,1.77,0,0,0,461.53,121.79Z"/>
      <path d="M472.74,120.37h2.14v7.43a6,6,0,0,1-.3,2,3.23,3.23,0,0,1-.87,1.37,3.65,3.65,0,0,1-1.34.77,5.52,5.52,0,0,1-1.75.25q-3.18,0-4.14-2.49l1.87-.8a2.71,2.71,0,0,0,.86,1.17,2.21,2.21,0,0,0,1.32.37c1.39,0,2.09-.82,2.09-2.48V127a2.53,2.53,0,0,1-1,.79,3.39,3.39,0,0,1-1.43.3,3.58,3.58,0,0,1-1.41-.28,3.75,3.75,0,0,1-1.17-.8,3.81,3.81,0,0,1-.79-1.26,4.73,4.73,0,0,1,0-3.26,3.59,3.59,0,0,1,.8-1.24,3.34,3.34,0,0,1,1.17-.78,3.61,3.61,0,0,1,1.42-.29,3.3,3.3,0,0,1,1.49.34,2.31,2.31,0,0,1,1,.88Zm-3.45,5.31a1.94,1.94,0,0,0,1.47.62,2,2,0,0,0,1.48-.62,2.25,2.25,0,0,0,0-3.06,2.09,2.09,0,0,0-3,0,2.14,2.14,0,0,0-.59,1.54A2.1,2.1,0,0,0,469.29,125.68Z"/>
      <path d="M483.8,126.22a7.51,7.51,0,0,0,.19,2v.22h-2.1l-.18-.87a2.59,2.59,0,0,1-1.12.77,4.22,4.22,0,0,1-1.45.26,3.54,3.54,0,0,1-.75-.07,2.75,2.75,0,0,1-.68-.24,2,2,0,0,1-.56-.42,1.7,1.7,0,0,1-.37-.63,2.8,2.8,0,0,1,0-1.75,2.2,2.2,0,0,1,.39-.65,2.49,2.49,0,0,1,.64-.48,5,5,0,0,1,.79-.34,9.36,9.36,0,0,1,1-.25l1.32-.3a1.42,1.42,0,0,0,.6-.25.53.53,0,0,0,.17-.4.85.85,0,0,0-.39-.78,2,2,0,0,0-1-.23,1.38,1.38,0,0,0-1.57,1.23l-2-.36a2.7,2.7,0,0,1,1.16-1.84,4.65,4.65,0,0,1,2.52-.59q3.38,0,3.38,2.9Zm-4,.82a1.81,1.81,0,0,0,1.39-.59,2.43,2.43,0,0,0,.54-1.72l-1.91.54a2.14,2.14,0,0,0-.8.33.68.68,0,0,0-.28.58.74.74,0,0,0,.3.63A1.23,1.23,0,0,0,479.84,127Z"/>
      <path d="M488.87,128.4a2.39,2.39,0,0,1-1.81-.65,2.52,2.52,0,0,1-.64-1.86V122.1h-1.58v-1.73h.51a1.35,1.35,0,0,0,1-.33,1.78,1.78,0,0,0,.32-1.2v-1.06h2v2.59h1.65v1.73H488.7v3.55c0,.7.31,1,.93,1h.72v1.71Z"/>
      <path d="M493.24,119.17a1.29,1.29,0,0,1-.92-.38,1.26,1.26,0,0,1-.38-.92,1.23,1.23,0,0,1,.39-.91,1.28,1.28,0,0,1,1.82,0,1.29,1.29,0,0,1,0,1.83A1.25,1.25,0,0,1,493.24,119.17Zm-1.14,9.23v-8h2.26v8Z"/>
      <path d="M501.92,120.37h2.38l-3.42,8h-2l-3.38-8h2.37l2,5.49Z"/>
      <path d="M508.9,128.56a5.15,5.15,0,0,1-2.27-.49,3.7,3.7,0,0,1-1.56-1.45,4.26,4.26,0,0,1-.57-2.24,4,4,0,0,1,1.22-3,5.09,5.09,0,0,1,6.37,0,4.44,4.44,0,0,1,0,6.11A4.52,4.52,0,0,1,508.9,128.56Zm0-1.79a2.07,2.07,0,0,0,1.59-.66,2.44,2.44,0,0,0,.6-1.73,2.49,2.49,0,0,0-.6-1.74,2.1,2.1,0,0,0-1.59-.65,2,2,0,0,0-1.55.66,2.83,2.83,0,0,0,0,3.46A2,2,0,0,0,508.88,126.77Z"/>
    </g>
  </g>
</svg>
