<svg id="Layer_1" data-name="Layer 1" xmlns="http://www.w3.org/2000/svg" width="563.56" height="300.44" viewBox="0 0 563.56 300.44">
  <defs>
    <style>
      .cls-1 {
        fill: #f2f2f2;
      }

      .cls-2 {
        opacity: 0.75;
      }

      .cls-3 {
        opacity: 0.5;
      }

      .cls-4 {
        opacity: 0.25;
      }
    </style>
  </defs>
  <g>
    <rect y="228.44" width="70.44" height="72"/>
    <g>
      <rect width="281.78" height="228.44"/>
      <rect class="cls-1" x="281.78" width="281.78" height="300.44"/>
      <g class="cls-2">
        <rect x="70.44" y="228.44" width="70.44" height="72"/>
      </g>
      <g class="cls-3">
        <rect x="140.89" y="228.44" width="70.44" height="72"/>
      </g>
      <g class="cls-4">
        <rect x="211.33" y="228.44" width="70.44" height="72"/>
      </g>
      <g>
        <path d="M348,97.59h5.55V124.4h-6.44l-11.88-19.16V124.4h-5.55V97.59h6.37L348,116.65Z"/>
        <path d="M377.62,114.59l-.05,1.28H363.43a4.92,4.92,0,0,0,1.52,3.49,4.87,4.87,0,0,0,3.36,1.2,4.68,4.68,0,0,0,2.51-.66,4.08,4.08,0,0,0,1.61-1.92l4.89.73a8.35,8.35,0,0,1-3.34,4.47,9.93,9.93,0,0,1-5.64,1.59,10.34,10.34,0,0,1-7.43-2.62,11,11,0,0,1,0-14.57,10,10,0,0,1,7.26-2.66,9.57,9.57,0,0,1,6.84,2.43Q377.6,109.78,377.62,114.59Zm-9.41-5.88c-2.59,0-4.14,1.22-4.63,3.67h8.75a4,4,0,0,0-1.31-2.73A4.2,4.2,0,0,0,368.21,108.71Z"/>
        <path d="M394.82,105.33h5.09V123a14.13,14.13,0,0,1-.72,4.75,7.89,7.89,0,0,1-2.07,3.26,8.71,8.71,0,0,1-3.17,1.83,13.56,13.56,0,0,1-4.16.59q-7.55,0-9.83-5.92l4.43-1.89a6.46,6.46,0,0,0,2.06,2.76,5.23,5.23,0,0,0,3.14.9c3.3,0,5-2,5-5.89v-2.22a6,6,0,0,1-2.4,1.88,7.92,7.92,0,0,1-3.39.71,8.49,8.49,0,0,1-3.35-.67,8.4,8.4,0,0,1-2.77-1.9,8.72,8.72,0,0,1-1.88-3,11,11,0,0,1,0-7.73,8.37,8.37,0,0,1,1.89-3,8.73,8.73,0,0,1,2.78-1.85,8.52,8.52,0,0,1,3.37-.67,7.74,7.74,0,0,1,3.54.79,5.58,5.58,0,0,1,2.36,2.1ZM386.63,118a4.9,4.9,0,0,0,7,0,5.34,5.34,0,0,0,0-7.26,4.95,4.95,0,0,0-7,0,5.12,5.12,0,0,0-1.4,3.67A5,5,0,0,0,386.63,118Z"/>
        <path d="M410.57,108.35a6.27,6.27,0,0,1,2.51-2.29,7.58,7.58,0,0,1,3.73-1v4.76a7.27,7.27,0,0,0-4.57,1.15c-.94.77-1.41,2.13-1.41,4.09v9.29h-5.38V105.33h5.12Z"/>
        <path d="M428.72,124.77a12,12,0,0,1-5.4-1.17,8.69,8.69,0,0,1-3.7-3.43,10.19,10.19,0,0,1-1.35-5.32,9.34,9.34,0,0,1,2.9-7.24,12.11,12.11,0,0,1,15.12,0,10.51,10.51,0,0,1,0,14.5A10.71,10.71,0,0,1,428.72,124.77Zm-.06-4.25a4.9,4.9,0,0,0,3.78-1.55,6.61,6.61,0,0,0,0-8.24,4.9,4.9,0,0,0-3.78-1.56,4.71,4.71,0,0,0-3.66,1.57,6.66,6.66,0,0,0,0,8.22A4.73,4.73,0,0,0,428.66,120.52Z"/>
      </g>
      <g>
        <path d="M336.56,151.22a3.21,3.21,0,0,1,1.72.46,3.09,3.09,0,0,1,1.16,1.22,3.58,3.58,0,0,1,.4,1.7,3.31,3.31,0,0,1-.91,2.39,3.13,3.13,0,0,1-2.37,1h-2.77v4.27H332.4v-11Zm-.2,5.51a2,2,0,0,0,1.53-.59,2.17,2.17,0,0,0,.55-1.56,2.19,2.19,0,0,0-.55-1.55,2,2,0,0,0-1.53-.6h-2.57v4.3Z"/>
        <path d="M344.49,162.37a4,4,0,0,1-2-.48,3.44,3.44,0,0,1-1.39-1.39,4.29,4.29,0,0,1-.51-2.12,4,4,0,0,1,1.09-2.9,4.09,4.09,0,0,1,5.56,0,4.4,4.4,0,0,1,0,5.8A3.77,3.77,0,0,1,344.49,162.37Zm0-1.12a2.38,2.38,0,0,0,1.82-.79,3,3,0,0,0,.72-2.08,2.93,2.93,0,0,0-.72-2.07,2.35,2.35,0,0,0-1.82-.79,2.32,2.32,0,0,0-1.8.79,2.93,2.93,0,0,0-.71,2.07,3,3,0,0,0,.71,2.08A2.36,2.36,0,0,0,344.48,161.25Z"/>
        <path d="M356.15,150.22h1.35v12h-1.31l0-1.49a2.83,2.83,0,0,1-1.09,1.21,3.05,3.05,0,0,1-1.63.45,3.46,3.46,0,0,1-1.39-.29,3.27,3.27,0,0,1-1.14-.8,3.59,3.59,0,0,1-.78-1.27,4.59,4.59,0,0,1-.28-1.64,4.07,4.07,0,0,1,1-2.89,3.38,3.38,0,0,1,2.55-1.11,3.06,3.06,0,0,1,1.61.44,2.88,2.88,0,0,1,1.1,1.17Zm-2.43,11a2.29,2.29,0,0,0,1.79-.8,2.94,2.94,0,0,0,.72-2,2.88,2.88,0,0,0-.73-2,2.28,2.28,0,0,0-1.78-.81,2.34,2.34,0,0,0-1.79.78,2.89,2.89,0,0,0-.73,2,2.85,2.85,0,0,0,.73,2A2.34,2.34,0,0,0,353.72,161.21Z"/>
        <path d="M367,158.23l0,.37h-6a2.73,2.73,0,0,0,.73,2,2.41,2.41,0,0,0,1.75.69,2.32,2.32,0,0,0,2.15-1.39l1.22.26a3.41,3.41,0,0,1-1.31,1.65,3.59,3.59,0,0,1-2,.6,3.75,3.75,0,0,1-2.77-1.07,4.57,4.57,0,0,1,0-5.84,3.66,3.66,0,0,1,2.72-1.07,3.46,3.46,0,0,1,2.58,1A3.88,3.88,0,0,1,367,158.23Zm-3.56-2.8a2.38,2.38,0,0,0-1.6.55,2.49,2.49,0,0,0-.81,1.58h4.61a2.3,2.3,0,0,0-.68-1.58A2.12,2.12,0,0,0,363.41,155.43Z"/>
        <path d="M370.4,155.89a2.37,2.37,0,0,1,1-1,2.84,2.84,0,0,1,1.47-.4v1.27a2.52,2.52,0,0,0-1.78.57,2.38,2.38,0,0,0-.62,1.82v4.1h-1.35v-7.68h1.32Z"/>
        <path d="M377.56,162.37a4,4,0,0,1-2-.48,3.44,3.44,0,0,1-1.39-1.39,4.29,4.29,0,0,1-.51-2.12,4,4,0,0,1,1.09-2.9,4.09,4.09,0,0,1,5.56,0,4.4,4.4,0,0,1,0,5.8A3.77,3.77,0,0,1,377.56,162.37Zm0-1.12a2.38,2.38,0,0,0,1.82-.79,3,3,0,0,0,.72-2.08,2.93,2.93,0,0,0-.72-2.07,2.35,2.35,0,0,0-1.82-.79,2.32,2.32,0,0,0-1.8.79,2.93,2.93,0,0,0-.71,2.07,3,3,0,0,0,.71,2.08A2.36,2.36,0,0,0,377.55,161.25Z"/>
        <path d="M386,162.37a3.65,3.65,0,0,1-2.07-.55,2.27,2.27,0,0,1-1-1.58l1.18-.34a1.64,1.64,0,0,0,.62,1.07,2.08,2.08,0,0,0,1.27.38,2.74,2.74,0,0,0,.73-.1,1.28,1.28,0,0,0,.57-.38,1,1,0,0,0,.23-.7,1.07,1.07,0,0,0-.07-.32,1,1,0,0,0-.12-.25.64.64,0,0,0-.22-.21l-.26-.17a2.78,2.78,0,0,0-.35-.14l-.37-.13-.43-.12-.45-.13c-.32-.1-.59-.19-.8-.28a3.6,3.6,0,0,1-.64-.37,1.43,1.43,0,0,1-.51-.61,2.06,2.06,0,0,1-.17-.86,2,2,0,0,1,.38-1.22,2.08,2.08,0,0,1,1-.73,3.86,3.86,0,0,1,1.37-.22,3.39,3.39,0,0,1,1.87.5,2.16,2.16,0,0,1,.93,1.5l-1.11.28a1.44,1.44,0,0,0-.59-1,1.82,1.82,0,0,0-1.1-.33,1.91,1.91,0,0,0-1,.27.91.91,0,0,0-.43.83.76.76,0,0,0,.12.42,1.07,1.07,0,0,0,.23.3,1.25,1.25,0,0,0,.42.24l.45.16.56.14.12,0,.74.21a5.36,5.36,0,0,1,.66.28,2.43,2.43,0,0,1,.6.42,2,2,0,0,1,.38.59,2.23,2.23,0,0,1,.15.83,2.31,2.31,0,0,1-.23,1,1.8,1.8,0,0,1-.63.71,2.85,2.85,0,0,1-.89.38A4.1,4.1,0,0,1,386,162.37Z"/>
        <path d="M394.16,162.37a4,4,0,0,1-2-.48,3.42,3.42,0,0,1-1.38-1.39,4.19,4.19,0,0,1-.52-2.12,4,4,0,0,1,1.09-2.9,4.09,4.09,0,0,1,5.56,0,4.4,4.4,0,0,1,0,5.8A3.75,3.75,0,0,1,394.16,162.37Zm0-1.12a2.38,2.38,0,0,0,1.82-.79,3,3,0,0,0,.72-2.08,2.93,2.93,0,0,0-.72-2.07,2.35,2.35,0,0,0-1.82-.79,2.32,2.32,0,0,0-1.8.79,3,3,0,0,0-.71,2.07,3,3,0,0,0,.71,2.08A2.36,2.36,0,0,0,394.15,161.25Z"/>
        <path d="M337.11,181.57a5.93,5.93,0,0,1-2.17-.39,5.62,5.62,0,0,1-1.74-1.11,5,5,0,0,1-1.15-1.79,6.84,6.84,0,0,1,0-4.72,5.09,5.09,0,0,1,1.16-1.79,5.46,5.46,0,0,1,1.73-1.11,5.93,5.93,0,0,1,2.17-.39,5.55,5.55,0,0,1,2.92.78A4.82,4.82,0,0,1,342,173.2l-1.29.53a3.71,3.71,0,0,0-1.44-1.57,4.12,4.12,0,0,0-2.13-.55,4.47,4.47,0,0,0-1.61.29,3.81,3.81,0,0,0-1.29.83,3.7,3.7,0,0,0-.87,1.36,5,5,0,0,0-.32,1.82,5.11,5.11,0,0,0,.32,1.84,3.7,3.7,0,0,0,.87,1.36,3.81,3.81,0,0,0,1.29.83,4.27,4.27,0,0,0,1.61.3,4.13,4.13,0,0,0,2.13-.56,3.66,3.66,0,0,0,1.44-1.55l1.29.52A4.8,4.8,0,0,1,340,180.8,5.65,5.65,0,0,1,337.11,181.57Z"/>
        <path d="M347.25,181.57a4,4,0,0,1-2-.48,3.38,3.38,0,0,1-1.39-1.39,4.29,4.29,0,0,1-.51-2.12,3.92,3.92,0,0,1,1.09-2.9,4.09,4.09,0,0,1,5.56,0,4,4,0,0,1,1.08,2.9,3.91,3.91,0,0,1-1.09,2.9A3.73,3.73,0,0,1,347.25,181.57Zm0-1.12a2.4,2.4,0,0,0,1.82-.79,3,3,0,0,0,.72-2.08,2.93,2.93,0,0,0-.72-2.07,2.36,2.36,0,0,0-1.82-.79,2.29,2.29,0,0,0-1.8.79,2.93,2.93,0,0,0-.72,2.07,3,3,0,0,0,.72,2.08A2.33,2.33,0,0,0,347.24,180.45Z"/>
        <path d="M356.86,173.59a2.69,2.69,0,0,1,1.93.7,2.6,2.6,0,0,1,.72,2v5.17h-1.35v-4.86a1.84,1.84,0,0,0-.47-1.38,1.65,1.65,0,0,0-1.2-.44,1.87,1.87,0,0,0-1.37.52,2.19,2.19,0,0,0-.54,1.57v4.59h-1.35v-7.68h1.35v1A2.56,2.56,0,0,1,356.86,173.59Z"/>
        <path d="M364.58,181.42a2,2,0,0,1-1.5-.55,2.07,2.07,0,0,1-.55-1.53v-4.52H361v-1.08h.58a1.08,1.08,0,0,0,.84-.27,1.29,1.29,0,0,0,.25-.9v-1.39h1.26v2.56h1.76v1.08h-1.76v4.38a1.17,1.17,0,0,0,.29.84,1,1,0,0,0,.77.3h.7v1.08Z"/>
        <path d="M368.93,175.09a2.34,2.34,0,0,1,.95-1,2.85,2.85,0,0,1,1.48-.4v1.27a2.55,2.55,0,0,0-1.79.57,2.38,2.38,0,0,0-.61,1.82v4.1h-1.35v-7.68h1.32Z"/>
        <path d="M376.08,181.57a4,4,0,0,1-2-.48,3.42,3.42,0,0,1-1.38-1.39,4.29,4.29,0,0,1-.51-2.12,3.92,3.92,0,0,1,1.09-2.9,4.08,4.08,0,0,1,5.55,0,4.4,4.4,0,0,1,0,5.8A3.75,3.75,0,0,1,376.08,181.57Zm0-1.12a2.38,2.38,0,0,0,1.81-.79,3,3,0,0,0,.72-2.08,2.93,2.93,0,0,0-.72-2.07,2.47,2.47,0,0,0-3.62,0,3,3,0,0,0-.71,2.07,3,3,0,0,0,.71,2.08A2.36,2.36,0,0,0,376.08,180.45Z"/>
        <path d="M382.07,181.42v-12h1.36v12Z"/>
        <path d="M388,181.57a2.59,2.59,0,0,1-1.69-.53,1.88,1.88,0,0,1-.66-1.57,2.08,2.08,0,0,1,.22-1,1.67,1.67,0,0,1,.62-.7,3.76,3.76,0,0,1,.9-.44,8.52,8.52,0,0,1,1.17-.27l1.24-.21c.46-.08.68-.32.68-.71A1.33,1.33,0,0,0,390,175a1.9,1.9,0,0,0-1.21-.37,2,2,0,0,0-1.21.36,1.47,1.47,0,0,0-.57,1.07l-1.22-.25a2.38,2.38,0,0,1,1-1.65,3.54,3.54,0,0,1,2.09-.55,4.21,4.21,0,0,1,1.11.14,2.82,2.82,0,0,1,.93.43,1.89,1.89,0,0,1,.67.82,3.27,3.27,0,0,1,.23,1.27v3.17a1.29,1.29,0,0,0,.18.8.76.76,0,0,0,.61.21h.12v1H392a1.27,1.27,0,0,1-1.45-1h-.07A2.91,2.91,0,0,1,388,181.57Zm.31-1.09a2.07,2.07,0,0,0,1.65-.74,3.12,3.12,0,0,0,.62-2l-2,.39a2.73,2.73,0,0,0-1.19.43,1,1,0,0,0-.39.84,1,1,0,0,0,.38.84A1.5,1.5,0,0,0,388.27,180.48Z"/>
        <path d="M400.08,169.42h1.35v12h-1.3l0-1.49a2.86,2.86,0,0,1-1.1,1.21,3,3,0,0,1-1.62.45,3.46,3.46,0,0,1-1.39-.29,3.41,3.41,0,0,1-1.15-.8,3.77,3.77,0,0,1-.77-1.26,4.69,4.69,0,0,1-.28-1.65,4,4,0,0,1,1-2.89,3.35,3.35,0,0,1,2.55-1.11A3.09,3.09,0,0,1,399,174a2.86,2.86,0,0,1,1.09,1.17Zm-2.42,11a2.31,2.31,0,0,0,1.79-.8,2.94,2.94,0,0,0,.72-2,2.88,2.88,0,0,0-.73-2,2.3,2.3,0,0,0-1.78-.81,2.38,2.38,0,0,0-1.8.78,2.93,2.93,0,0,0-.72,2.05,2.89,2.89,0,0,0,.72,2A2.38,2.38,0,0,0,397.66,180.41Z"/>
        <path d="M407.42,181.57a4,4,0,0,1-2-.48,3.44,3.44,0,0,1-1.39-1.39,4.29,4.29,0,0,1-.51-2.12,3.92,3.92,0,0,1,1.09-2.9,4.09,4.09,0,0,1,5.56,0,4.4,4.4,0,0,1,0,5.8A3.77,3.77,0,0,1,407.42,181.57Zm0-1.12a2.4,2.4,0,0,0,1.82-.79,3,3,0,0,0,.72-2.08,2.93,2.93,0,0,0-.72-2.07,2.36,2.36,0,0,0-1.82-.79,2.32,2.32,0,0,0-1.8.79,2.93,2.93,0,0,0-.71,2.07,3,3,0,0,0,.71,2.08A2.36,2.36,0,0,0,407.41,180.45Z"/>
        <path d="M414.72,175.09a2.37,2.37,0,0,1,1-1,2.84,2.84,0,0,1,1.47-.4v1.27a2.52,2.52,0,0,0-1.78.57,2.38,2.38,0,0,0-.62,1.82v4.1H413.4v-7.68h1.32Z"/>
        <path d="M339.46,200.62l-.95-2.63h-5l-.94,2.63h-1.46l4.05-11h1.67l4.06,11ZM334,196.76h4.1L336,191Z"/>
        <path d="M347.54,192.94h1.36v7.68h-1.3l0-1a2.42,2.42,0,0,1-1,.86,2.91,2.91,0,0,1-1.34.3,2.67,2.67,0,0,1-1.93-.69,2.59,2.59,0,0,1-.73-2v-5.17H344v4.87a1.79,1.79,0,0,0,.47,1.37,1.64,1.64,0,0,0,1.21.46,1.85,1.85,0,0,0,1.36-.53,2.16,2.16,0,0,0,.53-1.57Z"/>
        <path d="M354.1,200.62a2,2,0,0,1-1.5-.55,2.07,2.07,0,0,1-.55-1.53V194h-1.57v-1.08h.58a1.13,1.13,0,0,0,.85-.27,1.35,1.35,0,0,0,.24-.9v-1.39h1.26v2.56h1.77V194h-1.77v4.38a1.17,1.17,0,0,0,.29.84,1,1,0,0,0,.77.3h.71v1.08Z"/>
        <path d="M360.27,200.77a4,4,0,0,1-2-.48,3.51,3.51,0,0,1-1.39-1.39,4.29,4.29,0,0,1-.51-2.12,4,4,0,0,1,1.09-2.9,4.09,4.09,0,0,1,5.56,0,4.4,4.4,0,0,1,0,5.8A3.75,3.75,0,0,1,360.27,200.77Zm0-1.12a2.38,2.38,0,0,0,1.82-.79,3,3,0,0,0,.72-2.08,2.93,2.93,0,0,0-.72-2.07,2.35,2.35,0,0,0-1.82-.79,2.32,2.32,0,0,0-1.8.79,3,3,0,0,0-.71,2.07,3,3,0,0,0,.71,2.08A2.36,2.36,0,0,0,360.26,199.65Z"/>
        <path d="M367.58,194.29a2.29,2.29,0,0,1,.95-1,2.84,2.84,0,0,1,1.47-.4v1.27a2.52,2.52,0,0,0-1.78.57,2.38,2.38,0,0,0-.61,1.82v4.1h-1.36v-7.68h1.33Z"/>
        <path d="M372.28,191.14a.92.92,0,0,1-.92-.92.87.87,0,0,1,.27-.64.92.92,0,0,1,.65-.26.9.9,0,0,1,.9.9.89.89,0,0,1-.27.65A.85.85,0,0,1,372.28,191.14Zm-.69,9.48v-7.68H373v7.68Z"/>
        <path d="M378.15,200.62a2,2,0,0,1-1.5-.55,2.1,2.1,0,0,1-.54-1.53V194h-1.57v-1.08h.57a1.11,1.11,0,0,0,.85-.27,1.29,1.29,0,0,0,.25-.9v-1.39h1.26v2.56h1.76V194h-1.76v4.38a1.13,1.13,0,0,0,.29.84,1,1,0,0,0,.77.3h.7v1.08Z"/>
        <path d="M382.86,200.77a2.62,2.62,0,0,1-1.68-.53,1.88,1.88,0,0,1-.66-1.57,2.2,2.2,0,0,1,.21-1,1.7,1.7,0,0,1,.63-.7,3.42,3.42,0,0,1,.9-.44,7.88,7.88,0,0,1,1.17-.27l1.24-.21c.45-.08.68-.32.68-.71a1.33,1.33,0,0,0-.48-1.14,1.93,1.93,0,0,0-1.22-.37,2,2,0,0,0-1.2.35,1.51,1.51,0,0,0-.57,1.08l-1.22-.25a2.4,2.4,0,0,1,1-1.65,3.6,3.6,0,0,1,2.1-.55,4.32,4.32,0,0,1,1.11.14,3,3,0,0,1,.93.43,1.94,1.94,0,0,1,.66.82,3.09,3.09,0,0,1,.24,1.27v3.17a1.29,1.29,0,0,0,.18.8.74.74,0,0,0,.6.21h.13v1h-.67c-.83,0-1.32-.34-1.46-1h-.06A2.91,2.91,0,0,1,382.86,200.77Zm.32-1.09a2.05,2.05,0,0,0,1.65-.75,3.08,3.08,0,0,0,.62-2l-2,.39a2.68,2.68,0,0,0-1.19.43,1,1,0,0,0-.39.84,1,1,0,0,0,.37.84A1.55,1.55,0,0,0,383.18,199.68Z"/>
        <path d="M390.79,194.29a2.37,2.37,0,0,1,1-1,2.84,2.84,0,0,1,1.47-.4v1.27a2.52,2.52,0,0,0-1.78.57,2.38,2.38,0,0,0-.61,1.82v4.1h-1.36v-7.68h1.32Z"/>
        <path d="M395.5,191.14a.92.92,0,0,1-.92-.92.87.87,0,0,1,.27-.64.92.92,0,0,1,.65-.26.89.89,0,0,1,.63.26.87.87,0,0,1,.27.64.89.89,0,0,1-.27.65A.86.86,0,0,1,395.5,191.14Zm-.69,9.48v-7.68h1.36v7.68Z"/>
        <path d="M402.15,200.77a4,4,0,0,1-2-.48,3.42,3.42,0,0,1-1.38-1.39,4.29,4.29,0,0,1-.51-2.12,3.92,3.92,0,0,1,1.09-2.9,4.08,4.08,0,0,1,5.55,0,4.4,4.4,0,0,1,0,5.8A3.75,3.75,0,0,1,402.15,200.77Zm0-1.12a2.38,2.38,0,0,0,1.81-.79,3,3,0,0,0,.72-2.08,2.93,2.93,0,0,0-.72-2.07,2.47,2.47,0,0,0-3.62,0,3,3,0,0,0-.71,2.07,3,3,0,0,0,.71,2.08A2.36,2.36,0,0,0,402.15,199.65Z"/>
        <path d="M332.4,219.82v-11h3.54a5.27,5.27,0,0,1,2.8.71,4.31,4.31,0,0,1,1.72,1.94,6.79,6.79,0,0,1,.56,2.84,7.41,7.41,0,0,1-.32,2.23,5.22,5.22,0,0,1-.95,1.74,4.17,4.17,0,0,1-1.6,1.14,5.73,5.73,0,0,1-2.21.4Zm1.39-1.27h2.11a3.35,3.35,0,0,0,2.74-1.13,5.63,5.63,0,0,0,0-6.2,3.36,3.36,0,0,0-2.74-1.12h-2.11Z"/>
        <path d="M344.08,210.34a.92.92,0,0,1-.92-.92.87.87,0,0,1,.27-.64.92.92,0,0,1,.65-.26.89.89,0,0,1,.63.26.87.87,0,0,1,.27.64.89.89,0,0,1-.27.65A.86.86,0,0,1,344.08,210.34Zm-.69,9.48v-7.68h1.36v7.68Z"/>
        <path d="M349.93,220a3.63,3.63,0,0,1-2.07-.55,2.28,2.28,0,0,1-1-1.58l1.18-.34a1.62,1.62,0,0,0,.63,1.07,2,2,0,0,0,1.26.38,2.82,2.82,0,0,0,.74-.1,1.2,1.2,0,0,0,.56-.38,1,1,0,0,0,.23-.7,1.52,1.52,0,0,0-.06-.32,1.46,1.46,0,0,0-.13-.25A.56.56,0,0,0,351,217a2.26,2.26,0,0,0-.26-.17,2.78,2.78,0,0,0-.35-.14l-.37-.13-.43-.12-.45-.13c-.32-.1-.58-.19-.79-.28a3.34,3.34,0,0,1-.65-.37,1.41,1.41,0,0,1-.5-.61,1.91,1.91,0,0,1-.17-.86,2,2,0,0,1,.37-1.22,2.13,2.13,0,0,1,1-.73,3.9,3.9,0,0,1,1.37-.22,3.36,3.36,0,0,1,1.87.5,2.1,2.1,0,0,1,.93,1.5l-1.11.28a1.46,1.46,0,0,0-.58-1,1.86,1.86,0,0,0-1.1-.33,1.92,1.92,0,0,0-1,.27.92.92,0,0,0-.42.83.76.76,0,0,0,.11.42,1.07,1.07,0,0,0,.23.3,1.5,1.5,0,0,0,.42.24l.45.16.57.14.11,0,.74.21a6.15,6.15,0,0,1,.67.28,2.18,2.18,0,0,1,.59.42,2,2,0,0,1,.38.59,2.23,2.23,0,0,1,.15.83,2.18,2.18,0,0,1-.23,1,1.86,1.86,0,0,1-.62.71,3,3,0,0,1-.9.38A4.08,4.08,0,0,1,349.93,220Z"/>
        <path d="M358.07,220a3.67,3.67,0,0,1-2.75-1.1,4.36,4.36,0,0,1,0-5.76,3.68,3.68,0,0,1,2.76-1.11,3.72,3.72,0,0,1,2.22.68,3.33,3.33,0,0,1,1.29,1.86l-1.26.21a2.35,2.35,0,0,0-.87-1.2,2.38,2.38,0,0,0-1.39-.42,2.27,2.27,0,0,0-1.78.79,3,3,0,0,0-.7,2.07,3,3,0,0,0,.7,2.07,2.29,2.29,0,0,0,1.78.78,2.38,2.38,0,0,0,1.39-.42,2.35,2.35,0,0,0,.87-1.2l1.26.21a3.37,3.37,0,0,1-1.3,1.87A3.71,3.71,0,0,1,358.07,220Z"/>
        <path d="M364.26,210.34a.87.87,0,0,1-.64-.27.89.89,0,0,1-.27-.65.87.87,0,0,1,.27-.64.92.92,0,0,1,1.28,0,.87.87,0,0,1,.27.64.89.89,0,0,1-.27.65A.87.87,0,0,1,364.26,210.34Zm-.68,9.48v-7.68h1.35v7.68Z"/>
        <path d="M371.74,212a3.46,3.46,0,0,1,1.39.29,3.36,3.36,0,0,1,1.14.78,3.82,3.82,0,0,1,.77,1.27,4.71,4.71,0,0,1,.29,1.66,4,4,0,0,1-1,2.89,3.35,3.35,0,0,1-2.55,1.11,3.09,3.09,0,0,1-1.61-.44,2.88,2.88,0,0,1-1.09-1.18v5.32h-1.36V212.14H369l0,1.49a2.78,2.78,0,0,1,1.09-1.19A3.05,3.05,0,0,1,371.74,212Zm-.27,6.82a2.31,2.31,0,0,0,1.78-.77,3.28,3.28,0,0,0,0-4.1,2.31,2.31,0,0,0-1.78-.77,2.36,2.36,0,0,0-1.8.8,3.13,3.13,0,0,0,0,4A2.33,2.33,0,0,0,371.47,218.81Z"/>
        <path d="M377.46,219.82v-12h1.37v12Z"/>
        <path d="M382.26,210.34a.87.87,0,0,1-.64-.27.89.89,0,0,1-.27-.65.87.87,0,0,1,.27-.64.92.92,0,0,1,1.28,0,.87.87,0,0,1,.27.64.89.89,0,0,1-.27.65A.87.87,0,0,1,382.26,210.34Zm-.68,9.48v-7.68h1.35v7.68Z"/>
        <path d="M389.31,212a2.67,2.67,0,0,1,1.93.7,2.6,2.6,0,0,1,.73,2v5.17h-1.36V215a1.84,1.84,0,0,0-.46-1.38,1.69,1.69,0,0,0-1.21-.45,1.84,1.84,0,0,0-1.36.53,2.11,2.11,0,0,0-.54,1.57v4.59h-1.36v-7.68H387v1A2.55,2.55,0,0,1,389.31,212Z"/>
        <path d="M396.35,220a2.59,2.59,0,0,1-1.69-.53,1.88,1.88,0,0,1-.66-1.57,2.2,2.2,0,0,1,.22-1,1.67,1.67,0,0,1,.62-.7,3.76,3.76,0,0,1,.9-.44,8.52,8.52,0,0,1,1.17-.27l1.24-.21c.46-.08.68-.32.68-.71a1.33,1.33,0,0,0-.48-1.14,1.9,1.9,0,0,0-1.21-.37,2.06,2.06,0,0,0-1.21.35,1.51,1.51,0,0,0-.57,1.08l-1.21-.25a2.33,2.33,0,0,1,1-1.65,3.54,3.54,0,0,1,2.09-.55,4.21,4.21,0,0,1,1.11.14,2.82,2.82,0,0,1,.93.43,1.89,1.89,0,0,1,.67.82,3.09,3.09,0,0,1,.24,1.27v3.17a1.3,1.3,0,0,0,.17.8.76.76,0,0,0,.61.21h.12v1h-.67a1.27,1.27,0,0,1-1.45-1h-.07A2.91,2.91,0,0,1,396.35,220Zm.31-1.09a2.05,2.05,0,0,0,1.65-.75,3,3,0,0,0,.62-2l-2,.39a2.73,2.73,0,0,0-1.19.43,1,1,0,0,0-.38.84,1,1,0,0,0,.37.84A1.5,1.5,0,0,0,396.66,218.88Z"/>
        <path d="M408.47,207.82h1.36v12h-1.31l0-1.49a2.9,2.9,0,0,1-1.09,1.21,3.05,3.05,0,0,1-1.63.45,3.46,3.46,0,0,1-1.39-.29,3.27,3.27,0,0,1-1.14-.8,3.59,3.59,0,0,1-.78-1.27,4.59,4.59,0,0,1-.28-1.64,4,4,0,0,1,1-2.89,3.35,3.35,0,0,1,2.55-1.11,3.09,3.09,0,0,1,1.61.44,2.86,2.86,0,0,1,1.09,1.17Zm-2.42,11a2.31,2.31,0,0,0,1.79-.8,2.94,2.94,0,0,0,.72-2,2.88,2.88,0,0,0-.73-2,2.3,2.3,0,0,0-1.78-.81,2.38,2.38,0,0,0-1.8.78,2.93,2.93,0,0,0-.72,2.05,2.89,2.89,0,0,0,.72,2A2.38,2.38,0,0,0,406.05,218.81Z"/>
        <path d="M415.81,220a4,4,0,0,1-2-.48,3.44,3.44,0,0,1-1.39-1.39,4.29,4.29,0,0,1-.51-2.12,4,4,0,0,1,1.09-2.9,4.09,4.09,0,0,1,5.56,0,4.4,4.4,0,0,1,0,5.8A3.77,3.77,0,0,1,415.81,220Zm0-1.12a2.38,2.38,0,0,0,1.82-.79,3,3,0,0,0,.72-2.08,2.93,2.93,0,0,0-.72-2.07,2.35,2.35,0,0,0-1.82-.79,2.32,2.32,0,0,0-1.8.79,2.93,2.93,0,0,0-.71,2.07,3,3,0,0,0,.71,2.08A2.36,2.36,0,0,0,415.8,218.85Z"/>
        <path d="M338.29,229.3h-4.46v3.6h3.93v1.25h-3.93v3.6h4.46V239H332.4V228h5.89Z"/>
        <path d="M340.62,239V227H342v12Z"/>
        <path d="M351.46,235l0,.37h-6a2.69,2.69,0,0,0,.74,2,2.4,2.4,0,0,0,1.75.69,2.33,2.33,0,0,0,1.27-.37,2.44,2.44,0,0,0,.88-1l1.21.26a3.41,3.41,0,0,1-1.31,1.65,3.59,3.59,0,0,1-2,.6,3.71,3.71,0,0,1-2.76-1.07,4.55,4.55,0,0,1,0-5.84,3.68,3.68,0,0,1,2.72-1.07,3.47,3.47,0,0,1,2.59,1A3.92,3.92,0,0,1,351.46,235Zm-3.56-2.8a2.35,2.35,0,0,0-1.59.55,2.49,2.49,0,0,0-.81,1.58h4.6a2.29,2.29,0,0,0-.67-1.58A2.16,2.16,0,0,0,347.9,232.23Z"/>
        <path d="M359.14,231.34h1.31v7.29a4.17,4.17,0,0,1-1,3,4.13,4.13,0,0,1-6.48-1.3l1.12-.55a2.54,2.54,0,0,0,2.57,1.78,2.21,2.21,0,0,0,1.8-.75,3.23,3.23,0,0,0,.62-2.1v-1.42a2.71,2.71,0,0,1-1.09,1.11,3.38,3.38,0,0,1-4.09-.67,3.82,3.82,0,0,1-1-2.73,3.78,3.78,0,0,1,1-2.72,3.33,3.33,0,0,1,2.5-1.08,3.15,3.15,0,0,1,1.61.43,2.84,2.84,0,0,1,1.09,1.14Zm-2.44,6.31a2.35,2.35,0,0,0,1.77-.78,2.79,2.79,0,0,0,0-3.76,2.29,2.29,0,0,0-1.77-.79,2.33,2.33,0,0,0-1.77.76,2.7,2.7,0,0,0-.72,1.91,2.66,2.66,0,0,0,.73,1.9A2.32,2.32,0,0,0,356.7,237.65Z"/>
        <path d="M365,239.17a2.62,2.62,0,0,1-1.68-.53,1.88,1.88,0,0,1-.66-1.57,2.2,2.2,0,0,1,.21-1,1.7,1.7,0,0,1,.63-.7,3.42,3.42,0,0,1,.9-.44,9.22,9.22,0,0,1,1.17-.28l1.24-.2c.45-.08.68-.32.68-.71a1.33,1.33,0,0,0-.48-1.14,1.93,1.93,0,0,0-1.22-.37,2,2,0,0,0-1.2.35,1.51,1.51,0,0,0-.57,1.08l-1.22-.26a2.33,2.33,0,0,1,1-1.64,3.58,3.58,0,0,1,2.1-.55,4.32,4.32,0,0,1,1.11.14,3,3,0,0,1,.93.43,1.94,1.94,0,0,1,.66.82,3.09,3.09,0,0,1,.24,1.27V237a1.29,1.29,0,0,0,.18.8.73.73,0,0,0,.6.21h.13v1H369a1.28,1.28,0,0,1-1.45-1h-.06A2.91,2.91,0,0,1,365,239.17Zm.32-1.09a2,2,0,0,0,1.64-.75,3,3,0,0,0,.63-2l-2,.39a2.63,2.63,0,0,0-1.19.43,1,1,0,0,0-.39.84,1,1,0,0,0,.37.84A1.55,1.55,0,0,0,365.29,238.08Z"/>
        <path d="M375.21,231.19a2.69,2.69,0,0,1,1.93.7,2.6,2.6,0,0,1,.72,2V239h-1.35v-4.87a1.79,1.79,0,0,0-.47-1.37,1.65,1.65,0,0,0-1.2-.45,1.88,1.88,0,0,0-1.37.53,2.19,2.19,0,0,0-.54,1.57V239h-1.35v-7.68h1.35v1A2.56,2.56,0,0,1,375.21,231.19Z"/>
        <path d="M382.93,239a2,2,0,0,1-1.5-.55,2.07,2.07,0,0,1-.55-1.53v-4.52h-1.57v-1.08h.58a1.13,1.13,0,0,0,.85-.27,1.35,1.35,0,0,0,.24-.9v-1.39h1.26v2.56H384v1.08h-1.76v4.38a1.17,1.17,0,0,0,.29.84,1,1,0,0,0,.77.3h.7V239Z"/>
        <path d="M392.58,235v.37h-6a2.69,2.69,0,0,0,.73,2,2.4,2.4,0,0,0,3.9-.7l1.22.26a3.53,3.53,0,0,1-1.31,1.65,3.59,3.59,0,0,1-2,.6,3.73,3.73,0,0,1-2.77-1.07,4.57,4.57,0,0,1,0-5.84,3.66,3.66,0,0,1,2.72-1.07,3.46,3.46,0,0,1,2.58,1A3.88,3.88,0,0,1,392.58,235Zm-3.55-2.8a2.36,2.36,0,0,0-1.6.55,2.49,2.49,0,0,0-.81,1.58h4.6a2.25,2.25,0,0,0-.67-1.58A2.12,2.12,0,0,0,389,232.23Z"/>
      </g>
    </g>
  </g>
</svg>
