<svg id="Layer_1" data-name="Layer 1" xmlns="http://www.w3.org/2000/svg" width="563.56" height="300.44" viewBox="0 0 563.56 300.44">
  <defs>
    <style>
      .cls-1 {
        fill: #999;
      }

      .cls-2 {
        fill: #f2f2f2;
      }

      .cls-3 {
        opacity: 0.75;
      }

      .cls-4 {
        opacity: 0.5;
      }

      .cls-5 {
        opacity: 0.25;
      }
    </style>
  </defs>
  <g>
    <rect class="cls-1" y="228.44" width="70.44" height="72"/>
    <rect class="cls-1" width="281.78" height="228.44"/>
    <rect class="cls-2" x="281.78" width="281.78" height="300.44"/>
    <g class="cls-3">
      <rect class="cls-1" x="70.44" y="228.44" width="70.44" height="72"/>
    </g>
    <g class="cls-4">
      <rect class="cls-1" x="140.89" y="228.44" width="70.44" height="72"/>
    </g>
    <g class="cls-5">
      <rect class="cls-1" x="211.33" y="228.44" width="70.44" height="72"/>
    </g>
    <g>
      <path d="M329.29,82.77a14.45,14.45,0,0,1-5.35-1,12.48,12.48,0,0,1-4.27-2.74,12.23,12.23,0,0,1-2.8-4.34,16.31,16.31,0,0,1,0-11.38A12.41,12.41,0,0,1,319.75,59a13,13,0,0,1,4.35-2.76,15.1,15.1,0,0,1,5.47-1,14.69,14.69,0,0,1,7,1.64,11.93,11.93,0,0,1,4.83,4.67l-4.88,2.6a7.17,7.17,0,0,0-2.83-3,8.11,8.11,0,0,0-4.09-1,7.8,7.8,0,0,0-5.86,2.36,9,9,0,0,0-2.27,6.51,9.25,9.25,0,0,0,2.27,6.55,7.85,7.85,0,0,0,6.06,2.45,9.05,9.05,0,0,0,3.27-.57,6.65,6.65,0,0,0,2.6-1.87,6.8,6.8,0,0,0,1.48-3.18h-7.33V67.84h12.6V82.4H338V78.69Q335.25,82.77,329.29,82.77Z"/>
      <path d="M352.58,66.35a6.17,6.17,0,0,1,2.5-2.29,7.61,7.61,0,0,1,3.73-1v4.76A7.26,7.26,0,0,0,354.25,69c-.94.77-1.41,2.13-1.41,4.09V82.4h-5.38V63.33h5.12Z"/>
      <path d="M364.67,60.47a3,3,0,0,1-2.19-.9,3,3,0,0,1-.9-2.18,2.92,2.92,0,0,1,.91-2.16,3,3,0,0,1,2.18-.9,3.07,3.07,0,0,1,0,6.14ZM362,82.4V63.33h5.38V82.4Z"/>
      <path d="M379.57,82.77A10.65,10.65,0,0,1,374,81.44a5.63,5.63,0,0,1-2.73-4l4.47-1.27A3.59,3.59,0,0,0,379.57,79a4,4,0,0,0,1.95-.43,1.52,1.52,0,0,0,.76-1.48,1.55,1.55,0,0,0-.31-1,2.56,2.56,0,0,0-1-.71c-.44-.19-.87-.36-1.3-.5s-1-.3-1.69-.49a18.42,18.42,0,0,1-1.77-.55,12.31,12.31,0,0,1-1.68-.71,7.21,7.21,0,0,1-1.39-1,4.12,4.12,0,0,1-1-1.5,5.38,5.38,0,0,1-.36-2,4.88,4.88,0,0,1,2.07-4.27A9.28,9.28,0,0,1,379.24,63a9.44,9.44,0,0,1,5,1.22A5.55,5.55,0,0,1,386.79,68l-4.14.93a3.23,3.23,0,0,0-3.39-2.41,3.68,3.68,0,0,0-1.88.43,1.37,1.37,0,0,0-.74,1.26,1.48,1.48,0,0,0,.11.57,1.23,1.23,0,0,0,.39.47c.19.13.37.25.54.35a4.31,4.31,0,0,0,.76.31l.84.24,1,.25,1,.26c.68.18,1.28.37,1.79.55a11.48,11.48,0,0,1,1.65.78,5.76,5.76,0,0,1,1.43,1.13,5,5,0,0,1,.94,1.57,5.81,5.81,0,0,1,.37,2.13,5.68,5.68,0,0,1-.64,2.76A4.78,4.78,0,0,1,385,81.45a8.66,8.66,0,0,1-2.48,1A12.67,12.67,0,0,1,379.57,82.77Z"/>
    </g>
    <g>
      <path d="M327.79,151.22h1.39v11H327.7l-5.93-8.9v8.9H320.4v-11h1.46l5.93,8.86Z"/>
      <path d="M338.89,158.23l0,.37h-6a2.69,2.69,0,0,0,.74,2,2.4,2.4,0,0,0,1.75.69,2.32,2.32,0,0,0,2.14-1.39l1.22.26a3.41,3.41,0,0,1-1.31,1.65,3.59,3.59,0,0,1-2,.6,3.71,3.71,0,0,1-2.76-1.07,4.55,4.55,0,0,1,0-5.84,3.68,3.68,0,0,1,2.72-1.07,3.47,3.47,0,0,1,2.59,1A3.92,3.92,0,0,1,338.89,158.23Zm-3.56-2.8a2.35,2.35,0,0,0-1.59.55,2.49,2.49,0,0,0-.81,1.58h4.6a2.29,2.29,0,0,0-.67-1.58A2.16,2.16,0,0,0,335.33,155.43Z"/>
      <path d="M345.79,154.54h1.35v7.68h-1.3l0-1a2.46,2.46,0,0,1-.95.86,3,3,0,0,1-1.35.3,2.68,2.68,0,0,1-1.93-.69,2.62,2.62,0,0,1-.72-2v-5.17h1.35v4.87a1.83,1.83,0,0,0,.47,1.37,1.66,1.66,0,0,0,1.21.46,1.85,1.85,0,0,0,1.36-.53,2.21,2.21,0,0,0,.54-1.57Z"/>
      <path d="M352.34,162.22a2,2,0,0,1-1.5-.55,2.11,2.11,0,0,1-.55-1.53v-4.52h-1.57v-1.08h.58a1.11,1.11,0,0,0,.85-.27,1.34,1.34,0,0,0,.25-.9V152h1.25v2.56h1.77v1.08h-1.77V160a1.14,1.14,0,0,0,.3.84,1,1,0,0,0,.77.3h.7v1.08Z"/>
      <path d="M356.69,155.89a2.31,2.31,0,0,1,1-1,2.84,2.84,0,0,1,1.47-.4v1.27a2.52,2.52,0,0,0-1.78.57,2.38,2.38,0,0,0-.62,1.82v4.1h-1.35v-7.68h1.32Z"/>
      <path d="M362.39,162.37a2.65,2.65,0,0,1-1.69-.53,1.88,1.88,0,0,1-.66-1.57,2.2,2.2,0,0,1,.21-1,1.77,1.77,0,0,1,.63-.7,3.76,3.76,0,0,1,.9-.44,8.52,8.52,0,0,1,1.17-.27l1.24-.21c.46-.08.68-.32.68-.71a1.33,1.33,0,0,0-.48-1.14,1.9,1.9,0,0,0-1.21-.37,2.06,2.06,0,0,0-1.21.35,1.51,1.51,0,0,0-.57,1.08l-1.22-.25a2.38,2.38,0,0,1,1-1.65,3.54,3.54,0,0,1,2.09-.55,4.21,4.21,0,0,1,1.11.14,2.82,2.82,0,0,1,.93.43,1.89,1.89,0,0,1,.67.82,3.27,3.27,0,0,1,.23,1.27v3.17a1.29,1.29,0,0,0,.18.8.76.76,0,0,0,.61.21h.12v1h-.67a1.27,1.27,0,0,1-1.45-1h-.07A2.91,2.91,0,0,1,362.39,162.37Zm.31-1.09a2.05,2.05,0,0,0,1.65-.75,3,3,0,0,0,.62-2l-2,.39a2.73,2.73,0,0,0-1.19.43,1,1,0,0,0-.39.84,1,1,0,0,0,.38.84A1.5,1.5,0,0,0,362.7,161.28Z"/>
      <path d="M369,162.22v-12h1.36v12Z"/>
      <path d="M324.56,170.42a3.19,3.19,0,0,1,1.72.46,3.09,3.09,0,0,1,1.16,1.22,3.58,3.58,0,0,1,.4,1.7,3.31,3.31,0,0,1-.91,2.39,3.13,3.13,0,0,1-2.37,1h-2.77v4.27H320.4v-11Zm-.2,5.51a2,2,0,0,0,1.53-.59,2.17,2.17,0,0,0,.55-1.56,2.19,2.19,0,0,0-.55-1.55,2,2,0,0,0-1.53-.6h-2.57v4.3Z"/>
      <path d="M331.26,175.09a2.37,2.37,0,0,1,1-1,2.84,2.84,0,0,1,1.47-.4v1.27a2.52,2.52,0,0,0-1.78.57,2.38,2.38,0,0,0-.62,1.82v4.1h-1.35v-7.68h1.32Z"/>
      <path d="M337,181.57a2.59,2.59,0,0,1-1.69-.53,1.88,1.88,0,0,1-.66-1.57,2.08,2.08,0,0,1,.22-1,1.67,1.67,0,0,1,.62-.7,3.76,3.76,0,0,1,.9-.44,8.52,8.52,0,0,1,1.17-.27l1.24-.21c.46-.08.68-.32.68-.71A1.33,1.33,0,0,0,339,175a1.9,1.9,0,0,0-1.21-.37,2.06,2.06,0,0,0-1.21.35,1.51,1.51,0,0,0-.57,1.08l-1.22-.25a2.38,2.38,0,0,1,1-1.65,3.54,3.54,0,0,1,2.09-.55,4.21,4.21,0,0,1,1.11.14,2.82,2.82,0,0,1,.93.43,1.89,1.89,0,0,1,.67.82,3.1,3.1,0,0,1,.23,1.27v3.17a1.29,1.29,0,0,0,.18.8.76.76,0,0,0,.61.21h.12v1H341a1.27,1.27,0,0,1-1.45-1h-.07A2.91,2.91,0,0,1,337,181.57Zm.31-1.09a2.05,2.05,0,0,0,1.65-.75,3,3,0,0,0,.62-2l-2,.39a2.73,2.73,0,0,0-1.19.43,1,1,0,0,0-.39.84,1,1,0,0,0,.38.84A1.5,1.5,0,0,0,337.27,180.48Z"/>
      <path d="M346.6,181.56a3.67,3.67,0,0,1-2.75-1.1,4.36,4.36,0,0,1,0-5.76,4,4,0,0,1,5-.43,3.33,3.33,0,0,1,1.29,1.86l-1.26.21a2.3,2.3,0,0,0-2.26-1.62,2.27,2.27,0,0,0-1.78.79,3.41,3.41,0,0,0,0,4.14,2.29,2.29,0,0,0,1.78.78,2.3,2.3,0,0,0,2.26-1.62l1.26.21a3.32,3.32,0,0,1-1.3,1.87A3.71,3.71,0,0,1,346.6,181.56Z"/>
      <path d="M354.56,181.42a2,2,0,0,1-1.5-.55,2.07,2.07,0,0,1-.55-1.53v-4.52h-1.57v-1.08h.58a1.13,1.13,0,0,0,.85-.27,1.35,1.35,0,0,0,.24-.9v-1.39h1.26v2.56h1.77v1.08h-1.77v4.38a1.14,1.14,0,0,0,.3.84,1,1,0,0,0,.76.3h.71v1.08Z"/>
      <path d="M358.28,171.94a.92.92,0,0,1-.92-.92.87.87,0,0,1,.27-.64.93.93,0,0,1,1.29,0,.9.9,0,0,1,.26.64.92.92,0,0,1-.26.65A.89.89,0,0,1,358.28,171.94Zm-.69,9.48v-7.68H359v7.68Z"/>
      <path d="M364.89,181.56a3.67,3.67,0,0,1-2.75-1.1,4.36,4.36,0,0,1,0-5.76,3.68,3.68,0,0,1,2.76-1.11,3.72,3.72,0,0,1,2.22.68,3.33,3.33,0,0,1,1.29,1.86l-1.26.21a2.3,2.3,0,0,0-2.26-1.62,2.27,2.27,0,0,0-1.78.79,3.41,3.41,0,0,0,0,4.14,2.29,2.29,0,0,0,1.78.78,2.3,2.3,0,0,0,2.26-1.62l1.26.21a3.32,3.32,0,0,1-1.3,1.87A3.71,3.71,0,0,1,364.89,181.56Z"/>
      <path d="M373.63,181.57a4,4,0,0,1-2-.48,3.51,3.51,0,0,1-1.39-1.39,4.29,4.29,0,0,1-.51-2.12,4,4,0,0,1,1.09-2.9,4.09,4.09,0,0,1,5.56,0,4.4,4.4,0,0,1,0,5.8A3.77,3.77,0,0,1,373.63,181.57Zm0-1.12a2.38,2.38,0,0,0,1.82-.79,3.35,3.35,0,0,0,0-4.15,2.35,2.35,0,0,0-1.82-.79,2.32,2.32,0,0,0-1.8.79,3.39,3.39,0,0,0,0,4.15A2.36,2.36,0,0,0,373.62,180.45Z"/>
      <path d="M325.11,200.77a5.93,5.93,0,0,1-2.17-.39,5.62,5.62,0,0,1-1.74-1.11,5,5,0,0,1-1.15-1.79,6.84,6.84,0,0,1,0-4.72,5.09,5.09,0,0,1,1.16-1.79,5.29,5.29,0,0,1,1.73-1.11,5.93,5.93,0,0,1,2.17-.39,5.55,5.55,0,0,1,2.92.78A4.82,4.82,0,0,1,330,192.4l-1.29.53a3.71,3.71,0,0,0-1.44-1.57,4.12,4.12,0,0,0-2.13-.55,4.47,4.47,0,0,0-1.61.29,3.81,3.81,0,0,0-1.29.83,3.7,3.7,0,0,0-.87,1.36,5,5,0,0,0-.32,1.82,5.11,5.11,0,0,0,.32,1.84,3.7,3.7,0,0,0,.87,1.36,3.81,3.81,0,0,0,1.29.83,4.27,4.27,0,0,0,1.61.3,4.13,4.13,0,0,0,2.13-.56,3.66,3.66,0,0,0,1.44-1.55l1.29.52A4.8,4.8,0,0,1,328,200,5.65,5.65,0,0,1,325.11,200.77Z"/>
      <path d="M335.25,200.77a4,4,0,0,1-2-.48,3.38,3.38,0,0,1-1.39-1.39,4.29,4.29,0,0,1-.51-2.12,3.92,3.92,0,0,1,1.09-2.9,4.09,4.09,0,0,1,5.56,0,4,4,0,0,1,1.08,2.9,3.91,3.91,0,0,1-1.09,2.9A3.73,3.73,0,0,1,335.25,200.77Zm0-1.12a2.4,2.4,0,0,0,1.82-.79,3,3,0,0,0,.72-2.08,2.93,2.93,0,0,0-.72-2.07,2.36,2.36,0,0,0-1.82-.79,2.32,2.32,0,0,0-1.8.79,2.93,2.93,0,0,0-.72,2.07,3,3,0,0,0,.72,2.08A2.36,2.36,0,0,0,335.24,199.65Z"/>
      <path d="M344.86,192.79a2.69,2.69,0,0,1,1.93.7,2.6,2.6,0,0,1,.72,2v5.17h-1.35v-4.86a1.84,1.84,0,0,0-.47-1.38,1.65,1.65,0,0,0-1.2-.44,1.87,1.87,0,0,0-1.37.52,2.19,2.19,0,0,0-.54,1.57v4.59h-1.35v-7.68h1.35v1A2.56,2.56,0,0,1,344.86,192.79Z"/>
      <path d="M352.55,200.77a3.63,3.63,0,0,1-2.07-.55,2.31,2.31,0,0,1-1-1.58l1.18-.34a1.7,1.7,0,0,0,.63,1.07,2.07,2.07,0,0,0,1.26.38,2.82,2.82,0,0,0,.74-.1,1.28,1.28,0,0,0,.57-.38,1.09,1.09,0,0,0,.23-.7,1.07,1.07,0,0,0-.07-.32,1.17,1.17,0,0,0-.12-.25.64.64,0,0,0-.22-.21,2.29,2.29,0,0,0-.27-.17,2.08,2.08,0,0,0-.34-.14l-.38-.13-.43-.12-.44-.13c-.32-.1-.59-.19-.8-.28a3.66,3.66,0,0,1-.65-.37,1.49,1.49,0,0,1-.5-.61,2.06,2.06,0,0,1-.17-.86,2,2,0,0,1,.38-1.22,2.08,2.08,0,0,1,1-.73,3.84,3.84,0,0,1,1.36-.22,3.34,3.34,0,0,1,1.87.5,2.14,2.14,0,0,1,.94,1.5l-1.11.28a1.44,1.44,0,0,0-.59-1,1.82,1.82,0,0,0-1.1-.33,1.91,1.91,0,0,0-1,.27.91.91,0,0,0-.43.83.85.85,0,0,0,.11.42,1.65,1.65,0,0,0,.23.3,1.44,1.44,0,0,0,.43.24l.45.16.56.14.12,0c.3.07.55.14.74.2a5.36,5.36,0,0,1,.66.28,2.43,2.43,0,0,1,.6.42,1.92,1.92,0,0,1,.37.6,2,2,0,0,1,.16.82,2.31,2.31,0,0,1-.23,1,1.8,1.8,0,0,1-.63.71,3,3,0,0,1-.89.38A4.15,4.15,0,0,1,352.55,200.77Z"/>
      <path d="M364.22,196.63V197h-6a2.69,2.69,0,0,0,.73,2,2.4,2.4,0,0,0,1.75.69,2.32,2.32,0,0,0,2.15-1.39l1.22.26a3.47,3.47,0,0,1-1.31,1.65,3.59,3.59,0,0,1-2,.6,3.75,3.75,0,0,1-2.77-1.07,4.57,4.57,0,0,1,0-5.84,3.66,3.66,0,0,1,2.72-1.07,3.46,3.46,0,0,1,2.58,1A3.89,3.89,0,0,1,364.22,196.63Zm-3.55-2.8a2.36,2.36,0,0,0-1.6.55,2.49,2.49,0,0,0-.81,1.58h4.6a2.25,2.25,0,0,0-.67-1.58A2.12,2.12,0,0,0,360.67,193.83Z"/>
      <path d="M367.66,194.29a2.34,2.34,0,0,1,.95-1,2.91,2.91,0,0,1,1.48-.4v1.27a2.5,2.5,0,0,0-1.78.57,2.38,2.38,0,0,0-.62,1.82v4.1h-1.35v-7.68h1.32Z"/>
      <path d="M376.62,192.94h1.45l-3.13,7.68h-1.15l-3.11-7.68h1.44l2.25,6.11Z"/>
      <path d="M381.14,200.77a2.59,2.59,0,0,1-1.69-.53,1.88,1.88,0,0,1-.66-1.57,2.2,2.2,0,0,1,.21-1,1.77,1.77,0,0,1,.63-.7,3.76,3.76,0,0,1,.9-.44,8.52,8.52,0,0,1,1.17-.27l1.24-.21c.46-.08.68-.32.68-.71a1.33,1.33,0,0,0-.48-1.14,1.9,1.9,0,0,0-1.21-.37,2,2,0,0,0-1.21.36,1.47,1.47,0,0,0-.57,1.07l-1.22-.25a2.38,2.38,0,0,1,1-1.65,3.54,3.54,0,0,1,2.09-.55,4.21,4.21,0,0,1,1.11.14,2.82,2.82,0,0,1,.93.43,1.89,1.89,0,0,1,.67.82,3.27,3.27,0,0,1,.23,1.27v3.17a1.29,1.29,0,0,0,.18.8.76.76,0,0,0,.61.21h.12v1h-.67a1.27,1.27,0,0,1-1.45-1h-.07A2.91,2.91,0,0,1,381.14,200.77Zm.31-1.09a2.07,2.07,0,0,0,1.65-.74,3.07,3.07,0,0,0,.62-2l-2,.39a2.73,2.73,0,0,0-1.19.43,1,1,0,0,0-.39.84,1,1,0,0,0,.38.84A1.5,1.5,0,0,0,381.45,199.68Z"/>
      <path d="M393.26,188.62h1.35v12h-1.3l0-1.49a2.86,2.86,0,0,1-1.1,1.21,3,3,0,0,1-1.62.45,3.46,3.46,0,0,1-1.39-.29,3.41,3.41,0,0,1-1.15-.8,3.77,3.77,0,0,1-.77-1.26,4.69,4.69,0,0,1-.28-1.65,4,4,0,0,1,1-2.89,3.35,3.35,0,0,1,2.55-1.11,3.09,3.09,0,0,1,1.61.44,2.86,2.86,0,0,1,1.09,1.17Zm-2.42,11a2.31,2.31,0,0,0,1.79-.8,2.94,2.94,0,0,0,.72-2,2.88,2.88,0,0,0-.73-2,2.3,2.3,0,0,0-1.78-.81,2.38,2.38,0,0,0-1.8.78,2.93,2.93,0,0,0-.72,2,2.89,2.89,0,0,0,.72,2A2.38,2.38,0,0,0,390.84,199.61Z"/>
      <path d="M400.6,200.77a4,4,0,0,1-2-.48,3.44,3.44,0,0,1-1.39-1.39,4.29,4.29,0,0,1-.51-2.12,3.92,3.92,0,0,1,1.09-2.9,4.09,4.09,0,0,1,5.56,0,4.4,4.4,0,0,1,0,5.8A3.77,3.77,0,0,1,400.6,200.77Zm0-1.12a2.38,2.38,0,0,0,1.82-.79,3,3,0,0,0,.72-2.08,2.93,2.93,0,0,0-.72-2.07,2.35,2.35,0,0,0-1.82-.79,2.32,2.32,0,0,0-1.8.79,2.93,2.93,0,0,0-.71,2.07,3,3,0,0,0,.71,2.08A2.36,2.36,0,0,0,400.59,199.65Z"/>
      <path d="M407.9,194.29a2.37,2.37,0,0,1,1-1,2.84,2.84,0,0,1,1.47-.4v1.27a2.52,2.52,0,0,0-1.78.57,2.38,2.38,0,0,0-.62,1.82v4.1h-1.35v-7.68h1.32Z"/>
      <path d="M326.34,210.1h-4.51v3.59h3.93V215h-3.93v4.86H320.4v-11h5.94Z"/>
      <path d="M331.26,220a4,4,0,0,1-2-.48,3.42,3.42,0,0,1-1.38-1.39,4.29,4.29,0,0,1-.51-2.12,3.92,3.92,0,0,1,1.09-2.9,4.08,4.08,0,0,1,5.55,0,4.4,4.4,0,0,1,0,5.8A3.75,3.75,0,0,1,331.26,220Zm0-1.12a2.38,2.38,0,0,0,1.82-.79,3.35,3.35,0,0,0,0-4.15,2.35,2.35,0,0,0-1.82-.79,2.32,2.32,0,0,0-1.8.79,3.39,3.39,0,0,0,0,4.15A2.36,2.36,0,0,0,331.25,218.85Z"/>
      <path d="M338.57,213.49a2.34,2.34,0,0,1,.95-1,2.88,2.88,0,0,1,1.48-.4v1.27a2.55,2.55,0,0,0-1.79.57,2.38,2.38,0,0,0-.61,1.82v4.1h-1.35v-7.68h1.32Z"/>
      <path d="M350.43,212a2.46,2.46,0,0,1,1.79.66,2.38,2.38,0,0,1,.68,1.83v5.34h-1.35v-5a1.75,1.75,0,0,0-.42-1.27,1.45,1.45,0,0,0-1.07-.42,1.52,1.52,0,0,0-1.17.48,2.06,2.06,0,0,0-.45,1.45v4.75h-1.37v-4.93a1.78,1.78,0,0,0-.43-1.31,1.43,1.43,0,0,0-1.09-.44,1.5,1.5,0,0,0-1.17.49,2.16,2.16,0,0,0-.45,1.49v4.7h-1.35v-7.68h1.35v1a2.39,2.39,0,0,1,.88-.85A2.52,2.52,0,0,1,346,212a2.58,2.58,0,0,1,1.31.33,2,2,0,0,1,.85.93,2.42,2.42,0,0,1,.92-.93A2.6,2.6,0,0,1,350.43,212Z"/>
      <path d="M357.29,220a2.56,2.56,0,0,1-1.68-.53,1.88,1.88,0,0,1-.66-1.57,2.2,2.2,0,0,1,.21-1,1.7,1.7,0,0,1,.63-.7,3.42,3.42,0,0,1,.9-.44,7.88,7.88,0,0,1,1.17-.27l1.24-.21c.45-.08.68-.32.68-.71a1.33,1.33,0,0,0-.48-1.14,2.19,2.19,0,0,0-2.42,0,1.47,1.47,0,0,0-.57,1.07l-1.22-.25a2.4,2.4,0,0,1,1-1.65,3.6,3.6,0,0,1,2.1-.55,4.32,4.32,0,0,1,1.11.14,3,3,0,0,1,.93.43,1.94,1.94,0,0,1,.66.82,3.09,3.09,0,0,1,.24,1.27v3.17a1.29,1.29,0,0,0,.18.8.74.74,0,0,0,.6.21H362v1h-.67c-.83,0-1.32-.34-1.46-1h-.06A2.91,2.91,0,0,1,357.29,220Zm.32-1.09a2,2,0,0,0,1.64-.74,3.07,3.07,0,0,0,.63-2l-2,.39a2.81,2.81,0,0,0-1.19.43,1,1,0,0,0-.39.84,1,1,0,0,0,.37.84A1.55,1.55,0,0,0,357.61,218.88Z"/>
      <path d="M363.9,219.82v-12h1.37v12Z"/>
      <path d="M326.15,228v1.28h-2.82V239h-1.4V229.3h-2.82V228Z"/>
      <path d="M328.32,232.69a2.34,2.34,0,0,1,.95-1,2.88,2.88,0,0,1,1.48-.4v1.27a2.55,2.55,0,0,0-1.79.57,2.38,2.38,0,0,0-.61,1.82V239H327v-7.68h1.32Z"/>
      <path d="M334,239.17a2.62,2.62,0,0,1-1.68-.53,1.88,1.88,0,0,1-.66-1.57,2.28,2.28,0,0,1,.21-1,1.78,1.78,0,0,1,.62-.69,3.65,3.65,0,0,1,.91-.44,9.22,9.22,0,0,1,1.17-.28l1.24-.2c.45-.08.68-.32.68-.71a1.33,1.33,0,0,0-.48-1.14,1.93,1.93,0,0,0-1.22-.37,2,2,0,0,0-1.2.35,1.51,1.51,0,0,0-.57,1.08l-1.22-.26a2.33,2.33,0,0,1,1-1.64,3.56,3.56,0,0,1,2.09-.55,4.35,4.35,0,0,1,1.12.14,3,3,0,0,1,.93.43,1.94,1.94,0,0,1,.66.82,3.09,3.09,0,0,1,.24,1.27V237a1.29,1.29,0,0,0,.18.8.73.73,0,0,0,.6.21h.13v1H338a1.28,1.28,0,0,1-1.45-1h-.06A3,3,0,0,1,334,239.17Zm.32-1.09a2,2,0,0,0,1.64-.75,3,3,0,0,0,.63-2l-2,.39a2.63,2.63,0,0,0-1.19.43,1,1,0,0,0-.39.84,1,1,0,0,0,.37.84A1.55,1.55,0,0,0,334.33,238.08Z"/>
      <path d="M344.25,231.19a2.69,2.69,0,0,1,1.93.7,2.6,2.6,0,0,1,.72,2V239h-1.35v-4.87a1.79,1.79,0,0,0-.47-1.37,1.65,1.65,0,0,0-1.2-.45,1.88,1.88,0,0,0-1.37.53,2.19,2.19,0,0,0-.54,1.57V239h-1.35v-7.68H342v1A2.56,2.56,0,0,1,344.25,231.19Z"/>
      <path d="M355.22,231.34h1.3v11.55h-1.35v-5.3a2.83,2.83,0,0,1-1.09,1.16,3.08,3.08,0,0,1-1.6.44,3.37,3.37,0,0,1-2.56-1.11,4,4,0,0,1-1-2.89,4.7,4.7,0,0,1,.28-1.66,3.59,3.59,0,0,1,.78-1.27,3.36,3.36,0,0,1,1.14-.78,3.46,3.46,0,0,1,1.39-.29,3.06,3.06,0,0,1,1.61.44,2.75,2.75,0,0,1,1.09,1.18ZM352.74,238a2.33,2.33,0,0,0,1.8-.8,3.16,3.16,0,0,0,0-4,2.36,2.36,0,0,0-1.8-.8,2.33,2.33,0,0,0-1.78.77,3.28,3.28,0,0,0,0,4.1A2.33,2.33,0,0,0,352.74,238Z"/>
      <path d="M364.06,231.34h1.35V239h-1.3l0-1a2.39,2.39,0,0,1-.95.86,2.93,2.93,0,0,1-1.34.3,2.69,2.69,0,0,1-1.94-.69,2.62,2.62,0,0,1-.72-2v-5.17h1.35v4.87a1.83,1.83,0,0,0,.47,1.37,1.66,1.66,0,0,0,1.21.46,1.84,1.84,0,0,0,1.36-.53,2.16,2.16,0,0,0,.54-1.57Z"/>
      <path d="M368.85,229.54a.92.92,0,0,1-.92-.92.87.87,0,0,1,.27-.64.93.93,0,0,1,1.29,0,.86.86,0,0,1,.26.64.9.9,0,0,1-.9.92Zm-.69,9.48v-7.68h1.36V239Z"/>
      <path d="M372.27,239V227h1.37v12Z"/>
      <path d="M379.62,239.17a4,4,0,0,1-2-.48,3.42,3.42,0,0,1-1.38-1.39,4.3,4.3,0,0,1-.52-2.12,4,4,0,0,1,1.09-2.9,4.09,4.09,0,0,1,5.56,0,4.4,4.4,0,0,1,0,5.8A3.75,3.75,0,0,1,379.62,239.17Zm0-1.12a2.38,2.38,0,0,0,1.82-.79,3,3,0,0,0,.72-2.08,2.93,2.93,0,0,0-.72-2.07,2.35,2.35,0,0,0-1.82-.79,2.32,2.32,0,0,0-1.8.79,3,3,0,0,0-.71,2.07,3,3,0,0,0,.71,2.08A2.36,2.36,0,0,0,379.61,238.05Z"/>
    </g>
    <g>
      <path d="M324.82,117.11a3.42,3.42,0,0,1,2.61,1,3.69,3.69,0,0,1,1,2.6,3.55,3.55,0,0,1-1,2.58,3.44,3.44,0,0,1-2.61,1h-2.35v4h-2.34V117.11Zm-.39,5.28a1.68,1.68,0,0,0,1.29-.44,1.65,1.65,0,0,0,.43-1.22,1.68,1.68,0,0,0-.43-1.21,1.71,1.71,0,0,0-1.29-.45h-2v3.32Z"/>
      <path d="M333.55,128.56a5.15,5.15,0,0,1-2.27-.49,3.7,3.7,0,0,1-1.56-1.45,4.26,4.26,0,0,1-.57-2.24,4,4,0,0,1,1.22-3,5.09,5.09,0,0,1,6.37,0,4.44,4.44,0,0,1,0,6.11A4.52,4.52,0,0,1,333.55,128.56Zm0-1.79a2.07,2.07,0,0,0,1.59-.66,2.44,2.44,0,0,0,.6-1.73,2.49,2.49,0,0,0-.6-1.74,2.1,2.1,0,0,0-1.59-.65,2,2,0,0,0-1.55.66,2.83,2.83,0,0,0,0,3.46A2,2,0,0,0,333.53,126.77Z"/>
      <path d="M342.46,128.56a4.57,4.57,0,0,1-2.35-.56,2.4,2.4,0,0,1-1.14-1.68l1.88-.53a1.51,1.51,0,0,0,1.61,1.2,1.58,1.58,0,0,0,.82-.19.63.63,0,0,0,.32-.62.69.69,0,0,0-.13-.41,1.24,1.24,0,0,0-.41-.3l-.55-.21-.72-.21a7.45,7.45,0,0,1-.74-.23,4.33,4.33,0,0,1-.71-.3,2.68,2.68,0,0,1-.58-.41,1.67,1.67,0,0,1-.44-.63,2.31,2.31,0,0,1-.15-.86,2.06,2.06,0,0,1,.87-1.8,3.94,3.94,0,0,1,2.28-.61,4,4,0,0,1,2.1.52,2.32,2.32,0,0,1,1.08,1.61l-1.75.39a1.36,1.36,0,0,0-1.43-1,1.53,1.53,0,0,0-.78.18.61.61,0,0,0-.27.78.48.48,0,0,0,.16.19l.23.15a1.48,1.48,0,0,0,.32.13,2.89,2.89,0,0,0,.35.1l.41.11.42.11a6.19,6.19,0,0,1,.75.23,4.81,4.81,0,0,1,.7.33,2.66,2.66,0,0,1,.6.47,2.29,2.29,0,0,1,.4.67,2.52,2.52,0,0,1,.15.89,2.39,2.39,0,0,1-.27,1.16,2,2,0,0,1-.74.79,3.55,3.55,0,0,1-1,.42A5.44,5.44,0,0,1,342.46,128.56Z"/>
      <path d="M348.53,119.17a1.26,1.26,0,0,1-.92-.38,1.27,1.27,0,0,1,0-1.83,1.28,1.28,0,0,1,.92-.38,1.3,1.3,0,0,1,0,2.59Zm-1.15,9.23v-8h2.27v8Z"/>
      <path d="M355,128.4a2.41,2.41,0,0,1-1.82-.65,2.56,2.56,0,0,1-.64-1.86V122.1h-1.58v-1.73h.51a1.29,1.29,0,0,0,1-.34,1.68,1.68,0,0,0,.32-1.19v-1.06h2v2.59h1.66v1.73h-1.66v3.55c0,.7.31,1,.93,1h.73v1.71Z"/>
      <path d="M359.34,119.17a1.26,1.26,0,0,1-.92-.38,1.29,1.29,0,0,1,0-1.83,1.29,1.29,0,0,1,.92-.38,1.27,1.27,0,0,1,.91.38,1.29,1.29,0,0,1,0,1.83A1.27,1.27,0,0,1,359.34,119.17Zm-1.15,9.23v-8h2.27v8Z"/>
      <path d="M368,120.37h2.39l-3.43,8h-2l-3.38-8H364l2,5.49Z"/>
      <path d="M375,128.56a5.17,5.17,0,0,1-2.28-.49,3.7,3.7,0,0,1-1.56-1.45,4.35,4.35,0,0,1-.56-2.24,3.91,3.91,0,0,1,1.22-3,5.07,5.07,0,0,1,6.36,0,4.44,4.44,0,0,1,0,6.11A4.49,4.49,0,0,1,375,128.56Zm0-1.79a2,2,0,0,0,1.59-.66,2.41,2.41,0,0,0,.61-1.73,2.45,2.45,0,0,0-.61-1.74A2.07,2.07,0,0,0,375,122a2,2,0,0,0-1.54.66,2.79,2.79,0,0,0,0,3.46A2,2,0,0,0,375,126.77Z"/>
    </g>
    <g>
      <path d="M433.58,162.22v-11H435v11Z"/>
      <path d="M441.71,154.39a2.69,2.69,0,0,1,1.93.7,2.6,2.6,0,0,1,.72,2v5.17H443v-4.86a1.84,1.84,0,0,0-.47-1.38,1.65,1.65,0,0,0-1.2-.45,1.88,1.88,0,0,0-1.37.53,2.19,2.19,0,0,0-.54,1.57v4.59h-1.35v-7.68h1.35v1A2.56,2.56,0,0,1,441.71,154.39Z"/>
      <path d="M449.4,162.37a3.63,3.63,0,0,1-2.07-.55,2.31,2.31,0,0,1-1-1.58l1.18-.34a1.7,1.7,0,0,0,.63,1.07,2.07,2.07,0,0,0,1.26.38,2.82,2.82,0,0,0,.74-.1,1.28,1.28,0,0,0,.57-.38,1,1,0,0,0,.22-.7.83.83,0,0,0-.06-.32,1.45,1.45,0,0,0-.12-.25.64.64,0,0,0-.22-.21,2.29,2.29,0,0,0-.27-.17,2.27,2.27,0,0,0-.35-.14l-.37-.13-.43-.12-.44-.13c-.32-.1-.59-.19-.8-.28a3.66,3.66,0,0,1-.65-.37,1.49,1.49,0,0,1-.5-.61,2.06,2.06,0,0,1-.17-.86,2,2,0,0,1,.38-1.22,2.08,2.08,0,0,1,1-.73,3.84,3.84,0,0,1,1.36-.22,3.34,3.34,0,0,1,1.87.5,2.14,2.14,0,0,1,.94,1.5l-1.11.28a1.5,1.5,0,0,0-.59-1,1.84,1.84,0,0,0-1.1-.33,1.91,1.91,0,0,0-1,.27.91.91,0,0,0-.43.83.85.85,0,0,0,.11.42,1,1,0,0,0,.65.53,4.26,4.26,0,0,0,.46.17l.56.14.12,0,.74.21a5.36,5.36,0,0,1,.66.28,2.43,2.43,0,0,1,.6.42,2,2,0,0,1,.37.59,2,2,0,0,1,.16.83,2.31,2.31,0,0,1-.23,1,1.88,1.88,0,0,1-.63.71,3,3,0,0,1-.89.38A4.15,4.15,0,0,1,449.4,162.37Z"/>
      <path d="M461.07,158.23v.37h-6a2.69,2.69,0,0,0,.73,2,2.4,2.4,0,0,0,1.75.69,2.33,2.33,0,0,0,1.27-.37,2.37,2.37,0,0,0,.88-1l1.22.26a3.53,3.53,0,0,1-1.31,1.65,3.59,3.59,0,0,1-2,.6,3.73,3.73,0,0,1-2.77-1.07,4.57,4.57,0,0,1,0-5.84,3.66,3.66,0,0,1,2.72-1.07,3.46,3.46,0,0,1,2.58,1A3.88,3.88,0,0,1,461.07,158.23Zm-3.55-2.8a2.36,2.36,0,0,0-1.6.55,2.49,2.49,0,0,0-.81,1.58h4.6A2.25,2.25,0,0,0,459,156,2.12,2.12,0,0,0,457.52,155.43Z"/>
      <path d="M468.75,154.54h1.31v7.29a4.17,4.17,0,0,1-1,3,4.12,4.12,0,0,1-6.47-1.3l1.11-.55a2.55,2.55,0,0,0,2.57,1.78,2.19,2.19,0,0,0,1.8-.75,3.17,3.17,0,0,0,.63-2.1v-1.42a2.73,2.73,0,0,1-1.1,1.11,3.37,3.37,0,0,1-4.08-.67,4.12,4.12,0,0,1,0-5.45,3.32,3.32,0,0,1,2.5-1.08,3.21,3.21,0,0,1,1.61.43,2.81,2.81,0,0,1,1.08,1.14Zm-2.44,6.32a2.32,2.32,0,0,0,1.77-.79,2.8,2.8,0,0,0,0-3.76,2.41,2.41,0,0,0-3.54,0,2.67,2.67,0,0,0-.73,1.91,2.7,2.7,0,0,0,.73,1.9A2.37,2.37,0,0,0,466.31,160.86Z"/>
      <path d="M477.6,154.54H479v7.68h-1.3l0-1a2.46,2.46,0,0,1-.95.86,3,3,0,0,1-1.35.3,2.68,2.68,0,0,1-1.93-.69,2.62,2.62,0,0,1-.72-2v-5.17H474v4.87a1.83,1.83,0,0,0,.47,1.37,1.66,1.66,0,0,0,1.21.46,1.85,1.85,0,0,0,1.36-.53,2.21,2.21,0,0,0,.54-1.57Z"/>
      <path d="M483,155.89a2.34,2.34,0,0,1,1-1,2.88,2.88,0,0,1,1.48-.4v1.27a2.55,2.55,0,0,0-1.79.57,2.38,2.38,0,0,0-.61,1.82v4.1H481.7v-7.68H483Z"/>
      <path d="M490.17,162.37a4,4,0,0,1-2-.48,3.38,3.38,0,0,1-1.39-1.39,4.29,4.29,0,0,1-.51-2.12,3.92,3.92,0,0,1,1.09-2.9,3.77,3.77,0,0,1,2.77-1.09,3.81,3.81,0,0,1,2.79,1.09,4,4,0,0,1,1.08,2.9,3.91,3.91,0,0,1-1.09,2.9A3.74,3.74,0,0,1,490.17,162.37Zm0-1.12a2.36,2.36,0,0,0,1.81-.79,3,3,0,0,0,.73-2.08,2.94,2.94,0,0,0-.73-2.07,2.33,2.33,0,0,0-1.81-.79,2.29,2.29,0,0,0-1.8.79,2.93,2.93,0,0,0-.72,2.07,3,3,0,0,0,.72,2.08A2.33,2.33,0,0,0,490.17,161.25Z"/>
      <path d="M433.58,181.42v-11h3.55a5.32,5.32,0,0,1,2.8.71,4.43,4.43,0,0,1,1.72,1.94,6.79,6.79,0,0,1,.56,2.84,7.1,7.1,0,0,1-.33,2.23,4.89,4.89,0,0,1-.95,1.74,4.2,4.2,0,0,1-1.6,1.14,5.64,5.64,0,0,1-2.2.4Zm1.4-1.27h2.1a3.37,3.37,0,0,0,2.75-1.13,4.78,4.78,0,0,0,.92-3.11,4.71,4.71,0,0,0-.93-3.09,3.34,3.34,0,0,0-2.74-1.12H435Z"/>
      <path d="M451.29,177.43v.37h-6a2.69,2.69,0,0,0,.73,2,2.4,2.4,0,0,0,1.75.69,2.33,2.33,0,0,0,1.27-.37,2.37,2.37,0,0,0,.88-1l1.22.26a3.48,3.48,0,0,1-1.32,1.65,3.54,3.54,0,0,1-2,.6A3.73,3.73,0,0,1,445,180.5a4.59,4.59,0,0,1,0-5.84,3.7,3.7,0,0,1,2.73-1.07,3.46,3.46,0,0,1,2.58,1A3.88,3.88,0,0,1,451.29,177.43Zm-3.55-2.8a2.36,2.36,0,0,0-1.6.55,2.49,2.49,0,0,0-.81,1.58h4.6a2.25,2.25,0,0,0-.67-1.58A2.14,2.14,0,0,0,447.74,174.63Z"/>
      <path d="M457.46,173.59a3.43,3.43,0,0,1,1.39.29,3.36,3.36,0,0,1,1.14.78,3.66,3.66,0,0,1,.77,1.27,4.71,4.71,0,0,1,.29,1.66,4,4,0,0,1-1,2.89,3.35,3.35,0,0,1-2.55,1.11,3,3,0,0,1-1.6-.44,2.9,2.9,0,0,1-1.1-1.18v5.32h-1.35V173.74h1.3l0,1.49a2.81,2.81,0,0,1,1.1-1.19A3,3,0,0,1,457.46,173.59Zm-.26,6.82a2.34,2.34,0,0,0,1.78-.77,3.28,3.28,0,0,0,0-4.1,2.34,2.34,0,0,0-1.78-.77,2.37,2.37,0,0,0-1.81.8,3.16,3.16,0,0,0,0,4A2.33,2.33,0,0,0,457.2,180.41Z"/>
      <path d="M464.5,175.09a2.31,2.31,0,0,1,1-1,2.84,2.84,0,0,1,1.47-.4v1.27a2.52,2.52,0,0,0-1.78.57,2.38,2.38,0,0,0-.62,1.82v4.1h-1.35v-7.68h1.32Z"/>
      <path d="M475.14,177.43v.37h-6a2.69,2.69,0,0,0,.73,2,2.49,2.49,0,0,0,3,.32,2.35,2.35,0,0,0,.87-1l1.22.26a3.47,3.47,0,0,1-1.31,1.65,3.59,3.59,0,0,1-2,.6,3.73,3.73,0,0,1-2.77-1.07,4.57,4.57,0,0,1,0-5.84,3.66,3.66,0,0,1,2.72-1.07,3.46,3.46,0,0,1,2.58,1A3.88,3.88,0,0,1,475.14,177.43Zm-3.55-2.8a2.36,2.36,0,0,0-1.6.55,2.49,2.49,0,0,0-.81,1.58h4.6a2.25,2.25,0,0,0-.67-1.58A2.12,2.12,0,0,0,471.59,174.63Z"/>
      <path d="M479.69,181.57a3.63,3.63,0,0,1-2.07-.55,2.31,2.31,0,0,1-1-1.58l1.18-.34a1.62,1.62,0,0,0,.63,1.07,2.07,2.07,0,0,0,1.26.38,2.82,2.82,0,0,0,.74-.1,1.28,1.28,0,0,0,.57-.38,1,1,0,0,0,.22-.7.83.83,0,0,0-.06-.32,2,2,0,0,0-.12-.25.64.64,0,0,0-.22-.21,2.29,2.29,0,0,0-.27-.17,2.27,2.27,0,0,0-.35-.14l-.37-.13-.43-.12-.44-.13a7.85,7.85,0,0,1-.8-.28,3.66,3.66,0,0,1-.65-.37,1.49,1.49,0,0,1-.5-.61,2.06,2.06,0,0,1-.17-.86,2,2,0,0,1,.38-1.22,2.08,2.08,0,0,1,1-.73,3.84,3.84,0,0,1,1.36-.22,3.36,3.36,0,0,1,1.87.5,2.14,2.14,0,0,1,.94,1.5l-1.11.28a1.47,1.47,0,0,0-.59-1,1.84,1.84,0,0,0-1.1-.33,1.88,1.88,0,0,0-1,.27.91.91,0,0,0-.43.83.85.85,0,0,0,.11.42,1.3,1.3,0,0,0,.23.3,1.5,1.5,0,0,0,.42.24l.46.16.56.14.12,0,.74.21a5.36,5.36,0,0,1,.66.28,2.43,2.43,0,0,1,.6.42,2,2,0,0,1,.37.59,2,2,0,0,1,.16.83,2.31,2.31,0,0,1-.23,1,2,2,0,0,1-.63.71,3,3,0,0,1-.9.38A4,4,0,0,1,479.69,181.57Z"/>
      <path d="M485.33,171.94a.87.87,0,0,1-.64-.27.89.89,0,0,1-.27-.65.87.87,0,0,1,.27-.64.92.92,0,0,1,1.28,0,.87.87,0,0,1,.27.64.89.89,0,0,1-.27.65A.87.87,0,0,1,485.33,171.94Zm-.69,9.48v-7.68H486v7.68Z"/>
      <path d="M493.54,173.74H495l-3.13,7.68h-1.15l-3.11-7.68H489l2.25,6.11Z"/>
      <path d="M499.52,181.57a4,4,0,0,1-2-.48,3.44,3.44,0,0,1-1.39-1.39,4.29,4.29,0,0,1-.51-2.12,3.92,3.92,0,0,1,1.09-2.9,4.09,4.09,0,0,1,5.56,0,4.4,4.4,0,0,1,0,5.8A3.77,3.77,0,0,1,499.52,181.57Zm0-1.12a2.4,2.4,0,0,0,1.82-.79,3,3,0,0,0,.72-2.08,2.93,2.93,0,0,0-.72-2.07,2.36,2.36,0,0,0-1.82-.79,2.32,2.32,0,0,0-1.8.79,2.93,2.93,0,0,0-.72,2.07,3,3,0,0,0,.72,2.08A2.36,2.36,0,0,0,499.51,180.45Z"/>
      <path d="M433.58,200.62v-11H435v11Z"/>
      <path d="M441.71,192.79a2.69,2.69,0,0,1,1.93.7,2.6,2.6,0,0,1,.72,2v5.17H443v-4.86a1.84,1.84,0,0,0-.47-1.38,1.65,1.65,0,0,0-1.2-.44,1.87,1.87,0,0,0-1.37.52,2.19,2.19,0,0,0-.54,1.57v4.59h-1.35v-7.68h1.35v1A2.56,2.56,0,0,1,441.71,192.79Z"/>
      <path d="M453.69,196.63l0,.37h-6a2.69,2.69,0,0,0,.74,2,2.4,2.4,0,0,0,1.75.69,2.33,2.33,0,0,0,1.27-.37,2.5,2.5,0,0,0,.88-1l1.22.26a3.48,3.48,0,0,1-1.32,1.65,3.59,3.59,0,0,1-2,.6,3.71,3.71,0,0,1-2.76-1.07,4.55,4.55,0,0,1,0-5.84,3.7,3.7,0,0,1,2.73-1.07,3.46,3.46,0,0,1,2.58,1A3.89,3.89,0,0,1,453.69,196.63Zm-3.55-2.8a2.36,2.36,0,0,0-1.6.55,2.49,2.49,0,0,0-.81,1.58h4.6a2.29,2.29,0,0,0-.67-1.58A2.15,2.15,0,0,0,450.14,193.83Z"/>
      <path d="M454.42,200.62l2.95-3.84-2.95-3.84h1.66l2.13,2.94,2.12-2.94H462l-3,3.84,3,3.84h-1.65l-2.11-2.92-2.13,2.92Z"/>
      <path d="M467.69,192.79a3.46,3.46,0,0,1,1.39.29,3.36,3.36,0,0,1,1.14.78,3.72,3.72,0,0,1,.77,1.27,4.71,4.71,0,0,1,.29,1.66,4.09,4.09,0,0,1-1,2.9,3.37,3.37,0,0,1-2.55,1.1,3.09,3.09,0,0,1-1.61-.44,2.88,2.88,0,0,1-1.09-1.18v5.32h-1.35V192.94h1.3l0,1.5a2.81,2.81,0,0,1,1.09-1.2A3.05,3.05,0,0,1,467.69,192.79Zm-.27,6.82a2.31,2.31,0,0,0,1.78-.77,3.28,3.28,0,0,0,0-4.1,2.31,2.31,0,0,0-1.78-.77,2.36,2.36,0,0,0-1.8.8,3.16,3.16,0,0,0,0,4A2.33,2.33,0,0,0,467.42,199.61Z"/>
      <path d="M474.73,194.29a2.34,2.34,0,0,1,.95-1,2.88,2.88,0,0,1,1.48-.4v1.27a2.55,2.55,0,0,0-1.79.57,2.38,2.38,0,0,0-.61,1.82v4.1h-1.35v-7.68h1.32Z"/>
      <path d="M485.37,196.63l0,.37h-6a2.69,2.69,0,0,0,.74,2,2.4,2.4,0,0,0,1.75.69,2.33,2.33,0,0,0,1.27-.37,2.5,2.5,0,0,0,.88-1l1.22.26a3.48,3.48,0,0,1-1.32,1.65,3.59,3.59,0,0,1-2,.6,3.71,3.71,0,0,1-2.76-1.07,4.55,4.55,0,0,1,0-5.84,3.69,3.69,0,0,1,2.72-1.07,3.47,3.47,0,0,1,2.59,1A3.89,3.89,0,0,1,485.37,196.63Zm-3.56-2.8a2.35,2.35,0,0,0-1.59.55,2.49,2.49,0,0,0-.81,1.58H484a2.29,2.29,0,0,0-.67-1.58A2.16,2.16,0,0,0,481.81,193.83Z"/>
      <path d="M489.92,200.77a3.63,3.63,0,0,1-2.07-.55,2.28,2.28,0,0,1-1-1.58l1.18-.34a1.62,1.62,0,0,0,.63,1.07,2,2,0,0,0,1.26.38,2.82,2.82,0,0,0,.74-.1,1.2,1.2,0,0,0,.56-.38,1,1,0,0,0,.23-.7,1.52,1.52,0,0,0-.06-.32,1.17,1.17,0,0,0-.13-.25.56.56,0,0,0-.22-.21,2.26,2.26,0,0,0-.26-.17l-.35-.14-.37-.13-.43-.12-.45-.13c-.32-.1-.58-.19-.79-.28a3.34,3.34,0,0,1-.65-.37,1.41,1.41,0,0,1-.5-.61,1.91,1.91,0,0,1-.17-.86,2,2,0,0,1,.37-1.22,2.13,2.13,0,0,1,1-.73,3.9,3.9,0,0,1,1.37-.22,3.36,3.36,0,0,1,1.87.5,2.1,2.1,0,0,1,.93,1.5l-1.11.28a1.46,1.46,0,0,0-.58-1,1.86,1.86,0,0,0-1.1-.33,1.92,1.92,0,0,0-1,.27.93.93,0,0,0-.43.83.76.76,0,0,0,.12.42,1.07,1.07,0,0,0,.23.3,1.5,1.5,0,0,0,.42.24l.45.16.57.14.11,0c.31.07.55.14.74.2a6.15,6.15,0,0,1,.67.28,2.18,2.18,0,0,1,.59.42,1.93,1.93,0,0,1,.38.6,2.14,2.14,0,0,1,.15.82,2.18,2.18,0,0,1-.23,1,1.86,1.86,0,0,1-.62.71,3,3,0,0,1-.9.38A4.08,4.08,0,0,1,489.92,200.77Z"/>
      <path d="M495.56,191.14a.92.92,0,0,1-.92-.92.87.87,0,0,1,.27-.64.92.92,0,0,1,.65-.26.89.89,0,0,1,.63.26.87.87,0,0,1,.27.64.89.89,0,0,1-.27.65A.86.86,0,0,1,495.56,191.14Zm-.69,9.48v-7.68h1.36v7.68Z"/>
      <path d="M503.77,192.94h1.44l-3.12,7.68h-1.15l-3.11-7.68h1.44l2.25,6.11Z"/>
      <path d="M509.74,200.77a4,4,0,0,1-2-.48,3.38,3.38,0,0,1-1.39-1.39,4.29,4.29,0,0,1-.51-2.12,3.92,3.92,0,0,1,1.09-2.9,3.77,3.77,0,0,1,2.77-1.09,3.81,3.81,0,0,1,2.79,1.09,4,4,0,0,1,1.08,2.9,3.91,3.91,0,0,1-1.09,2.9A3.74,3.74,0,0,1,509.74,200.77Zm0-1.12a2.36,2.36,0,0,0,1.81-.79,3,3,0,0,0,.73-2.08,2.94,2.94,0,0,0-.73-2.07,2.33,2.33,0,0,0-1.81-.79,2.29,2.29,0,0,0-1.8.79,2.93,2.93,0,0,0-.72,2.07,3,3,0,0,0,.72,2.08A2.33,2.33,0,0,0,509.74,199.65Z"/>
      <path d="M439.48,210.1H435v3.6H439V215H435v3.6h4.47v1.27h-5.9v-11h5.9Z"/>
      <path d="M444.24,220a3.63,3.63,0,0,1-2.07-.55,2.28,2.28,0,0,1-1-1.58l1.18-.34a1.62,1.62,0,0,0,.63,1.07,2,2,0,0,0,1.26.38,2.82,2.82,0,0,0,.74-.1,1.2,1.2,0,0,0,.56-.38,1,1,0,0,0,.23-.7,1.52,1.52,0,0,0-.06-.32,1.46,1.46,0,0,0-.13-.25.56.56,0,0,0-.22-.21,2.26,2.26,0,0,0-.26-.17,2.78,2.78,0,0,0-.35-.14l-.37-.13-.43-.12-.45-.13c-.32-.1-.58-.19-.79-.28a3.34,3.34,0,0,1-.65-.37,1.49,1.49,0,0,1-.5-.61,1.91,1.91,0,0,1-.17-.86,2,2,0,0,1,.37-1.23,2.15,2.15,0,0,1,1-.72,3.8,3.8,0,0,1,1.36-.22,3.36,3.36,0,0,1,1.87.5,2.1,2.1,0,0,1,.93,1.5l-1.11.28a1.46,1.46,0,0,0-.58-1,1.86,1.86,0,0,0-1.1-.33,1.92,1.92,0,0,0-1,.27.92.92,0,0,0-.42.83.76.76,0,0,0,.11.42,1.07,1.07,0,0,0,.23.3,1.3,1.3,0,0,0,.42.23,3.6,3.6,0,0,0,.45.17l.57.14.11,0,.74.21a6.15,6.15,0,0,1,.67.28,2.18,2.18,0,0,1,.59.42,2,2,0,0,1,.38.59,2.23,2.23,0,0,1,.15.83,2.18,2.18,0,0,1-.23,1,1.76,1.76,0,0,1-.62.7,2.8,2.8,0,0,1-.9.39A4.08,4.08,0,0,1,444.24,220Z"/>
      <path d="M451.64,219.82a2,2,0,0,1-1.5-.55,2.1,2.1,0,0,1-.54-1.53v-4.52H448v-1.08h.57a1.11,1.11,0,0,0,.85-.27,1.29,1.29,0,0,0,.25-.9v-1.39H451v2.56h1.76v1.08H451v4.38a1.13,1.13,0,0,0,.29.84,1,1,0,0,0,.77.3h.7v1.08Z"/>
      <path d="M456.35,220a2.62,2.62,0,0,1-1.68-.53,1.88,1.88,0,0,1-.66-1.57,2.28,2.28,0,0,1,.21-1,1.74,1.74,0,0,1,.63-.69,3.42,3.42,0,0,1,.9-.44,9.22,9.22,0,0,1,1.17-.28l1.24-.2c.45-.08.68-.32.68-.71a1.33,1.33,0,0,0-.48-1.14,1.93,1.93,0,0,0-1.22-.37,2,2,0,0,0-1.2.35,1.51,1.51,0,0,0-.57,1.08l-1.22-.26a2.4,2.4,0,0,1,1-1.64,3.6,3.6,0,0,1,2.1-.55,4.32,4.32,0,0,1,1.11.14,3,3,0,0,1,.93.43,1.94,1.94,0,0,1,.66.82,3.09,3.09,0,0,1,.24,1.27v3.17a1.29,1.29,0,0,0,.18.8.74.74,0,0,0,.6.21h.13v1h-.67c-.83,0-1.32-.34-1.46-1h-.06A2.91,2.91,0,0,1,456.35,220Zm.32-1.09a2,2,0,0,0,1.64-.75,3,3,0,0,0,.63-2l-2,.39a2.68,2.68,0,0,0-1.19.43,1,1,0,0,0-.39.84,1,1,0,0,0,.37.84A1.55,1.55,0,0,0,456.67,218.88Z"/>
      <path d="M466.59,212a2.67,2.67,0,0,1,1.93.7,2.6,2.6,0,0,1,.72,2v5.17h-1.35V215a1.79,1.79,0,0,0-.47-1.37,1.65,1.65,0,0,0-1.2-.45,1.88,1.88,0,0,0-1.37.53,2.19,2.19,0,0,0-.54,1.57v4.59H463v-7.68h1.35v1A2.58,2.58,0,0,1,466.59,212Z"/>
      <path d="M475,220a3.68,3.68,0,0,1-2.75-1.1,4.38,4.38,0,0,1,0-5.76,4,4,0,0,1,5-.43,3.4,3.4,0,0,1,1.3,1.86l-1.27.21a2.3,2.3,0,0,0-.87-1.2,2.36,2.36,0,0,0-1.39-.42,2.23,2.23,0,0,0-1.77.79,3.4,3.4,0,0,0,0,4.13,2.23,2.23,0,0,0,1.77.79,2.36,2.36,0,0,0,1.39-.42,2.3,2.3,0,0,0,.87-1.2l1.27.21a3.42,3.42,0,0,1-1.3,1.87A3.74,3.74,0,0,1,475,220Z"/>
      <path d="M482.32,220a2.62,2.62,0,0,1-1.68-.53,1.88,1.88,0,0,1-.66-1.57,2.28,2.28,0,0,1,.21-1,1.78,1.78,0,0,1,.62-.69,3.65,3.65,0,0,1,.91-.44,9.22,9.22,0,0,1,1.17-.28l1.24-.2c.45-.08.68-.32.68-.71a1.33,1.33,0,0,0-.48-1.14,1.93,1.93,0,0,0-1.22-.37,2,2,0,0,0-1.2.35,1.51,1.51,0,0,0-.57,1.08l-1.22-.26a2.33,2.33,0,0,1,1-1.64,3.56,3.56,0,0,1,2.09-.55,4.35,4.35,0,0,1,1.12.14,3,3,0,0,1,.93.43,1.94,1.94,0,0,1,.66.82,3.09,3.09,0,0,1,.24,1.27v3.17a1.29,1.29,0,0,0,.18.8.73.73,0,0,0,.6.21H487v1h-.68a1.28,1.28,0,0,1-1.45-1h-.06A2.92,2.92,0,0,1,482.32,220Zm.32-1.09a2,2,0,0,0,1.64-.75,3,3,0,0,0,.63-2l-2,.39a2.63,2.63,0,0,0-1.19.43,1,1,0,0,0-.39.84,1,1,0,0,0,.37.84A1.55,1.55,0,0,0,482.64,218.88Z"/>
      <path d="M494.45,207.82h1.35v12h-1.31l0-1.49a2.83,2.83,0,0,1-1.09,1.21,3,3,0,0,1-1.63.45,3.46,3.46,0,0,1-1.39-.29,3.37,3.37,0,0,1-1.14-.8,3.57,3.57,0,0,1-.77-1.27,4.59,4.59,0,0,1-.29-1.64,4.07,4.07,0,0,1,1-2.89,3.38,3.38,0,0,1,2.55-1.11,3.06,3.06,0,0,1,1.61.44,2.88,2.88,0,0,1,1.1,1.17Zm-2.42,11a2.32,2.32,0,0,0,1.78-.8,3.19,3.19,0,0,0,0-4,2.31,2.31,0,0,0-1.78-.81,2.35,2.35,0,0,0-1.8.78,2.89,2.89,0,0,0-.73,2.05,2.85,2.85,0,0,0,.73,2A2.35,2.35,0,0,0,492,218.81Z"/>
      <path d="M501.78,220a4,4,0,0,1-2-.48,3.42,3.42,0,0,1-1.38-1.39,4.29,4.29,0,0,1-.51-2.12,3.91,3.91,0,0,1,1.09-2.9,4.08,4.08,0,0,1,5.55,0,4.4,4.4,0,0,1,0,5.8A3.75,3.75,0,0,1,501.78,220Zm0-1.12a2.38,2.38,0,0,0,1.81-.79,3.35,3.35,0,0,0,0-4.15,2.34,2.34,0,0,0-1.81-.79,2.29,2.29,0,0,0-1.8.79,3.35,3.35,0,0,0,0,4.15A2.33,2.33,0,0,0,501.78,218.85Z"/>
      <path d="M433.58,239V228H435v11Z"/>
      <path d="M441.71,231.19a2.69,2.69,0,0,1,1.93.7,2.6,2.6,0,0,1,.72,2V239H443v-4.87a1.82,1.82,0,0,0-.47-1.37,1.65,1.65,0,0,0-1.2-.45,1.88,1.88,0,0,0-1.37.53,2.19,2.19,0,0,0-.54,1.57V239h-1.35v-7.68h1.35v1A2.56,2.56,0,0,1,441.71,231.19Z"/>
      <path d="M453.69,235l0,.37h-6a2.69,2.69,0,0,0,.74,2,2.4,2.4,0,0,0,1.75.69,2.33,2.33,0,0,0,1.27-.37,2.44,2.44,0,0,0,.88-1l1.22.26a3.48,3.48,0,0,1-1.32,1.65,3.59,3.59,0,0,1-2,.6,3.71,3.71,0,0,1-2.76-1.07,4.55,4.55,0,0,1,0-5.84,3.7,3.7,0,0,1,2.73-1.07,3.46,3.46,0,0,1,2.58,1A3.86,3.86,0,0,1,453.69,235Zm-3.55-2.8a2.36,2.36,0,0,0-1.6.55,2.49,2.49,0,0,0-.81,1.58h4.6a2.29,2.29,0,0,0-.67-1.58A2.15,2.15,0,0,0,450.14,232.23Z"/>
      <path d="M457.13,232.69a2.34,2.34,0,0,1,.95-1,2.88,2.88,0,0,1,1.48-.4v1.27a2.55,2.55,0,0,0-1.79.57,2.38,2.38,0,0,0-.61,1.82V239h-1.35v-7.68h1.32Z"/>
      <path d="M464,239a2,2,0,0,1-1.5-.55,2.11,2.11,0,0,1-.55-1.53v-4.52h-1.57v-1.08H461a1.11,1.11,0,0,0,.85-.27,1.34,1.34,0,0,0,.25-.9v-1.39h1.25v2.56h1.77v1.08h-1.77v4.38a1.14,1.14,0,0,0,.3.84,1,1,0,0,0,.77.3h.7V239Z"/>
      <path d="M473.7,235l0,.37h-6a2.69,2.69,0,0,0,.74,2,2.4,2.4,0,0,0,1.75.69,2.32,2.32,0,0,0,2.14-1.39l1.22.26a3.41,3.41,0,0,1-1.31,1.65,3.59,3.59,0,0,1-2,.6,3.71,3.71,0,0,1-2.76-1.07,4.55,4.55,0,0,1,0-5.84,3.68,3.68,0,0,1,2.72-1.07,3.47,3.47,0,0,1,2.59,1A3.9,3.9,0,0,1,473.7,235Zm-3.56-2.8a2.35,2.35,0,0,0-1.59.55,2.49,2.49,0,0,0-.81,1.58h4.6a2.29,2.29,0,0,0-.67-1.58A2.16,2.16,0,0,0,470.14,232.23Z"/>
    </g>
    <g>
      <path d="M441,117.11h2.33V128.4h-2.71l-5-8.07v8.07h-2.34V117.11H436l5,8Z"/>
      <path d="M453.49,124.27l0,.54h-6a2.06,2.06,0,0,0,.64,1.47,2.23,2.23,0,0,0,2.47.23,1.75,1.75,0,0,0,.68-.81l2.06.3a3.51,3.51,0,0,1-1.41,1.89,4.15,4.15,0,0,1-2.37.67,4.34,4.34,0,0,1-3.13-1.11,4,4,0,0,1-1.16-3.06,4.09,4.09,0,0,1,1.16-3.07,4.23,4.23,0,0,1,3.06-1.12,3.67,3.67,0,0,1,4,4.07Zm-4-2.48a1.78,1.78,0,0,0-1.95,1.55h3.69a1.69,1.69,0,0,0-.56-1.15A1.77,1.77,0,0,0,449.53,121.79Z"/>
      <path d="M460.74,120.37h2.14v7.43a6,6,0,0,1-.3,2,3.23,3.23,0,0,1-.87,1.37,3.65,3.65,0,0,1-1.34.77,5.52,5.52,0,0,1-1.75.25q-3.18,0-4.14-2.49l1.87-.8a2.71,2.71,0,0,0,.86,1.17,2.21,2.21,0,0,0,1.32.37c1.39,0,2.09-.82,2.09-2.48V127a2.53,2.53,0,0,1-1,.79,3.39,3.39,0,0,1-1.43.3,3.58,3.58,0,0,1-1.41-.28,3.75,3.75,0,0,1-1.17-.8,3.81,3.81,0,0,1-.79-1.26,4.73,4.73,0,0,1,0-3.26,3.59,3.59,0,0,1,.8-1.24,3.34,3.34,0,0,1,1.17-.78,3.61,3.61,0,0,1,1.42-.29,3.3,3.3,0,0,1,1.49.34,2.31,2.31,0,0,1,1,.88Zm-3.45,5.31a1.94,1.94,0,0,0,1.47.62,2,2,0,0,0,1.48-.62,2.25,2.25,0,0,0,0-3.06,2.09,2.09,0,0,0-3,0,2.14,2.14,0,0,0-.59,1.54A2.1,2.1,0,0,0,457.29,125.68Z"/>
      <path d="M471.8,126.22a7.51,7.51,0,0,0,.19,2v.22h-2.1l-.18-.87a2.59,2.59,0,0,1-1.12.77,4.22,4.22,0,0,1-1.45.26,4.35,4.35,0,0,1-.75-.07,2.75,2.75,0,0,1-.68-.24,2,2,0,0,1-.56-.42,1.66,1.66,0,0,1-.37-.64,2.34,2.34,0,0,1-.14-.87,2.41,2.41,0,0,1,.14-.87,2.08,2.08,0,0,1,.39-.65,2.49,2.49,0,0,1,.64-.48,5,5,0,0,1,.79-.34,9.36,9.36,0,0,1,1-.25l1.32-.3a1.42,1.42,0,0,0,.6-.25.53.53,0,0,0,.17-.4.85.85,0,0,0-.39-.78,2,2,0,0,0-1-.23,1.38,1.38,0,0,0-1.57,1.23l-2-.36a2.7,2.7,0,0,1,1.16-1.84,4.65,4.65,0,0,1,2.52-.59q3.38,0,3.38,2.9Zm-4,.81a1.8,1.8,0,0,0,1.39-.58,2.43,2.43,0,0,0,.54-1.72l-1.91.54a2.14,2.14,0,0,0-.8.33.68.68,0,0,0-.28.58.74.74,0,0,0,.3.63A1.22,1.22,0,0,0,467.84,127Z"/>
      <path d="M476.87,128.4a2.39,2.39,0,0,1-1.81-.65,2.52,2.52,0,0,1-.64-1.86V122.1h-1.58v-1.73h.51a1.32,1.32,0,0,0,1-.34,1.73,1.73,0,0,0,.32-1.19v-1.06h2v2.59h1.65v1.73H476.7v3.55c0,.7.31,1,.93,1h.72v1.71Z"/>
      <path d="M481.24,119.17a1.29,1.29,0,0,1-.92-.38,1.26,1.26,0,0,1-.38-.92,1.23,1.23,0,0,1,.39-.91,1.28,1.28,0,0,1,1.82,0,1.29,1.29,0,0,1,0,1.83A1.25,1.25,0,0,1,481.24,119.17Zm-1.14,9.23v-8h2.26v8Z"/>
      <path d="M489.92,120.37h2.38l-3.42,8h-2l-3.38-8h2.37l2,5.49Z"/>
      <path d="M496.9,128.56a5.15,5.15,0,0,1-2.27-.49,3.7,3.7,0,0,1-1.56-1.45,4.26,4.26,0,0,1-.57-2.24,4,4,0,0,1,1.22-3,5.09,5.09,0,0,1,6.37,0,4.44,4.44,0,0,1,0,6.11A4.52,4.52,0,0,1,496.9,128.56Zm0-1.79a2.07,2.07,0,0,0,1.59-.66,2.44,2.44,0,0,0,.6-1.73,2.49,2.49,0,0,0-.6-1.74,2.1,2.1,0,0,0-1.59-.65,2,2,0,0,0-1.55.66,2.83,2.83,0,0,0,0,3.46A2,2,0,0,0,496.88,126.77Z"/>
    </g>
  </g>
</svg>
