<svg id="Layer_1" data-name="Layer 1" xmlns="http://www.w3.org/2000/svg" width="563.56" height="300.44" viewBox="0 0 563.56 300.44">
  <defs>
    <style>
      .cls-1 {
        fill: #662d91;
      }

      .cls-2 {
        fill: #f2f2f2;
      }

      .cls-3 {
        opacity: 0.75;
      }

      .cls-4 {
        opacity: 0.5;
      }

      .cls-5 {
        opacity: 0.25;
      }
    </style>
  </defs>
  <rect class="cls-1" y="228.44" width="70.44" height="72"/>
  <g>
    <rect class="cls-1" width="281.78" height="228.44"/>
    <rect class="cls-2" x="281.78" width="281.78" height="300.44"/>
    <g class="cls-3">
      <rect class="cls-1" x="70.44" y="228.44" width="70.44" height="72"/>
    </g>
    <g class="cls-4">
      <rect class="cls-1" x="140.89" y="228.44" width="70.44" height="72"/>
    </g>
    <g class="cls-5">
      <rect class="cls-1" x="211.33" y="228.44" width="70.44" height="72"/>
    </g>
    <g>
      <path d="M334.75,55.59h5.92L330.76,82.4h-6.13l-9.85-26.81h5.9l7,20.32Z"/>
      <path d="M346.71,60.47a3.09,3.09,0,0,1-3.1-3.08,2.93,2.93,0,0,1,.92-2.16,3,3,0,0,1,2.18-.9,3,3,0,0,1,2.16.9,3.07,3.07,0,0,1,0,4.34A3,3,0,0,1,346.71,60.47ZM344,82.4V63.33h5.38V82.4Z"/>
      <path d="M363.78,82.77a12,12,0,0,1-5.4-1.17,8.69,8.69,0,0,1-3.7-3.43,10.28,10.28,0,0,1-1.34-5.32,9.33,9.33,0,0,1,2.89-7.24,12.11,12.11,0,0,1,15.12,0,9.34,9.34,0,0,1,2.9,7.24,9.38,9.38,0,0,1-2.9,7.26A10.71,10.71,0,0,1,363.78,82.77Zm0-4.25A4.86,4.86,0,0,0,367.5,77a6.61,6.61,0,0,0,0-8.24,4.87,4.87,0,0,0-3.77-1.56,4.71,4.71,0,0,0-3.67,1.57,6.66,6.66,0,0,0,0,8.22A4.74,4.74,0,0,0,363.73,78.52Z"/>
      <path d="M378.22,82.4V53.9h5.4V82.4Z"/>
      <path d="M407.09,72.59,407,73.87H392.9a4.92,4.92,0,0,0,1.52,3.49,4.87,4.87,0,0,0,3.36,1.2,4.68,4.68,0,0,0,2.51-.66A4.08,4.08,0,0,0,401.9,76l4.89.73a8.35,8.35,0,0,1-3.34,4.47,9.93,9.93,0,0,1-5.64,1.59,10.34,10.34,0,0,1-7.43-2.62,9.6,9.6,0,0,1-2.75-7.28,9.67,9.67,0,0,1,2.76-7.29,10,10,0,0,1,7.26-2.66,9.57,9.57,0,0,1,6.84,2.43Q407.07,67.78,407.09,72.59Zm-9.41-5.88q-3.89,0-4.64,3.67h8.76a4,4,0,0,0-1.31-2.73A4.2,4.2,0,0,0,397.68,66.71Z"/>
      <path d="M418.26,82.4a5.72,5.72,0,0,1-4.3-1.55,6,6,0,0,1-1.53-4.4v-9h-3.74v-4.1h1.2a3.17,3.17,0,0,0,2.38-.8,4.15,4.15,0,0,0,.76-2.84V57.17h4.82v6.16h3.94v4.1h-3.94v8.44c0,1.65.74,2.47,2.21,2.47h1.73V82.4Z"/>
      <path d="M441.49,77.23a18.24,18.24,0,0,0,.46,4.65v.52h-5l-.42-2.08a6.16,6.16,0,0,1-2.68,1.84,9.79,9.79,0,0,1-3.45.61,9.21,9.21,0,0,1-1.78-.16A5.89,5.89,0,0,1,427,82a4.76,4.76,0,0,1-1.33-1,4.38,4.38,0,0,1-.89-1.51,6.16,6.16,0,0,1-.33-2.07,5.62,5.62,0,0,1,.35-2.07,4.67,4.67,0,0,1,.93-1.55,5.46,5.46,0,0,1,1.5-1.13,11.14,11.14,0,0,1,1.89-.82,21.65,21.65,0,0,1,2.27-.59l3.13-.71A3.47,3.47,0,0,0,436,70a1.2,1.2,0,0,0,.42-1,2,2,0,0,0-.94-1.83,4.37,4.37,0,0,0-2.27-.56q-3.29,0-3.73,2.91l-4.73-.85a6.35,6.35,0,0,1,2.76-4.35,11,11,0,0,1,6-1.4q8,0,8,6.88Zm-9.41,1.93a4.3,4.3,0,0,0,3.31-1.39,5.83,5.83,0,0,0,1.28-4.09L432.14,75a5.4,5.4,0,0,0-1.9.78,1.6,1.6,0,0,0-.66,1.37,1.79,1.79,0,0,0,.7,1.52A2.94,2.94,0,0,0,432.08,79.16Z"/>
    </g>
    <g>
      <path d="M320.4,162.22v-11h1.39v11Z"/>
      <path d="M332.75,154.39a2.47,2.47,0,0,1,1.79.66,2.41,2.41,0,0,1,.68,1.83v5.34h-1.36v-5a1.75,1.75,0,0,0-.42-1.27,1.46,1.46,0,0,0-1.07-.43,1.54,1.54,0,0,0-1.17.49,2.06,2.06,0,0,0-.45,1.45v4.75h-1.37v-4.94A1.77,1.77,0,0,0,329,156a1.42,1.42,0,0,0-1.09-.45,1.49,1.49,0,0,0-1.16.5,2.16,2.16,0,0,0-.45,1.49v4.7H324.9v-7.68h1.35v1a2.29,2.29,0,0,1,.88-.84,2.48,2.48,0,0,1,1.22-.3,2.58,2.58,0,0,1,1.31.33,2,2,0,0,1,.85.93,2.42,2.42,0,0,1,.92-.93A2.64,2.64,0,0,1,332.75,154.39Z"/>
      <path d="M339.61,162.37a2.57,2.57,0,0,1-1.69-.53,1.88,1.88,0,0,1-.66-1.57,2.2,2.2,0,0,1,.21-1,1.7,1.7,0,0,1,.63-.7,3.42,3.42,0,0,1,.9-.44,8.52,8.52,0,0,1,1.17-.27l1.24-.21c.45-.08.68-.32.68-.71a1.33,1.33,0,0,0-.48-1.14,1.92,1.92,0,0,0-1.21-.37,2,2,0,0,0-1.21.35,1.51,1.51,0,0,0-.57,1.08l-1.22-.25a2.4,2.4,0,0,1,1-1.65,3.6,3.6,0,0,1,2.1-.55,4.27,4.27,0,0,1,1.11.14,2.82,2.82,0,0,1,.93.43,2,2,0,0,1,.67.82,3.27,3.27,0,0,1,.23,1.27v3.17a1.29,1.29,0,0,0,.18.8.75.75,0,0,0,.6.21h.13v1h-.67a1.29,1.29,0,0,1-1.46-1h-.06A2.91,2.91,0,0,1,339.61,162.37Zm.31-1.09a2.05,2.05,0,0,0,1.65-.75,3.08,3.08,0,0,0,.62-2l-2,.39a2.68,2.68,0,0,0-1.19.43,1,1,0,0,0-.39.84,1,1,0,0,0,.37.84A1.55,1.55,0,0,0,339.92,161.28Z"/>
      <path d="M351.62,154.54h1.31v7.29a4.17,4.17,0,0,1-1,3,4.12,4.12,0,0,1-6.47-1.3l1.11-.55a2.55,2.55,0,0,0,2.57,1.78A2.19,2.19,0,0,0,351,164a3.17,3.17,0,0,0,.63-2.1v-1.42a2.73,2.73,0,0,1-1.1,1.11,3.37,3.37,0,0,1-4.08-.67,3.78,3.78,0,0,1-1-2.73,3.74,3.74,0,0,1,1-2.72,3.32,3.32,0,0,1,2.5-1.08,3.14,3.14,0,0,1,1.6.43,2.77,2.77,0,0,1,1.09,1.14Zm-2.44,6.32a2.32,2.32,0,0,0,1.77-.79,2.8,2.8,0,0,0,0-3.76,2.41,2.41,0,0,0-3.54,0,2.67,2.67,0,0,0-.73,1.91,2.7,2.7,0,0,0,.73,1.9A2.37,2.37,0,0,0,349.18,160.86Z"/>
      <path d="M356.37,152.74a.87.87,0,0,1-.64-.27.89.89,0,0,1-.27-.65.87.87,0,0,1,.27-.64.92.92,0,0,1,1.28,0,.87.87,0,0,1,.27.64.89.89,0,0,1-.27.65A.87.87,0,0,1,356.37,152.74Zm-.69,9.48v-7.68H357v7.68Z"/>
      <path d="M363.42,154.39a2.67,2.67,0,0,1,1.93.7,2.6,2.6,0,0,1,.73,2v5.17h-1.36v-4.86a1.8,1.8,0,0,0-.47-1.38,1.65,1.65,0,0,0-1.2-.45,1.88,1.88,0,0,0-1.37.53,2.14,2.14,0,0,0-.53,1.57v4.59h-1.36v-7.68h1.36v1A2.55,2.55,0,0,1,363.42,154.39Z"/>
      <path d="M370.46,162.37a2.59,2.59,0,0,1-1.69-.53,1.88,1.88,0,0,1-.66-1.57,2.08,2.08,0,0,1,.22-1,1.67,1.67,0,0,1,.62-.7,3.76,3.76,0,0,1,.9-.44,8.52,8.52,0,0,1,1.17-.27l1.24-.21c.46-.08.68-.32.68-.71a1.33,1.33,0,0,0-.48-1.14,1.9,1.9,0,0,0-1.21-.37,2.06,2.06,0,0,0-1.21.35,1.51,1.51,0,0,0-.57,1.08l-1.22-.25a2.38,2.38,0,0,1,1-1.65,3.54,3.54,0,0,1,2.09-.55,4.21,4.21,0,0,1,1.11.14,2.82,2.82,0,0,1,.93.43,1.89,1.89,0,0,1,.67.82,3.27,3.27,0,0,1,.23,1.27v3.17a1.29,1.29,0,0,0,.18.8.76.76,0,0,0,.61.21h.12v1h-.67a1.27,1.27,0,0,1-1.45-1H373A2.91,2.91,0,0,1,370.46,162.37Zm.31-1.09a2.05,2.05,0,0,0,1.65-.75,3,3,0,0,0,.62-2l-2,.39a2.73,2.73,0,0,0-1.19.43,1,1,0,0,0-.39.84,1,1,0,0,0,.38.84A1.5,1.5,0,0,0,370.77,161.28Z"/>
      <path d="M379.47,162.22a2,2,0,0,1-1.5-.55,2.1,2.1,0,0,1-.54-1.53v-4.52h-1.57v-1.08h.57a1.1,1.1,0,0,0,.85-.27,1.29,1.29,0,0,0,.25-.9V152h1.26v2.56h1.76v1.08h-1.76V160a1.13,1.13,0,0,0,.29.84,1,1,0,0,0,.77.3h.7v1.08Z"/>
      <path d="M383.19,152.74a.87.87,0,0,1-.64-.27.89.89,0,0,1-.27-.65.87.87,0,0,1,.27-.64.92.92,0,0,1,1.28,0,.87.87,0,0,1,.27.64.89.89,0,0,1-.27.65A.87.87,0,0,1,383.19,152.74Zm-.69,9.48v-7.68h1.36v7.68Z"/>
      <path d="M391.4,154.54h1.45l-3.13,7.68h-1.14l-3.11-7.68h1.43l2.25,6.11Z"/>
      <path d="M397.38,162.37a4,4,0,0,1-2-.48A3.51,3.51,0,0,1,394,160.5a4.29,4.29,0,0,1-.51-2.12,4,4,0,0,1,1.09-2.9,4.09,4.09,0,0,1,5.56,0,4.4,4.4,0,0,1,0,5.8A3.77,3.77,0,0,1,397.38,162.37Zm0-1.12a2.38,2.38,0,0,0,1.82-.79,3,3,0,0,0,.72-2.08,2.93,2.93,0,0,0-.72-2.07,2.35,2.35,0,0,0-1.82-.79,2.32,2.32,0,0,0-1.8.79,2.93,2.93,0,0,0-.71,2.07,3,3,0,0,0,.71,2.08A2.36,2.36,0,0,0,397.37,161.25Z"/>
      <path d="M326.29,171.7h-4.46v3.6h3.93v1.26h-3.93v3.59h4.46v1.27H320.4v-11h5.89Z"/>
      <path d="M331.05,181.57A3.63,3.63,0,0,1,329,181a2.31,2.31,0,0,1-1-1.58l1.18-.34a1.7,1.7,0,0,0,.63,1.07,2.07,2.07,0,0,0,1.26.38,2.82,2.82,0,0,0,.74-.1,1.28,1.28,0,0,0,.57-.38,1.09,1.09,0,0,0,.23-.7,1.07,1.07,0,0,0-.07-.32,1.17,1.17,0,0,0-.12-.25.64.64,0,0,0-.22-.21,2.29,2.29,0,0,0-.27-.17,2.08,2.08,0,0,0-.34-.14l-.38-.13-.43-.12-.44-.13c-.32-.1-.59-.19-.8-.28a3.66,3.66,0,0,1-.65-.37,1.49,1.49,0,0,1-.5-.61,2.06,2.06,0,0,1-.17-.86,2,2,0,0,1,.38-1.22,2.08,2.08,0,0,1,1-.73,3.84,3.84,0,0,1,1.36-.22,3.34,3.34,0,0,1,1.87.5,2.14,2.14,0,0,1,.94,1.5l-1.11.28a1.47,1.47,0,0,0-.59-1,1.82,1.82,0,0,0-1.1-.33,1.91,1.91,0,0,0-1,.27.91.91,0,0,0-.43.83.85.85,0,0,0,.11.42,1.65,1.65,0,0,0,.23.3,1.44,1.44,0,0,0,.43.24l.45.16.56.14.12,0c.3.07.55.14.74.2a5.36,5.36,0,0,1,.66.28,2.43,2.43,0,0,1,.6.42,1.92,1.92,0,0,1,.37.6,2,2,0,0,1,.16.82,2.31,2.31,0,0,1-.23,1,1.8,1.8,0,0,1-.63.71,3,3,0,0,1-.89.38A4.1,4.1,0,0,1,331.05,181.57Z"/>
      <path d="M340.06,173.59a3.46,3.46,0,0,1,1.39.29,3.36,3.36,0,0,1,1.14.78,3.82,3.82,0,0,1,.77,1.27,4.71,4.71,0,0,1,.29,1.66,4.09,4.09,0,0,1-1,2.9,3.37,3.37,0,0,1-2.55,1.1,3.09,3.09,0,0,1-1.61-.44,2.88,2.88,0,0,1-1.09-1.18v5.32H336V173.74h1.31l0,1.5a2.81,2.81,0,0,1,1.09-1.2A3.05,3.05,0,0,1,340.06,173.59Zm-.27,6.82a2.31,2.31,0,0,0,1.78-.77,3.28,3.28,0,0,0,0-4.1,2.31,2.31,0,0,0-1.78-.77,2.36,2.36,0,0,0-1.8.8,3.13,3.13,0,0,0,0,4A2.33,2.33,0,0,0,339.79,180.41Z"/>
      <path d="M346.47,171.94a.92.92,0,0,1-.92-.92.87.87,0,0,1,.27-.64.92.92,0,0,1,.65-.26.89.89,0,0,1,.63.26.87.87,0,0,1,.27.64.89.89,0,0,1-.27.65A.86.86,0,0,1,346.47,171.94Zm-.69,9.48v-7.68h1.36v7.68Z"/>
      <path d="M351.21,175.09a2.34,2.34,0,0,1,1-1,2.88,2.88,0,0,1,1.48-.4v1.27a2.55,2.55,0,0,0-1.79.57,2.38,2.38,0,0,0-.61,1.82v4.1h-1.35v-7.68h1.32Z"/>
      <path d="M355.91,171.94a.87.87,0,0,1-.64-.27A.89.89,0,0,1,355,171a.87.87,0,0,1,.27-.64.92.92,0,0,1,1.28,0,.87.87,0,0,1,.27.64.89.89,0,0,1-.27.65A.87.87,0,0,1,355.91,171.94Zm-.69,9.48v-7.68h1.36v7.68Z"/>
      <path d="M361.79,181.42a2,2,0,0,1-1.5-.55,2.07,2.07,0,0,1-.55-1.53v-4.52h-1.57v-1.08h.58a1.08,1.08,0,0,0,.84-.27,1.29,1.29,0,0,0,.25-.9v-1.39h1.26v2.56h1.76v1.08H361.1v4.38a1.17,1.17,0,0,0,.29.84,1,1,0,0,0,.77.3h.7v1.08Z"/>
      <path d="M369.6,173.74H371v7.68h-1.3l0-1a2.46,2.46,0,0,1-.95.86,2.93,2.93,0,0,1-1.34.3,2.69,2.69,0,0,1-1.94-.69,2.62,2.62,0,0,1-.72-2v-5.17H366v4.87a1.87,1.87,0,0,0,.47,1.38,1.69,1.69,0,0,0,1.21.45,1.84,1.84,0,0,0,1.36-.53,2.16,2.16,0,0,0,.54-1.57Z"/>
      <path d="M375.47,181.57a2.56,2.56,0,0,1-1.68-.53,1.88,1.88,0,0,1-.66-1.57,2.2,2.2,0,0,1,.21-1,1.7,1.7,0,0,1,.63-.7,3.42,3.42,0,0,1,.9-.44,7.88,7.88,0,0,1,1.17-.27l1.24-.21c.45-.08.68-.32.68-.71a1.33,1.33,0,0,0-.48-1.14,2.19,2.19,0,0,0-2.42,0,1.47,1.47,0,0,0-.57,1.07l-1.22-.25a2.37,2.37,0,0,1,1-1.65,3.6,3.6,0,0,1,2.1-.55,4.32,4.32,0,0,1,1.11.14,3,3,0,0,1,.93.43,1.94,1.94,0,0,1,.66.82,3.09,3.09,0,0,1,.24,1.27v3.17a1.29,1.29,0,0,0,.18.8.73.73,0,0,0,.6.21h.13v1h-.68a1.28,1.28,0,0,1-1.45-1H378A2.91,2.91,0,0,1,375.47,181.57Zm.32-1.09a2,2,0,0,0,1.64-.74,3.07,3.07,0,0,0,.63-2l-2,.39a2.63,2.63,0,0,0-1.19.43,1,1,0,0,0-.39.84,1,1,0,0,0,.37.84A1.55,1.55,0,0,0,375.79,180.48Z"/>
      <path d="M382.08,181.42v-12h1.37v12Z"/>
      <path d="M325.11,200.77a5.93,5.93,0,0,1-2.17-.39,5.62,5.62,0,0,1-1.74-1.11,5,5,0,0,1-1.15-1.79,6.41,6.41,0,0,1-.42-2.37,6.34,6.34,0,0,1,.42-2.35,5,5,0,0,1,2.89-2.9,5.93,5.93,0,0,1,2.17-.39,5.55,5.55,0,0,1,2.92.78A4.82,4.82,0,0,1,330,192.4l-1.29.53a3.71,3.71,0,0,0-1.44-1.57,4.12,4.12,0,0,0-2.13-.55,4.47,4.47,0,0,0-1.61.29,3.81,3.81,0,0,0-1.29.83,3.7,3.7,0,0,0-.87,1.36,5,5,0,0,0-.32,1.82,5.11,5.11,0,0,0,.32,1.84,3.7,3.7,0,0,0,.87,1.36,3.81,3.81,0,0,0,1.29.83,4.27,4.27,0,0,0,1.61.29,4.12,4.12,0,0,0,2.13-.55,3.63,3.63,0,0,0,1.44-1.56l1.29.53A4.8,4.8,0,0,1,328,200,5.65,5.65,0,0,1,325.11,200.77Z"/>
      <path d="M335.25,200.77a4,4,0,0,1-2-.48,3.38,3.38,0,0,1-1.39-1.39,4.29,4.29,0,0,1-.51-2.12,3.91,3.91,0,0,1,1.09-2.9,4.09,4.09,0,0,1,5.56,0,4.42,4.42,0,0,1,0,5.8A3.73,3.73,0,0,1,335.25,200.77Zm0-1.12a2.4,2.4,0,0,0,1.82-.79,3,3,0,0,0,.72-2.08,2.93,2.93,0,0,0-.72-2.07,2.36,2.36,0,0,0-1.82-.79,2.31,2.31,0,0,0-1.8.79,2.93,2.93,0,0,0-.72,2.07,3,3,0,0,0,.72,2.08A2.34,2.34,0,0,0,335.24,199.65Z"/>
      <path d="M349.08,192.79a2.46,2.46,0,0,1,1.79.66,2.38,2.38,0,0,1,.68,1.83v5.34H350.2v-5a1.75,1.75,0,0,0-.42-1.27,1.46,1.46,0,0,0-1.07-.43,1.51,1.51,0,0,0-1.17.49,2.06,2.06,0,0,0-.45,1.45v4.75h-1.37v-4.94a1.82,1.82,0,0,0-.43-1.3,1.43,1.43,0,0,0-1.09-.45,1.51,1.51,0,0,0-1.17.5,2.16,2.16,0,0,0-.45,1.49v4.7h-1.35v-7.68h1.35v1a2.44,2.44,0,0,1,.88-.84,2.48,2.48,0,0,1,1.22-.3,2.59,2.59,0,0,1,1.32.33,2,2,0,0,1,.85.93,2.35,2.35,0,0,1,.92-.93A2.6,2.6,0,0,1,349.08,192.79Z"/>
      <path d="M358.22,192.79a3.59,3.59,0,0,1,1.39.28,3.53,3.53,0,0,1,1.14.79,3.57,3.57,0,0,1,.77,1.27,4.71,4.71,0,0,1,.29,1.66,4,4,0,0,1-1,2.89,3.35,3.35,0,0,1-2.55,1.11,3,3,0,0,1-1.6-.44,2.9,2.9,0,0,1-1.1-1.18v5.32h-1.35V192.94h1.3l0,1.49a2.81,2.81,0,0,1,1.1-1.19A3,3,0,0,1,358.22,192.79Zm-.26,6.82a2.34,2.34,0,0,0,1.78-.77,3.28,3.28,0,0,0,0-4.1A2.34,2.34,0,0,0,358,194a2.37,2.37,0,0,0-1.81.8,3.16,3.16,0,0,0,0,4A2.37,2.37,0,0,0,358,199.61Z"/>
      <path d="M365.72,200.77a2.63,2.63,0,0,1-1.69-.53,1.88,1.88,0,0,1-.66-1.57,2.28,2.28,0,0,1,.21-1,1.74,1.74,0,0,1,.63-.69,3.42,3.42,0,0,1,.9-.44,10.14,10.14,0,0,1,1.17-.28l1.24-.2c.45-.08.68-.32.68-.71a1.33,1.33,0,0,0-.48-1.14,1.93,1.93,0,0,0-1.22-.37,2,2,0,0,0-1.2.35,1.51,1.51,0,0,0-.57,1.08l-1.22-.26a2.4,2.4,0,0,1,1-1.64,3.6,3.6,0,0,1,2.1-.55,4.32,4.32,0,0,1,1.11.14,2.82,2.82,0,0,1,.93.43,1.87,1.87,0,0,1,.66.82,3.09,3.09,0,0,1,.24,1.27v3.17a1.29,1.29,0,0,0,.18.8.75.75,0,0,0,.6.21h.13v1h-.67c-.83,0-1.32-.34-1.46-1h-.06A2.93,2.93,0,0,1,365.72,200.77Zm.31-1.09a2.05,2.05,0,0,0,1.65-.75,3.08,3.08,0,0,0,.62-2l-2,.39a2.68,2.68,0,0,0-1.19.43,1.12,1.12,0,0,0,0,1.68A1.55,1.55,0,0,0,366,199.68Z"/>
      <path d="M374.75,200.77a3.67,3.67,0,0,1-2.07-.55,2.3,2.3,0,0,1-1-1.58l1.18-.34a1.62,1.62,0,0,0,.63,1.07,2,2,0,0,0,1.26.38,2.88,2.88,0,0,0,.74-.1,1.2,1.2,0,0,0,.56-.38,1,1,0,0,0,.23-.7,1.52,1.52,0,0,0-.06-.32,1.46,1.46,0,0,0-.13-.25.64.64,0,0,0-.22-.21l-.26-.17-.35-.14-.37-.13-.43-.12-.45-.13a7.56,7.56,0,0,1-.79-.28,3.34,3.34,0,0,1-.65-.37,1.43,1.43,0,0,1-.51-.61,2.06,2.06,0,0,1-.16-.86,2,2,0,0,1,.37-1.23,2.12,2.12,0,0,1,1-.72,3.9,3.9,0,0,1,1.37-.22,3.36,3.36,0,0,1,1.87.5,2.1,2.1,0,0,1,.93,1.5l-1.11.28a1.46,1.46,0,0,0-.58-1,1.87,1.87,0,0,0-1.11-.33,1.91,1.91,0,0,0-1,.27.93.93,0,0,0-.43.83.76.76,0,0,0,.12.42,1.07,1.07,0,0,0,.23.3,1.3,1.3,0,0,0,.42.23,3.6,3.6,0,0,0,.45.17l.56.14.12,0,.74.21a5.36,5.36,0,0,1,.66.28,2.1,2.1,0,0,1,.6.42,2,2,0,0,1,.38.59,2.23,2.23,0,0,1,.15.83,2.18,2.18,0,0,1-.23,1,1.71,1.71,0,0,1-.63.7,2.65,2.65,0,0,1-.89.39A4.1,4.1,0,0,1,374.75,200.77Z"/>
      <path d="M380.4,191.14a.92.92,0,0,1-.92-.92.87.87,0,0,1,.27-.64.92.92,0,0,1,.65-.26.89.89,0,0,1,.63.26.87.87,0,0,1,.27.64.89.89,0,0,1-.27.65A.86.86,0,0,1,380.4,191.14Zm-.69,9.48v-7.68h1.36v7.68Z"/>
      <path d="M388.61,192.94h1.44l-3.12,7.68h-1.15l-3.11-7.68h1.44l2.25,6.11Z"/>
      <path d="M394.58,200.77a4,4,0,0,1-2-.48,3.42,3.42,0,0,1-1.38-1.39,4.29,4.29,0,0,1-.51-2.12,3.91,3.91,0,0,1,1.09-2.9,4.08,4.08,0,0,1,5.55,0,4.4,4.4,0,0,1,0,5.8A3.75,3.75,0,0,1,394.58,200.77Zm0-1.12a2.38,2.38,0,0,0,1.81-.79,3,3,0,0,0,.72-2.08,2.93,2.93,0,0,0-.72-2.07,2.47,2.47,0,0,0-3.62,0,3,3,0,0,0-.71,2.07,3,3,0,0,0,.71,2.08A2.36,2.36,0,0,0,394.58,199.65Z"/>
      <path d="M323.79,220a5,5,0,0,1-2.87-.78,3.27,3.27,0,0,1-1.43-2.13l1.41-.34a2.28,2.28,0,0,0,1,1.5,3.31,3.31,0,0,0,1.94.55,3.41,3.41,0,0,0,.73-.07,3,3,0,0,0,.66-.2,2.12,2.12,0,0,0,.54-.36,1.5,1.5,0,0,0,.36-.54,1.73,1.73,0,0,0,.12-.73,1.46,1.46,0,0,0-.09-.52,1.75,1.75,0,0,0-.22-.41,1.34,1.34,0,0,0-.37-.33,3.82,3.82,0,0,0-.45-.27,4.14,4.14,0,0,0-.55-.22l-.58-.18-.63-.18-.12,0-.74-.2-.68-.24a3.67,3.67,0,0,1-.65-.3,4.94,4.94,0,0,1-.54-.38,1.83,1.83,0,0,1-.44-.49,2.36,2.36,0,0,1-.27-.62,3.07,3.07,0,0,1,.41-2.47,3,3,0,0,1,1.32-1,4.76,4.76,0,0,1,1.82-.33,5,5,0,0,1,2.64.68,3,3,0,0,1,1.4,2l-1.36.34a2,2,0,0,0-.91-1.35,3.18,3.18,0,0,0-1.72-.46,3.22,3.22,0,0,0-.84.11,2.27,2.27,0,0,0-.73.31,1.46,1.46,0,0,0-.53.57,1.8,1.8,0,0,0-.2.84,1.45,1.45,0,0,0,.08.47,1.31,1.31,0,0,0,.2.37,1.64,1.64,0,0,0,.33.3l.41.25a5.26,5.26,0,0,0,.51.19l.55.18.6.16a12.56,12.56,0,0,1,2.12.7,2.67,2.67,0,0,1,1.63,2,3.64,3.64,0,0,1,0,.48,3.06,3.06,0,0,1-.31,1.42,2.61,2.61,0,0,1-.87,1,4.57,4.57,0,0,1-1.23.55A5.83,5.83,0,0,1,323.79,220Z"/>
      <path d="M336.69,215.83v.37h-6a2.69,2.69,0,0,0,.73,2,2.4,2.4,0,0,0,1.75.69,2.33,2.33,0,0,0,1.27-.37,2.37,2.37,0,0,0,.88-1l1.22.26a3.53,3.53,0,0,1-1.31,1.65,3.59,3.59,0,0,1-2,.6,3.73,3.73,0,0,1-2.77-1.07,4.57,4.57,0,0,1,0-5.84,3.66,3.66,0,0,1,2.72-1.07,3.46,3.46,0,0,1,2.58,1A3.88,3.88,0,0,1,336.69,215.83Zm-3.55-2.8a2.36,2.36,0,0,0-1.6.55,2.49,2.49,0,0,0-.81,1.58h4.6a2.25,2.25,0,0,0-.67-1.58A2.14,2.14,0,0,0,333.14,213Z"/>
      <path d="M342.43,212a2.7,2.7,0,0,1,1.94.7,2.6,2.6,0,0,1,.72,2v5.17h-1.35V215a1.83,1.83,0,0,0-.47-1.37,1.65,1.65,0,0,0-1.2-.45,1.86,1.86,0,0,0-1.37.53,2.19,2.19,0,0,0-.54,1.57v4.59h-1.35v-7.68h1.35v1A2.56,2.56,0,0,1,342.43,212Z"/>
      <path d="M350.13,220a3.63,3.63,0,0,1-2.07-.55,2.31,2.31,0,0,1-1-1.58l1.18-.34a1.62,1.62,0,0,0,.63,1.07,2.07,2.07,0,0,0,1.26.38,2.82,2.82,0,0,0,.74-.1,1.28,1.28,0,0,0,.57-.38,1,1,0,0,0,.22-.7.83.83,0,0,0-.06-.32c0-.09-.08-.18-.12-.25a.64.64,0,0,0-.22-.21,2.29,2.29,0,0,0-.27-.17,2.27,2.27,0,0,0-.35-.14l-.37-.13-.43-.12-.44-.13a7.85,7.85,0,0,1-.8-.28,3.66,3.66,0,0,1-.65-.37,1.49,1.49,0,0,1-.5-.61,2.06,2.06,0,0,1-.17-.86,2,2,0,0,1,.38-1.23,2.12,2.12,0,0,1,1-.72A3.84,3.84,0,0,1,350,212a3.36,3.36,0,0,1,1.87.5,2.14,2.14,0,0,1,.94,1.5l-1.11.28a1.47,1.47,0,0,0-.59-1A1.84,1.84,0,0,0,350,213a1.88,1.88,0,0,0-1,.27.91.91,0,0,0-.43.83.85.85,0,0,0,.11.42,1,1,0,0,0,.65.53,4.26,4.26,0,0,0,.46.17l.56.14.12,0,.74.21a6.1,6.1,0,0,1,.66.28,2.43,2.43,0,0,1,.6.42,2,2,0,0,1,.37.59,2,2,0,0,1,.16.83,2.31,2.31,0,0,1-.23,1,1.86,1.86,0,0,1-.63.7,2.8,2.8,0,0,1-.9.39A4.08,4.08,0,0,1,350.13,220Z"/>
      <path d="M355.77,210.34a.87.87,0,0,1-.64-.27.89.89,0,0,1-.27-.65.87.87,0,0,1,.27-.64.9.9,0,0,1,.64-.26.92.92,0,0,1,.64.26.87.87,0,0,1,.27.64.92.92,0,0,1-.91.92Zm-.69,9.48v-7.68h1.36v7.68Z"/>
      <path d="M361.65,219.82a2,2,0,0,1-1.5-.55,2.07,2.07,0,0,1-.55-1.53v-4.52H358v-1.08h.58a1.08,1.08,0,0,0,.84-.27,1.29,1.29,0,0,0,.25-.9v-1.39H361v2.56h1.76v1.08H361v4.38a1.17,1.17,0,0,0,.29.84,1,1,0,0,0,.77.3h.7v1.08Z"/>
      <path d="M365.36,210.34a.87.87,0,0,1-.64-.27.89.89,0,0,1-.27-.65.87.87,0,0,1,.27-.64.92.92,0,0,1,1.28,0,.87.87,0,0,1,.27.64.89.89,0,0,1-.27.65A.87.87,0,0,1,365.36,210.34Zm-.68,9.48v-7.68H366v7.68Z"/>
      <path d="M373.58,212.14H375l-3.12,7.68h-1.15l-3.11-7.68h1.44l2.25,6.11Z"/>
      <path d="M379.55,220a4,4,0,0,1-2-.48,3.42,3.42,0,0,1-1.38-1.39,4.19,4.19,0,0,1-.52-2.12,4,4,0,0,1,1.09-2.9,4.09,4.09,0,0,1,5.56,0,4.4,4.4,0,0,1,0,5.8A3.75,3.75,0,0,1,379.55,220Zm0-1.12a2.38,2.38,0,0,0,1.82-.79,3,3,0,0,0,.72-2.08,2.93,2.93,0,0,0-.72-2.07,2.35,2.35,0,0,0-1.82-.79,2.32,2.32,0,0,0-1.8.79A3,3,0,0,0,377,216a3,3,0,0,0,.71,2.08A2.36,2.36,0,0,0,379.54,218.85Z"/>
      <path d="M332,239h-1.36l-.74-9.08L326.42,239h-.84l-3.49-9-.74,9H320l.84-11h1.84L326,236.6l3.34-8.58h1.86Z"/>
      <path d="M335.4,229.54a.87.87,0,0,1-.64-.27.89.89,0,0,1-.27-.65.87.87,0,0,1,.27-.64.92.92,0,0,1,1.28,0,.87.87,0,0,1,.27.64.89.89,0,0,1-.27.65A.87.87,0,0,1,335.4,229.54Zm-.68,9.48v-7.68h1.36V239Z"/>
      <path d="M341.25,239.17a3.67,3.67,0,0,1-2.07-.55,2.3,2.3,0,0,1-1-1.58l1.18-.34a1.62,1.62,0,0,0,.63,1.07,2,2,0,0,0,1.26.38,2.88,2.88,0,0,0,.74-.1,1.2,1.2,0,0,0,.56-.38,1,1,0,0,0,.23-.7,1.52,1.52,0,0,0-.06-.32,1.17,1.17,0,0,0-.13-.25.64.64,0,0,0-.22-.21l-.26-.17-.35-.14-.37-.13-.43-.12-.45-.13a7.56,7.56,0,0,1-.79-.28,3.34,3.34,0,0,1-.65-.37,1.43,1.43,0,0,1-.51-.61,2.06,2.06,0,0,1-.16-.86,2,2,0,0,1,.37-1.22,2.08,2.08,0,0,1,1-.73,3.9,3.9,0,0,1,1.37-.22,3.36,3.36,0,0,1,1.87.5,2.1,2.1,0,0,1,.93,1.5l-1.11.28a1.46,1.46,0,0,0-.58-1,1.87,1.87,0,0,0-1.11-.33,1.91,1.91,0,0,0-1,.27.93.93,0,0,0-.43.83.76.76,0,0,0,.12.42,1.07,1.07,0,0,0,.23.3,1.3,1.3,0,0,0,.42.23,3.6,3.6,0,0,0,.45.17l.56.14.12,0,.74.21a5.36,5.36,0,0,1,.66.28,2.1,2.1,0,0,1,.6.42,2,2,0,0,1,.38.59,2.23,2.23,0,0,1,.15.83,2.18,2.18,0,0,1-.23,1,1.8,1.8,0,0,1-.63.71,2.85,2.85,0,0,1-.89.38A4.1,4.1,0,0,1,341.25,239.17Z"/>
      <path d="M348.66,239a2,2,0,0,1-1.5-.55,2.11,2.11,0,0,1-.55-1.53v-4.52H345v-1.08h.58a1.11,1.11,0,0,0,.85-.27,1.34,1.34,0,0,0,.25-.9v-1.39H348v2.56h1.77v1.08H348v4.38a1.14,1.14,0,0,0,.3.84,1,1,0,0,0,.77.3h.7V239Z"/>
      <path d="M358.32,235l0,.37h-6a2.69,2.69,0,0,0,.74,2,2.38,2.38,0,0,0,1.75.69,2.32,2.32,0,0,0,2.14-1.39l1.22.26a3.41,3.41,0,0,1-1.31,1.65,3.59,3.59,0,0,1-2,.6A3.71,3.71,0,0,1,352,238.1a4.55,4.55,0,0,1,0-5.84,3.68,3.68,0,0,1,2.72-1.07,3.43,3.43,0,0,1,2.58,1A3.86,3.86,0,0,1,358.32,235Zm-3.56-2.8a2.33,2.33,0,0,0-1.59.55,2.49,2.49,0,0,0-.81,1.58H357a2.29,2.29,0,0,0-.67-1.58A2.16,2.16,0,0,0,354.76,232.23Z"/>
      <path d="M361.75,232.69a2.37,2.37,0,0,1,1-1,2.84,2.84,0,0,1,1.47-.4v1.27a2.52,2.52,0,0,0-1.78.57,2.38,2.38,0,0,0-.61,1.82V239h-1.36v-7.68h1.32Z"/>
      <path d="M366.46,229.54a.92.92,0,0,1-.92-.92.87.87,0,0,1,.27-.64.92.92,0,0,1,.65-.26.9.9,0,0,1,.9.9.89.89,0,0,1-.27.65A.85.85,0,0,1,366.46,229.54Zm-.69,9.48v-7.68h1.36V239Z"/>
      <path d="M373.11,239.17a4,4,0,0,1-2-.48,3.38,3.38,0,0,1-1.39-1.39,4.29,4.29,0,0,1-.51-2.12,3.92,3.92,0,0,1,1.09-2.9,3.77,3.77,0,0,1,2.77-1.09,3.81,3.81,0,0,1,2.79,1.09,4,4,0,0,1,1.08,2.9,3.91,3.91,0,0,1-1.09,2.9A3.74,3.74,0,0,1,373.11,239.17Zm0-1.12a2.36,2.36,0,0,0,1.81-.79,3,3,0,0,0,.73-2.08,2.94,2.94,0,0,0-.73-2.07,2.33,2.33,0,0,0-1.81-.79,2.29,2.29,0,0,0-1.8.79,2.93,2.93,0,0,0-.72,2.07,3,3,0,0,0,.72,2.08A2.33,2.33,0,0,0,373.11,238.05Z"/>
      <path d="M381.53,239.17a3.63,3.63,0,0,1-2.07-.55,2.31,2.31,0,0,1-1-1.58l1.18-.34a1.62,1.62,0,0,0,.63,1.07,2,2,0,0,0,1.26.38,2.82,2.82,0,0,0,.74-.1,1.28,1.28,0,0,0,.57-.38,1,1,0,0,0,.22-.7.83.83,0,0,0-.06-.32,1.17,1.17,0,0,0-.13-.25.6.6,0,0,0-.21-.21,2.29,2.29,0,0,0-.27-.17,2.27,2.27,0,0,0-.35-.14l-.37-.13-.43-.12-.44-.13a7.85,7.85,0,0,1-.8-.28,3.34,3.34,0,0,1-.65-.37,1.49,1.49,0,0,1-.5-.61,1.91,1.91,0,0,1-.17-.86,2,2,0,0,1,.37-1.22,2.1,2.1,0,0,1,1-.73,3.84,3.84,0,0,1,1.36-.22,3.36,3.36,0,0,1,1.87.5,2.1,2.1,0,0,1,.93,1.5l-1.1.28a1.47,1.47,0,0,0-.59-1,1.86,1.86,0,0,0-1.1-.33,1.88,1.88,0,0,0-1,.27.91.91,0,0,0-.43.83.76.76,0,0,0,.11.42,1,1,0,0,0,.65.53,4.26,4.26,0,0,0,.46.17l.56.14.12,0,.73.21a6.15,6.15,0,0,1,.67.28,2.43,2.43,0,0,1,.6.42,2,2,0,0,1,.37.59,2.23,2.23,0,0,1,.16.83,2.31,2.31,0,0,1-.23,1,2,2,0,0,1-.63.71,3,3,0,0,1-.9.38A4.08,4.08,0,0,1,381.53,239.17Z"/>
      <path d="M389.72,239.17a4,4,0,0,1-2-.48,3.38,3.38,0,0,1-1.39-1.39,4.29,4.29,0,0,1-.51-2.12,3.92,3.92,0,0,1,1.09-2.9,4.09,4.09,0,0,1,5.56,0,4,4,0,0,1,1.08,2.9,3.91,3.91,0,0,1-1.09,2.9A3.73,3.73,0,0,1,389.72,239.17Zm0-1.12a2.36,2.36,0,0,0,1.81-.79,2.93,2.93,0,0,0,.73-2.08,2.89,2.89,0,0,0-.73-2.07,2.33,2.33,0,0,0-1.81-.79,2.29,2.29,0,0,0-1.8.79,2.93,2.93,0,0,0-.72,2.07,3,3,0,0,0,.72,2.08A2.33,2.33,0,0,0,389.71,238.05Z"/>
    </g>
    <g>
      <path d="M324.83,117.11a3.41,3.41,0,0,1,2.6,1,3.7,3.7,0,0,1,1,2.6,3.51,3.51,0,0,1-1,2.58,3.43,3.43,0,0,1-2.6,1h-2.36v4h-2.34V117.11Zm-.4,5.28a1.68,1.68,0,0,0,1.29-.44,1.65,1.65,0,0,0,.43-1.22,1.68,1.68,0,0,0-.43-1.21,1.71,1.71,0,0,0-1.29-.45h-2v3.32Z"/>
      <path d="M333.55,128.56a5.15,5.15,0,0,1-2.27-.49,3.7,3.7,0,0,1-1.56-1.45,4.26,4.26,0,0,1-.57-2.24,4,4,0,0,1,1.22-3,5.12,5.12,0,0,1,6.37,0,4.44,4.44,0,0,1,0,6.11A4.52,4.52,0,0,1,333.55,128.56Zm0-1.79a2.07,2.07,0,0,0,1.59-.66,2.44,2.44,0,0,0,.6-1.73,2.49,2.49,0,0,0-.6-1.74,2.1,2.1,0,0,0-1.59-.65,2,2,0,0,0-1.54.66,2.79,2.79,0,0,0,0,3.46A2,2,0,0,0,333.53,126.77Z"/>
      <path d="M342.46,128.56a4.57,4.57,0,0,1-2.35-.56,2.4,2.4,0,0,1-1.14-1.68l1.88-.53a1.51,1.51,0,0,0,1.61,1.2,1.58,1.58,0,0,0,.82-.19.63.63,0,0,0,.32-.62.69.69,0,0,0-.13-.41,1.24,1.24,0,0,0-.41-.3l-.55-.21-.72-.21a7.45,7.45,0,0,1-.74-.23,4.74,4.74,0,0,1-.71-.3,2.68,2.68,0,0,1-.58-.41,1.67,1.67,0,0,1-.44-.63,2.31,2.31,0,0,1-.15-.86,2.06,2.06,0,0,1,.87-1.8,3.94,3.94,0,0,1,2.28-.6,4,4,0,0,1,2.1.51,2.32,2.32,0,0,1,1.08,1.61l-1.75.39a1.34,1.34,0,0,0-1.42-1,1.65,1.65,0,0,0-.79.17.59.59,0,0,0-.32.54.64.64,0,0,0,0,.24.48.48,0,0,0,.16.19l.23.15a1.48,1.48,0,0,0,.32.13,2.89,2.89,0,0,0,.35.1l.41.11.42.11c.29.08.54.15.76.23a5.28,5.28,0,0,1,.69.33,2.66,2.66,0,0,1,.6.47,2.29,2.29,0,0,1,.4.67,2.52,2.52,0,0,1,.15.89,2.46,2.46,0,0,1-.27,1.17,2,2,0,0,1-.74.78,3.55,3.55,0,0,1-1,.42A5.44,5.44,0,0,1,342.46,128.56Z"/>
      <path d="M348.53,119.17a1.26,1.26,0,0,1-.92-.38,1.27,1.27,0,0,1,0-1.83,1.28,1.28,0,0,1,.92-.38,1.3,1.3,0,0,1,0,2.59Zm-1.15,9.23v-8h2.27v8Z"/>
      <path d="M355,128.4a2.41,2.41,0,0,1-1.82-.65,2.56,2.56,0,0,1-.64-1.86V122.1h-1.58v-1.73h.51a1.32,1.32,0,0,0,1-.33,1.73,1.73,0,0,0,.32-1.2v-1.06h2v2.59h1.66v1.73h-1.66v3.55c0,.7.31,1,.93,1h.73v1.71Z"/>
      <path d="M359.34,119.17a1.26,1.26,0,0,1-.92-.38,1.22,1.22,0,0,1-.38-.92,1.25,1.25,0,0,1,.38-.91,1.29,1.29,0,0,1,.92-.38,1.27,1.27,0,0,1,.91.38,1.29,1.29,0,0,1,0,1.83A1.27,1.27,0,0,1,359.34,119.17Zm-1.15,9.23v-8h2.27v8Z"/>
      <path d="M368,120.37h2.39l-3.43,8h-2l-3.38-8H364l2,5.49Z"/>
      <path d="M375,128.56a5.17,5.17,0,0,1-2.28-.49,3.62,3.62,0,0,1-1.55-1.45,4.26,4.26,0,0,1-.57-2.24,3.91,3.91,0,0,1,1.22-3,5.11,5.11,0,0,1,6.36,0,4.44,4.44,0,0,1,0,6.11A4.49,4.49,0,0,1,375,128.56Zm0-1.79a2,2,0,0,0,1.59-.66,2.41,2.41,0,0,0,.61-1.73,2.45,2.45,0,0,0-.61-1.74A2.07,2.07,0,0,0,375,122a2,2,0,0,0-1.54.66,2.79,2.79,0,0,0,0,3.46A2,2,0,0,0,375,126.77Z"/>
    </g>
    <g>
      <path d="M433.58,162.22v-11H435v11Z"/>
      <path d="M441.71,154.39a2.69,2.69,0,0,1,1.93.7,2.6,2.6,0,0,1,.72,2v5.17H443v-4.86a1.84,1.84,0,0,0-.47-1.38,1.65,1.65,0,0,0-1.2-.45,1.88,1.88,0,0,0-1.37.53,2.19,2.19,0,0,0-.54,1.57v4.59h-1.35v-7.68h1.35v1A2.56,2.56,0,0,1,441.71,154.39Z"/>
      <path d="M449.42,162.22a2,2,0,0,1-1.5-.55,2.1,2.1,0,0,1-.54-1.53v-4.52h-1.57v-1.08h.57a1.1,1.1,0,0,0,.85-.27,1.29,1.29,0,0,0,.25-.9V152h1.26v2.56h1.76v1.08h-1.76V160a1.13,1.13,0,0,0,.29.84,1,1,0,0,0,.77.3h.7v1.08Z"/>
      <path d="M453.78,155.89a2.34,2.34,0,0,1,1-1,2.85,2.85,0,0,1,1.48-.4v1.27a2.53,2.53,0,0,0-1.79.57,2.38,2.38,0,0,0-.61,1.82v4.1h-1.35v-7.68h1.32Z"/>
      <path d="M460.93,162.37a4,4,0,0,1-2-.48,3.42,3.42,0,0,1-1.38-1.39,4.3,4.3,0,0,1-.52-2.12,4,4,0,0,1,1.09-2.9,4.09,4.09,0,0,1,5.56,0,4.4,4.4,0,0,1,0,5.8A3.75,3.75,0,0,1,460.93,162.37Zm0-1.12a2.38,2.38,0,0,0,1.82-.79,3,3,0,0,0,.72-2.08,2.93,2.93,0,0,0-.72-2.07,2.35,2.35,0,0,0-1.82-.79,2.32,2.32,0,0,0-1.8.79,3,3,0,0,0-.71,2.07,3,3,0,0,0,.71,2.08A2.36,2.36,0,0,0,460.92,161.25Z"/>
      <path d="M471.4,154.54h1.45l-3.13,7.68h-1.15l-3.11-7.68h1.44l2.25,6.11Z"/>
      <path d="M480.86,158.23v.37h-6a2.69,2.69,0,0,0,.73,2,2.4,2.4,0,0,0,1.75.69,2.33,2.33,0,0,0,1.27-.37,2.37,2.37,0,0,0,.88-1l1.22.26a3.48,3.48,0,0,1-1.32,1.65,3.54,3.54,0,0,1-2,.6,3.73,3.73,0,0,1-2.77-1.07,4.59,4.59,0,0,1,0-5.84,3.7,3.7,0,0,1,2.73-1.07,3.46,3.46,0,0,1,2.58,1A3.88,3.88,0,0,1,480.86,158.23Zm-3.55-2.8a2.36,2.36,0,0,0-1.6.55,2.49,2.49,0,0,0-.81,1.58h4.6a2.25,2.25,0,0,0-.67-1.58A2.14,2.14,0,0,0,477.31,155.43Z"/>
      <path d="M484.3,155.89a2.34,2.34,0,0,1,.95-1,2.88,2.88,0,0,1,1.48-.4v1.27a2.55,2.55,0,0,0-1.79.57,2.38,2.38,0,0,0-.61,1.82v4.1H483v-7.68h1.32Z"/>
      <path d="M490.74,162.37a3.67,3.67,0,0,1-2.07-.55,2.3,2.3,0,0,1-1-1.58l1.18-.34a1.64,1.64,0,0,0,.62,1.07,2.08,2.08,0,0,0,1.27.38,2.74,2.74,0,0,0,.73-.1,1.22,1.22,0,0,0,.57-.38,1,1,0,0,0,.23-.7,1.52,1.52,0,0,0-.06-.32,1.17,1.17,0,0,0-.13-.25.64.64,0,0,0-.22-.21l-.26-.17-.35-.14-.37-.13-.43-.12-.45-.13a7.56,7.56,0,0,1-.79-.28,3.34,3.34,0,0,1-.65-.37,1.51,1.51,0,0,1-.51-.61,2.06,2.06,0,0,1-.17-.86,2,2,0,0,1,.38-1.22,2.08,2.08,0,0,1,1-.73,3.9,3.9,0,0,1,1.37-.22,3.36,3.36,0,0,1,1.87.5,2.13,2.13,0,0,1,.93,1.5l-1.11.28a1.46,1.46,0,0,0-.58-1,1.87,1.87,0,0,0-1.11-.33,1.91,1.91,0,0,0-1,.27.93.93,0,0,0-.43.83.76.76,0,0,0,.12.42,1.07,1.07,0,0,0,.23.3,1.36,1.36,0,0,0,.42.24l.45.16.56.14.12,0,.74.21a5.36,5.36,0,0,1,.66.28,2.1,2.1,0,0,1,.6.42,2,2,0,0,1,.38.59,2.23,2.23,0,0,1,.15.83,2.18,2.18,0,0,1-.23,1,1.8,1.8,0,0,1-.63.71,2.85,2.85,0,0,1-.89.38A4.1,4.1,0,0,1,490.74,162.37Z"/>
      <path d="M496.38,152.74a.87.87,0,0,1-.64-.27.89.89,0,0,1-.27-.65.87.87,0,0,1,.27-.64.92.92,0,0,1,1.28,0,.87.87,0,0,1,.27.64.89.89,0,0,1-.27.65A.87.87,0,0,1,496.38,152.74Zm-.68,9.48v-7.68h1.36v7.68Z"/>
      <path d="M503,162.37a4,4,0,0,1-2-.48,3.42,3.42,0,0,1-1.38-1.39,4.19,4.19,0,0,1-.52-2.12,4,4,0,0,1,1.09-2.9,4.09,4.09,0,0,1,5.56,0,4.4,4.4,0,0,1,0,5.8A3.75,3.75,0,0,1,503,162.37Zm0-1.12a2.38,2.38,0,0,0,1.82-.79,3,3,0,0,0,.72-2.08,2.93,2.93,0,0,0-.72-2.07,2.35,2.35,0,0,0-1.82-.79,2.32,2.32,0,0,0-1.8.79,3,3,0,0,0-.71,2.07,3,3,0,0,0,.71,2.08A2.36,2.36,0,0,0,503,161.25Zm-.5-8,2-2.54.72.52-1.75,2Z"/>
      <path d="M512.65,154.39a2.67,2.67,0,0,1,1.93.7,2.56,2.56,0,0,1,.73,2v5.17H514v-4.86a1.84,1.84,0,0,0-.47-1.38,1.69,1.69,0,0,0-1.21-.45,1.85,1.85,0,0,0-1.36.53,2.11,2.11,0,0,0-.54,1.57v4.59H509v-7.68h1.35v1A2.56,2.56,0,0,1,512.65,154.39Z"/>
      <path d="M433.58,181.42v-11h3.55a5.32,5.32,0,0,1,2.8.71,4.43,4.43,0,0,1,1.72,1.94,6.79,6.79,0,0,1,.56,2.84,7.1,7.1,0,0,1-.33,2.23,4.89,4.89,0,0,1-.95,1.74,4.17,4.17,0,0,1-1.6,1.14,5.64,5.64,0,0,1-2.2.4Zm1.4-1.27h2.1a3.37,3.37,0,0,0,2.75-1.13,4.78,4.78,0,0,0,.92-3.11,4.71,4.71,0,0,0-.93-3.09,3.34,3.34,0,0,0-2.74-1.12H435Z"/>
      <path d="M451.29,177.43v.37h-6a2.69,2.69,0,0,0,.73,2,2.4,2.4,0,0,0,1.75.69,2.33,2.33,0,0,0,1.27-.37,2.37,2.37,0,0,0,.88-1l1.22.26a3.48,3.48,0,0,1-1.32,1.65,3.54,3.54,0,0,1-2,.6A3.71,3.71,0,0,1,445,180.5a4.59,4.59,0,0,1,0-5.84,3.7,3.7,0,0,1,2.73-1.07,3.46,3.46,0,0,1,2.58,1A3.89,3.89,0,0,1,451.29,177.43Zm-3.55-2.8a2.36,2.36,0,0,0-1.6.55,2.49,2.49,0,0,0-.81,1.58h4.6a2.25,2.25,0,0,0-.67-1.58A2.14,2.14,0,0,0,447.74,174.63Z"/>
      <path d="M456.6,181.56a3.67,3.67,0,0,1-2.75-1.1,4.36,4.36,0,0,1,0-5.76,3.68,3.68,0,0,1,2.76-1.11,3.72,3.72,0,0,1,2.22.68,3.33,3.33,0,0,1,1.29,1.86l-1.26.21a2.35,2.35,0,0,0-.87-1.2,2.38,2.38,0,0,0-1.39-.42,2.27,2.27,0,0,0-1.78.79,3,3,0,0,0-.7,2.07,3,3,0,0,0,.7,2.07,2.29,2.29,0,0,0,1.78.78A2.38,2.38,0,0,0,458,180a2.35,2.35,0,0,0,.87-1.2l1.26.21a3.37,3.37,0,0,1-1.3,1.87A3.71,3.71,0,0,1,456.6,181.56Z"/>
      <path d="M463.88,181.57a2.57,2.57,0,0,1-1.69-.53,1.88,1.88,0,0,1-.66-1.57,2.2,2.2,0,0,1,.21-1,1.7,1.7,0,0,1,.63-.7,3.76,3.76,0,0,1,.9-.44,8.52,8.52,0,0,1,1.17-.27l1.24-.21c.45-.08.68-.32.68-.71a1.33,1.33,0,0,0-.48-1.14,1.9,1.9,0,0,0-1.21-.37,2,2,0,0,0-1.21.36,1.47,1.47,0,0,0-.57,1.07l-1.22-.25a2.4,2.4,0,0,1,1-1.65,3.6,3.6,0,0,1,2.1-.55,4.27,4.27,0,0,1,1.11.14,2.82,2.82,0,0,1,.93.43,1.89,1.89,0,0,1,.67.82,3.27,3.27,0,0,1,.23,1.27v3.17a1.29,1.29,0,0,0,.18.8.76.76,0,0,0,.61.21h.12v1h-.67a1.27,1.27,0,0,1-1.45-1h-.07A2.91,2.91,0,0,1,463.88,181.57Zm.31-1.09a2.07,2.07,0,0,0,1.65-.74,3.12,3.12,0,0,0,.62-2l-2,.39a2.73,2.73,0,0,0-1.19.43,1,1,0,0,0-.39.84,1,1,0,0,0,.37.84A1.55,1.55,0,0,0,464.19,180.48Z"/>
      <path d="M476,169.42h1.35v12h-1.3l0-1.49a2.86,2.86,0,0,1-1.1,1.21,3,3,0,0,1-1.62.45,3.46,3.46,0,0,1-1.39-.29,3.41,3.41,0,0,1-1.15-.8,3.77,3.77,0,0,1-.77-1.26,4.69,4.69,0,0,1-.28-1.65,4,4,0,0,1,1-2.89,3.35,3.35,0,0,1,2.55-1.11,3,3,0,0,1,1.6.44,2.81,2.81,0,0,1,1.1,1.17Zm-2.42,11a2.31,2.31,0,0,0,1.79-.8,2.94,2.94,0,0,0,.72-2,2.88,2.88,0,0,0-.73-2,2.3,2.3,0,0,0-1.78-.81,2.38,2.38,0,0,0-1.8.78,2.93,2.93,0,0,0-.72,2.05,2.89,2.89,0,0,0,.72,2A2.38,2.38,0,0,0,473.58,180.41Z"/>
      <path d="M486.82,177.43v.37h-6a2.69,2.69,0,0,0,.73,2,2.4,2.4,0,0,0,1.75.69,2.33,2.33,0,0,0,1.27-.37,2.37,2.37,0,0,0,.88-1l1.22.26a3.53,3.53,0,0,1-1.31,1.65,3.59,3.59,0,0,1-2,.6,3.73,3.73,0,0,1-2.77-1.07,4.57,4.57,0,0,1,0-5.84,3.66,3.66,0,0,1,2.72-1.07,3.46,3.46,0,0,1,2.58,1A3.89,3.89,0,0,1,486.82,177.43Zm-3.55-2.8a2.36,2.36,0,0,0-1.6.55,2.49,2.49,0,0,0-.81,1.58h4.6a2.25,2.25,0,0,0-.67-1.58A2.12,2.12,0,0,0,483.27,174.63Z"/>
      <path d="M492.56,173.59a2.7,2.7,0,0,1,1.94.7,2.6,2.6,0,0,1,.72,2v5.17h-1.35v-4.86a1.84,1.84,0,0,0-.47-1.38,1.65,1.65,0,0,0-1.2-.44,1.85,1.85,0,0,0-1.37.52,2.19,2.19,0,0,0-.54,1.57v4.59h-1.35v-7.68h1.35v1A2.56,2.56,0,0,1,492.56,173.59Z"/>
      <path d="M501,181.56a3.67,3.67,0,0,1-2.75-1.1,4.36,4.36,0,0,1,0-5.76,4,4,0,0,1,5-.43,3.33,3.33,0,0,1,1.29,1.86l-1.26.21a2.3,2.3,0,0,0-2.26-1.62,2.27,2.27,0,0,0-1.78.79,3,3,0,0,0-.7,2.07,3,3,0,0,0,.7,2.07,2.29,2.29,0,0,0,1.78.78,2.3,2.3,0,0,0,2.26-1.62l1.26.21a3.32,3.32,0,0,1-1.3,1.87A3.71,3.71,0,0,1,501,181.56Z"/>
      <path d="M507.21,171.94a.87.87,0,0,1-.64-.27.89.89,0,0,1-.27-.65.87.87,0,0,1,.27-.64.92.92,0,0,1,1.28,0,.87.87,0,0,1,.27.64.89.89,0,0,1-.27.65A.87.87,0,0,1,507.21,171.94Zm-.68,9.48v-7.68h1.35v7.68Z"/>
      <path d="M512.41,181.57a2.61,2.61,0,0,1-1.69-.53,1.88,1.88,0,0,1-.66-1.57,2.08,2.08,0,0,1,.22-1,1.67,1.67,0,0,1,.62-.7,3.76,3.76,0,0,1,.9-.44,8.52,8.52,0,0,1,1.17-.27l1.24-.21c.46-.08.68-.32.68-.71a1.33,1.33,0,0,0-.48-1.14,1.9,1.9,0,0,0-1.21-.37A2,2,0,0,0,512,175a1.47,1.47,0,0,0-.57,1.07l-1.21-.25a2.33,2.33,0,0,1,1-1.65,3.54,3.54,0,0,1,2.09-.55,4.21,4.21,0,0,1,1.11.14,2.82,2.82,0,0,1,.93.43,1.89,1.89,0,0,1,.67.82,3.09,3.09,0,0,1,.24,1.27v3.17a1.3,1.3,0,0,0,.17.8.76.76,0,0,0,.61.21h.12v1h-.67a1.27,1.27,0,0,1-1.45-1h-.07A2.91,2.91,0,0,1,512.41,181.57Zm.31-1.09a2.07,2.07,0,0,0,1.65-.74,3.07,3.07,0,0,0,.62-2l-2,.39a2.73,2.73,0,0,0-1.19.43,1,1,0,0,0-.39.84,1,1,0,0,0,.38.84A1.52,1.52,0,0,0,512.72,180.48Z"/>
      <path d="M439.53,200.62l-2.82-5H435v5h-1.4v-11h3.65a3.27,3.27,0,0,1,2.46.87,3.06,3.06,0,0,1,.85,2.24,2.74,2.74,0,0,1-2.44,2.88l3.07,5ZM435,190.85v3.71H437a2.32,2.32,0,0,0,1.61-.5,1.73,1.73,0,0,0,.54-1.34,1.78,1.78,0,0,0-.54-1.36,2.29,2.29,0,0,0-1.61-.51Z"/>
      <path d="M449.43,196.63V197h-6a2.69,2.69,0,0,0,.73,2,2.4,2.4,0,0,0,1.75.69,2.33,2.33,0,0,0,1.27-.37,2.37,2.37,0,0,0,.88-1l1.22.26a3.53,3.53,0,0,1-1.31,1.65,3.59,3.59,0,0,1-2,.6,3.73,3.73,0,0,1-2.77-1.07,4.59,4.59,0,0,1,0-5.84,3.7,3.7,0,0,1,2.73-1.07,3.46,3.46,0,0,1,2.58,1A3.88,3.88,0,0,1,449.43,196.63Zm-3.55-2.8a2.36,2.36,0,0,0-1.6.55,2.49,2.49,0,0,0-.81,1.58h4.6a2.25,2.25,0,0,0-.67-1.58A2.14,2.14,0,0,0,445.88,193.83Z"/>
      <path d="M455.6,192.79a3.59,3.59,0,0,1,1.39.28,3.53,3.53,0,0,1,1.14.79,3.57,3.57,0,0,1,.77,1.27,4.71,4.71,0,0,1,.29,1.66,4,4,0,0,1-1,2.89,3.35,3.35,0,0,1-2.55,1.11,3,3,0,0,1-1.6-.44,2.9,2.9,0,0,1-1.1-1.18v5.32h-1.35V192.94h1.3l0,1.49a2.81,2.81,0,0,1,1.1-1.19A3,3,0,0,1,455.6,192.79Zm-.26,6.82a2.34,2.34,0,0,0,1.78-.77,3.28,3.28,0,0,0,0-4.1,2.34,2.34,0,0,0-1.78-.77,2.37,2.37,0,0,0-1.81.8,3.16,3.16,0,0,0,0,4A2.37,2.37,0,0,0,455.34,199.61Z"/>
      <path d="M462.64,194.29a2.37,2.37,0,0,1,1-1,2.84,2.84,0,0,1,1.47-.4v1.27a2.52,2.52,0,0,0-1.78.57,2.38,2.38,0,0,0-.62,1.82v4.1h-1.35v-7.68h1.32Z"/>
      <path d="M473.28,196.63V197h-6a2.69,2.69,0,0,0,.73,2,2.4,2.4,0,0,0,1.75.69,2.32,2.32,0,0,0,2.15-1.39l1.22.26a3.47,3.47,0,0,1-1.31,1.65,3.59,3.59,0,0,1-2,.6A3.75,3.75,0,0,1,467,199.7a4.57,4.57,0,0,1,0-5.84,3.66,3.66,0,0,1,2.72-1.07,3.46,3.46,0,0,1,2.58,1A3.88,3.88,0,0,1,473.28,196.63Zm-3.55-2.8a2.36,2.36,0,0,0-1.6.55,2.49,2.49,0,0,0-.81,1.58h4.6a2.25,2.25,0,0,0-.67-1.58A2.12,2.12,0,0,0,469.73,193.83Z"/>
      <path d="M477.83,200.77a3.63,3.63,0,0,1-2.07-.55,2.31,2.31,0,0,1-1-1.58l1.18-.34a1.62,1.62,0,0,0,.63,1.07,2.07,2.07,0,0,0,1.26.38,2.82,2.82,0,0,0,.74-.1,1.28,1.28,0,0,0,.57-.38,1,1,0,0,0,.22-.7.83.83,0,0,0-.06-.32c0-.09-.08-.18-.12-.25a.64.64,0,0,0-.22-.21,2.29,2.29,0,0,0-.27-.17,2.27,2.27,0,0,0-.35-.14l-.37-.13-.43-.12-.44-.13a7.85,7.85,0,0,1-.8-.28,3.66,3.66,0,0,1-.65-.37,1.49,1.49,0,0,1-.5-.61A2.06,2.06,0,0,1,475,195a2,2,0,0,1,.38-1.23,2.12,2.12,0,0,1,1-.72,3.84,3.84,0,0,1,1.36-.22,3.34,3.34,0,0,1,1.87.5,2.14,2.14,0,0,1,.94,1.5l-1.11.28a1.47,1.47,0,0,0-.59-1,1.84,1.84,0,0,0-1.1-.33,1.88,1.88,0,0,0-1,.27.91.91,0,0,0-.43.83.85.85,0,0,0,.11.42,1,1,0,0,0,.65.53,4.26,4.26,0,0,0,.46.17l.56.14.12,0,.74.21a5.36,5.36,0,0,1,.66.28,2.43,2.43,0,0,1,.6.42,2,2,0,0,1,.37.59,2,2,0,0,1,.16.83,2.31,2.31,0,0,1-.23,1,1.86,1.86,0,0,1-.63.7,2.7,2.7,0,0,1-.9.39A4,4,0,0,1,477.83,200.77Z"/>
      <path d="M483.47,191.14a.87.87,0,0,1-.64-.27.89.89,0,0,1-.27-.65.87.87,0,0,1,.27-.64.92.92,0,0,1,1.28,0,.87.87,0,0,1,.27.64.89.89,0,0,1-.27.65A.87.87,0,0,1,483.47,191.14Zm-.69,9.48v-7.68h1.36v7.68Z"/>
      <path d="M490.13,200.77a4,4,0,0,1-2-.48,3.44,3.44,0,0,1-1.39-1.39,4.29,4.29,0,0,1-.51-2.12,3.91,3.91,0,0,1,1.09-2.9,4.09,4.09,0,0,1,5.56,0,4.42,4.42,0,0,1,0,5.8A3.73,3.73,0,0,1,490.13,200.77Zm0-1.12a2.4,2.4,0,0,0,1.82-.79,3,3,0,0,0,.72-2.08,2.93,2.93,0,0,0-.72-2.07,2.36,2.36,0,0,0-1.82-.79,2.32,2.32,0,0,0-1.8.79,2.93,2.93,0,0,0-.72,2.07,3,3,0,0,0,.72,2.08A2.36,2.36,0,0,0,490.12,199.65Zm-.51-8,2-2.55.72.53-1.75,2Z"/>
      <path d="M499.74,192.79a2.69,2.69,0,0,1,1.93.7,2.6,2.6,0,0,1,.72,2v5.17H501v-4.87a1.83,1.83,0,0,0-.47-1.37,1.65,1.65,0,0,0-1.2-.45,1.88,1.88,0,0,0-1.37.53,2.19,2.19,0,0,0-.54,1.57v4.59h-1.35v-7.68h1.35v1A2.56,2.56,0,0,1,499.74,192.79Z"/>
      <path d="M433.58,219.82v-11H435v11Z"/>
      <path d="M441.71,212a2.69,2.69,0,0,1,1.93.7,2.6,2.6,0,0,1,.72,2v5.17H443V215a1.83,1.83,0,0,0-.47-1.37,1.65,1.65,0,0,0-1.2-.45,1.88,1.88,0,0,0-1.37.53,2.19,2.19,0,0,0-.54,1.57v4.59h-1.35v-7.68h1.35v1A2.56,2.56,0,0,1,441.71,212Z"/>
      <path d="M450.49,209h-.29l-.28,0a1.31,1.31,0,0,0-.28,0l-.24.08a.56.56,0,0,0-.23.13,1.2,1.2,0,0,0-.18.2.85.85,0,0,0-.16.28,2.78,2.78,0,0,0-.08.38,2.33,2.33,0,0,0,0,.48v1.58h1.78v1.08h-1.78v6.6h-1.34v-6.6h-1.49v-1.08h1.49v-1.61a4.74,4.74,0,0,1,.08-.89,3.4,3.4,0,0,1,.22-.68,1.72,1.72,0,0,1,.36-.49,2.56,2.56,0,0,1,.48-.33,2.08,2.08,0,0,1,.58-.19,5,5,0,0,1,.66-.1c.21,0,.46,0,.74,0Z"/>
      <path d="M458.68,215.83v.37h-6a2.69,2.69,0,0,0,.73,2,2.4,2.4,0,0,0,1.75.69,2.33,2.33,0,0,0,1.27-.37,2.37,2.37,0,0,0,.88-1l1.22.26a3.53,3.53,0,0,1-1.31,1.65,3.59,3.59,0,0,1-2,.6,3.73,3.73,0,0,1-2.77-1.07,4.59,4.59,0,0,1,0-5.84,3.7,3.7,0,0,1,2.73-1.07,3.46,3.46,0,0,1,2.58,1A3.88,3.88,0,0,1,458.68,215.83Zm-3.55-2.8a2.36,2.36,0,0,0-1.6.55,2.49,2.49,0,0,0-.81,1.58h4.6a2.25,2.25,0,0,0-.67-1.58A2.14,2.14,0,0,0,455.13,213Z"/>
      <path d="M462.12,213.49a2.34,2.34,0,0,1,.95-1,2.88,2.88,0,0,1,1.48-.4v1.27a2.55,2.55,0,0,0-1.79.57,2.38,2.38,0,0,0-.61,1.82v4.1H460.8v-7.68h1.32Z"/>
      <path d="M466.82,210.34a.87.87,0,0,1-.64-.27.89.89,0,0,1-.27-.65.87.87,0,0,1,.27-.64.92.92,0,0,1,1.28,0,.87.87,0,0,1,.27.64.89.89,0,0,1-.27.65A.87.87,0,0,1,466.82,210.34Zm-.69,9.48v-7.68h1.36v7.68Z"/>
      <path d="M473.48,220a4,4,0,0,1-2-.48,3.44,3.44,0,0,1-1.39-1.39,4.29,4.29,0,0,1-.51-2.12,3.92,3.92,0,0,1,1.09-2.9,4.09,4.09,0,0,1,5.56,0,4.4,4.4,0,0,1,0,5.8A3.77,3.77,0,0,1,473.48,220Zm0-1.12a2.38,2.38,0,0,0,1.82-.79A3,3,0,0,0,476,216a2.93,2.93,0,0,0-.72-2.07,2.35,2.35,0,0,0-1.82-.79,2.32,2.32,0,0,0-1.8.79A2.93,2.93,0,0,0,471,216a3,3,0,0,0,.71,2.08A2.36,2.36,0,0,0,473.47,218.85Z"/>
      <path d="M480.78,213.49a2.37,2.37,0,0,1,1-1,2.84,2.84,0,0,1,1.47-.4v1.27a2.52,2.52,0,0,0-1.78.57,2.38,2.38,0,0,0-.62,1.82v4.1h-1.35v-7.68h1.32Z"/>
      <path d="M485.49,210.34a.92.92,0,0,1-.92-.92.87.87,0,0,1,.27-.64.92.92,0,0,1,.65-.26.89.89,0,0,1,.63.26.87.87,0,0,1,.27.64.89.89,0,0,1-.27.65A.86.86,0,0,1,485.49,210.34Zm-.69,9.48v-7.68h1.36v7.68Z"/>
      <path d="M494.58,207.82h1.35v12h-1.3l0-1.49a2.86,2.86,0,0,1-1.1,1.21,3,3,0,0,1-1.62.45,3.53,3.53,0,0,1-2.54-1.09,3.72,3.72,0,0,1-.77-1.27,4.59,4.59,0,0,1-.29-1.64,4,4,0,0,1,1.05-2.89,3.35,3.35,0,0,1,2.55-1.11,3,3,0,0,1,1.6.44,2.88,2.88,0,0,1,1.1,1.17Zm-2.42,11a2.31,2.31,0,0,0,1.78-.8,3.16,3.16,0,0,0,0-4,2.3,2.3,0,0,0-1.78-.81,2.36,2.36,0,0,0-1.8.78,3.23,3.23,0,0,0,0,4.09A2.36,2.36,0,0,0,492.16,218.81Z"/>
      <path d="M500.46,220a2.63,2.63,0,0,1-1.69-.53,1.88,1.88,0,0,1-.66-1.57,2.2,2.2,0,0,1,.21-1,1.7,1.7,0,0,1,.63-.7,3.42,3.42,0,0,1,.9-.44,9.22,9.22,0,0,1,1.17-.28l1.24-.2c.45-.08.68-.32.68-.71a1.33,1.33,0,0,0-.48-1.14,1.93,1.93,0,0,0-1.22-.37,2,2,0,0,0-1.2.35,1.51,1.51,0,0,0-.57,1.08l-1.22-.26a2.4,2.4,0,0,1,1-1.64,3.6,3.6,0,0,1,2.1-.55,4.32,4.32,0,0,1,1.11.14,2.82,2.82,0,0,1,.93.43,1.94,1.94,0,0,1,.66.82,3.09,3.09,0,0,1,.24,1.27v3.17a1.29,1.29,0,0,0,.18.8.75.75,0,0,0,.6.21h.13v1h-.67c-.83,0-1.32-.34-1.46-1H503A2.93,2.93,0,0,1,500.46,220Zm.31-1.09a2.05,2.05,0,0,0,1.65-.75,3.08,3.08,0,0,0,.62-2l-2,.39a2.68,2.68,0,0,0-1.19.43,1,1,0,0,0-.39.84,1,1,0,0,0,.37.84A1.55,1.55,0,0,0,500.77,218.88Z"/>
      <path d="M512.58,207.82h1.35v12h-1.3l0-1.49a2.86,2.86,0,0,1-1.1,1.21,3,3,0,0,1-1.62.45,3.53,3.53,0,0,1-2.54-1.09,3.72,3.72,0,0,1-.77-1.27,4.59,4.59,0,0,1-.29-1.64,4,4,0,0,1,1.05-2.89,3.35,3.35,0,0,1,2.55-1.11,3,3,0,0,1,1.6.44,2.88,2.88,0,0,1,1.1,1.17Zm-2.42,11a2.31,2.31,0,0,0,1.78-.8,3.16,3.16,0,0,0,0-4,2.3,2.3,0,0,0-1.78-.81,2.36,2.36,0,0,0-1.8.78,3.23,3.23,0,0,0,0,4.09A2.36,2.36,0,0,0,510.16,218.81Z"/>
      <path d="M439.48,229.3H435v3.6H439v1.26H435v3.59h4.47V239h-5.9V228h5.9Z"/>
      <path d="M440.72,239l2.95-3.84-2.95-3.84h1.66l2.13,2.94,2.12-2.94h1.65l-3,3.84,3,3.84h-1.65l-2.11-2.92L442.38,239Z"/>
      <path d="M452.39,239a2,2,0,0,1-1.5-.55,2.1,2.1,0,0,1-.54-1.53v-4.52h-1.57v-1.08h.57a1.11,1.11,0,0,0,.85-.27,1.29,1.29,0,0,0,.25-.9v-1.39h1.26v2.56h1.76v1.08h-1.76v4.38a1.13,1.13,0,0,0,.29.84,1,1,0,0,0,.77.3h.7V239Z"/>
      <path d="M456.74,232.69a2.37,2.37,0,0,1,1-1,2.84,2.84,0,0,1,1.47-.4v1.27a2.52,2.52,0,0,0-1.78.57,2.38,2.38,0,0,0-.61,1.82V239h-1.36v-7.68h1.32Z"/>
      <path d="M462.44,239.17a2.62,2.62,0,0,1-1.68-.53,1.88,1.88,0,0,1-.66-1.57,2.2,2.2,0,0,1,.21-1,1.74,1.74,0,0,1,.62-.7,3.76,3.76,0,0,1,.9-.44,8.52,8.52,0,0,1,1.17-.27l1.24-.21c.46-.08.68-.32.68-.71a1.33,1.33,0,0,0-.48-1.14,1.9,1.9,0,0,0-1.21-.37,2,2,0,0,0-1.2.35,1.45,1.45,0,0,0-.57,1.08l-1.22-.25a2.33,2.33,0,0,1,1-1.65,3.54,3.54,0,0,1,2.09-.55,4.21,4.21,0,0,1,1.11.14,2.82,2.82,0,0,1,.93.43,1.89,1.89,0,0,1,.67.82,3.09,3.09,0,0,1,.24,1.27V237a1.37,1.37,0,0,0,.17.8.76.76,0,0,0,.61.21h.12v1h-.67a1.27,1.27,0,0,1-1.45-1H465A2.94,2.94,0,0,1,462.44,239.17Zm.31-1.09a2.05,2.05,0,0,0,1.65-.75,3,3,0,0,0,.63-2l-2,.39a2.73,2.73,0,0,0-1.19.43,1,1,0,0,0-.38.84,1,1,0,0,0,.37.84A1.52,1.52,0,0,0,462.75,238.08Z"/>
      <path d="M473.68,231.34h1.45L472,239h-1.15l-3.11-7.68h1.44l2.25,6.11Z"/>
      <path d="M478.2,239.17a2.63,2.63,0,0,1-1.69-.53,1.88,1.88,0,0,1-.66-1.57,2.2,2.2,0,0,1,.21-1,1.77,1.77,0,0,1,.63-.7,3.76,3.76,0,0,1,.9-.44,8.52,8.52,0,0,1,1.17-.27l1.24-.21c.46-.08.68-.32.68-.71a1.33,1.33,0,0,0-.48-1.14,1.9,1.9,0,0,0-1.21-.37,2.06,2.06,0,0,0-1.21.35,1.51,1.51,0,0,0-.57,1.08l-1.22-.25a2.38,2.38,0,0,1,1-1.65,3.54,3.54,0,0,1,2.09-.55,4.21,4.21,0,0,1,1.11.14,2.82,2.82,0,0,1,.93.43,1.89,1.89,0,0,1,.67.82,3.1,3.1,0,0,1,.23,1.27V237a1.29,1.29,0,0,0,.18.8.76.76,0,0,0,.61.21h.12v1h-.67a1.27,1.27,0,0,1-1.45-1h-.07A2.91,2.91,0,0,1,478.2,239.17Zm.31-1.09a2.05,2.05,0,0,0,1.65-.75,3,3,0,0,0,.62-2l-2,.39a2.73,2.73,0,0,0-1.19.43,1,1,0,0,0-.39.84,1,1,0,0,0,.38.84A1.5,1.5,0,0,0,478.51,238.08Z"/>
      <path d="M490.21,231.34h1.32v7.29a4.17,4.17,0,0,1-1,3,4.12,4.12,0,0,1-6.47-1.3l1.11-.55a2.55,2.55,0,0,0,2.57,1.78,2.23,2.23,0,0,0,1.81-.75,3.23,3.23,0,0,0,.62-2.1v-1.42a2.73,2.73,0,0,1-1.1,1.11,3.37,3.37,0,0,1-4.08-.67,4.12,4.12,0,0,1,0-5.45,3.32,3.32,0,0,1,2.5-1.08,3.18,3.18,0,0,1,1.61.43,2.81,2.81,0,0,1,1.08,1.14Zm-2.43,6.32a2.35,2.35,0,0,0,1.77-.79,2.72,2.72,0,0,0,.73-1.88,2.69,2.69,0,0,0-.73-1.88,2.41,2.41,0,0,0-3.54,0,2.67,2.67,0,0,0-.73,1.91,2.7,2.7,0,0,0,.73,1.9A2.37,2.37,0,0,0,487.78,237.66Z"/>
      <path d="M496.05,239.17a2.62,2.62,0,0,1-1.68-.53,1.85,1.85,0,0,1-.66-1.57,2.2,2.2,0,0,1,.21-1,1.67,1.67,0,0,1,.62-.7,3.76,3.76,0,0,1,.9-.44,8.52,8.52,0,0,1,1.17-.27l1.24-.21c.46-.08.68-.32.68-.71a1.33,1.33,0,0,0-.48-1.14,1.9,1.9,0,0,0-1.21-.37,2.06,2.06,0,0,0-1.21.35,1.51,1.51,0,0,0-.57,1.08l-1.21-.25a2.33,2.33,0,0,1,1-1.65,3.54,3.54,0,0,1,2.09-.55,4.21,4.21,0,0,1,1.11.14,2.82,2.82,0,0,1,.93.43,1.89,1.89,0,0,1,.67.82,3.09,3.09,0,0,1,.24,1.27V237a1.3,1.3,0,0,0,.17.8.76.76,0,0,0,.61.21h.12v1h-.67a1.27,1.27,0,0,1-1.45-1h-.07A2.91,2.91,0,0,1,496.05,239.17Zm.31-1.09a2.05,2.05,0,0,0,1.65-.75,3,3,0,0,0,.62-2l-2,.39a2.73,2.73,0,0,0-1.19.43,1,1,0,0,0-.38.84,1,1,0,0,0,.37.84A1.52,1.52,0,0,0,496.36,238.08Z"/>
      <path d="M506.28,231.19a2.7,2.7,0,0,1,1.94.7,2.6,2.6,0,0,1,.72,2V239h-1.35v-4.86a1.83,1.83,0,0,0-.47-1.38,1.65,1.65,0,0,0-1.2-.45,1.86,1.86,0,0,0-1.37.53,2.11,2.11,0,0,0-.54,1.57V239h-1.35v-7.68H504v1A2.56,2.56,0,0,1,506.28,231.19Z"/>
      <path d="M514.74,239.16a3.67,3.67,0,0,1-2.75-1.1,4.36,4.36,0,0,1,0-5.76,3.68,3.68,0,0,1,2.76-1.11,3.72,3.72,0,0,1,2.22.68,3.33,3.33,0,0,1,1.29,1.86l-1.26.21a2.35,2.35,0,0,0-.87-1.2,2.38,2.38,0,0,0-1.39-.42,2.27,2.27,0,0,0-1.78.79,3.4,3.4,0,0,0,0,4.13,2.27,2.27,0,0,0,1.78.79,2.38,2.38,0,0,0,1.39-.42,2.35,2.35,0,0,0,.87-1.2l1.26.21a3.37,3.37,0,0,1-1.3,1.87A3.71,3.71,0,0,1,514.74,239.16Z"/>
      <path d="M520.93,229.54a.87.87,0,0,1-.64-.27.89.89,0,0,1-.27-.65.87.87,0,0,1,.27-.64.92.92,0,0,1,1.28,0,.87.87,0,0,1,.27.64.89.89,0,0,1-.27.65A.87.87,0,0,1,520.93,229.54Zm-.69,9.48v-7.68h1.36V239Z"/>
      <path d="M526.13,239.17a2.63,2.63,0,0,1-1.69-.53,1.88,1.88,0,0,1-.66-1.57,2.2,2.2,0,0,1,.21-1,1.7,1.7,0,0,1,.63-.7,3.76,3.76,0,0,1,.9-.44,8.52,8.52,0,0,1,1.17-.27l1.24-.21c.45-.08.68-.32.68-.71a1.33,1.33,0,0,0-.48-1.14,1.9,1.9,0,0,0-1.21-.37,2.06,2.06,0,0,0-1.21.35,1.51,1.51,0,0,0-.57,1.08l-1.22-.25a2.4,2.4,0,0,1,1-1.65,3.6,3.6,0,0,1,2.1-.55,4.27,4.27,0,0,1,1.11.14,2.82,2.82,0,0,1,.93.43,1.89,1.89,0,0,1,.67.82,3.27,3.27,0,0,1,.23,1.27V237a1.29,1.29,0,0,0,.18.8.76.76,0,0,0,.61.21h.12v1h-.67a1.27,1.27,0,0,1-1.45-1h-.07A2.91,2.91,0,0,1,526.13,239.17Zm.31-1.09a2.05,2.05,0,0,0,1.65-.75,3.08,3.08,0,0,0,.62-2l-2,.39a2.73,2.73,0,0,0-1.19.43,1,1,0,0,0-.39.84,1,1,0,0,0,.37.84A1.55,1.55,0,0,0,526.44,238.08Z"/>
    </g>
    <g>
      <path d="M441,117.11h2.33V128.4h-2.71l-5-8.07v8.07h-2.34V117.11H436l5,8Z"/>
      <path d="M453.49,124.27l0,.54h-6a2.06,2.06,0,0,0,.64,1.47,2,2,0,0,0,1.41.51,2,2,0,0,0,1.06-.28,1.75,1.75,0,0,0,.68-.81l2.06.3a3.56,3.56,0,0,1-1.41,1.89,4.15,4.15,0,0,1-2.37.67,4.34,4.34,0,0,1-3.13-1.11,4,4,0,0,1-1.16-3.06,4.09,4.09,0,0,1,1.16-3.07,4.23,4.23,0,0,1,3.06-1.12,3.67,3.67,0,0,1,4,4.07Zm-4-2.48a1.78,1.78,0,0,0-1.95,1.55h3.69a1.69,1.69,0,0,0-.56-1.15A1.77,1.77,0,0,0,449.53,121.79Z"/>
      <path d="M460.74,120.37h2.14v7.43a6,6,0,0,1-.3,2,3.23,3.23,0,0,1-.87,1.37,3.65,3.65,0,0,1-1.34.77,5.52,5.52,0,0,1-1.75.25q-3.18,0-4.14-2.49l1.87-.8a2.71,2.71,0,0,0,.86,1.17,2.21,2.21,0,0,0,1.32.37c1.39,0,2.09-.82,2.09-2.47V127a2.53,2.53,0,0,1-1,.79,3.39,3.39,0,0,1-1.43.3,3.58,3.58,0,0,1-1.41-.28,3.75,3.75,0,0,1-1.17-.8,3.81,3.81,0,0,1-.79-1.26,4.73,4.73,0,0,1,0-3.26,3.59,3.59,0,0,1,.8-1.24,3.34,3.34,0,0,1,1.17-.78,3.56,3.56,0,0,1,1.42-.28,3.3,3.3,0,0,1,1.49.33,2.31,2.31,0,0,1,1,.88Zm-3.45,5.31a1.94,1.94,0,0,0,1.47.62,2,2,0,0,0,1.48-.62,2.25,2.25,0,0,0,0-3.06,2.09,2.09,0,0,0-3,0,2.14,2.14,0,0,0-.59,1.54A2.1,2.1,0,0,0,457.29,125.68Z"/>
      <path d="M471.8,126.22a7.51,7.51,0,0,0,.19,2v.22h-2.1l-.18-.87a2.59,2.59,0,0,1-1.12.77,4.24,4.24,0,0,1-1.46.26,3.67,3.67,0,0,1-.75-.07,2.68,2.68,0,0,1-.67-.24,2,2,0,0,1-.56-.42,1.7,1.7,0,0,1-.37-.63,2.63,2.63,0,0,1,0-1.75,2.2,2.2,0,0,1,.39-.65,2.74,2.74,0,0,1,.64-.48,5,5,0,0,1,.79-.34,9.36,9.36,0,0,1,1-.25l1.32-.3a1.31,1.31,0,0,0,.59-.25.5.5,0,0,0,.18-.4.85.85,0,0,0-.39-.78,2,2,0,0,0-1-.23,1.38,1.38,0,0,0-1.57,1.23l-2-.36a2.7,2.7,0,0,1,1.16-1.84,4.65,4.65,0,0,1,2.52-.58q3.38,0,3.38,2.89Zm-4,.82a1.81,1.81,0,0,0,1.39-.59,2.43,2.43,0,0,0,.54-1.72l-1.91.54a2.14,2.14,0,0,0-.8.33.68.68,0,0,0-.28.58.74.74,0,0,0,.3.63A1.23,1.23,0,0,0,467.84,127Z"/>
      <path d="M476.87,128.4a2.39,2.39,0,0,1-1.81-.65,2.52,2.52,0,0,1-.64-1.86V122.1h-1.58v-1.73h.51a1.35,1.35,0,0,0,1-.33,1.78,1.78,0,0,0,.32-1.2v-1.06h2v2.59h1.65v1.73H476.7v3.55c0,.7.31,1,.93,1h.72v1.71Z"/>
      <path d="M481.24,119.17a1.28,1.28,0,0,1-.92-.38,1.26,1.26,0,0,1-.38-.92,1.23,1.23,0,0,1,.39-.91,1.28,1.28,0,0,1,1.82,0,1.29,1.29,0,0,1,0,1.83A1.25,1.25,0,0,1,481.24,119.17Zm-1.14,9.23v-8h2.26v8Z"/>
      <path d="M489.92,120.37h2.38l-3.42,8h-2l-3.38-8h2.37l2,5.49Z"/>
      <path d="M496.9,128.56a5.15,5.15,0,0,1-2.27-.49,3.7,3.7,0,0,1-1.56-1.45,4.26,4.26,0,0,1-.57-2.24,4,4,0,0,1,1.22-3,5.12,5.12,0,0,1,6.37,0,4.44,4.44,0,0,1,0,6.11A4.52,4.52,0,0,1,496.9,128.56Zm0-1.79a2.07,2.07,0,0,0,1.59-.66,2.44,2.44,0,0,0,.6-1.73,2.49,2.49,0,0,0-.6-1.74,2.1,2.1,0,0,0-1.59-.65,2,2,0,0,0-1.55.66,2.83,2.83,0,0,0,0,3.46A2,2,0,0,0,496.88,126.77Z"/>
    </g>
  </g>
</svg>
