<?xml version="1.0" encoding="utf-8"?>
<!-- Generator: Adobe Illustrator 25.0.0, SVG Export Plug-In . SVG Version: 6.00 Build 0)  -->
<svg version="1.1" id="Layer_1" xmlns="http://www.w3.org/2000/svg" xmlns:xlink="http://www.w3.org/1999/xlink" x="0px" y="0px"
	 viewBox="0 0 995.3 611" style="enable-background:new 0 0 995.3 611;" xml:space="preserve">
<style type="text/css">
	.st0{fill:#E8E8E8;}
	.st1{fill:#FFFFFF;stroke:#000000;}
	.st2{fill:#AE676B;stroke:#000000;}
	.st3{fill:#8E6FA1;stroke:#000000;}
	.st4{fill:#927830;stroke:#000000;}
	.st5{fill:#A86D4B;stroke:#000000;}
	.st6{fill:#A66885;stroke:#000000;}
	.st7{fill:#657BAB;stroke:#000000;}
	.st8{fill:#E8E8E8;stroke:#000000;stroke-width:0.9231;}
	.st9{fill:#FFFFFF;stroke:#000000;stroke-width:0.9231;}
	.st10{fill:#CBCBCB;stroke:#000000;stroke-width:0.9231;}
	.st11{fill:#B3B3B3;stroke:#000000;stroke-width:0.9231;}
	.st12{fill:#969696;stroke:#000000;stroke-width:0.9231;}
	.st13{fill:#7C7C7C;stroke:#000000;stroke-width:0.9231;}
	.st14{fill:#616161;stroke:#000000;stroke-width:0.9231;}
	.st15{fill:#464646;stroke:#000000;stroke-width:0.9231;}
	.st16{fill:#303030;stroke:#000000;stroke-width:0.9231;}
	.st17{fill:#1C1C1C;stroke:#000000;stroke-width:0.9231;}
	.st18{stroke:#000000;stroke-width:0.9231;}
	.st19{fill:none;stroke:#7C7C7C;stroke-width:9.891;stroke-linecap:square;stroke-linejoin:bevel;}
	.st20{fill:#2E7CD6;stroke:#000000;}
	.st21{fill:#487BC7;stroke:#000000;}
	.st22{fill:#597BB9;stroke:#000000;}
	.st23{fill:#6F7A9C;stroke:#000000;}
	.st24{fill:#787A8E;stroke:#000000;}
	.st25{fill:#7C7C7C;stroke:#000000;}
	.st26{fill:none;stroke:#000000;}
	.st27{fill:#2D8788;stroke:#000000;}
	.st28{fill:#42886D;stroke:#000000;}
	.st29{fill:#72823D;stroke:#000000;}
	.st30{fill:#3584A2;stroke:#000000;}
	.st31{fill:none;stroke:#14315D;stroke-width:1.5;}
	.st32{fill:#14315D;}
	.st33{fill:none;stroke:#0B3A18;stroke-width:1.5;}
	.st34{fill:#0B3A18;}
	.st35{fill:none;stroke:#591D24;stroke-width:1.5;}
	.st36{fill:#591D24;}
</style>
<g>
	<rect class="st0" width="995.3" height="611.2"/>
	<g>
		<ellipse class="st1" cx="576.4" cy="117" rx="21.1" ry="8.7"/>
		<g>
			<path class="st2" d="M511.4,241.6c20.3-2.7,42-4.2,64.6-4.2s44.2,1.5,64.6,4.2v42c-20.3-2.7-42-4.2-64.6-4.2s-44.2,1.5-64.6,4.2
				V241.6z"/>
			<path class="st3" d="M367.1,323.5c0-18.9,14.8-36.4,39.9-50.6v42c-25.1,14.2-39.9,31.7-39.9,50.6L367.1,323.5L367.1,323.5z"/>
			<path class="st4" d="M744.2,272.4c25.6,14.3,40.8,31.9,40.8,51.1v42c0-19.1-15.1-36.8-40.8-51.1V272.4z"/>
			<path class="st5" d="M640.6,241.6c41.9,5.6,78,16.5,103.6,30.8v42c-25.6-14.3-61.7-25.2-103.6-30.8V241.6z"/>
			<path class="st6" d="M407,272.9c25.7-14.5,62.1-25.6,104.5-31.3v42c-42.4,5.7-78.8,16.8-104.5,31.3V272.9z"/>
			<path class="st7" d="M367.1,323.5c0,19.1,15.1,36.8,40.8,51.1v42c-25.6-14.3-40.8-31.9-40.8-51.1V323.5z"/>
		</g>
		<g>
			<g>
				<path class="st8" d="M597.5,201.7c-8.8,9.8-33.3,9.7-42.1,0c0-13.8,0-27.6,0-41.4c8.8,9.7,33.4,9.8,42.1,0
					C597.5,174.1,597.5,187.9,597.5,201.7z"/>
				<path class="st9" d="M597.5,160.3c-8.8,9.8-33.3,9.7-42.1,0c0-13.8,0-27.6,0-41.4c8.8,9.6,33.4,9.8,42.1,0
					C597.5,132.7,597.5,146.5,597.5,160.3z"/>
				<path class="st10" d="M597.5,243.1c-8.8,9.8-33.3,9.7-42.1,0c0-13.8,0-27.6,0-41.4c8.8,9.7,33.3,9.8,42.1,0
					C597.5,215.5,597.5,229.3,597.5,243.1z"/>
				<path class="st11" d="M597.5,284.4c-8.8,9.7-33.3,9.7-42.1,0c0-13.8,0-27.6,0-41.4c8.9,9.7,33.3,9.8,42.1,0
					C597.5,256.9,597.5,270.6,597.5,284.4z"/>
				<path class="st12" d="M597.5,325.8c-8.9,9.7-33.3,9.7-42.1,0c0-13.8,0-27.6,0-41.4c8.9,9.7,33.3,9.7,42.1,0
					C597.5,298.2,597.5,312,597.5,325.8z"/>
				<path class="st13" d="M597.5,367.2c-8.9,9.7-33.3,9.7-42.1,0c0-13.8,0-27.6,0-41.4c8.9,9.7,33.3,9.7,42.1,0
					C597.5,339.6,597.5,353.4,597.5,367.2z"/>
				<path class="st14" d="M597.5,408.6c-8.9,9.7-33.3,9.7-42.1,0c0-13.8,0-27.6,0-41.4c8.9,9.7,33.3,9.7,42.1,0
					C597.5,381,597.5,394.8,597.5,408.6z"/>
				<path class="st15" d="M597.5,449.9c-8.9,9.7-33.3,9.8-42.1,0c0-13.8,0-27.6,0-41.4c8.9,9.7,33.3,9.7,42.1,0
					C597.5,422.4,597.5,436.1,597.5,449.9z"/>
				<path class="st16" d="M597.5,491.3c-8.9,9.7-33.3,9.8-42.1,0c0-13.8,0-27.6,0-41.4c8.9,9.8,33.2,9.7,42.1,0
					C597.5,463.7,597.5,477.5,597.5,491.3z"/>
				<path class="st17" d="M597.5,532.7c-8.9,9.6-33.2,9.8-42.1,0c0-13.8,0-27.6,0-41.4c8.9,9.8,33.2,9.6,42.1,0
					C597.5,505.1,597.5,518.9,597.5,532.7z"/>
				<path class="st18" d="M597.5,574.1c-9,9.6-33.3,9.8-42.1,0c0-13.8,0-27.6,0-41.4c8.9,9.8,33.2,9.6,42.1,0
					C597.5,546.5,597.5,560.3,597.5,574.1z"/>
			</g>
		</g>
		<g>
			<path class="st19" d="M576,323.5"/>
			<path class="st19" d="M576,365.4"/>
		</g>
		<g>
			<path class="st20" d="M210.4,365.4c0,33.5,26.5,64.4,71.3,89.4v-42c-44.8-25-71.3-55.9-71.3-89.4
				C210.4,323.5,210.4,365.4,210.4,365.4z"/>
			<path class="st20" d="M262.6,323.5c0,28.7,22.7,55.2,61.1,76.6v42l-42.1,12.8v-42c-44.8-25-71.3-55.9-71.3-89.4L262.6,323.5
				L262.6,323.5z"/>
			<path class="st21" d="M314.8,323.5c0,23.9,18.9,46,51,63.8v42l-42,12.8v-42c-38.4-21.4-61.1-47.9-61.1-76.6L314.8,323.5
				L314.8,323.5z"/>
			<path class="st22" d="M367.1,323.5c0,19.1,15.1,36.8,40.8,51.1v42l-42.1,12.8v-42c-32-17.9-51-39.9-51-63.8L367.1,323.5
				L367.1,323.5z"/>
			<path class="st7" d="M419.3,323.5c0,14.3,11.4,27.6,30.6,38.3v42l-42,12.8v-42c-25.6-14.3-40.8-31.9-40.8-51.1L419.3,323.5
				L419.3,323.5z"/>
			<path class="st23" d="M491.9,391v-42c-12.8-7.1-20.4-16-20.4-25.5h-52.2c0,14.3,11.4,27.6,30.6,38.3v42L491.9,391z"/>
			<path class="st24" d="M491.9,391l42-12.8v-42c-6.4-3.6-10.2-8-10.2-12.8h-52.2c0,9.6,7.6,18.4,20.4,25.5L491.9,391L491.9,391z"/>
			<path class="st25" d="M559.1,328.6v42l-25.1,7.6v-42c-6.4-3.6-10.2-8-10.2-12.8l31.5,0C555.2,325.6,557.5,327.5,559.1,328.6z"/>
			<line class="st26" x1="559.1" y1="328.6" x2="281.7" y2="412.8"/>
		</g>
		<g>
			<path class="st27" d="M640.6,405.3c-20.3,2.7-42,4.2-64.6,4.2c-22.5,0-44.2-1.5-64.6-4.2v42c20.3,2.7,42,4.2,64.6,4.2
				c22.5,0,44.2-1.5,64.6-4.2V405.3z"/>
			<path class="st28" d="M745.1,374.1c-25.7,14.5-62.1,25.6-104.5,31.3v42c42.4-5.7,78.8-16.8,104.5-31.3V374.1z"/>
			<path class="st29" d="M785,323.5c0,18.9-14.8,36.4-39.9,50.6v42c25.1-14.2,39.9-31.7,39.9-50.6V323.5z"/>
			<path class="st30" d="M511.4,405.3c-41.9-5.6-78-16.5-103.6-30.8v42c25.6,14.3,61.7,25.2,103.6,30.8V405.3z"/>
		</g>
		<g>
			<line class="st26" x1="352.6" y1="278.6" x2="388.6" y2="310.6"/>
			<line class="st26" x1="426.6" y1="229.6" x2="455.6" y2="275.6"/>
			<line class="st26" x1="525.6" y1="220.6" x2="541.6" y2="257.6"/>
			<line class="st26" x1="677.6" y1="200.6" x2="687.6" y2="275.6"/>
			<line class="st26" x1="742.6" y1="240.6" x2="764.6" y2="309.6"/>
			<line class="st26" x1="440.2" y1="464.2" x2="452.2" y2="419.2"/>
			<line class="st26" x1="504.7" y1="498.7" x2="561.7" y2="432.7"/>
			<line class="st26" x1="730.3" y1="351.6" x2="756.7" y2="366.7"/>
			<line class="st26" x1="705" y1="410.2" x2="740.2" y2="446.2"/>
			<line class="st26" x1="346.6" y1="474.6" x2="348.6" y2="415.6"/>
		</g>
		<g id="Chroma_Labels">
			<g>
				<path d="M546,360.5c-2.5,0-4.3-2.4-4.3-6.7c0-4.4,1.9-6.8,4.5-6.8c2.7,0,4.3,2.4,4.3,6.6C550.5,358,548.9,360.5,546,360.5
					L546,360.5z M546.1,359.1c1.8,0,2.6-2.1,2.6-5.4c0-3.2-0.8-5.3-2.6-5.3c-1.6,0-2.6,2-2.6,5.3
					C543.4,357.1,544.4,359.1,546.1,359.1L546.1,359.1z"/>
			</g>
			<g>
				<path d="M510.5,370.2v-1.1l1.4-1.3c3.3-3.2,4.8-4.8,4.8-6.8c0-1.3-0.6-2.5-2.6-2.5c-1.2,0-2.2,0.6-2.8,1.1l-0.6-1.2
					c0.9-0.7,2.2-1.3,3.7-1.3c2.8,0,4,1.9,4,3.8c0,2.4-1.7,4.3-4.5,7l-1,1v0h5.8v1.5L510.5,370.2L510.5,370.2z"/>
			</g>
			<g>
				<path d="M456,348.2v-3.5h-6v-1.1l5.8-8.3h1.9v8.1h1.8v1.4h-1.8v3.5L456,348.2L456,348.2z M456,343.3V339c0-0.7,0-1.4,0.1-2H456
					c-0.4,0.8-0.7,1.3-1.1,1.9l-3.2,4.4v0H456z"/>
			</g>
			<g>
				<path d="M409.9,343.1c-0.4,0-0.8,0-1.3,0.1c-2.8,0.4-4.2,2.5-4.5,4.6h0c0.6-0.8,1.7-1.5,3.2-1.5c2.3,0,3.9,1.7,3.9,4.2
					c0,2.4-1.6,4.6-4.3,4.6c-2.8,0-4.6-2.2-4.6-5.5c0-2.6,0.9-4.6,2.2-5.9c1.1-1.1,2.5-1.7,4.2-1.9c0.5-0.1,1-0.1,1.3-0.1
					L409.9,343.1L409.9,343.1z M406.9,353.8c1.5,0,2.5-1.3,2.5-3.1c0-1.9-1.1-3-2.7-3c-1.1,0-2.1,0.6-2.5,1.6
					c-0.1,0.2-0.2,0.4-0.2,0.8C404.1,352.2,405.1,353.8,406.9,353.8L406.9,353.8z"/>
			</g>
			<g>
				<path d="M356.9,348.7c2.5,0,3.8,1.6,3.8,3.2c0,1.1-0.6,2.3-2.2,3v0.1c1.6,0.6,2.6,1.8,2.6,3.4c0,2.3-1.9,3.8-4.4,3.8
					c-2.7,0-4.4-1.6-4.4-3.5c0-1.6,1-2.8,2.6-3.5v-0.1c-1.5-0.7-2.1-1.8-2.1-2.9C352.8,350.1,354.6,348.7,356.9,348.7L356.9,348.7z
					 M356.8,360.9c1.6,0,2.6-1,2.6-2.3c0-1.6-1.1-2.3-2.9-2.8c-1.5,0.4-2.3,1.5-2.3,2.7C354.1,359.7,355.1,360.9,356.8,360.9
					L356.8,360.9L356.8,360.9z M356.8,350c-1.5,0-2.3,1-2.3,2.1c0,1.3,1,2,2.5,2.4c1.1-0.4,2-1.2,2-2.4C359,351,358.4,350,356.8,350
					L356.8,350L356.8,350z"/>
			</g>
			<g>
				<path d="M300,356.6L300,356.6l-2.3,1.2l-0.3-1.3l2.8-1.5h1.5v13H300V356.6z"/>
				<path d="M310.6,368.1c-2.5,0-4.3-2.4-4.3-6.7c0-4.4,1.9-6.8,4.5-6.8c2.7,0,4.3,2.4,4.3,6.6C315.1,365.7,313.4,368.1,310.6,368.1
					L310.6,368.1L310.6,368.1z M310.7,366.8c1.8,0,2.6-2.1,2.6-5.4c0-3.2-0.8-5.3-2.6-5.3c-1.6,0-2.6,2-2.6,5.3
					C308,364.7,309,366.8,310.7,366.8L310.7,366.8z"/>
			</g>
			<g>
				<path d="M251.3,364.6L251.3,364.6l-2.3,1.2l-0.3-1.3l2.8-1.5h1.5v13h-1.7V364.6z"/>
				<path d="M257.8,375.9v-1.1l1.4-1.3c3.3-3.2,4.8-4.8,4.8-6.8c0-1.3-0.6-2.5-2.6-2.5c-1.2,0-2.2,0.6-2.8,1.1l-0.6-1.2
					c0.9-0.7,2.2-1.3,3.7-1.3c2.8,0,4,1.9,4,3.8c0,2.4-1.7,4.3-4.5,7l-1,1v0h5.8v1.5L257.8,375.9L257.8,375.9z"/>
			</g>
		</g>
		<g id="Value_Labels">
			<g>
				<path d="M613.6,132.2L613.6,132.2l-2.3,1.2l-0.3-1.3l2.8-1.5h1.5v13h-1.7L613.6,132.2L613.6,132.2z"/>
				<path d="M624.2,143.8c-2.5,0-4.3-2.4-4.3-6.7c0-4.4,1.9-6.8,4.5-6.8c2.7,0,4.3,2.4,4.3,6.6C628.7,141.4,627.1,143.8,624.2,143.8
					L624.2,143.8z M624.3,142.4c1.8,0,2.6-2.1,2.6-5.4c0-3.2-0.8-5.3-2.6-5.3c-1.6,0-2.6,2-2.6,5.3
					C621.6,140.4,622.6,142.4,624.3,142.4L624.3,142.4z"/>
			</g>
			<g>
				<path d="M614.2,213.4c2.5,0,3.8,1.6,3.8,3.2c0,1.1-0.6,2.3-2.2,3v0.1c1.6,0.6,2.6,1.8,2.6,3.4c0,2.3-1.9,3.8-4.4,3.8
					c-2.7,0-4.4-1.6-4.4-3.5c0-1.6,1-2.8,2.6-3.5v-0.1c-1.5-0.7-2.1-1.8-2.1-2.9C610.1,214.8,611.9,213.4,614.2,213.4L614.2,213.4
					L614.2,213.4z M614.1,225.5c1.6,0,2.6-1,2.6-2.3c0-1.6-1.1-2.3-2.9-2.8c-1.5,0.4-2.3,1.5-2.3,2.7
					C611.4,224.4,612.4,225.5,614.1,225.5L614.1,225.5L614.1,225.5z M614.1,214.6c-1.5,0-2.3,1-2.3,2.1c0,1.3,1,2,2.5,2.4
					c1.1-0.4,2-1.2,2-2.4C616.3,215.7,615.7,214.6,614.1,214.6L614.1,214.6L614.1,214.6z"/>
			</g>
			<g>
				<path d="M613.9,561.8c-2.5,0-4.3-2.4-4.3-6.7c0-4.4,1.9-6.8,4.5-6.8c2.7,0,4.3,2.4,4.3,6.6C618.5,559.4,616.8,561.8,613.9,561.8
					L613.9,561.8L613.9,561.8z M614,560.4c1.8,0,2.6-2.1,2.6-5.4c0-3.2-0.8-5.3-2.6-5.3c-1.6,0-2.6,2-2.6,5.3
					C611.3,558.4,612.4,560.4,614,560.4L614,560.4z"/>
			</g>
			<g>
				<path d="M609.8,479.6v-1.1l1.4-1.3c3.3-3.2,4.8-4.8,4.8-6.8c0-1.3-0.6-2.5-2.6-2.5c-1.2,0-2.2,0.6-2.8,1.1l-0.6-1.2
					c0.9-0.7,2.2-1.3,3.7-1.3c2.8,0,4,1.9,4,3.8c0,2.4-1.7,4.3-4.5,7l-1,1v0h5.8v1.5L609.8,479.6L609.8,479.6z"/>
			</g>
			<g>
				<path d="M617.2,300.8c-0.4,0-0.8,0-1.3,0.1c-2.8,0.4-4.2,2.5-4.5,4.6h0c0.6-0.8,1.7-1.5,3.2-1.5c2.3,0,3.9,1.7,3.9,4.2
					c0,2.4-1.6,4.6-4.3,4.6c-2.8,0-4.6-2.2-4.6-5.5c0-2.6,0.9-4.6,2.2-5.9c1.1-1.1,2.5-1.7,4.2-1.9c0.5-0.1,1-0.1,1.3-0.1
					L617.2,300.8L617.2,300.8z M614.2,311.4c1.5,0,2.5-1.3,2.5-3.1c0-1.9-1.1-3-2.7-3c-1.1,0-2.1,0.6-2.5,1.6
					c-0.1,0.2-0.2,0.4-0.2,0.8C611.3,309.8,612.3,311.4,614.2,311.4L614.2,311.4z"/>
			</g>
			<g>
				<path d="M615.2,395.6V392h-6v-1.1l5.8-8.3h1.9v8.1h1.8v1.4h-1.8v3.5L615.2,395.6L615.2,395.6z M615.2,390.7v-4.4
					c0-0.7,0-1.4,0.1-2h-0.1c-0.4,0.8-0.7,1.3-1.1,1.9l-3.2,4.4v0H615.2z"/>
			</g>
			<g>
				<path d="M617.6,342.6h-5l-0.5,3.3c0.3,0,0.6-0.1,1.1-0.1c1,0,2,0.2,2.8,0.7c1,0.6,1.9,1.7,1.9,3.4c0,2.5-2,4.4-4.8,4.4
					c-1.4,0-2.6-0.4-3.2-0.8l0.4-1.3c0.5,0.3,1.6,0.7,2.8,0.7c1.6,0,3.1-1.1,3.1-2.8c0-1.7-1.1-2.9-3.7-2.9c-0.8,0-1.3,0.1-1.8,0.1
					l0.8-6.2h6.2L617.6,342.6L617.6,342.6z"/>
			</g>
		</g>
		<g>
			<g>
				<g>
					<g>
						<line class="st31" x1="335.4" y1="158.8" x2="335.4" y2="201.8"/>
						<path class="st32" d="M335.4,207.8c-1.1-2.8-2.9-6.4-4.8-8.5l4.8,1.7l4.8-1.7C338.3,201.5,336.5,205,335.4,207.8z"/>
					</g>
				</g>
				<g>
					<g>
						<line class="st31" x1="335.4" y1="45.8" x2="335.4" y2="149.3"/>
						<path class="st32" d="M335.4,39.8c1.1,2.8,2.9,6.4,4.8,8.5l-4.8-1.7l-4.8,1.7C332.6,46.1,334.4,42.6,335.4,39.8z"/>
					</g>
				</g>
			</g>
			<g>
				<g>
					<g>
						<path class="st33" d="M341.1,94.9c7.5,0.2,14.7,1,21.4,2.1"/>
						<path class="st34" d="M368.5,98c-3,0.6-6.7,1.8-9.2,3.3l2.5-4.4l-0.9-5C362.7,94.1,365.8,96.4,368.5,98z"/>
					</g>
				</g>
				<g>
					<g>
						<path class="st33" d="M403.7,114.8c2.5,3,3.9,6.3,3.9,9.7c0,16.4-32.3,29.7-72.2,29.7s-72.2-13.3-72.2-29.7
							c0-15.7,29.5-28.5,66.9-29.6"/>
						<path class="st34" d="M399.8,110.2c2.6,1.5,6.3,3,9.1,3.5l-4.7,1.7l-2.5,4.4C401.7,116.9,400.8,113,399.8,110.2z"/>
					</g>
				</g>
			</g>
			<g>
				<g>
					<line class="st35" x1="323.4" y1="127.6" x2="235.9" y2="150.7"/>
					<path class="st36" d="M230.1,152.2c2.5-1.7,5.4-4.4,7.1-6.8l-0.5,5l2.9,4.2C237,153.4,233.1,152.5,230.1,152.2z"/>
					<path class="st36" d="M329.2,126.1c-2.5,1.7-5.4,4.4-7.1,6.8l0.5-5l-2.9-4.2C322.4,125,326.2,125.8,329.2,126.1z"/>
				</g>
			</g>
		</g>
		<g>
			<path d="M390.1,84.7v1.9h-4.2v14.7h-2.1V86.6h-4.3v-1.9H390.1z"/>
			<path d="M395.8,101.5c-1.1,0-2.1-0.2-3-0.7c-0.9-0.5-1.6-1.2-2.1-2.1c-0.5-0.9-0.8-2-0.8-3.2c0-1.8,0.5-3.3,1.6-4.4
				s2.5-1.6,4.2-1.6c1.7,0,3.1,0.5,4.2,1.6c1.1,1.1,1.6,2.5,1.6,4.4c0,1.8-0.5,3.3-1.6,4.4C398.9,100.9,397.5,101.5,395.8,101.5z
				 M395.8,99.8c1.1,0,2-0.4,2.7-1.2c0.7-0.8,1.1-1.8,1.1-3.1c0-1.3-0.4-2.3-1.1-3.1c-0.7-0.8-1.6-1.2-2.7-1.2c-1.1,0-2,0.4-2.7,1.2
				s-1.1,1.8-1.1,3.1c0,1.3,0.4,2.3,1.1,3.1S394.7,99.8,395.8,99.8z"/>
			<path d="M410.3,89.4c1.2,0,2.2,0.3,2.9,1c0.7,0.7,1.1,1.7,1.1,3v7.8h-2v-7.3c0-0.9-0.2-1.6-0.7-2.1c-0.5-0.4-1.1-0.7-1.8-0.7
				c-0.8,0-1.5,0.3-2.1,0.8c-0.5,0.5-0.8,1.3-0.8,2.4v6.9h-2V89.7h2v1.5C407.6,90,408.8,89.4,410.3,89.4z"/>
			<path d="M423.1,101.5c-1.1,0-2.1-0.2-3-0.7c-0.9-0.5-1.6-1.2-2.1-2.1c-0.5-0.9-0.8-2-0.8-3.2c0-1.8,0.5-3.3,1.6-4.4
				s2.5-1.6,4.2-1.6c1.7,0,3.1,0.5,4.2,1.6c1.1,1.1,1.6,2.5,1.6,4.4c0,1.8-0.5,3.3-1.6,4.4C426.2,100.9,424.8,101.5,423.1,101.5z
				 M423.1,99.8c1.1,0,2-0.4,2.7-1.2c0.7-0.8,1.1-1.8,1.1-3.1c0-1.3-0.4-2.3-1.1-3.1c-0.7-0.8-1.6-1.2-2.7-1.2c-1.1,0-2,0.4-2.7,1.2
				s-1.1,1.8-1.1,3.1c0,1.3,0.4,2.3,1.1,3.1S422,99.8,423.1,99.8z"/>
		</g>
		<g>
			<path d="M663.2,176h1.6v12.4h-1.7l-6.7-10v10h-1.5V176h1.6l6.7,10V176z"/>
			<path d="M670.1,188.5c-0.8,0-1.4-0.2-1.9-0.6c-0.5-0.4-0.7-1-0.7-1.8c0-0.4,0.1-0.8,0.2-1.1s0.4-0.6,0.7-0.8s0.6-0.4,1-0.5
				c0.4-0.1,0.8-0.2,1.3-0.3l1.4-0.2c0.5-0.1,0.8-0.4,0.8-0.8c0-0.6-0.2-1-0.5-1.3c-0.4-0.3-0.8-0.4-1.4-0.4c-0.5,0-1,0.1-1.4,0.4
				s-0.6,0.7-0.6,1.2l-1.4-0.3c0.1-0.8,0.5-1.4,1.1-1.9s1.4-0.6,2.4-0.6c0.5,0,0.9,0.1,1.3,0.2c0.4,0.1,0.7,0.3,1,0.5
				c0.3,0.2,0.6,0.5,0.7,0.9s0.3,0.9,0.3,1.4v3.6c0,0.4,0.1,0.7,0.2,0.9c0.1,0.2,0.4,0.2,0.7,0.2h0.1v1.1h-0.8
				c-0.9,0-1.5-0.4-1.6-1.2h-0.1C672.3,188.1,671.3,188.5,670.1,188.5z M670.4,187.3c0.8,0,1.4-0.3,1.9-0.8s0.7-1.3,0.7-2.3
				l-2.3,0.4c-0.6,0.1-1.1,0.3-1.3,0.5c-0.3,0.2-0.4,0.5-0.4,0.9c0,0.4,0.1,0.7,0.4,0.9C669.6,187.2,670,187.3,670.4,187.3z"/>
			<path d="M679,181.2c0.2-0.5,0.6-0.9,1.1-1.2s1.1-0.5,1.7-0.5v1.4c-0.9,0-1.5,0.2-2,0.6c-0.5,0.4-0.7,1.1-0.7,2v4.6h-1.5v-8.6h1.5
				V181.2z"/>
			<path d="M685.4,188.5c-0.8,0-1.4-0.2-1.9-0.6c-0.5-0.4-0.7-1-0.7-1.8c0-0.4,0.1-0.8,0.2-1.1s0.4-0.6,0.7-0.8s0.6-0.4,1-0.5
				c0.4-0.1,0.8-0.2,1.3-0.3l1.4-0.2c0.5-0.1,0.8-0.4,0.8-0.8c0-0.6-0.2-1-0.5-1.3c-0.4-0.3-0.8-0.4-1.4-0.4c-0.5,0-1,0.1-1.4,0.4
				s-0.6,0.7-0.6,1.2l-1.4-0.3c0.1-0.8,0.5-1.4,1.1-1.9s1.4-0.6,2.4-0.6c0.5,0,0.9,0.1,1.3,0.2c0.4,0.1,0.7,0.3,1,0.5
				c0.3,0.2,0.6,0.5,0.7,0.9s0.3,0.9,0.3,1.4v3.6c0,0.4,0.1,0.7,0.2,0.9c0.1,0.2,0.4,0.2,0.7,0.2h0.1v1.1H690
				c-0.9,0-1.5-0.4-1.6-1.2h-0.1C687.6,188.1,686.7,188.5,685.4,188.5z M685.8,187.3c0.8,0,1.4-0.3,1.9-0.8s0.7-1.3,0.7-2.3
				l-2.3,0.4c-0.6,0.1-1.1,0.3-1.3,0.5c-0.3,0.2-0.4,0.5-0.4,0.9c0,0.4,0.1,0.7,0.4,0.9C685,187.2,685.3,187.3,685.8,187.3z"/>
			<path d="M696.9,179.6c0.9,0,1.6,0.3,2.2,0.8c0.5,0.5,0.8,1.3,0.8,2.2v5.8h-1.5v-5.5c0-0.7-0.2-1.2-0.5-1.5s-0.8-0.5-1.4-0.5
				c-0.6,0-1.1,0.2-1.5,0.6s-0.6,1-0.6,1.8v5.2h-1.5v-8.6h1.5v1.1C695,180,695.8,179.6,696.9,179.6z"/>
			<path d="M700.9,192.4v-1.3c0.6,0,1-0.1,1.2-0.2s0.5-0.4,0.6-0.8s0.2-1,0.2-1.8v-8.5h1.5v8.5c0,1.5-0.3,2.6-0.8,3.2
				S702.2,192.4,700.9,192.4z M703.6,177.7c-0.3,0-0.5-0.1-0.7-0.3c-0.2-0.2-0.3-0.4-0.3-0.7s0.1-0.5,0.3-0.7
				c0.2-0.2,0.4-0.3,0.7-0.3c0.3,0,0.5,0.1,0.7,0.3c0.2,0.2,0.3,0.4,0.3,0.7s-0.1,0.5-0.3,0.7C704.2,177.6,703.9,177.7,703.6,177.7z
				"/>
			<path d="M709.5,188.5c-0.8,0-1.4-0.2-1.9-0.6c-0.5-0.4-0.7-1-0.7-1.8c0-0.4,0.1-0.8,0.2-1.1s0.4-0.6,0.7-0.8s0.6-0.4,1-0.5
				c0.4-0.1,0.8-0.2,1.3-0.3l1.4-0.2c0.5-0.1,0.8-0.4,0.8-0.8c0-0.6-0.2-1-0.5-1.3c-0.4-0.3-0.8-0.4-1.4-0.4c-0.5,0-1,0.1-1.4,0.4
				s-0.6,0.7-0.6,1.2L707,182c0.1-0.8,0.5-1.4,1.1-1.9s1.4-0.6,2.4-0.6c0.5,0,0.9,0.1,1.3,0.2c0.4,0.1,0.7,0.3,1,0.5
				c0.3,0.2,0.6,0.5,0.7,0.9s0.3,0.9,0.3,1.4v3.6c0,0.4,0.1,0.7,0.2,0.9c0.1,0.2,0.4,0.2,0.7,0.2h0.1v1.1H714
				c-0.9,0-1.5-0.4-1.6-1.2h-0.1C711.7,188.1,710.7,188.5,709.5,188.5z M709.8,187.3c0.8,0,1.4-0.3,1.9-0.8s0.7-1.3,0.7-2.3
				l-2.3,0.4c-0.6,0.1-1.1,0.3-1.3,0.5c-0.3,0.2-0.4,0.5-0.4,0.9c0,0.4,0.1,0.7,0.4,0.9C709,187.2,709.4,187.3,709.8,187.3z"/>
		</g>
		<g>
			<path d="M735.8,454h1.7l-4.5,12.4h-1.6l-4.5-12.4h1.7l3.7,10.4L735.8,454z"/>
			<path d="M746.2,461.9l0,0.4h-6.8c0,1,0.3,1.7,0.8,2.2s1.2,0.8,2,0.8c0.5,0,1-0.1,1.4-0.4s0.8-0.7,1-1.1l1.4,0.3
				c-0.3,0.8-0.8,1.4-1.5,1.9s-1.4,0.7-2.3,0.7c-1.3,0-2.3-0.4-3.1-1.2s-1.2-1.9-1.2-3.3c0-1.4,0.4-2.5,1.2-3.3s1.8-1.2,3.1-1.2
				c1.2,0,2.2,0.4,2.9,1.1C745.8,459.4,746.2,460.5,746.2,461.9z M742.2,458.7c-0.7,0-1.3,0.2-1.8,0.6c-0.5,0.4-0.8,1-0.9,1.8h5.2
				c-0.1-0.8-0.3-1.4-0.8-1.8S742.9,458.7,742.2,458.7z"/>
			<path d="M750.1,459.2c0.2-0.5,0.6-0.9,1.1-1.2s1.1-0.5,1.7-0.5v1.4c-0.9,0-1.5,0.2-2,0.6c-0.5,0.4-0.7,1.1-0.7,2v4.6h-1.5v-8.6
				h1.5V459.2z"/>
			<path d="M760.9,452.9h1.5v13.5h-1.5l0-1.7c-0.3,0.6-0.7,1-1.2,1.4s-1.2,0.5-1.8,0.5c-0.6,0-1.1-0.1-1.6-0.3s-0.9-0.5-1.3-0.9
				c-0.4-0.4-0.7-0.9-0.9-1.4s-0.3-1.2-0.3-1.9c0-1.3,0.4-2.4,1.2-3.2c0.8-0.8,1.7-1.2,2.9-1.2c0.7,0,1.3,0.2,1.8,0.5
				c0.5,0.3,1,0.8,1.2,1.3V452.9z M758.1,465.2c0.8,0,1.5-0.3,2-0.9s0.8-1.4,0.8-2.3c0-0.9-0.3-1.7-0.8-2.3s-1.2-0.9-2-0.9
				c-0.8,0-1.5,0.3-2,0.9s-0.8,1.4-0.8,2.3s0.3,1.7,0.8,2.3S757.3,465.2,758.1,465.2z"/>
			<path d="M773,461.9l0,0.4h-6.8c0,1,0.3,1.7,0.8,2.2s1.2,0.8,2,0.8c0.5,0,1-0.1,1.4-0.4s0.8-0.7,1-1.1l1.4,0.3
				c-0.3,0.8-0.8,1.4-1.5,1.9s-1.4,0.7-2.3,0.7c-1.3,0-2.3-0.4-3.1-1.2s-1.2-1.9-1.2-3.3c0-1.4,0.4-2.5,1.2-3.3s1.8-1.2,3.1-1.2
				c1.2,0,2.2,0.4,2.9,1.1C772.7,459.4,773,460.5,773,461.9z M769,458.7c-0.7,0-1.3,0.2-1.8,0.6c-0.5,0.4-0.8,1-0.9,1.8h5.2
				c-0.1-0.8-0.3-1.4-0.8-1.8S769.7,458.7,769,458.7z"/>
		</g>
		<g>
			<path d="M712.2,222.9l-1.1-3h-5.6l-1.1,3h-1.6l4.6-12.4h1.9l4.6,12.4H712.2z M706,218.6h4.6l-2.3-6.4L706,218.6z"/>
			<path d="M724.7,214.1c0.8,0,1.5,0.2,2,0.7s0.8,1.2,0.8,2.1v6H726v-5.6c0-0.6-0.2-1.1-0.5-1.4s-0.7-0.5-1.2-0.5
				c-0.5,0-1,0.2-1.3,0.5s-0.5,0.9-0.5,1.6v5.3h-1.5v-5.6c0-0.7-0.2-1.1-0.5-1.5c-0.3-0.3-0.7-0.5-1.2-0.5c-0.5,0-1,0.2-1.3,0.6
				s-0.5,0.9-0.5,1.7v5.3h-1.5v-8.6h1.5v1.1c0.3-0.4,0.6-0.7,1-0.9c0.4-0.2,0.9-0.3,1.4-0.3c0.6,0,1,0.1,1.5,0.4s0.7,0.6,1,1.1
				c0.3-0.5,0.6-0.8,1-1.1S724.2,214.1,724.7,214.1z"/>
			<path d="M732.4,223.1c-0.8,0-1.4-0.2-1.9-0.6c-0.5-0.4-0.7-1-0.7-1.8c0-0.4,0.1-0.8,0.2-1.1s0.4-0.6,0.7-0.8s0.6-0.4,1-0.5
				c0.4-0.1,0.8-0.2,1.3-0.3l1.4-0.2c0.5-0.1,0.8-0.4,0.8-0.8c0-0.6-0.2-1-0.5-1.3c-0.4-0.3-0.8-0.4-1.4-0.4c-0.5,0-1,0.1-1.4,0.4
				s-0.6,0.7-0.6,1.2l-1.4-0.3c0.1-0.8,0.5-1.4,1.1-1.9s1.4-0.6,2.4-0.6c0.5,0,0.9,0.1,1.3,0.2c0.4,0.1,0.7,0.3,1,0.5
				c0.3,0.2,0.6,0.5,0.7,0.9s0.3,0.9,0.3,1.4v3.6c0,0.4,0.1,0.7,0.2,0.9c0.1,0.2,0.4,0.2,0.7,0.2h0.1v1.1H737
				c-0.9,0-1.5-0.4-1.6-1.2h-0.1C734.6,222.7,733.7,223.1,732.4,223.1z M732.8,221.9c0.8,0,1.4-0.3,1.9-0.8s0.7-1.3,0.7-2.3
				l-2.3,0.4c-0.6,0.1-1.1,0.3-1.3,0.5c-0.3,0.2-0.4,0.5-0.4,0.9c0,0.4,0.1,0.7,0.4,0.9C732,221.8,732.4,221.9,732.8,221.9z"/>
			<path d="M741.4,215.8c0.2-0.5,0.6-0.9,1.1-1.2s1.1-0.5,1.7-0.5v1.4c-0.9,0-1.5,0.2-2,0.6c-0.5,0.4-0.7,1.1-0.7,2v4.6h-1.5v-8.6
				h1.5V215.8z"/>
			<path d="M746.7,212.3c-0.3,0-0.5-0.1-0.7-0.3c-0.2-0.2-0.3-0.4-0.3-0.7s0.1-0.5,0.3-0.7c0.2-0.2,0.4-0.3,0.7-0.3
				c0.3,0,0.5,0.1,0.7,0.3c0.2,0.2,0.3,0.4,0.3,0.7s-0.1,0.5-0.3,0.7C747.2,212.2,746.9,212.3,746.7,212.3z M745.9,222.9v-8.6h1.5
				v8.6H745.9z"/>
			<path d="M750.5,222.9v-13.5h1.5v13.5H750.5z"/>
			<path d="M755.1,222.9v-13.5h1.5v13.5H755.1z"/>
			<path d="M763.4,223.1c-0.8,0-1.6-0.2-2.2-0.5s-1.2-0.9-1.6-1.6s-0.6-1.5-0.6-2.4c0-1.4,0.4-2.4,1.2-3.3c0.8-0.8,1.9-1.2,3.1-1.2
				c1.3,0,2.3,0.4,3.1,1.2s1.2,1.9,1.2,3.3c0,1.4-0.4,2.4-1.2,3.3C765.7,222.7,764.7,223.1,763.4,223.1z M763.4,221.8
				c0.8,0,1.5-0.3,2-0.9c0.5-0.6,0.8-1.4,0.8-2.3c0-1-0.3-1.7-0.8-2.3c-0.5-0.6-1.2-0.9-2-0.9c-0.8,0-1.5,0.3-2,0.9
				c-0.5,0.6-0.8,1.4-0.8,2.3c0,1,0.3,1.7,0.8,2.3C761.9,221.5,762.6,221.8,763.4,221.8z"/>
		</g>
		<g>
			<path d="M509,205l-3.2-5.6h-1.9v5.6h-1.6v-12.4h4.1c1.2,0,2.1,0.3,2.8,1c0.6,0.7,1,1.5,1,2.5c0,0.9-0.2,1.6-0.7,2.2
				c-0.5,0.6-1.2,0.9-2,1.1l3.4,5.6H509z M503.9,194v4.2h2.3c0.8,0,1.4-0.2,1.8-0.6s0.6-0.9,0.6-1.5s-0.2-1.1-0.6-1.5
				c-0.4-0.4-1-0.6-1.8-0.6H503.9z"/>
			<path d="M516.3,205.2c-0.8,0-1.6-0.2-2.2-0.5s-1.2-0.9-1.6-1.6s-0.6-1.5-0.6-2.4c0-1.4,0.4-2.4,1.2-3.3c0.8-0.8,1.9-1.2,3.1-1.2
				c1.3,0,2.3,0.4,3.1,1.2s1.2,1.9,1.2,3.3c0,1.4-0.4,2.4-1.2,3.3C518.6,204.8,517.5,205.2,516.3,205.2z M516.2,203.9
				c0.8,0,1.5-0.3,2-0.9c0.5-0.6,0.8-1.4,0.8-2.3c0-1-0.3-1.7-0.8-2.3c-0.5-0.6-1.2-0.9-2-0.9c-0.8,0-1.5,0.3-2,0.9
				c-0.5,0.6-0.8,1.4-0.8,2.3c0,1,0.3,1.7,0.8,2.3C514.8,203.6,515.4,203.9,516.2,203.9z"/>
			<path d="M521,209v-1.3c0.6,0,1-0.1,1.2-0.2s0.5-0.4,0.6-0.8s0.2-1,0.2-1.8v-8.5h1.5v8.5c0,1.5-0.3,2.6-0.8,3.2S522.3,209,521,209
				z M523.8,194.3c-0.3,0-0.5-0.1-0.7-0.3c-0.2-0.2-0.3-0.4-0.3-0.7s0.1-0.5,0.3-0.7c0.2-0.2,0.4-0.3,0.7-0.3c0.3,0,0.5,0.1,0.7,0.3
				c0.2,0.2,0.3,0.4,0.3,0.7s-0.1,0.5-0.3,0.7C524.3,194.2,524,194.3,523.8,194.3z"/>
			<path d="M531.3,205.2c-0.8,0-1.6-0.2-2.2-0.5s-1.2-0.9-1.6-1.6s-0.6-1.5-0.6-2.4c0-1.4,0.4-2.4,1.2-3.3c0.8-0.8,1.9-1.2,3.1-1.2
				c1.3,0,2.3,0.4,3.1,1.2s1.2,1.9,1.2,3.3c0,1.4-0.4,2.4-1.2,3.3C533.6,204.8,532.5,205.2,531.3,205.2z M531.3,203.9
				c0.8,0,1.5-0.3,2-0.9c0.5-0.6,0.8-1.4,0.8-2.3c0-1-0.3-1.7-0.8-2.3c-0.5-0.6-1.2-0.9-2-0.9c-0.8,0-1.5,0.3-2,0.9
				c-0.5,0.6-0.8,1.4-0.8,2.3c0,1,0.3,1.7,0.8,2.3C529.8,203.6,530.4,203.9,531.3,203.9z"/>
		</g>
		<g>
			<path d="M311.6,255c0.7,0,1.4,0.2,1.9,0.5s1,0.8,1.3,1.4s0.5,1.2,0.5,1.9c0,1.1-0.3,2-1,2.7c-0.7,0.7-1.6,1.1-2.7,1.1h-3.1v4.8
				h-1.6V255H311.6z M311.4,261.2c0.7,0,1.3-0.2,1.7-0.7s0.6-1,0.6-1.8c0-0.7-0.2-1.3-0.6-1.7s-1-0.7-1.7-0.7h-2.9v4.8H311.4z"/>
			<path d="M323,258.8h1.5v8.6h-1.5l0-1.1c-0.3,0.4-0.6,0.7-1.1,1s-0.9,0.3-1.5,0.3c-0.9,0-1.6-0.3-2.2-0.8
				c-0.5-0.5-0.8-1.3-0.8-2.2v-5.8h1.5v5.5c0,0.7,0.2,1.2,0.5,1.5s0.8,0.5,1.4,0.5c0.6,0,1.1-0.2,1.5-0.6c0.4-0.4,0.6-1,0.6-1.8
				V258.8z"/>
			<path d="M329.1,260.3c0.2-0.5,0.6-0.9,1.1-1.2s1.1-0.5,1.7-0.5v1.4c-0.9,0-1.5,0.2-2,0.6c-0.5,0.4-0.7,1.1-0.7,2v4.6h-1.5v-8.6
				h1.5V260.3z"/>
			<path d="M338.2,258.6c0.6,0,1.1,0.1,1.6,0.3s0.9,0.5,1.3,0.9s0.7,0.9,0.9,1.4c0.2,0.6,0.3,1.2,0.3,1.9c0,1.3-0.4,2.4-1.2,3.3
				c-0.8,0.8-1.7,1.2-2.9,1.2c-0.7,0-1.3-0.2-1.8-0.5c-0.5-0.3-1-0.8-1.2-1.3v6h-1.5v-13h1.5l0,1.7c0.3-0.6,0.7-1,1.2-1.3
				S337.5,258.6,338.2,258.6z M337.9,266.3c0.8,0,1.5-0.3,2-0.9s0.8-1.4,0.8-2.3s-0.3-1.7-0.8-2.3s-1.2-0.9-2-0.9
				c-0.8,0-1.5,0.3-2,0.9s-0.8,1.4-0.8,2.3c0,0.9,0.3,1.7,0.8,2.3S337.1,266.3,337.9,266.3z"/>
			<path d="M350,258.8h1.5v8.6h-1.5l0-1.1c-0.3,0.4-0.6,0.7-1.1,1s-0.9,0.3-1.5,0.3c-0.9,0-1.6-0.3-2.2-0.8
				c-0.5-0.5-0.8-1.3-0.8-2.2v-5.8h1.5v5.5c0,0.7,0.2,1.2,0.5,1.5s0.8,0.5,1.4,0.5c0.6,0,1.1-0.2,1.5-0.6c0.4-0.4,0.6-1,0.6-1.8
				V258.8z"/>
			<path d="M356.1,260.3c0.2-0.5,0.6-0.9,1.1-1.2s1.1-0.5,1.7-0.5v1.4c-0.9,0-1.5,0.2-2,0.6c-0.5,0.4-0.7,1.1-0.7,2v4.6h-1.5v-8.6
				h1.5V260.3z"/>
			<path d="M362.5,267.6c-0.8,0-1.4-0.2-1.9-0.6c-0.5-0.4-0.7-1-0.7-1.8c0-0.4,0.1-0.8,0.2-1.1s0.4-0.6,0.7-0.8s0.6-0.4,1-0.5
				c0.4-0.1,0.8-0.2,1.3-0.3l1.4-0.2c0.5-0.1,0.8-0.4,0.8-0.8c0-0.6-0.2-1-0.5-1.3c-0.4-0.3-0.8-0.4-1.4-0.4c-0.5,0-1,0.1-1.4,0.4
				s-0.6,0.7-0.6,1.2l-1.4-0.3c0.1-0.8,0.5-1.4,1.1-1.9s1.4-0.6,2.4-0.6c0.5,0,0.9,0.1,1.3,0.2c0.4,0.1,0.7,0.3,1,0.5
				c0.3,0.2,0.6,0.5,0.7,0.9s0.3,0.9,0.3,1.4v3.6c0,0.4,0.1,0.7,0.2,0.9c0.1,0.2,0.4,0.2,0.7,0.2h0.1v1.1h-0.8
				c-0.9,0-1.5-0.4-1.6-1.2h-0.1C364.7,267.1,363.8,267.6,362.5,267.6z M362.9,266.3c0.8,0,1.4-0.3,1.9-0.8s0.7-1.3,0.7-2.3
				l-2.3,0.4c-0.6,0.1-1.1,0.3-1.3,0.5c-0.3,0.2-0.4,0.5-0.4,0.9c0,0.4,0.1,0.7,0.4,0.9C362.1,266.2,362.4,266.3,362.9,266.3z"/>
		</g>
		<g>
			<path d="M374.9,219.1l-3.2-5.6h-1.9v5.6h-1.6v-12.4h4.1c1.2,0,2.1,0.3,2.8,1c0.6,0.7,1,1.5,1,2.5c0,0.9-0.2,1.6-0.7,2.2
				c-0.5,0.6-1.2,0.9-2,1.1l3.4,5.6H374.9z M369.8,208.1v4.2h2.3c0.8,0,1.4-0.2,1.8-0.6s0.6-0.9,0.6-1.5s-0.2-1.1-0.6-1.5
				c-0.4-0.4-1-0.6-1.8-0.6H369.8z"/>
			<path d="M382.1,219.3c-0.8,0-1.6-0.2-2.2-0.5s-1.2-0.9-1.6-1.6s-0.6-1.5-0.6-2.4c0-1.4,0.4-2.4,1.2-3.3c0.8-0.8,1.9-1.2,3.1-1.2
				c1.3,0,2.3,0.4,3.1,1.2s1.2,1.9,1.2,3.3c0,1.4-0.4,2.4-1.2,3.3C384.4,218.9,383.4,219.3,382.1,219.3z M382.1,218
				c0.8,0,1.5-0.3,2-0.9c0.5-0.6,0.8-1.4,0.8-2.3c0-1-0.3-1.7-0.8-2.3c-0.5-0.6-1.2-0.9-2-0.9c-0.8,0-1.5,0.3-2,0.9
				c-0.5,0.6-0.8,1.4-0.8,2.3c0,1,0.3,1.7,0.8,2.3C380.6,217.7,381.3,218,382.1,218z"/>
			<path d="M386.9,223.1v-1.3c0.6,0,1-0.1,1.2-0.2s0.5-0.4,0.6-0.8s0.2-1,0.2-1.8v-8.5h1.5v8.5c0,1.5-0.3,2.6-0.8,3.2
				S388.1,223.1,386.9,223.1z M389.6,208.4c-0.3,0-0.5-0.1-0.7-0.3c-0.2-0.2-0.3-0.4-0.3-0.7s0.1-0.5,0.3-0.7
				c0.2-0.2,0.4-0.3,0.7-0.3c0.3,0,0.5,0.1,0.7,0.3c0.2,0.2,0.3,0.4,0.3,0.7s-0.1,0.5-0.3,0.7C390.1,208.3,389.9,208.4,389.6,208.4z
				"/>
			<path d="M397.1,219.3c-0.8,0-1.6-0.2-2.2-0.5s-1.2-0.9-1.6-1.6s-0.6-1.5-0.6-2.4c0-1.4,0.4-2.4,1.2-3.3c0.8-0.8,1.9-1.2,3.1-1.2
				c1.3,0,2.3,0.4,3.1,1.2s1.2,1.9,1.2,3.3c0,1.4-0.4,2.4-1.2,3.3C399.4,218.9,398.4,219.3,397.1,219.3z M397.1,218
				c0.8,0,1.5-0.3,2-0.9c0.5-0.6,0.8-1.4,0.8-2.3c0-1-0.3-1.7-0.8-2.3c-0.5-0.6-1.2-0.9-2-0.9c-0.8,0-1.5,0.3-2,0.9
				c-0.5,0.6-0.8,1.4-0.8,2.3c0,1,0.3,1.7,0.8,2.3C395.6,217.7,396.3,218,397.1,218z"/>
			<path d="M408.5,215v-1.3h6.3v1.3H408.5z"/>
			<path d="M427.1,210.3c0.6,0,1.1,0.1,1.6,0.3s0.9,0.5,1.3,0.9s0.7,0.9,0.9,1.4c0.2,0.6,0.3,1.2,0.3,1.9c0,1.3-0.4,2.4-1.2,3.3
				c-0.8,0.8-1.7,1.2-2.9,1.2c-0.7,0-1.3-0.2-1.8-0.5c-0.5-0.3-1-0.8-1.2-1.3v6h-1.5v-13h1.5l0,1.7c0.3-0.6,0.7-1,1.2-1.3
				S426.4,210.3,427.1,210.3z M426.8,218c0.8,0,1.5-0.3,2-0.9s0.8-1.4,0.8-2.3s-0.3-1.7-0.8-2.3s-1.2-0.9-2-0.9
				c-0.8,0-1.5,0.3-2,0.9s-0.8,1.4-0.8,2.3c0,0.9,0.3,1.7,0.8,2.3S426,218,426.8,218z"/>
			<path d="M438.9,210.5h1.5v8.6H439l0-1.1c-0.3,0.4-0.6,0.7-1.1,1s-0.9,0.3-1.5,0.3c-0.9,0-1.6-0.3-2.2-0.8
				c-0.5-0.5-0.8-1.3-0.8-2.2v-5.8h1.5v5.5c0,0.7,0.2,1.2,0.5,1.5s0.8,0.5,1.4,0.5c0.6,0,1.1-0.2,1.5-0.6c0.4-0.4,0.6-1,0.6-1.8
				V210.5z"/>
			<path d="M445,212c0.2-0.5,0.6-0.9,1.1-1.2s1.1-0.5,1.7-0.5v1.4c-0.9,0-1.5,0.2-2,0.6c-0.5,0.4-0.7,1.1-0.7,2v4.6h-1.5v-8.6h1.5
				V212z"/>
			<path d="M454.1,210.3c0.6,0,1.1,0.1,1.6,0.3s0.9,0.5,1.3,0.9s0.7,0.9,0.9,1.4c0.2,0.6,0.3,1.2,0.3,1.9c0,1.3-0.4,2.4-1.2,3.3
				c-0.8,0.8-1.7,1.2-2.9,1.2c-0.7,0-1.3-0.2-1.8-0.5c-0.5-0.3-1-0.8-1.2-1.3v6h-1.5v-13h1.5l0,1.7c0.3-0.6,0.7-1,1.2-1.3
				S453.4,210.3,454.1,210.3z M453.8,218c0.8,0,1.5-0.3,2-0.9s0.8-1.4,0.8-2.3s-0.3-1.7-0.8-2.3s-1.2-0.9-2-0.9
				c-0.8,0-1.5,0.3-2,0.9s-0.8,1.4-0.8,2.3c0,0.9,0.3,1.7,0.8,2.3S453,218,453.8,218z"/>
			<path d="M465.9,210.5h1.5v8.6H466l0-1.1c-0.3,0.4-0.6,0.7-1.1,1s-0.9,0.3-1.5,0.3c-0.9,0-1.6-0.3-2.2-0.8
				c-0.5-0.5-0.8-1.3-0.8-2.2v-5.8h1.5v5.5c0,0.7,0.2,1.2,0.5,1.5s0.8,0.5,1.4,0.5c0.6,0,1.1-0.2,1.5-0.6c0.4-0.4,0.6-1,0.6-1.8
				V210.5z"/>
			<path d="M472,212c0.2-0.5,0.6-0.9,1.1-1.2s1.1-0.5,1.7-0.5v1.4c-0.9,0-1.5,0.2-2,0.6c-0.5,0.4-0.7,1.1-0.7,2v4.6h-1.5v-8.6h1.5
				V212z"/>
			<path d="M478.4,219.3c-0.8,0-1.4-0.2-1.9-0.6c-0.5-0.4-0.7-1-0.7-1.8c0-0.4,0.1-0.8,0.2-1.1s0.4-0.6,0.7-0.8s0.6-0.4,1-0.5
				c0.4-0.1,0.8-0.2,1.3-0.3l1.4-0.2c0.5-0.1,0.8-0.4,0.8-0.8c0-0.6-0.2-1-0.5-1.3c-0.4-0.3-0.8-0.4-1.4-0.4c-0.5,0-1,0.1-1.4,0.4
				s-0.6,0.7-0.6,1.2l-1.4-0.3c0.1-0.8,0.5-1.4,1.1-1.9s1.4-0.6,2.4-0.6c0.5,0,0.9,0.1,1.3,0.2c0.4,0.1,0.7,0.3,1,0.5
				c0.3,0.2,0.6,0.5,0.7,0.9s0.3,0.9,0.3,1.4v3.6c0,0.4,0.1,0.7,0.2,0.9c0.1,0.2,0.4,0.2,0.7,0.2h0.1v1.1h-0.8
				c-0.9,0-1.5-0.4-1.6-1.2h-0.1C480.6,218.8,479.6,219.3,478.4,219.3z M478.8,218c0.8,0,1.4-0.3,1.9-0.8s0.7-1.3,0.7-2.3l-2.3,0.4
				c-0.6,0.1-1.1,0.3-1.3,0.5c-0.3,0.2-0.4,0.5-0.4,0.9c0,0.4,0.1,0.7,0.4,0.9C477.9,217.9,478.3,218,478.8,218z"/>
		</g>
		<g>
			<path d="M291.6,498.6l-1.1-3h-5.6l-1.1,3h-1.6l4.6-12.4h1.9l4.6,12.4H291.6z M285.4,494.2h4.6l-2.3-6.4L285.4,494.2z"/>
			<path d="M296.5,497.4h4.6v1.2h-6.9l4.6-7.4h-4.3V490h6.6L296.5,497.4z"/>
			<path d="M308.6,490h1.5v8.6h-1.5l0-1.1c-0.3,0.4-0.6,0.7-1.1,1s-0.9,0.3-1.5,0.3c-0.9,0-1.6-0.3-2.2-0.8
				c-0.5-0.5-0.8-1.3-0.8-2.2V490h1.5v5.5c0,0.7,0.2,1.2,0.5,1.5s0.8,0.5,1.4,0.5c0.6,0,1.1-0.2,1.5-0.6c0.4-0.4,0.6-1,0.6-1.8V490z
				"/>
			<path d="M313.2,498.6v-13.5h1.5v13.5H313.2z"/>
			<path d="M317.8,494.5v-1.3h6.3v1.3H317.8z"/>
			<path d="M331.7,489.8c0.6,0,1.1,0.1,1.6,0.3s0.9,0.5,1.3,0.9s0.7,0.9,0.9,1.4c0.2,0.6,0.3,1.2,0.3,1.9c0,1.3-0.4,2.4-1.2,3.3
				c-0.8,0.8-1.7,1.2-2.9,1.2c-0.7,0-1.3-0.2-1.8-0.5c-0.5-0.3-1-0.8-1.2-1.3v6h-1.5v-13h1.5l0,1.7c0.3-0.6,0.7-1,1.2-1.3
				S331,489.8,331.7,489.8z M331.4,497.5c0.8,0,1.5-0.3,2-0.9s0.8-1.4,0.8-2.3s-0.3-1.7-0.8-2.3s-1.2-0.9-2-0.9
				c-0.8,0-1.5,0.3-2,0.9s-0.8,1.4-0.8,2.3c0,0.9,0.3,1.7,0.8,2.3S330.6,497.5,331.4,497.5z"/>
			<path d="M343.5,490h1.5v8.6h-1.5l0-1.1c-0.3,0.4-0.6,0.7-1.1,1s-0.9,0.3-1.5,0.3c-0.9,0-1.6-0.3-2.2-0.8
				c-0.5-0.5-0.8-1.3-0.8-2.2V490h1.5v5.5c0,0.7,0.2,1.2,0.5,1.5s0.8,0.5,1.4,0.5c0.6,0,1.1-0.2,1.5-0.6c0.4-0.4,0.6-1,0.6-1.8V490z
				"/>
			<path d="M349.6,491.5c0.2-0.5,0.6-0.9,1.1-1.2s1.1-0.5,1.7-0.5v1.4c-0.9,0-1.5,0.2-2,0.6c-0.5,0.4-0.7,1.1-0.7,2v4.6h-1.5V490
				h1.5V491.5z"/>
			<path d="M358.7,489.8c0.6,0,1.1,0.1,1.6,0.3s0.9,0.5,1.3,0.9s0.7,0.9,0.9,1.4c0.2,0.6,0.3,1.2,0.3,1.9c0,1.3-0.4,2.4-1.2,3.3
				c-0.8,0.8-1.7,1.2-2.9,1.2c-0.7,0-1.3-0.2-1.8-0.5c-0.5-0.3-1-0.8-1.2-1.3v6h-1.5v-13h1.5l0,1.7c0.3-0.6,0.7-1,1.2-1.3
				S358,489.8,358.7,489.8z M358.4,497.5c0.8,0,1.5-0.3,2-0.9s0.8-1.4,0.8-2.3s-0.3-1.7-0.8-2.3s-1.2-0.9-2-0.9
				c-0.8,0-1.5,0.3-2,0.9s-0.8,1.4-0.8,2.3c0,0.9,0.3,1.7,0.8,2.3S357.6,497.5,358.4,497.5z"/>
			<path d="M370.5,490h1.5v8.6h-1.5l0-1.1c-0.3,0.4-0.6,0.7-1.1,1s-0.9,0.3-1.5,0.3c-0.9,0-1.6-0.3-2.2-0.8
				c-0.5-0.5-0.8-1.3-0.8-2.2V490h1.5v5.5c0,0.7,0.2,1.2,0.5,1.5s0.8,0.5,1.4,0.5c0.6,0,1.1-0.2,1.5-0.6c0.4-0.4,0.6-1,0.6-1.8V490z
				"/>
			<path d="M376.6,491.5c0.2-0.5,0.6-0.9,1.1-1.2s1.1-0.5,1.7-0.5v1.4c-0.9,0-1.5,0.2-2,0.6c-0.5,0.4-0.7,1.1-0.7,2v4.6h-1.5V490
				h1.5V491.5z"/>
			<path d="M383,498.8c-0.8,0-1.4-0.2-1.9-0.6c-0.5-0.4-0.7-1-0.7-1.8c0-0.4,0.1-0.8,0.2-1.1s0.4-0.6,0.7-0.8s0.6-0.4,1-0.5
				c0.4-0.1,0.8-0.2,1.3-0.3l1.4-0.2c0.5-0.1,0.8-0.4,0.8-0.8c0-0.6-0.2-1-0.5-1.3c-0.4-0.3-0.8-0.4-1.4-0.4c-0.5,0-1,0.1-1.4,0.4
				s-0.6,0.7-0.6,1.2l-1.4-0.3c0.1-0.8,0.5-1.4,1.1-1.8s1.4-0.6,2.4-0.6c0.5,0,0.9,0.1,1.3,0.2c0.4,0.1,0.7,0.3,1,0.5
				c0.3,0.2,0.6,0.5,0.7,0.9s0.3,0.9,0.3,1.4v3.6c0,0.4,0.1,0.7,0.2,0.9c0.1,0.2,0.4,0.2,0.7,0.2h0.1v1.1h-0.8
				c-0.9,0-1.5-0.4-1.6-1.2h-0.1C385.2,498.3,384.2,498.8,383,498.8z M383.4,497.5c0.8,0,1.4-0.3,1.9-0.8s0.7-1.3,0.7-2.3l-2.3,0.4
				c-0.6,0.1-1.1,0.3-1.3,0.5c-0.3,0.2-0.4,0.5-0.4,0.9c0,0.4,0.1,0.7,0.4,0.9C382.6,497.4,382.9,497.5,383.4,497.5z"/>
		</g>
		<g>
			<path d="M633.8,324.6h1.7l-4.5,12.4h-1.6l-4.5-12.4h1.7l3.7,10.4L633.8,324.6z"/>
			<path d="M644.2,332.5l0,0.4h-6.8c0,1,0.3,1.7,0.8,2.2s1.2,0.8,2,0.8c0.5,0,1-0.1,1.4-0.4s0.8-0.7,1-1.1l1.4,0.3
				c-0.3,0.8-0.8,1.4-1.5,1.9s-1.4,0.7-2.3,0.7c-1.3,0-2.3-0.4-3.1-1.2s-1.2-1.9-1.2-3.3c0-1.4,0.4-2.5,1.2-3.3s1.8-1.2,3.1-1.2
				c1.2,0,2.2,0.4,2.9,1.1C643.9,330,644.2,331.1,644.2,332.5z M640.2,329.3c-0.7,0-1.3,0.2-1.8,0.6c-0.5,0.4-0.8,1-0.9,1.8h5.2
				c-0.1-0.8-0.3-1.4-0.8-1.8S640.9,329.3,640.2,329.3z"/>
			<path d="M648.1,329.8c0.2-0.5,0.6-0.9,1.1-1.2s1.1-0.5,1.7-0.5v1.4c-0.9,0-1.5,0.2-2,0.6c-0.5,0.4-0.7,1.1-0.7,2v4.6h-1.5v-8.6
				h1.5V329.8z"/>
			<path d="M658.9,323.4h1.5v13.5H659l0-1.7c-0.3,0.6-0.7,1-1.2,1.4s-1.2,0.5-1.8,0.5c-0.6,0-1.1-0.1-1.6-0.3s-0.9-0.5-1.3-0.9
				c-0.4-0.4-0.7-0.9-0.9-1.4s-0.3-1.2-0.3-1.9c0-1.3,0.4-2.4,1.2-3.2c0.8-0.8,1.7-1.2,2.9-1.2c0.7,0,1.3,0.2,1.8,0.5
				c0.5,0.3,1,0.8,1.2,1.3V323.4z M656.2,335.8c0.8,0,1.5-0.3,2-0.9s0.8-1.4,0.8-2.3c0-0.9-0.3-1.7-0.8-2.3s-1.2-0.9-2-0.9
				c-0.8,0-1.5,0.3-2,0.9s-0.8,1.4-0.8,2.3s0.3,1.7,0.8,2.3S655.4,335.8,656.2,335.8z"/>
			<path d="M671.1,332.5l0,0.4h-6.8c0,1,0.3,1.7,0.8,2.2s1.2,0.8,2,0.8c0.5,0,1-0.1,1.4-0.4s0.8-0.7,1-1.1l1.4,0.3
				c-0.3,0.8-0.8,1.4-1.5,1.9s-1.4,0.7-2.3,0.7c-1.3,0-2.3-0.4-3.1-1.2s-1.2-1.9-1.2-3.3c0-1.4,0.4-2.5,1.2-3.3s1.8-1.2,3.1-1.2
				c1.2,0,2.2,0.4,2.9,1.1C670.7,330,671.1,331.1,671.1,332.5z M667.1,329.3c-0.7,0-1.3,0.2-1.8,0.6c-0.5,0.4-0.8,1-0.9,1.8h5.2
				c-0.1-0.8-0.3-1.4-0.8-1.8S667.8,329.3,667.1,329.3z"/>
			<path d="M678.1,332.9v-1.3h6.3v1.3H678.1z"/>
			<path d="M694.1,337.1c-0.8,0-1.4-0.2-1.9-0.6c-0.5-0.4-0.7-1-0.7-1.8c0-0.4,0.1-0.8,0.2-1.1s0.4-0.6,0.7-0.8s0.6-0.4,1-0.5
				c0.4-0.1,0.8-0.2,1.3-0.3l1.4-0.2c0.5-0.1,0.8-0.4,0.8-0.8c0-0.6-0.2-1-0.5-1.3c-0.4-0.3-0.8-0.4-1.4-0.4c-0.5,0-1,0.1-1.4,0.4
				s-0.6,0.7-0.6,1.2l-1.4-0.3c0.1-0.8,0.5-1.4,1.1-1.9s1.4-0.6,2.4-0.6c0.5,0,0.9,0.1,1.3,0.2c0.4,0.1,0.7,0.3,1,0.5
				c0.3,0.2,0.6,0.5,0.7,0.9s0.3,0.9,0.3,1.4v3.6c0,0.4,0.1,0.7,0.2,0.9c0.1,0.2,0.4,0.2,0.7,0.2h0.1v1.1h-0.8
				c-0.9,0-1.5-0.4-1.6-1.2H697C696.3,336.7,695.4,337.1,694.1,337.1z M694.5,335.9c0.8,0,1.4-0.3,1.9-0.8s0.7-1.3,0.7-2.3l-2.3,0.4
				c-0.6,0.1-1.1,0.3-1.3,0.5c-0.3,0.2-0.4,0.5-0.4,0.9c0,0.4,0.1,0.7,0.4,0.9C693.7,335.8,694,335.9,694.5,335.9z"/>
			<path d="M710.4,328.1c0.8,0,1.5,0.2,2,0.7s0.8,1.2,0.8,2.1v6h-1.5v-5.6c0-0.6-0.2-1.1-0.5-1.4s-0.7-0.5-1.2-0.5
				c-0.5,0-1,0.2-1.3,0.5s-0.5,0.9-0.5,1.6v5.3h-1.5v-5.6c0-0.7-0.2-1.1-0.5-1.5c-0.3-0.3-0.7-0.5-1.2-0.5c-0.5,0-1,0.2-1.3,0.6
				s-0.5,0.9-0.5,1.7v5.3h-1.5v-8.6h1.5v1.1c0.3-0.4,0.6-0.7,1-0.9c0.4-0.2,0.9-0.3,1.4-0.3c0.6,0,1,0.1,1.5,0.4s0.7,0.6,1,1.1
				c0.3-0.5,0.6-0.8,1-1.1S709.8,328.1,710.4,328.1z"/>
			<path d="M718.1,337.1c-0.8,0-1.4-0.2-1.9-0.6c-0.5-0.4-0.7-1-0.7-1.8c0-0.4,0.1-0.8,0.2-1.1s0.4-0.6,0.7-0.8s0.6-0.4,1-0.5
				c0.4-0.1,0.8-0.2,1.3-0.3l1.4-0.2c0.5-0.1,0.8-0.4,0.8-0.8c0-0.6-0.2-1-0.5-1.3c-0.4-0.3-0.8-0.4-1.4-0.4c-0.5,0-1,0.1-1.4,0.4
				s-0.6,0.7-0.6,1.2l-1.4-0.3c0.1-0.8,0.5-1.4,1.1-1.9s1.4-0.6,2.4-0.6c0.5,0,0.9,0.1,1.3,0.2c0.4,0.1,0.7,0.3,1,0.5
				c0.3,0.2,0.6,0.5,0.7,0.9s0.3,0.9,0.3,1.4v3.6c0,0.4,0.1,0.7,0.2,0.9c0.1,0.2,0.4,0.2,0.7,0.2h0.1v1.1h-0.8
				c-0.9,0-1.5-0.4-1.6-1.2h-0.1C720.3,336.7,719.3,337.1,718.1,337.1z M718.5,335.9c0.8,0,1.4-0.3,1.9-0.8s0.7-1.3,0.7-2.3
				l-2.3,0.4c-0.6,0.1-1.1,0.3-1.3,0.5c-0.3,0.2-0.4,0.5-0.4,0.9c0,0.4,0.1,0.7,0.4,0.9C717.7,335.8,718,335.9,718.5,335.9z"/>
			<path d="M727,329.8c0.2-0.5,0.6-0.9,1.1-1.2s1.1-0.5,1.7-0.5v1.4c-0.9,0-1.5,0.2-2,0.6c-0.5,0.4-0.7,1.1-0.7,2v4.6h-1.5v-8.6h1.5
				V329.8z"/>
			<path d="M732.3,326.3c-0.3,0-0.5-0.1-0.7-0.3c-0.2-0.2-0.3-0.4-0.3-0.7s0.1-0.5,0.3-0.7c0.2-0.2,0.4-0.3,0.7-0.3
				c0.3,0,0.5,0.1,0.7,0.3c0.2,0.2,0.3,0.4,0.3,0.7s-0.1,0.5-0.3,0.7C732.8,326.2,732.6,326.3,732.3,326.3z M731.5,336.9v-8.6h1.5
				v8.6H731.5z"/>
			<path d="M736.2,336.9v-13.5h1.5v13.5H736.2z"/>
			<path d="M740.8,336.9v-13.5h1.5v13.5H740.8z"/>
			<path d="M749.1,337.1c-0.8,0-1.6-0.2-2.2-0.5s-1.2-0.9-1.6-1.6s-0.6-1.5-0.6-2.4c0-1.4,0.4-2.4,1.2-3.3c0.8-0.8,1.9-1.2,3.1-1.2
				c1.3,0,2.3,0.4,3.1,1.2s1.2,1.9,1.2,3.3c0,1.4-0.4,2.4-1.2,3.3C751.4,336.7,750.3,337.1,749.1,337.1z M749.1,335.8
				c0.8,0,1.5-0.3,2-0.9c0.5-0.6,0.8-1.4,0.8-2.3c0-1-0.3-1.7-0.8-2.3c-0.5-0.6-1.2-0.9-2-0.9c-0.8,0-1.5,0.3-2,0.9
				c-0.5,0.6-0.8,1.4-0.8,2.3c0,1,0.3,1.7,0.8,2.3C747.6,335.6,748.2,335.8,749.1,335.8z"/>
		</g>
		<g>
			<path d="M429.2,486l-1.1-3h-5.6l-1.1,3h-1.6l4.6-12.4h1.9l4.6,12.4H429.2z M423,481.6h4.6l-2.3-6.4L423,481.6z"/>
			<path d="M434.1,484.7h4.6v1.2h-6.9l4.6-7.4h-4.3v-1.2h6.6L434.1,484.7z"/>
			<path d="M446.2,477.3h1.5v8.6h-1.5l0-1.1c-0.3,0.4-0.6,0.7-1.1,1s-0.9,0.3-1.5,0.3c-0.9,0-1.6-0.3-2.2-0.8
				c-0.5-0.5-0.8-1.3-0.8-2.2v-5.8h1.5v5.5c0,0.7,0.2,1.2,0.5,1.5s0.8,0.5,1.4,0.5c0.6,0,1.1-0.2,1.5-0.6c0.4-0.4,0.6-1,0.6-1.8
				V477.3z"/>
			<path d="M450.8,486v-13.5h1.5V486H450.8z"/>
		</g>
		<g>
			<path d="M436.5,523.1l-1.1-3h-5.6l-1.1,3h-1.6l4.6-12.4h1.9l4.6,12.4H436.5z M430.3,518.7h4.6l-2.3-6.4L430.3,518.7z"/>
			<path d="M441.4,521.9h4.6v1.2h-6.9l4.6-7.4h-4.3v-1.2h6.6L441.4,521.9z"/>
			<path d="M453.5,514.4h1.5v8.6h-1.5l0-1.1c-0.3,0.4-0.6,0.7-1.1,1s-0.9,0.3-1.5,0.3c-0.9,0-1.6-0.3-2.2-0.8
				c-0.5-0.5-0.8-1.3-0.8-2.2v-5.8h1.5v5.5c0,0.7,0.2,1.2,0.5,1.5s0.8,0.5,1.4,0.5c0.6,0,1.1-0.2,1.5-0.6c0.4-0.4,0.6-1,0.6-1.8
				V514.4z"/>
			<path d="M458.1,523.1v-13.5h1.5v13.5H458.1z"/>
			<path d="M467.4,519v-1.3h6.3v1.3H467.4z"/>
			<path d="M486.8,514.4h1.6l-3.5,8.6h-1.3l-3.5-8.6h1.6l2.5,6.9L486.8,514.4z"/>
			<path d="M497.5,518.6l0,0.4h-6.8c0,1,0.3,1.7,0.8,2.2s1.2,0.8,2,0.8c0.5,0,1-0.1,1.4-0.4s0.8-0.7,1-1.1l1.4,0.3
				c-0.3,0.8-0.8,1.4-1.5,1.9s-1.4,0.7-2.3,0.7c-1.3,0-2.3-0.4-3.1-1.2s-1.2-1.9-1.2-3.3c0-1.4,0.4-2.5,1.2-3.3s1.8-1.2,3.1-1.2
				c1.2,0,2.2,0.4,2.9,1.1C497.1,516.1,497.5,517.2,497.5,518.6z M493.5,515.4c-0.7,0-1.3,0.2-1.8,0.6c-0.5,0.4-0.8,1-0.9,1.8h5.2
				c-0.1-0.8-0.3-1.4-0.8-1.8S494.2,515.4,493.5,515.4z"/>
			<path d="M501.3,516c0.2-0.5,0.6-0.9,1.1-1.2s1.1-0.5,1.7-0.5v1.4c-0.9,0-1.5,0.2-2,0.6c-0.5,0.4-0.7,1.1-0.7,2v4.6h-1.5v-8.6h1.5
				V516z"/>
			<path d="M512.1,509.6h1.5v13.5h-1.5l0-1.7c-0.3,0.6-0.7,1-1.2,1.4s-1.2,0.5-1.8,0.5c-0.6,0-1.1-0.1-1.6-0.3s-0.9-0.5-1.3-0.9
				c-0.4-0.4-0.7-0.9-0.9-1.4s-0.3-1.2-0.3-1.9c0-1.3,0.4-2.4,1.2-3.2c0.8-0.8,1.7-1.2,2.9-1.2c0.7,0,1.3,0.2,1.8,0.5
				c0.5,0.3,1,0.8,1.2,1.3V509.6z M509.4,521.9c0.8,0,1.5-0.3,2-0.9s0.8-1.4,0.8-2.3c0-0.9-0.3-1.7-0.8-2.3s-1.2-0.9-2-0.9
				c-0.8,0-1.5,0.3-2,0.9s-0.8,1.4-0.8,2.3s0.3,1.7,0.8,2.3S508.6,521.9,509.4,521.9z"/>
			<path d="M520.4,523.2c-0.8,0-1.6-0.2-2.2-0.5s-1.2-0.9-1.6-1.6s-0.6-1.5-0.6-2.4c0-1.4,0.4-2.4,1.2-3.3c0.8-0.8,1.9-1.2,3.1-1.2
				c1.3,0,2.3,0.4,3.1,1.2s1.2,1.9,1.2,3.3c0,1.4-0.4,2.4-1.2,3.3C522.7,522.8,521.6,523.2,520.4,523.2z M520.4,522
				c0.8,0,1.5-0.3,2-0.9c0.5-0.6,0.8-1.4,0.8-2.3c0-1-0.3-1.7-0.8-2.3c-0.5-0.6-1.2-0.9-2-0.9c-0.8,0-1.5,0.3-2,0.9
				c-0.5,0.6-0.8,1.4-0.8,2.3c0,1,0.3,1.7,0.8,2.3C518.9,521.7,519.5,522,520.4,522z"/>
			<path d="M529.8,523.2c-0.9,0-1.7-0.2-2.3-0.6s-1-1-1.1-1.8l1.3-0.4c0.1,0.5,0.3,0.9,0.7,1.2c0.4,0.3,0.9,0.4,1.4,0.4
				c0.3,0,0.6,0,0.8-0.1s0.5-0.2,0.6-0.4s0.3-0.5,0.3-0.8c0-0.1,0-0.2-0.1-0.4s-0.1-0.2-0.1-0.3s-0.1-0.2-0.2-0.2s-0.2-0.1-0.3-0.2
				s-0.2-0.1-0.4-0.2c-0.2-0.1-0.3-0.1-0.4-0.1s-0.3-0.1-0.5-0.1s-0.4-0.1-0.5-0.1c-0.4-0.1-0.7-0.2-0.9-0.3s-0.5-0.2-0.7-0.4
				s-0.4-0.4-0.6-0.7s-0.2-0.6-0.2-1c0-0.5,0.1-1,0.4-1.4s0.6-0.6,1.1-0.8c0.4-0.2,1-0.2,1.5-0.2c0.8,0,1.5,0.2,2.1,0.6
				c0.6,0.4,0.9,0.9,1,1.7l-1.2,0.3c-0.1-0.5-0.3-0.9-0.7-1.1s-0.8-0.4-1.2-0.4c-0.5,0-0.8,0.1-1.2,0.3s-0.5,0.5-0.5,0.9
				c0,0.2,0,0.3,0.1,0.5s0.2,0.3,0.3,0.3s0.2,0.2,0.5,0.3s0.4,0.2,0.5,0.2s0.3,0.1,0.6,0.2c0.1,0,0.1,0,0.1,0
				c0.3,0.1,0.6,0.2,0.8,0.2c0.2,0.1,0.5,0.2,0.7,0.3s0.5,0.3,0.7,0.5s0.3,0.4,0.4,0.7s0.2,0.6,0.2,0.9c0,0.4-0.1,0.8-0.3,1.2
				c-0.2,0.3-0.4,0.6-0.7,0.8s-0.6,0.3-1,0.4S530.3,523.2,529.8,523.2z"/>
			<path d="M539,523.2c-0.8,0-1.6-0.2-2.2-0.5s-1.2-0.9-1.6-1.6s-0.6-1.5-0.6-2.4c0-1.4,0.4-2.4,1.2-3.3c0.8-0.8,1.9-1.2,3.1-1.2
				c1.3,0,2.3,0.4,3.1,1.2s1.2,1.9,1.2,3.3c0,1.4-0.4,2.4-1.2,3.3C541.4,522.8,540.3,523.2,539,523.2z M539,522c0.8,0,1.5-0.3,2-0.9
				c0.5-0.6,0.8-1.4,0.8-2.3c0-1-0.3-1.7-0.8-2.3c-0.5-0.6-1.2-0.9-2-0.9c-0.8,0-1.5,0.3-2,0.9c-0.5,0.6-0.8,1.4-0.8,2.3
				c0,1,0.3,1.7,0.8,2.3C537.6,521.7,538.2,522,539,522z"/>
		</g>
		<g>
			<path d="M218.1,180.9c-1.7,0-3.2-0.4-4.3-1.2c-1.2-0.8-1.9-1.9-2.2-3.2l2.1-0.5c0.2,1,0.7,1.7,1.5,2.3c0.8,0.5,1.8,0.8,2.9,0.8
				c0.4,0,0.7,0,1.1-0.1c0.3-0.1,0.7-0.2,1-0.3c0.3-0.1,0.6-0.3,0.8-0.5c0.2-0.2,0.4-0.5,0.5-0.8c0.1-0.3,0.2-0.7,0.2-1.1
				c0-0.3-0.1-0.5-0.1-0.8c-0.1-0.2-0.2-0.4-0.3-0.6c-0.1-0.2-0.3-0.3-0.6-0.5c-0.2-0.2-0.5-0.3-0.7-0.4s-0.5-0.2-0.8-0.3
				s-0.6-0.2-0.9-0.3c-0.2-0.1-0.6-0.2-1-0.3c-0.1,0-0.1,0-0.2,0c-0.5-0.1-0.8-0.2-1.1-0.3c-0.3-0.1-0.6-0.2-1-0.4
				c-0.4-0.2-0.7-0.3-1-0.5s-0.5-0.3-0.8-0.6s-0.5-0.5-0.7-0.7c-0.2-0.3-0.3-0.6-0.4-0.9c-0.1-0.4-0.2-0.8-0.2-1.2
				c0-1,0.3-1.8,0.8-2.5c0.5-0.7,1.2-1.2,2-1.6s1.7-0.5,2.7-0.5c1.5,0,2.9,0.3,4,1s1.8,1.7,2.1,3l-2,0.5c-0.2-0.9-0.7-1.6-1.4-2
				c-0.7-0.5-1.6-0.7-2.6-0.7c-0.4,0-0.9,0.1-1.3,0.2c-0.4,0.1-0.8,0.3-1.1,0.5c-0.3,0.2-0.6,0.5-0.8,0.9c-0.2,0.4-0.3,0.8-0.3,1.3
				c0,0.3,0,0.5,0.1,0.7c0.1,0.2,0.2,0.4,0.3,0.6c0.1,0.2,0.3,0.3,0.5,0.5c0.2,0.1,0.4,0.3,0.6,0.4s0.4,0.2,0.8,0.3s0.6,0.2,0.8,0.3
				c0.2,0.1,0.5,0.1,0.9,0.2c1.5,0.4,2.5,0.7,3.2,1.1c1.4,0.7,2.3,1.7,2.5,3c0,0.2,0,0.5,0,0.7c0,0.8-0.2,1.5-0.5,2.1
				c-0.3,0.6-0.8,1.1-1.3,1.5c-0.6,0.4-1.2,0.6-1.9,0.8C219.6,180.8,218.9,180.9,218.1,180.9z"/>
			<path d="M230.1,180.9c-1,0-1.9-0.3-2.5-0.8s-1-1.3-1-2.4c0-0.6,0.1-1.1,0.3-1.5s0.5-0.8,0.9-1.1s0.9-0.5,1.4-0.7s1.1-0.3,1.8-0.4
				l1.9-0.3c0.7-0.1,1-0.5,1-1.1c0-0.8-0.2-1.4-0.7-1.7c-0.5-0.4-1.1-0.5-1.8-0.5c-0.7,0-1.3,0.2-1.8,0.5c-0.5,0.4-0.8,0.9-0.9,1.6
				l-1.8-0.4c0.2-1.1,0.7-1.9,1.4-2.5c0.8-0.6,1.8-0.8,3.2-0.8c0.6,0,1.2,0.1,1.7,0.2c0.5,0.1,1,0.4,1.4,0.6s0.8,0.7,1,1.2
				c0.2,0.5,0.4,1.2,0.4,1.9v4.8c0,0.6,0.1,1,0.3,1.2s0.5,0.3,0.9,0.3h0.2v1.5h-1c-1.2,0-2-0.5-2.2-1.6h-0.1
				C233,180.3,231.7,180.9,230.1,180.9z M230.5,179.3c1,0,1.9-0.4,2.5-1.1s0.9-1.8,0.9-3.1l-3.1,0.6c-0.8,0.1-1.4,0.3-1.8,0.6
				c-0.4,0.3-0.6,0.7-0.6,1.3c0,0.6,0.2,1,0.6,1.3C229.4,179.1,229.9,179.3,230.5,179.3z"/>
			<path d="M243.6,180.7c-1,0-1.7-0.3-2.3-0.8c-0.5-0.6-0.8-1.3-0.8-2.3v-6.8h-2.4v-1.6h0.9c0.6,0,1-0.1,1.3-0.4
				c0.2-0.3,0.4-0.7,0.4-1.4v-2.1h1.9v3.9h2.7v1.6h-2.7v6.6c0,0.5,0.1,1,0.4,1.3c0.3,0.3,0.7,0.5,1.2,0.5h1.1v1.6H243.6z"/>
			<path d="M255.4,169.1h2v11.6h-2l0-1.5c-0.4,0.6-0.8,1-1.4,1.3c-0.6,0.3-1.3,0.5-2,0.5c-1.2,0-2.2-0.3-2.9-1
				c-0.7-0.7-1.1-1.7-1.1-3v-7.8h2v7.3c0,0.9,0.2,1.6,0.7,2.1c0.5,0.5,1.1,0.7,1.8,0.7c0.8,0,1.5-0.3,2.1-0.8
				c0.5-0.5,0.8-1.3,0.8-2.4V169.1z"/>
			<path d="M263.6,171.1c0.3-0.6,0.8-1.2,1.4-1.6s1.4-0.6,2.2-0.6v1.9c-1.2,0-2.1,0.3-2.7,0.9s-0.9,1.5-0.9,2.7v6.2h-2v-11.6h2
				V171.1z"/>
			<path d="M272.2,180.9c-1,0-1.9-0.3-2.5-0.8s-1-1.3-1-2.4c0-0.6,0.1-1.1,0.3-1.5s0.5-0.8,0.9-1.1s0.9-0.5,1.4-0.7s1.1-0.3,1.8-0.4
				l1.9-0.3c0.7-0.1,1-0.5,1-1.1c0-0.8-0.2-1.4-0.7-1.7c-0.5-0.4-1.1-0.5-1.8-0.5c-0.7,0-1.3,0.2-1.8,0.5c-0.5,0.4-0.8,0.9-0.9,1.6
				l-1.8-0.4c0.2-1.1,0.7-1.9,1.4-2.5c0.8-0.6,1.8-0.8,3.2-0.8c0.6,0,1.2,0.1,1.7,0.2c0.5,0.1,1,0.4,1.4,0.6s0.8,0.7,1,1.2
				c0.2,0.5,0.4,1.2,0.4,1.9v4.8c0,0.6,0.1,1,0.3,1.2s0.5,0.3,0.9,0.3h0.2v1.5h-1c-1.2,0-2-0.5-2.2-1.6H276
				C275.1,180.3,273.8,180.9,272.2,180.9z M272.6,179.3c1,0,1.9-0.4,2.5-1.1s0.9-1.8,0.9-3.1l-3.1,0.6c-0.8,0.1-1.4,0.3-1.8,0.6
				c-0.4,0.3-0.6,0.7-0.6,1.3c0,0.6,0.2,1,0.6,1.3C271.6,179.1,272,179.3,272.6,179.3z"/>
			<path d="M286.7,180.9c-1.7,0-3.1-0.6-4.1-1.7c-1.1-1.1-1.6-2.6-1.6-4.3s0.5-3.2,1.6-4.3c1.1-1.1,2.5-1.7,4.1-1.7
				c1.3,0,2.4,0.3,3.3,1c0.9,0.7,1.6,1.6,1.9,2.8l-1.9,0.3c-0.3-0.8-0.7-1.4-1.3-1.8s-1.3-0.6-2.1-0.6c-1.1,0-2,0.4-2.7,1.2
				c-0.7,0.8-1.1,1.8-1.1,3.1c0,1.3,0.4,2.3,1.1,3.1c0.7,0.8,1.6,1.2,2.7,1.2c0.8,0,1.5-0.2,2.1-0.6s1-1,1.3-1.8l1.9,0.3
				c-0.4,1.2-1,2.1-2,2.8C289.1,180.6,288,180.9,286.7,180.9z"/>
			<path d="M296,166.4c-0.4,0-0.7-0.1-1-0.4c-0.3-0.3-0.4-0.6-0.4-1s0.1-0.7,0.4-1s0.6-0.4,1-0.4c0.4,0,0.7,0.1,1,0.4s0.4,0.6,0.4,1
				s-0.1,0.7-0.4,1C296.7,166.3,296.4,166.4,296,166.4z M295,180.7v-11.6h2v11.6H295z"/>
			<path d="M306.1,180.9c-1.1,0-2.1-0.2-3-0.7c-0.9-0.5-1.6-1.2-2.1-2.1c-0.5-0.9-0.8-2-0.8-3.2c0-1.8,0.5-3.3,1.6-4.4
				s2.5-1.6,4.2-1.6c1.7,0,3.1,0.5,4.2,1.6c1.1,1.1,1.6,2.5,1.6,4.4c0,1.8-0.5,3.3-1.6,4.4C309.2,180.4,307.8,180.9,306.1,180.9z
				 M306.1,179.2c1.1,0,2-0.4,2.7-1.2c0.7-0.8,1.1-1.8,1.1-3.1c0-1.3-0.4-2.3-1.1-3.1c-0.7-0.8-1.6-1.2-2.7-1.2
				c-1.1,0-2,0.4-2.7,1.2s-1.1,1.8-1.1,3.1c0,1.3,0.4,2.3,1.1,3.1S305,179.2,306.1,179.2z M305.3,167.1l3-3.8l1.1,0.8l-2.6,3H305.3z
				"/>
			<path d="M320.5,168.9c1.2,0,2.2,0.3,2.9,1c0.7,0.7,1.1,1.7,1.1,3v7.8h-2v-7.3c0-0.9-0.2-1.6-0.7-2.1c-0.5-0.4-1.1-0.7-1.8-0.7
				c-0.8,0-1.5,0.3-2.1,0.8c-0.5,0.5-0.8,1.3-0.8,2.4v6.9h-2v-11.6h2v1.5C317.9,169.5,319,168.9,320.5,168.9z"/>
		</g>
		<g>
			<path d="M283.1,55.2h2.2l-6.1,16.6h-2.2L271,55.2h2.2l4.9,13.9L283.1,55.2z"/>
			<path d="M289.6,72c-1,0-1.9-0.3-2.5-0.8c-0.7-0.5-1-1.3-1-2.4c0-0.6,0.1-1.1,0.3-1.5s0.5-0.8,0.9-1.1s0.9-0.5,1.4-0.7
				s1.1-0.3,1.8-0.4l1.9-0.3c0.7-0.1,1-0.5,1-1.1c0-0.8-0.2-1.4-0.7-1.7c-0.5-0.4-1.1-0.5-1.8-0.5c-0.7,0-1.3,0.2-1.8,0.5
				c-0.5,0.4-0.8,0.9-0.9,1.6l-1.8-0.4c0.2-1.1,0.7-1.9,1.4-2.5c0.8-0.6,1.8-0.8,3.2-0.8c0.6,0,1.2,0.1,1.7,0.2
				c0.5,0.1,1,0.4,1.4,0.6c0.4,0.3,0.8,0.7,1,1.2c0.2,0.5,0.4,1.2,0.4,1.9v4.8c0,0.6,0.1,1,0.3,1.2s0.5,0.3,0.9,0.3h0.2v1.5h-1
				c-1.2,0-2-0.5-2.2-1.6h-0.1C292.5,71.4,291.2,72,289.6,72z M290,70.4c1,0,1.9-0.4,2.5-1.1c0.6-0.7,0.9-1.8,0.9-3.1l-3.1,0.6
				c-0.8,0.1-1.4,0.3-1.8,0.6c-0.4,0.3-0.6,0.7-0.6,1.3c0,0.6,0.2,1,0.6,1.3C289,70.3,289.4,70.4,290,70.4z"/>
			<path d="M299.5,71.8V53.7h2.1v18.1H299.5z"/>
			<path d="M310.6,72c-1.1,0-2.1-0.2-3-0.7s-1.6-1.2-2.1-2.1c-0.5-0.9-0.8-2-0.8-3.2c0-1.8,0.5-3.3,1.6-4.4s2.5-1.6,4.2-1.6
				c1.7,0,3.1,0.5,4.2,1.6c1.1,1.1,1.6,2.5,1.6,4.4c0,1.8-0.5,3.3-1.6,4.4C313.7,71.5,312.3,72,310.6,72z M310.6,70.3
				c1.1,0,2-0.4,2.7-1.2c0.7-0.8,1.1-1.8,1.1-3.1c0-1.3-0.4-2.3-1.1-3.1c-0.7-0.8-1.6-1.2-2.7-1.2c-1.1,0-2,0.4-2.7,1.2
				s-1.1,1.8-1.1,3.1c0,1.3,0.4,2.3,1.1,3.1C308.6,69.9,309.5,70.3,310.6,70.3z"/>
			<path d="M321.6,62.3c0.3-0.6,0.8-1.2,1.4-1.6s1.4-0.6,2.2-0.6V62c-1.2,0-2.1,0.3-2.7,0.9s-0.9,1.5-0.9,2.7v6.2h-2V60.2h2V62.3z"
				/>
		</g>
	</g>
</g>
</svg>
