<svg id="Layer_1" data-name="Layer 1" xmlns="http://www.w3.org/2000/svg" width="563.56" height="300.44" viewBox="0 0 563.56 300.44">
  <defs>
    <style>
      .cls-1 {
        fill: red;
      }

      .cls-2 {
        fill: #f2f2f2;
      }

      .cls-3 {
        opacity: 0.75;
      }

      .cls-4 {
        opacity: 0.5;
      }

      .cls-5 {
        opacity: 0.25;
      }
    </style>
  </defs>
  <g>
    <rect class="cls-1" width="281.78" height="228.44"/>
    <rect class="cls-2" x="281.78" width="281.78" height="300.44"/>
    <rect class="cls-1" y="228.44" width="70.44" height="72"/>
    <g class="cls-3">
      <rect class="cls-1" x="70.44" y="228.44" width="70.44" height="72"/>
    </g>
    <g class="cls-4">
      <rect class="cls-1" x="140.89" y="228.44" width="70.44" height="72"/>
    </g>
    <g class="cls-5">
      <rect class="cls-1" x="211.33" y="228.44" width="70.44" height="72"/>
    </g>
    <g>
      <path d="M343.85,124.4l-7-11.8h-1.61v11.8h-5.57V97.59h9.73a11.3,11.3,0,0,1,3.89.62,6.7,6.7,0,0,1,2.7,1.73,7.25,7.25,0,0,1,1.52,2.53,9.27,9.27,0,0,1,.51,3.14,6.51,6.51,0,0,1-1.46,4.4,7.33,7.33,0,0,1-4.21,2.31l8.07,12.08Zm-8.59-22.19v6.4h3.28q4.18,0,4.18-3.19a2.92,2.92,0,0,0-1-2.36,4.91,4.91,0,0,0-3.16-.85Z"/>
      <path d="M361.57,124.77a12,12,0,0,1-5.4-1.17,8.69,8.69,0,0,1-3.7-3.43,10.19,10.19,0,0,1-1.35-5.32,9.34,9.34,0,0,1,2.9-7.24,12.11,12.11,0,0,1,15.12,0,10.51,10.51,0,0,1,0,14.5A10.71,10.71,0,0,1,361.57,124.77Zm-.05-4.25a4.89,4.89,0,0,0,3.77-1.55,6.61,6.61,0,0,0,0-8.24,4.9,4.9,0,0,0-3.77-1.56,4.71,4.71,0,0,0-3.67,1.57,6.66,6.66,0,0,0,0,8.22A4.74,4.74,0,0,0,361.52,120.52Z"/>
      <path d="M372.11,133.35v-4.18a6.07,6.07,0,0,0,2-.27,2.25,2.25,0,0,0,1.19-1,4.3,4.3,0,0,0,.57-1.65,18.78,18.78,0,0,0,.14-2.55V105.33h5.41v18.42q0,5-2.17,7.3T372.11,133.35Zm6.64-30.88a3.09,3.09,0,0,1-3.1-3.08,2.93,2.93,0,0,1,.92-2.16,3,3,0,0,1,2.18-.9,3.07,3.07,0,0,1,0,6.14Z"/>
      <path d="M395.86,124.77a12,12,0,0,1-5.4-1.17,8.69,8.69,0,0,1-3.7-3.43,10.19,10.19,0,0,1-1.35-5.32,9.34,9.34,0,0,1,2.9-7.24,12.11,12.11,0,0,1,15.12,0,10.54,10.54,0,0,1,0,14.5A10.71,10.71,0,0,1,395.86,124.77Zm-.06-4.25a4.9,4.9,0,0,0,3.78-1.55,6.61,6.61,0,0,0,0-8.24,4.9,4.9,0,0,0-3.78-1.56,4.71,4.71,0,0,0-3.66,1.57,6.66,6.66,0,0,0,0,8.22A4.73,4.73,0,0,0,395.8,120.52Z"/>
    </g>
    <g>
      <path d="M338.29,152.5h-4.47v3.6h3.94v1.26h-3.94V161h4.47v1.27H332.4v-11h5.89Z"/>
      <path d="M344.25,154.39a2.69,2.69,0,0,1,1.93.7,2.6,2.6,0,0,1,.72,2v5.17h-1.35v-4.86a1.8,1.8,0,0,0-.47-1.38,1.65,1.65,0,0,0-1.2-.45,1.88,1.88,0,0,0-1.37.53,2.19,2.19,0,0,0-.54,1.57v4.59h-1.35v-7.68H342v1A2.56,2.56,0,0,1,344.25,154.39Z"/>
      <path d="M356.23,158.23v.37h-6a2.69,2.69,0,0,0,.73,2,2.4,2.4,0,0,0,1.75.69,2.33,2.33,0,0,0,1.27-.37,2.37,2.37,0,0,0,.88-1l1.22.26a3.48,3.48,0,0,1-1.32,1.65,3.54,3.54,0,0,1-2,.6A3.71,3.71,0,0,1,350,161.3a4.59,4.59,0,0,1,0-5.84,3.7,3.7,0,0,1,2.73-1.07,3.46,3.46,0,0,1,2.58,1A3.88,3.88,0,0,1,356.23,158.23Zm-3.55-2.8a2.36,2.36,0,0,0-1.6.55,2.49,2.49,0,0,0-.81,1.58h4.6a2.25,2.25,0,0,0-.67-1.58A2.14,2.14,0,0,0,352.68,155.43Z"/>
      <path d="M359.67,155.89a2.34,2.34,0,0,1,.95-1,2.88,2.88,0,0,1,1.48-.4v1.27a2.55,2.55,0,0,0-1.79.57,2.38,2.38,0,0,0-.61,1.82v4.1h-1.35v-7.68h1.32Z"/>
      <path d="M369.15,154.54h1.32v7.29a4.17,4.17,0,0,1-1,3,4.12,4.12,0,0,1-6.47-1.3l1.11-.55a2.55,2.55,0,0,0,2.57,1.78,2.23,2.23,0,0,0,1.81-.75,3.23,3.23,0,0,0,.62-2.1v-1.42a2.73,2.73,0,0,1-1.1,1.11,3.37,3.37,0,0,1-4.08-.67,4.12,4.12,0,0,1,0-5.45,3.32,3.32,0,0,1,2.5-1.08,3.21,3.21,0,0,1,1.61.43,2.81,2.81,0,0,1,1.08,1.14Zm-2.43,6.32a2.35,2.35,0,0,0,1.77-.79,2.79,2.79,0,0,0,0-3.76,2.41,2.41,0,0,0-3.54,0,2.67,2.67,0,0,0-.73,1.91,2.7,2.7,0,0,0,.73,1.9A2.37,2.37,0,0,0,366.72,160.86Z"/>
      <path d="M373.22,162.22v-7.68h1.35v7.68Zm.17-9,2-2.54.72.52-1.75,2Z"/>
      <path d="M379.1,162.37a2.59,2.59,0,0,1-1.69-.53,1.88,1.88,0,0,1-.66-1.57,2.08,2.08,0,0,1,.22-1,1.67,1.67,0,0,1,.62-.7,3.76,3.76,0,0,1,.9-.44,8.52,8.52,0,0,1,1.17-.27l1.24-.21c.46-.08.68-.32.68-.71a1.33,1.33,0,0,0-.48-1.14,1.9,1.9,0,0,0-1.21-.37,2.06,2.06,0,0,0-1.21.35,1.51,1.51,0,0,0-.57,1.08l-1.21-.25a2.33,2.33,0,0,1,1-1.65,3.54,3.54,0,0,1,2.09-.55,4.21,4.21,0,0,1,1.11.14,2.82,2.82,0,0,1,.93.43,1.89,1.89,0,0,1,.67.82,3.09,3.09,0,0,1,.24,1.27v3.17a1.3,1.3,0,0,0,.17.8.76.76,0,0,0,.61.21h.12v1h-.67a1.27,1.27,0,0,1-1.45-1h-.07A2.91,2.91,0,0,1,379.1,162.37Zm.31-1.09a2.05,2.05,0,0,0,1.65-.75,3,3,0,0,0,.62-2l-2,.39a2.73,2.73,0,0,0-1.19.43,1,1,0,0,0-.39.84,1,1,0,0,0,.38.84A1.5,1.5,0,0,0,379.41,161.28Z"/>
      <path d="M338.29,171.7h-4.47v3.6h3.94v1.26h-3.94v3.59h4.47v1.27H332.4v-11h5.89Z"/>
      <path d="M339.54,181.42l2.95-3.84-2.95-3.84h1.66l2.12,2.94,2.13-2.94h1.64l-3,3.84,3,3.84h-1.65l-2.11-2.92-2.13,2.92Z"/>
      <path d="M351.64,181.56a3.67,3.67,0,0,1-2.75-1.1,4.36,4.36,0,0,1,0-5.76,3.68,3.68,0,0,1,2.76-1.11,3.72,3.72,0,0,1,2.22.68,3.33,3.33,0,0,1,1.29,1.86l-1.26.21a2.3,2.3,0,0,0-2.26-1.62,2.27,2.27,0,0,0-1.78.79,3,3,0,0,0-.7,2.07,3,3,0,0,0,.7,2.07,2.29,2.29,0,0,0,1.78.78,2.3,2.3,0,0,0,2.26-1.62l1.26.21a3.32,3.32,0,0,1-1.3,1.87A3.71,3.71,0,0,1,351.64,181.56Z"/>
      <path d="M357.83,171.94a.87.87,0,0,1-.64-.27.89.89,0,0,1-.27-.65.87.87,0,0,1,.27-.64.92.92,0,0,1,1.28,0,.87.87,0,0,1,.27.64.89.89,0,0,1-.27.65A.87.87,0,0,1,357.83,171.94Zm-.68,9.48v-7.68h1.35v7.68Z"/>
      <path d="M363.71,181.42a2,2,0,0,1-1.5-.55,2.07,2.07,0,0,1-.55-1.53v-4.52h-1.57v-1.08h.58a1.13,1.13,0,0,0,.85-.27,1.35,1.35,0,0,0,.24-.9v-1.39H363v2.56h1.77v1.08H363v4.38a1.17,1.17,0,0,0,.29.84,1,1,0,0,0,.77.3h.71v1.08Z"/>
      <path d="M368.42,181.57a2.56,2.56,0,0,1-1.68-.53,1.86,1.86,0,0,1-.67-1.57,2.2,2.2,0,0,1,.22-1,1.67,1.67,0,0,1,.62-.7,3.76,3.76,0,0,1,.9-.44,8.52,8.52,0,0,1,1.17-.27l1.24-.21c.46-.08.68-.32.68-.71a1.33,1.33,0,0,0-.48-1.14,1.9,1.9,0,0,0-1.21-.37A2,2,0,0,0,368,175a1.47,1.47,0,0,0-.57,1.07l-1.21-.25a2.33,2.33,0,0,1,1-1.65,3.54,3.54,0,0,1,2.09-.55,4.21,4.21,0,0,1,1.11.14,2.82,2.82,0,0,1,.93.43,1.89,1.89,0,0,1,.67.82,3.09,3.09,0,0,1,.24,1.27v3.17a1.3,1.3,0,0,0,.17.8.76.76,0,0,0,.61.21h.12v1h-.67a1.27,1.27,0,0,1-1.45-1h-.07A2.91,2.91,0,0,1,368.42,181.57Zm.31-1.09a2.07,2.07,0,0,0,1.65-.74,3.07,3.07,0,0,0,.62-2l-2,.39a2.73,2.73,0,0,0-1.19.43,1,1,0,0,0-.38.84,1,1,0,0,0,.37.84A1.52,1.52,0,0,0,368.73,180.48Z"/>
      <path d="M378.06,181.56a3.67,3.67,0,0,1-2.75-1.1,3.93,3.93,0,0,1-1.09-2.88,3.89,3.89,0,0,1,1.09-2.88,3.66,3.66,0,0,1,2.75-1.11,3.72,3.72,0,0,1,2.22.68,3.33,3.33,0,0,1,1.29,1.86l-1.26.21a2.3,2.3,0,0,0-2.26-1.62,2.27,2.27,0,0,0-1.78.79,3,3,0,0,0-.7,2.07,3,3,0,0,0,.7,2.07,2.29,2.29,0,0,0,1.78.78,2.3,2.3,0,0,0,2.26-1.62l1.26.21a3.32,3.32,0,0,1-1.3,1.87A3.71,3.71,0,0,1,378.06,181.56Z"/>
      <path d="M384.25,171.94a.87.87,0,0,1-.64-.27.89.89,0,0,1-.27-.65.87.87,0,0,1,.27-.64.92.92,0,0,1,1.28,0,.87.87,0,0,1,.27.64.89.89,0,0,1-.27.65A.87.87,0,0,1,384.25,171.94Zm-.68,9.48v-7.68h1.36v7.68Z"/>
      <path d="M390.91,181.57a4,4,0,0,1-2-.48,3.42,3.42,0,0,1-1.38-1.39,4.19,4.19,0,0,1-.52-2.12,4,4,0,0,1,1.09-2.9,4.09,4.09,0,0,1,5.56,0,4.4,4.4,0,0,1,0,5.8A3.75,3.75,0,0,1,390.91,181.57Zm0-1.12a2.38,2.38,0,0,0,1.82-.79,3,3,0,0,0,.72-2.08,2.93,2.93,0,0,0-.72-2.07,2.35,2.35,0,0,0-1.82-.79,2.32,2.32,0,0,0-1.8.79,3,3,0,0,0-.71,2.07,3,3,0,0,0,.71,2.08A2.36,2.36,0,0,0,390.9,180.45Zm-.5-8,2-2.54.71.52-1.75,2Z"/>
      <path d="M400.52,173.59a2.67,2.67,0,0,1,1.93.7,2.56,2.56,0,0,1,.73,2v5.17h-1.36v-4.86a1.84,1.84,0,0,0-.46-1.38,1.69,1.69,0,0,0-1.21-.44,1.85,1.85,0,0,0-1.36.52,2.11,2.11,0,0,0-.54,1.57v4.59H396.9v-7.68h1.35v1A2.55,2.55,0,0,1,400.52,173.59Z"/>
      <path d="M336.56,189.62a3.21,3.21,0,0,1,1.72.46,3.09,3.09,0,0,1,1.16,1.22,3.58,3.58,0,0,1,.4,1.7,3.31,3.31,0,0,1-.91,2.39,3.13,3.13,0,0,1-2.37,1h-2.77v4.27H332.4v-11Zm-.2,5.51a2,2,0,0,0,1.53-.59,2.17,2.17,0,0,0,.55-1.56,2.19,2.19,0,0,0-.55-1.55,2,2,0,0,0-1.53-.6h-2.57v4.3Z"/>
      <path d="M343,200.77a2.65,2.65,0,0,1-1.69-.53,1.88,1.88,0,0,1-.66-1.57,2.08,2.08,0,0,1,.22-1,1.67,1.67,0,0,1,.62-.7,3.76,3.76,0,0,1,.9-.44,8.52,8.52,0,0,1,1.17-.27l1.24-.21c.46-.08.68-.32.68-.71a1.33,1.33,0,0,0-.48-1.14,1.9,1.9,0,0,0-1.21-.37,2.06,2.06,0,0,0-1.21.35,1.51,1.51,0,0,0-.57,1.08l-1.22-.25a2.38,2.38,0,0,1,1-1.65,3.54,3.54,0,0,1,2.09-.55A4.21,4.21,0,0,1,345,193a2.82,2.82,0,0,1,.93.43,1.89,1.89,0,0,1,.67.82,3.1,3.1,0,0,1,.23,1.27v3.17a1.29,1.29,0,0,0,.18.8.76.76,0,0,0,.61.21h.12v1h-.67a1.27,1.27,0,0,1-1.45-1h-.07A2.91,2.91,0,0,1,343,200.77Zm.31-1.09a2.05,2.05,0,0,0,1.65-.75,3,3,0,0,0,.62-2l-2,.39a2.73,2.73,0,0,0-1.19.43,1,1,0,0,0-.39.84,1,1,0,0,0,.38.84A1.5,1.5,0,0,0,343.34,199.68Z"/>
      <path d="M352.07,200.77a3.63,3.63,0,0,1-2.07-.55,2.28,2.28,0,0,1-1-1.58l1.18-.34a1.62,1.62,0,0,0,.63,1.07,2,2,0,0,0,1.26.38,2.82,2.82,0,0,0,.74-.1,1.2,1.2,0,0,0,.56-.38,1,1,0,0,0,.23-.7,1.07,1.07,0,0,0-.06-.32,1.17,1.17,0,0,0-.13-.25.56.56,0,0,0-.22-.21,1.64,1.64,0,0,0-.26-.17l-.35-.14-.37-.13-.43-.12-.45-.13c-.32-.1-.58-.19-.79-.28a3.34,3.34,0,0,1-.65-.37,1.49,1.49,0,0,1-.5-.61,1.91,1.91,0,0,1-.17-.86,2,2,0,0,1,.37-1.22,2.1,2.1,0,0,1,1-.73,3.8,3.8,0,0,1,1.36-.22,3.36,3.36,0,0,1,1.87.5,2.1,2.1,0,0,1,.93,1.5l-1.11.28a1.43,1.43,0,0,0-.58-1,1.86,1.86,0,0,0-1.1-.33,1.88,1.88,0,0,0-1,.27.91.91,0,0,0-.43.83.76.76,0,0,0,.11.42,1.07,1.07,0,0,0,.23.3,1.3,1.3,0,0,0,.42.23,4.31,4.31,0,0,0,.45.17l.57.14.11,0,.74.21a6.15,6.15,0,0,1,.67.28,2.18,2.18,0,0,1,.59.42,2,2,0,0,1,.38.59,2.23,2.23,0,0,1,.16.83,2.19,2.19,0,0,1-.24,1,1.86,1.86,0,0,1-.62.71,3,3,0,0,1-.9.38A4.08,4.08,0,0,1,352.07,200.77Z"/>
      <path d="M357.71,191.14a.92.92,0,0,1-.92-.92.87.87,0,0,1,.27-.64.92.92,0,0,1,.65-.26.89.89,0,0,1,.63.26.87.87,0,0,1,.27.64.89.89,0,0,1-.27.65A.86.86,0,0,1,357.71,191.14Zm-.69,9.48v-7.68h1.36v7.68Z"/>
      <path d="M364.36,200.77a4,4,0,0,1-2-.48A3.38,3.38,0,0,1,361,198.9a4.29,4.29,0,0,1-.51-2.12,3.92,3.92,0,0,1,1.09-2.9,3.77,3.77,0,0,1,2.77-1.09,3.81,3.81,0,0,1,2.79,1.09,4,4,0,0,1,1.08,2.9,3.91,3.91,0,0,1-1.09,2.9A3.75,3.75,0,0,1,364.36,200.77Zm0-1.12a2.36,2.36,0,0,0,1.81-.79,3,3,0,0,0,.73-2.08,2.94,2.94,0,0,0-.73-2.07,2.33,2.33,0,0,0-1.81-.79,2.29,2.29,0,0,0-1.8.79,2.93,2.93,0,0,0-.72,2.07,3,3,0,0,0,.72,2.08A2.33,2.33,0,0,0,364.36,199.65Zm-.51-8,2-2.54.72.52-1.75,2Z"/>
      <path d="M374,192.79a2.7,2.7,0,0,1,1.94.7,2.6,2.6,0,0,1,.72,2v5.17h-1.35v-4.86a1.84,1.84,0,0,0-.47-1.38,1.65,1.65,0,0,0-1.2-.45,1.86,1.86,0,0,0-1.37.53,2.11,2.11,0,0,0-.54,1.57v4.59h-1.35v-7.68h1.35v1A2.56,2.56,0,0,1,374,192.79Z"/>
      <path d="M337.11,220a5.93,5.93,0,0,1-2.17-.39,5.62,5.62,0,0,1-1.74-1.11,5,5,0,0,1-1.15-1.79,6.84,6.84,0,0,1,0-4.72,5.09,5.09,0,0,1,1.16-1.79,5.46,5.46,0,0,1,1.73-1.11,5.93,5.93,0,0,1,2.17-.39,5.55,5.55,0,0,1,2.92.78A4.82,4.82,0,0,1,342,211.6l-1.29.53a3.71,3.71,0,0,0-1.44-1.57,4.12,4.12,0,0,0-2.13-.55,4.47,4.47,0,0,0-1.61.29,3.81,3.81,0,0,0-1.29.83,3.7,3.7,0,0,0-.87,1.36,5,5,0,0,0-.32,1.82,5.11,5.11,0,0,0,.32,1.84,3.7,3.7,0,0,0,.87,1.36,3.81,3.81,0,0,0,1.29.83,4.27,4.27,0,0,0,1.61.29,4.12,4.12,0,0,0,2.13-.55,3.66,3.66,0,0,0,1.44-1.55l1.29.52A4.8,4.8,0,0,1,340,219.2,5.65,5.65,0,0,1,337.11,220Z"/>
      <path d="M347.25,220a4,4,0,0,1-2-.48,3.38,3.38,0,0,1-1.39-1.39,4.29,4.29,0,0,1-.51-2.12,3.92,3.92,0,0,1,1.09-2.9,4.09,4.09,0,0,1,5.56,0,4,4,0,0,1,1.08,2.9,3.91,3.91,0,0,1-1.09,2.9A3.73,3.73,0,0,1,347.25,220Zm0-1.12a2.4,2.4,0,0,0,1.82-.79,3,3,0,0,0,.72-2.08,2.93,2.93,0,0,0-.72-2.07,2.36,2.36,0,0,0-1.82-.79,2.29,2.29,0,0,0-1.8.79,2.93,2.93,0,0,0-.72,2.07,3,3,0,0,0,.72,2.08A2.33,2.33,0,0,0,347.24,218.85Z"/>
      <path d="M354.55,213.49a2.34,2.34,0,0,1,.95-1,2.91,2.91,0,0,1,1.48-.4v1.27a2.5,2.5,0,0,0-1.78.57,2.38,2.38,0,0,0-.62,1.82v4.1h-1.35v-7.68h1.32Z"/>
      <path d="M360.25,220a2.57,2.57,0,0,1-1.69-.53,1.88,1.88,0,0,1-.66-1.57,2.2,2.2,0,0,1,.21-1,1.7,1.7,0,0,1,.63-.7,3.58,3.58,0,0,1,.9-.44,8.52,8.52,0,0,1,1.17-.27l1.24-.21c.45-.08.68-.32.68-.71a1.33,1.33,0,0,0-.48-1.14A1.9,1.9,0,0,0,361,213a2.06,2.06,0,0,0-1.21.35,1.51,1.51,0,0,0-.57,1.08l-1.22-.25a2.4,2.4,0,0,1,1-1.65,3.6,3.6,0,0,1,2.1-.55,4.27,4.27,0,0,1,1.11.14,2.82,2.82,0,0,1,.93.43,1.89,1.89,0,0,1,.67.82,3.27,3.27,0,0,1,.23,1.27v3.17a1.29,1.29,0,0,0,.18.8.75.75,0,0,0,.6.21H365v1h-.67a1.29,1.29,0,0,1-1.46-1h-.06A2.91,2.91,0,0,1,360.25,220Zm.31-1.09a2.05,2.05,0,0,0,1.65-.75,3.08,3.08,0,0,0,.62-2l-2,.39a2.68,2.68,0,0,0-1.19.43,1,1,0,0,0-.39.84,1,1,0,0,0,.37.84A1.55,1.55,0,0,0,360.56,218.88Z"/>
      <path d="M365.09,223.42v-1.15a2.24,2.24,0,0,0,1.1-.22,1.21,1.21,0,0,0,.52-.75,6.28,6.28,0,0,0,.15-1.59v-7.57h1.36v7.57a4.43,4.43,0,0,1-.71,2.87A3,3,0,0,1,365.09,223.42Zm2.46-13.08a.87.87,0,0,1-.64-.27.89.89,0,0,1-.27-.65.87.87,0,0,1,.27-.64.92.92,0,0,1,1.28,0,.87.87,0,0,1,.27.64.89.89,0,0,1-.27.65A.87.87,0,0,1,367.55,210.34Z"/>
      <path d="M377.7,215.83l0,.37h-6a2.69,2.69,0,0,0,.74,2,2.4,2.4,0,0,0,1.75.69,2.33,2.33,0,0,0,1.27-.37,2.44,2.44,0,0,0,.88-1l1.22.26a3.48,3.48,0,0,1-1.32,1.65,3.59,3.59,0,0,1-2,.6,3.71,3.71,0,0,1-2.76-1.07,4.55,4.55,0,0,1,0-5.84,3.7,3.7,0,0,1,2.73-1.07,3.46,3.46,0,0,1,2.58,1A3.88,3.88,0,0,1,377.7,215.83Zm-3.55-2.8a2.36,2.36,0,0,0-1.6.55,2.49,2.49,0,0,0-.81,1.58h4.6a2.29,2.29,0,0,0-.67-1.58A2.15,2.15,0,0,0,374.15,213Z"/>
      <path d="M339.46,239l-.95-2.63h-5L332.6,239h-1.46l4.05-11h1.67l4.06,11ZM334,235.15h4.09l-2-5.72Z"/>
      <path d="M345.22,239a2,2,0,0,1-1.5-.55,2.07,2.07,0,0,1-.55-1.53v-4.52H341.6v-1.08h.58a1.08,1.08,0,0,0,.84-.27,1.29,1.29,0,0,0,.25-.9v-1.39h1.26v2.56h1.76v1.08h-1.76v4.38a1.17,1.17,0,0,0,.29.84,1,1,0,0,0,.77.3h.7V239Z"/>
      <path d="M354.87,235v.37h-6a2.69,2.69,0,0,0,.73,2,2.4,2.4,0,0,0,1.75.69,2.33,2.33,0,0,0,1.27-.37,2.37,2.37,0,0,0,.88-1l1.22.26a3.53,3.53,0,0,1-1.31,1.65,3.59,3.59,0,0,1-2,.6,3.73,3.73,0,0,1-2.77-1.07,4.59,4.59,0,0,1,0-5.84,3.7,3.7,0,0,1,2.73-1.07,3.46,3.46,0,0,1,2.58,1A3.88,3.88,0,0,1,354.87,235Zm-3.55-2.8a2.36,2.36,0,0,0-1.6.55,2.49,2.49,0,0,0-.81,1.58h4.6a2.25,2.25,0,0,0-.67-1.58A2.14,2.14,0,0,0,351.32,232.23Z"/>
      <path d="M360.61,231.19a2.7,2.7,0,0,1,1.94.7,2.6,2.6,0,0,1,.72,2V239h-1.35v-4.87a1.83,1.83,0,0,0-.47-1.37,1.65,1.65,0,0,0-1.2-.45,1.86,1.86,0,0,0-1.37.53,2.19,2.19,0,0,0-.54,1.57V239H357v-7.68h1.35v1A2.56,2.56,0,0,1,360.61,231.19Z"/>
      <path d="M369.07,239.16a3.67,3.67,0,0,1-2.75-1.1,4.36,4.36,0,0,1,0-5.76,3.68,3.68,0,0,1,2.76-1.11,3.72,3.72,0,0,1,2.22.68,3.33,3.33,0,0,1,1.29,1.86l-1.26.21a2.3,2.3,0,0,0-2.26-1.62,2.27,2.27,0,0,0-1.78.79,3.4,3.4,0,0,0,0,4.13,2.27,2.27,0,0,0,1.78.79,2.3,2.3,0,0,0,2.26-1.62l1.26.21a3.37,3.37,0,0,1-1.3,1.87A3.71,3.71,0,0,1,369.07,239.16Z"/>
      <path d="M375.26,229.54a.87.87,0,0,1-.64-.27.89.89,0,0,1-.27-.65.87.87,0,0,1,.27-.64.92.92,0,0,1,1.28,0,.87.87,0,0,1,.27.64.89.89,0,0,1-.27.65A.87.87,0,0,1,375.26,229.54Zm-.69,9.48v-7.68h1.36V239Z"/>
      <path d="M381.92,239.17a4,4,0,0,1-2-.48,3.44,3.44,0,0,1-1.39-1.39,4.29,4.29,0,0,1-.51-2.12,3.92,3.92,0,0,1,1.09-2.9,4.09,4.09,0,0,1,5.56,0,4.4,4.4,0,0,1,0,5.8A3.77,3.77,0,0,1,381.92,239.17Zm0-1.12a2.38,2.38,0,0,0,1.82-.79,3,3,0,0,0,.72-2.08,2.93,2.93,0,0,0-.72-2.07,2.35,2.35,0,0,0-1.82-.79,2.32,2.32,0,0,0-1.8.79,2.93,2.93,0,0,0-.71,2.07,3,3,0,0,0,.71,2.08A2.36,2.36,0,0,0,381.91,238.05Zm-.51-8,2-2.54.72.52-1.75,2Z"/>
      <path d="M391.53,231.19a2.67,2.67,0,0,1,1.93.7,2.6,2.6,0,0,1,.72,2V239h-1.35v-4.87a1.79,1.79,0,0,0-.47-1.37,1.65,1.65,0,0,0-1.2-.45,1.88,1.88,0,0,0-1.37.53,2.19,2.19,0,0,0-.54,1.57V239H387.9v-7.68h1.35v1A2.56,2.56,0,0,1,391.53,231.19Z"/>
    </g>
  </g>
</svg>
