<svg id="Layer_1" data-name="Layer 1" xmlns="http://www.w3.org/2000/svg" width="563.56" height="300.44" viewBox="0 0 563.56 300.44">
  <defs>
    <style>
      .cls-1 {
        fill: #754c24;
      }

      .cls-2 {
        fill: #f2f2f2;
      }

      .cls-3 {
        opacity: 0.75;
      }

      .cls-4 {
        opacity: 0.5;
      }

      .cls-5 {
        opacity: 0.25;
      }
    </style>
  </defs>
  <g>
    <rect class="cls-1" width="281.78" height="228.44"/>
    <rect class="cls-2" x="281.78" width="281.78" height="300.44"/>
    <rect class="cls-1" y="228.44" width="70.44" height="72"/>
    <g class="cls-3">
      <rect class="cls-1" x="70.44" y="228.44" width="70.44" height="72"/>
    </g>
    <g class="cls-4">
      <rect class="cls-1" x="140.89" y="228.44" width="70.44" height="72"/>
    </g>
    <g class="cls-5">
      <rect class="cls-1" x="211.33" y="228.44" width="70.44" height="72"/>
    </g>
    <g>
      <path d="M360.42,124.4h-5.55l-1.76-20.2-6.79,20.2h-3.6l-6.79-20.2-1.78,20.2h-5.57l2.25-26.81h7.94l5.71,16.83,5.79-16.83h7.94Z"/>
      <path d="M381.07,119.23a17.72,17.72,0,0,0,.47,4.65v.52h-5l-.43-2.08a6.19,6.19,0,0,1-2.67,1.84,9.87,9.87,0,0,1-3.45.61,9.24,9.24,0,0,1-1.79-.16,5.89,5.89,0,0,1-1.6-.57,5,5,0,0,1-1.33-1,4.38,4.38,0,0,1-.89-1.51,6.16,6.16,0,0,1-.33-2.07,5.62,5.62,0,0,1,.35-2.07,4.67,4.67,0,0,1,.93-1.55,5.46,5.46,0,0,1,1.5-1.13,11.14,11.14,0,0,1,1.89-.82,21.65,21.65,0,0,1,2.27-.59l3.13-.71a3.47,3.47,0,0,0,1.42-.6,1.2,1.2,0,0,0,.42-1,2,2,0,0,0-.94-1.83,4.37,4.37,0,0,0-2.27-.56q-3.28,0-3.73,2.91l-4.73-.85a6.39,6.39,0,0,1,2.76-4.35,11,11,0,0,1,6-1.4q8,0,8,6.88Zm-9.4,1.93a4.33,4.33,0,0,0,3.3-1.39,5.83,5.83,0,0,0,1.28-4.09L371.72,117a5.4,5.4,0,0,0-1.9.78,1.6,1.6,0,0,0-.66,1.37,1.77,1.77,0,0,0,.71,1.52A2.91,2.91,0,0,0,371.67,121.16Z"/>
      <path d="M391.39,108.35a6.23,6.23,0,0,1,2.5-2.29,7.64,7.64,0,0,1,3.73-1v4.76a7.26,7.26,0,0,0-4.56,1.15c-.94.77-1.41,2.13-1.41,4.09v9.29h-5.38V105.33h5.12Z"/>
      <path d="M405.88,108.35a6.23,6.23,0,0,1,2.5-2.29,7.64,7.64,0,0,1,3.73-1v4.76a7.26,7.26,0,0,0-4.56,1.15c-.94.77-1.41,2.13-1.41,4.09v9.29h-5.38V105.33h5.12Z"/>
      <path d="M424,124.77a12,12,0,0,1-5.4-1.17,8.71,8.71,0,0,1-3.71-3.43,10.28,10.28,0,0,1-1.34-5.32,9.36,9.36,0,0,1,2.89-7.24,12.12,12.12,0,0,1,15.13,0,10.54,10.54,0,0,1,0,14.5A10.73,10.73,0,0,1,424,124.77Zm-.06-4.25a4.9,4.9,0,0,0,3.78-1.55,6.65,6.65,0,0,0,0-8.24,4.9,4.9,0,0,0-3.78-1.56,4.68,4.68,0,0,0-3.66,1.57,6.66,6.66,0,0,0,0,8.22A4.7,4.7,0,0,0,424,120.52Zm-1.59-17.79,4.86-6.83,2.63,1.86-4.21,5Z"/>
      <path d="M449.72,105a7.44,7.44,0,0,1,5.27,1.71,6.36,6.36,0,0,1,1.84,4.89V124.4h-5.36V112.71a3.29,3.29,0,0,0-1-2.63,3.56,3.56,0,0,0-2.46-.84,5,5,0,0,0-1.59.24,4.37,4.37,0,0,0-1.34.76,3.33,3.33,0,0,0-.95,1.43,6.6,6.6,0,0,0-.36,2.21V124.4h-5.35V105.33h5.35v2.11A7.36,7.36,0,0,1,449.72,105Z"/>
    </g>
    <g>
      <path d="M338.29,152.5h-4.46v3.6h3.93v1.25h-3.93V161h4.46v1.27H332.4v-11h5.89Z"/>
      <path d="M343.05,162.37a3.63,3.63,0,0,1-2.07-.55,2.31,2.31,0,0,1-1-1.58l1.18-.34a1.7,1.7,0,0,0,.63,1.07,2.07,2.07,0,0,0,1.26.38,2.82,2.82,0,0,0,.74-.1,1.28,1.28,0,0,0,.57-.38,1,1,0,0,0,.23-.7,1.07,1.07,0,0,0-.07-.32,1.45,1.45,0,0,0-.12-.25.64.64,0,0,0-.22-.21,2.29,2.29,0,0,0-.27-.17,2.08,2.08,0,0,0-.34-.14l-.38-.13-.42-.12-.45-.13c-.32-.1-.59-.19-.8-.28a3.66,3.66,0,0,1-.65-.37,1.49,1.49,0,0,1-.5-.61,2.06,2.06,0,0,1-.17-.86,2,2,0,0,1,.38-1.23,2.12,2.12,0,0,1,1-.72,3.84,3.84,0,0,1,1.36-.22,3.34,3.34,0,0,1,1.87.5,2.14,2.14,0,0,1,.94,1.5l-1.11.28a1.47,1.47,0,0,0-.59-1,1.82,1.82,0,0,0-1.1-.33,1.91,1.91,0,0,0-1,.27.91.91,0,0,0-.43.83.85.85,0,0,0,.11.42,1.65,1.65,0,0,0,.23.3,1.26,1.26,0,0,0,.43.23,3.6,3.6,0,0,0,.45.17l.56.14.12,0,.74.21a5.36,5.36,0,0,1,.66.28,2.43,2.43,0,0,1,.6.42,2,2,0,0,1,.37.59,2,2,0,0,1,.16.83,2.31,2.31,0,0,1-.23,1,1.71,1.71,0,0,1-.63.7,2.65,2.65,0,0,1-.89.39A4.1,4.1,0,0,1,343.05,162.37Z"/>
      <path d="M350.46,162.22a2,2,0,0,1-1.5-.55,2.07,2.07,0,0,1-.55-1.53v-4.52h-1.57v-1.08h.58a1.13,1.13,0,0,0,.85-.27,1.35,1.35,0,0,0,.24-.9V152h1.26v2.56h1.77v1.08h-1.77V160a1.17,1.17,0,0,0,.29.84,1,1,0,0,0,.77.3h.71v1.08Z"/>
      <path d="M355.17,162.37a2.6,2.6,0,0,1-1.68-.53,1.88,1.88,0,0,1-.66-1.57,2.28,2.28,0,0,1,.21-1,1.71,1.71,0,0,1,.62-.69,3.76,3.76,0,0,1,.9-.44,10.14,10.14,0,0,1,1.17-.28l1.24-.2c.46-.08.68-.32.68-.71a1.33,1.33,0,0,0-.48-1.14,1.9,1.9,0,0,0-1.21-.37,2,2,0,0,0-1.2.35,1.49,1.49,0,0,0-.58,1.08L353,156.6a2.33,2.33,0,0,1,1-1.64,3.54,3.54,0,0,1,2.09-.55,4.21,4.21,0,0,1,1.11.14,2.82,2.82,0,0,1,.93.43,1.89,1.89,0,0,1,.67.82,3.09,3.09,0,0,1,.24,1.27v3.17a1.3,1.3,0,0,0,.17.8.76.76,0,0,0,.61.21h.12v1h-.67a1.27,1.27,0,0,1-1.45-1h-.07A2.93,2.93,0,0,1,355.17,162.37Zm.31-1.09a2.05,2.05,0,0,0,1.65-.75,3,3,0,0,0,.63-2l-2,.39a2.73,2.73,0,0,0-1.19.43,1,1,0,0,0-.38.84,1,1,0,0,0,.37.84A1.52,1.52,0,0,0,355.48,161.28Z"/>
      <path d="M365.85,154.39a3.36,3.36,0,0,1,2.54,1.11,4.07,4.07,0,0,1,1,2.89,4.12,4.12,0,0,1-1,2.89,3.35,3.35,0,0,1-2.55,1.11,3.06,3.06,0,0,1-1.64-.45,2.86,2.86,0,0,1-1.1-1.21l0,1.49h-1.3v-12h1.34V156a2.84,2.84,0,0,1,1.1-1.18A3.07,3.07,0,0,1,365.85,154.39Zm-.3,6.82a2.38,2.38,0,0,0,1.8-.78,3.23,3.23,0,0,0,0-4.09,2.38,2.38,0,0,0-1.8-.78,2.31,2.31,0,0,0-1.78.81,3.16,3.16,0,0,0,0,4A2.31,2.31,0,0,0,365.55,161.21Z"/>
      <path d="M371.55,162.22v-12h1.37v12Z"/>
      <path d="M382.39,158.23l0,.37h-6a2.69,2.69,0,0,0,.74,2,2.4,2.4,0,0,0,1.75.69,2.33,2.33,0,0,0,1.27-.37,2.44,2.44,0,0,0,.88-1l1.21.26a3.41,3.41,0,0,1-1.31,1.65,3.59,3.59,0,0,1-2,.6,3.71,3.71,0,0,1-2.76-1.07,4.55,4.55,0,0,1,0-5.84,3.68,3.68,0,0,1,2.72-1.07,3.47,3.47,0,0,1,2.59,1A3.92,3.92,0,0,1,382.39,158.23Zm-3.56-2.8a2.35,2.35,0,0,0-1.59.55,2.49,2.49,0,0,0-.81,1.58H381a2.29,2.29,0,0,0-.67-1.58A2.16,2.16,0,0,0,378.83,155.43Z"/>
      <path d="M339.37,170.42h1.4v11h-1.4v-4.88H333.8v4.88h-1.4v-11h1.4v4.86h5.57Z"/>
      <path d="M347,181.57a4,4,0,0,1-2-.48,3.38,3.38,0,0,1-1.39-1.39,4.29,4.29,0,0,1-.51-2.12,3.92,3.92,0,0,1,1.09-2.9,4.09,4.09,0,0,1,5.56,0,4,4,0,0,1,1.08,2.9,3.91,3.91,0,0,1-1.09,2.9A3.73,3.73,0,0,1,347,181.57Zm0-1.12a2.4,2.4,0,0,0,1.82-.79,3,3,0,0,0,.72-2.08,2.93,2.93,0,0,0-.72-2.07,2.36,2.36,0,0,0-1.82-.79,2.31,2.31,0,0,0-1.8.79,2.93,2.93,0,0,0-.72,2.07,3,3,0,0,0,.72,2.08A2.34,2.34,0,0,0,347,180.45Z"/>
      <path d="M356.61,173.59a2.69,2.69,0,0,1,1.93.7,2.6,2.6,0,0,1,.72,2v5.17h-1.35v-4.87a1.79,1.79,0,0,0-.47-1.37,1.65,1.65,0,0,0-1.2-.45,1.88,1.88,0,0,0-1.37.53,2.19,2.19,0,0,0-.54,1.57v4.59H353v-7.68h1.35v1A2.56,2.56,0,0,1,356.61,173.59Z"/>
      <path d="M368.59,177.43v.37h-6a2.69,2.69,0,0,0,.73,2,2.4,2.4,0,0,0,1.75.69,2.33,2.33,0,0,0,1.27-.37,2.37,2.37,0,0,0,.88-1l1.22.26a3.48,3.48,0,0,1-1.32,1.65,3.56,3.56,0,0,1-2,.6,3.71,3.71,0,0,1-2.77-1.07,4.59,4.59,0,0,1,0-5.84,3.7,3.7,0,0,1,2.73-1.07,3.46,3.46,0,0,1,2.58,1A3.88,3.88,0,0,1,368.59,177.43Zm-3.55-2.8a2.36,2.36,0,0,0-1.6.55,2.49,2.49,0,0,0-.81,1.58h4.6a2.25,2.25,0,0,0-.67-1.58A2.14,2.14,0,0,0,365,174.63Z"/>
      <path d="M373.14,181.57a3.63,3.63,0,0,1-2.07-.55,2.28,2.28,0,0,1-1-1.58l1.18-.34a1.62,1.62,0,0,0,.63,1.07,2,2,0,0,0,1.26.38,2.82,2.82,0,0,0,.74-.1,1.2,1.2,0,0,0,.56-.38,1,1,0,0,0,.23-.7,1.07,1.07,0,0,0-.06-.32,1.46,1.46,0,0,0-.13-.25.6.6,0,0,0-.21-.21,2.29,2.29,0,0,0-.27-.17,2.27,2.27,0,0,0-.35-.14l-.37-.13-.43-.12-.44-.13a7.85,7.85,0,0,1-.8-.28,3.34,3.34,0,0,1-.65-.37,1.49,1.49,0,0,1-.5-.61,1.91,1.91,0,0,1-.17-.86,2,2,0,0,1,.37-1.23,2.15,2.15,0,0,1,1-.72,3.8,3.8,0,0,1,1.36-.22,3.36,3.36,0,0,1,1.87.5,2.1,2.1,0,0,1,.93,1.5l-1.11.28a1.43,1.43,0,0,0-.58-1,1.86,1.86,0,0,0-1.1-.33,1.88,1.88,0,0,0-1,.27.91.91,0,0,0-.43.83.76.76,0,0,0,.11.42,1.07,1.07,0,0,0,.23.3,1.3,1.3,0,0,0,.42.23,4.26,4.26,0,0,0,.46.17l.56.14.11,0,.74.21a6.15,6.15,0,0,1,.67.28,2.18,2.18,0,0,1,.59.42,1.82,1.82,0,0,1,.38.59,2.23,2.23,0,0,1,.16.83,2.31,2.31,0,0,1-.23,1,1.86,1.86,0,0,1-.63.7,2.8,2.8,0,0,1-.9.39A4.08,4.08,0,0,1,373.14,181.57Z"/>
      <path d="M380.54,181.42a2,2,0,0,1-1.5-.55,2.1,2.1,0,0,1-.54-1.53v-4.52h-1.57v-1.08h.58a1.08,1.08,0,0,0,.84-.27,1.29,1.29,0,0,0,.25-.9v-1.39h1.26v2.56h1.76v1.08h-1.76v4.38a1.13,1.13,0,0,0,.29.84,1,1,0,0,0,.77.3h.7v1.08Z"/>
      <path d="M386.72,181.57a4,4,0,0,1-2-.48,3.38,3.38,0,0,1-1.39-1.39,4.29,4.29,0,0,1-.51-2.12,3.92,3.92,0,0,1,1.09-2.9,4.09,4.09,0,0,1,5.56,0,4,4,0,0,1,1.08,2.9,3.91,3.91,0,0,1-1.09,2.9A3.73,3.73,0,0,1,386.72,181.57Zm0-1.12a2.36,2.36,0,0,0,1.81-.79,2.93,2.93,0,0,0,.73-2.08,2.89,2.89,0,0,0-.73-2.07,2.33,2.33,0,0,0-1.81-.79,2.29,2.29,0,0,0-1.8.79,2.93,2.93,0,0,0-.72,2.07,3,3,0,0,0,.72,2.08A2.33,2.33,0,0,0,386.71,180.45Z"/>
      <path d="M337.11,200.77a5.93,5.93,0,0,1-2.17-.39,5.62,5.62,0,0,1-1.74-1.11,5,5,0,0,1-1.15-1.79,6.84,6.84,0,0,1,0-4.72,5.09,5.09,0,0,1,1.16-1.79,5.29,5.29,0,0,1,1.73-1.11,5.93,5.93,0,0,1,2.17-.39,5.55,5.55,0,0,1,2.92.78A4.82,4.82,0,0,1,342,192.4l-1.29.53a3.71,3.71,0,0,0-1.44-1.57,4.12,4.12,0,0,0-2.13-.55,4.38,4.38,0,0,0-1.6.29,3.76,3.76,0,0,0-1.3.83,3.7,3.7,0,0,0-.87,1.36,5,5,0,0,0-.32,1.82,5.11,5.11,0,0,0,.32,1.84,3.7,3.7,0,0,0,.87,1.36,3.76,3.76,0,0,0,1.3.83,4.18,4.18,0,0,0,1.6.29,4.12,4.12,0,0,0,2.13-.55,3.66,3.66,0,0,0,1.44-1.55l1.29.52A4.8,4.8,0,0,1,340,200,5.65,5.65,0,0,1,337.11,200.77Z"/>
      <path d="M345.79,200.77a2.63,2.63,0,0,1-1.69-.53,1.88,1.88,0,0,1-.66-1.57,2.2,2.2,0,0,1,.21-1,1.7,1.7,0,0,1,.63-.7,3.42,3.42,0,0,1,.9-.44,8.52,8.52,0,0,1,1.17-.27l1.24-.21c.45-.08.68-.32.68-.71a1.33,1.33,0,0,0-.48-1.14,1.92,1.92,0,0,0-1.21-.37,2,2,0,0,0-1.21.35,1.51,1.51,0,0,0-.57,1.08l-1.22-.25a2.4,2.4,0,0,1,1-1.65,3.6,3.6,0,0,1,2.1-.55,4.27,4.27,0,0,1,1.11.14,2.82,2.82,0,0,1,.93.43,1.87,1.87,0,0,1,.66.82,3.09,3.09,0,0,1,.24,1.27v3.17a1.29,1.29,0,0,0,.18.8.75.75,0,0,0,.6.21h.13v1h-.67a1.29,1.29,0,0,1-1.46-1h-.06A2.91,2.91,0,0,1,345.79,200.77Zm.31-1.09a2.05,2.05,0,0,0,1.65-.75,3.08,3.08,0,0,0,.62-2l-2,.39a2.68,2.68,0,0,0-1.19.43,1,1,0,0,0-.39.84,1,1,0,0,0,.37.84A1.55,1.55,0,0,0,346.1,199.68Z"/>
      <path d="M352.4,200.62v-12h1.36v12Z"/>
      <path d="M357.2,191.14a.87.87,0,0,1-.64-.27.89.89,0,0,1-.27-.65.87.87,0,0,1,.27-.64.9.9,0,0,1,.64-.26.92.92,0,0,1,.64.26.87.87,0,0,1,.27.64.92.92,0,0,1-.91.92Zm-.69,9.48v-7.68h1.36v7.68Z"/>
      <path d="M366.29,188.62h1.36v12h-1.31l0-1.49a2.9,2.9,0,0,1-1.09,1.21,3.05,3.05,0,0,1-1.63.45,3.46,3.46,0,0,1-1.39-.29,3.27,3.27,0,0,1-1.14-.8,3.59,3.59,0,0,1-.78-1.27,4.59,4.59,0,0,1-.28-1.64,4,4,0,0,1,1-2.89,3.38,3.38,0,0,1,2.55-1.11,3.09,3.09,0,0,1,1.61.44,2.86,2.86,0,0,1,1.09,1.17Zm-2.42,11a2.34,2.34,0,0,0,1.79-.8,2.94,2.94,0,0,0,.72-2,2.88,2.88,0,0,0-.73-2,2.28,2.28,0,0,0-1.78-.81,2.34,2.34,0,0,0-1.79.78,2.89,2.89,0,0,0-.73,2,2.85,2.85,0,0,0,.73,2A2.34,2.34,0,0,0,363.87,199.61Z"/>
      <path d="M373.63,200.77a4,4,0,0,1-2-.48,3.51,3.51,0,0,1-1.39-1.39,4.29,4.29,0,0,1-.51-2.12,4,4,0,0,1,1.09-2.9,4.09,4.09,0,0,1,5.56,0,4.4,4.4,0,0,1,0,5.8A3.75,3.75,0,0,1,373.63,200.77Zm0-1.12a2.38,2.38,0,0,0,1.82-.79,3,3,0,0,0,.72-2.08,2.93,2.93,0,0,0-.72-2.07,2.35,2.35,0,0,0-1.82-.79,2.32,2.32,0,0,0-1.8.79,2.93,2.93,0,0,0-.71,2.07,3,3,0,0,0,.71,2.08A2.36,2.36,0,0,0,373.62,199.65Z"/>
      <path d="M337.11,220a5.93,5.93,0,0,1-2.17-.39,5.62,5.62,0,0,1-1.74-1.11,5,5,0,0,1-1.15-1.79,6.84,6.84,0,0,1,0-4.72,5.09,5.09,0,0,1,1.16-1.79,5.29,5.29,0,0,1,1.73-1.11,5.93,5.93,0,0,1,2.17-.39,5.55,5.55,0,0,1,2.92.78A4.82,4.82,0,0,1,342,211.6l-1.29.53a3.71,3.71,0,0,0-1.44-1.57,4.12,4.12,0,0,0-2.13-.55,4.38,4.38,0,0,0-1.6.29,3.76,3.76,0,0,0-1.3.83,3.7,3.7,0,0,0-.87,1.36,5,5,0,0,0-.32,1.82,5.11,5.11,0,0,0,.32,1.84,3.7,3.7,0,0,0,.87,1.36,3.76,3.76,0,0,0,1.3.83,4.18,4.18,0,0,0,1.6.29,4.12,4.12,0,0,0,2.13-.55,3.66,3.66,0,0,0,1.44-1.55l1.29.52A4.8,4.8,0,0,1,340,219.2,5.65,5.65,0,0,1,337.11,220Z"/>
      <path d="M347.25,220a4,4,0,0,1-2-.48,3.38,3.38,0,0,1-1.39-1.39,4.29,4.29,0,0,1-.51-2.12,3.92,3.92,0,0,1,1.09-2.9,4.09,4.09,0,0,1,5.56,0,4,4,0,0,1,1.08,2.9,3.91,3.91,0,0,1-1.09,2.9A3.73,3.73,0,0,1,347.25,220Zm0-1.12a2.4,2.4,0,0,0,1.82-.79,3,3,0,0,0,.72-2.08,2.93,2.93,0,0,0-.72-2.07,2.36,2.36,0,0,0-1.82-.79,2.31,2.31,0,0,0-1.8.79,2.93,2.93,0,0,0-.72,2.07,3,3,0,0,0,.72,2.08A2.34,2.34,0,0,0,347.24,218.85Z"/>
      <path d="M356.86,212a2.69,2.69,0,0,1,1.93.7,2.6,2.6,0,0,1,.72,2v5.17h-1.35V215a1.8,1.8,0,0,0-.47-1.38,1.65,1.65,0,0,0-1.2-.45,1.88,1.88,0,0,0-1.37.53,2.19,2.19,0,0,0-.54,1.57v4.59h-1.35v-7.68h1.35v1A2.56,2.56,0,0,1,356.86,212Z"/>
      <path d="M365.65,209h-.58a1.31,1.31,0,0,0-.28,0l-.24.08a.56.56,0,0,0-.23.13,1.9,1.9,0,0,0-.18.2.69.69,0,0,0-.15.28,1.77,1.77,0,0,0-.09.38,3.32,3.32,0,0,0,0,.48v1.58h1.79v1.08h-1.79v6.6h-1.34v-6.6H361v-1.08h1.48v-1.61a4.74,4.74,0,0,1,.08-.89,3.4,3.4,0,0,1,.22-.68,1.72,1.72,0,0,1,.36-.49,2.93,2.93,0,0,1,.48-.33,2.08,2.08,0,0,1,.58-.19,5,5,0,0,1,.66-.1c.22,0,.46,0,.75,0Z"/>
      <path d="M370.35,220a4,4,0,0,1-2-.48A3.44,3.44,0,0,1,367,218.1a4.29,4.29,0,0,1-.51-2.12,3.92,3.92,0,0,1,1.09-2.9,4.09,4.09,0,0,1,5.56,0,4.4,4.4,0,0,1,0,5.8A3.77,3.77,0,0,1,370.35,220Zm0-1.12a2.4,2.4,0,0,0,1.82-.79,3,3,0,0,0,.72-2.08,2.93,2.93,0,0,0-.72-2.07,2.36,2.36,0,0,0-1.82-.79,2.32,2.32,0,0,0-1.8.79,2.93,2.93,0,0,0-.71,2.07,3,3,0,0,0,.71,2.08A2.36,2.36,0,0,0,370.34,218.85Z"/>
      <path d="M377.65,213.49a2.37,2.37,0,0,1,1-1,2.84,2.84,0,0,1,1.47-.4v1.27a2.52,2.52,0,0,0-1.78.57,2.38,2.38,0,0,0-.62,1.82v4.1h-1.35v-7.68h1.32Z"/>
      <path d="M384.57,219.82a2,2,0,0,1-1.5-.55,2.07,2.07,0,0,1-.55-1.53v-4.52H381v-1.08h.58a1.13,1.13,0,0,0,.85-.27,1.35,1.35,0,0,0,.24-.9v-1.39h1.26v2.56h1.77v1.08h-1.77v4.38a1.17,1.17,0,0,0,.29.84,1,1,0,0,0,.77.3h.71v1.08Z"/>
      <path d="M389.28,220a2.59,2.59,0,0,1-1.69-.53,1.88,1.88,0,0,1-.66-1.57,2.2,2.2,0,0,1,.22-1,1.67,1.67,0,0,1,.62-.7,3.76,3.76,0,0,1,.9-.44,8.52,8.52,0,0,1,1.17-.27l1.24-.21c.46-.08.68-.32.68-.71a1.33,1.33,0,0,0-.48-1.14,1.9,1.9,0,0,0-1.21-.37,2.06,2.06,0,0,0-1.21.35,1.51,1.51,0,0,0-.57,1.08l-1.21-.25a2.33,2.33,0,0,1,1-1.65,3.54,3.54,0,0,1,2.09-.55,4.21,4.21,0,0,1,1.11.14,2.82,2.82,0,0,1,.93.43,1.89,1.89,0,0,1,.67.82,3.09,3.09,0,0,1,.24,1.27v3.17a1.3,1.3,0,0,0,.17.8.76.76,0,0,0,.61.21H394v1h-.67a1.27,1.27,0,0,1-1.45-1h-.07A2.91,2.91,0,0,1,389.28,220Zm.31-1.09a2.05,2.05,0,0,0,1.65-.75,3,3,0,0,0,.62-2l-2,.39a2.73,2.73,0,0,0-1.19.43,1,1,0,0,0-.38.84,1,1,0,0,0,.37.84A1.5,1.5,0,0,0,389.59,218.88Z"/>
      <path d="M400,212a3.36,3.36,0,0,1,2.54,1.11,4.07,4.07,0,0,1,1,2.89,4.12,4.12,0,0,1-1,2.89A3.35,3.35,0,0,1,400,220a3.06,3.06,0,0,1-1.64-.45,2.86,2.86,0,0,1-1.1-1.21l0,1.49h-1.3v-12h1.34v5.79a2.78,2.78,0,0,1,1.1-1.18A3.07,3.07,0,0,1,400,212Zm-.3,6.82a2.38,2.38,0,0,0,1.8-.78,2.89,2.89,0,0,0,.72-2,2.93,2.93,0,0,0-.72-2.05,2.38,2.38,0,0,0-1.8-.78,2.3,2.3,0,0,0-1.78.81,3.16,3.16,0,0,0,0,4A2.27,2.27,0,0,0,399.66,218.81Z"/>
      <path d="M405.66,219.82v-12H407v12Z"/>
      <path d="M416.5,215.83l0,.37h-6a2.69,2.69,0,0,0,.74,2,2.38,2.38,0,0,0,1.75.69,2.32,2.32,0,0,0,2.14-1.39l1.22.26a3.41,3.41,0,0,1-1.31,1.65,3.59,3.59,0,0,1-2,.6,3.71,3.71,0,0,1-2.76-1.07,4.55,4.55,0,0,1,0-5.84,3.66,3.66,0,0,1,2.72-1.07,3.44,3.44,0,0,1,2.58,1A3.88,3.88,0,0,1,416.5,215.83Zm-3.56-2.8a2.38,2.38,0,0,0-1.6.55,2.53,2.53,0,0,0-.8,1.58h4.6a2.29,2.29,0,0,0-.67-1.58A2.16,2.16,0,0,0,412.94,213Z"/>
      <path d="M339.79,228h1.39v11H339.7l-5.93-8.9V239H332.4V228h1.46l5.93,8.86Z"/>
      <path d="M350.89,235l0,.37h-6a2.69,2.69,0,0,0,.74,2,2.4,2.4,0,0,0,1.75.69,2.33,2.33,0,0,0,1.27-.37,2.5,2.5,0,0,0,.88-1l1.21.26a3.41,3.41,0,0,1-1.31,1.65,3.59,3.59,0,0,1-2,.6,3.71,3.71,0,0,1-2.76-1.07,4.55,4.55,0,0,1,0-5.84,3.68,3.68,0,0,1,2.72-1.07,3.47,3.47,0,0,1,2.59,1A3.92,3.92,0,0,1,350.89,235Zm-3.56-2.8a2.35,2.35,0,0,0-1.59.55,2.49,2.49,0,0,0-.81,1.58h4.6a2.29,2.29,0,0,0-.67-1.58A2.16,2.16,0,0,0,347.33,232.23Z"/>
      <path d="M357.79,231.34h1.35V239h-1.3l0-1a2.46,2.46,0,0,1-.95.86,3,3,0,0,1-1.35.3,2.65,2.65,0,0,1-1.93-.7,2.58,2.58,0,0,1-.72-2v-5.17h1.35v4.87a1.83,1.83,0,0,0,.47,1.37,1.66,1.66,0,0,0,1.21.46,1.85,1.85,0,0,0,1.36-.53,2.21,2.21,0,0,0,.54-1.57Z"/>
      <path d="M364.34,239a2,2,0,0,1-1.5-.55,2.11,2.11,0,0,1-.55-1.53v-4.52h-1.57v-1.08h.58a1.11,1.11,0,0,0,.85-.27,1.34,1.34,0,0,0,.25-.9v-1.39h1.25v2.56h1.77v1.08h-1.77v4.38a1.14,1.14,0,0,0,.3.84,1,1,0,0,0,.77.3h.7V239Z"/>
      <path d="M368.69,232.69a2.31,2.31,0,0,1,1-1,2.84,2.84,0,0,1,1.47-.4v1.27a2.52,2.52,0,0,0-1.78.57,2.38,2.38,0,0,0-.62,1.82V239h-1.35v-7.68h1.32Z"/>
      <path d="M374.39,239.17a2.65,2.65,0,0,1-1.69-.53,1.88,1.88,0,0,1-.66-1.57,2.15,2.15,0,0,1,.22-1,1.71,1.71,0,0,1,.62-.69,3.76,3.76,0,0,1,.9-.44,10.14,10.14,0,0,1,1.17-.28l1.24-.2c.46-.08.68-.32.68-.71a1.33,1.33,0,0,0-.48-1.14,1.9,1.9,0,0,0-1.21-.37,2.06,2.06,0,0,0-1.21.35,1.51,1.51,0,0,0-.57,1.08l-1.22-.26a2.38,2.38,0,0,1,1-1.64,3.54,3.54,0,0,1,2.09-.55,4.21,4.21,0,0,1,1.11.14,2.82,2.82,0,0,1,.93.43,1.89,1.89,0,0,1,.67.82,3.27,3.27,0,0,1,.23,1.27V237a1.29,1.29,0,0,0,.18.8.76.76,0,0,0,.61.21h.12v1h-.67a1.27,1.27,0,0,1-1.45-1h-.07A2.93,2.93,0,0,1,374.39,239.17Zm.31-1.09a2.05,2.05,0,0,0,1.65-.75,3.08,3.08,0,0,0,.62-2l-2,.39a2.73,2.73,0,0,0-1.19.43,1.11,1.11,0,0,0,0,1.68A1.5,1.5,0,0,0,374.7,238.08Z"/>
      <path d="M381,239V227h1.36v12Z"/>
    </g>
  </g>
</svg>
