<svg id="Layer_1" data-name="Layer 1" xmlns="http://www.w3.org/2000/svg" width="300" height="300" viewBox="0 0 300 300">
  <defs>
    <style>
      .cls-1 {
        fill: #b9d6d6;
      }

      .cls-2 {
        fill: #9cb4d8;
      }

      .cls-3 {
        fill: #6881ac;
      }

      .cls-4 {
        fill: #313444;
      }

      .cls-5 {
        fill: #3a5ce8;
      }

      .cls-6 {
        fill: #fff;
      }

      .cls-7 {
        opacity: 0.1;
      }
    </style>
  </defs>
  <g>
    <rect class="cls-1" x="55.91" y="30.19" width="188.18" height="188.18"/>
    <g>
      <g>
        <g>
          <g>
            <rect class="cls-2" x="114.37" y="141.87" width="71.27" height="20.79"/>
            <path class="cls-3" d="M103.53,100.29h92.95a0,0,0,0,1,0,0v36.8a10.65,10.65,0,0,1-10.65,10.65H114.18a10.65,10.65,0,0,1-10.65-10.65v-36.8a0,0,0,0,1,0,0Z"/>
            <polygon class="cls-2" points="191.94 93.58 108.06 93.58 103.53 100.28 196.47 100.28 191.94 93.58"/>
            <g>
              <path class="cls-4" d="M120.54,260.41h58.92V249.27H120.54Zm0-73.29v11.13h58.92V187.12Zm0,26.67h58.92V202.66H120.54Zm0,15.54h58.92V218.2H120.54Zm0,15.54h58.92V233.74H120.54Z"/>
              <path class="cls-3" d="M187.52,160.05h-75a9.69,9.69,0,0,0-9.69,9.69v69.31h10.89V179.48h72.64v59.57h10.89V169.74A9.69,9.69,0,0,0,187.52,160.05Z"/>
            </g>
          </g>
          <path class="cls-4" d="M164.14,121.91v18h3.4v-18Zm22.37,0h-3.4v18h3.4Zm-8.14,0v18h3.4v-18Zm-4.75,0v18H177v-18Zm-4.74,0v18h3.4v-18Z"/>
          <g>
            <path class="cls-4" d="M111.88,104.23A2.1,2.1,0,0,0,110.1,108Z"/>
            <path class="cls-4" d="M112.34,104.44l-1.79,3.77a2.1,2.1,0,0,0,1.79-3.77Z"/>
          </g>
          <g>
            <path class="cls-4" d="M190.67,104.23a2.1,2.1,0,0,0-1.78,3.76Z"/>
            <path class="cls-4" d="M191.13,104.44l-1.79,3.77a2.1,2.1,0,0,0,1.79-3.77Z"/>
          </g>
        </g>
        <g>
          <g>
            <g>
              <rect class="cls-4" x="74.32" y="120.19" width="15.01" height="45.18"/>
              <path class="cls-4" d="M95.88,215.86,89.33,192.2V169.12h-15V189.6l-10.67,9.14-7.74,28.14,5.64,3.84a9,9,0,0,0,9.28-7.34l.61-3.26a7.15,7.15,0,0,1,13.73-1.18l.13.35a5.57,5.57,0,0,0,10.58-3.43Z"/>
              <path class="cls-2" d="M92.61,142.23H64v-6.56a28.61,28.61,0,0,1,28.61-28.61h0Z"/>
              <polygon class="cls-3" points="100.58 103.31 92.61 107.06 92.61 142.23 100.58 142.23 100.58 103.31"/>
            </g>
            <rect class="cls-2" x="67.26" y="157.94" width="5.63" height="20.4"/>
            <rect class="cls-2" x="90.64" y="157.94" width="5.63" height="20.4"/>
          </g>
          <g>
            <g>
              <rect class="cls-4" x="210.67" y="120.19" width="15.01" height="45.18" transform="translate(436.36 285.56) rotate(180)"/>
              <path class="cls-4" d="M204.12,215.86l6.55-23.66V169.12h15V189.6l10.67,9.14,7.74,28.14-5.64,3.84a9,9,0,0,1-9.28-7.34l-.61-3.26a7.15,7.15,0,0,0-13.73-1.18l-.13.35a5.57,5.57,0,0,1-10.58-3.43Z"/>
              <path class="cls-2" d="M207.39,142.23H236v-6.56a28.61,28.61,0,0,0-28.61-28.61h0Z"/>
              <polygon class="cls-3" points="199.42 103.31 207.39 107.06 207.39 142.23 199.42 142.23 199.42 103.31"/>
            </g>
            <rect class="cls-2" x="227.12" y="157.94" width="5.63" height="20.4" transform="translate(459.86 336.28) rotate(180)"/>
            <rect class="cls-2" x="203.73" y="157.94" width="5.63" height="20.4" transform="translate(413.09 336.28) rotate(180)"/>
          </g>
        </g>
        <g>
          <path class="cls-3" d="M187.4,65.9H112.6c-5.57,0-10.08,11.44-10.08,17s4.51,3.16,10.08,3.16h14.34c.37,3.68,3.44-11.25,7.21-11.25h31.7c3.77,0,6.84,14.93,7.21,11.25H187.4c5.57,0,10.08,2.4,10.08-3.16S193,65.9,187.4,65.9Z"/>
          <path class="cls-4" d="M187.4,74H112.6a10.09,10.09,0,0,0,0,20.17h14.34c.37,3.68,3.44-11.25,7.21-11.25h31.7c3.77,0,6.84,14.93,7.21,11.25H187.4a10.09,10.09,0,0,0,0-20.17Z"/>
          <g>
            <g>
              <circle class="cls-4" cx="129.06" cy="82.91" r="16.88"/>
              <path class="cls-5" d="M142.8,82.91a13.74,13.74,0,1,1-13.74-13.74A13.74,13.74,0,0,1,142.8,82.91Z"/>
              <path class="cls-4" d="M137.54,82.91a8.48,8.48,0,1,1-8.48-8.49A8.48,8.48,0,0,1,137.54,82.91Z"/>
              <path class="cls-6" d="M127.37,78.33a3.55,3.55,0,1,1-3.54-3.55A3.53,3.53,0,0,1,127.37,78.33Z"/>
            </g>
            <g>
              <circle class="cls-4" cx="170.94" cy="82.91" r="16.88"/>
              <path class="cls-5" d="M184.67,82.91a13.74,13.74,0,1,1-13.73-13.74A13.73,13.73,0,0,1,184.67,82.91Z"/>
              <path class="cls-4" d="M179.42,82.91a8.48,8.48,0,1,1-8.48-8.49A8.48,8.48,0,0,1,179.42,82.91Z"/>
              <path class="cls-6" d="M169.25,78.33a3.55,3.55,0,1,1-3.54-3.55A3.54,3.54,0,0,1,169.25,78.33Z"/>
            </g>
          </g>
        </g>
      </g>
      <path class="cls-7" d="M216.51,263c0,3.78-29.13,6.85-65.06,6.85S86.38,266.74,86.38,263s29.13-6.85,65.07-6.85S216.51,259.18,216.51,263Z"/>
    </g>
  </g>
</svg>
