<svg xmlns="http://www.w3.org/2000/svg" xmlns:xlink="http://www.w3.org/1999/xlink" width="300" height="300" viewBox="0 0 300 300">
  <defs>
    <style>
      .cls-1 {
        isolation: isolate;
      }

      .cls-2 {
        fill: #ffefbc;
      }

      .cls-3 {
        opacity: 0.1;
      }

      .cls-4 {
        fill: #4a6d73;
      }

      .cls-5 {
        fill: #00ebaa;
      }

      .cls-6 {
        fill: #f15a24;
      }

      .cls-7 {
        fill: url(#Áåçûìÿííûé_ãðàäèåíò_86);
      }

      .cls-8 {
        fill: #fff7cc;
        opacity: 0.85;
      }

      .cls-21, .cls-22, .cls-25, .cls-26, .cls-27, .cls-8 {
        mix-blend-mode: screen;
      }

      .cls-9 {
        fill: #2a3e51;
      }

      .cls-10 {
        fill: url(#Áåçûìÿííûé_ãðàäèåíò_191);
      }

      .cls-11 {
        fill: #d44e2f;
      }

      .cls-12 {
        fill: url(#Áåçûìÿííûé_ãðàäèåíò_187);
      }

      .cls-13 {
        fill: url(#Áåçûìÿííûé_ãðàäèåíò_181);
      }

      .cls-14 {
        fill: url(#Áåçûìÿííûé_ãðàäèåíò_187-2);
      }

      .cls-15 {
        fill: url(#Áåçûìÿííûé_ãðàäèåíò_187-3);
      }

      .cls-16 {
        fill: url(#Áåçûìÿííûé_ãðàäèåíò_181-2);
      }

      .cls-17 {
        fill: url(#Áåçûìÿííûé_ãðàäèåíò_187-4);
      }

      .cls-18 {
        fill: url(#Áåçûìÿííûé_ãðàäèåíò_181-3);
      }

      .cls-19 {
        fill: url(#Áåçûìÿííûé_ãðàäèåíò_160);
      }

      .cls-20 {
        fill: #9c351e;
      }

      .cls-21 {
        fill: url(#Áåçûìÿííûé_ãðàäèåíò_166);
      }

      .cls-22 {
        fill: url(#Áåçûìÿííûé_ãðàäèåíò_40);
      }

      .cls-23 {
        fill: url(#Áåçûìÿííûé_ãðàäèåíò_86-2);
      }

      .cls-24 {
        fill: #3d595e;
      }

      .cls-25 {
        fill: url(#Áåçûìÿííûé_ãðàäèåíò_171);
      }

      .cls-26 {
        fill: url(#Áåçûìÿííûé_ãðàäèåíò_171-2);
      }

      .cls-27 {
        fill: url(#Áåçûìÿííûé_ãðàäèåíò_40-2);
      }

      .cls-28 {
        fill: #ffc75e;
      }

      .cls-29 {
        fill: #476f87;
      }
    </style>
    <linearGradient id="Áåçûìÿííûé_ãðàäèåíò_86" data-name="Áåçûìÿííûé ãðàäèåíò 86" x1="142.14" y1="77.17" x2="146.53" y2="92.65" gradientUnits="userSpaceOnUse">
      <stop offset="0" stop-color="#f5ebcb"/>
      <stop offset="0.41" stop-color="#b8c2b2"/>
      <stop offset="0.84" stop-color="#759696"/>
    </linearGradient>
    <linearGradient id="Áåçûìÿííûé_ãðàäèåíò_191" data-name="Áåçûìÿííûé ãðàäèåíò 191" x1="233.7" y1="274.1" x2="207.66" y2="234.15" xlink:href="#Áåçûìÿííûé_ãðàäèåíò_86"/>
    <linearGradient id="Áåçûìÿííûé_ãðàäèåíò_187" data-name="Áåçûìÿííûé ãðàäèåíò 187" x1="251.01" y1="195.97" x2="266.33" y2="266.34" gradientUnits="userSpaceOnUse">
      <stop offset="0" stop-color="#ffcb5d"/>
      <stop offset="0.74" stop-color="#ed8e26"/>
      <stop offset="0.84" stop-color="#eb861f"/>
    </linearGradient>
    <linearGradient id="Áåçûìÿííûé_ãðàäèåíò_181" data-name="Áåçûìÿííûé ãðàäèåíò 181" x1="251.49" y1="198.24" x2="258.36" y2="229.77" gradientUnits="userSpaceOnUse">
      <stop offset="0" stop-color="#ffefbc"/>
      <stop offset="0.26" stop-color="#f7dead"/>
      <stop offset="0.77" stop-color="#e4b285"/>
      <stop offset="1" stop-color="#da9d71"/>
    </linearGradient>
    <linearGradient id="Áåçûìÿííûé_ãðàäèåíò_187-2" x1="177.35" y1="74.36" x2="165.23" y2="220.25" xlink:href="#Áåçûìÿííûé_ãðàäèåíò_187"/>
    <linearGradient id="Áåçûìÿííûé_ãðàäèåíò_187-3" x1="153.58" y1="194.08" x2="130.01" y2="268.31" xlink:href="#Áåçûìÿííûé_ãðàäèåíò_187"/>
    <linearGradient id="Áåçûìÿííûé_ãðàäèåíò_181-2" x1="151.31" y1="194.88" x2="134.54" y2="247.73" xlink:href="#Áåçûìÿííûé_ãðàäèåíò_181"/>
    <linearGradient id="Áåçûìÿííûé_ãðàäèåíò_187-4" x1="89.08" y1="197.7" x2="117.86" y2="255.11" xlink:href="#Áåçûìÿííûé_ãðàäèåíò_187"/>
    <linearGradient id="Áåçûìÿííûé_ãðàäèåíò_181-3" x1="96.27" y1="197.05" x2="111.76" y2="227.94" xlink:href="#Áåçûìÿííûé_ãðàäèåíò_181"/>
    <radialGradient id="Áåçûìÿííûé_ãðàäèåíò_160" data-name="Áåçûìÿííûé ãðàäèåíò 160" cx="192.36" cy="185.45" r="36.81" gradientUnits="userSpaceOnUse">
      <stop offset="0.01" stop-color="#22567d"/>
      <stop offset="0.25" stop-color="#204e76"/>
      <stop offset="0.63" stop-color="#1a3a62"/>
      <stop offset="1" stop-color="#131f49"/>
    </radialGradient>
    <linearGradient id="Áåçûìÿííûé_ãðàäèåíò_166" data-name="Áåçûìÿííûé ãðàäèåíò 166" x1="211.9" y1="158.66" x2="178.68" y2="196.15" gradientUnits="userSpaceOnUse">
      <stop offset="0" stop-color="#858274"/>
      <stop offset="0.72" stop-color="#262521"/>
      <stop offset="1"/>
    </linearGradient>
    <linearGradient id="Áåçûìÿííûé_ãðàäèåíò_40" data-name="Áåçûìÿííûé ãðàäèåíò 40" x1="210.47" y1="100.13" x2="181.51" y2="146.81" gradientUnits="userSpaceOnUse">
      <stop offset="0.17" stop-color="#bdb58f"/>
      <stop offset="0.26" stop-color="#b3ac88"/>
      <stop offset="0.41" stop-color="#999274"/>
      <stop offset="0.6" stop-color="#6e6953"/>
      <stop offset="0.82" stop-color="#333127"/>
      <stop offset="1"/>
    </linearGradient>
    <linearGradient id="Áåçûìÿííûé_ãðàäèåíò_86-2" x1="160.52" y1="81.98" x2="135.83" y2="119.68" xlink:href="#Áåçûìÿííûé_ãðàäèåíò_86"/>
    <linearGradient id="Áåçûìÿííûé_ãðàäèåíò_171" data-name="Áåçûìÿííûé ãðàäèåíò 171" x1="102.62" y1="191.53" x2="103.8" y2="249.6" gradientUnits="userSpaceOnUse">
      <stop offset="0" stop-color="#c4bfaa"/>
      <stop offset="0.5" stop-color="#646157"/>
      <stop offset="1"/>
    </linearGradient>
    <linearGradient id="Áåçûìÿííûé_ãðàäèåíò_171-2" x1="142.98" y1="193.53" x2="148.81" y2="263.79" xlink:href="#Áåçûìÿííûé_ãðàäèåíò_171"/>
    <linearGradient id="Áåçûìÿííûé_ãðàäèåíò_40-2" x1="163.22" y1="84.81" x2="149.86" y2="102.66" xlink:href="#Áåçûìÿííûé_ãðàäèåíò_40"/>
  </defs>
  <g class="cls-1">
    <g id="Layer_1" data-name="Layer 1">
      <g>
        <polygon class="cls-2" points="254.13 36.23 224.77 145.78 195.42 255.34 115.22 175.14 35.02 94.94 144.57 65.58 254.13 36.23"/>
        <g>
          <path class="cls-3" d="M256.63,268.92c0,4.86-37.43,8.8-83.61,8.8s-83.6-3.94-83.6-8.8,37.43-8.8,83.6-8.8S256.63,264.06,256.63,268.92Z"/>
          <g>
            <g>
              <polygon class="cls-4" points="145 84.27 138.98 35.24 137.94 35.35 143.17 84.46 145 84.27"/>
              <polygon class="cls-5" points="139.37 22.72 140.23 36.2 137.24 36.72 135.36 22.27 139.37 22.72"/>
              <polygon class="cls-4" points="136.66 93.33 133.38 66.64 132.81 66.7 135.66 93.44 136.66 93.33"/>
              <polygon class="cls-5" points="133.59 59.78 134.06 67.17 132.42 67.45 131.39 59.53 133.59 59.78"/>
              <path class="cls-4" d="M151.76,90.78,149.55,84c-.94-2.3-10.41-1.74-10.81.26L138,92.62Z"/>
              <path class="cls-4" d="M152.6,75,152,71.84a.51.51,0,1,0-1,.11l.29,3.22Z"/>
              <path class="cls-6" d="M163.4,91.29s-2.18-5-4-5.15-2.37,3.8-2.37,3.8Z"/>
              <path class="cls-4" d="M156.34,91l-2.07-15.19c-.19-1.35-4.76-.87-4.58.48l1.72,14Z"/>
              <polygon class="cls-4" points="143.66 80.31 144.16 90.48 140.64 91.29 141.24 80.85 143.66 80.31"/>
              <polygon class="cls-7" points="143.66 80.31 145.16 80.97 145.36 82.5 144.66 82.48 145.48 90.81 144.08 90.82 143.66 80.31"/>
              <polygon class="cls-8" points="138.73 23.29 139.22 33.58 137.91 33.72 136.29 23.55 138.73 23.29"/>
              <polygon class="cls-8" points="133.1 60.25 133.57 65.93 132.88 66.01 132.11 60.35 133.1 60.25"/>
            </g>
            <path class="cls-9" d="M179.2,222.13c-3.6,10.18-8.79,19.39-14.8,28.38a58.09,58.09,0,0,1-10.62-7,29.08,29.08,0,0,1,2.32-11.08,38.44,38.44,0,0,0,6.41,5.16,64.17,64.17,0,0,0,11.43-15.49A15.74,15.74,0,0,1,179.2,222.13Z"/>
            <path class="cls-10" d="M223.09,210.51a12.86,12.86,0,0,0-7.63-2.89A60.72,60.72,0,0,0,195,215.19a162.38,162.38,0,0,1,7,16.61,128.54,128.54,0,0,1-11.41,7.94A76.79,76.79,0,0,1,183,221.65c-2.07-.21-3.8-.09-5.33,1.16a78.84,78.84,0,0,0,9.91,27.78,83.25,83.25,0,0,0,17.41-9.82,156.72,156.72,0,0,1,5.14,24.5,28.18,28.18,0,0,0,16.5,1.43C231.87,252.64,230.27,221.57,223.09,210.51Z"/>
            <path class="cls-11" d="M246.2,201.33a46.55,46.55,0,0,0-20.39,6.85q11.06,28.47,19.43,57.9a82.22,82.22,0,0,0,15.6.61h0A158.72,158.72,0,0,0,246.2,201.33Z"/>
            <path class="cls-9" d="M242.63,204.76a48.13,48.13,0,0,0-14.58,5.41A318.56,318.56,0,0,1,241,243.25l13.47-.56C250.94,228.61,247.16,215.52,242.63,204.76Z"/>
            <path class="cls-12" d="M264.65,234.54c-.84-10.51-3.75-21.33-9.5-30.18-3.19-2.21-8.75-3.06-8.75-3.06l-.2,0a158.72,158.72,0,0,1,14.68,65.35,19.45,19.45,0,0,0,2.8-.54C264.58,255.63,265.49,245.06,264.65,234.54Z"/>
            <path class="cls-13" d="M263.87,228.24a62,62,0,0,0-8.72-23.88c-3.19-2.21-8.75-3.06-8.75-3.06l-.2,0a164.9,164.9,0,0,1,9.46,26.39C258.37,227.86,261.14,228.08,263.87,228.24Z"/>
            <path class="cls-9" d="M243.34,226.31a42.49,42.49,0,0,0-2.49-6.36,59.29,59.29,0,0,0-7.21,2c-4.24,7.19-16.82,19.61-23.18,23.87-9.36-3.37-16-12.51-22.37-19.05-.67.67-1.23,1.11-1.9,1.78,6.64,8.28,14.31,19.35,24.91,23C218.06,248.68,237.21,235.25,243.34,226.31Z"/>
            <path class="cls-14" d="M123.77,108.91c6.31,37.07,11.12,75.3,14.72,114.49H207.4c2.53-5.87,4.32-11.37,4.71-16.18l-3.37-.89a325.62,325.62,0,0,0,5.39-35.1l4.26-1.07c4-21.45,6-41.28,4.49-61.25-17.55-5.24-40.37-8.45-62.17-10.32A129.55,129.55,0,0,0,123.77,108.91Z"/>
            <path class="cls-11" d="M138.49,223.4h22.64l-.42-124.81a129.55,129.55,0,0,0-36.94,10.32C130.08,146,134.89,184.21,138.49,223.4Z"/>
            <path class="cls-9" d="M131.9,226.8c-3.27-5.54-6.87-10.34-10.14-15.87-1.05,4.07-2,7.62-3.05,11.7l11.43,12.69A47.57,47.57,0,0,0,131.9,226.8Z"/>
            <path class="cls-15" d="M157.1,200.49c3.32,22.13-.11,45.14-8.49,65.88a43.83,43.83,0,0,1-14.81-.05,116.08,116.08,0,0,1-1.23-64.06C139.53,199.78,149.89,198.87,157.1,200.49Z"/>
            <path class="cls-16" d="M132.57,202.26a115.25,115.25,0,0,0-3.83,26,14.92,14.92,0,0,0,5.74,1,156,156,0,0,0,.7,16.46c1.9,0,3.78.12,5.68.17a8.68,8.68,0,0,0,3.66-.46A66.05,66.05,0,0,1,148,227.89c3.37-.75,6.79-1.72,10.11-2.74a116.87,116.87,0,0,0-1-24.66C149.89,198.87,139.53,199.78,132.57,202.26Z"/>
            <path class="cls-17" d="M123.77,205.34c-2.66,21.74-11.59,43.08-24.56,60.73a17.85,17.85,0,0,1-6.83-.24,134.68,134.68,0,0,1,7.32-67.07A33.49,33.49,0,0,1,123.77,205.34Z"/>
            <path class="cls-18" d="M99.7,198.76a134.43,134.43,0,0,0-8.15,35.44,35.44,35.44,0,0,0,9.26.1,129.23,129.23,0,0,1,9.93-21.9,31.27,31.27,0,0,1,11.46,2.37c.65-3.13,1.18-6.28,1.57-9.43A33.49,33.49,0,0,0,99.7,198.76Z"/>
            <path class="cls-11" d="M110.62,212l-.32.05-.15.28a130.37,130.37,0,0,0-9.41,21.14,28.7,28.7,0,0,1-9.11-.11l-.12,1.31a29.68,29.68,0,0,0,9.83,0l.39-.06.13-.37a129,129,0,0,1,9.28-21,18.14,18.14,0,0,1,11,2c.1-.44.2-.88.28-1.32A19.26,19.26,0,0,0,110.62,212Z"/>
            <path class="cls-11" d="M158.16,224a49.85,49.85,0,0,1-10.38,3l-.39.08-.11.39a127.37,127.37,0,0,0-3.23,16.29l-.16,1a39.06,39.06,0,0,1-8.22.2,144.05,144.05,0,0,1-.14-16.09l0-.7h-.7a25.39,25.39,0,0,1-6.11-.68c0,.45,0,.9,0,1.35a27.45,27.45,0,0,0,5.46.65,149.39,149.39,0,0,0,.21,16.1l0,.56.55.06a33.94,33.94,0,0,0,3.75.19,39,39,0,0,0,5.85-.42L145,246l.31-2a128,128,0,0,1,3.09-15.75,53.08,53.08,0,0,0,9.65-2.74C158.12,225,158.13,224.49,158.16,224Z"/>
            <path class="cls-19" d="M157.79,170.5A300.11,300.11,0,0,0,160,206.23l3.83,1,17.51,1.64.76,4.66,12.71.25.92-5,13-2.47a325.62,325.62,0,0,0,5.39-35.1,460.68,460.68,0,0,0-51.79-2.75Z"/>
            <g>
              <polygon class="cls-11" points="176.18 109.93 171.08 109.63 166.01 109.33 164.27 109.27 164.65 103.07 165.35 103.16 171.82 104.03 178.29 104.89 179.04 104.98 178.85 105.71 178.38 107.58 177.9 109.47 177.77 109.98 176.18 109.93 176.18 109.93"/>
              <polygon class="cls-5" points="176.75 109.64 164.46 108.97 164.75 104.15 177.7 105.88 176.75 109.64 176.75 109.64"/>
            </g>
            <path class="cls-20" d="M139,179.7l-5,1c0,.33.07.66.11,1l5.1-1.06c3.76-.77,7.53-1.54,10.48-2.17l.36-.08,0-.37c.56-9.36-.49-21-1.48-30.18l0-.33-.32-.09c-1.9-.58-5.58-.36-6.92-.26-1.17-14.61-2.38-26.52-3.82-37.43l-1,.13c1.45,11,2.67,23.05,3.86,37.87l0,.5.5,0a28.35,28.35,0,0,1,6.72.09c1,8.93,2,20.2,1.46,29.3Z"/>
            <path class="cls-11" d="M223.37,123.46a48.86,48.86,0,0,1-12.25,1.81h-.43l-.06.43c-.91,6.52-2.31,14.19-5.79,21.7A107.57,107.57,0,0,1,184,145.76,147.94,147.94,0,0,0,181,122.2l-.08-.33-.34-.05a203.09,203.09,0,0,1-23.77-5l-.26,1a203.11,203.11,0,0,0,23.55,5,147.49,147.49,0,0,1,3,23.45v.39l.39.07a106.1,106.1,0,0,0,19.44,1.74c.75,0,1.5,0,2.25,0h.31l.13-.27c3.56-7.56,5-15.26,6-21.84a50,50,0,0,0,11.81-1.78C223.36,124.14,223.37,123.8,223.37,123.46Z"/>
            <path class="cls-5" d="M203.39,190.42c-.39,4.72-.76,8.89-2.41,13.22-2.48.07-5.77.11-7.89-.7a79.1,79.1,0,0,1,0-12.51A40.86,40.86,0,0,1,203.39,190.42ZM184.31,203a80.55,80.55,0,0,0,1.78-16.59A65.33,65.33,0,0,0,173,184.93a112.94,112.94,0,0,0,1.45,19.14A61,61,0,0,0,184.31,203Z"/>
            <path class="cls-21" d="M164.3,170.75c8.06,15,21,26.43,37.9,34.87l5.53-.64a172.68,172.68,0,0,0,4.38-32.55C195.06,170.46,178.92,169.63,164.3,170.75Z"/>
            <path class="cls-22" d="M222.17,114.52l0-.75,0-.56-.07-.71-.3-2.88-2.46-.56-6.35-1.38-5.57-1.14c-3.66-.72-7.2-1.37-10.57-2-6.76-1.16-12.88-2.07-18-2.71s-9.35-1.06-12.25-1.25c-1.45-.12-2.59-.15-3.35-.19l-1.17-.05,4.39,1.05c2.81.68,6.87,1.75,11.88,3l17.61,4.48,10.42,2.54,10.59,2.45h0s0-.1,0,.16l0,.69c.06.91.08,1.85.11,2.78.06,1.85.1,3.7.12,5.51,0,3.64.08,7.14.12,10.48,0,6.68.06,12.69.09,17.72s-.06,9.11-.15,11.92c-.06,1.41-.11,2.5-.18,3.23s-.09,1.13-.09,1.13.11-.37.31-1.09.46-1.78.75-3.17c.58-2.77,1.28-6.82,1.93-11.85s1.26-11.05,1.72-17.76c.21-3.36.41-6.9.5-10.58.06-1.84.08-3.72.07-5.65C222.22,116.49,222.23,115.53,222.17,114.52Z"/>
            <path class="cls-23" d="M133,94.1a92.11,92.11,0,0,0,2.7,26.82,9.51,9.51,0,0,0,4.95,1c3.21-.46,6.62-1.38,9.77-2.14a68.54,68.54,0,0,1-.48-19.35l10.79-1.81,8,.75a31.66,31.66,0,0,0-4.8-9.62,89.48,89.48,0,0,0-20,0A31.06,31.06,0,0,0,133,94.1Z"/>
            <path class="cls-4" d="M145.44,118a128.59,128.59,0,0,1-1.89-28.18A30.86,30.86,0,0,0,133,94.1a92.21,92.21,0,0,0,2.68,26.73A46.6,46.6,0,0,0,145.44,118Z"/>
            <path class="cls-24" d="M147.24,118.72c-.71-.23-1.09-.48-1.8-.71a49,49,0,0,1-9.78,2.82s0,.06,0,.09a9.51,9.51,0,0,0,4.95,1c3.19-.46,6.57-1.37,9.71-2.12Z"/>
            <path class="cls-25" d="M114.71,202.21a193.94,193.94,0,0,0-18.63,51.71c-1.41.1-2.64.06-4,.16a150.88,150.88,0,0,1,8.08-53.59C104.51,200,110.71,200.32,114.71,202.21Z"/>
            <polygon class="cls-11" points="255.32 226.81 263.78 227.58 263.98 228.82 255.96 228.81 255.32 226.81"/>
            <path class="cls-26" d="M147.91,264c-1-.05-1.61,0-2.65-.07A323.22,323.22,0,0,0,148.49,212c-5.42-.89-11.08-1.61-16.5-2.5a30.44,30.44,0,0,1,1.21-5.73,54.76,54.76,0,0,1,22.24-2.21C158.23,210.6,156.89,243.31,147.91,264Z"/>
            <path class="cls-27" d="M144.83,90.71l2.95,7.23c5-.46,11.83,0,19.1.65l-3.53-7.88A49.09,49.09,0,0,0,144.83,90.71Z"/>
            <polygon class="cls-9" points="163.07 223.13 197.52 223.4 194.94 232.59 165.98 232.59 163.07 223.13"/>
            <path class="cls-28" d="M158.84,206.73l4.84,2.07,17.51,1.68.84,4.45h13.81l.84-4.88,15.43-2.83-3.37-.89-13,2.47-.92,5-12.71-.25-.76-4.66-17.51-1.64-3.83-1a300.11,300.11,0,0,1-2.23-35.73l-1.51-.31A335.59,335.59,0,0,0,158.84,206.73Z"/>
            <path class="cls-11" d="M214.13,171.23l4.26-1.07a395.83,395.83,0,0,0-56.22-3.28l-5.89,3.31,1.51.31,4.55-2A460.68,460.68,0,0,1,214.13,171.23Z"/>
            <path class="cls-29" d="M241.52,228.67l-2-6.49a237.42,237.42,0,0,1-25.36,24.27l1.46,2.78C223.32,244.75,235.44,235.82,241.52,228.67Z"/>
            <polygon class="cls-29" points="171.82 232.59 170.81 226.81 196.56 226.81 194.94 232.59 171.82 232.59"/>
          </g>
        </g>
      </g>
    </g>
  </g>
</svg>
