<svg id="Layer_1" data-name="Layer 1" xmlns="http://www.w3.org/2000/svg" width="300" height="300" viewBox="0 0 300 300">
  <defs>
    <style>
      .cls-1 {
        fill: #d8b8ba;
      }

      .cls-2 {
        opacity: 0.1;
      }

      .cls-3 {
        fill: #313444;
      }

      .cls-4 {
        fill: #d9353a;
      }

      .cls-5 {
        fill: #aa2731;
      }

      .cls-6 {
        fill: #6881ac;
      }

      .cls-7 {
        fill: #00cfff;
      }
    </style>
  </defs>
  <g>
    <circle class="cls-1" cx="150" cy="132.35" r="105.93"/>
    <g>
      <path class="cls-2" d="M213.9,266.84c0,3.72-28.65,6.74-64,6.74s-64-3-64-6.74,28.65-6.73,64-6.73S213.9,263.12,213.9,266.84Z"/>
      <g>
        <g>
          <g>
            <path class="cls-3" d="M99.86,245l8.51,4.15-.18,9.29a1.15,1.15,0,0,1-2.21.44L103.83,254l-6.53-2.42Z"/>
            <path class="cls-3" d="M114.94,188.7s-30,15.69-29.06,57.66h14.3s-3.69-40.59,21.22-49.81Z"/>
            <path class="cls-4" d="M83.12,238.06h19.37a0,0,0,0,1,0,0v12.83a6.89,6.89,0,0,1-6.89,6.89H90a6.89,6.89,0,0,1-6.89-6.89V238.06A0,0,0,0,1,83.12,238.06Z"/>
            <path class="cls-3" d="M85.88,246.36l-10.37,4.15.24,10.16a1.16,1.16,0,0,0,2.17.52L81,255.36l8-2.42Z"/>
            <path class="cls-3" d="M96.4,247.05l-2.56,6.58,2.08,4.49-.15,4.38A1.15,1.15,0,0,0,98,263l4.88-10.44Z"/>
          </g>
          <g>
            <path class="cls-3" d="M200.15,245l-8.52,4.15.18,9.29a1.15,1.15,0,0,0,2.21.44l2.15-4.89,6.53-2.42Z"/>
            <path class="cls-3" d="M185.06,188.7s30,15.69,29.06,57.66h-14.3s3.69-40.59-21.22-49.81Z"/>
            <path class="cls-4" d="M204.4,238.06H210a6.89,6.89,0,0,1,6.89,6.89v12.83a0,0,0,0,1,0,0H197.51a0,0,0,0,1,0,0V244.95A6.89,6.89,0,0,1,204.4,238.06Z" transform="translate(414.39 495.84) rotate(180)"/>
            <path class="cls-3" d="M214.12,246.36l10.37,4.15-.24,10.16a1.16,1.16,0,0,1-2.17.52L219,255.36l-8-2.42Z"/>
            <path class="cls-3" d="M203.61,247.05l2.55,6.58-2.08,4.49.15,4.38A1.15,1.15,0,0,1,202,263l-4.88-10.44Z"/>
          </g>
        </g>
        <rect class="cls-5" x="129.01" y="180.86" width="41.97" height="34.59"/>
        <rect class="cls-3" x="129.01" y="152.73" width="41.97" height="34.59"/>
        <path class="cls-4" d="M179.48,198.66h-59a9.85,9.85,0,0,1-9.84-9.84h0a9.85,9.85,0,0,1,9.84-9.84h59a9.85,9.85,0,0,1,9.84,9.84h0A9.85,9.85,0,0,1,179.48,198.66Z"/>
        <g>
          <g>
            <g>
              <g>
                <polygon class="cls-3" points="129.45 246.22 142.98 246.22 146.74 243.25 125.68 243.25 129.45 246.22"/>
                <polygon class="cls-3" points="125.68 229.91 129.45 232.88 142.98 232.88 146.74 229.91 125.68 229.91"/>
                <polygon class="cls-6" points="125.68 236.34 146.74 236.34 142.98 232.88 129.45 232.88 125.68 236.34"/>
                <polygon class="cls-3" points="129.45 239.8 142.98 239.8 146.74 236.34 125.68 236.34 129.45 239.8"/>
                <polygon class="cls-6" points="125.68 243.25 146.74 243.25 142.98 239.8 129.45 239.8 125.68 243.25"/>
              </g>
              <g>
                <polygon class="cls-3" points="129.45 259.57 142.98 259.57 146.74 256.6 125.68 256.6 129.45 259.57"/>
                <polygon class="cls-6" points="125.68 249.68 146.74 249.68 142.98 246.22 129.45 246.22 125.68 249.68"/>
                <polygon class="cls-3" points="129.45 253.14 142.98 253.14 146.74 249.68 125.68 249.68 129.45 253.14"/>
                <polygon class="cls-6" points="125.68 256.6 146.74 256.6 142.98 253.14 129.45 253.14 125.68 256.6"/>
              </g>
            </g>
            <polygon class="cls-4" points="147.34 266.92 125.09 266.92 126.61 259.05 145.81 259.05 147.34 266.92"/>
            <polygon class="cls-5" points="147.34 266.92 125.09 266.92 126.61 268.68 145.81 268.68 147.34 266.92"/>
          </g>
          <g>
            <g>
              <g>
                <polygon class="cls-3" points="157.02 246.22 170.55 246.22 174.32 243.25 153.26 243.25 157.02 246.22"/>
                <polygon class="cls-3" points="153.26 229.91 157.02 232.88 170.55 232.88 174.32 229.91 153.26 229.91"/>
                <polygon class="cls-6" points="153.26 236.34 174.32 236.34 170.55 232.88 157.02 232.88 153.26 236.34"/>
                <polygon class="cls-3" points="157.02 239.8 170.55 239.8 174.32 236.34 153.26 236.34 157.02 239.8"/>
                <polygon class="cls-6" points="153.26 243.25 174.32 243.25 170.55 239.8 157.02 239.8 153.26 243.25"/>
              </g>
              <g>
                <polygon class="cls-3" points="157.02 259.57 170.55 259.57 174.32 256.6 153.26 256.6 157.02 259.57"/>
                <polygon class="cls-6" points="153.26 249.68 174.32 249.68 170.55 246.22 157.02 246.22 153.26 249.68"/>
                <polygon class="cls-3" points="157.02 253.14 170.55 253.14 174.32 249.68 153.26 249.68 157.02 253.14"/>
                <polygon class="cls-6" points="153.26 256.6 174.32 256.6 170.55 253.14 157.02 253.14 153.26 256.6"/>
              </g>
            </g>
            <polygon class="cls-4" points="174.91 266.92 152.66 266.92 154.19 259.05 173.39 259.05 174.91 266.92"/>
            <polygon class="cls-5" points="174.91 266.92 152.66 266.92 154.19 268.68 173.39 268.68 174.91 266.92"/>
          </g>
        </g>
        <rect class="cls-4" x="123.87" y="214.92" width="52.27" height="15.83"/>
        <g>
          <path class="cls-4" d="M177.74,175.47H122.26a46.73,46.73,0,0,1-46.73-46.73h0A46.73,46.73,0,0,1,122.26,82h55.48a46.73,46.73,0,0,1,46.73,46.73h0A46.73,46.73,0,0,1,177.74,175.47Z"/>
          <path class="cls-3" d="M172.59,166.8H127.41a38.07,38.07,0,0,1-38.07-38.06h0a38.08,38.08,0,0,1,38.07-38.07h45.18a38.08,38.08,0,0,1,38.07,38.07h0A38.07,38.07,0,0,1,172.59,166.8Z"/>
          <path class="cls-7" d="M122.67,121.82a4.89,4.89,0,0,0-6.92,0l-11.67,11.67a4.89,4.89,0,0,0,6.92,6.92l4.75-4.75a4.89,4.89,0,0,1,6.92,0l4.75,4.75a4.89,4.89,0,0,0,6.92-6.92Zm73.25,11.67-11.67-11.67a4.89,4.89,0,0,0-6.92,0l-11.67,11.67a4.89,4.89,0,0,0,6.92,6.92l4.75-4.75a4.89,4.89,0,0,1,6.92,0l4.75,4.75a4.89,4.89,0,0,0,6.92-6.92Z"/>
          <g>
            <polygon class="cls-4" points="90.5 100.37 118.64 87.74 113.33 85.84 90.5 100.37"/>
            <polygon class="cls-4" points="175.6 85.15 150 86.31 124.4 85.15 118.64 87.74 123.02 89.3 131.32 103.83 145.16 103.83 154.84 103.83 168.68 103.83 176.99 89.3 181.36 87.74 175.6 85.15"/>
            <polygon class="cls-4" points="186.67 85.84 181.36 87.74 209.5 100.37 186.67 85.84"/>
          </g>
        </g>
      </g>
    </g>
  </g>
</svg>
